<?xml version="1.0" encoding="UTF-8" standalone="no"?>
<!-- This is a Stata 15.1 generated SVG file (http://www.stata.com) -->

<svg version="1.1" width="3.54in" height="3.54in" viewBox="0 0 2551 2551" xmlns="http://www.w3.org/2000/svg" xmlns:xlink="http://www.w3.org/1999/xlink">
	<desc>Stata Graph - Graph</desc>
	<rect x="0" y="0" width="2551" height="2551" style="fill:#FFFFFF;stroke:none"/>
	<rect x="0.00" y="0.08" width="2551.00" height="2550.92" style="fill:#FFFFFF"/>
	<rect x="2.55" y="2.63" width="2545.90" height="2545.82" style="fill:none;stroke:#FFFFFF;stroke-width:5.10"/>
	<line x1="365.68" y1="1904.40" x2="2346.91" y2="1904.40" style="stroke:#E8E8E8;stroke-width:4.00"/>
	<line x1="365.68" y1="1596.37" x2="2346.91" y2="1596.37" style="stroke:#E8E8E8;stroke-width:4.00"/>
	<line x1="365.68" y1="1288.33" x2="2346.91" y2="1288.33" style="stroke:#E8E8E8;stroke-width:4.00"/>
	<line x1="365.68" y1="980.38" x2="2346.91" y2="980.38" style="stroke:#E8E8E8;stroke-width:4.00"/>
	<line x1="365.68" y1="672.35" x2="2346.91" y2="672.35" style="stroke:#E8E8E8;stroke-width:4.00"/>
	<line x1="365.68" y1="364.31" x2="2346.91" y2="364.31" style="stroke:#E8E8E8;stroke-width:4.00"/>
	<line x1="421.81" y1="1960.52" x2="421.81" y2="308.19" style="stroke:#E8E8E8;stroke-width:4.00"/>
	<line x1="723.23" y1="1960.52" x2="723.23" y2="308.19" style="stroke:#E8E8E8;stroke-width:4.00"/>
	<line x1="1024.74" y1="1960.52" x2="1024.74" y2="308.19" style="stroke:#E8E8E8;stroke-width:4.00"/>
	<line x1="1326.16" y1="1960.52" x2="1326.16" y2="308.19" style="stroke:#E8E8E8;stroke-width:4.00"/>
	<line x1="1627.59" y1="1960.52" x2="1627.59" y2="308.19" style="stroke:#E8E8E8;stroke-width:4.00"/>
	<line x1="1929.09" y1="1960.52" x2="1929.09" y2="308.19" style="stroke:#E8E8E8;stroke-width:4.00"/>
	<line x1="2230.52" y1="1960.52" x2="2230.52" y2="308.19" style="stroke:#E8E8E8;stroke-width:4.00"/>
	<line x1="1145.28" y1="563.13" x2="1205.54" y2="576.92" stroke-linecap="round" style="stroke:#E69F00;stroke-width:10.00"/>
	<line x1="1205.54" y1="576.92" x2="1265.81" y2="601.48" stroke-linecap="round" style="stroke:#E69F00;stroke-width:10.00"/>
	<line x1="1265.81" y1="601.48" x2="1326.08" y2="604.91" stroke-linecap="round" style="stroke:#E69F00;stroke-width:10.00"/>
	<line x1="1326.08" y1="604.91" x2="1386.43" y2="616.15" stroke-linecap="round" style="stroke:#E69F00;stroke-width:10.00"/>
	<line x1="1386.43" y1="616.15" x2="1446.70" y2="591.03" stroke-linecap="round" style="stroke:#E69F00;stroke-width:10.00"/>
	<line x1="1446.70" y1="591.03" x2="1506.97" y2="643.81" stroke-linecap="round" style="stroke:#E69F00;stroke-width:10.00"/>
	<line x1="1506.97" y1="643.81" x2="1567.24" y2="625.23" stroke-linecap="round" style="stroke:#E69F00;stroke-width:10.00"/>
	<line x1="1567.24" y1="625.23" x2="1627.59" y2="639.42" stroke-linecap="round" style="stroke:#E69F00;stroke-width:10.00"/>
	<line x1="1627.59" y1="639.42" x2="1687.86" y2="671.07" stroke-linecap="round" style="stroke:#E69F00;stroke-width:10.00"/>
	<line x1="1687.86" y1="671.07" x2="1748.13" y2="673.70" stroke-linecap="round" style="stroke:#E69F00;stroke-width:10.00"/>
	<line x1="1748.13" y1="673.70" x2="1808.48" y2="707.50" stroke-linecap="round" style="stroke:#E69F00;stroke-width:10.00"/>
	<line x1="1808.48" y1="707.50" x2="1868.75" y2="687.18" stroke-linecap="round" style="stroke:#E69F00;stroke-width:10.00"/>
	<line x1="1868.75" y1="687.18" x2="1929.01" y2="671.63" stroke-linecap="round" style="stroke:#E69F00;stroke-width:10.00"/>
	<line x1="1929.01" y1="671.63" x2="1989.28" y2="674.02" stroke-linecap="round" style="stroke:#E69F00;stroke-width:10.00"/>
	<line x1="1989.28" y1="674.02" x2="2049.63" y2="634.80" stroke-linecap="round" style="stroke:#E69F00;stroke-width:10.00"/>
	<line x1="2049.63" y1="634.80" x2="2109.90" y2="672.43" stroke-linecap="round" style="stroke:#E69F00;stroke-width:10.00"/>
	<line x1="2109.90" y1="672.43" x2="2170.17" y2="622.60" stroke-linecap="round" style="stroke:#E69F00;stroke-width:10.00"/>
	<line x1="2170.17" y1="622.60" x2="2230.44" y2="588.80" stroke-linecap="round" style="stroke:#E69F00;stroke-width:10.00"/>
	<line x1="542.34" y1="539.46" x2="602.61" y2="519.05" stroke-linecap="round" style="stroke:#56B4E9;stroke-width:10.00"/>
	<line x1="602.61" y1="519.05" x2="662.96" y2="579.16" stroke-linecap="round" style="stroke:#56B4E9;stroke-width:10.00"/>
	<line x1="662.96" y1="579.16" x2="723.23" y2="583.38" stroke-linecap="round" style="stroke:#56B4E9;stroke-width:10.00"/>
	<line x1="723.23" y1="583.38" x2="783.50" y2="517.45" stroke-linecap="round" style="stroke:#56B4E9;stroke-width:10.00"/>
	<line x1="783.50" y1="517.45" x2="843.77" y2="590.16" stroke-linecap="round" style="stroke:#56B4E9;stroke-width:10.00"/>
	<line x1="843.77" y1="590.16" x2="904.12" y2="557.47" stroke-linecap="round" style="stroke:#56B4E9;stroke-width:10.00"/>
	<line x1="904.12" y1="557.47" x2="964.39" y2="535.63" stroke-linecap="round" style="stroke:#56B4E9;stroke-width:10.00"/>
	<line x1="964.39" y1="535.63" x2="1024.66" y2="565.37" stroke-linecap="round" style="stroke:#56B4E9;stroke-width:10.00"/>
	<line x1="1024.66" y1="565.37" x2="1084.93" y2="573.34" stroke-linecap="round" style="stroke:#56B4E9;stroke-width:10.00"/>
	<line x1="1084.93" y1="573.34" x2="1145.28" y2="560.10" stroke-linecap="round" style="stroke:#56B4E9;stroke-width:10.00"/>
	<line x1="1145.28" y1="560.10" x2="1205.54" y2="557.87" stroke-linecap="round" style="stroke:#56B4E9;stroke-width:10.00"/>
	<line x1="1205.54" y1="557.87" x2="1265.81" y2="620.29" stroke-linecap="round" style="stroke:#56B4E9;stroke-width:10.00"/>
	<line x1="1265.81" y1="620.29" x2="1326.08" y2="602.67" stroke-linecap="round" style="stroke:#56B4E9;stroke-width:10.00"/>
	<line x1="1326.08" y1="602.67" x2="1386.43" y2="583.30" stroke-linecap="round" style="stroke:#56B4E9;stroke-width:10.00"/>
	<line x1="1386.43" y1="583.30" x2="1446.70" y2="599.09" stroke-linecap="round" style="stroke:#56B4E9;stroke-width:10.00"/>
	<line x1="1446.70" y1="599.09" x2="1506.97" y2="582.50" stroke-linecap="round" style="stroke:#56B4E9;stroke-width:10.00"/>
	<line x1="1506.97" y1="582.50" x2="1567.24" y2="623.48" stroke-linecap="round" style="stroke:#56B4E9;stroke-width:10.00"/>
	<line x1="1567.24" y1="623.48" x2="1627.59" y2="591.27" stroke-linecap="round" style="stroke:#56B4E9;stroke-width:10.00"/>
	<line x1="1627.59" y1="591.27" x2="1687.86" y2="545.20" stroke-linecap="round" style="stroke:#56B4E9;stroke-width:10.00"/>
	<line x1="1687.86" y1="545.20" x2="1748.13" y2="581.07" stroke-linecap="round" style="stroke:#56B4E9;stroke-width:10.00"/>
	<line x1="1748.13" y1="581.07" x2="1808.48" y2="633.21" stroke-linecap="round" style="stroke:#56B4E9;stroke-width:10.00"/>
	<line x1="1808.48" y1="633.21" x2="1868.75" y2="594.54" stroke-linecap="round" style="stroke:#56B4E9;stroke-width:10.00"/>
	<line x1="1868.75" y1="594.54" x2="1929.01" y2="566.96" stroke-linecap="round" style="stroke:#56B4E9;stroke-width:10.00"/>
	<line x1="1929.01" y1="566.96" x2="1989.28" y2="681.52" stroke-linecap="round" style="stroke:#56B4E9;stroke-width:10.00"/>
	<line x1="1989.28" y1="681.52" x2="2049.63" y2="613.67" stroke-linecap="round" style="stroke:#56B4E9;stroke-width:10.00"/>
	<line x1="2049.63" y1="613.67" x2="2109.90" y2="669.56" stroke-linecap="round" style="stroke:#56B4E9;stroke-width:10.00"/>
	<line x1="2109.90" y1="669.56" x2="2170.17" y2="666.61" stroke-linecap="round" style="stroke:#56B4E9;stroke-width:10.00"/>
	<line x1="2170.17" y1="666.61" x2="2230.44" y2="623.56" stroke-linecap="round" style="stroke:#56B4E9;stroke-width:10.00"/>
	<line x1="482.07" y1="555.72" x2="542.34" y2="625.15" stroke-linecap="round" style="stroke:#009E73;stroke-width:10.00"/>
	<line x1="542.34" y1="625.15" x2="602.61" y2="694.75" stroke-linecap="round" style="stroke:#009E73;stroke-width:10.00"/>
	<line x1="602.61" y1="694.75" x2="662.96" y2="689.73" stroke-linecap="round" style="stroke:#009E73;stroke-width:10.00"/>
	<line x1="662.96" y1="689.73" x2="723.23" y2="658.16" stroke-linecap="round" style="stroke:#009E73;stroke-width:10.00"/>
	<line x1="723.23" y1="658.16" x2="783.50" y2="727.67" stroke-linecap="round" style="stroke:#009E73;stroke-width:10.00"/>
	<line x1="783.50" y1="727.67" x2="843.77" y2="680.24" stroke-linecap="round" style="stroke:#009E73;stroke-width:10.00"/>
	<line x1="843.77" y1="680.24" x2="904.12" y2="705.27" stroke-linecap="round" style="stroke:#009E73;stroke-width:10.00"/>
	<line x1="904.12" y1="705.27" x2="964.39" y2="675.38" stroke-linecap="round" style="stroke:#009E73;stroke-width:10.00"/>
	<line x1="964.39" y1="675.38" x2="1024.66" y2="666.21" stroke-linecap="round" style="stroke:#009E73;stroke-width:10.00"/>
	<line x1="1024.66" y1="666.21" x2="1084.93" y2="659.99" stroke-linecap="round" style="stroke:#009E73;stroke-width:10.00"/>
	<line x1="1084.93" y1="659.99" x2="1145.28" y2="593.27" stroke-linecap="round" style="stroke:#009E73;stroke-width:10.00"/>
	<line x1="1145.28" y1="593.27" x2="1205.54" y2="587.77" stroke-linecap="round" style="stroke:#009E73;stroke-width:10.00"/>
	<line x1="1205.54" y1="587.77" x2="1265.81" y2="632.65" stroke-linecap="round" style="stroke:#009E73;stroke-width:10.00"/>
	<line x1="1265.81" y1="632.65" x2="1326.08" y2="667.17" stroke-linecap="round" style="stroke:#009E73;stroke-width:10.00"/>
	<line x1="1326.08" y1="667.17" x2="1386.43" y2="714.60" stroke-linecap="round" style="stroke:#009E73;stroke-width:10.00"/>
	<line x1="1386.43" y1="714.60" x2="1446.70" y2="680.88" stroke-linecap="round" style="stroke:#009E73;stroke-width:10.00"/>
	<line x1="1446.70" y1="680.88" x2="1506.97" y2="688.93" stroke-linecap="round" style="stroke:#009E73;stroke-width:10.00"/>
	<line x1="1506.97" y1="688.93" x2="1567.24" y2="701.68" stroke-linecap="round" style="stroke:#009E73;stroke-width:10.00"/>
	<line x1="1567.24" y1="701.68" x2="1627.59" y2="704.39" stroke-linecap="round" style="stroke:#009E73;stroke-width:10.00"/>
	<line x1="1627.59" y1="704.39" x2="1687.86" y2="719.70" stroke-linecap="round" style="stroke:#009E73;stroke-width:10.00"/>
	<line x1="1687.86" y1="719.70" x2="1748.13" y2="722.97" stroke-linecap="round" style="stroke:#009E73;stroke-width:10.00"/>
	<line x1="482.07" y1="702.96" x2="542.34" y2="772.79" stroke-linecap="round" style="stroke:#D55E00;stroke-width:10.00"/>
	<line x1="542.34" y1="772.79" x2="602.61" y2="793.68" stroke-linecap="round" style="stroke:#D55E00;stroke-width:10.00"/>
	<line x1="602.61" y1="793.68" x2="662.96" y2="790.89" stroke-linecap="round" style="stroke:#D55E00;stroke-width:10.00"/>
	<line x1="662.96" y1="790.89" x2="723.23" y2="824.53" stroke-linecap="round" style="stroke:#D55E00;stroke-width:10.00"/>
	<line x1="723.23" y1="824.53" x2="783.50" y2="784.75" stroke-linecap="round" style="stroke:#D55E00;stroke-width:10.00"/>
	<line x1="783.50" y1="784.75" x2="843.77" y2="792.09" stroke-linecap="round" style="stroke:#D55E00;stroke-width:10.00"/>
	<line x1="843.77" y1="792.09" x2="904.12" y2="813.37" stroke-linecap="round" style="stroke:#D55E00;stroke-width:10.00"/>
	<line x1="904.12" y1="813.37" x2="964.39" y2="812.57" stroke-linecap="round" style="stroke:#D55E00;stroke-width:10.00"/>
	<line x1="964.39" y1="812.57" x2="1024.66" y2="764.50" stroke-linecap="round" style="stroke:#D55E00;stroke-width:10.00"/>
	<line x1="1024.66" y1="764.50" x2="1084.93" y2="738.43" stroke-linecap="round" style="stroke:#D55E00;stroke-width:10.00"/>
	<line x1="1084.93" y1="738.43" x2="1145.28" y2="777.02" stroke-linecap="round" style="stroke:#D55E00;stroke-width:10.00"/>
	<line x1="482.07" y1="795.11" x2="542.34" y2="878.90" stroke-linecap="round" style="stroke:#CC79A7;stroke-width:10.00"/>
	<line x1="542.34" y1="878.90" x2="602.61" y2="818.55" stroke-linecap="round" style="stroke:#CC79A7;stroke-width:10.00"/>
	<line x1="602.61" y1="818.55" x2="662.96" y2="844.62" stroke-linecap="round" style="stroke:#CC79A7;stroke-width:10.00"/>
	<line x1="662.96" y1="844.62" x2="723.23" y2="839.04" stroke-linecap="round" style="stroke:#CC79A7;stroke-width:10.00"/>
	<line x1="365.68" y1="1904.40" x2="330.29" y2="1904.40" style="stroke:#000000;stroke-width:4.00"/>
	<text x="312.51" y="1921.92" style="font-family:'Helvetica';font-size:49.99px;fill:#000000" text-anchor="end">20</text>
	<line x1="365.68" y1="1596.37" x2="330.29" y2="1596.37" style="stroke:#000000;stroke-width:4.00"/>
	<text x="312.51" y="1613.88" style="font-family:'Helvetica';font-size:49.99px;fill:#000000" text-anchor="end">25</text>
	<line x1="365.68" y1="1288.33" x2="330.29" y2="1288.33" style="stroke:#000000;stroke-width:4.00"/>
	<text x="312.51" y="1305.85" style="font-family:'Helvetica';font-size:49.99px;fill:#000000" text-anchor="end">30</text>
	<line x1="365.68" y1="980.38" x2="330.29" y2="980.38" style="stroke:#000000;stroke-width:4.00"/>
	<text x="312.51" y="997.90" style="font-family:'Helvetica';font-size:49.99px;fill:#000000" text-anchor="end">35</text>
	<line x1="365.68" y1="672.35" x2="330.29" y2="672.35" style="stroke:#000000;stroke-width:4.00"/>
	<text x="312.51" y="689.86" style="font-family:'Helvetica';font-size:49.99px;fill:#000000" text-anchor="end">40</text>
	<line x1="365.68" y1="364.31" x2="330.29" y2="364.31" style="stroke:#000000;stroke-width:4.00"/>
	<text x="312.51" y="381.83" style="font-family:'Helvetica';font-size:49.99px;fill:#000000" text-anchor="end">45</text>
	<line x1="365.68" y1="1904.40" x2="365.68" y2="364.31" style="stroke:#000000;stroke-width:4.00"/>
	<text x="136.21" y="1096.13" style="font-family:'Helvetica';font-size:60.03px;fill:#000000" transform="rotate(-90 136.21,1096.13)" text-anchor="middle">Weekly working hours (actual)</text>
	<line x1="421.81" y1="1960.52" x2="421.81" y2="1995.92" style="stroke:#000000;stroke-width:4.00"/>
	<text x="421.81" y="2048.56" style="font-family:'Helvetica';font-size:49.99px;fill:#000000" text-anchor="middle">0</text>
	<line x1="723.23" y1="1960.52" x2="723.23" y2="1995.92" style="stroke:#000000;stroke-width:4.00"/>
	<text x="723.23" y="2048.56" style="font-family:'Helvetica';font-size:49.99px;fill:#000000" text-anchor="middle">5</text>
	<line x1="1024.74" y1="1960.52" x2="1024.74" y2="1995.92" style="stroke:#000000;stroke-width:4.00"/>
	<text x="1024.74" y="2048.56" style="font-family:'Helvetica';font-size:49.99px;fill:#000000" text-anchor="middle">10</text>
	<line x1="1326.16" y1="1960.52" x2="1326.16" y2="1995.92" style="stroke:#000000;stroke-width:4.00"/>
	<text x="1326.16" y="2048.56" style="font-family:'Helvetica';font-size:49.99px;fill:#000000" text-anchor="middle">15</text>
	<line x1="1627.59" y1="1960.52" x2="1627.59" y2="1995.92" style="stroke:#000000;stroke-width:4.00"/>
	<text x="1627.59" y="2048.56" style="font-family:'Helvetica';font-size:49.99px;fill:#000000" text-anchor="middle">20</text>
	<line x1="1929.09" y1="1960.52" x2="1929.09" y2="1995.92" style="stroke:#000000;stroke-width:4.00"/>
	<text x="1929.09" y="2048.56" style="font-family:'Helvetica';font-size:49.99px;fill:#000000" text-anchor="middle">25</text>
	<line x1="2230.52" y1="1960.52" x2="2230.52" y2="1995.92" style="stroke:#000000;stroke-width:4.00"/>
	<text x="2230.52" y="2048.56" style="font-family:'Helvetica';font-size:49.99px;fill:#000000" text-anchor="middle">30</text>
	<line x1="421.81" y1="1960.52" x2="2290.79" y2="1960.52" style="stroke:#000000;stroke-width:4.00"/>
	<text x="1318.03" y="2190.96" style="font-family:'Helvetica';font-size:60.03px;fill:#000000" text-anchor="middle">Duration of stay</text>
	<text x="161.52" y="2396.65" style="font-family:'Helvetica';font-size:60.03px;fill:#000000">Arr. cohort: </text>
	<text x="610.98" y="2396.65" style="font-family:'Helvetica';font-size:60.03px;fill:#000000">1964-73</text>
	<text x="965.98" y="2396.65" style="font-family:'Helvetica';font-size:60.03px;fill:#000000">1974-83</text>
	<text x="1320.98" y="2396.65" style="font-family:'Helvetica';font-size:60.03px;fill:#000000">1984-93</text>
	<text x="1675.98" y="2396.65" style="font-family:'Helvetica';font-size:60.03px;fill:#000000">1994-03</text>
	<text x="2030.98" y="2396.65" style="font-family:'Helvetica';font-size:60.03px;fill:#000000">2004-10</text>
	<line x1="610.98" y1="2320.61" x2="831.01" y2="2320.61" style="stroke:#E69F00;stroke-width:10.00"/>
	<line x1="965.98" y1="2320.61" x2="1185.93" y2="2320.61" style="stroke:#56B4E9;stroke-width:10.00"/>
	<line x1="1320.98" y1="2320.61" x2="1540.93" y2="2320.61" style="stroke:#009E73;stroke-width:10.00"/>
	<line x1="1675.98" y1="2320.61" x2="1895.93" y2="2320.61" style="stroke:#D55E00;stroke-width:10.00"/>
	<line x1="2030.98" y1="2320.61" x2="2250.93" y2="2320.61" style="stroke:#CC79A7;stroke-width:10.00"/>
	<text x="1356.30" y="239.12" style="font-family:'Helvetica';font-size:60.03px;fill:#000000" text-anchor="middle">Means, age 18-54</text>
	<text x="1356.30" y="154.88" style="font-family:'Helvetica';font-size:90.01px;fill:#000000" text-anchor="middle">Weekly working hours (actual), Men</text>
</svg>
