<?xml version="1.0" encoding="UTF-8" standalone="no"?>
<!-- This is a Stata 15.1 generated SVG file (http://www.stata.com) -->

<svg version="1.1" width="3.54in" height="3.54in" viewBox="0 0 2551 2551" xmlns="http://www.w3.org/2000/svg" xmlns:xlink="http://www.w3.org/1999/xlink">
	<desc>Stata Graph - Graph</desc>
	<rect x="0" y="0" width="2551" height="2551" style="fill:#FFFFFF;stroke:none"/>
	<rect x="0.00" y="0.08" width="2551.00" height="2550.92" style="fill:#FFFFFF"/>
	<rect x="2.55" y="2.63" width="2545.90" height="2545.82" style="fill:none;stroke:#FFFFFF;stroke-width:5.10"/>
	<line x1="365.68" y1="1865.82" x2="2346.91" y2="1865.82" style="stroke:#E8E8E8;stroke-width:4.00"/>
	<line x1="365.68" y1="1565.52" x2="2346.91" y2="1565.52" style="stroke:#E8E8E8;stroke-width:4.00"/>
	<line x1="365.68" y1="1265.22" x2="2346.91" y2="1265.22" style="stroke:#E8E8E8;stroke-width:4.00"/>
	<line x1="365.68" y1="964.92" x2="2346.91" y2="964.92" style="stroke:#E8E8E8;stroke-width:4.00"/>
	<line x1="365.68" y1="664.62" x2="2346.91" y2="664.62" style="stroke:#E8E8E8;stroke-width:4.00"/>
	<line x1="365.68" y1="364.31" x2="2346.91" y2="364.31" style="stroke:#E8E8E8;stroke-width:4.00"/>
	<line x1="421.81" y1="1921.94" x2="421.81" y2="308.19" style="stroke:#E8E8E8;stroke-width:4.00"/>
	<line x1="723.23" y1="1921.94" x2="723.23" y2="308.19" style="stroke:#E8E8E8;stroke-width:4.00"/>
	<line x1="1024.74" y1="1921.94" x2="1024.74" y2="308.19" style="stroke:#E8E8E8;stroke-width:4.00"/>
	<line x1="1326.16" y1="1921.94" x2="1326.16" y2="308.19" style="stroke:#E8E8E8;stroke-width:4.00"/>
	<line x1="1627.59" y1="1921.94" x2="1627.59" y2="308.19" style="stroke:#E8E8E8;stroke-width:4.00"/>
	<line x1="1929.09" y1="1921.94" x2="1929.09" y2="308.19" style="stroke:#E8E8E8;stroke-width:4.00"/>
	<line x1="2230.52" y1="1921.94" x2="2230.52" y2="308.19" style="stroke:#E8E8E8;stroke-width:4.00"/>
	<line x1="1145.28" y1="812.97" x2="1205.54" y2="829.47" stroke-linecap="round" style="stroke:#E69F00;stroke-width:10.00"/>
	<line x1="1205.54" y1="829.47" x2="1265.81" y2="844.22" stroke-linecap="round" style="stroke:#E69F00;stroke-width:10.00"/>
	<line x1="1265.81" y1="844.22" x2="1326.08" y2="839.04" stroke-linecap="round" style="stroke:#E69F00;stroke-width:10.00"/>
	<line x1="1326.08" y1="839.04" x2="1386.43" y2="893.65" stroke-linecap="round" style="stroke:#E69F00;stroke-width:10.00"/>
	<line x1="1386.43" y1="893.65" x2="1446.70" y2="799.34" stroke-linecap="round" style="stroke:#E69F00;stroke-width:10.00"/>
	<line x1="1446.70" y1="799.34" x2="1506.97" y2="841.75" stroke-linecap="round" style="stroke:#E69F00;stroke-width:10.00"/>
	<line x1="1506.97" y1="841.75" x2="1567.24" y2="896.52" stroke-linecap="round" style="stroke:#E69F00;stroke-width:10.00"/>
	<line x1="1567.24" y1="896.52" x2="1627.59" y2="983.01" stroke-linecap="round" style="stroke:#E69F00;stroke-width:10.00"/>
	<line x1="1627.59" y1="983.01" x2="1687.86" y2="898.51" stroke-linecap="round" style="stroke:#E69F00;stroke-width:10.00"/>
	<line x1="1687.86" y1="898.51" x2="1748.13" y2="965.63" stroke-linecap="round" style="stroke:#E69F00;stroke-width:10.00"/>
	<line x1="1748.13" y1="965.63" x2="1808.48" y2="994.33" stroke-linecap="round" style="stroke:#E69F00;stroke-width:10.00"/>
	<line x1="1808.48" y1="994.33" x2="1868.75" y2="1004.14" stroke-linecap="round" style="stroke:#E69F00;stroke-width:10.00"/>
	<line x1="1868.75" y1="1004.14" x2="1929.01" y2="1050.77" stroke-linecap="round" style="stroke:#E69F00;stroke-width:10.00"/>
	<line x1="1929.01" y1="1050.77" x2="1989.28" y2="1138.94" stroke-linecap="round" style="stroke:#E69F00;stroke-width:10.00"/>
	<line x1="1989.28" y1="1138.94" x2="2049.63" y2="1078.44" stroke-linecap="round" style="stroke:#E69F00;stroke-width:10.00"/>
	<line x1="2049.63" y1="1078.44" x2="2109.90" y2="1077.40" stroke-linecap="round" style="stroke:#E69F00;stroke-width:10.00"/>
	<line x1="2109.90" y1="1077.40" x2="2170.17" y2="1118.77" stroke-linecap="round" style="stroke:#E69F00;stroke-width:10.00"/>
	<line x1="2170.17" y1="1118.77" x2="2230.44" y2="1128.98" stroke-linecap="round" style="stroke:#E69F00;stroke-width:10.00"/>
	<line x1="542.34" y1="981.98" x2="602.61" y2="802.53" stroke-linecap="round" style="stroke:#56B4E9;stroke-width:10.00"/>
	<line x1="602.61" y1="802.53" x2="662.96" y2="918.04" stroke-linecap="round" style="stroke:#56B4E9;stroke-width:10.00"/>
	<line x1="662.96" y1="918.04" x2="723.23" y2="876.91" stroke-linecap="round" style="stroke:#56B4E9;stroke-width:10.00"/>
	<line x1="723.23" y1="876.91" x2="783.50" y2="966.27" stroke-linecap="round" style="stroke:#56B4E9;stroke-width:10.00"/>
	<line x1="783.50" y1="966.27" x2="843.77" y2="893.49" stroke-linecap="round" style="stroke:#56B4E9;stroke-width:10.00"/>
	<line x1="843.77" y1="893.49" x2="904.12" y2="937.33" stroke-linecap="round" style="stroke:#56B4E9;stroke-width:10.00"/>
	<line x1="904.12" y1="937.33" x2="964.39" y2="1038.58" stroke-linecap="round" style="stroke:#56B4E9;stroke-width:10.00"/>
	<line x1="964.39" y1="1038.58" x2="1024.66" y2="964.92" stroke-linecap="round" style="stroke:#56B4E9;stroke-width:10.00"/>
	<line x1="1024.66" y1="964.92" x2="1084.93" y2="1013.46" stroke-linecap="round" style="stroke:#56B4E9;stroke-width:10.00"/>
	<line x1="1084.93" y1="1013.46" x2="1145.28" y2="1070.78" stroke-linecap="round" style="stroke:#56B4E9;stroke-width:10.00"/>
	<line x1="1145.28" y1="1070.78" x2="1205.54" y2="1072.38" stroke-linecap="round" style="stroke:#56B4E9;stroke-width:10.00"/>
	<line x1="1205.54" y1="1072.38" x2="1265.81" y2="1099.40" stroke-linecap="round" style="stroke:#56B4E9;stroke-width:10.00"/>
	<line x1="1265.81" y1="1099.40" x2="1326.08" y2="1227.99" stroke-linecap="round" style="stroke:#56B4E9;stroke-width:10.00"/>
	<line x1="1326.08" y1="1227.99" x2="1386.43" y2="1197.06" stroke-linecap="round" style="stroke:#56B4E9;stroke-width:10.00"/>
	<line x1="1386.43" y1="1197.06" x2="1446.70" y2="1197.93" stroke-linecap="round" style="stroke:#56B4E9;stroke-width:10.00"/>
	<line x1="1446.70" y1="1197.93" x2="1506.97" y2="1248.95" stroke-linecap="round" style="stroke:#56B4E9;stroke-width:10.00"/>
	<line x1="1506.97" y1="1248.95" x2="1567.24" y2="1220.57" stroke-linecap="round" style="stroke:#56B4E9;stroke-width:10.00"/>
	<line x1="1567.24" y1="1220.57" x2="1627.59" y2="1231.65" stroke-linecap="round" style="stroke:#56B4E9;stroke-width:10.00"/>
	<line x1="1627.59" y1="1231.65" x2="1687.86" y2="1257.40" stroke-linecap="round" style="stroke:#56B4E9;stroke-width:10.00"/>
	<line x1="1687.86" y1="1257.40" x2="1748.13" y2="1241.70" stroke-linecap="round" style="stroke:#56B4E9;stroke-width:10.00"/>
	<line x1="1748.13" y1="1241.70" x2="1808.48" y2="1264.98" stroke-linecap="round" style="stroke:#56B4E9;stroke-width:10.00"/>
	<line x1="1808.48" y1="1264.98" x2="1868.75" y2="1303.96" stroke-linecap="round" style="stroke:#56B4E9;stroke-width:10.00"/>
	<line x1="1868.75" y1="1303.96" x2="1929.01" y2="1283.15" stroke-linecap="round" style="stroke:#56B4E9;stroke-width:10.00"/>
	<line x1="1929.01" y1="1283.15" x2="1989.28" y2="1279.09" stroke-linecap="round" style="stroke:#56B4E9;stroke-width:10.00"/>
	<line x1="1989.28" y1="1279.09" x2="2049.63" y2="1332.34" stroke-linecap="round" style="stroke:#56B4E9;stroke-width:10.00"/>
	<line x1="2049.63" y1="1332.34" x2="2109.90" y2="1399.46" stroke-linecap="round" style="stroke:#56B4E9;stroke-width:10.00"/>
	<line x1="2109.90" y1="1399.46" x2="2170.17" y2="1297.10" stroke-linecap="round" style="stroke:#56B4E9;stroke-width:10.00"/>
	<line x1="2170.17" y1="1297.10" x2="2230.44" y2="1324.29" stroke-linecap="round" style="stroke:#56B4E9;stroke-width:10.00"/>
	<line x1="482.07" y1="892.29" x2="542.34" y2="1066.56" stroke-linecap="round" style="stroke:#009E73;stroke-width:10.00"/>
	<line x1="542.34" y1="1066.56" x2="602.61" y2="1122.68" stroke-linecap="round" style="stroke:#009E73;stroke-width:10.00"/>
	<line x1="602.61" y1="1122.68" x2="662.96" y2="1186.61" stroke-linecap="round" style="stroke:#009E73;stroke-width:10.00"/>
	<line x1="662.96" y1="1186.61" x2="723.23" y2="1236.12" stroke-linecap="round" style="stroke:#009E73;stroke-width:10.00"/>
	<line x1="723.23" y1="1236.12" x2="783.50" y2="1306.51" stroke-linecap="round" style="stroke:#009E73;stroke-width:10.00"/>
	<line x1="783.50" y1="1306.51" x2="843.77" y2="1293.44" stroke-linecap="round" style="stroke:#009E73;stroke-width:10.00"/>
	<line x1="843.77" y1="1293.44" x2="904.12" y2="1360.32" stroke-linecap="round" style="stroke:#009E73;stroke-width:10.00"/>
	<line x1="904.12" y1="1360.32" x2="964.39" y2="1336.96" stroke-linecap="round" style="stroke:#009E73;stroke-width:10.00"/>
	<line x1="964.39" y1="1336.96" x2="1024.66" y2="1320.86" stroke-linecap="round" style="stroke:#009E73;stroke-width:10.00"/>
	<line x1="1024.66" y1="1320.86" x2="1084.93" y2="1412.94" stroke-linecap="round" style="stroke:#009E73;stroke-width:10.00"/>
	<line x1="1084.93" y1="1412.94" x2="1145.28" y2="1363.99" stroke-linecap="round" style="stroke:#009E73;stroke-width:10.00"/>
	<line x1="1145.28" y1="1363.99" x2="1205.54" y2="1468.18" stroke-linecap="round" style="stroke:#009E73;stroke-width:10.00"/>
	<line x1="1205.54" y1="1468.18" x2="1265.81" y2="1464.03" stroke-linecap="round" style="stroke:#009E73;stroke-width:10.00"/>
	<line x1="1265.81" y1="1464.03" x2="1326.08" y2="1435.50" stroke-linecap="round" style="stroke:#009E73;stroke-width:10.00"/>
	<line x1="1326.08" y1="1435.50" x2="1386.43" y2="1502.22" stroke-linecap="round" style="stroke:#009E73;stroke-width:10.00"/>
	<line x1="1386.43" y1="1502.22" x2="1446.70" y2="1494.57" stroke-linecap="round" style="stroke:#009E73;stroke-width:10.00"/>
	<line x1="1446.70" y1="1494.57" x2="1506.97" y2="1480.06" stroke-linecap="round" style="stroke:#009E73;stroke-width:10.00"/>
	<line x1="1506.97" y1="1480.06" x2="1567.24" y2="1468.66" stroke-linecap="round" style="stroke:#009E73;stroke-width:10.00"/>
	<line x1="1567.24" y1="1468.66" x2="1627.59" y2="1483.17" stroke-linecap="round" style="stroke:#009E73;stroke-width:10.00"/>
	<line x1="1627.59" y1="1483.17" x2="1687.86" y2="1497.92" stroke-linecap="round" style="stroke:#009E73;stroke-width:10.00"/>
	<line x1="1687.86" y1="1497.92" x2="1748.13" y2="1459.09" stroke-linecap="round" style="stroke:#009E73;stroke-width:10.00"/>
	<line x1="482.07" y1="1164.85" x2="542.34" y2="1275.90" stroke-linecap="round" style="stroke:#D55E00;stroke-width:10.00"/>
	<line x1="542.34" y1="1275.90" x2="602.61" y2="1365.74" stroke-linecap="round" style="stroke:#D55E00;stroke-width:10.00"/>
	<line x1="602.61" y1="1365.74" x2="662.96" y2="1440.28" stroke-linecap="round" style="stroke:#D55E00;stroke-width:10.00"/>
	<line x1="662.96" y1="1440.28" x2="723.23" y2="1456.62" stroke-linecap="round" style="stroke:#D55E00;stroke-width:10.00"/>
	<line x1="723.23" y1="1456.62" x2="783.50" y2="1443.39" stroke-linecap="round" style="stroke:#D55E00;stroke-width:10.00"/>
	<line x1="783.50" y1="1443.39" x2="843.77" y2="1515.29" stroke-linecap="round" style="stroke:#D55E00;stroke-width:10.00"/>
	<line x1="843.77" y1="1515.29" x2="904.12" y2="1505.33" stroke-linecap="round" style="stroke:#D55E00;stroke-width:10.00"/>
	<line x1="904.12" y1="1505.33" x2="964.39" y2="1483.96" stroke-linecap="round" style="stroke:#D55E00;stroke-width:10.00"/>
	<line x1="964.39" y1="1483.96" x2="1024.66" y2="1483.17" stroke-linecap="round" style="stroke:#D55E00;stroke-width:10.00"/>
	<line x1="1024.66" y1="1483.17" x2="1084.93" y2="1517.85" stroke-linecap="round" style="stroke:#D55E00;stroke-width:10.00"/>
	<line x1="1084.93" y1="1517.85" x2="1145.28" y2="1514.26" stroke-linecap="round" style="stroke:#D55E00;stroke-width:10.00"/>
	<line x1="482.07" y1="1119.41" x2="542.34" y2="1259.80" stroke-linecap="round" style="stroke:#CC79A7;stroke-width:10.00"/>
	<line x1="542.34" y1="1259.80" x2="602.61" y2="1398.11" stroke-linecap="round" style="stroke:#CC79A7;stroke-width:10.00"/>
	<line x1="602.61" y1="1398.11" x2="662.96" y2="1429.99" stroke-linecap="round" style="stroke:#CC79A7;stroke-width:10.00"/>
	<line x1="662.96" y1="1429.99" x2="723.23" y2="1387.11" stroke-linecap="round" style="stroke:#CC79A7;stroke-width:10.00"/>
	<line x1="365.68" y1="1865.82" x2="330.29" y2="1865.82" style="stroke:#000000;stroke-width:4.00"/>
	<text x="312.51" y="1883.33" style="font-family:'Helvetica';font-size:49.99px;fill:#000000" text-anchor="end">20</text>
	<line x1="365.68" y1="1565.52" x2="330.29" y2="1565.52" style="stroke:#000000;stroke-width:4.00"/>
	<text x="312.51" y="1583.03" style="font-family:'Helvetica';font-size:49.99px;fill:#000000" text-anchor="end">25</text>
	<line x1="365.68" y1="1265.22" x2="330.29" y2="1265.22" style="stroke:#000000;stroke-width:4.00"/>
	<text x="312.51" y="1282.73" style="font-family:'Helvetica';font-size:49.99px;fill:#000000" text-anchor="end">30</text>
	<line x1="365.68" y1="964.92" x2="330.29" y2="964.92" style="stroke:#000000;stroke-width:4.00"/>
	<text x="312.51" y="982.43" style="font-family:'Helvetica';font-size:49.99px;fill:#000000" text-anchor="end">35</text>
	<line x1="365.68" y1="664.62" x2="330.29" y2="664.62" style="stroke:#000000;stroke-width:4.00"/>
	<text x="312.51" y="682.13" style="font-family:'Helvetica';font-size:49.99px;fill:#000000" text-anchor="end">40</text>
	<line x1="365.68" y1="364.31" x2="330.29" y2="364.31" style="stroke:#000000;stroke-width:4.00"/>
	<text x="312.51" y="381.83" style="font-family:'Helvetica';font-size:49.99px;fill:#000000" text-anchor="end">45</text>
	<line x1="365.68" y1="1865.82" x2="365.68" y2="364.31" style="stroke:#000000;stroke-width:4.00"/>
	<text x="136.21" y="1076.84" style="font-family:'Helvetica';font-size:60.03px;fill:#000000" transform="rotate(-90 136.21,1076.84)" text-anchor="middle">Weekly working hours (actual)</text>
	<line x1="421.81" y1="1921.94" x2="421.81" y2="1957.33" style="stroke:#000000;stroke-width:4.00"/>
	<text x="421.81" y="2009.98" style="font-family:'Helvetica';font-size:49.99px;fill:#000000" text-anchor="middle">0</text>
	<line x1="723.23" y1="1921.94" x2="723.23" y2="1957.33" style="stroke:#000000;stroke-width:4.00"/>
	<text x="723.23" y="2009.98" style="font-family:'Helvetica';font-size:49.99px;fill:#000000" text-anchor="middle">5</text>
	<line x1="1024.74" y1="1921.94" x2="1024.74" y2="1957.33" style="stroke:#000000;stroke-width:4.00"/>
	<text x="1024.74" y="2009.98" style="font-family:'Helvetica';font-size:49.99px;fill:#000000" text-anchor="middle">10</text>
	<line x1="1326.16" y1="1921.94" x2="1326.16" y2="1957.33" style="stroke:#000000;stroke-width:4.00"/>
	<text x="1326.16" y="2009.98" style="font-family:'Helvetica';font-size:49.99px;fill:#000000" text-anchor="middle">15</text>
	<line x1="1627.59" y1="1921.94" x2="1627.59" y2="1957.33" style="stroke:#000000;stroke-width:4.00"/>
	<text x="1627.59" y="2009.98" style="font-family:'Helvetica';font-size:49.99px;fill:#000000" text-anchor="middle">20</text>
	<line x1="1929.09" y1="1921.94" x2="1929.09" y2="1957.33" style="stroke:#000000;stroke-width:4.00"/>
	<text x="1929.09" y="2009.98" style="font-family:'Helvetica';font-size:49.99px;fill:#000000" text-anchor="middle">25</text>
	<line x1="2230.52" y1="1921.94" x2="2230.52" y2="1957.33" style="stroke:#000000;stroke-width:4.00"/>
	<text x="2230.52" y="2009.98" style="font-family:'Helvetica';font-size:49.99px;fill:#000000" text-anchor="middle">30</text>
	<line x1="421.81" y1="1921.94" x2="2290.79" y2="1921.94" style="stroke:#000000;stroke-width:4.00"/>
	<text x="1318.03" y="2152.37" style="font-family:'Helvetica';font-size:60.03px;fill:#000000" text-anchor="middle">Duration of stay</text>
	<text x="161.52" y="2396.65" style="font-family:'Helvetica';font-size:60.03px;fill:#000000">Arr. cohort: </text>
	<text x="610.98" y="2396.65" style="font-family:'Helvetica';font-size:60.03px;fill:#000000">1964-73</text>
	<text x="965.98" y="2396.65" style="font-family:'Helvetica';font-size:60.03px;fill:#000000">1974-83</text>
	<text x="1320.98" y="2396.65" style="font-family:'Helvetica';font-size:60.03px;fill:#000000">1984-93</text>
	<text x="1675.98" y="2396.65" style="font-family:'Helvetica';font-size:60.03px;fill:#000000">1994-03</text>
	<text x="2030.98" y="2396.65" style="font-family:'Helvetica';font-size:60.03px;fill:#000000">2004-10</text>
	<line x1="610.98" y1="2301.32" x2="831.01" y2="2301.32" style="stroke:#E69F00;stroke-width:10.00"/>
	<line x1="965.98" y1="2301.32" x2="1185.93" y2="2301.32" style="stroke:#56B4E9;stroke-width:10.00"/>
	<line x1="1320.98" y1="2301.32" x2="1540.93" y2="2301.32" style="stroke:#009E73;stroke-width:10.00"/>
	<line x1="1675.98" y1="2301.32" x2="1895.93" y2="2301.32" style="stroke:#D55E00;stroke-width:10.00"/>
	<line x1="2030.98" y1="2301.32" x2="2250.93" y2="2301.32" style="stroke:#CC79A7;stroke-width:10.00"/>
	<text x="1356.30" y="239.12" style="font-family:'Helvetica';font-size:60.03px;fill:#000000" text-anchor="middle">Means</text>
	<text x="1356.30" y="154.88" style="font-family:'Helvetica';font-size:90.01px;fill:#000000" text-anchor="middle">Weekly working hours (actual), Women</text>
</svg>
