<?xml version="1.0" encoding="UTF-8" standalone="no"?>
<!-- This is a Stata 15.1 generated SVG file (http://www.stata.com) -->

<svg version="1.1" width="3.54in" height="3.54in" viewBox="0 0 2551 2551" xmlns="http://www.w3.org/2000/svg" xmlns:xlink="http://www.w3.org/1999/xlink">
	<desc>Stata Graph - Graph</desc>
	<rect x="0" y="0" width="2551" height="2551" style="fill:#FFFFFF;stroke:none"/>
	<rect x="0.00" y="0.08" width="2551.00" height="2550.92" style="fill:#FFFFFF"/>
	<rect x="2.55" y="2.63" width="2545.90" height="2545.82" style="fill:none;stroke:#FFFFFF;stroke-width:5.10"/>
	<line x1="365.68" y1="1904.40" x2="2346.91" y2="1904.40" style="stroke:#E8E8E8;stroke-width:4.00"/>
	<line x1="365.68" y1="1596.37" x2="2346.91" y2="1596.37" style="stroke:#E8E8E8;stroke-width:4.00"/>
	<line x1="365.68" y1="1288.33" x2="2346.91" y2="1288.33" style="stroke:#E8E8E8;stroke-width:4.00"/>
	<line x1="365.68" y1="980.38" x2="2346.91" y2="980.38" style="stroke:#E8E8E8;stroke-width:4.00"/>
	<line x1="365.68" y1="672.35" x2="2346.91" y2="672.35" style="stroke:#E8E8E8;stroke-width:4.00"/>
	<line x1="365.68" y1="364.31" x2="2346.91" y2="364.31" style="stroke:#E8E8E8;stroke-width:4.00"/>
	<line x1="421.81" y1="1960.52" x2="421.81" y2="308.19" style="stroke:#E8E8E8;stroke-width:4.00"/>
	<line x1="655.39" y1="1960.52" x2="655.39" y2="308.19" style="stroke:#E8E8E8;stroke-width:4.00"/>
	<line x1="889.05" y1="1960.52" x2="889.05" y2="308.19" style="stroke:#E8E8E8;stroke-width:4.00"/>
	<line x1="1122.71" y1="1960.52" x2="1122.71" y2="308.19" style="stroke:#E8E8E8;stroke-width:4.00"/>
	<line x1="1356.30" y1="1960.52" x2="1356.30" y2="308.19" style="stroke:#E8E8E8;stroke-width:4.00"/>
	<line x1="1589.96" y1="1960.52" x2="1589.96" y2="308.19" style="stroke:#E8E8E8;stroke-width:4.00"/>
	<line x1="1823.54" y1="1960.52" x2="1823.54" y2="308.19" style="stroke:#E8E8E8;stroke-width:4.00"/>
	<line x1="2057.21" y1="1960.52" x2="2057.21" y2="308.19" style="stroke:#E8E8E8;stroke-width:4.00"/>
	<line x1="2290.79" y1="1960.52" x2="2290.79" y2="308.19" style="stroke:#E8E8E8;stroke-width:4.00"/>
	<line x1="421.73" y1="568.16" x2="515.24" y2="568.55" stroke-linecap="round" style="stroke:#E69F00;stroke-width:10.00"/>
	<line x1="515.24" y1="568.55" x2="608.67" y2="557.23" stroke-linecap="round" style="stroke:#E69F00;stroke-width:10.00"/>
	<line x1="608.67" y1="557.23" x2="702.10" y2="593.59" stroke-linecap="round" style="stroke:#E69F00;stroke-width:10.00"/>
	<line x1="702.10" y1="593.59" x2="842.25" y2="603.47" stroke-linecap="round" style="stroke:#E69F00;stroke-width:10.00"/>
	<line x1="842.25" y1="603.47" x2="935.77" y2="623.72" stroke-linecap="round" style="stroke:#E69F00;stroke-width:10.00"/>
	<line x1="935.77" y1="623.72" x2="1029.20" y2="625.87" stroke-linecap="round" style="stroke:#E69F00;stroke-width:10.00"/>
	<line x1="1029.20" y1="625.87" x2="1122.63" y2="669.56" stroke-linecap="round" style="stroke:#E69F00;stroke-width:10.00"/>
	<line x1="1122.63" y1="669.56" x2="1216.07" y2="724.56" stroke-linecap="round" style="stroke:#E69F00;stroke-width:10.00"/>
	<line x1="1216.07" y1="724.56" x2="1309.50" y2="660.07" stroke-linecap="round" style="stroke:#E69F00;stroke-width:10.00"/>
	<line x1="1309.50" y1="660.07" x2="1356.30" y2="667.49" stroke-linecap="round" style="stroke:#E69F00;stroke-width:10.00"/>
	<line x1="1356.30" y1="667.49" x2="1403.01" y2="653.53" stroke-linecap="round" style="stroke:#E69F00;stroke-width:10.00"/>
	<line x1="1403.01" y1="653.53" x2="1449.73" y2="628.02" stroke-linecap="round" style="stroke:#E69F00;stroke-width:10.00"/>
	<line x1="1449.73" y1="628.02" x2="1496.45" y2="686.46" stroke-linecap="round" style="stroke:#E69F00;stroke-width:10.00"/>
	<line x1="1496.45" y1="686.46" x2="1543.16" y2="637.27" stroke-linecap="round" style="stroke:#E69F00;stroke-width:10.00"/>
	<line x1="1543.16" y1="637.27" x2="1589.88" y2="614.79" stroke-linecap="round" style="stroke:#E69F00;stroke-width:10.00"/>
	<line x1="1589.88" y1="614.79" x2="1636.60" y2="614.95" stroke-linecap="round" style="stroke:#E69F00;stroke-width:10.00"/>
	<line x1="1636.60" y1="614.95" x2="1683.31" y2="646.60" stroke-linecap="round" style="stroke:#E69F00;stroke-width:10.00"/>
	<line x1="842.25" y1="546.63" x2="935.77" y2="553.01" stroke-linecap="round" style="stroke:#56B4E9;stroke-width:10.00"/>
	<line x1="935.77" y1="553.01" x2="1029.20" y2="551.49" stroke-linecap="round" style="stroke:#56B4E9;stroke-width:10.00"/>
	<line x1="1029.20" y1="551.49" x2="1122.63" y2="603.15" stroke-linecap="round" style="stroke:#56B4E9;stroke-width:10.00"/>
	<line x1="1122.63" y1="603.15" x2="1216.07" y2="621.41" stroke-linecap="round" style="stroke:#56B4E9;stroke-width:10.00"/>
	<line x1="1216.07" y1="621.41" x2="1309.50" y2="540.25" stroke-linecap="round" style="stroke:#56B4E9;stroke-width:10.00"/>
	<line x1="1309.50" y1="540.25" x2="1356.30" y2="623.16" stroke-linecap="round" style="stroke:#56B4E9;stroke-width:10.00"/>
	<line x1="1356.30" y1="623.16" x2="1403.01" y2="584.18" stroke-linecap="round" style="stroke:#56B4E9;stroke-width:10.00"/>
	<line x1="1403.01" y1="584.18" x2="1449.73" y2="544.64" stroke-linecap="round" style="stroke:#56B4E9;stroke-width:10.00"/>
	<line x1="1449.73" y1="544.64" x2="1496.45" y2="580.19" stroke-linecap="round" style="stroke:#56B4E9;stroke-width:10.00"/>
	<line x1="1496.45" y1="580.19" x2="1543.16" y2="555.08" stroke-linecap="round" style="stroke:#56B4E9;stroke-width:10.00"/>
	<line x1="1543.16" y1="555.08" x2="1589.88" y2="579.64" stroke-linecap="round" style="stroke:#56B4E9;stroke-width:10.00"/>
	<line x1="1589.88" y1="579.64" x2="1636.60" y2="621.01" stroke-linecap="round" style="stroke:#56B4E9;stroke-width:10.00"/>
	<line x1="1636.60" y1="621.01" x2="1683.31" y2="607.78" stroke-linecap="round" style="stroke:#56B4E9;stroke-width:10.00"/>
	<line x1="1683.31" y1="607.78" x2="1730.03" y2="677.05" stroke-linecap="round" style="stroke:#56B4E9;stroke-width:10.00"/>
	<line x1="1730.03" y1="677.05" x2="1776.75" y2="613.04" stroke-linecap="round" style="stroke:#56B4E9;stroke-width:10.00"/>
	<line x1="1776.75" y1="613.04" x2="1823.54" y2="699.61" stroke-linecap="round" style="stroke:#56B4E9;stroke-width:10.00"/>
	<line x1="1823.54" y1="699.61" x2="1870.26" y2="675.78" stroke-linecap="round" style="stroke:#56B4E9;stroke-width:10.00"/>
	<line x1="1870.26" y1="675.78" x2="1916.98" y2="595.02" stroke-linecap="round" style="stroke:#56B4E9;stroke-width:10.00"/>
	<line x1="1916.98" y1="595.02" x2="1963.69" y2="690.44" stroke-linecap="round" style="stroke:#56B4E9;stroke-width:10.00"/>
	<line x1="1963.69" y1="690.44" x2="2010.41" y2="634.72" stroke-linecap="round" style="stroke:#56B4E9;stroke-width:10.00"/>
	<line x1="2010.41" y1="634.72" x2="2057.13" y2="634.96" stroke-linecap="round" style="stroke:#56B4E9;stroke-width:10.00"/>
	<line x1="2057.13" y1="634.96" x2="2103.84" y2="654.41" stroke-linecap="round" style="stroke:#56B4E9;stroke-width:10.00"/>
	<line x1="2103.84" y1="654.41" x2="2150.56" y2="656.80" stroke-linecap="round" style="stroke:#56B4E9;stroke-width:10.00"/>
	<line x1="1309.50" y1="637.43" x2="1356.30" y2="699.05" stroke-linecap="round" style="stroke:#009E73;stroke-width:10.00"/>
	<line x1="1356.30" y1="699.05" x2="1403.01" y2="712.05" stroke-linecap="round" style="stroke:#009E73;stroke-width:10.00"/>
	<line x1="1403.01" y1="712.05" x2="1449.73" y2="661.98" stroke-linecap="round" style="stroke:#009E73;stroke-width:10.00"/>
	<line x1="1449.73" y1="661.98" x2="1496.45" y2="702.48" stroke-linecap="round" style="stroke:#009E73;stroke-width:10.00"/>
	<line x1="1496.45" y1="702.48" x2="1543.16" y2="663.82" stroke-linecap="round" style="stroke:#009E73;stroke-width:10.00"/>
	<line x1="1543.16" y1="663.82" x2="1589.88" y2="613.99" stroke-linecap="round" style="stroke:#009E73;stroke-width:10.00"/>
	<line x1="1589.88" y1="613.99" x2="1636.60" y2="654.01" stroke-linecap="round" style="stroke:#009E73;stroke-width:10.00"/>
	<line x1="1636.60" y1="654.01" x2="1683.31" y2="640.70" stroke-linecap="round" style="stroke:#009E73;stroke-width:10.00"/>
	<line x1="1683.31" y1="640.70" x2="1730.03" y2="620.85" stroke-linecap="round" style="stroke:#009E73;stroke-width:10.00"/>
	<line x1="1730.03" y1="620.85" x2="1776.75" y2="605.38" stroke-linecap="round" style="stroke:#009E73;stroke-width:10.00"/>
	<line x1="1776.75" y1="605.38" x2="1823.54" y2="715.87" stroke-linecap="round" style="stroke:#009E73;stroke-width:10.00"/>
	<line x1="1823.54" y1="715.87" x2="1870.26" y2="669.08" stroke-linecap="round" style="stroke:#009E73;stroke-width:10.00"/>
	<line x1="1870.26" y1="669.08" x2="1916.98" y2="685.90" stroke-linecap="round" style="stroke:#009E73;stroke-width:10.00"/>
	<line x1="1916.98" y1="685.90" x2="1963.69" y2="773.27" stroke-linecap="round" style="stroke:#009E73;stroke-width:10.00"/>
	<line x1="1963.69" y1="773.27" x2="2010.41" y2="700.65" stroke-linecap="round" style="stroke:#009E73;stroke-width:10.00"/>
	<line x1="2010.41" y1="700.65" x2="2057.13" y2="675.94" stroke-linecap="round" style="stroke:#009E73;stroke-width:10.00"/>
	<line x1="2057.13" y1="675.94" x2="2103.84" y2="708.54" stroke-linecap="round" style="stroke:#009E73;stroke-width:10.00"/>
	<line x1="2103.84" y1="708.54" x2="2150.56" y2="779.41" stroke-linecap="round" style="stroke:#009E73;stroke-width:10.00"/>
	<line x1="2150.56" y1="779.41" x2="2197.28" y2="760.44" stroke-linecap="round" style="stroke:#009E73;stroke-width:10.00"/>
	<line x1="2197.28" y1="760.44" x2="2243.99" y2="730.30" stroke-linecap="round" style="stroke:#009E73;stroke-width:10.00"/>
	<line x1="1730.03" y1="728.07" x2="1776.75" y2="783.16" stroke-linecap="round" style="stroke:#D55E00;stroke-width:10.00"/>
	<line x1="1776.75" y1="783.16" x2="1823.54" y2="813.77" stroke-linecap="round" style="stroke:#D55E00;stroke-width:10.00"/>
	<line x1="1823.54" y1="813.77" x2="1870.26" y2="791.69" stroke-linecap="round" style="stroke:#D55E00;stroke-width:10.00"/>
	<line x1="1870.26" y1="791.69" x2="1916.98" y2="815.04" stroke-linecap="round" style="stroke:#D55E00;stroke-width:10.00"/>
	<line x1="1916.98" y1="815.04" x2="1963.69" y2="819.03" stroke-linecap="round" style="stroke:#D55E00;stroke-width:10.00"/>
	<line x1="1963.69" y1="819.03" x2="2010.41" y2="783.87" stroke-linecap="round" style="stroke:#D55E00;stroke-width:10.00"/>
	<line x1="2010.41" y1="783.87" x2="2057.13" y2="780.05" stroke-linecap="round" style="stroke:#D55E00;stroke-width:10.00"/>
	<line x1="2057.13" y1="780.05" x2="2103.84" y2="785.07" stroke-linecap="round" style="stroke:#D55E00;stroke-width:10.00"/>
	<line x1="2103.84" y1="785.07" x2="2150.56" y2="772.16" stroke-linecap="round" style="stroke:#D55E00;stroke-width:10.00"/>
	<line x1="2150.56" y1="772.16" x2="2197.28" y2="776.94" stroke-linecap="round" style="stroke:#D55E00;stroke-width:10.00"/>
	<line x1="2197.28" y1="776.94" x2="2243.99" y2="775.82" stroke-linecap="round" style="stroke:#D55E00;stroke-width:10.00"/>
	<line x1="2057.13" y1="773.75" x2="2103.84" y2="810.10" stroke-linecap="round" style="stroke:#CC79A7;stroke-width:10.00"/>
	<line x1="2103.84" y1="810.10" x2="2150.56" y2="796.55" stroke-linecap="round" style="stroke:#CC79A7;stroke-width:10.00"/>
	<line x1="2150.56" y1="796.55" x2="2197.28" y2="807.23" stroke-linecap="round" style="stroke:#CC79A7;stroke-width:10.00"/>
	<line x1="2197.28" y1="807.23" x2="2243.99" y2="817.04" stroke-linecap="round" style="stroke:#CC79A7;stroke-width:10.00"/>
	<line x1="421.73" y1="444.19" x2="472.03" y2="452.72" style="stroke:#A0A0A0;stroke-width:10.00"/>
	<line x1="497.22" y1="456.95" x2="515.24" y2="460.06" style="stroke:#A0A0A0;stroke-width:10.00"/>
	<line x1="515.24" y1="460.06" x2="547.92" y2="459.34" style="stroke:#A0A0A0;stroke-width:10.00"/>
	<line x1="573.43" y1="458.86" x2="608.67" y2="458.06" style="stroke:#A0A0A0;stroke-width:10.00"/>
	<line x1="608.67" y1="458.06" x2="624.06" y2="461.49" style="stroke:#A0A0A0;stroke-width:10.00"/>
	<line x1="648.93" y1="466.99" x2="698.76" y2="478.15" style="stroke:#A0A0A0;stroke-width:10.00"/>
	<line x1="723.79" y1="474.73" x2="773.93" y2="465.24" style="stroke:#A0A0A0;stroke-width:10.00"/>
	<line x1="798.97" y1="460.46" x2="842.25" y2="452.24" style="stroke:#A0A0A0;stroke-width:10.00"/>
	<line x1="842.25" y1="452.24" x2="849.11" y2="453.76" style="stroke:#A0A0A0;stroke-width:10.00"/>
	<line x1="873.98" y1="459.34" x2="923.73" y2="470.50" style="stroke:#A0A0A0;stroke-width:10.00"/>
	<line x1="948.84" y1="475.20" x2="999.23" y2="482.94" style="stroke:#A0A0A0;stroke-width:10.00"/>
	<line x1="1024.42" y1="486.84" x2="1029.20" y2="487.56" style="stroke:#A0A0A0;stroke-width:10.00"/>
	<line x1="1029.20" y1="487.56" x2="1073.61" y2="500.47" style="stroke:#A0A0A0;stroke-width:10.00"/>
	<line x1="1098.08" y1="507.65" x2="1122.63" y2="514.82" style="stroke:#A0A0A0;stroke-width:10.00"/>
	<line x1="1122.63" y1="514.82" x2="1145.91" y2="525.03" style="stroke:#A0A0A0;stroke-width:10.00"/>
	<line x1="1169.27" y1="535.31" x2="1215.99" y2="555.80" style="stroke:#A0A0A0;stroke-width:10.00"/>
	<line x1="1241.26" y1="552.45" x2="1291.80" y2="545.83" style="stroke:#A0A0A0;stroke-width:10.00"/>
	<line x1="1317.15" y1="542.49" x2="1356.30" y2="537.62" style="stroke:#A0A0A0;stroke-width:10.00"/>
	<line x1="1356.30" y1="537.62" x2="1367.22" y2="533.72" style="stroke:#A0A0A0;stroke-width:10.00"/>
	<line x1="1391.22" y1="525.19" x2="1403.01" y2="520.96" style="stroke:#A0A0A0;stroke-width:10.00"/>
	<line x1="1403.01" y1="520.96" x2="1441.44" y2="519.77" style="stroke:#A0A0A0;stroke-width:10.00"/>
	<line x1="1466.87" y1="517.14" x2="1496.45" y2="512.99" style="stroke:#A0A0A0;stroke-width:10.00"/>
	<line x1="1496.45" y1="512.99" x2="1517.49" y2="511.00" style="stroke:#A0A0A0;stroke-width:10.00"/>
	<line x1="1542.92" y1="508.61" x2="1543.16" y2="508.61" style="stroke:#A0A0A0;stroke-width:10.00"/>
	<line x1="1543.16" y1="508.61" x2="1589.88" y2="517.22" style="stroke:#A0A0A0;stroke-width:10.00"/>
	<line x1="1589.88" y1="517.22" x2="1592.99" y2="518.25" style="stroke:#A0A0A0;stroke-width:10.00"/>
	<line x1="1617.23" y1="526.22" x2="1636.60" y2="532.68" style="stroke:#A0A0A0;stroke-width:10.00"/>
	<line x1="1636.60" y1="532.68" x2="1665.86" y2="541.53" style="stroke:#A0A0A0;stroke-width:10.00"/>
	<line x1="1690.57" y1="545.83" x2="1730.03" y2="540.81" style="stroke:#A0A0A0;stroke-width:10.00"/>
	<line x1="1730.03" y1="540.81" x2="1739.44" y2="534.75" style="stroke:#A0A0A0;stroke-width:10.00"/>
	<line x1="1760.88" y1="520.88" x2="1776.75" y2="510.68" style="stroke:#A0A0A0;stroke-width:10.00"/>
	<line x1="1776.75" y1="510.68" x2="1798.51" y2="534.28" style="stroke:#A0A0A0;stroke-width:10.00"/>
	<line x1="1815.89" y1="553.01" x2="1823.54" y2="561.30" style="stroke:#A0A0A0;stroke-width:10.00"/>
	<line x1="1823.54" y1="561.30" x2="1861.41" y2="549.34" style="stroke:#A0A0A0;stroke-width:10.00"/>
	<line x1="1886.12" y1="549.74" x2="1916.98" y2="556.04" style="stroke:#A0A0A0;stroke-width:10.00"/>
	<line x1="1916.98" y1="556.04" x2="1929.25" y2="571.34" style="stroke:#A0A0A0;stroke-width:10.00"/>
	<line x1="1945.20" y1="591.19" x2="1963.69" y2="614.15" style="stroke:#A0A0A0;stroke-width:10.00"/>
	<line x1="1963.69" y1="614.15" x2="1983.23" y2="605.07" style="stroke:#A0A0A0;stroke-width:10.00"/>
	<line x1="2006.42" y1="594.38" x2="2010.41" y2="592.55" style="stroke:#A0A0A0;stroke-width:10.00"/>
	<line x1="2010.41" y1="592.55" x2="2056.65" y2="586.57" style="stroke:#A0A0A0;stroke-width:10.00"/>
	<line x1="2081.76" y1="590.96" x2="2103.84" y2="594.94" style="stroke:#A0A0A0;stroke-width:10.00"/>
	<line x1="2103.84" y1="594.94" x2="2130.39" y2="605.54" style="stroke:#A0A0A0;stroke-width:10.00"/>
	<line x1="2154.31" y1="614.07" x2="2197.28" y2="618.62" style="stroke:#A0A0A0;stroke-width:10.00"/>
	<line x1="2197.28" y1="618.62" x2="2204.77" y2="620.77" style="stroke:#A0A0A0;stroke-width:10.00"/>
	<line x1="2229.32" y1="627.79" x2="2243.99" y2="632.01" style="stroke:#A0A0A0;stroke-width:10.00"/>
	<line x1="365.68" y1="1904.40" x2="330.29" y2="1904.40" style="stroke:#000000;stroke-width:4.00"/>
	<text x="312.51" y="1921.92" style="font-family:'Helvetica';font-size:49.99px;fill:#000000" text-anchor="end">20</text>
	<line x1="365.68" y1="1596.37" x2="330.29" y2="1596.37" style="stroke:#000000;stroke-width:4.00"/>
	<text x="312.51" y="1613.88" style="font-family:'Helvetica';font-size:49.99px;fill:#000000" text-anchor="end">25</text>
	<line x1="365.68" y1="1288.33" x2="330.29" y2="1288.33" style="stroke:#000000;stroke-width:4.00"/>
	<text x="312.51" y="1305.85" style="font-family:'Helvetica';font-size:49.99px;fill:#000000" text-anchor="end">30</text>
	<line x1="365.68" y1="980.38" x2="330.29" y2="980.38" style="stroke:#000000;stroke-width:4.00"/>
	<text x="312.51" y="997.90" style="font-family:'Helvetica';font-size:49.99px;fill:#000000" text-anchor="end">35</text>
	<line x1="365.68" y1="672.35" x2="330.29" y2="672.35" style="stroke:#000000;stroke-width:4.00"/>
	<text x="312.51" y="689.86" style="font-family:'Helvetica';font-size:49.99px;fill:#000000" text-anchor="end">40</text>
	<line x1="365.68" y1="364.31" x2="330.29" y2="364.31" style="stroke:#000000;stroke-width:4.00"/>
	<text x="312.51" y="381.83" style="font-family:'Helvetica';font-size:49.99px;fill:#000000" text-anchor="end">45</text>
	<line x1="365.68" y1="1904.40" x2="365.68" y2="364.31" style="stroke:#000000;stroke-width:4.00"/>
	<text x="136.21" y="1096.13" style="font-family:'Helvetica';font-size:60.03px;fill:#000000" transform="rotate(-90 136.21,1096.13)" text-anchor="middle">Weekly working hours (actual)</text>
	<line x1="421.81" y1="1960.52" x2="421.81" y2="1995.92" style="stroke:#000000;stroke-width:4.00"/>
	<text x="421.81" y="2048.56" style="font-family:'Helvetica';font-size:49.99px;fill:#000000" text-anchor="middle">1976</text>
	<line x1="655.39" y1="1960.52" x2="655.39" y2="1995.92" style="stroke:#000000;stroke-width:4.00"/>
	<text x="655.39" y="2048.56" style="font-family:'Helvetica';font-size:49.99px;fill:#000000" text-anchor="middle">1981</text>
	<line x1="889.05" y1="1960.52" x2="889.05" y2="1995.92" style="stroke:#000000;stroke-width:4.00"/>
	<text x="889.05" y="2048.56" style="font-family:'Helvetica';font-size:49.99px;fill:#000000" text-anchor="middle">1986</text>
	<line x1="1122.71" y1="1960.52" x2="1122.71" y2="1995.92" style="stroke:#000000;stroke-width:4.00"/>
	<text x="1122.71" y="2048.56" style="font-family:'Helvetica';font-size:49.99px;fill:#000000" text-anchor="middle">1991</text>
	<line x1="1356.30" y1="1960.52" x2="1356.30" y2="1995.92" style="stroke:#000000;stroke-width:4.00"/>
	<text x="1356.30" y="2048.56" style="font-family:'Helvetica';font-size:49.99px;fill:#000000" text-anchor="middle">1996</text>
	<line x1="1589.96" y1="1960.52" x2="1589.96" y2="1995.92" style="stroke:#000000;stroke-width:4.00"/>
	<text x="1589.96" y="2048.56" style="font-family:'Helvetica';font-size:49.99px;fill:#000000" text-anchor="middle">2001</text>
	<line x1="1823.54" y1="1960.52" x2="1823.54" y2="1995.92" style="stroke:#000000;stroke-width:4.00"/>
	<text x="1823.54" y="2048.56" style="font-family:'Helvetica';font-size:49.99px;fill:#000000" text-anchor="middle">2006</text>
	<line x1="2057.21" y1="1960.52" x2="2057.21" y2="1995.92" style="stroke:#000000;stroke-width:4.00"/>
	<text x="2057.21" y="2048.56" style="font-family:'Helvetica';font-size:49.99px;fill:#000000" text-anchor="middle">2011</text>
	<line x1="2290.79" y1="1960.52" x2="2290.79" y2="1995.92" style="stroke:#000000;stroke-width:4.00"/>
	<text x="2290.79" y="2048.56" style="font-family:'Helvetica';font-size:49.99px;fill:#000000" text-anchor="middle">2016</text>
	<line x1="421.81" y1="1960.52" x2="2290.79" y2="1960.52" style="stroke:#000000;stroke-width:4.00"/>
	<text x="1318.03" y="2190.96" style="font-family:'Helvetica';font-size:60.03px;fill:#000000" text-anchor="middle">Year</text>
	<text x="145.41" y="2396.65" style="font-family:'Helvetica';font-size:60.03px;fill:#000000">Arr. cohort: </text>
	<text x="536.36" y="2396.65" style="font-family:'Helvetica';font-size:60.03px;fill:#000000">1964-73</text>
	<text x="845.12" y="2396.65" style="font-family:'Helvetica';font-size:60.03px;fill:#000000">1974-83</text>
	<text x="1153.89" y="2396.65" style="font-family:'Helvetica';font-size:60.03px;fill:#000000">1984-93</text>
	<text x="1462.65" y="2396.65" style="font-family:'Helvetica';font-size:60.03px;fill:#000000">1994-03</text>
	<text x="1771.41" y="2396.65" style="font-family:'Helvetica';font-size:60.03px;fill:#000000">2004-10</text>
	<text x="2080.17" y="2396.65" style="font-family:'Helvetica';font-size:60.03px;fill:#000000">German</text>
	<line x1="536.36" y1="2320.61" x2="737.26" y2="2320.61" style="stroke:#E69F00;stroke-width:10.00"/>
	<line x1="845.12" y1="2320.61" x2="1046.02" y2="2320.61" style="stroke:#56B4E9;stroke-width:10.00"/>
	<line x1="1153.89" y1="2320.61" x2="1354.78" y2="2320.61" style="stroke:#009E73;stroke-width:10.00"/>
	<line x1="1462.65" y1="2320.61" x2="1663.54" y2="2320.61" style="stroke:#D55E00;stroke-width:10.00"/>
	<line x1="1771.41" y1="2320.61" x2="1972.30" y2="2320.61" style="stroke:#CC79A7;stroke-width:10.00"/>
	<line x1="2080.17" y1="2320.61" x2="2131.19" y2="2320.61" style="stroke:#A0A0A0;stroke-width:10.00"/>
	<line x1="2156.70" y1="2320.61" x2="2207.72" y2="2320.61" style="stroke:#A0A0A0;stroke-width:10.00"/>
	<line x1="2233.23" y1="2320.61" x2="2278.03" y2="2320.61" style="stroke:#A0A0A0;stroke-width:10.00"/>
	<text x="1356.30" y="239.12" style="font-family:'Helvetica';font-size:60.03px;fill:#000000" text-anchor="middle">Means</text>
	<text x="1356.30" y="154.88" style="font-family:'Helvetica';font-size:90.01px;fill:#000000" text-anchor="middle">Weekly working hours (actual), Men</text>
</svg>
