<?xml version="1.0" encoding="UTF-8" standalone="no"?>
<!-- This is a Stata 15.1 generated SVG file (http://www.stata.com) -->

<svg version="1.1" width="3.54in" height="3.54in" viewBox="0 0 2551 2551" xmlns="http://www.w3.org/2000/svg" xmlns:xlink="http://www.w3.org/1999/xlink">
	<desc>Stata Graph - Graph</desc>
	<rect x="0" y="0" width="2551" height="2551" style="fill:#FFFFFF;stroke:none"/>
	<rect x="0.00" y="0.08" width="2551.00" height="2550.92" style="fill:#FFFFFF"/>
	<rect x="2.55" y="2.63" width="2545.90" height="2545.82" style="fill:none;stroke:#FFFFFF;stroke-width:5.10"/>
	<line x1="365.68" y1="1865.82" x2="2346.91" y2="1865.82" style="stroke:#E8E8E8;stroke-width:4.00"/>
	<line x1="365.68" y1="1565.52" x2="2346.91" y2="1565.52" style="stroke:#E8E8E8;stroke-width:4.00"/>
	<line x1="365.68" y1="1265.22" x2="2346.91" y2="1265.22" style="stroke:#E8E8E8;stroke-width:4.00"/>
	<line x1="365.68" y1="964.92" x2="2346.91" y2="964.92" style="stroke:#E8E8E8;stroke-width:4.00"/>
	<line x1="365.68" y1="664.62" x2="2346.91" y2="664.62" style="stroke:#E8E8E8;stroke-width:4.00"/>
	<line x1="365.68" y1="364.31" x2="2346.91" y2="364.31" style="stroke:#E8E8E8;stroke-width:4.00"/>
	<line x1="421.81" y1="1921.94" x2="421.81" y2="308.19" style="stroke:#E8E8E8;stroke-width:4.00"/>
	<line x1="655.39" y1="1921.94" x2="655.39" y2="308.19" style="stroke:#E8E8E8;stroke-width:4.00"/>
	<line x1="889.05" y1="1921.94" x2="889.05" y2="308.19" style="stroke:#E8E8E8;stroke-width:4.00"/>
	<line x1="1122.71" y1="1921.94" x2="1122.71" y2="308.19" style="stroke:#E8E8E8;stroke-width:4.00"/>
	<line x1="1356.30" y1="1921.94" x2="1356.30" y2="308.19" style="stroke:#E8E8E8;stroke-width:4.00"/>
	<line x1="1589.96" y1="1921.94" x2="1589.96" y2="308.19" style="stroke:#E8E8E8;stroke-width:4.00"/>
	<line x1="1823.54" y1="1921.94" x2="1823.54" y2="308.19" style="stroke:#E8E8E8;stroke-width:4.00"/>
	<line x1="2057.21" y1="1921.94" x2="2057.21" y2="308.19" style="stroke:#E8E8E8;stroke-width:4.00"/>
	<line x1="2290.79" y1="1921.94" x2="2290.79" y2="308.19" style="stroke:#E8E8E8;stroke-width:4.00"/>
	<line x1="421.73" y1="563.05" x2="515.24" y2="563.45" stroke-linecap="round" style="stroke:#E69F00;stroke-width:10.00"/>
	<line x1="515.24" y1="563.45" x2="608.67" y2="552.45" stroke-linecap="round" style="stroke:#E69F00;stroke-width:10.00"/>
	<line x1="608.67" y1="552.45" x2="702.10" y2="587.85" stroke-linecap="round" style="stroke:#E69F00;stroke-width:10.00"/>
	<line x1="702.10" y1="587.85" x2="842.25" y2="597.49" stroke-linecap="round" style="stroke:#E69F00;stroke-width:10.00"/>
	<line x1="842.25" y1="597.49" x2="935.77" y2="617.18" stroke-linecap="round" style="stroke:#E69F00;stroke-width:10.00"/>
	<line x1="935.77" y1="617.18" x2="1029.20" y2="619.33" stroke-linecap="round" style="stroke:#E69F00;stroke-width:10.00"/>
	<line x1="1029.20" y1="619.33" x2="1122.63" y2="661.90" stroke-linecap="round" style="stroke:#E69F00;stroke-width:10.00"/>
	<line x1="1122.63" y1="661.90" x2="1216.07" y2="715.48" stroke-linecap="round" style="stroke:#E69F00;stroke-width:10.00"/>
	<line x1="1216.07" y1="715.48" x2="1309.50" y2="652.66" stroke-linecap="round" style="stroke:#E69F00;stroke-width:10.00"/>
	<line x1="1309.50" y1="652.66" x2="1356.30" y2="659.91" stroke-linecap="round" style="stroke:#E69F00;stroke-width:10.00"/>
	<line x1="1356.30" y1="659.91" x2="1403.01" y2="646.28" stroke-linecap="round" style="stroke:#E69F00;stroke-width:10.00"/>
	<line x1="1403.01" y1="646.28" x2="1449.73" y2="621.41" stroke-linecap="round" style="stroke:#E69F00;stroke-width:10.00"/>
	<line x1="1449.73" y1="621.41" x2="1496.45" y2="678.41" stroke-linecap="round" style="stroke:#E69F00;stroke-width:10.00"/>
	<line x1="1496.45" y1="678.41" x2="1543.16" y2="630.42" stroke-linecap="round" style="stroke:#E69F00;stroke-width:10.00"/>
	<line x1="1543.16" y1="630.42" x2="1589.88" y2="608.57" stroke-linecap="round" style="stroke:#E69F00;stroke-width:10.00"/>
	<line x1="1589.88" y1="608.57" x2="1636.60" y2="608.65" stroke-linecap="round" style="stroke:#E69F00;stroke-width:10.00"/>
	<line x1="1636.60" y1="608.65" x2="1683.31" y2="639.50" stroke-linecap="round" style="stroke:#E69F00;stroke-width:10.00"/>
	<line x1="842.25" y1="542.09" x2="935.77" y2="548.31" stroke-linecap="round" style="stroke:#56B4E9;stroke-width:10.00"/>
	<line x1="935.77" y1="548.31" x2="1029.20" y2="546.79" stroke-linecap="round" style="stroke:#56B4E9;stroke-width:10.00"/>
	<line x1="1029.20" y1="546.79" x2="1122.63" y2="597.17" stroke-linecap="round" style="stroke:#56B4E9;stroke-width:10.00"/>
	<line x1="1122.63" y1="597.17" x2="1216.07" y2="614.95" stroke-linecap="round" style="stroke:#56B4E9;stroke-width:10.00"/>
	<line x1="1216.07" y1="614.95" x2="1309.50" y2="535.79" stroke-linecap="round" style="stroke:#56B4E9;stroke-width:10.00"/>
	<line x1="1309.50" y1="535.79" x2="1356.30" y2="616.70" stroke-linecap="round" style="stroke:#56B4E9;stroke-width:10.00"/>
	<line x1="1356.30" y1="616.70" x2="1403.01" y2="578.68" stroke-linecap="round" style="stroke:#56B4E9;stroke-width:10.00"/>
	<line x1="1403.01" y1="578.68" x2="1449.73" y2="540.09" stroke-linecap="round" style="stroke:#56B4E9;stroke-width:10.00"/>
	<line x1="1449.73" y1="540.09" x2="1496.45" y2="574.77" stroke-linecap="round" style="stroke:#56B4E9;stroke-width:10.00"/>
	<line x1="1496.45" y1="574.77" x2="1543.16" y2="550.30" stroke-linecap="round" style="stroke:#56B4E9;stroke-width:10.00"/>
	<line x1="1543.16" y1="550.30" x2="1589.88" y2="574.21" stroke-linecap="round" style="stroke:#56B4E9;stroke-width:10.00"/>
	<line x1="1589.88" y1="574.21" x2="1636.60" y2="614.63" stroke-linecap="round" style="stroke:#56B4E9;stroke-width:10.00"/>
	<line x1="1636.60" y1="614.63" x2="1683.31" y2="601.64" stroke-linecap="round" style="stroke:#56B4E9;stroke-width:10.00"/>
	<line x1="1683.31" y1="601.64" x2="1730.03" y2="669.24" stroke-linecap="round" style="stroke:#56B4E9;stroke-width:10.00"/>
	<line x1="1730.03" y1="669.24" x2="1776.75" y2="606.82" stroke-linecap="round" style="stroke:#56B4E9;stroke-width:10.00"/>
	<line x1="1776.75" y1="606.82" x2="1823.54" y2="691.24" stroke-linecap="round" style="stroke:#56B4E9;stroke-width:10.00"/>
	<line x1="1823.54" y1="691.24" x2="1870.26" y2="667.96" stroke-linecap="round" style="stroke:#56B4E9;stroke-width:10.00"/>
	<line x1="1870.26" y1="667.96" x2="1916.98" y2="589.28" stroke-linecap="round" style="stroke:#56B4E9;stroke-width:10.00"/>
	<line x1="1916.98" y1="589.28" x2="1963.69" y2="682.23" stroke-linecap="round" style="stroke:#56B4E9;stroke-width:10.00"/>
	<line x1="1963.69" y1="682.23" x2="2010.41" y2="627.94" stroke-linecap="round" style="stroke:#56B4E9;stroke-width:10.00"/>
	<line x1="2010.41" y1="627.94" x2="2057.13" y2="628.18" stroke-linecap="round" style="stroke:#56B4E9;stroke-width:10.00"/>
	<line x1="2057.13" y1="628.18" x2="2103.84" y2="647.16" stroke-linecap="round" style="stroke:#56B4E9;stroke-width:10.00"/>
	<line x1="2103.84" y1="647.16" x2="2150.56" y2="649.47" stroke-linecap="round" style="stroke:#56B4E9;stroke-width:10.00"/>
	<line x1="1309.50" y1="630.58" x2="1356.30" y2="690.68" stroke-linecap="round" style="stroke:#009E73;stroke-width:10.00"/>
	<line x1="1356.30" y1="690.68" x2="1403.01" y2="703.28" stroke-linecap="round" style="stroke:#009E73;stroke-width:10.00"/>
	<line x1="1403.01" y1="703.28" x2="1449.73" y2="654.49" stroke-linecap="round" style="stroke:#009E73;stroke-width:10.00"/>
	<line x1="1449.73" y1="654.49" x2="1496.45" y2="694.03" stroke-linecap="round" style="stroke:#009E73;stroke-width:10.00"/>
	<line x1="1496.45" y1="694.03" x2="1543.16" y2="656.32" stroke-linecap="round" style="stroke:#009E73;stroke-width:10.00"/>
	<line x1="1543.16" y1="656.32" x2="1589.88" y2="607.70" stroke-linecap="round" style="stroke:#009E73;stroke-width:10.00"/>
	<line x1="1589.88" y1="607.70" x2="1636.60" y2="646.76" stroke-linecap="round" style="stroke:#009E73;stroke-width:10.00"/>
	<line x1="1636.60" y1="646.76" x2="1683.31" y2="633.84" stroke-linecap="round" style="stroke:#009E73;stroke-width:10.00"/>
	<line x1="1683.31" y1="633.84" x2="1730.03" y2="614.39" stroke-linecap="round" style="stroke:#009E73;stroke-width:10.00"/>
	<line x1="1730.03" y1="614.39" x2="1776.75" y2="599.41" stroke-linecap="round" style="stroke:#009E73;stroke-width:10.00"/>
	<line x1="1776.75" y1="599.41" x2="1823.54" y2="707.11" stroke-linecap="round" style="stroke:#009E73;stroke-width:10.00"/>
	<line x1="1823.54" y1="707.11" x2="1870.26" y2="661.43" stroke-linecap="round" style="stroke:#009E73;stroke-width:10.00"/>
	<line x1="1870.26" y1="661.43" x2="1916.98" y2="677.85" stroke-linecap="round" style="stroke:#009E73;stroke-width:10.00"/>
	<line x1="1916.98" y1="677.85" x2="1963.69" y2="763.07" stroke-linecap="round" style="stroke:#009E73;stroke-width:10.00"/>
	<line x1="1963.69" y1="763.07" x2="2010.41" y2="692.20" stroke-linecap="round" style="stroke:#009E73;stroke-width:10.00"/>
	<line x1="2010.41" y1="692.20" x2="2057.13" y2="668.12" stroke-linecap="round" style="stroke:#009E73;stroke-width:10.00"/>
	<line x1="2057.13" y1="668.12" x2="2103.84" y2="699.93" stroke-linecap="round" style="stroke:#009E73;stroke-width:10.00"/>
	<line x1="2103.84" y1="699.93" x2="2150.56" y2="768.97" stroke-linecap="round" style="stroke:#009E73;stroke-width:10.00"/>
	<line x1="2150.56" y1="768.97" x2="2197.28" y2="750.55" stroke-linecap="round" style="stroke:#009E73;stroke-width:10.00"/>
	<line x1="2197.28" y1="750.55" x2="2243.99" y2="721.14" stroke-linecap="round" style="stroke:#009E73;stroke-width:10.00"/>
	<line x1="1730.03" y1="718.90" x2="1776.75" y2="772.63" stroke-linecap="round" style="stroke:#D55E00;stroke-width:10.00"/>
	<line x1="1776.75" y1="772.63" x2="1823.54" y2="802.53" stroke-linecap="round" style="stroke:#D55E00;stroke-width:10.00"/>
	<line x1="1823.54" y1="802.53" x2="1870.26" y2="780.92" stroke-linecap="round" style="stroke:#D55E00;stroke-width:10.00"/>
	<line x1="1870.26" y1="780.92" x2="1916.98" y2="803.72" stroke-linecap="round" style="stroke:#D55E00;stroke-width:10.00"/>
	<line x1="1916.98" y1="803.72" x2="1963.69" y2="807.63" stroke-linecap="round" style="stroke:#D55E00;stroke-width:10.00"/>
	<line x1="1963.69" y1="807.63" x2="2010.41" y2="773.35" stroke-linecap="round" style="stroke:#D55E00;stroke-width:10.00"/>
	<line x1="2010.41" y1="773.35" x2="2057.13" y2="769.60" stroke-linecap="round" style="stroke:#D55E00;stroke-width:10.00"/>
	<line x1="2057.13" y1="769.60" x2="2103.84" y2="774.55" stroke-linecap="round" style="stroke:#D55E00;stroke-width:10.00"/>
	<line x1="2103.84" y1="774.55" x2="2150.56" y2="761.95" stroke-linecap="round" style="stroke:#D55E00;stroke-width:10.00"/>
	<line x1="2150.56" y1="761.95" x2="2197.28" y2="766.58" stroke-linecap="round" style="stroke:#D55E00;stroke-width:10.00"/>
	<line x1="2197.28" y1="766.58" x2="2243.99" y2="765.54" stroke-linecap="round" style="stroke:#D55E00;stroke-width:10.00"/>
	<line x1="2057.13" y1="763.47" x2="2103.84" y2="798.94" stroke-linecap="round" style="stroke:#CC79A7;stroke-width:10.00"/>
	<line x1="2103.84" y1="798.94" x2="2150.56" y2="785.79" stroke-linecap="round" style="stroke:#CC79A7;stroke-width:10.00"/>
	<line x1="2150.56" y1="785.79" x2="2197.28" y2="796.15" stroke-linecap="round" style="stroke:#CC79A7;stroke-width:10.00"/>
	<line x1="2197.28" y1="796.15" x2="2243.99" y2="805.72" stroke-linecap="round" style="stroke:#CC79A7;stroke-width:10.00"/>
	<line x1="421.73" y1="442.12" x2="472.03" y2="450.49" style="stroke:#A0A0A0;stroke-width:10.00"/>
	<line x1="497.22" y1="454.64" x2="515.24" y2="457.67" style="stroke:#A0A0A0;stroke-width:10.00"/>
	<line x1="515.24" y1="457.67" x2="548.00" y2="456.95" style="stroke:#A0A0A0;stroke-width:10.00"/>
	<line x1="573.51" y1="456.47" x2="608.67" y2="455.67" style="stroke:#A0A0A0;stroke-width:10.00"/>
	<line x1="608.67" y1="455.67" x2="624.14" y2="459.10" style="stroke:#A0A0A0;stroke-width:10.00"/>
	<line x1="649.09" y1="464.44" x2="698.92" y2="475.28" style="stroke:#A0A0A0;stroke-width:10.00"/>
	<line x1="723.95" y1="471.93" x2="774.09" y2="462.69" style="stroke:#A0A0A0;stroke-width:10.00"/>
	<line x1="799.21" y1="458.06" x2="842.25" y2="450.09" style="stroke:#A0A0A0;stroke-width:10.00"/>
	<line x1="842.25" y1="450.09" x2="849.35" y2="451.61" style="stroke:#A0A0A0;stroke-width:10.00"/>
	<line x1="874.22" y1="457.03" x2="924.05" y2="467.87" style="stroke:#A0A0A0;stroke-width:10.00"/>
	<line x1="949.16" y1="472.41" x2="999.62" y2="480.07" style="stroke:#A0A0A0;stroke-width:10.00"/>
	<line x1="1024.82" y1="483.89" x2="1029.20" y2="484.53" style="stroke:#A0A0A0;stroke-width:10.00"/>
	<line x1="1029.20" y1="484.53" x2="1074.00" y2="497.29" style="stroke:#A0A0A0;stroke-width:10.00"/>
	<line x1="1098.56" y1="504.22" x2="1122.63" y2="511.08" style="stroke:#A0A0A0;stroke-width:10.00"/>
	<line x1="1122.63" y1="511.08" x2="1146.55" y2="521.28" style="stroke:#A0A0A0;stroke-width:10.00"/>
	<line x1="1169.99" y1="531.33" x2="1216.07" y2="551.02" style="stroke:#A0A0A0;stroke-width:10.00"/>
	<line x1="1216.07" y1="551.02" x2="1216.94" y2="550.94" style="stroke:#A0A0A0;stroke-width:10.00"/>
	<line x1="1242.30" y1="547.59" x2="1292.92" y2="541.05" style="stroke:#A0A0A0;stroke-width:10.00"/>
	<line x1="1318.19" y1="537.86" x2="1356.30" y2="533.24" style="stroke:#A0A0A0;stroke-width:10.00"/>
	<line x1="1356.30" y1="533.24" x2="1368.18" y2="529.09" style="stroke:#A0A0A0;stroke-width:10.00"/>
	<line x1="1392.33" y1="520.72" x2="1403.01" y2="517.06" style="stroke:#A0A0A0;stroke-width:10.00"/>
	<line x1="1403.01" y1="517.06" x2="1442.64" y2="515.86" style="stroke:#A0A0A0;stroke-width:10.00"/>
	<line x1="1467.99" y1="513.15" x2="1496.45" y2="509.24" style="stroke:#A0A0A0;stroke-width:10.00"/>
	<line x1="1496.45" y1="509.24" x2="1518.69" y2="507.25" style="stroke:#A0A0A0;stroke-width:10.00"/>
	<line x1="1544.04" y1="505.10" x2="1589.88" y2="513.39" style="stroke:#A0A0A0;stroke-width:10.00"/>
	<line x1="1589.88" y1="513.39" x2="1594.19" y2="514.74" style="stroke:#A0A0A0;stroke-width:10.00"/>
	<line x1="1618.42" y1="522.64" x2="1636.60" y2="528.46" style="stroke:#A0A0A0;stroke-width:10.00"/>
	<line x1="1636.60" y1="528.46" x2="1667.29" y2="537.46" style="stroke:#A0A0A0;stroke-width:10.00"/>
	<line x1="1692.00" y1="541.05" x2="1730.03" y2="536.35" style="stroke:#A0A0A0;stroke-width:10.00"/>
	<line x1="1730.03" y1="536.35" x2="1740.79" y2="529.57" style="stroke:#A0A0A0;stroke-width:10.00"/>
	<line x1="1762.40" y1="516.02" x2="1776.75" y2="507.01" style="stroke:#A0A0A0;stroke-width:10.00"/>
	<line x1="1776.75" y1="507.01" x2="1800.19" y2="531.72" style="stroke:#A0A0A0;stroke-width:10.00"/>
	<line x1="1817.80" y1="550.30" x2="1823.54" y2="556.36" style="stroke:#A0A0A0;stroke-width:10.00"/>
	<line x1="1823.54" y1="556.36" x2="1864.28" y2="543.84" style="stroke:#A0A0A0;stroke-width:10.00"/>
	<line x1="1889.15" y1="545.75" x2="1916.98" y2="551.26" style="stroke:#A0A0A0;stroke-width:10.00"/>
	<line x1="1916.98" y1="551.26" x2="1931.41" y2="568.79" style="stroke:#A0A0A0;stroke-width:10.00"/>
	<line x1="1947.67" y1="588.40" x2="1963.69" y2="607.86" style="stroke:#A0A0A0;stroke-width:10.00"/>
	<line x1="1963.69" y1="607.86" x2="1987.29" y2="597.25" style="stroke:#A0A0A0;stroke-width:10.00"/>
	<line x1="2010.49" y1="586.81" x2="2057.13" y2="580.99" style="stroke:#A0A0A0;stroke-width:10.00"/>
	<line x1="2057.13" y1="580.99" x2="2061.11" y2="581.71" style="stroke:#A0A0A0;stroke-width:10.00"/>
	<line x1="2086.30" y1="586.09" x2="2103.84" y2="589.12" style="stroke:#A0A0A0;stroke-width:10.00"/>
	<line x1="2103.84" y1="589.12" x2="2134.78" y2="601.16" style="stroke:#A0A0A0;stroke-width:10.00"/>
	<line x1="2159.01" y1="608.25" x2="2197.28" y2="612.24" style="stroke:#A0A0A0;stroke-width:10.00"/>
	<line x1="2197.28" y1="612.24" x2="2209.39" y2="615.59" style="stroke:#A0A0A0;stroke-width:10.00"/>
	<line x1="2233.95" y1="622.44" x2="2243.99" y2="625.31" style="stroke:#A0A0A0;stroke-width:10.00"/>
	<line x1="365.68" y1="1865.82" x2="330.29" y2="1865.82" style="stroke:#000000;stroke-width:4.00"/>
	<text x="312.51" y="1883.33" style="font-family:'Helvetica';font-size:49.99px;fill:#000000" text-anchor="end">20</text>
	<line x1="365.68" y1="1565.52" x2="330.29" y2="1565.52" style="stroke:#000000;stroke-width:4.00"/>
	<text x="312.51" y="1583.03" style="font-family:'Helvetica';font-size:49.99px;fill:#000000" text-anchor="end">25</text>
	<line x1="365.68" y1="1265.22" x2="330.29" y2="1265.22" style="stroke:#000000;stroke-width:4.00"/>
	<text x="312.51" y="1282.73" style="font-family:'Helvetica';font-size:49.99px;fill:#000000" text-anchor="end">30</text>
	<line x1="365.68" y1="964.92" x2="330.29" y2="964.92" style="stroke:#000000;stroke-width:4.00"/>
	<text x="312.51" y="982.43" style="font-family:'Helvetica';font-size:49.99px;fill:#000000" text-anchor="end">35</text>
	<line x1="365.68" y1="664.62" x2="330.29" y2="664.62" style="stroke:#000000;stroke-width:4.00"/>
	<text x="312.51" y="682.13" style="font-family:'Helvetica';font-size:49.99px;fill:#000000" text-anchor="end">40</text>
	<line x1="365.68" y1="364.31" x2="330.29" y2="364.31" style="stroke:#000000;stroke-width:4.00"/>
	<text x="312.51" y="381.83" style="font-family:'Helvetica';font-size:49.99px;fill:#000000" text-anchor="end">45</text>
	<line x1="365.68" y1="1865.82" x2="365.68" y2="364.31" style="stroke:#000000;stroke-width:4.00"/>
	<text x="136.21" y="1076.84" style="font-family:'Helvetica';font-size:60.03px;fill:#000000" transform="rotate(-90 136.21,1076.84)" text-anchor="middle">Weekly working hours (actual)</text>
	<line x1="421.81" y1="1921.94" x2="421.81" y2="1957.33" style="stroke:#000000;stroke-width:4.00"/>
	<text x="421.81" y="2009.98" style="font-family:'Helvetica';font-size:49.99px;fill:#000000" text-anchor="middle">1976</text>
	<line x1="655.39" y1="1921.94" x2="655.39" y2="1957.33" style="stroke:#000000;stroke-width:4.00"/>
	<text x="655.39" y="2009.98" style="font-family:'Helvetica';font-size:49.99px;fill:#000000" text-anchor="middle">1981</text>
	<line x1="889.05" y1="1921.94" x2="889.05" y2="1957.33" style="stroke:#000000;stroke-width:4.00"/>
	<text x="889.05" y="2009.98" style="font-family:'Helvetica';font-size:49.99px;fill:#000000" text-anchor="middle">1986</text>
	<line x1="1122.71" y1="1921.94" x2="1122.71" y2="1957.33" style="stroke:#000000;stroke-width:4.00"/>
	<text x="1122.71" y="2009.98" style="font-family:'Helvetica';font-size:49.99px;fill:#000000" text-anchor="middle">1991</text>
	<line x1="1356.30" y1="1921.94" x2="1356.30" y2="1957.33" style="stroke:#000000;stroke-width:4.00"/>
	<text x="1356.30" y="2009.98" style="font-family:'Helvetica';font-size:49.99px;fill:#000000" text-anchor="middle">1996</text>
	<line x1="1589.96" y1="1921.94" x2="1589.96" y2="1957.33" style="stroke:#000000;stroke-width:4.00"/>
	<text x="1589.96" y="2009.98" style="font-family:'Helvetica';font-size:49.99px;fill:#000000" text-anchor="middle">2001</text>
	<line x1="1823.54" y1="1921.94" x2="1823.54" y2="1957.33" style="stroke:#000000;stroke-width:4.00"/>
	<text x="1823.54" y="2009.98" style="font-family:'Helvetica';font-size:49.99px;fill:#000000" text-anchor="middle">2006</text>
	<line x1="2057.21" y1="1921.94" x2="2057.21" y2="1957.33" style="stroke:#000000;stroke-width:4.00"/>
	<text x="2057.21" y="2009.98" style="font-family:'Helvetica';font-size:49.99px;fill:#000000" text-anchor="middle">2011</text>
	<line x1="2290.79" y1="1921.94" x2="2290.79" y2="1957.33" style="stroke:#000000;stroke-width:4.00"/>
	<text x="2290.79" y="2009.98" style="font-family:'Helvetica';font-size:49.99px;fill:#000000" text-anchor="middle">2016</text>
	<line x1="421.81" y1="1921.94" x2="2290.79" y2="1921.94" style="stroke:#000000;stroke-width:4.00"/>
	<text x="1318.03" y="2152.37" style="font-family:'Helvetica';font-size:60.03px;fill:#000000" text-anchor="middle">Year</text>
	<text x="145.41" y="2396.65" style="font-family:'Helvetica';font-size:60.03px;fill:#000000">Arr. cohort: </text>
	<text x="536.36" y="2396.65" style="font-family:'Helvetica';font-size:60.03px;fill:#000000">1964-73</text>
	<text x="845.12" y="2396.65" style="font-family:'Helvetica';font-size:60.03px;fill:#000000">1974-83</text>
	<text x="1153.89" y="2396.65" style="font-family:'Helvetica';font-size:60.03px;fill:#000000">1984-93</text>
	<text x="1462.65" y="2396.65" style="font-family:'Helvetica';font-size:60.03px;fill:#000000">1994-03</text>
	<text x="1771.41" y="2396.65" style="font-family:'Helvetica';font-size:60.03px;fill:#000000">2004-10</text>
	<text x="2080.17" y="2396.65" style="font-family:'Helvetica';font-size:60.03px;fill:#000000">German</text>
	<line x1="536.36" y1="2301.32" x2="737.26" y2="2301.32" style="stroke:#E69F00;stroke-width:10.00"/>
	<line x1="845.12" y1="2301.32" x2="1046.02" y2="2301.32" style="stroke:#56B4E9;stroke-width:10.00"/>
	<line x1="1153.89" y1="2301.32" x2="1354.78" y2="2301.32" style="stroke:#009E73;stroke-width:10.00"/>
	<line x1="1462.65" y1="2301.32" x2="1663.54" y2="2301.32" style="stroke:#D55E00;stroke-width:10.00"/>
	<line x1="1771.41" y1="2301.32" x2="1972.30" y2="2301.32" style="stroke:#CC79A7;stroke-width:10.00"/>
	<line x1="2080.17" y1="2301.32" x2="2131.19" y2="2301.32" style="stroke:#A0A0A0;stroke-width:10.00"/>
	<line x1="2156.70" y1="2301.32" x2="2207.72" y2="2301.32" style="stroke:#A0A0A0;stroke-width:10.00"/>
	<line x1="2233.23" y1="2301.32" x2="2278.03" y2="2301.32" style="stroke:#A0A0A0;stroke-width:10.00"/>
	<text x="1356.30" y="239.12" style="font-family:'Helvetica';font-size:60.03px;fill:#000000" text-anchor="middle">Means</text>
	<text x="1356.30" y="154.88" style="font-family:'Helvetica';font-size:90.01px;fill:#000000" text-anchor="middle">Weekly working hours (actual), Men</text>
</svg>
