<?xml version="1.0" encoding="UTF-8" standalone="no"?>
<!-- This is a Stata 15.1 generated SVG file (http://www.stata.com) -->

<svg version="1.1" width="3.54in" height="3.54in" viewBox="0 0 2551 2551" xmlns="http://www.w3.org/2000/svg" xmlns:xlink="http://www.w3.org/1999/xlink">
	<desc>Stata Graph - Graph</desc>
	<rect x="0" y="0" width="2551" height="2551" style="fill:#FFFFFF;stroke:none"/>
	<rect x="0.00" y="0.08" width="2551.00" height="2550.92" style="fill:#FFFFFF"/>
	<rect x="2.55" y="2.63" width="2545.90" height="2545.82" style="fill:none;stroke:#FFFFFF;stroke-width:5.10"/>
	<line x1="365.68" y1="1904.40" x2="2346.91" y2="1904.40" style="stroke:#E8E8E8;stroke-width:4.00"/>
	<line x1="365.68" y1="1596.37" x2="2346.91" y2="1596.37" style="stroke:#E8E8E8;stroke-width:4.00"/>
	<line x1="365.68" y1="1288.33" x2="2346.91" y2="1288.33" style="stroke:#E8E8E8;stroke-width:4.00"/>
	<line x1="365.68" y1="980.38" x2="2346.91" y2="980.38" style="stroke:#E8E8E8;stroke-width:4.00"/>
	<line x1="365.68" y1="672.35" x2="2346.91" y2="672.35" style="stroke:#E8E8E8;stroke-width:4.00"/>
	<line x1="365.68" y1="364.31" x2="2346.91" y2="364.31" style="stroke:#E8E8E8;stroke-width:4.00"/>
	<line x1="421.81" y1="1960.52" x2="421.81" y2="308.19" style="stroke:#E8E8E8;stroke-width:4.00"/>
	<line x1="655.39" y1="1960.52" x2="655.39" y2="308.19" style="stroke:#E8E8E8;stroke-width:4.00"/>
	<line x1="889.05" y1="1960.52" x2="889.05" y2="308.19" style="stroke:#E8E8E8;stroke-width:4.00"/>
	<line x1="1122.71" y1="1960.52" x2="1122.71" y2="308.19" style="stroke:#E8E8E8;stroke-width:4.00"/>
	<line x1="1356.30" y1="1960.52" x2="1356.30" y2="308.19" style="stroke:#E8E8E8;stroke-width:4.00"/>
	<line x1="1589.96" y1="1960.52" x2="1589.96" y2="308.19" style="stroke:#E8E8E8;stroke-width:4.00"/>
	<line x1="1823.54" y1="1960.52" x2="1823.54" y2="308.19" style="stroke:#E8E8E8;stroke-width:4.00"/>
	<line x1="2057.21" y1="1960.52" x2="2057.21" y2="308.19" style="stroke:#E8E8E8;stroke-width:4.00"/>
	<line x1="2290.79" y1="1960.52" x2="2290.79" y2="308.19" style="stroke:#E8E8E8;stroke-width:4.00"/>
	<line x1="421.73" y1="772.32" x2="515.24" y2="778.21" stroke-linecap="round" style="stroke:#E69F00;stroke-width:10.00"/>
	<line x1="515.24" y1="778.21" x2="608.67" y2="793.68" stroke-linecap="round" style="stroke:#E69F00;stroke-width:10.00"/>
	<line x1="608.67" y1="793.68" x2="702.10" y2="894.60" stroke-linecap="round" style="stroke:#E69F00;stroke-width:10.00"/>
	<line x1="702.10" y1="894.60" x2="842.25" y2="839.20" stroke-linecap="round" style="stroke:#E69F00;stroke-width:10.00"/>
	<line x1="842.25" y1="839.20" x2="935.77" y2="846.85" stroke-linecap="round" style="stroke:#E69F00;stroke-width:10.00"/>
	<line x1="935.77" y1="846.85" x2="1029.20" y2="893.57" stroke-linecap="round" style="stroke:#E69F00;stroke-width:10.00"/>
	<line x1="1029.20" y1="893.57" x2="1122.63" y2="964.92" stroke-linecap="round" style="stroke:#E69F00;stroke-width:10.00"/>
	<line x1="1122.63" y1="964.92" x2="1216.07" y2="1041.21" stroke-linecap="round" style="stroke:#E69F00;stroke-width:10.00"/>
	<line x1="1216.07" y1="1041.21" x2="1309.50" y2="1030.84" stroke-linecap="round" style="stroke:#E69F00;stroke-width:10.00"/>
	<line x1="1309.50" y1="1030.84" x2="1356.30" y2="1050.06" stroke-linecap="round" style="stroke:#E69F00;stroke-width:10.00"/>
	<line x1="1356.30" y1="1050.06" x2="1403.01" y2="1143.41" stroke-linecap="round" style="stroke:#E69F00;stroke-width:10.00"/>
	<line x1="1403.01" y1="1143.41" x2="1449.73" y2="1116.94" stroke-linecap="round" style="stroke:#E69F00;stroke-width:10.00"/>
	<line x1="1449.73" y1="1116.94" x2="1496.45" y2="1189.88" stroke-linecap="round" style="stroke:#E69F00;stroke-width:10.00"/>
	<line x1="1496.45" y1="1189.88" x2="1543.16" y2="1098.60" stroke-linecap="round" style="stroke:#E69F00;stroke-width:10.00"/>
	<line x1="1543.16" y1="1098.60" x2="1589.88" y2="1177.76" stroke-linecap="round" style="stroke:#E69F00;stroke-width:10.00"/>
	<line x1="1589.88" y1="1177.76" x2="1636.60" y2="1200.48" stroke-linecap="round" style="stroke:#E69F00;stroke-width:10.00"/>
	<line x1="1636.60" y1="1200.48" x2="1683.31" y2="1192.91" stroke-linecap="round" style="stroke:#E69F00;stroke-width:10.00"/>
	<line x1="842.25" y1="900.50" x2="935.77" y2="1002.30" stroke-linecap="round" style="stroke:#56B4E9;stroke-width:10.00"/>
	<line x1="935.77" y1="1002.30" x2="1029.20" y2="1047.98" stroke-linecap="round" style="stroke:#56B4E9;stroke-width:10.00"/>
	<line x1="1029.20" y1="1047.98" x2="1122.63" y2="1157.04" stroke-linecap="round" style="stroke:#56B4E9;stroke-width:10.00"/>
	<line x1="1122.63" y1="1157.04" x2="1216.07" y2="1181.59" stroke-linecap="round" style="stroke:#56B4E9;stroke-width:10.00"/>
	<line x1="1216.07" y1="1181.59" x2="1309.50" y2="1232.85" stroke-linecap="round" style="stroke:#56B4E9;stroke-width:10.00"/>
	<line x1="1309.50" y1="1232.85" x2="1356.30" y2="1182.23" stroke-linecap="round" style="stroke:#56B4E9;stroke-width:10.00"/>
	<line x1="1356.30" y1="1182.23" x2="1403.01" y2="1254.93" stroke-linecap="round" style="stroke:#56B4E9;stroke-width:10.00"/>
	<line x1="1403.01" y1="1254.93" x2="1449.73" y2="1182.71" stroke-linecap="round" style="stroke:#56B4E9;stroke-width:10.00"/>
	<line x1="1449.73" y1="1182.71" x2="1496.45" y2="1335.69" stroke-linecap="round" style="stroke:#56B4E9;stroke-width:10.00"/>
	<line x1="1496.45" y1="1335.69" x2="1543.16" y2="1252.70" stroke-linecap="round" style="stroke:#56B4E9;stroke-width:10.00"/>
	<line x1="1543.16" y1="1252.70" x2="1589.88" y2="1385.51" stroke-linecap="round" style="stroke:#56B4E9;stroke-width:10.00"/>
	<line x1="1589.88" y1="1385.51" x2="1636.60" y2="1307.79" stroke-linecap="round" style="stroke:#56B4E9;stroke-width:10.00"/>
	<line x1="1636.60" y1="1307.79" x2="1683.31" y2="1292.96" stroke-linecap="round" style="stroke:#56B4E9;stroke-width:10.00"/>
	<line x1="1683.31" y1="1292.96" x2="1730.03" y2="1309.78" stroke-linecap="round" style="stroke:#56B4E9;stroke-width:10.00"/>
	<line x1="1730.03" y1="1309.78" x2="1776.75" y2="1313.53" stroke-linecap="round" style="stroke:#56B4E9;stroke-width:10.00"/>
	<line x1="1776.75" y1="1313.53" x2="1823.54" y2="1454.79" stroke-linecap="round" style="stroke:#56B4E9;stroke-width:10.00"/>
	<line x1="1823.54" y1="1454.79" x2="1870.26" y2="1398.19" stroke-linecap="round" style="stroke:#56B4E9;stroke-width:10.00"/>
	<line x1="1870.26" y1="1398.19" x2="1916.98" y2="1314.80" stroke-linecap="round" style="stroke:#56B4E9;stroke-width:10.00"/>
	<line x1="1916.98" y1="1314.80" x2="1963.69" y2="1475.43" stroke-linecap="round" style="stroke:#56B4E9;stroke-width:10.00"/>
	<line x1="1963.69" y1="1475.43" x2="2010.41" y2="1367.65" stroke-linecap="round" style="stroke:#56B4E9;stroke-width:10.00"/>
	<line x1="2010.41" y1="1367.65" x2="2057.13" y2="1402.65" stroke-linecap="round" style="stroke:#56B4E9;stroke-width:10.00"/>
	<line x1="2057.13" y1="1402.65" x2="2103.84" y2="1448.01" stroke-linecap="round" style="stroke:#56B4E9;stroke-width:10.00"/>
	<line x1="1309.50" y1="1207.50" x2="1356.30" y2="1287.46" stroke-linecap="round" style="stroke:#009E73;stroke-width:10.00"/>
	<line x1="1356.30" y1="1287.46" x2="1403.01" y2="1312.09" stroke-linecap="round" style="stroke:#009E73;stroke-width:10.00"/>
	<line x1="1403.01" y1="1312.09" x2="1449.73" y2="1350.28" stroke-linecap="round" style="stroke:#009E73;stroke-width:10.00"/>
	<line x1="1449.73" y1="1350.28" x2="1496.45" y2="1381.61" stroke-linecap="round" style="stroke:#009E73;stroke-width:10.00"/>
	<line x1="1496.45" y1="1381.61" x2="1543.16" y2="1329.79" stroke-linecap="round" style="stroke:#009E73;stroke-width:10.00"/>
	<line x1="1543.16" y1="1329.79" x2="1589.88" y2="1415.25" stroke-linecap="round" style="stroke:#009E73;stroke-width:10.00"/>
	<line x1="1589.88" y1="1415.25" x2="1636.60" y2="1438.92" stroke-linecap="round" style="stroke:#009E73;stroke-width:10.00"/>
	<line x1="1636.60" y1="1438.92" x2="1683.31" y2="1469.54" stroke-linecap="round" style="stroke:#009E73;stroke-width:10.00"/>
	<line x1="1683.31" y1="1469.54" x2="1730.03" y2="1537.93" stroke-linecap="round" style="stroke:#009E73;stroke-width:10.00"/>
	<line x1="1730.03" y1="1537.93" x2="1776.75" y2="1552.04" stroke-linecap="round" style="stroke:#009E73;stroke-width:10.00"/>
	<line x1="1776.75" y1="1552.04" x2="1823.54" y2="1488.19" stroke-linecap="round" style="stroke:#009E73;stroke-width:10.00"/>
	<line x1="1823.54" y1="1488.19" x2="1870.26" y2="1530.28" stroke-linecap="round" style="stroke:#009E73;stroke-width:10.00"/>
	<line x1="1870.26" y1="1530.28" x2="1916.98" y2="1534.11" stroke-linecap="round" style="stroke:#009E73;stroke-width:10.00"/>
	<line x1="1916.98" y1="1534.11" x2="1963.69" y2="1593.02" stroke-linecap="round" style="stroke:#009E73;stroke-width:10.00"/>
	<line x1="1963.69" y1="1593.02" x2="2010.41" y2="1534.83" stroke-linecap="round" style="stroke:#009E73;stroke-width:10.00"/>
	<line x1="2010.41" y1="1534.83" x2="2057.13" y2="1485.48" stroke-linecap="round" style="stroke:#009E73;stroke-width:10.00"/>
	<line x1="2057.13" y1="1485.48" x2="2103.84" y2="1505.89" stroke-linecap="round" style="stroke:#009E73;stroke-width:10.00"/>
	<line x1="2103.84" y1="1505.89" x2="2150.56" y2="1529.24" stroke-linecap="round" style="stroke:#009E73;stroke-width:10.00"/>
	<line x1="2150.56" y1="1529.24" x2="2197.28" y2="1477.11" stroke-linecap="round" style="stroke:#009E73;stroke-width:10.00"/>
	<line x1="2197.28" y1="1477.11" x2="2243.99" y2="1465.31" stroke-linecap="round" style="stroke:#009E73;stroke-width:10.00"/>
	<line x1="1730.03" y1="1420.91" x2="1776.75" y2="1475.59" stroke-linecap="round" style="stroke:#D55E00;stroke-width:10.00"/>
	<line x1="1776.75" y1="1475.59" x2="1823.54" y2="1559.30" stroke-linecap="round" style="stroke:#D55E00;stroke-width:10.00"/>
	<line x1="1823.54" y1="1559.30" x2="1870.26" y2="1574.37" stroke-linecap="round" style="stroke:#D55E00;stroke-width:10.00"/>
	<line x1="1870.26" y1="1574.37" x2="1916.98" y2="1553.16" stroke-linecap="round" style="stroke:#D55E00;stroke-width:10.00"/>
	<line x1="1916.98" y1="1553.16" x2="1963.69" y2="1563.20" stroke-linecap="round" style="stroke:#D55E00;stroke-width:10.00"/>
	<line x1="1963.69" y1="1563.20" x2="2010.41" y2="1539.93" stroke-linecap="round" style="stroke:#D55E00;stroke-width:10.00"/>
	<line x1="2010.41" y1="1539.93" x2="2057.13" y2="1551.33" stroke-linecap="round" style="stroke:#D55E00;stroke-width:10.00"/>
	<line x1="2057.13" y1="1551.33" x2="2103.84" y2="1566.87" stroke-linecap="round" style="stroke:#D55E00;stroke-width:10.00"/>
	<line x1="2103.84" y1="1566.87" x2="2150.56" y2="1566.15" stroke-linecap="round" style="stroke:#D55E00;stroke-width:10.00"/>
	<line x1="2150.56" y1="1566.15" x2="2197.28" y2="1546.62" stroke-linecap="round" style="stroke:#D55E00;stroke-width:10.00"/>
	<line x1="2197.28" y1="1546.62" x2="2243.99" y2="1558.26" stroke-linecap="round" style="stroke:#D55E00;stroke-width:10.00"/>
	<line x1="2057.13" y1="1393.32" x2="2103.84" y2="1466.98" stroke-linecap="round" style="stroke:#CC79A7;stroke-width:10.00"/>
	<line x1="2103.84" y1="1466.98" x2="2150.56" y2="1404.09" stroke-linecap="round" style="stroke:#CC79A7;stroke-width:10.00"/>
	<line x1="2150.56" y1="1404.09" x2="2197.28" y2="1417.48" stroke-linecap="round" style="stroke:#CC79A7;stroke-width:10.00"/>
	<line x1="2197.28" y1="1417.48" x2="2243.99" y2="1439.16" stroke-linecap="round" style="stroke:#CC79A7;stroke-width:10.00"/>
	<line x1="421.73" y1="965.87" x2="471.07" y2="978.79" style="stroke:#A0A0A0;stroke-width:10.00"/>
	<line x1="495.79" y1="985.24" x2="515.24" y2="990.35" style="stroke:#A0A0A0;stroke-width:10.00"/>
	<line x1="515.24" y1="990.35" x2="545.85" y2="994.81" style="stroke:#A0A0A0;stroke-width:10.00"/>
	<line x1="571.04" y1="998.48" x2="608.67" y2="1003.90" style="stroke:#A0A0A0;stroke-width:10.00"/>
	<line x1="608.67" y1="1003.90" x2="620.31" y2="1009.64" style="stroke:#A0A0A0;stroke-width:10.00"/>
	<line x1="643.19" y1="1020.88" x2="688.95" y2="1043.44" style="stroke:#A0A0A0;stroke-width:10.00"/>
	<line x1="712.79" y1="1047.58" x2="762.61" y2="1036.66" style="stroke:#A0A0A0;stroke-width:10.00"/>
	<line x1="787.57" y1="1031.24" x2="837.39" y2="1020.40" style="stroke:#A0A0A0;stroke-width:10.00"/>
	<line x1="862.26" y1="1023.83" x2="912.01" y2="1035.15" style="stroke:#A0A0A0;stroke-width:10.00"/>
	<line x1="936.88" y1="1040.81" x2="985.75" y2="1055.48" style="stroke:#A0A0A0;stroke-width:10.00"/>
	<line x1="1010.23" y1="1062.73" x2="1029.20" y2="1068.39" style="stroke:#A0A0A0;stroke-width:10.00"/>
	<line x1="1029.20" y1="1068.39" x2="1052.88" y2="1088.80" style="stroke:#A0A0A0;stroke-width:10.00"/>
	<line x1="1072.25" y1="1105.38" x2="1110.92" y2="1138.70" style="stroke:#A0A0A0;stroke-width:10.00"/>
	<line x1="1132.28" y1="1151.62" x2="1181.15" y2="1166.21" style="stroke:#A0A0A0;stroke-width:10.00"/>
	<line x1="1205.62" y1="1173.54" x2="1216.07" y2="1176.65" style="stroke:#A0A0A0;stroke-width:10.00"/>
	<line x1="1216.07" y1="1176.65" x2="1256.09" y2="1180.40" style="stroke:#A0A0A0;stroke-width:10.00"/>
	<line x1="1281.44" y1="1182.71" x2="1309.50" y2="1185.34" style="stroke:#A0A0A0;stroke-width:10.00"/>
	<line x1="1309.50" y1="1185.34" x2="1332.14" y2="1188.53" style="stroke:#A0A0A0;stroke-width:10.00"/>
	<line x1="1357.33" y1="1192.27" x2="1403.01" y2="1207.26" style="stroke:#A0A0A0;stroke-width:10.00"/>
	<line x1="1403.01" y1="1207.26" x2="1405.88" y2="1208.06" style="stroke:#A0A0A0;stroke-width:10.00"/>
	<line x1="1430.44" y1="1214.83" x2="1449.73" y2="1220.18" style="stroke:#A0A0A0;stroke-width:10.00"/>
	<line x1="1449.73" y1="1220.18" x2="1477.71" y2="1233.57" style="stroke:#A0A0A0;stroke-width:10.00"/>
	<line x1="1501.15" y1="1242.97" x2="1543.16" y2="1247.44" style="stroke:#A0A0A0;stroke-width:10.00"/>
	<line x1="1543.16" y1="1247.44" x2="1551.53" y2="1249.99" style="stroke:#A0A0A0;stroke-width:10.00"/>
	<line x1="1575.93" y1="1257.56" x2="1589.88" y2="1261.87" style="stroke:#A0A0A0;stroke-width:10.00"/>
	<line x1="1589.88" y1="1261.87" x2="1625.12" y2="1270.96" style="stroke:#A0A0A0;stroke-width:10.00"/>
	<line x1="1649.51" y1="1278.53" x2="1683.31" y2="1290.89" style="stroke:#A0A0A0;stroke-width:10.00"/>
	<line x1="1683.31" y1="1290.89" x2="1698.38" y2="1290.81" style="stroke:#A0A0A0;stroke-width:10.00"/>
	<line x1="1723.89" y1="1290.81" x2="1730.03" y2="1290.73" style="stroke:#A0A0A0;stroke-width:10.00"/>
	<line x1="1730.03" y1="1290.73" x2="1774.83" y2="1292.24" style="stroke:#A0A0A0;stroke-width:10.00"/>
	<line x1="1794.68" y1="1307.71" x2="1823.54" y2="1332.42" style="stroke:#A0A0A0;stroke-width:10.00"/>
	<line x1="1823.54" y1="1332.42" x2="1836.14" y2="1329.23" style="stroke:#A0A0A0;stroke-width:10.00"/>
	<line x1="1860.85" y1="1323.09" x2="1870.26" y2="1320.70" style="stroke:#A0A0A0;stroke-width:10.00"/>
	<line x1="1870.26" y1="1320.70" x2="1910.36" y2="1310.74" style="stroke:#A0A0A0;stroke-width:10.00"/>
	<line x1="1934.83" y1="1314.64" x2="1963.69" y2="1323.73" style="stroke:#A0A0A0;stroke-width:10.00"/>
	<line x1="1963.69" y1="1323.73" x2="1983.86" y2="1318.79" style="stroke:#A0A0A0;stroke-width:10.00"/>
	<line x1="2008.66" y1="1312.73" x2="2010.41" y2="1312.33" style="stroke:#A0A0A0;stroke-width:10.00"/>
	<line x1="2010.41" y1="1312.33" x2="2056.41" y2="1294.79" style="stroke:#A0A0A0;stroke-width:10.00"/>
	<line x1="2081.84" y1="1293.60" x2="2103.84" y2="1292.80" style="stroke:#A0A0A0;stroke-width:10.00"/>
	<line x1="2103.84" y1="1292.80" x2="2132.78" y2="1291.68" style="stroke:#A0A0A0;stroke-width:10.00"/>
	<line x1="2158.05" y1="1288.81" x2="2197.28" y2="1276.93" style="stroke:#A0A0A0;stroke-width:10.00"/>
	<line x1="2197.28" y1="1276.93" x2="2206.84" y2="1274.07" style="stroke:#A0A0A0;stroke-width:10.00"/>
	<line x1="2231.24" y1="1266.65" x2="2243.99" y2="1262.82" style="stroke:#A0A0A0;stroke-width:10.00"/>
	<line x1="365.68" y1="1904.40" x2="330.29" y2="1904.40" style="stroke:#000000;stroke-width:4.00"/>
	<text x="312.51" y="1921.92" style="font-family:'Helvetica';font-size:49.99px;fill:#000000" text-anchor="end">20</text>
	<line x1="365.68" y1="1596.37" x2="330.29" y2="1596.37" style="stroke:#000000;stroke-width:4.00"/>
	<text x="312.51" y="1613.88" style="font-family:'Helvetica';font-size:49.99px;fill:#000000" text-anchor="end">25</text>
	<line x1="365.68" y1="1288.33" x2="330.29" y2="1288.33" style="stroke:#000000;stroke-width:4.00"/>
	<text x="312.51" y="1305.85" style="font-family:'Helvetica';font-size:49.99px;fill:#000000" text-anchor="end">30</text>
	<line x1="365.68" y1="980.38" x2="330.29" y2="980.38" style="stroke:#000000;stroke-width:4.00"/>
	<text x="312.51" y="997.90" style="font-family:'Helvetica';font-size:49.99px;fill:#000000" text-anchor="end">35</text>
	<line x1="365.68" y1="672.35" x2="330.29" y2="672.35" style="stroke:#000000;stroke-width:4.00"/>
	<text x="312.51" y="689.86" style="font-family:'Helvetica';font-size:49.99px;fill:#000000" text-anchor="end">40</text>
	<line x1="365.68" y1="364.31" x2="330.29" y2="364.31" style="stroke:#000000;stroke-width:4.00"/>
	<text x="312.51" y="381.83" style="font-family:'Helvetica';font-size:49.99px;fill:#000000" text-anchor="end">45</text>
	<line x1="365.68" y1="1904.40" x2="365.68" y2="364.31" style="stroke:#000000;stroke-width:4.00"/>
	<text x="136.21" y="1096.13" style="font-family:'Helvetica';font-size:60.03px;fill:#000000" transform="rotate(-90 136.21,1096.13)" text-anchor="middle">Weekly working hours (actual)</text>
	<line x1="421.81" y1="1960.52" x2="421.81" y2="1995.92" style="stroke:#000000;stroke-width:4.00"/>
	<text x="421.81" y="2048.56" style="font-family:'Helvetica';font-size:49.99px;fill:#000000" text-anchor="middle">1976</text>
	<line x1="655.39" y1="1960.52" x2="655.39" y2="1995.92" style="stroke:#000000;stroke-width:4.00"/>
	<text x="655.39" y="2048.56" style="font-family:'Helvetica';font-size:49.99px;fill:#000000" text-anchor="middle">1981</text>
	<line x1="889.05" y1="1960.52" x2="889.05" y2="1995.92" style="stroke:#000000;stroke-width:4.00"/>
	<text x="889.05" y="2048.56" style="font-family:'Helvetica';font-size:49.99px;fill:#000000" text-anchor="middle">1986</text>
	<line x1="1122.71" y1="1960.52" x2="1122.71" y2="1995.92" style="stroke:#000000;stroke-width:4.00"/>
	<text x="1122.71" y="2048.56" style="font-family:'Helvetica';font-size:49.99px;fill:#000000" text-anchor="middle">1991</text>
	<line x1="1356.30" y1="1960.52" x2="1356.30" y2="1995.92" style="stroke:#000000;stroke-width:4.00"/>
	<text x="1356.30" y="2048.56" style="font-family:'Helvetica';font-size:49.99px;fill:#000000" text-anchor="middle">1996</text>
	<line x1="1589.96" y1="1960.52" x2="1589.96" y2="1995.92" style="stroke:#000000;stroke-width:4.00"/>
	<text x="1589.96" y="2048.56" style="font-family:'Helvetica';font-size:49.99px;fill:#000000" text-anchor="middle">2001</text>
	<line x1="1823.54" y1="1960.52" x2="1823.54" y2="1995.92" style="stroke:#000000;stroke-width:4.00"/>
	<text x="1823.54" y="2048.56" style="font-family:'Helvetica';font-size:49.99px;fill:#000000" text-anchor="middle">2006</text>
	<line x1="2057.21" y1="1960.52" x2="2057.21" y2="1995.92" style="stroke:#000000;stroke-width:4.00"/>
	<text x="2057.21" y="2048.56" style="font-family:'Helvetica';font-size:49.99px;fill:#000000" text-anchor="middle">2011</text>
	<line x1="2290.79" y1="1960.52" x2="2290.79" y2="1995.92" style="stroke:#000000;stroke-width:4.00"/>
	<text x="2290.79" y="2048.56" style="font-family:'Helvetica';font-size:49.99px;fill:#000000" text-anchor="middle">2016</text>
	<line x1="421.81" y1="1960.52" x2="2290.79" y2="1960.52" style="stroke:#000000;stroke-width:4.00"/>
	<text x="1318.03" y="2190.96" style="font-family:'Helvetica';font-size:60.03px;fill:#000000" text-anchor="middle">Year</text>
	<text x="145.41" y="2396.65" style="font-family:'Helvetica';font-size:60.03px;fill:#000000">Arr. cohort: </text>
	<text x="536.36" y="2396.65" style="font-family:'Helvetica';font-size:60.03px;fill:#000000">1964-73</text>
	<text x="845.12" y="2396.65" style="font-family:'Helvetica';font-size:60.03px;fill:#000000">1974-83</text>
	<text x="1153.89" y="2396.65" style="font-family:'Helvetica';font-size:60.03px;fill:#000000">1984-93</text>
	<text x="1462.65" y="2396.65" style="font-family:'Helvetica';font-size:60.03px;fill:#000000">1994-03</text>
	<text x="1771.41" y="2396.65" style="font-family:'Helvetica';font-size:60.03px;fill:#000000">2004-10</text>
	<text x="2080.17" y="2396.65" style="font-family:'Helvetica';font-size:60.03px;fill:#000000">German</text>
	<line x1="536.36" y1="2320.61" x2="737.26" y2="2320.61" style="stroke:#E69F00;stroke-width:10.00"/>
	<line x1="845.12" y1="2320.61" x2="1046.02" y2="2320.61" style="stroke:#56B4E9;stroke-width:10.00"/>
	<line x1="1153.89" y1="2320.61" x2="1354.78" y2="2320.61" style="stroke:#009E73;stroke-width:10.00"/>
	<line x1="1462.65" y1="2320.61" x2="1663.54" y2="2320.61" style="stroke:#D55E00;stroke-width:10.00"/>
	<line x1="1771.41" y1="2320.61" x2="1972.30" y2="2320.61" style="stroke:#CC79A7;stroke-width:10.00"/>
	<line x1="2080.17" y1="2320.61" x2="2131.19" y2="2320.61" style="stroke:#A0A0A0;stroke-width:10.00"/>
	<line x1="2156.70" y1="2320.61" x2="2207.72" y2="2320.61" style="stroke:#A0A0A0;stroke-width:10.00"/>
	<line x1="2233.23" y1="2320.61" x2="2278.03" y2="2320.61" style="stroke:#A0A0A0;stroke-width:10.00"/>
	<text x="1356.30" y="239.12" style="font-family:'Helvetica';font-size:60.03px;fill:#000000" text-anchor="middle">Means</text>
	<text x="1356.30" y="154.88" style="font-family:'Helvetica';font-size:90.01px;fill:#000000" text-anchor="middle">Weekly working hours (actual), Women</text>
</svg>
