<?xml version="1.0" encoding="UTF-8" standalone="no"?>
<!-- This is a Stata 15.1 generated SVG file (http://www.stata.com) -->

<svg version="1.1" width="3.54in" height="3.54in" viewBox="0 0 2551 2551" xmlns="http://www.w3.org/2000/svg" xmlns:xlink="http://www.w3.org/1999/xlink">
	<desc>Stata Graph - Graph</desc>
	<rect x="0" y="0" width="2551" height="2551" style="fill:#FFFFFF;stroke:none"/>
	<rect x="0.00" y="0.08" width="2551.00" height="2550.92" style="fill:#FFFFFF"/>
	<rect x="2.55" y="2.63" width="2545.90" height="2545.82" style="fill:none;stroke:#FFFFFF;stroke-width:5.10"/>
	<line x1="365.68" y1="1865.82" x2="2346.91" y2="1865.82" style="stroke:#E8E8E8;stroke-width:4.00"/>
	<line x1="365.68" y1="1565.52" x2="2346.91" y2="1565.52" style="stroke:#E8E8E8;stroke-width:4.00"/>
	<line x1="365.68" y1="1265.22" x2="2346.91" y2="1265.22" style="stroke:#E8E8E8;stroke-width:4.00"/>
	<line x1="365.68" y1="964.92" x2="2346.91" y2="964.92" style="stroke:#E8E8E8;stroke-width:4.00"/>
	<line x1="365.68" y1="664.62" x2="2346.91" y2="664.62" style="stroke:#E8E8E8;stroke-width:4.00"/>
	<line x1="365.68" y1="364.31" x2="2346.91" y2="364.31" style="stroke:#E8E8E8;stroke-width:4.00"/>
	<line x1="421.81" y1="1921.94" x2="421.81" y2="308.19" style="stroke:#E8E8E8;stroke-width:4.00"/>
	<line x1="655.39" y1="1921.94" x2="655.39" y2="308.19" style="stroke:#E8E8E8;stroke-width:4.00"/>
	<line x1="889.05" y1="1921.94" x2="889.05" y2="308.19" style="stroke:#E8E8E8;stroke-width:4.00"/>
	<line x1="1122.71" y1="1921.94" x2="1122.71" y2="308.19" style="stroke:#E8E8E8;stroke-width:4.00"/>
	<line x1="1356.30" y1="1921.94" x2="1356.30" y2="308.19" style="stroke:#E8E8E8;stroke-width:4.00"/>
	<line x1="1589.96" y1="1921.94" x2="1589.96" y2="308.19" style="stroke:#E8E8E8;stroke-width:4.00"/>
	<line x1="1823.54" y1="1921.94" x2="1823.54" y2="308.19" style="stroke:#E8E8E8;stroke-width:4.00"/>
	<line x1="2057.21" y1="1921.94" x2="2057.21" y2="308.19" style="stroke:#E8E8E8;stroke-width:4.00"/>
	<line x1="2290.79" y1="1921.94" x2="2290.79" y2="308.19" style="stroke:#E8E8E8;stroke-width:4.00"/>
	<line x1="421.73" y1="762.11" x2="515.24" y2="767.85" stroke-linecap="round" style="stroke:#E69F00;stroke-width:10.00"/>
	<line x1="515.24" y1="767.85" x2="608.67" y2="782.92" stroke-linecap="round" style="stroke:#E69F00;stroke-width:10.00"/>
	<line x1="608.67" y1="782.92" x2="702.10" y2="881.37" stroke-linecap="round" style="stroke:#E69F00;stroke-width:10.00"/>
	<line x1="702.10" y1="881.37" x2="842.25" y2="827.24" stroke-linecap="round" style="stroke:#E69F00;stroke-width:10.00"/>
	<line x1="842.25" y1="827.24" x2="935.77" y2="834.74" stroke-linecap="round" style="stroke:#E69F00;stroke-width:10.00"/>
	<line x1="935.77" y1="834.74" x2="1029.20" y2="880.33" stroke-linecap="round" style="stroke:#E69F00;stroke-width:10.00"/>
	<line x1="1029.20" y1="880.33" x2="1122.63" y2="949.21" stroke-linecap="round" style="stroke:#E69F00;stroke-width:10.00"/>
	<line x1="1122.63" y1="949.21" x2="1216.07" y2="1023.51" stroke-linecap="round" style="stroke:#E69F00;stroke-width:10.00"/>
	<line x1="1216.07" y1="1023.51" x2="1309.50" y2="1010.99" stroke-linecap="round" style="stroke:#E69F00;stroke-width:10.00"/>
	<line x1="1309.50" y1="1010.99" x2="1356.30" y2="1031.72" stroke-linecap="round" style="stroke:#E69F00;stroke-width:10.00"/>
	<line x1="1356.30" y1="1031.72" x2="1403.01" y2="1118.77" stroke-linecap="round" style="stroke:#E69F00;stroke-width:10.00"/>
	<line x1="1403.01" y1="1118.77" x2="1449.73" y2="1098.29" stroke-linecap="round" style="stroke:#E69F00;stroke-width:10.00"/>
	<line x1="1449.73" y1="1098.29" x2="1496.45" y2="1159.27" stroke-linecap="round" style="stroke:#E69F00;stroke-width:10.00"/>
	<line x1="1496.45" y1="1159.27" x2="1543.16" y2="1073.81" stroke-linecap="round" style="stroke:#E69F00;stroke-width:10.00"/>
	<line x1="1543.16" y1="1073.81" x2="1589.88" y2="1157.36" stroke-linecap="round" style="stroke:#E69F00;stroke-width:10.00"/>
	<line x1="1589.88" y1="1157.36" x2="1636.60" y2="1177.05" stroke-linecap="round" style="stroke:#E69F00;stroke-width:10.00"/>
	<line x1="1636.60" y1="1177.05" x2="1683.31" y2="1170.19" stroke-linecap="round" style="stroke:#E69F00;stroke-width:10.00"/>
	<line x1="842.25" y1="887.11" x2="935.77" y2="986.36" stroke-linecap="round" style="stroke:#56B4E9;stroke-width:10.00"/>
	<line x1="935.77" y1="986.36" x2="1029.20" y2="1030.92" stroke-linecap="round" style="stroke:#56B4E9;stroke-width:10.00"/>
	<line x1="1029.20" y1="1030.92" x2="1122.63" y2="1137.75" stroke-linecap="round" style="stroke:#56B4E9;stroke-width:10.00"/>
	<line x1="1122.63" y1="1137.75" x2="1216.07" y2="1155.36" stroke-linecap="round" style="stroke:#56B4E9;stroke-width:10.00"/>
	<line x1="1216.07" y1="1155.36" x2="1309.50" y2="1211.17" stroke-linecap="round" style="stroke:#56B4E9;stroke-width:10.00"/>
	<line x1="1309.50" y1="1211.17" x2="1356.30" y2="1161.90" stroke-linecap="round" style="stroke:#56B4E9;stroke-width:10.00"/>
	<line x1="1356.30" y1="1161.90" x2="1403.01" y2="1240.34" stroke-linecap="round" style="stroke:#56B4E9;stroke-width:10.00"/>
	<line x1="1403.01" y1="1240.34" x2="1449.73" y2="1160.47" stroke-linecap="round" style="stroke:#56B4E9;stroke-width:10.00"/>
	<line x1="1449.73" y1="1160.47" x2="1496.45" y2="1308.74" stroke-linecap="round" style="stroke:#56B4E9;stroke-width:10.00"/>
	<line x1="1496.45" y1="1308.74" x2="1543.16" y2="1231.89" stroke-linecap="round" style="stroke:#56B4E9;stroke-width:10.00"/>
	<line x1="1543.16" y1="1231.89" x2="1589.88" y2="1357.69" stroke-linecap="round" style="stroke:#56B4E9;stroke-width:10.00"/>
	<line x1="1589.88" y1="1357.69" x2="1636.60" y2="1276.78" stroke-linecap="round" style="stroke:#56B4E9;stroke-width:10.00"/>
	<line x1="1636.60" y1="1276.78" x2="1683.31" y2="1268.88" stroke-linecap="round" style="stroke:#56B4E9;stroke-width:10.00"/>
	<line x1="1683.31" y1="1268.88" x2="1730.03" y2="1289.05" stroke-linecap="round" style="stroke:#56B4E9;stroke-width:10.00"/>
	<line x1="1730.03" y1="1289.05" x2="1776.75" y2="1260.03" stroke-linecap="round" style="stroke:#56B4E9;stroke-width:10.00"/>
	<line x1="1776.75" y1="1260.03" x2="1823.54" y2="1409.75" stroke-linecap="round" style="stroke:#56B4E9;stroke-width:10.00"/>
	<line x1="1823.54" y1="1409.75" x2="1870.26" y2="1371.72" stroke-linecap="round" style="stroke:#56B4E9;stroke-width:10.00"/>
	<line x1="1870.26" y1="1371.72" x2="1916.98" y2="1300.13" stroke-linecap="round" style="stroke:#56B4E9;stroke-width:10.00"/>
	<line x1="1916.98" y1="1300.13" x2="1963.69" y2="1444.11" stroke-linecap="round" style="stroke:#56B4E9;stroke-width:10.00"/>
	<line x1="1963.69" y1="1444.11" x2="2010.41" y2="1356.73" stroke-linecap="round" style="stroke:#56B4E9;stroke-width:10.00"/>
	<line x1="2010.41" y1="1356.73" x2="2057.13" y2="1365.34" stroke-linecap="round" style="stroke:#56B4E9;stroke-width:10.00"/>
	<line x1="2057.13" y1="1365.34" x2="2103.84" y2="1416.44" stroke-linecap="round" style="stroke:#56B4E9;stroke-width:10.00"/>
	<line x1="1309.50" y1="1180.24" x2="1356.30" y2="1253.74" stroke-linecap="round" style="stroke:#009E73;stroke-width:10.00"/>
	<line x1="1356.30" y1="1253.74" x2="1403.01" y2="1275.02" stroke-linecap="round" style="stroke:#009E73;stroke-width:10.00"/>
	<line x1="1403.01" y1="1275.02" x2="1449.73" y2="1316.16" stroke-linecap="round" style="stroke:#009E73;stroke-width:10.00"/>
	<line x1="1449.73" y1="1316.16" x2="1496.45" y2="1346.05" stroke-linecap="round" style="stroke:#009E73;stroke-width:10.00"/>
	<line x1="1496.45" y1="1346.05" x2="1543.16" y2="1301.81" stroke-linecap="round" style="stroke:#009E73;stroke-width:10.00"/>
	<line x1="1543.16" y1="1301.81" x2="1589.88" y2="1368.77" stroke-linecap="round" style="stroke:#009E73;stroke-width:10.00"/>
	<line x1="1589.88" y1="1368.77" x2="1636.60" y2="1402.97" stroke-linecap="round" style="stroke:#009E73;stroke-width:10.00"/>
	<line x1="1636.60" y1="1402.97" x2="1683.31" y2="1423.46" stroke-linecap="round" style="stroke:#009E73;stroke-width:10.00"/>
	<line x1="1683.31" y1="1423.46" x2="1730.03" y2="1489.07" stroke-linecap="round" style="stroke:#009E73;stroke-width:10.00"/>
	<line x1="1730.03" y1="1489.07" x2="1776.75" y2="1500.86" stroke-linecap="round" style="stroke:#009E73;stroke-width:10.00"/>
	<line x1="1776.75" y1="1500.86" x2="1823.54" y2="1444.98" stroke-linecap="round" style="stroke:#009E73;stroke-width:10.00"/>
	<line x1="1823.54" y1="1444.98" x2="1870.26" y2="1489.78" stroke-linecap="round" style="stroke:#009E73;stroke-width:10.00"/>
	<line x1="1870.26" y1="1489.78" x2="1916.98" y2="1476.23" stroke-linecap="round" style="stroke:#009E73;stroke-width:10.00"/>
	<line x1="1916.98" y1="1476.23" x2="1963.69" y2="1522.79" stroke-linecap="round" style="stroke:#009E73;stroke-width:10.00"/>
	<line x1="1963.69" y1="1522.79" x2="2010.41" y2="1472.80" stroke-linecap="round" style="stroke:#009E73;stroke-width:10.00"/>
	<line x1="2010.41" y1="1472.80" x2="2057.13" y2="1445.14" stroke-linecap="round" style="stroke:#009E73;stroke-width:10.00"/>
	<line x1="2057.13" y1="1445.14" x2="2103.84" y2="1466.03" stroke-linecap="round" style="stroke:#009E73;stroke-width:10.00"/>
	<line x1="2103.84" y1="1466.03" x2="2150.56" y2="1494.57" stroke-linecap="round" style="stroke:#009E73;stroke-width:10.00"/>
	<line x1="2150.56" y1="1494.57" x2="2197.28" y2="1440.04" stroke-linecap="round" style="stroke:#009E73;stroke-width:10.00"/>
	<line x1="2197.28" y1="1440.04" x2="2243.99" y2="1434.38" stroke-linecap="round" style="stroke:#009E73;stroke-width:10.00"/>
	<line x1="1730.03" y1="1371.48" x2="1776.75" y2="1443.23" stroke-linecap="round" style="stroke:#D55E00;stroke-width:10.00"/>
	<line x1="1776.75" y1="1443.23" x2="1823.54" y2="1510.03" stroke-linecap="round" style="stroke:#D55E00;stroke-width:10.00"/>
	<line x1="1823.54" y1="1510.03" x2="1823.54" y2="1510.03" stroke-linecap="round" style="stroke:#D55E00;stroke-width:10.00"/>
	<line x1="1823.54" y1="1510.03" x2="1870.26" y2="1518.40" stroke-linecap="round" style="stroke:#D55E00;stroke-width:10.00"/>
	<line x1="1870.26" y1="1518.40" x2="1870.26" y2="1518.40" stroke-linecap="round" style="stroke:#D55E00;stroke-width:10.00"/>
	<line x1="1870.26" y1="1518.40" x2="1916.98" y2="1507.16" stroke-linecap="round" style="stroke:#D55E00;stroke-width:10.00"/>
	<line x1="1916.98" y1="1507.16" x2="1963.69" y2="1525.66" stroke-linecap="round" style="stroke:#D55E00;stroke-width:10.00"/>
	<line x1="1963.69" y1="1525.66" x2="1963.69" y2="1525.66" stroke-linecap="round" style="stroke:#D55E00;stroke-width:10.00"/>
	<line x1="1963.69" y1="1525.66" x2="2010.41" y2="1504.05" stroke-linecap="round" style="stroke:#D55E00;stroke-width:10.00"/>
	<line x1="2010.41" y1="1504.05" x2="2057.13" y2="1514.74" stroke-linecap="round" style="stroke:#D55E00;stroke-width:10.00"/>
	<line x1="2057.13" y1="1514.74" x2="2057.13" y2="1514.74" stroke-linecap="round" style="stroke:#D55E00;stroke-width:10.00"/>
	<line x1="2057.13" y1="1514.74" x2="2103.84" y2="1535.14" stroke-linecap="round" style="stroke:#D55E00;stroke-width:10.00"/>
	<line x1="2103.84" y1="1535.14" x2="2150.56" y2="1528.61" stroke-linecap="round" style="stroke:#D55E00;stroke-width:10.00"/>
	<line x1="2150.56" y1="1528.61" x2="2197.28" y2="1509.00" stroke-linecap="round" style="stroke:#D55E00;stroke-width:10.00"/>
	<line x1="2197.28" y1="1509.00" x2="2243.99" y2="1527.73" stroke-linecap="round" style="stroke:#D55E00;stroke-width:10.00"/>
	<line x1="2057.13" y1="1354.90" x2="2057.13" y2="1354.90" stroke-linecap="round" style="stroke:#CC79A7;stroke-width:10.00"/>
	<line x1="2057.13" y1="1354.90" x2="2103.84" y2="1438.84" stroke-linecap="round" style="stroke:#CC79A7;stroke-width:10.00"/>
	<line x1="2103.84" y1="1438.84" x2="2150.56" y2="1371.00" stroke-linecap="round" style="stroke:#CC79A7;stroke-width:10.00"/>
	<line x1="2150.56" y1="1371.00" x2="2197.28" y2="1373.87" stroke-linecap="round" style="stroke:#CC79A7;stroke-width:10.00"/>
	<line x1="2197.28" y1="1373.87" x2="2243.99" y2="1400.82" stroke-linecap="round" style="stroke:#CC79A7;stroke-width:10.00"/>
	<line x1="421.73" y1="950.81" x2="471.15" y2="963.48" style="stroke:#A0A0A0;stroke-width:10.00"/>
	<line x1="495.87" y1="969.78" x2="515.24" y2="974.72" style="stroke:#A0A0A0;stroke-width:10.00"/>
	<line x1="515.24" y1="974.72" x2="545.93" y2="979.03" style="stroke:#A0A0A0;stroke-width:10.00"/>
	<line x1="571.20" y1="982.61" x2="608.67" y2="987.87" style="stroke:#A0A0A0;stroke-width:10.00"/>
	<line x1="608.67" y1="987.87" x2="620.55" y2="993.53" style="stroke:#A0A0A0;stroke-width:10.00"/>
	<line x1="643.59" y1="1004.62" x2="689.59" y2="1026.70" style="stroke:#A0A0A0;stroke-width:10.00"/>
	<line x1="713.51" y1="1030.29" x2="763.41" y2="1019.60" style="stroke:#A0A0A0;stroke-width:10.00"/>
	<line x1="788.36" y1="1014.34" x2="838.27" y2="1003.74" style="stroke:#A0A0A0;stroke-width:10.00"/>
	<line x1="863.14" y1="1007.49" x2="913.05" y2="1018.49" style="stroke:#A0A0A0;stroke-width:10.00"/>
	<line x1="937.92" y1="1024.15" x2="986.87" y2="1038.34" style="stroke:#A0A0A0;stroke-width:10.00"/>
	<line x1="1011.34" y1="1045.51" x2="1029.20" y2="1050.69" style="stroke:#A0A0A0;stroke-width:10.00"/>
	<line x1="1029.20" y1="1050.69" x2="1053.99" y2="1071.58" style="stroke:#A0A0A0;stroke-width:10.00"/>
	<line x1="1073.61" y1="1088.00" x2="1112.67" y2="1120.77" style="stroke:#A0A0A0;stroke-width:10.00"/>
	<line x1="1134.67" y1="1132.64" x2="1183.62" y2="1146.91" style="stroke:#A0A0A0;stroke-width:10.00"/>
	<line x1="1208.10" y1="1154.01" x2="1216.07" y2="1156.32" style="stroke:#A0A0A0;stroke-width:10.00"/>
	<line x1="1216.07" y1="1156.32" x2="1258.64" y2="1160.15" style="stroke:#A0A0A0;stroke-width:10.00"/>
	<line x1="1284.07" y1="1162.46" x2="1309.50" y2="1164.77" style="stroke:#A0A0A0;stroke-width:10.00"/>
	<line x1="1309.50" y1="1164.77" x2="1334.69" y2="1168.28" style="stroke:#A0A0A0;stroke-width:10.00"/>
	<line x1="1359.88" y1="1172.34" x2="1403.01" y2="1186.14" style="stroke:#A0A0A0;stroke-width:10.00"/>
	<line x1="1403.01" y1="1186.14" x2="1408.51" y2="1187.65" style="stroke:#A0A0A0;stroke-width:10.00"/>
	<line x1="1433.15" y1="1194.27" x2="1449.73" y2="1198.73" style="stroke:#A0A0A0;stroke-width:10.00"/>
	<line x1="1449.73" y1="1198.73" x2="1480.42" y2="1213.00" style="stroke:#A0A0A0;stroke-width:10.00"/>
	<line x1="1504.26" y1="1221.29" x2="1543.16" y2="1225.28" style="stroke:#A0A0A0;stroke-width:10.00"/>
	<line x1="1543.16" y1="1225.28" x2="1554.56" y2="1228.71" style="stroke:#A0A0A0;stroke-width:10.00"/>
	<line x1="1578.96" y1="1236.12" x2="1589.88" y2="1239.39" style="stroke:#A0A0A0;stroke-width:10.00"/>
	<line x1="1589.88" y1="1239.39" x2="1628.31" y2="1249.11" style="stroke:#A0A0A0;stroke-width:10.00"/>
	<line x1="1652.62" y1="1256.85" x2="1683.31" y2="1267.69" style="stroke:#A0A0A0;stroke-width:10.00"/>
	<line x1="1683.31" y1="1267.69" x2="1701.73" y2="1267.61" style="stroke:#A0A0A0;stroke-width:10.00"/>
	<line x1="1727.24" y1="1267.53" x2="1730.03" y2="1267.53" style="stroke:#A0A0A0;stroke-width:10.00"/>
	<line x1="1730.03" y1="1267.53" x2="1776.75" y2="1269.04" style="stroke:#A0A0A0;stroke-width:10.00"/>
	<line x1="1776.75" y1="1269.04" x2="1777.86" y2="1270.00" style="stroke:#A0A0A0;stroke-width:10.00"/>
	<line x1="1797.40" y1="1286.34" x2="1823.54" y2="1308.18" style="stroke:#A0A0A0;stroke-width:10.00"/>
	<line x1="1823.54" y1="1308.18" x2="1840.05" y2="1304.12" style="stroke:#A0A0A0;stroke-width:10.00"/>
	<line x1="1864.84" y1="1298.14" x2="1870.26" y2="1296.78" style="stroke:#A0A0A0;stroke-width:10.00"/>
	<line x1="1870.26" y1="1296.78" x2="1914.43" y2="1286.10" style="stroke:#A0A0A0;stroke-width:10.00"/>
	<line x1="1938.82" y1="1292.08" x2="1963.69" y2="1299.65" style="stroke:#A0A0A0;stroke-width:10.00"/>
	<line x1="1963.69" y1="1299.65" x2="1988.09" y2="1293.84" style="stroke:#A0A0A0;stroke-width:10.00"/>
	<line x1="2012.80" y1="1287.70" x2="2057.13" y2="1271.27" style="stroke:#A0A0A0;stroke-width:10.00"/>
	<line x1="2057.13" y1="1271.27" x2="2060.95" y2="1271.12" style="stroke:#A0A0A0;stroke-width:10.00"/>
	<line x1="2086.38" y1="1270.16" x2="2103.84" y2="1269.52" style="stroke:#A0A0A0;stroke-width:10.00"/>
	<line x1="2103.84" y1="1269.52" x2="2137.41" y2="1268.33" style="stroke:#A0A0A0;stroke-width:10.00"/>
	<line x1="2162.36" y1="1264.34" x2="2197.28" y2="1254.06" style="stroke:#A0A0A0;stroke-width:10.00"/>
	<line x1="2197.28" y1="1254.06" x2="2211.31" y2="1249.99" style="stroke:#A0A0A0;stroke-width:10.00"/>
	<line x1="2235.78" y1="1242.74" x2="2243.99" y2="1240.34" style="stroke:#A0A0A0;stroke-width:10.00"/>
	<line x1="1122.63" y1="803.57" x2="1138.66" y2="790.97" style="stroke:#A0A0A0;stroke-width:10.00"/>
	<line x1="1154.76" y1="778.37" x2="1156.76" y2="776.78" style="stroke:#A0A0A0;stroke-width:10.00"/>
	<line x1="1172.86" y1="764.26" x2="1188.88" y2="751.67" style="stroke:#A0A0A0;stroke-width:10.00"/>
	<line x1="1204.99" y1="739.07" x2="1206.98" y2="737.48" style="stroke:#A0A0A0;stroke-width:10.00"/>
	<line x1="1223.88" y1="734.61" x2="1241.82" y2="744.25" style="stroke:#A0A0A0;stroke-width:10.00"/>
	<line x1="1259.83" y1="753.90" x2="1262.07" y2="755.10" style="stroke:#A0A0A0;stroke-width:10.00"/>
	<line x1="1280.00" y1="764.82" x2="1298.02" y2="774.47" style="stroke:#A0A0A0;stroke-width:10.00"/>
	<line x1="1316.76" y1="780.05" x2="1319.31" y2="779.89" style="stroke:#A0A0A0;stroke-width:10.00"/>
	<line x1="1339.64" y1="778.13" x2="1356.30" y2="776.78" style="stroke:#A0A0A0;stroke-width:10.00"/>
	<line x1="1356.30" y1="776.78" x2="1359.73" y2="778.21" style="stroke:#A0A0A0;stroke-width:10.00"/>
	<line x1="1378.38" y1="786.51" x2="1380.69" y2="787.54" style="stroke:#A0A0A0;stroke-width:10.00"/>
	<line x1="1399.43" y1="795.75" x2="1403.01" y2="797.35" style="stroke:#A0A0A0;stroke-width:10.00"/>
	<line x1="1403.01" y1="797.35" x2="1417.44" y2="805.32" style="stroke:#A0A0A0;stroke-width:10.00"/>
	<line x1="1435.30" y1="815.12" x2="1437.53" y2="816.32" style="stroke:#A0A0A0;stroke-width:10.00"/>
	<line x1="1456.19" y1="823.81" x2="1476.44" y2="825.97" style="stroke:#A0A0A0;stroke-width:10.00"/>
	<line x1="1496.77" y1="828.20" x2="1499.24" y2="828.84" style="stroke:#A0A0A0;stroke-width:10.00"/>
	<line x1="1519.09" y1="833.54" x2="1538.94" y2="838.16" style="stroke:#A0A0A0;stroke-width:10.00"/>
	<line x1="1557.04" y1="847.25" x2="1559.19" y2="848.61" style="stroke:#A0A0A0;stroke-width:10.00"/>
	<line x1="1576.81" y1="858.89" x2="1589.88" y2="866.46" style="stroke:#A0A0A0;stroke-width:10.00"/>
	<line x1="1589.88" y1="866.46" x2="1594.98" y2="867.82" style="stroke:#A0A0A0;stroke-width:10.00"/>
	<line x1="1614.75" y1="873.08" x2="1617.23" y2="873.80" style="stroke:#A0A0A0;stroke-width:10.00"/>
	<line x1="1636.84" y1="879.14" x2="1653.26" y2="891.26" style="stroke:#A0A0A0;stroke-width:10.00"/>
	<line x1="1669.68" y1="903.37" x2="1671.67" y2="904.89" style="stroke:#A0A0A0;stroke-width:10.00"/>
	<line x1="1689.05" y1="915.01" x2="1708.82" y2="920.35" style="stroke:#A0A0A0;stroke-width:10.00"/>
	<line x1="1728.52" y1="925.61" x2="1730.03" y2="926.01" style="stroke:#A0A0A0;stroke-width:10.00"/>
	<line x1="1730.03" y1="926.01" x2="1730.99" y2="926.25" style="stroke:#A0A0A0;stroke-width:10.00"/>
	<line x1="1750.76" y1="931.19" x2="1770.53" y2="936.14" style="stroke:#A0A0A0;stroke-width:10.00"/>
	<line x1="1787.83" y1="946.26" x2="1789.82" y2="947.86" style="stroke:#A0A0A0;stroke-width:10.00"/>
	<line x1="1806.01" y1="960.29" x2="1822.19" y2="972.73" style="stroke:#A0A0A0;stroke-width:10.00"/>
	<line x1="1841.96" y1="976.71" x2="1844.51" y2="977.03" style="stroke:#A0A0A0;stroke-width:10.00"/>
	<line x1="1864.68" y1="980.22" x2="1870.26" y2="981.10" style="stroke:#A0A0A0;stroke-width:10.00"/>
	<line x1="1870.26" y1="981.10" x2="1884.53" y2="984.85" style="stroke:#A0A0A0;stroke-width:10.00"/>
	<line x1="1904.30" y1="989.95" x2="1906.77" y2="990.59" style="stroke:#A0A0A0;stroke-width:10.00"/>
	<line x1="1926.54" y1="995.53" x2="1946.47" y2="1000.15" style="stroke:#A0A0A0;stroke-width:10.00"/>
	<line x1="1966.32" y1="1003.82" x2="1968.88" y2="1003.50" style="stroke:#A0A0A0;stroke-width:10.00"/>
	<line x1="1989.12" y1="1000.87" x2="2009.37" y2="998.24" style="stroke:#A0A0A0;stroke-width:10.00"/>
	<line x1="2029.70" y1="996.56" x2="2032.25" y2="996.40" style="stroke:#A0A0A0;stroke-width:10.00"/>
	<line x1="2052.58" y1="994.73" x2="2057.13" y2="994.33" style="stroke:#A0A0A0;stroke-width:10.00"/>
	<line x1="2057.13" y1="994.33" x2="2072.99" y2="994.09" style="stroke:#A0A0A0;stroke-width:10.00"/>
	<line x1="2093.40" y1="993.69" x2="2095.95" y2="993.69" style="stroke:#A0A0A0;stroke-width:10.00"/>
	<line x1="2116.28" y1="994.65" x2="2136.61" y2="996.56" style="stroke:#A0A0A0;stroke-width:10.00"/>
	<line x1="2156.78" y1="996.32" x2="2159.25" y2="995.69" style="stroke:#A0A0A0;stroke-width:10.00"/>
	<line x1="2179.02" y1="990.90" x2="2197.28" y2="986.44" style="stroke:#A0A0A0;stroke-width:10.00"/>
	<line x1="2197.28" y1="986.44" x2="2198.87" y2="986.76" style="stroke:#A0A0A0;stroke-width:10.00"/>
	<line x1="2218.96" y1="990.27" x2="2221.51" y2="990.74" style="stroke:#A0A0A0;stroke-width:10.00"/>
	<line x1="2241.60" y1="994.33" x2="2243.99" y2="994.73" style="stroke:#A0A0A0;stroke-width:10.00"/>
	<line x1="365.68" y1="1865.82" x2="330.29" y2="1865.82" style="stroke:#000000;stroke-width:4.00"/>
	<text x="312.51" y="1883.33" style="font-family:'Helvetica';font-size:49.99px;fill:#000000" text-anchor="end">20</text>
	<line x1="365.68" y1="1565.52" x2="330.29" y2="1565.52" style="stroke:#000000;stroke-width:4.00"/>
	<text x="312.51" y="1583.03" style="font-family:'Helvetica';font-size:49.99px;fill:#000000" text-anchor="end">25</text>
	<line x1="365.68" y1="1265.22" x2="330.29" y2="1265.22" style="stroke:#000000;stroke-width:4.00"/>
	<text x="312.51" y="1282.73" style="font-family:'Helvetica';font-size:49.99px;fill:#000000" text-anchor="end">30</text>
	<line x1="365.68" y1="964.92" x2="330.29" y2="964.92" style="stroke:#000000;stroke-width:4.00"/>
	<text x="312.51" y="982.43" style="font-family:'Helvetica';font-size:49.99px;fill:#000000" text-anchor="end">35</text>
	<line x1="365.68" y1="664.62" x2="330.29" y2="664.62" style="stroke:#000000;stroke-width:4.00"/>
	<text x="312.51" y="682.13" style="font-family:'Helvetica';font-size:49.99px;fill:#000000" text-anchor="end">40</text>
	<line x1="365.68" y1="364.31" x2="330.29" y2="364.31" style="stroke:#000000;stroke-width:4.00"/>
	<text x="312.51" y="381.83" style="font-family:'Helvetica';font-size:49.99px;fill:#000000" text-anchor="end">45</text>
	<line x1="365.68" y1="1865.82" x2="365.68" y2="364.31" style="stroke:#000000;stroke-width:4.00"/>
	<text x="136.21" y="1076.84" style="font-family:'Helvetica';font-size:60.03px;fill:#000000" transform="rotate(-90 136.21,1076.84)" text-anchor="middle">Weekly working hours (actual)</text>
	<line x1="421.81" y1="1921.94" x2="421.81" y2="1957.33" style="stroke:#000000;stroke-width:4.00"/>
	<text x="421.81" y="2009.98" style="font-family:'Helvetica';font-size:49.99px;fill:#000000" text-anchor="middle">1976</text>
	<line x1="655.39" y1="1921.94" x2="655.39" y2="1957.33" style="stroke:#000000;stroke-width:4.00"/>
	<text x="655.39" y="2009.98" style="font-family:'Helvetica';font-size:49.99px;fill:#000000" text-anchor="middle">1981</text>
	<line x1="889.05" y1="1921.94" x2="889.05" y2="1957.33" style="stroke:#000000;stroke-width:4.00"/>
	<text x="889.05" y="2009.98" style="font-family:'Helvetica';font-size:49.99px;fill:#000000" text-anchor="middle">1986</text>
	<line x1="1122.71" y1="1921.94" x2="1122.71" y2="1957.33" style="stroke:#000000;stroke-width:4.00"/>
	<text x="1122.71" y="2009.98" style="font-family:'Helvetica';font-size:49.99px;fill:#000000" text-anchor="middle">1991</text>
	<line x1="1356.30" y1="1921.94" x2="1356.30" y2="1957.33" style="stroke:#000000;stroke-width:4.00"/>
	<text x="1356.30" y="2009.98" style="font-family:'Helvetica';font-size:49.99px;fill:#000000" text-anchor="middle">1996</text>
	<line x1="1589.96" y1="1921.94" x2="1589.96" y2="1957.33" style="stroke:#000000;stroke-width:4.00"/>
	<text x="1589.96" y="2009.98" style="font-family:'Helvetica';font-size:49.99px;fill:#000000" text-anchor="middle">2001</text>
	<line x1="1823.54" y1="1921.94" x2="1823.54" y2="1957.33" style="stroke:#000000;stroke-width:4.00"/>
	<text x="1823.54" y="2009.98" style="font-family:'Helvetica';font-size:49.99px;fill:#000000" text-anchor="middle">2006</text>
	<line x1="2057.21" y1="1921.94" x2="2057.21" y2="1957.33" style="stroke:#000000;stroke-width:4.00"/>
	<text x="2057.21" y="2009.98" style="font-family:'Helvetica';font-size:49.99px;fill:#000000" text-anchor="middle">2011</text>
	<line x1="2290.79" y1="1921.94" x2="2290.79" y2="1957.33" style="stroke:#000000;stroke-width:4.00"/>
	<text x="2290.79" y="2009.98" style="font-family:'Helvetica';font-size:49.99px;fill:#000000" text-anchor="middle">2016</text>
	<line x1="421.81" y1="1921.94" x2="2290.79" y2="1921.94" style="stroke:#000000;stroke-width:4.00"/>
	<text x="1318.03" y="2152.37" style="font-family:'Helvetica';font-size:60.03px;fill:#000000" text-anchor="middle">Year</text>
	<text x="145.41" y="2396.65" style="font-family:'Helvetica';font-size:60.03px;fill:#000000">Arr. cohort: </text>
	<text x="487.81" y="2396.65" style="font-family:'Helvetica';font-size:60.03px;fill:#000000">1964-73</text>
	<text x="758.23" y="2396.65" style="font-family:'Helvetica';font-size:60.03px;fill:#000000">1974-83</text>
	<text x="1028.72" y="2396.65" style="font-family:'Helvetica';font-size:60.03px;fill:#000000">1984-93</text>
	<text x="1299.14" y="2396.65" style="font-family:'Helvetica';font-size:60.03px;fill:#000000">1994-03</text>
	<text x="1569.55" y="2396.65" style="font-family:'Helvetica';font-size:60.03px;fill:#000000">2004-10</text>
	<text x="1840.05" y="2396.65" style="font-family:'Helvetica';font-size:60.03px;fill:#000000">West G.</text>
	<text x="2110.46" y="2396.65" style="font-family:'Helvetica';font-size:60.03px;fill:#000000">East G.</text>
	<line x1="487.81" y1="2301.32" x2="663.76" y2="2301.32" style="stroke:#E69F00;stroke-width:10.00"/>
	<line x1="758.23" y1="2301.32" x2="934.25" y2="2301.32" style="stroke:#56B4E9;stroke-width:10.00"/>
	<line x1="1028.72" y1="2301.32" x2="1204.67" y2="2301.32" style="stroke:#009E73;stroke-width:10.00"/>
	<line x1="1299.14" y1="2301.32" x2="1475.08" y2="2301.32" style="stroke:#D55E00;stroke-width:10.00"/>
	<line x1="1569.55" y1="2301.32" x2="1745.58" y2="2301.32" style="stroke:#CC79A7;stroke-width:10.00"/>
	<line x1="1840.05" y1="2301.32" x2="1891.07" y2="2301.32" style="stroke:#A0A0A0;stroke-width:10.00"/>
	<line x1="1916.58" y1="2301.32" x2="1967.60" y2="2301.32" style="stroke:#A0A0A0;stroke-width:10.00"/>
	<line x1="1993.11" y1="2301.32" x2="2015.99" y2="2301.32" style="stroke:#A0A0A0;stroke-width:10.00"/>
	<line x1="2110.46" y1="2301.32" x2="2130.87" y2="2301.32" style="stroke:#A0A0A0;stroke-width:10.00"/>
	<line x1="2151.28" y1="2301.32" x2="2153.83" y2="2301.32" style="stroke:#A0A0A0;stroke-width:10.00"/>
	<line x1="2174.24" y1="2301.32" x2="2194.65" y2="2301.32" style="stroke:#A0A0A0;stroke-width:10.00"/>
	<line x1="2215.05" y1="2301.32" x2="2217.61" y2="2301.32" style="stroke:#A0A0A0;stroke-width:10.00"/>
	<line x1="2238.01" y1="2301.32" x2="2258.42" y2="2301.32" style="stroke:#A0A0A0;stroke-width:10.00"/>
	<text x="1356.30" y="239.12" style="font-family:'Helvetica';font-size:60.03px;fill:#000000" text-anchor="middle">Means, including East Germany</text>
	<text x="1356.30" y="154.88" style="font-family:'Helvetica';font-size:90.01px;fill:#000000" text-anchor="middle">Weekly working hours (actual), Women</text>
</svg>
