<?xml version="1.0" encoding="UTF-8" standalone="no"?>
<!-- This is a Stata 15.1 generated SVG file (http://www.stata.com) -->

<svg version="1.1" width="3.54in" height="3.54in" viewBox="0 0 2551 2551" xmlns="http://www.w3.org/2000/svg" xmlns:xlink="http://www.w3.org/1999/xlink">
	<desc>Stata Graph - Graph</desc>
	<rect x="0" y="0" width="2551" height="2551" style="fill:#FFFFFF;stroke:none"/>
	<rect x="0.00" y="0.08" width="2551.00" height="2550.92" style="fill:#FFFFFF"/>
	<rect x="2.55" y="2.63" width="2545.90" height="2545.82" style="fill:none;stroke:#FFFFFF;stroke-width:5.10"/>
	<line x1="365.68" y1="1865.82" x2="2346.91" y2="1865.82" style="stroke:#E8E8E8;stroke-width:4.00"/>
	<line x1="365.68" y1="1543.28" x2="2346.91" y2="1543.28" style="stroke:#E8E8E8;stroke-width:4.00"/>
	<line x1="365.68" y1="1220.81" x2="2346.91" y2="1220.81" style="stroke:#E8E8E8;stroke-width:4.00"/>
	<line x1="365.68" y1="898.35" x2="2346.91" y2="898.35" style="stroke:#E8E8E8;stroke-width:4.00"/>
	<line x1="365.68" y1="575.81" x2="2346.91" y2="575.81" style="stroke:#E8E8E8;stroke-width:4.00"/>
	<line x1="365.68" y1="253.35" x2="2346.91" y2="253.35" style="stroke:#E8E8E8;stroke-width:4.00"/>
	<line x1="421.81" y1="1921.94" x2="421.81" y2="197.22" style="stroke:#E8E8E8;stroke-width:4.00"/>
	<line x1="613.45" y1="1921.94" x2="613.45" y2="197.22" style="stroke:#E8E8E8;stroke-width:4.00"/>
	<line x1="853.10" y1="1921.94" x2="853.10" y2="197.22" style="stroke:#E8E8E8;stroke-width:4.00"/>
	<line x1="1092.74" y1="1921.94" x2="1092.74" y2="197.22" style="stroke:#E8E8E8;stroke-width:4.00"/>
	<line x1="1332.30" y1="1921.94" x2="1332.30" y2="197.22" style="stroke:#E8E8E8;stroke-width:4.00"/>
	<line x1="1571.94" y1="1921.94" x2="1571.94" y2="197.22" style="stroke:#E8E8E8;stroke-width:4.00"/>
	<line x1="1811.59" y1="1921.94" x2="1811.59" y2="197.22" style="stroke:#E8E8E8;stroke-width:4.00"/>
	<line x1="2051.15" y1="1921.94" x2="2051.15" y2="197.22" style="stroke:#E8E8E8;stroke-width:4.00"/>
	<line x1="2290.79" y1="1921.94" x2="2290.79" y2="197.22" style="stroke:#E8E8E8;stroke-width:4.00"/>
	<line x1="421.73" y1="680.56" x2="517.63" y2="686.70" stroke-linecap="round" style="stroke:#E69F00;stroke-width:10.00"/>
	<line x1="517.63" y1="686.70" x2="613.45" y2="702.80" stroke-linecap="round" style="stroke:#E69F00;stroke-width:10.00"/>
	<line x1="613.45" y1="702.80" x2="709.28" y2="808.51" stroke-linecap="round" style="stroke:#E69F00;stroke-width:10.00"/>
	<line x1="709.28" y1="808.51" x2="853.10" y2="750.47" stroke-linecap="round" style="stroke:#E69F00;stroke-width:10.00"/>
	<line x1="853.10" y1="750.47" x2="948.92" y2="758.52" stroke-linecap="round" style="stroke:#E69F00;stroke-width:10.00"/>
	<line x1="948.92" y1="758.52" x2="1044.75" y2="807.47" stroke-linecap="round" style="stroke:#E69F00;stroke-width:10.00"/>
	<line x1="1044.75" y1="807.47" x2="1140.57" y2="882.09" stroke-linecap="round" style="stroke:#E69F00;stroke-width:10.00"/>
	<line x1="1140.57" y1="882.09" x2="1236.48" y2="961.97" stroke-linecap="round" style="stroke:#E69F00;stroke-width:10.00"/>
	<line x1="1236.48" y1="961.97" x2="1332.30" y2="951.20" stroke-linecap="round" style="stroke:#E69F00;stroke-width:10.00"/>
	<line x1="1332.30" y1="951.20" x2="1380.21" y2="971.29" stroke-linecap="round" style="stroke:#E69F00;stroke-width:10.00"/>
	<line x1="1380.21" y1="971.29" x2="1428.13" y2="1069.03" stroke-linecap="round" style="stroke:#E69F00;stroke-width:10.00"/>
	<line x1="1428.13" y1="1069.03" x2="1476.04" y2="1041.37" stroke-linecap="round" style="stroke:#E69F00;stroke-width:10.00"/>
	<line x1="1476.04" y1="1041.37" x2="1523.95" y2="1117.66" stroke-linecap="round" style="stroke:#E69F00;stroke-width:10.00"/>
	<line x1="1523.95" y1="1117.66" x2="1571.94" y2="1022.15" stroke-linecap="round" style="stroke:#E69F00;stroke-width:10.00"/>
	<line x1="1571.94" y1="1022.15" x2="1619.86" y2="1104.98" stroke-linecap="round" style="stroke:#E69F00;stroke-width:10.00"/>
	<line x1="1619.86" y1="1104.98" x2="1667.77" y2="1128.74" stroke-linecap="round" style="stroke:#E69F00;stroke-width:10.00"/>
	<line x1="1667.77" y1="1128.74" x2="1715.68" y2="1120.85" stroke-linecap="round" style="stroke:#E69F00;stroke-width:10.00"/>
	<line x1="853.10" y1="814.73" x2="948.92" y2="921.31" stroke-linecap="round" style="stroke:#56B4E9;stroke-width:10.00"/>
	<line x1="948.92" y1="921.31" x2="1044.75" y2="969.14" stroke-linecap="round" style="stroke:#56B4E9;stroke-width:10.00"/>
	<line x1="1044.75" y1="969.14" x2="1140.57" y2="1083.38" stroke-linecap="round" style="stroke:#56B4E9;stroke-width:10.00"/>
	<line x1="1140.57" y1="1083.38" x2="1236.48" y2="1108.97" stroke-linecap="round" style="stroke:#56B4E9;stroke-width:10.00"/>
	<line x1="1236.48" y1="1108.97" x2="1332.30" y2="1162.70" stroke-linecap="round" style="stroke:#56B4E9;stroke-width:10.00"/>
	<line x1="1332.30" y1="1162.70" x2="1380.21" y2="1109.68" stroke-linecap="round" style="stroke:#56B4E9;stroke-width:10.00"/>
	<line x1="1380.21" y1="1109.68" x2="1428.13" y2="1185.74" stroke-linecap="round" style="stroke:#56B4E9;stroke-width:10.00"/>
	<line x1="1428.13" y1="1185.74" x2="1476.04" y2="1110.24" stroke-linecap="round" style="stroke:#56B4E9;stroke-width:10.00"/>
	<line x1="1476.04" y1="1110.24" x2="1523.95" y2="1270.40" stroke-linecap="round" style="stroke:#56B4E9;stroke-width:10.00"/>
	<line x1="1523.95" y1="1270.40" x2="1571.94" y2="1183.50" stroke-linecap="round" style="stroke:#56B4E9;stroke-width:10.00"/>
	<line x1="1571.94" y1="1183.50" x2="1619.86" y2="1322.53" stroke-linecap="round" style="stroke:#56B4E9;stroke-width:10.00"/>
	<line x1="1619.86" y1="1322.53" x2="1667.77" y2="1241.14" stroke-linecap="round" style="stroke:#56B4E9;stroke-width:10.00"/>
	<line x1="1667.77" y1="1241.14" x2="1715.68" y2="1225.68" stroke-linecap="round" style="stroke:#56B4E9;stroke-width:10.00"/>
	<line x1="1715.68" y1="1225.68" x2="1763.59" y2="1243.29" stroke-linecap="round" style="stroke:#56B4E9;stroke-width:10.00"/>
	<line x1="1763.59" y1="1243.29" x2="1811.51" y2="1247.12" stroke-linecap="round" style="stroke:#56B4E9;stroke-width:10.00"/>
	<line x1="1811.51" y1="1247.12" x2="1859.42" y2="1395.08" stroke-linecap="round" style="stroke:#56B4E9;stroke-width:10.00"/>
	<line x1="1859.42" y1="1395.08" x2="1907.41" y2="1335.85" stroke-linecap="round" style="stroke:#56B4E9;stroke-width:10.00"/>
	<line x1="1907.41" y1="1335.85" x2="1955.32" y2="1248.48" stroke-linecap="round" style="stroke:#56B4E9;stroke-width:10.00"/>
	<line x1="1955.32" y1="1248.48" x2="2003.24" y2="1416.68" stroke-linecap="round" style="stroke:#56B4E9;stroke-width:10.00"/>
	<line x1="2003.24" y1="1416.68" x2="2051.15" y2="1303.80" stroke-linecap="round" style="stroke:#56B4E9;stroke-width:10.00"/>
	<line x1="2051.15" y1="1303.80" x2="2099.06" y2="1340.47" stroke-linecap="round" style="stroke:#56B4E9;stroke-width:10.00"/>
	<line x1="2099.06" y1="1340.47" x2="2146.97" y2="1387.90" stroke-linecap="round" style="stroke:#56B4E9;stroke-width:10.00"/>
	<line x1="1332.30" y1="1136.15" x2="1380.21" y2="1219.86" stroke-linecap="round" style="stroke:#009E73;stroke-width:10.00"/>
	<line x1="1380.21" y1="1219.86" x2="1428.13" y2="1245.69" stroke-linecap="round" style="stroke:#009E73;stroke-width:10.00"/>
	<line x1="1428.13" y1="1245.69" x2="1476.04" y2="1285.62" stroke-linecap="round" style="stroke:#009E73;stroke-width:10.00"/>
	<line x1="1476.04" y1="1285.62" x2="1523.95" y2="1318.47" stroke-linecap="round" style="stroke:#009E73;stroke-width:10.00"/>
	<line x1="1523.95" y1="1318.47" x2="1571.94" y2="1264.26" stroke-linecap="round" style="stroke:#009E73;stroke-width:10.00"/>
	<line x1="1571.94" y1="1264.26" x2="1619.86" y2="1353.62" stroke-linecap="round" style="stroke:#009E73;stroke-width:10.00"/>
	<line x1="1619.86" y1="1353.62" x2="1667.77" y2="1378.50" stroke-linecap="round" style="stroke:#009E73;stroke-width:10.00"/>
	<line x1="1667.77" y1="1378.50" x2="1715.68" y2="1410.54" stroke-linecap="round" style="stroke:#009E73;stroke-width:10.00"/>
	<line x1="1715.68" y1="1410.54" x2="1763.59" y2="1482.13" stroke-linecap="round" style="stroke:#009E73;stroke-width:10.00"/>
	<line x1="1763.59" y1="1482.13" x2="1811.51" y2="1496.88" stroke-linecap="round" style="stroke:#009E73;stroke-width:10.00"/>
	<line x1="1811.51" y1="1496.88" x2="1859.42" y2="1429.99" stroke-linecap="round" style="stroke:#009E73;stroke-width:10.00"/>
	<line x1="1859.42" y1="1429.99" x2="1907.41" y2="1474.08" stroke-linecap="round" style="stroke:#009E73;stroke-width:10.00"/>
	<line x1="1907.41" y1="1474.08" x2="1955.32" y2="1478.07" stroke-linecap="round" style="stroke:#009E73;stroke-width:10.00"/>
	<line x1="1955.32" y1="1478.07" x2="2003.24" y2="1539.77" stroke-linecap="round" style="stroke:#009E73;stroke-width:10.00"/>
	<line x1="2003.24" y1="1539.77" x2="2051.15" y2="1478.86" stroke-linecap="round" style="stroke:#009E73;stroke-width:10.00"/>
	<line x1="2051.15" y1="1478.86" x2="2099.06" y2="1427.20" stroke-linecap="round" style="stroke:#009E73;stroke-width:10.00"/>
	<line x1="2099.06" y1="1427.20" x2="2146.97" y2="1448.49" stroke-linecap="round" style="stroke:#009E73;stroke-width:10.00"/>
	<line x1="2146.97" y1="1448.49" x2="2194.89" y2="1472.96" stroke-linecap="round" style="stroke:#009E73;stroke-width:10.00"/>
	<line x1="2194.89" y1="1472.96" x2="2242.80" y2="1418.44" stroke-linecap="round" style="stroke:#009E73;stroke-width:10.00"/>
	<line x1="2242.80" y1="1418.44" x2="2290.79" y2="1406.08" stroke-linecap="round" style="stroke:#009E73;stroke-width:10.00"/>
	<line x1="1763.59" y1="1359.60" x2="1811.51" y2="1416.84" stroke-linecap="round" style="stroke:#D55E00;stroke-width:10.00"/>
	<line x1="1811.51" y1="1416.84" x2="1859.42" y2="1504.45" stroke-linecap="round" style="stroke:#D55E00;stroke-width:10.00"/>
	<line x1="1859.42" y1="1504.45" x2="1907.41" y2="1520.24" stroke-linecap="round" style="stroke:#D55E00;stroke-width:10.00"/>
	<line x1="1907.41" y1="1520.24" x2="1955.32" y2="1498.07" stroke-linecap="round" style="stroke:#D55E00;stroke-width:10.00"/>
	<line x1="1955.32" y1="1498.07" x2="2003.24" y2="1508.60" stroke-linecap="round" style="stroke:#D55E00;stroke-width:10.00"/>
	<line x1="2003.24" y1="1508.60" x2="2051.15" y2="1484.20" stroke-linecap="round" style="stroke:#D55E00;stroke-width:10.00"/>
	<line x1="2051.15" y1="1484.20" x2="2099.06" y2="1496.08" stroke-linecap="round" style="stroke:#D55E00;stroke-width:10.00"/>
	<line x1="2099.06" y1="1496.08" x2="2146.97" y2="1512.42" stroke-linecap="round" style="stroke:#D55E00;stroke-width:10.00"/>
	<line x1="2146.97" y1="1512.42" x2="2194.89" y2="1511.71" stroke-linecap="round" style="stroke:#D55E00;stroke-width:10.00"/>
	<line x1="2194.89" y1="1511.71" x2="2242.80" y2="1491.22" stroke-linecap="round" style="stroke:#D55E00;stroke-width:10.00"/>
	<line x1="2242.80" y1="1491.22" x2="2290.79" y2="1503.42" stroke-linecap="round" style="stroke:#D55E00;stroke-width:10.00"/>
	<line x1="2099.06" y1="1330.67" x2="2146.97" y2="1407.83" stroke-linecap="round" style="stroke:#CC79A7;stroke-width:10.00"/>
	<line x1="2146.97" y1="1407.83" x2="2194.89" y2="1341.99" stroke-linecap="round" style="stroke:#CC79A7;stroke-width:10.00"/>
	<line x1="2194.89" y1="1341.99" x2="2242.80" y2="1355.94" stroke-linecap="round" style="stroke:#CC79A7;stroke-width:10.00"/>
	<line x1="2242.80" y1="1355.94" x2="2290.79" y2="1378.66" stroke-linecap="round" style="stroke:#CC79A7;stroke-width:10.00"/>
	<line x1="421.73" y1="883.20" x2="470.99" y2="896.36" style="stroke:#A0A0A0;stroke-width:10.00"/>
	<line x1="495.63" y1="902.97" x2="517.63" y2="908.79" style="stroke:#A0A0A0;stroke-width:10.00"/>
	<line x1="517.63" y1="908.79" x2="545.61" y2="912.94" style="stroke:#A0A0A0;stroke-width:10.00"/>
	<line x1="570.88" y1="916.69" x2="613.45" y2="922.98" style="stroke:#A0A0A0;stroke-width:10.00"/>
	<line x1="613.45" y1="922.98" x2="620.55" y2="926.57" style="stroke:#A0A0A0;stroke-width:10.00"/>
	<line x1="643.35" y1="938.05" x2="688.95" y2="960.93" style="stroke:#A0A0A0;stroke-width:10.00"/>
	<line x1="711.91" y1="970.58" x2="761.74" y2="959.42" style="stroke:#A0A0A0;stroke-width:10.00"/>
	<line x1="786.61" y1="953.91" x2="836.44" y2="942.75" style="stroke:#A0A0A0;stroke-width:10.00"/>
	<line x1="861.31" y1="941.00" x2="911.05" y2="952.48" style="stroke:#A0A0A0;stroke-width:10.00"/>
	<line x1="935.93" y1="958.22" x2="948.92" y2="961.25" style="stroke:#A0A0A0;stroke-width:10.00"/>
	<line x1="948.92" y1="961.25" x2="984.96" y2="972.17" style="stroke:#A0A0A0;stroke-width:10.00"/>
	<line x1="1009.35" y1="979.58" x2="1044.75" y2="990.43" style="stroke:#A0A0A0;stroke-width:10.00"/>
	<line x1="1044.75" y1="990.43" x2="1055.27" y2="999.67" style="stroke:#A0A0A0;stroke-width:10.00"/>
	<line x1="1074.40" y1="1016.49" x2="1112.75" y2="1050.21" style="stroke:#A0A0A0;stroke-width:10.00"/>
	<line x1="1131.96" y1="1067.04" x2="1140.57" y2="1074.61" style="stroke:#A0A0A0;stroke-width:10.00"/>
	<line x1="1140.57" y1="1074.61" x2="1178.44" y2="1086.17" style="stroke:#A0A0A0;stroke-width:10.00"/>
	<line x1="1202.83" y1="1093.58" x2="1236.48" y2="1103.87" style="stroke:#A0A0A0;stroke-width:10.00"/>
	<line x1="1236.48" y1="1103.87" x2="1252.26" y2="1105.38" style="stroke:#A0A0A0;stroke-width:10.00"/>
	<line x1="1277.61" y1="1107.77" x2="1328.40" y2="1112.55" style="stroke:#A0A0A0;stroke-width:10.00"/>
	<line x1="1353.75" y1="1115.98" x2="1380.21" y2="1119.81" style="stroke:#A0A0A0;stroke-width:10.00"/>
	<line x1="1380.21" y1="1119.81" x2="1403.17" y2="1127.54" style="stroke:#A0A0A0;stroke-width:10.00"/>
	<line x1="1427.41" y1="1135.59" x2="1428.13" y2="1135.83" style="stroke:#A0A0A0;stroke-width:10.00"/>
	<line x1="1428.13" y1="1135.83" x2="1476.04" y2="1149.38" style="stroke:#A0A0A0;stroke-width:10.00"/>
	<line x1="1476.04" y1="1149.38" x2="1476.52" y2="1149.62" style="stroke:#A0A0A0;stroke-width:10.00"/>
	<line x1="1499.40" y1="1160.78" x2="1523.95" y2="1172.74" style="stroke:#A0A0A0;stroke-width:10.00"/>
	<line x1="1523.95" y1="1172.74" x2="1547.55" y2="1175.29" style="stroke:#A0A0A0;stroke-width:10.00"/>
	<line x1="1572.90" y1="1178.24" x2="1619.86" y2="1193.07" style="stroke:#A0A0A0;stroke-width:10.00"/>
	<line x1="1619.86" y1="1193.07" x2="1621.61" y2="1193.55" style="stroke:#A0A0A0;stroke-width:10.00"/>
	<line x1="1646.24" y1="1200.01" x2="1667.77" y2="1205.67" style="stroke:#A0A0A0;stroke-width:10.00"/>
	<line x1="1667.77" y1="1205.67" x2="1694.71" y2="1215.71" style="stroke:#A0A0A0;stroke-width:10.00"/>
	<line x1="1718.87" y1="1223.44" x2="1763.59" y2="1223.28" style="stroke:#A0A0A0;stroke-width:10.00"/>
	<line x1="1763.59" y1="1223.28" x2="1769.89" y2="1223.52" style="stroke:#A0A0A0;stroke-width:10.00"/>
	<line x1="1795.32" y1="1224.32" x2="1811.51" y2="1224.88" style="stroke:#A0A0A0;stroke-width:10.00"/>
	<line x1="1811.51" y1="1224.88" x2="1837.65" y2="1247.84" style="stroke:#A0A0A0;stroke-width:10.00"/>
	<line x1="1856.87" y1="1264.74" x2="1859.42" y2="1266.97" style="stroke:#A0A0A0;stroke-width:10.00"/>
	<line x1="1859.42" y1="1266.97" x2="1905.58" y2="1255.17" style="stroke:#A0A0A0;stroke-width:10.00"/>
	<line x1="1930.29" y1="1248.87" x2="1955.32" y2="1242.50" style="stroke:#A0A0A0;stroke-width:10.00"/>
	<line x1="1955.32" y1="1242.50" x2="1979.32" y2="1250.15" style="stroke:#A0A0A0;stroke-width:10.00"/>
	<line x1="2003.63" y1="1257.72" x2="2051.15" y2="1245.92" style="stroke:#A0A0A0;stroke-width:10.00"/>
	<line x1="2051.15" y1="1245.92" x2="2053.06" y2="1245.13" style="stroke:#A0A0A0;stroke-width:10.00"/>
	<line x1="2076.82" y1="1235.96" x2="2099.06" y2="1227.27" style="stroke:#A0A0A0;stroke-width:10.00"/>
	<line x1="2099.06" y1="1227.27" x2="2126.17" y2="1226.23" style="stroke:#A0A0A0;stroke-width:10.00"/>
	<line x1="2151.68" y1="1225.28" x2="2194.89" y2="1223.68" style="stroke:#A0A0A0;stroke-width:10.00"/>
	<line x1="2194.89" y1="1223.68" x2="2202.30" y2="1221.37" style="stroke:#A0A0A0;stroke-width:10.00"/>
	<line x1="2226.69" y1="1213.88" x2="2242.80" y2="1208.86" style="stroke:#A0A0A0;stroke-width:10.00"/>
	<line x1="2242.80" y1="1208.86" x2="2275.48" y2="1198.81" style="stroke:#A0A0A0;stroke-width:10.00"/>
	<line x1="365.68" y1="1865.82" x2="330.29" y2="1865.82" style="stroke:#000000;stroke-width:4.00"/>
	<text x="312.51" y="1883.33" style="font-family:'Helvetica';font-size:49.99px;fill:#000000" text-anchor="end">20</text>
	<line x1="365.68" y1="1543.28" x2="330.29" y2="1543.28" style="stroke:#000000;stroke-width:4.00"/>
	<text x="312.51" y="1560.79" style="font-family:'Helvetica';font-size:49.99px;fill:#000000" text-anchor="end">25</text>
	<line x1="365.68" y1="1220.81" x2="330.29" y2="1220.81" style="stroke:#000000;stroke-width:4.00"/>
	<text x="312.51" y="1238.33" style="font-family:'Helvetica';font-size:49.99px;fill:#000000" text-anchor="end">30</text>
	<line x1="365.68" y1="898.35" x2="330.29" y2="898.35" style="stroke:#000000;stroke-width:4.00"/>
	<text x="312.51" y="915.86" style="font-family:'Helvetica';font-size:49.99px;fill:#000000" text-anchor="end">35</text>
	<line x1="365.68" y1="575.81" x2="330.29" y2="575.81" style="stroke:#000000;stroke-width:4.00"/>
	<text x="312.51" y="593.32" style="font-family:'Helvetica';font-size:49.99px;fill:#000000" text-anchor="end">40</text>
	<line x1="365.68" y1="253.35" x2="330.29" y2="253.35" style="stroke:#000000;stroke-width:4.00"/>
	<text x="312.51" y="270.86" style="font-family:'Helvetica';font-size:49.99px;fill:#000000" text-anchor="end">45</text>
	<line x1="365.68" y1="1865.82" x2="365.68" y2="253.35" style="stroke:#000000;stroke-width:4.00"/>
	<text x="136.21" y="1021.28" style="font-family:'Helvetica';font-size:60.03px;fill:#000000" transform="rotate(-90 136.21,1021.28)" text-anchor="middle">Weekly working hours (actual)</text>
	<line x1="421.81" y1="1921.94" x2="421.81" y2="1957.33" style="stroke:#000000;stroke-width:4.00"/>
	<text x="421.81" y="2009.98" style="font-family:'Helvetica';font-size:49.99px;fill:#000000" text-anchor="middle">1976</text>
	<line x1="613.45" y1="1921.94" x2="613.45" y2="1957.33" style="stroke:#000000;stroke-width:4.00"/>
	<text x="613.45" y="2009.98" style="font-family:'Helvetica';font-size:49.99px;fill:#000000" text-anchor="middle">1980</text>
	<line x1="853.10" y1="1921.94" x2="853.10" y2="1957.33" style="stroke:#000000;stroke-width:4.00"/>
	<text x="853.10" y="2009.98" style="font-family:'Helvetica';font-size:49.99px;fill:#000000" text-anchor="middle">1985</text>
	<line x1="1092.74" y1="1921.94" x2="1092.74" y2="1957.33" style="stroke:#000000;stroke-width:4.00"/>
	<text x="1092.74" y="2009.98" style="font-family:'Helvetica';font-size:49.99px;fill:#000000" text-anchor="middle">1990</text>
	<line x1="1332.30" y1="1921.94" x2="1332.30" y2="1957.33" style="stroke:#000000;stroke-width:4.00"/>
	<text x="1332.30" y="2009.98" style="font-family:'Helvetica';font-size:49.99px;fill:#000000" text-anchor="middle">1995</text>
	<line x1="1571.94" y1="1921.94" x2="1571.94" y2="1957.33" style="stroke:#000000;stroke-width:4.00"/>
	<text x="1571.94" y="2009.98" style="font-family:'Helvetica';font-size:49.99px;fill:#000000" text-anchor="middle">2000</text>
	<line x1="1811.59" y1="1921.94" x2="1811.59" y2="1957.33" style="stroke:#000000;stroke-width:4.00"/>
	<text x="1811.59" y="2009.98" style="font-family:'Helvetica';font-size:49.99px;fill:#000000" text-anchor="middle">2005</text>
	<line x1="2051.15" y1="1921.94" x2="2051.15" y2="1957.33" style="stroke:#000000;stroke-width:4.00"/>
	<text x="2051.15" y="2009.98" style="font-family:'Helvetica';font-size:49.99px;fill:#000000" text-anchor="middle">2010</text>
	<line x1="2290.79" y1="1921.94" x2="2290.79" y2="1957.33" style="stroke:#000000;stroke-width:4.00"/>
	<text x="2290.79" y="2009.98" style="font-family:'Helvetica';font-size:49.99px;fill:#000000" text-anchor="middle">2015</text>
	<line x1="421.81" y1="1921.94" x2="2290.79" y2="1921.94" style="stroke:#000000;stroke-width:4.00"/>
	<text x="1318.03" y="2152.37" style="font-family:'Helvetica';font-size:60.03px;fill:#000000" text-anchor="middle">Year</text>
	<text x="145.41" y="2396.65" style="font-family:'Helvetica';font-size:60.03px;fill:#000000">Arr. cohort: </text>
	<text x="536.36" y="2396.65" style="font-family:'Helvetica';font-size:60.03px;fill:#000000">1964-73</text>
	<text x="845.12" y="2396.65" style="font-family:'Helvetica';font-size:60.03px;fill:#000000">1974-83</text>
	<text x="1153.89" y="2396.65" style="font-family:'Helvetica';font-size:60.03px;fill:#000000">1984-93</text>
	<text x="1462.65" y="2396.65" style="font-family:'Helvetica';font-size:60.03px;fill:#000000">1994-03</text>
	<text x="1771.41" y="2396.65" style="font-family:'Helvetica';font-size:60.03px;fill:#000000">2004-10</text>
	<text x="2080.17" y="2396.65" style="font-family:'Helvetica';font-size:60.03px;fill:#000000">German</text>
	<line x1="536.36" y1="2301.32" x2="737.26" y2="2301.32" style="stroke:#E69F00;stroke-width:10.00"/>
	<line x1="845.12" y1="2301.32" x2="1046.02" y2="2301.32" style="stroke:#56B4E9;stroke-width:10.00"/>
	<line x1="1153.89" y1="2301.32" x2="1354.78" y2="2301.32" style="stroke:#009E73;stroke-width:10.00"/>
	<line x1="1462.65" y1="2301.32" x2="1663.54" y2="2301.32" style="stroke:#D55E00;stroke-width:10.00"/>
	<line x1="1771.41" y1="2301.32" x2="1972.30" y2="2301.32" style="stroke:#CC79A7;stroke-width:10.00"/>
	<line x1="2080.17" y1="2301.32" x2="2131.19" y2="2301.32" style="stroke:#A0A0A0;stroke-width:10.00"/>
	<line x1="2156.70" y1="2301.32" x2="2207.72" y2="2301.32" style="stroke:#A0A0A0;stroke-width:10.00"/>
	<line x1="2233.23" y1="2301.32" x2="2278.03" y2="2301.32" style="stroke:#A0A0A0;stroke-width:10.00"/>
	<text x="1356.30" y="154.88" style="font-family:'Helvetica';font-size:90.01px;fill:#000000" text-anchor="middle">Women</text>
</svg>
