<?xml version="1.0" encoding="UTF-8" standalone="no"?>
<!-- This is a Stata 15.1 generated SVG file (http://www.stata.com) -->

<svg version="1.1" width="3.54in" height="3.54in" viewBox="0 0 2551 2551" xmlns="http://www.w3.org/2000/svg" xmlns:xlink="http://www.w3.org/1999/xlink">
	<desc>Stata Graph - Graph</desc>
	<rect x="0" y="0" width="2551" height="2551" style="fill:#FFFFFF;stroke:none"/>
	<rect x="0.00" y="0.08" width="2551.00" height="2550.92" style="fill:#FFFFFF"/>
	<rect x="2.55" y="2.63" width="2545.90" height="2545.82" style="fill:none;stroke:#FFFFFF;stroke-width:5.10"/>
	<line x1="365.68" y1="1865.82" x2="2346.91" y2="1865.82" style="stroke:#E8E8E8;stroke-width:4.00"/>
	<line x1="365.68" y1="1543.28" x2="2346.91" y2="1543.28" style="stroke:#E8E8E8;stroke-width:4.00"/>
	<line x1="365.68" y1="1220.81" x2="2346.91" y2="1220.81" style="stroke:#E8E8E8;stroke-width:4.00"/>
	<line x1="365.68" y1="898.35" x2="2346.91" y2="898.35" style="stroke:#E8E8E8;stroke-width:4.00"/>
	<line x1="365.68" y1="575.81" x2="2346.91" y2="575.81" style="stroke:#E8E8E8;stroke-width:4.00"/>
	<line x1="365.68" y1="253.35" x2="2346.91" y2="253.35" style="stroke:#E8E8E8;stroke-width:4.00"/>
	<line x1="421.81" y1="1921.94" x2="421.81" y2="197.22" style="stroke:#E8E8E8;stroke-width:4.00"/>
	<line x1="613.45" y1="1921.94" x2="613.45" y2="197.22" style="stroke:#E8E8E8;stroke-width:4.00"/>
	<line x1="853.10" y1="1921.94" x2="853.10" y2="197.22" style="stroke:#E8E8E8;stroke-width:4.00"/>
	<line x1="1092.74" y1="1921.94" x2="1092.74" y2="197.22" style="stroke:#E8E8E8;stroke-width:4.00"/>
	<line x1="1332.30" y1="1921.94" x2="1332.30" y2="197.22" style="stroke:#E8E8E8;stroke-width:4.00"/>
	<line x1="1571.94" y1="1921.94" x2="1571.94" y2="197.22" style="stroke:#E8E8E8;stroke-width:4.00"/>
	<line x1="1811.59" y1="1921.94" x2="1811.59" y2="197.22" style="stroke:#E8E8E8;stroke-width:4.00"/>
	<line x1="2051.15" y1="1921.94" x2="2051.15" y2="197.22" style="stroke:#E8E8E8;stroke-width:4.00"/>
	<line x1="2290.79" y1="1921.94" x2="2290.79" y2="197.22" style="stroke:#E8E8E8;stroke-width:4.00"/>
	<line x1="421.73" y1="466.67" x2="517.63" y2="467.15" stroke-linecap="round" style="stroke:#E69F00;stroke-width:10.00"/>
	<line x1="517.63" y1="467.15" x2="613.45" y2="455.35" stroke-linecap="round" style="stroke:#E69F00;stroke-width:10.00"/>
	<line x1="613.45" y1="455.35" x2="709.28" y2="493.38" stroke-linecap="round" style="stroke:#E69F00;stroke-width:10.00"/>
	<line x1="709.28" y1="493.38" x2="853.10" y2="503.66" stroke-linecap="round" style="stroke:#E69F00;stroke-width:10.00"/>
	<line x1="853.10" y1="503.66" x2="948.92" y2="524.87" stroke-linecap="round" style="stroke:#E69F00;stroke-width:10.00"/>
	<line x1="948.92" y1="524.87" x2="1044.75" y2="527.10" stroke-linecap="round" style="stroke:#E69F00;stroke-width:10.00"/>
	<line x1="1044.75" y1="527.10" x2="1140.57" y2="572.86" stroke-linecap="round" style="stroke:#E69F00;stroke-width:10.00"/>
	<line x1="1140.57" y1="572.86" x2="1236.48" y2="630.50" stroke-linecap="round" style="stroke:#E69F00;stroke-width:10.00"/>
	<line x1="1236.48" y1="630.50" x2="1332.30" y2="562.97" stroke-linecap="round" style="stroke:#E69F00;stroke-width:10.00"/>
	<line x1="1332.30" y1="562.97" x2="1380.21" y2="570.79" stroke-linecap="round" style="stroke:#E69F00;stroke-width:10.00"/>
	<line x1="1380.21" y1="570.79" x2="1428.13" y2="556.12" stroke-linecap="round" style="stroke:#E69F00;stroke-width:10.00"/>
	<line x1="1428.13" y1="556.12" x2="1476.04" y2="529.41" stroke-linecap="round" style="stroke:#E69F00;stroke-width:10.00"/>
	<line x1="1476.04" y1="529.41" x2="1523.95" y2="590.56" stroke-linecap="round" style="stroke:#E69F00;stroke-width:10.00"/>
	<line x1="1523.95" y1="590.56" x2="1571.94" y2="539.14" stroke-linecap="round" style="stroke:#E69F00;stroke-width:10.00"/>
	<line x1="1571.94" y1="539.14" x2="1619.86" y2="515.54" stroke-linecap="round" style="stroke:#E69F00;stroke-width:10.00"/>
	<line x1="1619.86" y1="515.54" x2="1667.77" y2="515.70" stroke-linecap="round" style="stroke:#E69F00;stroke-width:10.00"/>
	<line x1="1667.77" y1="515.70" x2="1715.68" y2="548.86" stroke-linecap="round" style="stroke:#E69F00;stroke-width:10.00"/>
	<line x1="853.10" y1="444.19" x2="948.92" y2="450.89" stroke-linecap="round" style="stroke:#56B4E9;stroke-width:10.00"/>
	<line x1="948.92" y1="450.89" x2="1044.75" y2="449.22" stroke-linecap="round" style="stroke:#56B4E9;stroke-width:10.00"/>
	<line x1="1044.75" y1="449.22" x2="1140.57" y2="503.34" stroke-linecap="round" style="stroke:#56B4E9;stroke-width:10.00"/>
	<line x1="1140.57" y1="503.34" x2="1236.48" y2="522.48" stroke-linecap="round" style="stroke:#56B4E9;stroke-width:10.00"/>
	<line x1="1236.48" y1="522.48" x2="1332.30" y2="437.50" stroke-linecap="round" style="stroke:#56B4E9;stroke-width:10.00"/>
	<line x1="1332.30" y1="437.50" x2="1380.21" y2="524.31" stroke-linecap="round" style="stroke:#56B4E9;stroke-width:10.00"/>
	<line x1="1380.21" y1="524.31" x2="1428.13" y2="483.49" stroke-linecap="round" style="stroke:#56B4E9;stroke-width:10.00"/>
	<line x1="1428.13" y1="483.49" x2="1476.04" y2="442.04" stroke-linecap="round" style="stroke:#56B4E9;stroke-width:10.00"/>
	<line x1="1476.04" y1="442.04" x2="1523.95" y2="479.35" stroke-linecap="round" style="stroke:#56B4E9;stroke-width:10.00"/>
	<line x1="1523.95" y1="479.35" x2="1571.94" y2="453.04" stroke-linecap="round" style="stroke:#56B4E9;stroke-width:10.00"/>
	<line x1="1571.94" y1="453.04" x2="1619.86" y2="478.71" stroke-linecap="round" style="stroke:#56B4E9;stroke-width:10.00"/>
	<line x1="1619.86" y1="478.71" x2="1667.77" y2="522.08" stroke-linecap="round" style="stroke:#56B4E9;stroke-width:10.00"/>
	<line x1="1667.77" y1="522.08" x2="1715.68" y2="508.21" stroke-linecap="round" style="stroke:#56B4E9;stroke-width:10.00"/>
	<line x1="1715.68" y1="508.21" x2="1763.59" y2="580.75" stroke-linecap="round" style="stroke:#56B4E9;stroke-width:10.00"/>
	<line x1="1763.59" y1="580.75" x2="1811.51" y2="513.71" stroke-linecap="round" style="stroke:#56B4E9;stroke-width:10.00"/>
	<line x1="1811.51" y1="513.71" x2="1859.42" y2="604.35" stroke-linecap="round" style="stroke:#56B4E9;stroke-width:10.00"/>
	<line x1="1859.42" y1="604.35" x2="1907.41" y2="579.40" stroke-linecap="round" style="stroke:#56B4E9;stroke-width:10.00"/>
	<line x1="1907.41" y1="579.40" x2="1955.32" y2="494.89" stroke-linecap="round" style="stroke:#56B4E9;stroke-width:10.00"/>
	<line x1="1955.32" y1="494.89" x2="2003.24" y2="594.70" stroke-linecap="round" style="stroke:#56B4E9;stroke-width:10.00"/>
	<line x1="2003.24" y1="594.70" x2="2051.15" y2="536.43" stroke-linecap="round" style="stroke:#56B4E9;stroke-width:10.00"/>
	<line x1="2051.15" y1="536.43" x2="2099.06" y2="536.67" stroke-linecap="round" style="stroke:#56B4E9;stroke-width:10.00"/>
	<line x1="2099.06" y1="536.67" x2="2146.97" y2="557.07" stroke-linecap="round" style="stroke:#56B4E9;stroke-width:10.00"/>
	<line x1="1332.30" y1="539.22" x2="1380.21" y2="603.79" stroke-linecap="round" style="stroke:#009E73;stroke-width:10.00"/>
	<line x1="1380.21" y1="603.79" x2="1428.13" y2="617.34" stroke-linecap="round" style="stroke:#009E73;stroke-width:10.00"/>
	<line x1="1428.13" y1="617.34" x2="1476.04" y2="564.97" stroke-linecap="round" style="stroke:#009E73;stroke-width:10.00"/>
	<line x1="1476.04" y1="564.97" x2="1523.95" y2="607.38" stroke-linecap="round" style="stroke:#009E73;stroke-width:10.00"/>
	<line x1="1523.95" y1="607.38" x2="1571.94" y2="566.96" stroke-linecap="round" style="stroke:#009E73;stroke-width:10.00"/>
	<line x1="1571.94" y1="566.96" x2="1619.86" y2="514.74" stroke-linecap="round" style="stroke:#009E73;stroke-width:10.00"/>
	<line x1="1619.86" y1="514.74" x2="1667.77" y2="556.60" stroke-linecap="round" style="stroke:#009E73;stroke-width:10.00"/>
	<line x1="1667.77" y1="556.60" x2="1715.68" y2="542.73" stroke-linecap="round" style="stroke:#009E73;stroke-width:10.00"/>
	<line x1="1715.68" y1="542.73" x2="1763.59" y2="521.84" stroke-linecap="round" style="stroke:#009E73;stroke-width:10.00"/>
	<line x1="1763.59" y1="521.84" x2="1811.51" y2="505.74" stroke-linecap="round" style="stroke:#009E73;stroke-width:10.00"/>
	<line x1="1811.51" y1="505.74" x2="1859.42" y2="621.41" stroke-linecap="round" style="stroke:#009E73;stroke-width:10.00"/>
	<line x1="1859.42" y1="621.41" x2="1907.41" y2="572.38" stroke-linecap="round" style="stroke:#009E73;stroke-width:10.00"/>
	<line x1="1907.41" y1="572.38" x2="1955.32" y2="590.00" stroke-linecap="round" style="stroke:#009E73;stroke-width:10.00"/>
	<line x1="1955.32" y1="590.00" x2="2003.24" y2="681.52" stroke-linecap="round" style="stroke:#009E73;stroke-width:10.00"/>
	<line x1="2003.24" y1="681.52" x2="2051.15" y2="605.46" stroke-linecap="round" style="stroke:#009E73;stroke-width:10.00"/>
	<line x1="2051.15" y1="605.46" x2="2099.06" y2="579.64" stroke-linecap="round" style="stroke:#009E73;stroke-width:10.00"/>
	<line x1="2099.06" y1="579.64" x2="2146.97" y2="613.67" stroke-linecap="round" style="stroke:#009E73;stroke-width:10.00"/>
	<line x1="2146.97" y1="613.67" x2="2194.89" y2="687.89" stroke-linecap="round" style="stroke:#009E73;stroke-width:10.00"/>
	<line x1="2194.89" y1="687.89" x2="2242.80" y2="668.04" stroke-linecap="round" style="stroke:#009E73;stroke-width:10.00"/>
	<line x1="2242.80" y1="668.04" x2="2290.79" y2="636.47" stroke-linecap="round" style="stroke:#009E73;stroke-width:10.00"/>
	<line x1="1763.59" y1="634.16" x2="1811.51" y2="691.88" stroke-linecap="round" style="stroke:#D55E00;stroke-width:10.00"/>
	<line x1="1811.51" y1="691.88" x2="1859.42" y2="723.93" stroke-linecap="round" style="stroke:#D55E00;stroke-width:10.00"/>
	<line x1="1859.42" y1="723.93" x2="1907.41" y2="700.73" stroke-linecap="round" style="stroke:#D55E00;stroke-width:10.00"/>
	<line x1="1907.41" y1="700.73" x2="1955.32" y2="725.20" stroke-linecap="round" style="stroke:#D55E00;stroke-width:10.00"/>
	<line x1="1955.32" y1="725.20" x2="2003.24" y2="729.35" stroke-linecap="round" style="stroke:#D55E00;stroke-width:10.00"/>
	<line x1="2003.24" y1="729.35" x2="2051.15" y2="692.60" stroke-linecap="round" style="stroke:#D55E00;stroke-width:10.00"/>
	<line x1="2051.15" y1="692.60" x2="2099.06" y2="688.61" stroke-linecap="round" style="stroke:#D55E00;stroke-width:10.00"/>
	<line x1="2099.06" y1="688.61" x2="2146.97" y2="693.87" stroke-linecap="round" style="stroke:#D55E00;stroke-width:10.00"/>
	<line x1="2146.97" y1="693.87" x2="2194.89" y2="680.32" stroke-linecap="round" style="stroke:#D55E00;stroke-width:10.00"/>
	<line x1="2194.89" y1="680.32" x2="2242.80" y2="685.34" stroke-linecap="round" style="stroke:#D55E00;stroke-width:10.00"/>
	<line x1="2242.80" y1="685.34" x2="2290.79" y2="684.15" stroke-linecap="round" style="stroke:#D55E00;stroke-width:10.00"/>
	<line x1="2099.06" y1="681.99" x2="2146.97" y2="720.10" stroke-linecap="round" style="stroke:#CC79A7;stroke-width:10.00"/>
	<line x1="2146.97" y1="720.10" x2="2194.89" y2="705.91" stroke-linecap="round" style="stroke:#CC79A7;stroke-width:10.00"/>
	<line x1="2194.89" y1="705.91" x2="2242.80" y2="716.99" stroke-linecap="round" style="stroke:#CC79A7;stroke-width:10.00"/>
	<line x1="2242.80" y1="716.99" x2="2290.79" y2="727.35" stroke-linecap="round" style="stroke:#CC79A7;stroke-width:10.00"/>
	<line x1="421.73" y1="336.89" x2="471.95" y2="345.66" style="stroke:#A0A0A0;stroke-width:10.00"/>
	<line x1="497.14" y1="349.97" x2="517.63" y2="353.55" style="stroke:#A0A0A0;stroke-width:10.00"/>
	<line x1="517.63" y1="353.55" x2="547.84" y2="352.91" style="stroke:#A0A0A0;stroke-width:10.00"/>
	<line x1="573.36" y1="352.28" x2="613.45" y2="351.40" style="stroke:#A0A0A0;stroke-width:10.00"/>
	<line x1="613.45" y1="351.40" x2="624.14" y2="353.87" style="stroke:#A0A0A0;stroke-width:10.00"/>
	<line x1="649.01" y1="359.53" x2="698.76" y2="370.93" style="stroke:#A0A0A0;stroke-width:10.00"/>
	<line x1="723.71" y1="370.53" x2="773.77" y2="360.81" style="stroke:#A0A0A0;stroke-width:10.00"/>
	<line x1="798.81" y1="355.94" x2="848.87" y2="346.22" style="stroke:#A0A0A0;stroke-width:10.00"/>
	<line x1="873.74" y1="350.12" x2="923.49" y2="361.44" style="stroke:#A0A0A0;stroke-width:10.00"/>
	<line x1="948.36" y1="367.18" x2="948.92" y2="367.26" style="stroke:#A0A0A0;stroke-width:10.00"/>
	<line x1="948.92" y1="367.26" x2="998.75" y2="375.16" style="stroke:#A0A0A0;stroke-width:10.00"/>
	<line x1="1023.94" y1="379.14" x2="1044.75" y2="382.41" style="stroke:#A0A0A0;stroke-width:10.00"/>
	<line x1="1044.75" y1="382.41" x2="1073.45" y2="390.94" style="stroke:#A0A0A0;stroke-width:10.00"/>
	<line x1="1097.92" y1="398.20" x2="1140.57" y2="410.95" style="stroke:#A0A0A0;stroke-width:10.00"/>
	<line x1="1140.57" y1="410.95" x2="1146.55" y2="413.58" style="stroke:#A0A0A0;stroke-width:10.00"/>
	<line x1="1169.83" y1="424.02" x2="1216.47" y2="444.83" style="stroke:#A0A0A0;stroke-width:10.00"/>
	<line x1="1239.98" y1="453.28" x2="1290.53" y2="446.43" style="stroke:#A0A0A0;stroke-width:10.00"/>
	<line x1="1315.80" y1="443.08" x2="1332.30" y2="440.84" style="stroke:#A0A0A0;stroke-width:10.00"/>
	<line x1="1332.30" y1="440.84" x2="1366.42" y2="436.46" style="stroke:#A0A0A0;stroke-width:10.00"/>
	<line x1="1391.06" y1="430.80" x2="1428.13" y2="417.33" style="stroke:#A0A0A0;stroke-width:10.00"/>
	<line x1="1428.13" y1="417.33" x2="1439.77" y2="417.01" style="stroke:#A0A0A0;stroke-width:10.00"/>
	<line x1="1465.28" y1="416.13" x2="1476.04" y2="415.81" style="stroke:#A0A0A0;stroke-width:10.00"/>
	<line x1="1476.04" y1="415.81" x2="1515.90" y2="410.07" style="stroke:#A0A0A0;stroke-width:10.00"/>
	<line x1="1541.25" y1="407.28" x2="1571.94" y2="404.33" style="stroke:#A0A0A0;stroke-width:10.00"/>
	<line x1="1571.94" y1="404.33" x2="1591.79" y2="408.08" style="stroke:#A0A0A0;stroke-width:10.00"/>
	<line x1="1616.83" y1="412.86" x2="1619.86" y2="413.42" style="stroke:#A0A0A0;stroke-width:10.00"/>
	<line x1="1619.86" y1="413.42" x2="1665.30" y2="428.73" style="stroke:#A0A0A0;stroke-width:10.00"/>
	<line x1="1689.61" y1="436.30" x2="1715.68" y2="444.35" style="stroke:#A0A0A0;stroke-width:10.00"/>
	<line x1="1715.68" y1="444.35" x2="1739.20" y2="441.24" style="stroke:#A0A0A0;stroke-width:10.00"/>
	<line x1="1764.39" y1="437.58" x2="1806.96" y2="409.52" style="stroke:#A0A0A0;stroke-width:10.00"/>
	<line x1="1824.98" y1="421.39" x2="1859.26" y2="459.26" style="stroke:#A0A0A0;stroke-width:10.00"/>
	<line x1="1883.41" y1="451.77" x2="1907.41" y2="444.11" style="stroke:#A0A0A0;stroke-width:10.00"/>
	<line x1="1907.41" y1="444.11" x2="1932.68" y2="449.37" style="stroke:#A0A0A0;stroke-width:10.00"/>
	<line x1="1956.76" y1="455.99" x2="1988.41" y2="496.09" style="stroke:#A0A0A0;stroke-width:10.00"/>
	<line x1="2004.59" y1="514.27" x2="2050.75" y2="492.42" style="stroke:#A0A0A0;stroke-width:10.00"/>
	<line x1="2075.94" y1="488.99" x2="2099.06" y2="485.97" style="stroke:#A0A0A0;stroke-width:10.00"/>
	<line x1="2099.06" y1="485.97" x2="2126.32" y2="490.91" style="stroke:#A0A0A0;stroke-width:10.00"/>
	<line x1="2151.12" y1="496.49" x2="2194.89" y2="514.35" style="stroke:#A0A0A0;stroke-width:10.00"/>
	<line x1="2194.89" y1="514.35" x2="2198.63" y2="514.74" style="stroke:#A0A0A0;stroke-width:10.00"/>
	<line x1="2223.98" y1="517.53" x2="2242.80" y2="519.61" style="stroke:#A0A0A0;stroke-width:10.00"/>
	<line x1="2242.80" y1="519.61" x2="2273.57" y2="528.54" style="stroke:#A0A0A0;stroke-width:10.00"/>
	<line x1="365.68" y1="1865.82" x2="330.29" y2="1865.82" style="stroke:#000000;stroke-width:4.00"/>
	<text x="312.51" y="1883.33" style="font-family:'Helvetica';font-size:49.99px;fill:#000000" text-anchor="end">20</text>
	<line x1="365.68" y1="1543.28" x2="330.29" y2="1543.28" style="stroke:#000000;stroke-width:4.00"/>
	<text x="312.51" y="1560.79" style="font-family:'Helvetica';font-size:49.99px;fill:#000000" text-anchor="end">25</text>
	<line x1="365.68" y1="1220.81" x2="330.29" y2="1220.81" style="stroke:#000000;stroke-width:4.00"/>
	<text x="312.51" y="1238.33" style="font-family:'Helvetica';font-size:49.99px;fill:#000000" text-anchor="end">30</text>
	<line x1="365.68" y1="898.35" x2="330.29" y2="898.35" style="stroke:#000000;stroke-width:4.00"/>
	<text x="312.51" y="915.86" style="font-family:'Helvetica';font-size:49.99px;fill:#000000" text-anchor="end">35</text>
	<line x1="365.68" y1="575.81" x2="330.29" y2="575.81" style="stroke:#000000;stroke-width:4.00"/>
	<text x="312.51" y="593.32" style="font-family:'Helvetica';font-size:49.99px;fill:#000000" text-anchor="end">40</text>
	<line x1="365.68" y1="253.35" x2="330.29" y2="253.35" style="stroke:#000000;stroke-width:4.00"/>
	<text x="312.51" y="270.86" style="font-family:'Helvetica';font-size:49.99px;fill:#000000" text-anchor="end">45</text>
	<line x1="365.68" y1="1865.82" x2="365.68" y2="253.35" style="stroke:#000000;stroke-width:4.00"/>
	<text x="136.21" y="1021.28" style="font-family:'Helvetica';font-size:60.03px;fill:#000000" transform="rotate(-90 136.21,1021.28)" text-anchor="middle">Weekly working hours (actual)</text>
	<line x1="421.81" y1="1921.94" x2="421.81" y2="1957.33" style="stroke:#000000;stroke-width:4.00"/>
	<text x="421.81" y="2009.98" style="font-family:'Helvetica';font-size:49.99px;fill:#000000" text-anchor="middle">1976</text>
	<line x1="613.45" y1="1921.94" x2="613.45" y2="1957.33" style="stroke:#000000;stroke-width:4.00"/>
	<text x="613.45" y="2009.98" style="font-family:'Helvetica';font-size:49.99px;fill:#000000" text-anchor="middle">1980</text>
	<line x1="853.10" y1="1921.94" x2="853.10" y2="1957.33" style="stroke:#000000;stroke-width:4.00"/>
	<text x="853.10" y="2009.98" style="font-family:'Helvetica';font-size:49.99px;fill:#000000" text-anchor="middle">1985</text>
	<line x1="1092.74" y1="1921.94" x2="1092.74" y2="1957.33" style="stroke:#000000;stroke-width:4.00"/>
	<text x="1092.74" y="2009.98" style="font-family:'Helvetica';font-size:49.99px;fill:#000000" text-anchor="middle">1990</text>
	<line x1="1332.30" y1="1921.94" x2="1332.30" y2="1957.33" style="stroke:#000000;stroke-width:4.00"/>
	<text x="1332.30" y="2009.98" style="font-family:'Helvetica';font-size:49.99px;fill:#000000" text-anchor="middle">1995</text>
	<line x1="1571.94" y1="1921.94" x2="1571.94" y2="1957.33" style="stroke:#000000;stroke-width:4.00"/>
	<text x="1571.94" y="2009.98" style="font-family:'Helvetica';font-size:49.99px;fill:#000000" text-anchor="middle">2000</text>
	<line x1="1811.59" y1="1921.94" x2="1811.59" y2="1957.33" style="stroke:#000000;stroke-width:4.00"/>
	<text x="1811.59" y="2009.98" style="font-family:'Helvetica';font-size:49.99px;fill:#000000" text-anchor="middle">2005</text>
	<line x1="2051.15" y1="1921.94" x2="2051.15" y2="1957.33" style="stroke:#000000;stroke-width:4.00"/>
	<text x="2051.15" y="2009.98" style="font-family:'Helvetica';font-size:49.99px;fill:#000000" text-anchor="middle">2010</text>
	<line x1="2290.79" y1="1921.94" x2="2290.79" y2="1957.33" style="stroke:#000000;stroke-width:4.00"/>
	<text x="2290.79" y="2009.98" style="font-family:'Helvetica';font-size:49.99px;fill:#000000" text-anchor="middle">2015</text>
	<line x1="421.81" y1="1921.94" x2="2290.79" y2="1921.94" style="stroke:#000000;stroke-width:4.00"/>
	<text x="1318.03" y="2152.37" style="font-family:'Helvetica';font-size:60.03px;fill:#000000" text-anchor="middle">Year</text>
	<text x="145.41" y="2396.65" style="font-family:'Helvetica';font-size:60.03px;fill:#000000">Arr. cohort: </text>
	<text x="536.36" y="2396.65" style="font-family:'Helvetica';font-size:60.03px;fill:#000000">1964-73</text>
	<text x="845.12" y="2396.65" style="font-family:'Helvetica';font-size:60.03px;fill:#000000">1974-83</text>
	<text x="1153.89" y="2396.65" style="font-family:'Helvetica';font-size:60.03px;fill:#000000">1984-93</text>
	<text x="1462.65" y="2396.65" style="font-family:'Helvetica';font-size:60.03px;fill:#000000">1994-03</text>
	<text x="1771.41" y="2396.65" style="font-family:'Helvetica';font-size:60.03px;fill:#000000">2004-10</text>
	<text x="2080.17" y="2396.65" style="font-family:'Helvetica';font-size:60.03px;fill:#000000">German</text>
	<line x1="536.36" y1="2301.32" x2="737.26" y2="2301.32" style="stroke:#E69F00;stroke-width:10.00"/>
	<line x1="845.12" y1="2301.32" x2="1046.02" y2="2301.32" style="stroke:#56B4E9;stroke-width:10.00"/>
	<line x1="1153.89" y1="2301.32" x2="1354.78" y2="2301.32" style="stroke:#009E73;stroke-width:10.00"/>
	<line x1="1462.65" y1="2301.32" x2="1663.54" y2="2301.32" style="stroke:#D55E00;stroke-width:10.00"/>
	<line x1="1771.41" y1="2301.32" x2="1972.30" y2="2301.32" style="stroke:#CC79A7;stroke-width:10.00"/>
	<line x1="2080.17" y1="2301.32" x2="2131.19" y2="2301.32" style="stroke:#A0A0A0;stroke-width:10.00"/>
	<line x1="2156.70" y1="2301.32" x2="2207.72" y2="2301.32" style="stroke:#A0A0A0;stroke-width:10.00"/>
	<line x1="2233.23" y1="2301.32" x2="2278.03" y2="2301.32" style="stroke:#A0A0A0;stroke-width:10.00"/>
	<text x="1356.30" y="154.88" style="font-family:'Helvetica';font-size:90.01px;fill:#000000" text-anchor="middle">Men</text>
</svg>
