<?xml version="1.0" encoding="UTF-8" standalone="no"?>
<!-- This is a Stata 15.1 generated SVG file (http://www.stata.com) -->

<svg version="1.1" width="3.54in" height="3.54in" viewBox="0 0 2551 2551" xmlns="http://www.w3.org/2000/svg" xmlns:xlink="http://www.w3.org/1999/xlink">
	<desc>Stata Graph - Graph</desc>
	<rect x="0" y="0" width="2551" height="2551" style="fill:#FFFFFF;stroke:none"/>
	<rect x="0.00" y="0.08" width="2551.00" height="2550.92" style="fill:#FFFFFF"/>
	<rect x="2.55" y="2.63" width="2545.90" height="2545.82" style="fill:none;stroke:#FFFFFF;stroke-width:5.10"/>
	<line x1="365.68" y1="1865.82" x2="2346.91" y2="1865.82" style="stroke:#E8E8E8;stroke-width:4.00"/>
	<line x1="365.68" y1="1565.52" x2="2346.91" y2="1565.52" style="stroke:#E8E8E8;stroke-width:4.00"/>
	<line x1="365.68" y1="1265.22" x2="2346.91" y2="1265.22" style="stroke:#E8E8E8;stroke-width:4.00"/>
	<line x1="365.68" y1="964.92" x2="2346.91" y2="964.92" style="stroke:#E8E8E8;stroke-width:4.00"/>
	<line x1="365.68" y1="664.62" x2="2346.91" y2="664.62" style="stroke:#E8E8E8;stroke-width:4.00"/>
	<line x1="365.68" y1="364.31" x2="2346.91" y2="364.31" style="stroke:#E8E8E8;stroke-width:4.00"/>
	<line x1="421.81" y1="1921.94" x2="421.81" y2="308.19" style="stroke:#E8E8E8;stroke-width:4.00"/>
	<line x1="655.39" y1="1921.94" x2="655.39" y2="308.19" style="stroke:#E8E8E8;stroke-width:4.00"/>
	<line x1="889.05" y1="1921.94" x2="889.05" y2="308.19" style="stroke:#E8E8E8;stroke-width:4.00"/>
	<line x1="1122.71" y1="1921.94" x2="1122.71" y2="308.19" style="stroke:#E8E8E8;stroke-width:4.00"/>
	<line x1="1356.30" y1="1921.94" x2="1356.30" y2="308.19" style="stroke:#E8E8E8;stroke-width:4.00"/>
	<line x1="1589.96" y1="1921.94" x2="1589.96" y2="308.19" style="stroke:#E8E8E8;stroke-width:4.00"/>
	<line x1="1823.54" y1="1921.94" x2="1823.54" y2="308.19" style="stroke:#E8E8E8;stroke-width:4.00"/>
	<line x1="2057.21" y1="1921.94" x2="2057.21" y2="308.19" style="stroke:#E8E8E8;stroke-width:4.00"/>
	<line x1="2290.79" y1="1921.94" x2="2290.79" y2="308.19" style="stroke:#E8E8E8;stroke-width:4.00"/>
	<line x1="421.73" y1="563.05" x2="515.24" y2="563.45" stroke-linecap="round" style="stroke:#E69F00;stroke-width:10.00"/>
	<line x1="515.24" y1="563.45" x2="608.67" y2="552.45" stroke-linecap="round" style="stroke:#E69F00;stroke-width:10.00"/>
	<line x1="608.67" y1="552.45" x2="702.10" y2="587.85" stroke-linecap="round" style="stroke:#E69F00;stroke-width:10.00"/>
	<line x1="702.10" y1="587.85" x2="842.25" y2="597.49" stroke-linecap="round" style="stroke:#E69F00;stroke-width:10.00"/>
	<line x1="842.25" y1="597.49" x2="935.77" y2="617.18" stroke-linecap="round" style="stroke:#E69F00;stroke-width:10.00"/>
	<line x1="935.77" y1="617.18" x2="1029.20" y2="619.33" stroke-linecap="round" style="stroke:#E69F00;stroke-width:10.00"/>
	<line x1="1029.20" y1="619.33" x2="1122.63" y2="660.71" stroke-linecap="round" style="stroke:#E69F00;stroke-width:10.00"/>
	<line x1="1122.63" y1="660.71" x2="1216.07" y2="712.92" stroke-linecap="round" style="stroke:#E69F00;stroke-width:10.00"/>
	<line x1="1216.07" y1="712.92" x2="1309.50" y2="647.71" stroke-linecap="round" style="stroke:#E69F00;stroke-width:10.00"/>
	<line x1="1309.50" y1="647.71" x2="1356.30" y2="657.44" stroke-linecap="round" style="stroke:#E69F00;stroke-width:10.00"/>
	<line x1="1356.30" y1="657.44" x2="1403.01" y2="645.80" stroke-linecap="round" style="stroke:#E69F00;stroke-width:10.00"/>
	<line x1="1403.01" y1="645.80" x2="1449.73" y2="617.98" stroke-linecap="round" style="stroke:#E69F00;stroke-width:10.00"/>
	<line x1="1449.73" y1="617.98" x2="1496.45" y2="676.81" stroke-linecap="round" style="stroke:#E69F00;stroke-width:10.00"/>
	<line x1="1496.45" y1="676.81" x2="1543.16" y2="627.71" stroke-linecap="round" style="stroke:#E69F00;stroke-width:10.00"/>
	<line x1="1543.16" y1="627.71" x2="1589.88" y2="604.51" stroke-linecap="round" style="stroke:#E69F00;stroke-width:10.00"/>
	<line x1="1589.88" y1="604.51" x2="1636.60" y2="607.22" stroke-linecap="round" style="stroke:#E69F00;stroke-width:10.00"/>
	<line x1="1636.60" y1="607.22" x2="1683.31" y2="639.66" stroke-linecap="round" style="stroke:#E69F00;stroke-width:10.00"/>
	<line x1="842.25" y1="542.09" x2="935.77" y2="548.31" stroke-linecap="round" style="stroke:#56B4E9;stroke-width:10.00"/>
	<line x1="935.77" y1="548.31" x2="1029.20" y2="546.79" stroke-linecap="round" style="stroke:#56B4E9;stroke-width:10.00"/>
	<line x1="1029.20" y1="546.79" x2="1122.63" y2="595.74" stroke-linecap="round" style="stroke:#56B4E9;stroke-width:10.00"/>
	<line x1="1122.63" y1="595.74" x2="1216.07" y2="603.79" stroke-linecap="round" style="stroke:#56B4E9;stroke-width:10.00"/>
	<line x1="1216.07" y1="603.79" x2="1309.50" y2="539.94" stroke-linecap="round" style="stroke:#56B4E9;stroke-width:10.00"/>
	<line x1="1309.50" y1="539.94" x2="1356.30" y2="615.83" stroke-linecap="round" style="stroke:#56B4E9;stroke-width:10.00"/>
	<line x1="1356.30" y1="615.83" x2="1403.01" y2="582.66" stroke-linecap="round" style="stroke:#56B4E9;stroke-width:10.00"/>
	<line x1="1403.01" y1="582.66" x2="1449.73" y2="531.88" stroke-linecap="round" style="stroke:#56B4E9;stroke-width:10.00"/>
	<line x1="1449.73" y1="531.88" x2="1496.45" y2="567.92" stroke-linecap="round" style="stroke:#56B4E9;stroke-width:10.00"/>
	<line x1="1496.45" y1="567.92" x2="1543.16" y2="540.89" stroke-linecap="round" style="stroke:#56B4E9;stroke-width:10.00"/>
	<line x1="1543.16" y1="540.89" x2="1589.88" y2="573.34" stroke-linecap="round" style="stroke:#56B4E9;stroke-width:10.00"/>
	<line x1="1589.88" y1="573.34" x2="1636.60" y2="607.30" stroke-linecap="round" style="stroke:#56B4E9;stroke-width:10.00"/>
	<line x1="1636.60" y1="607.30" x2="1683.31" y2="601.00" stroke-linecap="round" style="stroke:#56B4E9;stroke-width:10.00"/>
	<line x1="1683.31" y1="601.00" x2="1730.03" y2="667.41" stroke-linecap="round" style="stroke:#56B4E9;stroke-width:10.00"/>
	<line x1="1730.03" y1="667.41" x2="1776.75" y2="598.93" stroke-linecap="round" style="stroke:#56B4E9;stroke-width:10.00"/>
	<line x1="1776.75" y1="598.93" x2="1823.54" y2="697.14" stroke-linecap="round" style="stroke:#56B4E9;stroke-width:10.00"/>
	<line x1="1823.54" y1="697.14" x2="1870.26" y2="684.39" stroke-linecap="round" style="stroke:#56B4E9;stroke-width:10.00"/>
	<line x1="1870.26" y1="684.39" x2="1916.98" y2="572.06" stroke-linecap="round" style="stroke:#56B4E9;stroke-width:10.00"/>
	<line x1="1916.98" y1="572.06" x2="1963.69" y2="674.74" stroke-linecap="round" style="stroke:#56B4E9;stroke-width:10.00"/>
	<line x1="1963.69" y1="674.74" x2="2010.41" y2="624.99" stroke-linecap="round" style="stroke:#56B4E9;stroke-width:10.00"/>
	<line x1="2010.41" y1="624.99" x2="2057.13" y2="643.57" stroke-linecap="round" style="stroke:#56B4E9;stroke-width:10.00"/>
	<line x1="2057.13" y1="643.57" x2="2103.84" y2="669.40" stroke-linecap="round" style="stroke:#56B4E9;stroke-width:10.00"/>
	<line x1="2103.84" y1="669.40" x2="2150.56" y2="677.85" stroke-linecap="round" style="stroke:#56B4E9;stroke-width:10.00"/>
	<line x1="1309.50" y1="621.17" x2="1309.50" y2="621.17" stroke-linecap="round" style="stroke:#009E73;stroke-width:10.00"/>
	<line x1="1309.50" y1="621.17" x2="1356.30" y2="682.47" stroke-linecap="round" style="stroke:#009E73;stroke-width:10.00"/>
	<line x1="1356.30" y1="682.47" x2="1403.01" y2="699.45" stroke-linecap="round" style="stroke:#009E73;stroke-width:10.00"/>
	<line x1="1403.01" y1="699.45" x2="1449.73" y2="652.58" stroke-linecap="round" style="stroke:#009E73;stroke-width:10.00"/>
	<line x1="1449.73" y1="652.58" x2="1496.45" y2="686.94" stroke-linecap="round" style="stroke:#009E73;stroke-width:10.00"/>
	<line x1="1496.45" y1="686.94" x2="1543.16" y2="652.02" stroke-linecap="round" style="stroke:#009E73;stroke-width:10.00"/>
	<line x1="1543.16" y1="652.02" x2="1589.88" y2="608.01" stroke-linecap="round" style="stroke:#009E73;stroke-width:10.00"/>
	<line x1="1589.88" y1="608.01" x2="1636.60" y2="635.04" stroke-linecap="round" style="stroke:#009E73;stroke-width:10.00"/>
	<line x1="1636.60" y1="635.04" x2="1683.31" y2="625.23" stroke-linecap="round" style="stroke:#009E73;stroke-width:10.00"/>
	<line x1="1683.31" y1="625.23" x2="1730.03" y2="611.84" stroke-linecap="round" style="stroke:#009E73;stroke-width:10.00"/>
	<line x1="1730.03" y1="611.84" x2="1776.75" y2="583.62" stroke-linecap="round" style="stroke:#009E73;stroke-width:10.00"/>
	<line x1="1776.75" y1="583.62" x2="1776.75" y2="583.62" stroke-linecap="round" style="stroke:#009E73;stroke-width:10.00"/>
	<line x1="1776.75" y1="583.62" x2="1823.54" y2="703.52" stroke-linecap="round" style="stroke:#009E73;stroke-width:10.00"/>
	<line x1="1823.54" y1="703.52" x2="1870.26" y2="662.78" stroke-linecap="round" style="stroke:#009E73;stroke-width:10.00"/>
	<line x1="1870.26" y1="662.78" x2="1916.98" y2="684.94" stroke-linecap="round" style="stroke:#009E73;stroke-width:10.00"/>
	<line x1="1916.98" y1="684.94" x2="1963.69" y2="767.45" stroke-linecap="round" style="stroke:#009E73;stroke-width:10.00"/>
	<line x1="1963.69" y1="767.45" x2="2010.41" y2="695.23" stroke-linecap="round" style="stroke:#009E73;stroke-width:10.00"/>
	<line x1="2010.41" y1="695.23" x2="2057.13" y2="679.84" stroke-linecap="round" style="stroke:#009E73;stroke-width:10.00"/>
	<line x1="2057.13" y1="679.84" x2="2103.84" y2="693.71" stroke-linecap="round" style="stroke:#009E73;stroke-width:10.00"/>
	<line x1="2103.84" y1="693.71" x2="2150.56" y2="774.87" stroke-linecap="round" style="stroke:#009E73;stroke-width:10.00"/>
	<line x1="2150.56" y1="774.87" x2="2197.28" y2="743.94" stroke-linecap="round" style="stroke:#009E73;stroke-width:10.00"/>
	<line x1="2197.28" y1="743.94" x2="2243.99" y2="722.33" stroke-linecap="round" style="stroke:#009E73;stroke-width:10.00"/>
	<line x1="1730.03" y1="715.48" x2="1776.75" y2="778.53" stroke-linecap="round" style="stroke:#D55E00;stroke-width:10.00"/>
	<line x1="1776.75" y1="778.53" x2="1776.75" y2="778.53" stroke-linecap="round" style="stroke:#D55E00;stroke-width:10.00"/>
	<line x1="1776.75" y1="778.53" x2="1823.54" y2="797.27" stroke-linecap="round" style="stroke:#D55E00;stroke-width:10.00"/>
	<line x1="1823.54" y1="797.27" x2="1823.54" y2="797.27" stroke-linecap="round" style="stroke:#D55E00;stroke-width:10.00"/>
	<line x1="1823.54" y1="797.27" x2="1870.26" y2="761.63" stroke-linecap="round" style="stroke:#D55E00;stroke-width:10.00"/>
	<line x1="1870.26" y1="761.63" x2="1870.26" y2="761.63" stroke-linecap="round" style="stroke:#D55E00;stroke-width:10.00"/>
	<line x1="1870.26" y1="761.63" x2="1916.98" y2="815.20" stroke-linecap="round" style="stroke:#D55E00;stroke-width:10.00"/>
	<line x1="1916.98" y1="815.20" x2="1916.98" y2="815.20" stroke-linecap="round" style="stroke:#D55E00;stroke-width:10.00"/>
	<line x1="1916.98" y1="815.20" x2="1963.69" y2="815.92" stroke-linecap="round" style="stroke:#D55E00;stroke-width:10.00"/>
	<line x1="1963.69" y1="815.92" x2="1963.69" y2="815.92" stroke-linecap="round" style="stroke:#D55E00;stroke-width:10.00"/>
	<line x1="1963.69" y1="815.92" x2="2010.41" y2="770.40" stroke-linecap="round" style="stroke:#D55E00;stroke-width:10.00"/>
	<line x1="2010.41" y1="770.40" x2="2010.41" y2="770.40" stroke-linecap="round" style="stroke:#D55E00;stroke-width:10.00"/>
	<line x1="2010.41" y1="770.40" x2="2057.13" y2="773.51" stroke-linecap="round" style="stroke:#D55E00;stroke-width:10.00"/>
	<line x1="2057.13" y1="773.51" x2="2057.13" y2="773.51" stroke-linecap="round" style="stroke:#D55E00;stroke-width:10.00"/>
	<line x1="2057.13" y1="773.51" x2="2103.84" y2="765.46" stroke-linecap="round" style="stroke:#D55E00;stroke-width:10.00"/>
	<line x1="2103.84" y1="765.46" x2="2103.84" y2="765.46" stroke-linecap="round" style="stroke:#D55E00;stroke-width:10.00"/>
	<line x1="2103.84" y1="765.46" x2="2150.56" y2="759.72" stroke-linecap="round" style="stroke:#D55E00;stroke-width:10.00"/>
	<line x1="2150.56" y1="759.72" x2="2197.28" y2="771.60" stroke-linecap="round" style="stroke:#D55E00;stroke-width:10.00"/>
	<line x1="2197.28" y1="771.60" x2="2243.99" y2="768.57" stroke-linecap="round" style="stroke:#D55E00;stroke-width:10.00"/>
	<line x1="2243.99" y1="768.57" x2="2243.99" y2="768.57" stroke-linecap="round" style="stroke:#D55E00;stroke-width:10.00"/>
	<line x1="2057.13" y1="765.22" x2="2057.13" y2="765.22" stroke-linecap="round" style="stroke:#CC79A7;stroke-width:10.00"/>
	<line x1="2057.13" y1="765.22" x2="2103.84" y2="805.08" stroke-linecap="round" style="stroke:#CC79A7;stroke-width:10.00"/>
	<line x1="2103.84" y1="805.08" x2="2150.56" y2="781.48" stroke-linecap="round" style="stroke:#CC79A7;stroke-width:10.00"/>
	<line x1="2150.56" y1="781.48" x2="2150.56" y2="781.48" stroke-linecap="round" style="stroke:#CC79A7;stroke-width:10.00"/>
	<line x1="2150.56" y1="781.48" x2="2197.28" y2="803.64" stroke-linecap="round" style="stroke:#CC79A7;stroke-width:10.00"/>
	<line x1="2197.28" y1="803.64" x2="2197.28" y2="803.64" stroke-linecap="round" style="stroke:#CC79A7;stroke-width:10.00"/>
	<line x1="2197.28" y1="803.64" x2="2243.99" y2="796.95" stroke-linecap="round" style="stroke:#CC79A7;stroke-width:10.00"/>
	<line x1="2243.99" y1="796.95" x2="2243.99" y2="796.95" stroke-linecap="round" style="stroke:#CC79A7;stroke-width:10.00"/>
	<line x1="421.73" y1="442.12" x2="472.03" y2="450.49" style="stroke:#A0A0A0;stroke-width:10.00"/>
	<line x1="497.22" y1="454.64" x2="515.24" y2="457.67" style="stroke:#A0A0A0;stroke-width:10.00"/>
	<line x1="515.24" y1="457.67" x2="548.00" y2="456.95" style="stroke:#A0A0A0;stroke-width:10.00"/>
	<line x1="573.51" y1="456.47" x2="608.67" y2="455.67" style="stroke:#A0A0A0;stroke-width:10.00"/>
	<line x1="608.67" y1="455.67" x2="624.14" y2="459.10" style="stroke:#A0A0A0;stroke-width:10.00"/>
	<line x1="649.09" y1="464.44" x2="698.92" y2="475.28" style="stroke:#A0A0A0;stroke-width:10.00"/>
	<line x1="723.95" y1="471.93" x2="774.09" y2="462.69" style="stroke:#A0A0A0;stroke-width:10.00"/>
	<line x1="799.21" y1="458.06" x2="842.25" y2="450.09" style="stroke:#A0A0A0;stroke-width:10.00"/>
	<line x1="842.25" y1="450.09" x2="849.35" y2="451.61" style="stroke:#A0A0A0;stroke-width:10.00"/>
	<line x1="874.22" y1="457.03" x2="924.05" y2="467.87" style="stroke:#A0A0A0;stroke-width:10.00"/>
	<line x1="949.16" y1="472.41" x2="999.62" y2="480.07" style="stroke:#A0A0A0;stroke-width:10.00"/>
	<line x1="1024.82" y1="483.89" x2="1029.20" y2="484.53" style="stroke:#A0A0A0;stroke-width:10.00"/>
	<line x1="1029.20" y1="484.53" x2="1074.00" y2="497.29" style="stroke:#A0A0A0;stroke-width:10.00"/>
	<line x1="1098.56" y1="504.22" x2="1122.63" y2="511.08" style="stroke:#A0A0A0;stroke-width:10.00"/>
	<line x1="1122.63" y1="511.08" x2="1146.55" y2="521.28" style="stroke:#A0A0A0;stroke-width:10.00"/>
	<line x1="1169.99" y1="531.33" x2="1216.07" y2="551.02" style="stroke:#A0A0A0;stroke-width:10.00"/>
	<line x1="1216.07" y1="551.02" x2="1216.94" y2="550.94" style="stroke:#A0A0A0;stroke-width:10.00"/>
	<line x1="1242.30" y1="547.59" x2="1292.92" y2="541.05" style="stroke:#A0A0A0;stroke-width:10.00"/>
	<line x1="1318.19" y1="537.86" x2="1356.30" y2="533.24" style="stroke:#A0A0A0;stroke-width:10.00"/>
	<line x1="1356.30" y1="533.24" x2="1368.18" y2="529.09" style="stroke:#A0A0A0;stroke-width:10.00"/>
	<line x1="1392.33" y1="520.72" x2="1403.01" y2="517.06" style="stroke:#A0A0A0;stroke-width:10.00"/>
	<line x1="1403.01" y1="517.06" x2="1442.64" y2="515.86" style="stroke:#A0A0A0;stroke-width:10.00"/>
	<line x1="1467.99" y1="513.15" x2="1496.45" y2="509.24" style="stroke:#A0A0A0;stroke-width:10.00"/>
	<line x1="1496.45" y1="509.24" x2="1518.69" y2="507.25" style="stroke:#A0A0A0;stroke-width:10.00"/>
	<line x1="1544.04" y1="505.10" x2="1589.88" y2="513.39" style="stroke:#A0A0A0;stroke-width:10.00"/>
	<line x1="1589.88" y1="513.39" x2="1594.19" y2="514.74" style="stroke:#A0A0A0;stroke-width:10.00"/>
	<line x1="1618.42" y1="522.64" x2="1636.60" y2="528.46" style="stroke:#A0A0A0;stroke-width:10.00"/>
	<line x1="1636.60" y1="528.46" x2="1667.29" y2="537.46" style="stroke:#A0A0A0;stroke-width:10.00"/>
	<line x1="1692.00" y1="541.05" x2="1730.03" y2="536.35" style="stroke:#A0A0A0;stroke-width:10.00"/>
	<line x1="1730.03" y1="536.35" x2="1740.79" y2="529.57" style="stroke:#A0A0A0;stroke-width:10.00"/>
	<line x1="1762.40" y1="516.02" x2="1776.75" y2="507.01" style="stroke:#A0A0A0;stroke-width:10.00"/>
	<line x1="1776.75" y1="507.01" x2="1800.19" y2="531.72" style="stroke:#A0A0A0;stroke-width:10.00"/>
	<line x1="1817.80" y1="550.30" x2="1823.54" y2="556.36" style="stroke:#A0A0A0;stroke-width:10.00"/>
	<line x1="1823.54" y1="556.36" x2="1864.28" y2="543.84" style="stroke:#A0A0A0;stroke-width:10.00"/>
	<line x1="1889.15" y1="545.75" x2="1916.98" y2="551.26" style="stroke:#A0A0A0;stroke-width:10.00"/>
	<line x1="1916.98" y1="551.26" x2="1931.41" y2="568.79" style="stroke:#A0A0A0;stroke-width:10.00"/>
	<line x1="1947.67" y1="588.40" x2="1963.69" y2="607.86" style="stroke:#A0A0A0;stroke-width:10.00"/>
	<line x1="1963.69" y1="607.86" x2="1987.29" y2="597.25" style="stroke:#A0A0A0;stroke-width:10.00"/>
	<line x1="2010.49" y1="586.81" x2="2057.13" y2="580.99" style="stroke:#A0A0A0;stroke-width:10.00"/>
	<line x1="2057.13" y1="580.99" x2="2061.11" y2="581.71" style="stroke:#A0A0A0;stroke-width:10.00"/>
	<line x1="2086.30" y1="586.09" x2="2103.84" y2="589.12" style="stroke:#A0A0A0;stroke-width:10.00"/>
	<line x1="2103.84" y1="589.12" x2="2134.78" y2="601.16" style="stroke:#A0A0A0;stroke-width:10.00"/>
	<line x1="2159.01" y1="608.25" x2="2197.28" y2="612.24" style="stroke:#A0A0A0;stroke-width:10.00"/>
	<line x1="2197.28" y1="612.24" x2="2209.39" y2="615.59" style="stroke:#A0A0A0;stroke-width:10.00"/>
	<line x1="2233.95" y1="622.44" x2="2243.99" y2="625.31" style="stroke:#A0A0A0;stroke-width:10.00"/>
	<line x1="1122.63" y1="522.40" x2="1138.10" y2="509.08" style="stroke:#A0A0A0;stroke-width:10.00"/>
	<line x1="1153.57" y1="495.77" x2="1155.48" y2="494.18" style="stroke:#A0A0A0;stroke-width:10.00"/>
	<line x1="1170.95" y1="480.86" x2="1186.41" y2="467.55" style="stroke:#A0A0A0;stroke-width:10.00"/>
	<line x1="1201.88" y1="454.24" x2="1203.79" y2="452.56" style="stroke:#A0A0A0;stroke-width:10.00"/>
	<line x1="1220.29" y1="441.80" x2="1240.62" y2="440.61" style="stroke:#A0A0A0;stroke-width:10.00"/>
	<line x1="1261.03" y1="439.33" x2="1263.58" y2="439.17" style="stroke:#A0A0A0;stroke-width:10.00"/>
	<line x1="1283.91" y1="437.97" x2="1304.32" y2="436.78" style="stroke:#A0A0A0;stroke-width:10.00"/>
	<line x1="1324.09" y1="432.24" x2="1326.56" y2="431.52" style="stroke:#A0A0A0;stroke-width:10.00"/>
	<line x1="1346.17" y1="425.86" x2="1356.30" y2="422.91" style="stroke:#A0A0A0;stroke-width:10.00"/>
	<line x1="1356.30" y1="422.91" x2="1366.10" y2="423.71" style="stroke:#A0A0A0;stroke-width:10.00"/>
	<line x1="1386.43" y1="425.46" x2="1388.98" y2="425.70" style="stroke:#A0A0A0;stroke-width:10.00"/>
	<line x1="1409.23" y1="428.25" x2="1429.16" y2="432.63" style="stroke:#A0A0A0;stroke-width:10.00"/>
	<line x1="1449.09" y1="437.02" x2="1449.73" y2="437.18" style="stroke:#A0A0A0;stroke-width:10.00"/>
	<line x1="1449.73" y1="437.18" x2="1451.64" y2="437.26" style="stroke:#A0A0A0;stroke-width:10.00"/>
	<line x1="1472.05" y1="437.90" x2="1492.46" y2="438.53" style="stroke:#A0A0A0;stroke-width:10.00"/>
	<line x1="1512.79" y1="439.97" x2="1515.34" y2="440.21" style="stroke:#A0A0A0;stroke-width:10.00"/>
	<line x1="1535.75" y1="441.96" x2="1543.16" y2="442.60" style="stroke:#A0A0A0;stroke-width:10.00"/>
	<line x1="1543.16" y1="442.60" x2="1555.36" y2="446.90" style="stroke:#A0A0A0;stroke-width:10.00"/>
	<line x1="1574.57" y1="453.84" x2="1576.97" y2="454.64" style="stroke:#A0A0A0;stroke-width:10.00"/>
	<line x1="1596.10" y1="461.81" x2="1614.91" y2="469.62" style="stroke:#A0A0A0;stroke-width:10.00"/>
	<line x1="1633.73" y1="477.44" x2="1636.12" y2="478.47" style="stroke:#A0A0A0;stroke-width:10.00"/>
	<line x1="1655.01" y1="486.20" x2="1673.83" y2="494.02" style="stroke:#A0A0A0;stroke-width:10.00"/>
	<line x1="1693.20" y1="500.39" x2="1695.67" y2="501.03" style="stroke:#A0A0A0;stroke-width:10.00"/>
	<line x1="1715.44" y1="506.05" x2="1730.03" y2="509.72" style="stroke:#A0A0A0;stroke-width:10.00"/>
	<line x1="1730.03" y1="509.72" x2="1734.81" y2="507.41" style="stroke:#A0A0A0;stroke-width:10.00"/>
	<line x1="1753.07" y1="498.32" x2="1755.38" y2="497.21" style="stroke:#A0A0A0;stroke-width:10.00"/>
	<line x1="1773.72" y1="488.20" x2="1776.75" y2="486.68" style="stroke:#A0A0A0;stroke-width:10.00"/>
	<line x1="1776.75" y1="486.68" x2="1791.18" y2="495.61" style="stroke:#A0A0A0;stroke-width:10.00"/>
	<line x1="1808.56" y1="506.37" x2="1810.71" y2="507.65" style="stroke:#A0A0A0;stroke-width:10.00"/>
	<line x1="1828.41" y1="517.77" x2="1847.06" y2="525.98" style="stroke:#A0A0A0;stroke-width:10.00"/>
	<line x1="1865.80" y1="534.20" x2="1868.11" y2="535.23" style="stroke:#A0A0A0;stroke-width:10.00"/>
	<line x1="1886.52" y1="544.16" x2="1904.86" y2="553.17" style="stroke:#A0A0A0;stroke-width:10.00"/>
	<line x1="1922.32" y1="563.45" x2="1924.31" y2="565.05" style="stroke:#A0A0A0;stroke-width:10.00"/>
	<line x1="1940.10" y1="577.88" x2="1955.96" y2="590.80" style="stroke:#A0A0A0;stroke-width:10.00"/>
	<line x1="1974.06" y1="597.89" x2="1976.61" y2="598.13" style="stroke:#A0A0A0;stroke-width:10.00"/>
	<line x1="1996.94" y1="599.64" x2="2010.41" y2="600.76" style="stroke:#A0A0A0;stroke-width:10.00"/>
	<line x1="2010.41" y1="600.76" x2="2017.27" y2="600.12" style="stroke:#A0A0A0;stroke-width:10.00"/>
	<line x1="2037.60" y1="598.45" x2="2040.15" y2="598.29" style="stroke:#A0A0A0;stroke-width:10.00"/>
	<line x1="2060.55" y1="596.93" x2="2080.96" y2="597.25" style="stroke:#A0A0A0;stroke-width:10.00"/>
	<line x1="2101.37" y1="597.57" x2="2103.84" y2="597.65" style="stroke:#A0A0A0;stroke-width:10.00"/>
	<line x1="2103.84" y1="597.65" x2="2103.92" y2="597.65" style="stroke:#A0A0A0;stroke-width:10.00"/>
	<line x1="2122.82" y1="605.22" x2="2141.79" y2="612.88" style="stroke:#A0A0A0;stroke-width:10.00"/>
	<line x1="2161.48" y1="616.78" x2="2164.03" y2="616.86" style="stroke:#A0A0A0;stroke-width:10.00"/>
	<line x1="2184.44" y1="617.50" x2="2197.28" y2="617.98" style="stroke:#A0A0A0;stroke-width:10.00"/>
	<line x1="2197.28" y1="617.98" x2="2204.53" y2="620.21" style="stroke:#A0A0A0;stroke-width:10.00"/>
	<line x1="2224.06" y1="626.27" x2="2226.45" y2="626.99" style="stroke:#A0A0A0;stroke-width:10.00"/>
	<line x1="365.68" y1="1865.82" x2="330.29" y2="1865.82" style="stroke:#000000;stroke-width:4.00"/>
	<text x="312.51" y="1883.33" style="font-family:'Helvetica';font-size:49.99px;fill:#000000" text-anchor="end">20</text>
	<line x1="365.68" y1="1565.52" x2="330.29" y2="1565.52" style="stroke:#000000;stroke-width:4.00"/>
	<text x="312.51" y="1583.03" style="font-family:'Helvetica';font-size:49.99px;fill:#000000" text-anchor="end">25</text>
	<line x1="365.68" y1="1265.22" x2="330.29" y2="1265.22" style="stroke:#000000;stroke-width:4.00"/>
	<text x="312.51" y="1282.73" style="font-family:'Helvetica';font-size:49.99px;fill:#000000" text-anchor="end">30</text>
	<line x1="365.68" y1="964.92" x2="330.29" y2="964.92" style="stroke:#000000;stroke-width:4.00"/>
	<text x="312.51" y="982.43" style="font-family:'Helvetica';font-size:49.99px;fill:#000000" text-anchor="end">35</text>
	<line x1="365.68" y1="664.62" x2="330.29" y2="664.62" style="stroke:#000000;stroke-width:4.00"/>
	<text x="312.51" y="682.13" style="font-family:'Helvetica';font-size:49.99px;fill:#000000" text-anchor="end">40</text>
	<line x1="365.68" y1="364.31" x2="330.29" y2="364.31" style="stroke:#000000;stroke-width:4.00"/>
	<text x="312.51" y="381.83" style="font-family:'Helvetica';font-size:49.99px;fill:#000000" text-anchor="end">45</text>
	<line x1="365.68" y1="1865.82" x2="365.68" y2="364.31" style="stroke:#000000;stroke-width:4.00"/>
	<text x="136.21" y="1076.84" style="font-family:'Helvetica';font-size:60.03px;fill:#000000" transform="rotate(-90 136.21,1076.84)" text-anchor="middle">Weekly working hours (actual)</text>
	<line x1="421.81" y1="1921.94" x2="421.81" y2="1957.33" style="stroke:#000000;stroke-width:4.00"/>
	<text x="421.81" y="2009.98" style="font-family:'Helvetica';font-size:49.99px;fill:#000000" text-anchor="middle">1976</text>
	<line x1="655.39" y1="1921.94" x2="655.39" y2="1957.33" style="stroke:#000000;stroke-width:4.00"/>
	<text x="655.39" y="2009.98" style="font-family:'Helvetica';font-size:49.99px;fill:#000000" text-anchor="middle">1981</text>
	<line x1="889.05" y1="1921.94" x2="889.05" y2="1957.33" style="stroke:#000000;stroke-width:4.00"/>
	<text x="889.05" y="2009.98" style="font-family:'Helvetica';font-size:49.99px;fill:#000000" text-anchor="middle">1986</text>
	<line x1="1122.71" y1="1921.94" x2="1122.71" y2="1957.33" style="stroke:#000000;stroke-width:4.00"/>
	<text x="1122.71" y="2009.98" style="font-family:'Helvetica';font-size:49.99px;fill:#000000" text-anchor="middle">1991</text>
	<line x1="1356.30" y1="1921.94" x2="1356.30" y2="1957.33" style="stroke:#000000;stroke-width:4.00"/>
	<text x="1356.30" y="2009.98" style="font-family:'Helvetica';font-size:49.99px;fill:#000000" text-anchor="middle">1996</text>
	<line x1="1589.96" y1="1921.94" x2="1589.96" y2="1957.33" style="stroke:#000000;stroke-width:4.00"/>
	<text x="1589.96" y="2009.98" style="font-family:'Helvetica';font-size:49.99px;fill:#000000" text-anchor="middle">2001</text>
	<line x1="1823.54" y1="1921.94" x2="1823.54" y2="1957.33" style="stroke:#000000;stroke-width:4.00"/>
	<text x="1823.54" y="2009.98" style="font-family:'Helvetica';font-size:49.99px;fill:#000000" text-anchor="middle">2006</text>
	<line x1="2057.21" y1="1921.94" x2="2057.21" y2="1957.33" style="stroke:#000000;stroke-width:4.00"/>
	<text x="2057.21" y="2009.98" style="font-family:'Helvetica';font-size:49.99px;fill:#000000" text-anchor="middle">2011</text>
	<line x1="2290.79" y1="1921.94" x2="2290.79" y2="1957.33" style="stroke:#000000;stroke-width:4.00"/>
	<text x="2290.79" y="2009.98" style="font-family:'Helvetica';font-size:49.99px;fill:#000000" text-anchor="middle">2016</text>
	<line x1="421.81" y1="1921.94" x2="2290.79" y2="1921.94" style="stroke:#000000;stroke-width:4.00"/>
	<text x="1318.03" y="2152.37" style="font-family:'Helvetica';font-size:60.03px;fill:#000000" text-anchor="middle">Year</text>
	<text x="145.41" y="2396.65" style="font-family:'Helvetica';font-size:60.03px;fill:#000000">Arr. cohort: </text>
	<text x="487.81" y="2396.65" style="font-family:'Helvetica';font-size:60.03px;fill:#000000">1964-73</text>
	<text x="758.23" y="2396.65" style="font-family:'Helvetica';font-size:60.03px;fill:#000000">1974-83</text>
	<text x="1028.72" y="2396.65" style="font-family:'Helvetica';font-size:60.03px;fill:#000000">1984-93</text>
	<text x="1299.14" y="2396.65" style="font-family:'Helvetica';font-size:60.03px;fill:#000000">1994-03</text>
	<text x="1569.55" y="2396.65" style="font-family:'Helvetica';font-size:60.03px;fill:#000000">2004-10</text>
	<text x="1840.05" y="2396.65" style="font-family:'Helvetica';font-size:60.03px;fill:#000000">West G.</text>
	<text x="2110.46" y="2396.65" style="font-family:'Helvetica';font-size:60.03px;fill:#000000">East G.</text>
	<line x1="487.81" y1="2301.32" x2="663.76" y2="2301.32" style="stroke:#E69F00;stroke-width:10.00"/>
	<line x1="758.23" y1="2301.32" x2="934.25" y2="2301.32" style="stroke:#56B4E9;stroke-width:10.00"/>
	<line x1="1028.72" y1="2301.32" x2="1204.67" y2="2301.32" style="stroke:#009E73;stroke-width:10.00"/>
	<line x1="1299.14" y1="2301.32" x2="1475.08" y2="2301.32" style="stroke:#D55E00;stroke-width:10.00"/>
	<line x1="1569.55" y1="2301.32" x2="1745.58" y2="2301.32" style="stroke:#CC79A7;stroke-width:10.00"/>
	<line x1="1840.05" y1="2301.32" x2="1891.07" y2="2301.32" style="stroke:#A0A0A0;stroke-width:10.00"/>
	<line x1="1916.58" y1="2301.32" x2="1967.60" y2="2301.32" style="stroke:#A0A0A0;stroke-width:10.00"/>
	<line x1="1993.11" y1="2301.32" x2="2015.99" y2="2301.32" style="stroke:#A0A0A0;stroke-width:10.00"/>
	<line x1="2110.46" y1="2301.32" x2="2130.87" y2="2301.32" style="stroke:#A0A0A0;stroke-width:10.00"/>
	<line x1="2151.28" y1="2301.32" x2="2153.83" y2="2301.32" style="stroke:#A0A0A0;stroke-width:10.00"/>
	<line x1="2174.24" y1="2301.32" x2="2194.65" y2="2301.32" style="stroke:#A0A0A0;stroke-width:10.00"/>
	<line x1="2215.05" y1="2301.32" x2="2217.61" y2="2301.32" style="stroke:#A0A0A0;stroke-width:10.00"/>
	<line x1="2238.01" y1="2301.32" x2="2258.42" y2="2301.32" style="stroke:#A0A0A0;stroke-width:10.00"/>
	<text x="1356.30" y="239.12" style="font-family:'Helvetica';font-size:60.03px;fill:#000000" text-anchor="middle">Means, including East Germany</text>
	<text x="1356.30" y="154.88" style="font-family:'Helvetica';font-size:90.01px;fill:#000000" text-anchor="middle">Weekly working hours (actual), Men</text>
</svg>
