<?xml version="1.0" encoding="UTF-8" standalone="no"?>
<!-- This is a Stata 15.1 generated SVG file (http://www.stata.com) -->

<svg version="1.1" width="3.54in" height="3.54in" viewBox="0 0 2551 2551" xmlns="http://www.w3.org/2000/svg" xmlns:xlink="http://www.w3.org/1999/xlink">
	<desc>Stata Graph - Graph</desc>
	<rect x="0" y="0" width="2551" height="2551" style="fill:#FFFFFF;stroke:none"/>
	<rect x="0.00" y="0.08" width="2551.00" height="2550.92" style="fill:#FFFFFF"/>
	<rect x="2.55" y="2.63" width="2545.90" height="2545.82" style="fill:none;stroke:#FFFFFF;stroke-width:5.10"/>
	<line x1="365.68" y1="1904.40" x2="2346.91" y2="1904.40" style="stroke:#E8E8E8;stroke-width:4.00"/>
	<line x1="365.68" y1="1574.21" x2="2346.91" y2="1574.21" style="stroke:#E8E8E8;stroke-width:4.00"/>
	<line x1="365.68" y1="1243.93" x2="2346.91" y2="1243.93" style="stroke:#E8E8E8;stroke-width:4.00"/>
	<line x1="365.68" y1="913.74" x2="2346.91" y2="913.74" style="stroke:#E8E8E8;stroke-width:4.00"/>
	<line x1="365.68" y1="583.54" x2="2346.91" y2="583.54" style="stroke:#E8E8E8;stroke-width:4.00"/>
	<line x1="365.68" y1="253.35" x2="2346.91" y2="253.35" style="stroke:#E8E8E8;stroke-width:4.00"/>
	<line x1="421.81" y1="1960.52" x2="421.81" y2="197.22" style="stroke:#E8E8E8;stroke-width:4.00"/>
	<line x1="723.23" y1="1960.52" x2="723.23" y2="197.22" style="stroke:#E8E8E8;stroke-width:4.00"/>
	<line x1="1024.74" y1="1960.52" x2="1024.74" y2="197.22" style="stroke:#E8E8E8;stroke-width:4.00"/>
	<line x1="1326.16" y1="1960.52" x2="1326.16" y2="197.22" style="stroke:#E8E8E8;stroke-width:4.00"/>
	<line x1="1627.59" y1="1960.52" x2="1627.59" y2="197.22" style="stroke:#E8E8E8;stroke-width:4.00"/>
	<line x1="1929.09" y1="1960.52" x2="1929.09" y2="197.22" style="stroke:#E8E8E8;stroke-width:4.00"/>
	<line x1="2230.52" y1="1960.52" x2="2230.52" y2="197.22" style="stroke:#E8E8E8;stroke-width:4.00"/>
	<line x1="1145.28" y1="746.65" x2="1205.54" y2="764.74" stroke-linecap="round" style="stroke:#E69F00;stroke-width:10.00"/>
	<line x1="1205.54" y1="764.74" x2="1265.81" y2="781.00" stroke-linecap="round" style="stroke:#E69F00;stroke-width:10.00"/>
	<line x1="1265.81" y1="781.00" x2="1326.08" y2="775.26" stroke-linecap="round" style="stroke:#E69F00;stroke-width:10.00"/>
	<line x1="1326.08" y1="775.26" x2="1386.43" y2="835.29" stroke-linecap="round" style="stroke:#E69F00;stroke-width:10.00"/>
	<line x1="1386.43" y1="835.29" x2="1446.70" y2="731.66" stroke-linecap="round" style="stroke:#E69F00;stroke-width:10.00"/>
	<line x1="1446.70" y1="731.66" x2="1506.97" y2="778.29" stroke-linecap="round" style="stroke:#E69F00;stroke-width:10.00"/>
	<line x1="1506.97" y1="778.29" x2="1567.24" y2="838.48" stroke-linecap="round" style="stroke:#E69F00;stroke-width:10.00"/>
	<line x1="1567.24" y1="838.48" x2="1627.59" y2="933.67" stroke-linecap="round" style="stroke:#E69F00;stroke-width:10.00"/>
	<line x1="1627.59" y1="933.67" x2="1687.86" y2="840.71" stroke-linecap="round" style="stroke:#E69F00;stroke-width:10.00"/>
	<line x1="1687.86" y1="840.71" x2="1748.13" y2="914.53" stroke-linecap="round" style="stroke:#E69F00;stroke-width:10.00"/>
	<line x1="1748.13" y1="914.53" x2="1808.48" y2="946.10" stroke-linecap="round" style="stroke:#E69F00;stroke-width:10.00"/>
	<line x1="1808.48" y1="946.10" x2="1868.75" y2="956.86" stroke-linecap="round" style="stroke:#E69F00;stroke-width:10.00"/>
	<line x1="1868.75" y1="956.86" x2="1929.01" y2="1008.12" stroke-linecap="round" style="stroke:#E69F00;stroke-width:10.00"/>
	<line x1="1929.01" y1="1008.12" x2="1989.28" y2="1105.14" stroke-linecap="round" style="stroke:#E69F00;stroke-width:10.00"/>
	<line x1="1989.28" y1="1105.14" x2="2049.63" y2="1038.50" stroke-linecap="round" style="stroke:#E69F00;stroke-width:10.00"/>
	<line x1="2049.63" y1="1038.50" x2="2109.90" y2="1037.46" stroke-linecap="round" style="stroke:#E69F00;stroke-width:10.00"/>
	<line x1="2109.90" y1="1037.46" x2="2170.17" y2="1082.90" stroke-linecap="round" style="stroke:#E69F00;stroke-width:10.00"/>
	<line x1="2170.17" y1="1082.90" x2="2230.44" y2="1094.14" stroke-linecap="round" style="stroke:#E69F00;stroke-width:10.00"/>
	<line x1="542.34" y1="853.15" x2="602.61" y2="714.20" stroke-linecap="round" style="stroke:#56B4E9;stroke-width:10.00"/>
	<line x1="602.61" y1="714.20" x2="662.96" y2="831.94" stroke-linecap="round" style="stroke:#56B4E9;stroke-width:10.00"/>
	<line x1="662.96" y1="831.94" x2="723.23" y2="806.83" stroke-linecap="round" style="stroke:#56B4E9;stroke-width:10.00"/>
	<line x1="723.23" y1="806.83" x2="783.50" y2="912.38" stroke-linecap="round" style="stroke:#56B4E9;stroke-width:10.00"/>
	<line x1="783.50" y1="912.38" x2="843.77" y2="835.21" stroke-linecap="round" style="stroke:#56B4E9;stroke-width:10.00"/>
	<line x1="843.77" y1="835.21" x2="904.12" y2="883.36" stroke-linecap="round" style="stroke:#56B4E9;stroke-width:10.00"/>
	<line x1="904.12" y1="883.36" x2="964.39" y2="994.73" stroke-linecap="round" style="stroke:#56B4E9;stroke-width:10.00"/>
	<line x1="964.39" y1="994.73" x2="1024.66" y2="913.74" stroke-linecap="round" style="stroke:#56B4E9;stroke-width:10.00"/>
	<line x1="1024.66" y1="913.74" x2="1084.93" y2="967.15" stroke-linecap="round" style="stroke:#56B4E9;stroke-width:10.00"/>
	<line x1="1084.93" y1="967.15" x2="1145.28" y2="1030.13" stroke-linecap="round" style="stroke:#56B4E9;stroke-width:10.00"/>
	<line x1="1145.28" y1="1030.13" x2="1205.54" y2="1031.88" stroke-linecap="round" style="stroke:#56B4E9;stroke-width:10.00"/>
	<line x1="1205.54" y1="1031.88" x2="1265.81" y2="1061.61" stroke-linecap="round" style="stroke:#56B4E9;stroke-width:10.00"/>
	<line x1="1265.81" y1="1061.61" x2="1326.08" y2="1203.04" stroke-linecap="round" style="stroke:#56B4E9;stroke-width:10.00"/>
	<line x1="1326.08" y1="1203.04" x2="1386.43" y2="1169.00" stroke-linecap="round" style="stroke:#56B4E9;stroke-width:10.00"/>
	<line x1="1386.43" y1="1169.00" x2="1446.70" y2="1169.95" stroke-linecap="round" style="stroke:#56B4E9;stroke-width:10.00"/>
	<line x1="1446.70" y1="1169.95" x2="1506.97" y2="1226.07" stroke-linecap="round" style="stroke:#56B4E9;stroke-width:10.00"/>
	<line x1="1506.97" y1="1226.07" x2="1567.24" y2="1194.90" stroke-linecap="round" style="stroke:#56B4E9;stroke-width:10.00"/>
	<line x1="1567.24" y1="1194.90" x2="1627.59" y2="1207.02" stroke-linecap="round" style="stroke:#56B4E9;stroke-width:10.00"/>
	<line x1="1627.59" y1="1207.02" x2="1687.86" y2="1235.32" stroke-linecap="round" style="stroke:#56B4E9;stroke-width:10.00"/>
	<line x1="1687.86" y1="1235.32" x2="1748.13" y2="1218.10" stroke-linecap="round" style="stroke:#56B4E9;stroke-width:10.00"/>
	<line x1="1748.13" y1="1218.10" x2="1808.48" y2="1243.69" stroke-linecap="round" style="stroke:#56B4E9;stroke-width:10.00"/>
	<line x1="1808.48" y1="1243.69" x2="1868.75" y2="1286.58" stroke-linecap="round" style="stroke:#56B4E9;stroke-width:10.00"/>
	<line x1="1868.75" y1="1286.58" x2="1929.01" y2="1263.62" stroke-linecap="round" style="stroke:#56B4E9;stroke-width:10.00"/>
	<line x1="1929.01" y1="1263.62" x2="1989.28" y2="1259.24" stroke-linecap="round" style="stroke:#56B4E9;stroke-width:10.00"/>
	<line x1="1989.28" y1="1259.24" x2="2049.63" y2="1317.75" stroke-linecap="round" style="stroke:#56B4E9;stroke-width:10.00"/>
	<line x1="2049.63" y1="1317.75" x2="2109.90" y2="1391.57" stroke-linecap="round" style="stroke:#56B4E9;stroke-width:10.00"/>
	<line x1="2109.90" y1="1391.57" x2="2170.17" y2="1279.09" stroke-linecap="round" style="stroke:#56B4E9;stroke-width:10.00"/>
	<line x1="2170.17" y1="1279.09" x2="2230.44" y2="1308.90" stroke-linecap="round" style="stroke:#56B4E9;stroke-width:10.00"/>
	<line x1="482.07" y1="781.24" x2="542.34" y2="991.86" stroke-linecap="round" style="stroke:#009E73;stroke-width:10.00"/>
	<line x1="542.34" y1="991.86" x2="602.61" y2="1073.97" stroke-linecap="round" style="stroke:#009E73;stroke-width:10.00"/>
	<line x1="602.61" y1="1073.97" x2="662.96" y2="1173.06" stroke-linecap="round" style="stroke:#009E73;stroke-width:10.00"/>
	<line x1="662.96" y1="1173.06" x2="723.23" y2="1203.20" stroke-linecap="round" style="stroke:#009E73;stroke-width:10.00"/>
	<line x1="723.23" y1="1203.20" x2="783.50" y2="1279.73" stroke-linecap="round" style="stroke:#009E73;stroke-width:10.00"/>
	<line x1="783.50" y1="1279.73" x2="843.77" y2="1274.94" stroke-linecap="round" style="stroke:#009E73;stroke-width:10.00"/>
	<line x1="843.77" y1="1274.94" x2="904.12" y2="1348.52" stroke-linecap="round" style="stroke:#009E73;stroke-width:10.00"/>
	<line x1="904.12" y1="1348.52" x2="964.39" y2="1322.85" stroke-linecap="round" style="stroke:#009E73;stroke-width:10.00"/>
	<line x1="964.39" y1="1322.85" x2="1024.66" y2="1305.08" stroke-linecap="round" style="stroke:#009E73;stroke-width:10.00"/>
	<line x1="1024.66" y1="1305.08" x2="1084.93" y2="1406.40" stroke-linecap="round" style="stroke:#009E73;stroke-width:10.00"/>
	<line x1="1084.93" y1="1406.40" x2="1145.28" y2="1352.59" stroke-linecap="round" style="stroke:#009E73;stroke-width:10.00"/>
	<line x1="1145.28" y1="1352.59" x2="1205.54" y2="1467.14" stroke-linecap="round" style="stroke:#009E73;stroke-width:10.00"/>
	<line x1="1205.54" y1="1467.14" x2="1265.81" y2="1462.60" stroke-linecap="round" style="stroke:#009E73;stroke-width:10.00"/>
	<line x1="1265.81" y1="1462.60" x2="1326.08" y2="1431.19" stroke-linecap="round" style="stroke:#009E73;stroke-width:10.00"/>
	<line x1="1326.08" y1="1431.19" x2="1386.43" y2="1504.53" stroke-linecap="round" style="stroke:#009E73;stroke-width:10.00"/>
	<line x1="1386.43" y1="1504.53" x2="1446.70" y2="1496.16" stroke-linecap="round" style="stroke:#009E73;stroke-width:10.00"/>
	<line x1="1446.70" y1="1496.16" x2="1506.97" y2="1480.22" stroke-linecap="round" style="stroke:#009E73;stroke-width:10.00"/>
	<line x1="1506.97" y1="1480.22" x2="1567.24" y2="1467.62" stroke-linecap="round" style="stroke:#009E73;stroke-width:10.00"/>
	<line x1="1567.24" y1="1467.62" x2="1627.59" y2="1483.65" stroke-linecap="round" style="stroke:#009E73;stroke-width:10.00"/>
	<line x1="1627.59" y1="1483.65" x2="1687.86" y2="1499.83" stroke-linecap="round" style="stroke:#009E73;stroke-width:10.00"/>
	<line x1="1687.86" y1="1499.83" x2="1748.13" y2="1457.18" stroke-linecap="round" style="stroke:#009E73;stroke-width:10.00"/>
	<line x1="482.07" y1="1203.75" x2="542.34" y2="1288.89" stroke-linecap="round" style="stroke:#D55E00;stroke-width:10.00"/>
	<line x1="542.34" y1="1288.89" x2="602.61" y2="1384.63" stroke-linecap="round" style="stroke:#D55E00;stroke-width:10.00"/>
	<line x1="602.61" y1="1384.63" x2="662.96" y2="1453.19" stroke-linecap="round" style="stroke:#D55E00;stroke-width:10.00"/>
	<line x1="662.96" y1="1453.19" x2="723.23" y2="1476.87" stroke-linecap="round" style="stroke:#D55E00;stroke-width:10.00"/>
	<line x1="723.23" y1="1476.87" x2="783.50" y2="1454.39" stroke-linecap="round" style="stroke:#D55E00;stroke-width:10.00"/>
	<line x1="783.50" y1="1454.39" x2="843.77" y2="1518.88" stroke-linecap="round" style="stroke:#D55E00;stroke-width:10.00"/>
	<line x1="843.77" y1="1518.88" x2="904.12" y2="1507.96" stroke-linecap="round" style="stroke:#D55E00;stroke-width:10.00"/>
	<line x1="904.12" y1="1507.96" x2="964.39" y2="1484.44" stroke-linecap="round" style="stroke:#D55E00;stroke-width:10.00"/>
	<line x1="964.39" y1="1484.44" x2="1024.66" y2="1483.57" stroke-linecap="round" style="stroke:#D55E00;stroke-width:10.00"/>
	<line x1="1024.66" y1="1483.57" x2="1084.93" y2="1521.75" stroke-linecap="round" style="stroke:#D55E00;stroke-width:10.00"/>
	<line x1="1084.93" y1="1521.75" x2="1145.28" y2="1517.77" stroke-linecap="round" style="stroke:#D55E00;stroke-width:10.00"/>
	<line x1="482.07" y1="1175.69" x2="542.34" y2="1308.66" stroke-linecap="round" style="stroke:#CC79A7;stroke-width:10.00"/>
	<line x1="542.34" y1="1308.66" x2="602.61" y2="1428.32" stroke-linecap="round" style="stroke:#CC79A7;stroke-width:10.00"/>
	<line x1="602.61" y1="1428.32" x2="662.96" y2="1446.18" stroke-linecap="round" style="stroke:#CC79A7;stroke-width:10.00"/>
	<line x1="662.96" y1="1446.18" x2="723.23" y2="1391.97" stroke-linecap="round" style="stroke:#CC79A7;stroke-width:10.00"/>
	<line x1="365.68" y1="1904.40" x2="330.29" y2="1904.40" style="stroke:#000000;stroke-width:4.00"/>
	<text x="312.51" y="1921.92" style="font-family:'Helvetica';font-size:49.99px;fill:#000000" text-anchor="end">20</text>
	<line x1="365.68" y1="1574.21" x2="330.29" y2="1574.21" style="stroke:#000000;stroke-width:4.00"/>
	<text x="312.51" y="1591.72" style="font-family:'Helvetica';font-size:49.99px;fill:#000000" text-anchor="end">25</text>
	<line x1="365.68" y1="1243.93" x2="330.29" y2="1243.93" style="stroke:#000000;stroke-width:4.00"/>
	<text x="312.51" y="1261.45" style="font-family:'Helvetica';font-size:49.99px;fill:#000000" text-anchor="end">30</text>
	<line x1="365.68" y1="913.74" x2="330.29" y2="913.74" style="stroke:#000000;stroke-width:4.00"/>
	<text x="312.51" y="931.25" style="font-family:'Helvetica';font-size:49.99px;fill:#000000" text-anchor="end">35</text>
	<line x1="365.68" y1="583.54" x2="330.29" y2="583.54" style="stroke:#000000;stroke-width:4.00"/>
	<text x="312.51" y="601.06" style="font-family:'Helvetica';font-size:49.99px;fill:#000000" text-anchor="end">40</text>
	<line x1="365.68" y1="253.35" x2="330.29" y2="253.35" style="stroke:#000000;stroke-width:4.00"/>
	<text x="312.51" y="270.86" style="font-family:'Helvetica';font-size:49.99px;fill:#000000" text-anchor="end">45</text>
	<line x1="365.68" y1="1904.40" x2="365.68" y2="253.35" style="stroke:#000000;stroke-width:4.00"/>
	<text x="136.21" y="1040.57" style="font-family:'Helvetica';font-size:60.03px;fill:#000000" transform="rotate(-90 136.21,1040.57)" text-anchor="middle">Weekly working hours (actual)</text>
	<line x1="421.81" y1="1960.52" x2="421.81" y2="1995.92" style="stroke:#000000;stroke-width:4.00"/>
	<text x="421.81" y="2048.56" style="font-family:'Helvetica';font-size:49.99px;fill:#000000" text-anchor="middle">0</text>
	<line x1="723.23" y1="1960.52" x2="723.23" y2="1995.92" style="stroke:#000000;stroke-width:4.00"/>
	<text x="723.23" y="2048.56" style="font-family:'Helvetica';font-size:49.99px;fill:#000000" text-anchor="middle">5</text>
	<line x1="1024.74" y1="1960.52" x2="1024.74" y2="1995.92" style="stroke:#000000;stroke-width:4.00"/>
	<text x="1024.74" y="2048.56" style="font-family:'Helvetica';font-size:49.99px;fill:#000000" text-anchor="middle">10</text>
	<line x1="1326.16" y1="1960.52" x2="1326.16" y2="1995.92" style="stroke:#000000;stroke-width:4.00"/>
	<text x="1326.16" y="2048.56" style="font-family:'Helvetica';font-size:49.99px;fill:#000000" text-anchor="middle">15</text>
	<line x1="1627.59" y1="1960.52" x2="1627.59" y2="1995.92" style="stroke:#000000;stroke-width:4.00"/>
	<text x="1627.59" y="2048.56" style="font-family:'Helvetica';font-size:49.99px;fill:#000000" text-anchor="middle">20</text>
	<line x1="1929.09" y1="1960.52" x2="1929.09" y2="1995.92" style="stroke:#000000;stroke-width:4.00"/>
	<text x="1929.09" y="2048.56" style="font-family:'Helvetica';font-size:49.99px;fill:#000000" text-anchor="middle">25</text>
	<line x1="2230.52" y1="1960.52" x2="2230.52" y2="1995.92" style="stroke:#000000;stroke-width:4.00"/>
	<text x="2230.52" y="2048.56" style="font-family:'Helvetica';font-size:49.99px;fill:#000000" text-anchor="middle">30</text>
	<line x1="421.81" y1="1960.52" x2="2290.79" y2="1960.52" style="stroke:#000000;stroke-width:4.00"/>
	<text x="1318.03" y="2190.96" style="font-family:'Helvetica';font-size:60.03px;fill:#000000" text-anchor="middle">Duration of stay</text>
	<text x="161.52" y="2396.65" style="font-family:'Helvetica';font-size:60.03px;fill:#000000">Arr. cohort: </text>
	<text x="610.98" y="2396.65" style="font-family:'Helvetica';font-size:60.03px;fill:#000000">1964-73</text>
	<text x="965.98" y="2396.65" style="font-family:'Helvetica';font-size:60.03px;fill:#000000">1974-83</text>
	<text x="1320.98" y="2396.65" style="font-family:'Helvetica';font-size:60.03px;fill:#000000">1984-93</text>
	<text x="1675.98" y="2396.65" style="font-family:'Helvetica';font-size:60.03px;fill:#000000">1994-03</text>
	<text x="2030.98" y="2396.65" style="font-family:'Helvetica';font-size:60.03px;fill:#000000">2004-10</text>
	<line x1="610.98" y1="2320.61" x2="831.01" y2="2320.61" style="stroke:#E69F00;stroke-width:10.00"/>
	<line x1="965.98" y1="2320.61" x2="1185.93" y2="2320.61" style="stroke:#56B4E9;stroke-width:10.00"/>
	<line x1="1320.98" y1="2320.61" x2="1540.93" y2="2320.61" style="stroke:#009E73;stroke-width:10.00"/>
	<line x1="1675.98" y1="2320.61" x2="1895.93" y2="2320.61" style="stroke:#D55E00;stroke-width:10.00"/>
	<line x1="2030.98" y1="2320.61" x2="2250.93" y2="2320.61" style="stroke:#CC79A7;stroke-width:10.00"/>
	<text x="1356.30" y="154.88" style="font-family:'Helvetica';font-size:90.01px;fill:#000000" text-anchor="middle">Women</text>
</svg>
