<?xml version="1.0" encoding="UTF-8" standalone="no"?>
<!-- This is a Stata 15.1 generated SVG file (http://www.stata.com) -->

<svg version="1.1" width="3.54in" height="3.54in" viewBox="0 0 2551 2551" xmlns="http://www.w3.org/2000/svg" xmlns:xlink="http://www.w3.org/1999/xlink">
	<desc>Stata Graph - Graph</desc>
	<rect x="0" y="0" width="2551" height="2551" style="fill:#FFFFFF;stroke:none"/>
	<rect x="0.00" y="0.08" width="2551.00" height="2550.92" style="fill:#FFFFFF"/>
	<rect x="2.55" y="2.63" width="2545.90" height="2545.82" style="fill:none;stroke:#FFFFFF;stroke-width:5.10"/>
	<line x1="365.68" y1="1904.40" x2="2346.91" y2="1904.40" style="stroke:#E8E8E8;stroke-width:4.00"/>
	<line x1="365.68" y1="1574.21" x2="2346.91" y2="1574.21" style="stroke:#E8E8E8;stroke-width:4.00"/>
	<line x1="365.68" y1="1243.93" x2="2346.91" y2="1243.93" style="stroke:#E8E8E8;stroke-width:4.00"/>
	<line x1="365.68" y1="913.74" x2="2346.91" y2="913.74" style="stroke:#E8E8E8;stroke-width:4.00"/>
	<line x1="365.68" y1="583.54" x2="2346.91" y2="583.54" style="stroke:#E8E8E8;stroke-width:4.00"/>
	<line x1="365.68" y1="253.35" x2="2346.91" y2="253.35" style="stroke:#E8E8E8;stroke-width:4.00"/>
	<line x1="421.81" y1="1960.52" x2="421.81" y2="197.22" style="stroke:#E8E8E8;stroke-width:4.00"/>
	<line x1="723.23" y1="1960.52" x2="723.23" y2="197.22" style="stroke:#E8E8E8;stroke-width:4.00"/>
	<line x1="1024.74" y1="1960.52" x2="1024.74" y2="197.22" style="stroke:#E8E8E8;stroke-width:4.00"/>
	<line x1="1326.16" y1="1960.52" x2="1326.16" y2="197.22" style="stroke:#E8E8E8;stroke-width:4.00"/>
	<line x1="1627.59" y1="1960.52" x2="1627.59" y2="197.22" style="stroke:#E8E8E8;stroke-width:4.00"/>
	<line x1="1929.09" y1="1960.52" x2="1929.09" y2="197.22" style="stroke:#E8E8E8;stroke-width:4.00"/>
	<line x1="2230.52" y1="1960.52" x2="2230.52" y2="197.22" style="stroke:#E8E8E8;stroke-width:4.00"/>
	<line x1="1145.28" y1="466.43" x2="1205.54" y2="481.26" stroke-linecap="round" style="stroke:#E69F00;stroke-width:10.00"/>
	<line x1="1205.54" y1="481.26" x2="1265.81" y2="507.57" stroke-linecap="round" style="stroke:#E69F00;stroke-width:10.00"/>
	<line x1="1265.81" y1="507.57" x2="1326.08" y2="511.24" stroke-linecap="round" style="stroke:#E69F00;stroke-width:10.00"/>
	<line x1="1326.08" y1="511.24" x2="1386.43" y2="523.27" stroke-linecap="round" style="stroke:#E69F00;stroke-width:10.00"/>
	<line x1="1386.43" y1="523.27" x2="1446.70" y2="496.33" stroke-linecap="round" style="stroke:#E69F00;stroke-width:10.00"/>
	<line x1="1446.70" y1="496.33" x2="1506.97" y2="552.93" stroke-linecap="round" style="stroke:#E69F00;stroke-width:10.00"/>
	<line x1="1506.97" y1="552.93" x2="1567.24" y2="533.00" stroke-linecap="round" style="stroke:#E69F00;stroke-width:10.00"/>
	<line x1="1567.24" y1="533.00" x2="1627.59" y2="548.31" stroke-linecap="round" style="stroke:#E69F00;stroke-width:10.00"/>
	<line x1="1627.59" y1="548.31" x2="1687.86" y2="582.19" stroke-linecap="round" style="stroke:#E69F00;stroke-width:10.00"/>
	<line x1="1687.86" y1="582.19" x2="1748.13" y2="584.98" stroke-linecap="round" style="stroke:#E69F00;stroke-width:10.00"/>
	<line x1="1748.13" y1="584.98" x2="1808.48" y2="621.17" stroke-linecap="round" style="stroke:#E69F00;stroke-width:10.00"/>
	<line x1="1808.48" y1="621.17" x2="1868.75" y2="599.41" stroke-linecap="round" style="stroke:#E69F00;stroke-width:10.00"/>
	<line x1="1868.75" y1="599.41" x2="1929.01" y2="582.74" stroke-linecap="round" style="stroke:#E69F00;stroke-width:10.00"/>
	<line x1="1929.01" y1="582.74" x2="1989.28" y2="585.37" stroke-linecap="round" style="stroke:#E69F00;stroke-width:10.00"/>
	<line x1="1989.28" y1="585.37" x2="2049.63" y2="543.28" stroke-linecap="round" style="stroke:#E69F00;stroke-width:10.00"/>
	<line x1="2049.63" y1="543.28" x2="2109.90" y2="583.62" stroke-linecap="round" style="stroke:#E69F00;stroke-width:10.00"/>
	<line x1="2109.90" y1="583.62" x2="2170.17" y2="530.21" stroke-linecap="round" style="stroke:#E69F00;stroke-width:10.00"/>
	<line x1="2170.17" y1="530.21" x2="2230.44" y2="493.94" stroke-linecap="round" style="stroke:#E69F00;stroke-width:10.00"/>
	<line x1="542.34" y1="441.08" x2="602.61" y2="419.16" stroke-linecap="round" style="stroke:#56B4E9;stroke-width:10.00"/>
	<line x1="602.61" y1="419.16" x2="662.96" y2="483.57" stroke-linecap="round" style="stroke:#56B4E9;stroke-width:10.00"/>
	<line x1="662.96" y1="483.57" x2="723.23" y2="488.12" stroke-linecap="round" style="stroke:#56B4E9;stroke-width:10.00"/>
	<line x1="723.23" y1="488.12" x2="783.50" y2="417.49" stroke-linecap="round" style="stroke:#56B4E9;stroke-width:10.00"/>
	<line x1="783.50" y1="417.49" x2="843.77" y2="495.45" stroke-linecap="round" style="stroke:#56B4E9;stroke-width:10.00"/>
	<line x1="843.77" y1="495.45" x2="904.12" y2="460.38" stroke-linecap="round" style="stroke:#56B4E9;stroke-width:10.00"/>
	<line x1="904.12" y1="460.38" x2="964.39" y2="436.94" stroke-linecap="round" style="stroke:#56B4E9;stroke-width:10.00"/>
	<line x1="964.39" y1="436.94" x2="1024.66" y2="468.83" stroke-linecap="round" style="stroke:#56B4E9;stroke-width:10.00"/>
	<line x1="1024.66" y1="468.83" x2="1084.93" y2="477.36" stroke-linecap="round" style="stroke:#56B4E9;stroke-width:10.00"/>
	<line x1="1084.93" y1="477.36" x2="1145.28" y2="463.25" stroke-linecap="round" style="stroke:#56B4E9;stroke-width:10.00"/>
	<line x1="1145.28" y1="463.25" x2="1205.54" y2="460.77" stroke-linecap="round" style="stroke:#56B4E9;stroke-width:10.00"/>
	<line x1="1205.54" y1="460.77" x2="1265.81" y2="527.74" stroke-linecap="round" style="stroke:#56B4E9;stroke-width:10.00"/>
	<line x1="1265.81" y1="527.74" x2="1326.08" y2="508.84" stroke-linecap="round" style="stroke:#56B4E9;stroke-width:10.00"/>
	<line x1="1326.08" y1="508.84" x2="1386.43" y2="488.04" stroke-linecap="round" style="stroke:#56B4E9;stroke-width:10.00"/>
	<line x1="1386.43" y1="488.04" x2="1446.70" y2="505.02" stroke-linecap="round" style="stroke:#56B4E9;stroke-width:10.00"/>
	<line x1="1446.70" y1="505.02" x2="1506.97" y2="487.24" stroke-linecap="round" style="stroke:#56B4E9;stroke-width:10.00"/>
	<line x1="1506.97" y1="487.24" x2="1567.24" y2="531.17" stroke-linecap="round" style="stroke:#56B4E9;stroke-width:10.00"/>
	<line x1="1567.24" y1="531.17" x2="1627.59" y2="496.57" stroke-linecap="round" style="stroke:#56B4E9;stroke-width:10.00"/>
	<line x1="1627.59" y1="496.57" x2="1687.86" y2="447.14" stroke-linecap="round" style="stroke:#56B4E9;stroke-width:10.00"/>
	<line x1="1687.86" y1="447.14" x2="1748.13" y2="485.65" stroke-linecap="round" style="stroke:#56B4E9;stroke-width:10.00"/>
	<line x1="1748.13" y1="485.65" x2="1808.48" y2="541.53" stroke-linecap="round" style="stroke:#56B4E9;stroke-width:10.00"/>
	<line x1="1808.48" y1="541.53" x2="1868.75" y2="500.08" stroke-linecap="round" style="stroke:#56B4E9;stroke-width:10.00"/>
	<line x1="1868.75" y1="500.08" x2="1929.01" y2="470.58" stroke-linecap="round" style="stroke:#56B4E9;stroke-width:10.00"/>
	<line x1="1929.01" y1="470.58" x2="1989.28" y2="593.35" stroke-linecap="round" style="stroke:#56B4E9;stroke-width:10.00"/>
	<line x1="1989.28" y1="593.35" x2="2049.63" y2="520.64" stroke-linecap="round" style="stroke:#56B4E9;stroke-width:10.00"/>
	<line x1="2049.63" y1="520.64" x2="2109.90" y2="580.59" stroke-linecap="round" style="stroke:#56B4E9;stroke-width:10.00"/>
	<line x1="2109.90" y1="580.59" x2="2170.17" y2="577.40" stroke-linecap="round" style="stroke:#56B4E9;stroke-width:10.00"/>
	<line x1="2170.17" y1="577.40" x2="2230.44" y2="531.25" stroke-linecap="round" style="stroke:#56B4E9;stroke-width:10.00"/>
	<line x1="482.07" y1="458.54" x2="542.34" y2="533.00" stroke-linecap="round" style="stroke:#009E73;stroke-width:10.00"/>
	<line x1="542.34" y1="533.00" x2="602.61" y2="607.54" stroke-linecap="round" style="stroke:#009E73;stroke-width:10.00"/>
	<line x1="602.61" y1="607.54" x2="662.96" y2="602.20" stroke-linecap="round" style="stroke:#009E73;stroke-width:10.00"/>
	<line x1="662.96" y1="602.20" x2="723.23" y2="568.31" stroke-linecap="round" style="stroke:#009E73;stroke-width:10.00"/>
	<line x1="723.23" y1="568.31" x2="783.50" y2="642.85" stroke-linecap="round" style="stroke:#009E73;stroke-width:10.00"/>
	<line x1="783.50" y1="642.85" x2="843.77" y2="591.99" stroke-linecap="round" style="stroke:#009E73;stroke-width:10.00"/>
	<line x1="843.77" y1="591.99" x2="904.12" y2="618.86" stroke-linecap="round" style="stroke:#009E73;stroke-width:10.00"/>
	<line x1="904.12" y1="618.86" x2="964.39" y2="586.73" stroke-linecap="round" style="stroke:#009E73;stroke-width:10.00"/>
	<line x1="964.39" y1="586.73" x2="1024.66" y2="576.92" stroke-linecap="round" style="stroke:#009E73;stroke-width:10.00"/>
	<line x1="1024.66" y1="576.92" x2="1084.93" y2="570.23" stroke-linecap="round" style="stroke:#009E73;stroke-width:10.00"/>
	<line x1="1084.93" y1="570.23" x2="1145.28" y2="498.72" stroke-linecap="round" style="stroke:#009E73;stroke-width:10.00"/>
	<line x1="1145.28" y1="498.72" x2="1205.54" y2="492.82" stroke-linecap="round" style="stroke:#009E73;stroke-width:10.00"/>
	<line x1="1205.54" y1="492.82" x2="1265.81" y2="540.97" stroke-linecap="round" style="stroke:#009E73;stroke-width:10.00"/>
	<line x1="1265.81" y1="540.97" x2="1326.08" y2="577.96" stroke-linecap="round" style="stroke:#009E73;stroke-width:10.00"/>
	<line x1="1326.08" y1="577.96" x2="1386.43" y2="628.90" stroke-linecap="round" style="stroke:#009E73;stroke-width:10.00"/>
	<line x1="1386.43" y1="628.90" x2="1446.70" y2="592.63" stroke-linecap="round" style="stroke:#009E73;stroke-width:10.00"/>
	<line x1="1446.70" y1="592.63" x2="1506.97" y2="601.32" stroke-linecap="round" style="stroke:#009E73;stroke-width:10.00"/>
	<line x1="1506.97" y1="601.32" x2="1567.24" y2="615.03" stroke-linecap="round" style="stroke:#009E73;stroke-width:10.00"/>
	<line x1="1567.24" y1="615.03" x2="1627.59" y2="617.90" stroke-linecap="round" style="stroke:#009E73;stroke-width:10.00"/>
	<line x1="1627.59" y1="617.90" x2="1687.86" y2="634.32" stroke-linecap="round" style="stroke:#009E73;stroke-width:10.00"/>
	<line x1="1687.86" y1="634.32" x2="1748.13" y2="637.83" stroke-linecap="round" style="stroke:#009E73;stroke-width:10.00"/>
	<line x1="482.07" y1="616.31" x2="542.34" y2="691.24" stroke-linecap="round" style="stroke:#D55E00;stroke-width:10.00"/>
	<line x1="542.34" y1="691.24" x2="602.61" y2="713.56" stroke-linecap="round" style="stroke:#D55E00;stroke-width:10.00"/>
	<line x1="602.61" y1="713.56" x2="662.96" y2="710.61" stroke-linecap="round" style="stroke:#D55E00;stroke-width:10.00"/>
	<line x1="662.96" y1="710.61" x2="723.23" y2="746.65" stroke-linecap="round" style="stroke:#D55E00;stroke-width:10.00"/>
	<line x1="723.23" y1="746.65" x2="783.50" y2="704.08" stroke-linecap="round" style="stroke:#D55E00;stroke-width:10.00"/>
	<line x1="783.50" y1="704.08" x2="843.77" y2="711.89" stroke-linecap="round" style="stroke:#D55E00;stroke-width:10.00"/>
	<line x1="843.77" y1="711.89" x2="904.12" y2="734.77" stroke-linecap="round" style="stroke:#D55E00;stroke-width:10.00"/>
	<line x1="904.12" y1="734.77" x2="964.39" y2="733.89" stroke-linecap="round" style="stroke:#D55E00;stroke-width:10.00"/>
	<line x1="964.39" y1="733.89" x2="1024.66" y2="682.31" stroke-linecap="round" style="stroke:#D55E00;stroke-width:10.00"/>
	<line x1="1024.66" y1="682.31" x2="1084.93" y2="654.41" stroke-linecap="round" style="stroke:#D55E00;stroke-width:10.00"/>
	<line x1="1084.93" y1="654.41" x2="1145.28" y2="695.71" stroke-linecap="round" style="stroke:#D55E00;stroke-width:10.00"/>
	<line x1="482.07" y1="715.16" x2="542.34" y2="804.92" stroke-linecap="round" style="stroke:#CC79A7;stroke-width:10.00"/>
	<line x1="542.34" y1="804.92" x2="602.61" y2="740.27" stroke-linecap="round" style="stroke:#CC79A7;stroke-width:10.00"/>
	<line x1="602.61" y1="740.27" x2="662.96" y2="768.25" stroke-linecap="round" style="stroke:#CC79A7;stroke-width:10.00"/>
	<line x1="662.96" y1="768.25" x2="723.23" y2="762.27" stroke-linecap="round" style="stroke:#CC79A7;stroke-width:10.00"/>
	<line x1="365.68" y1="1904.40" x2="330.29" y2="1904.40" style="stroke:#000000;stroke-width:4.00"/>
	<text x="312.51" y="1921.92" style="font-family:'Helvetica';font-size:49.99px;fill:#000000" text-anchor="end">20</text>
	<line x1="365.68" y1="1574.21" x2="330.29" y2="1574.21" style="stroke:#000000;stroke-width:4.00"/>
	<text x="312.51" y="1591.72" style="font-family:'Helvetica';font-size:49.99px;fill:#000000" text-anchor="end">25</text>
	<line x1="365.68" y1="1243.93" x2="330.29" y2="1243.93" style="stroke:#000000;stroke-width:4.00"/>
	<text x="312.51" y="1261.45" style="font-family:'Helvetica';font-size:49.99px;fill:#000000" text-anchor="end">30</text>
	<line x1="365.68" y1="913.74" x2="330.29" y2="913.74" style="stroke:#000000;stroke-width:4.00"/>
	<text x="312.51" y="931.25" style="font-family:'Helvetica';font-size:49.99px;fill:#000000" text-anchor="end">35</text>
	<line x1="365.68" y1="583.54" x2="330.29" y2="583.54" style="stroke:#000000;stroke-width:4.00"/>
	<text x="312.51" y="601.06" style="font-family:'Helvetica';font-size:49.99px;fill:#000000" text-anchor="end">40</text>
	<line x1="365.68" y1="253.35" x2="330.29" y2="253.35" style="stroke:#000000;stroke-width:4.00"/>
	<text x="312.51" y="270.86" style="font-family:'Helvetica';font-size:49.99px;fill:#000000" text-anchor="end">45</text>
	<line x1="365.68" y1="1904.40" x2="365.68" y2="253.35" style="stroke:#000000;stroke-width:4.00"/>
	<text x="136.21" y="1040.57" style="font-family:'Helvetica';font-size:60.03px;fill:#000000" transform="rotate(-90 136.21,1040.57)" text-anchor="middle">Weekly working hours (actual)</text>
	<line x1="421.81" y1="1960.52" x2="421.81" y2="1995.92" style="stroke:#000000;stroke-width:4.00"/>
	<text x="421.81" y="2048.56" style="font-family:'Helvetica';font-size:49.99px;fill:#000000" text-anchor="middle">0</text>
	<line x1="723.23" y1="1960.52" x2="723.23" y2="1995.92" style="stroke:#000000;stroke-width:4.00"/>
	<text x="723.23" y="2048.56" style="font-family:'Helvetica';font-size:49.99px;fill:#000000" text-anchor="middle">5</text>
	<line x1="1024.74" y1="1960.52" x2="1024.74" y2="1995.92" style="stroke:#000000;stroke-width:4.00"/>
	<text x="1024.74" y="2048.56" style="font-family:'Helvetica';font-size:49.99px;fill:#000000" text-anchor="middle">10</text>
	<line x1="1326.16" y1="1960.52" x2="1326.16" y2="1995.92" style="stroke:#000000;stroke-width:4.00"/>
	<text x="1326.16" y="2048.56" style="font-family:'Helvetica';font-size:49.99px;fill:#000000" text-anchor="middle">15</text>
	<line x1="1627.59" y1="1960.52" x2="1627.59" y2="1995.92" style="stroke:#000000;stroke-width:4.00"/>
	<text x="1627.59" y="2048.56" style="font-family:'Helvetica';font-size:49.99px;fill:#000000" text-anchor="middle">20</text>
	<line x1="1929.09" y1="1960.52" x2="1929.09" y2="1995.92" style="stroke:#000000;stroke-width:4.00"/>
	<text x="1929.09" y="2048.56" style="font-family:'Helvetica';font-size:49.99px;fill:#000000" text-anchor="middle">25</text>
	<line x1="2230.52" y1="1960.52" x2="2230.52" y2="1995.92" style="stroke:#000000;stroke-width:4.00"/>
	<text x="2230.52" y="2048.56" style="font-family:'Helvetica';font-size:49.99px;fill:#000000" text-anchor="middle">30</text>
	<line x1="421.81" y1="1960.52" x2="2290.79" y2="1960.52" style="stroke:#000000;stroke-width:4.00"/>
	<text x="1318.03" y="2190.96" style="font-family:'Helvetica';font-size:60.03px;fill:#000000" text-anchor="middle">Duration of stay</text>
	<text x="161.52" y="2396.65" style="font-family:'Helvetica';font-size:60.03px;fill:#000000">Arr. cohort: </text>
	<text x="610.98" y="2396.65" style="font-family:'Helvetica';font-size:60.03px;fill:#000000">1964-73</text>
	<text x="965.98" y="2396.65" style="font-family:'Helvetica';font-size:60.03px;fill:#000000">1974-83</text>
	<text x="1320.98" y="2396.65" style="font-family:'Helvetica';font-size:60.03px;fill:#000000">1984-93</text>
	<text x="1675.98" y="2396.65" style="font-family:'Helvetica';font-size:60.03px;fill:#000000">1994-03</text>
	<text x="2030.98" y="2396.65" style="font-family:'Helvetica';font-size:60.03px;fill:#000000">2004-10</text>
	<line x1="610.98" y1="2320.61" x2="831.01" y2="2320.61" style="stroke:#E69F00;stroke-width:10.00"/>
	<line x1="965.98" y1="2320.61" x2="1185.93" y2="2320.61" style="stroke:#56B4E9;stroke-width:10.00"/>
	<line x1="1320.98" y1="2320.61" x2="1540.93" y2="2320.61" style="stroke:#009E73;stroke-width:10.00"/>
	<line x1="1675.98" y1="2320.61" x2="1895.93" y2="2320.61" style="stroke:#D55E00;stroke-width:10.00"/>
	<line x1="2030.98" y1="2320.61" x2="2250.93" y2="2320.61" style="stroke:#CC79A7;stroke-width:10.00"/>
	<text x="1356.30" y="154.88" style="font-family:'Helvetica';font-size:90.01px;fill:#000000" text-anchor="middle">Men</text>
</svg>
