<?xml version="1.0" encoding="UTF-8" standalone="no"?>
<!-- This is a Stata 15.1 generated SVG file (http://www.stata.com) -->

<svg version="1.1" width="3.54in" height="3.54in" viewBox="0 0 2551 2551" xmlns="http://www.w3.org/2000/svg" xmlns:xlink="http://www.w3.org/1999/xlink">
	<desc>Stata Graph - Graph</desc>
	<rect x="0" y="0" width="2551" height="2551" style="fill:#FFFFFF;stroke:none"/>
	<rect x="0.00" y="0.08" width="2551.00" height="2550.92" style="fill:#FFFFFF"/>
	<rect x="2.55" y="2.63" width="2545.90" height="2545.82" style="fill:none;stroke:#FFFFFF;stroke-width:5.10"/>
	<line x1="365.68" y1="1865.82" x2="2346.91" y2="1865.82" style="stroke:#E8E8E8;stroke-width:4.00"/>
	<line x1="365.68" y1="1543.28" x2="2346.91" y2="1543.28" style="stroke:#E8E8E8;stroke-width:4.00"/>
	<line x1="365.68" y1="1220.81" x2="2346.91" y2="1220.81" style="stroke:#E8E8E8;stroke-width:4.00"/>
	<line x1="365.68" y1="898.35" x2="2346.91" y2="898.35" style="stroke:#E8E8E8;stroke-width:4.00"/>
	<line x1="365.68" y1="575.81" x2="2346.91" y2="575.81" style="stroke:#E8E8E8;stroke-width:4.00"/>
	<line x1="365.68" y1="253.35" x2="2346.91" y2="253.35" style="stroke:#E8E8E8;stroke-width:4.00"/>
	<line x1="421.81" y1="1921.94" x2="421.81" y2="197.22" style="stroke:#E8E8E8;stroke-width:4.00"/>
	<line x1="723.23" y1="1921.94" x2="723.23" y2="197.22" style="stroke:#E8E8E8;stroke-width:4.00"/>
	<line x1="1024.74" y1="1921.94" x2="1024.74" y2="197.22" style="stroke:#E8E8E8;stroke-width:4.00"/>
	<line x1="1326.16" y1="1921.94" x2="1326.16" y2="197.22" style="stroke:#E8E8E8;stroke-width:4.00"/>
	<line x1="1627.59" y1="1921.94" x2="1627.59" y2="197.22" style="stroke:#E8E8E8;stroke-width:4.00"/>
	<line x1="1929.09" y1="1921.94" x2="1929.09" y2="197.22" style="stroke:#E8E8E8;stroke-width:4.00"/>
	<line x1="2230.52" y1="1921.94" x2="2230.52" y2="197.22" style="stroke:#E8E8E8;stroke-width:4.00"/>
	<line x1="1145.28" y1="735.09" x2="1205.54" y2="752.78" stroke-linecap="round" style="stroke:#E69F00;stroke-width:10.00"/>
	<line x1="1205.54" y1="752.78" x2="1265.81" y2="768.73" stroke-linecap="round" style="stroke:#E69F00;stroke-width:10.00"/>
	<line x1="1265.81" y1="768.73" x2="1326.08" y2="763.07" stroke-linecap="round" style="stroke:#E69F00;stroke-width:10.00"/>
	<line x1="1326.08" y1="763.07" x2="1386.43" y2="821.74" stroke-linecap="round" style="stroke:#E69F00;stroke-width:10.00"/>
	<line x1="1386.43" y1="821.74" x2="1446.70" y2="720.50" stroke-linecap="round" style="stroke:#E69F00;stroke-width:10.00"/>
	<line x1="1446.70" y1="720.50" x2="1506.97" y2="766.02" stroke-linecap="round" style="stroke:#E69F00;stroke-width:10.00"/>
	<line x1="1506.97" y1="766.02" x2="1567.24" y2="824.85" stroke-linecap="round" style="stroke:#E69F00;stroke-width:10.00"/>
	<line x1="1567.24" y1="824.85" x2="1627.59" y2="917.80" stroke-linecap="round" style="stroke:#E69F00;stroke-width:10.00"/>
	<line x1="1627.59" y1="917.80" x2="1687.86" y2="827.00" stroke-linecap="round" style="stroke:#E69F00;stroke-width:10.00"/>
	<line x1="1687.86" y1="827.00" x2="1748.13" y2="899.07" stroke-linecap="round" style="stroke:#E69F00;stroke-width:10.00"/>
	<line x1="1748.13" y1="899.07" x2="1808.48" y2="929.92" stroke-linecap="round" style="stroke:#E69F00;stroke-width:10.00"/>
	<line x1="1808.48" y1="929.92" x2="1868.75" y2="940.36" stroke-linecap="round" style="stroke:#E69F00;stroke-width:10.00"/>
	<line x1="1868.75" y1="940.36" x2="1929.01" y2="990.51" stroke-linecap="round" style="stroke:#E69F00;stroke-width:10.00"/>
	<line x1="1929.01" y1="990.51" x2="1989.28" y2="1085.21" stroke-linecap="round" style="stroke:#E69F00;stroke-width:10.00"/>
	<line x1="1989.28" y1="1085.21" x2="2049.63" y2="1020.16" stroke-linecap="round" style="stroke:#E69F00;stroke-width:10.00"/>
	<line x1="2049.63" y1="1020.16" x2="2109.90" y2="1019.12" stroke-linecap="round" style="stroke:#E69F00;stroke-width:10.00"/>
	<line x1="2109.90" y1="1019.12" x2="2170.17" y2="1063.53" stroke-linecap="round" style="stroke:#E69F00;stroke-width:10.00"/>
	<line x1="2170.17" y1="1063.53" x2="2230.44" y2="1074.53" stroke-linecap="round" style="stroke:#E69F00;stroke-width:10.00"/>
	<line x1="542.34" y1="916.61" x2="602.61" y2="723.93" stroke-linecap="round" style="stroke:#56B4E9;stroke-width:10.00"/>
	<line x1="602.61" y1="723.93" x2="662.96" y2="847.97" stroke-linecap="round" style="stroke:#56B4E9;stroke-width:10.00"/>
	<line x1="662.96" y1="847.97" x2="723.23" y2="803.80" stroke-linecap="round" style="stroke:#56B4E9;stroke-width:10.00"/>
	<line x1="723.23" y1="803.80" x2="783.50" y2="899.79" stroke-linecap="round" style="stroke:#56B4E9;stroke-width:10.00"/>
	<line x1="783.50" y1="899.79" x2="843.77" y2="821.58" stroke-linecap="round" style="stroke:#56B4E9;stroke-width:10.00"/>
	<line x1="843.77" y1="821.58" x2="904.12" y2="868.62" stroke-linecap="round" style="stroke:#56B4E9;stroke-width:10.00"/>
	<line x1="904.12" y1="868.62" x2="964.39" y2="977.43" stroke-linecap="round" style="stroke:#56B4E9;stroke-width:10.00"/>
	<line x1="964.39" y1="977.43" x2="1024.66" y2="898.27" stroke-linecap="round" style="stroke:#56B4E9;stroke-width:10.00"/>
	<line x1="1024.66" y1="898.27" x2="1084.93" y2="950.49" stroke-linecap="round" style="stroke:#56B4E9;stroke-width:10.00"/>
	<line x1="1084.93" y1="950.49" x2="1145.28" y2="1012.03" stroke-linecap="round" style="stroke:#56B4E9;stroke-width:10.00"/>
	<line x1="1145.28" y1="1012.03" x2="1205.54" y2="1013.70" stroke-linecap="round" style="stroke:#56B4E9;stroke-width:10.00"/>
	<line x1="1205.54" y1="1013.70" x2="1265.81" y2="1042.72" stroke-linecap="round" style="stroke:#56B4E9;stroke-width:10.00"/>
	<line x1="1265.81" y1="1042.72" x2="1326.08" y2="1180.87" stroke-linecap="round" style="stroke:#56B4E9;stroke-width:10.00"/>
	<line x1="1326.08" y1="1180.87" x2="1386.43" y2="1147.63" stroke-linecap="round" style="stroke:#56B4E9;stroke-width:10.00"/>
	<line x1="1386.43" y1="1147.63" x2="1446.70" y2="1148.51" stroke-linecap="round" style="stroke:#56B4E9;stroke-width:10.00"/>
	<line x1="1446.70" y1="1148.51" x2="1506.97" y2="1203.35" stroke-linecap="round" style="stroke:#56B4E9;stroke-width:10.00"/>
	<line x1="1506.97" y1="1203.35" x2="1567.24" y2="1172.90" stroke-linecap="round" style="stroke:#56B4E9;stroke-width:10.00"/>
	<line x1="1567.24" y1="1172.90" x2="1627.59" y2="1184.70" stroke-linecap="round" style="stroke:#56B4E9;stroke-width:10.00"/>
	<line x1="1627.59" y1="1184.70" x2="1687.86" y2="1212.44" stroke-linecap="round" style="stroke:#56B4E9;stroke-width:10.00"/>
	<line x1="1687.86" y1="1212.44" x2="1748.13" y2="1195.54" stroke-linecap="round" style="stroke:#56B4E9;stroke-width:10.00"/>
	<line x1="1748.13" y1="1195.54" x2="1808.48" y2="1220.57" stroke-linecap="round" style="stroke:#56B4E9;stroke-width:10.00"/>
	<line x1="1808.48" y1="1220.57" x2="1868.75" y2="1262.43" stroke-linecap="round" style="stroke:#56B4E9;stroke-width:10.00"/>
	<line x1="1868.75" y1="1262.43" x2="1929.01" y2="1240.03" stroke-linecap="round" style="stroke:#56B4E9;stroke-width:10.00"/>
	<line x1="1929.01" y1="1240.03" x2="1989.28" y2="1235.72" stroke-linecap="round" style="stroke:#56B4E9;stroke-width:10.00"/>
	<line x1="1989.28" y1="1235.72" x2="2049.63" y2="1292.88" stroke-linecap="round" style="stroke:#56B4E9;stroke-width:10.00"/>
	<line x1="2049.63" y1="1292.88" x2="2109.90" y2="1364.94" stroke-linecap="round" style="stroke:#56B4E9;stroke-width:10.00"/>
	<line x1="2109.90" y1="1364.94" x2="2170.17" y2="1255.09" stroke-linecap="round" style="stroke:#56B4E9;stroke-width:10.00"/>
	<line x1="2170.17" y1="1255.09" x2="2230.44" y2="1284.27" stroke-linecap="round" style="stroke:#56B4E9;stroke-width:10.00"/>
	<line x1="482.07" y1="820.31" x2="542.34" y2="1007.49" stroke-linecap="round" style="stroke:#009E73;stroke-width:10.00"/>
	<line x1="542.34" y1="1007.49" x2="602.61" y2="1067.75" stroke-linecap="round" style="stroke:#009E73;stroke-width:10.00"/>
	<line x1="602.61" y1="1067.75" x2="662.96" y2="1136.39" stroke-linecap="round" style="stroke:#009E73;stroke-width:10.00"/>
	<line x1="662.96" y1="1136.39" x2="723.23" y2="1189.56" stroke-linecap="round" style="stroke:#009E73;stroke-width:10.00"/>
	<line x1="723.23" y1="1189.56" x2="783.50" y2="1265.14" stroke-linecap="round" style="stroke:#009E73;stroke-width:10.00"/>
	<line x1="783.50" y1="1265.14" x2="843.77" y2="1251.11" stroke-linecap="round" style="stroke:#009E73;stroke-width:10.00"/>
	<line x1="843.77" y1="1251.11" x2="904.12" y2="1322.93" stroke-linecap="round" style="stroke:#009E73;stroke-width:10.00"/>
	<line x1="904.12" y1="1322.93" x2="964.39" y2="1297.90" stroke-linecap="round" style="stroke:#009E73;stroke-width:10.00"/>
	<line x1="964.39" y1="1297.90" x2="1024.66" y2="1280.52" stroke-linecap="round" style="stroke:#009E73;stroke-width:10.00"/>
	<line x1="1024.66" y1="1280.52" x2="1084.93" y2="1379.45" stroke-linecap="round" style="stroke:#009E73;stroke-width:10.00"/>
	<line x1="1084.93" y1="1379.45" x2="1145.28" y2="1326.92" stroke-linecap="round" style="stroke:#009E73;stroke-width:10.00"/>
	<line x1="1145.28" y1="1326.92" x2="1205.54" y2="1438.76" stroke-linecap="round" style="stroke:#009E73;stroke-width:10.00"/>
	<line x1="1205.54" y1="1438.76" x2="1265.81" y2="1434.30" stroke-linecap="round" style="stroke:#009E73;stroke-width:10.00"/>
	<line x1="1265.81" y1="1434.30" x2="1326.08" y2="1403.69" stroke-linecap="round" style="stroke:#009E73;stroke-width:10.00"/>
	<line x1="1326.08" y1="1403.69" x2="1386.43" y2="1475.28" stroke-linecap="round" style="stroke:#009E73;stroke-width:10.00"/>
	<line x1="1386.43" y1="1475.28" x2="1446.70" y2="1467.14" stroke-linecap="round" style="stroke:#009E73;stroke-width:10.00"/>
	<line x1="1446.70" y1="1467.14" x2="1506.97" y2="1451.60" stroke-linecap="round" style="stroke:#009E73;stroke-width:10.00"/>
	<line x1="1506.97" y1="1451.60" x2="1567.24" y2="1439.24" stroke-linecap="round" style="stroke:#009E73;stroke-width:10.00"/>
	<line x1="1567.24" y1="1439.24" x2="1627.59" y2="1454.87" stroke-linecap="round" style="stroke:#009E73;stroke-width:10.00"/>
	<line x1="1627.59" y1="1454.87" x2="1687.86" y2="1470.65" stroke-linecap="round" style="stroke:#009E73;stroke-width:10.00"/>
	<line x1="1687.86" y1="1470.65" x2="1748.13" y2="1429.04" stroke-linecap="round" style="stroke:#009E73;stroke-width:10.00"/>
	<line x1="482.07" y1="1113.03" x2="542.34" y2="1232.21" stroke-linecap="round" style="stroke:#D55E00;stroke-width:10.00"/>
	<line x1="542.34" y1="1232.21" x2="602.61" y2="1328.83" stroke-linecap="round" style="stroke:#D55E00;stroke-width:10.00"/>
	<line x1="602.61" y1="1328.83" x2="662.96" y2="1408.87" stroke-linecap="round" style="stroke:#D55E00;stroke-width:10.00"/>
	<line x1="662.96" y1="1408.87" x2="723.23" y2="1426.33" stroke-linecap="round" style="stroke:#D55E00;stroke-width:10.00"/>
	<line x1="723.23" y1="1426.33" x2="783.50" y2="1412.14" stroke-linecap="round" style="stroke:#D55E00;stroke-width:10.00"/>
	<line x1="783.50" y1="1412.14" x2="843.77" y2="1489.39" stroke-linecap="round" style="stroke:#D55E00;stroke-width:10.00"/>
	<line x1="843.77" y1="1489.39" x2="904.12" y2="1478.62" stroke-linecap="round" style="stroke:#D55E00;stroke-width:10.00"/>
	<line x1="904.12" y1="1478.62" x2="964.39" y2="1455.74" stroke-linecap="round" style="stroke:#D55E00;stroke-width:10.00"/>
	<line x1="964.39" y1="1455.74" x2="1024.66" y2="1454.87" stroke-linecap="round" style="stroke:#D55E00;stroke-width:10.00"/>
	<line x1="1024.66" y1="1454.87" x2="1084.93" y2="1492.10" stroke-linecap="round" style="stroke:#D55E00;stroke-width:10.00"/>
	<line x1="1084.93" y1="1492.10" x2="1145.28" y2="1488.27" stroke-linecap="round" style="stroke:#D55E00;stroke-width:10.00"/>
	<line x1="482.07" y1="1064.25" x2="542.34" y2="1214.99" stroke-linecap="round" style="stroke:#CC79A7;stroke-width:10.00"/>
	<line x1="542.34" y1="1214.99" x2="602.61" y2="1363.51" stroke-linecap="round" style="stroke:#CC79A7;stroke-width:10.00"/>
	<line x1="602.61" y1="1363.51" x2="662.96" y2="1397.79" stroke-linecap="round" style="stroke:#CC79A7;stroke-width:10.00"/>
	<line x1="662.96" y1="1397.79" x2="723.23" y2="1351.71" stroke-linecap="round" style="stroke:#CC79A7;stroke-width:10.00"/>
	<line x1="365.68" y1="1865.82" x2="330.29" y2="1865.82" style="stroke:#000000;stroke-width:4.00"/>
	<text x="312.51" y="1883.33" style="font-family:'Helvetica';font-size:49.99px;fill:#000000" text-anchor="end">20</text>
	<line x1="365.68" y1="1543.28" x2="330.29" y2="1543.28" style="stroke:#000000;stroke-width:4.00"/>
	<text x="312.51" y="1560.79" style="font-family:'Helvetica';font-size:49.99px;fill:#000000" text-anchor="end">25</text>
	<line x1="365.68" y1="1220.81" x2="330.29" y2="1220.81" style="stroke:#000000;stroke-width:4.00"/>
	<text x="312.51" y="1238.33" style="font-family:'Helvetica';font-size:49.99px;fill:#000000" text-anchor="end">30</text>
	<line x1="365.68" y1="898.35" x2="330.29" y2="898.35" style="stroke:#000000;stroke-width:4.00"/>
	<text x="312.51" y="915.86" style="font-family:'Helvetica';font-size:49.99px;fill:#000000" text-anchor="end">35</text>
	<line x1="365.68" y1="575.81" x2="330.29" y2="575.81" style="stroke:#000000;stroke-width:4.00"/>
	<text x="312.51" y="593.32" style="font-family:'Helvetica';font-size:49.99px;fill:#000000" text-anchor="end">40</text>
	<line x1="365.68" y1="253.35" x2="330.29" y2="253.35" style="stroke:#000000;stroke-width:4.00"/>
	<text x="312.51" y="270.86" style="font-family:'Helvetica';font-size:49.99px;fill:#000000" text-anchor="end">45</text>
	<line x1="365.68" y1="1865.82" x2="365.68" y2="253.35" style="stroke:#000000;stroke-width:4.00"/>
	<text x="136.21" y="1021.28" style="font-family:'Helvetica';font-size:60.03px;fill:#000000" transform="rotate(-90 136.21,1021.28)" text-anchor="middle">Weekly working hours (actual)</text>
	<line x1="421.81" y1="1921.94" x2="421.81" y2="1957.33" style="stroke:#000000;stroke-width:4.00"/>
	<text x="421.81" y="2009.98" style="font-family:'Helvetica';font-size:49.99px;fill:#000000" text-anchor="middle">0</text>
	<line x1="723.23" y1="1921.94" x2="723.23" y2="1957.33" style="stroke:#000000;stroke-width:4.00"/>
	<text x="723.23" y="2009.98" style="font-family:'Helvetica';font-size:49.99px;fill:#000000" text-anchor="middle">5</text>
	<line x1="1024.74" y1="1921.94" x2="1024.74" y2="1957.33" style="stroke:#000000;stroke-width:4.00"/>
	<text x="1024.74" y="2009.98" style="font-family:'Helvetica';font-size:49.99px;fill:#000000" text-anchor="middle">10</text>
	<line x1="1326.16" y1="1921.94" x2="1326.16" y2="1957.33" style="stroke:#000000;stroke-width:4.00"/>
	<text x="1326.16" y="2009.98" style="font-family:'Helvetica';font-size:49.99px;fill:#000000" text-anchor="middle">15</text>
	<line x1="1627.59" y1="1921.94" x2="1627.59" y2="1957.33" style="stroke:#000000;stroke-width:4.00"/>
	<text x="1627.59" y="2009.98" style="font-family:'Helvetica';font-size:49.99px;fill:#000000" text-anchor="middle">20</text>
	<line x1="1929.09" y1="1921.94" x2="1929.09" y2="1957.33" style="stroke:#000000;stroke-width:4.00"/>
	<text x="1929.09" y="2009.98" style="font-family:'Helvetica';font-size:49.99px;fill:#000000" text-anchor="middle">25</text>
	<line x1="2230.52" y1="1921.94" x2="2230.52" y2="1957.33" style="stroke:#000000;stroke-width:4.00"/>
	<text x="2230.52" y="2009.98" style="font-family:'Helvetica';font-size:49.99px;fill:#000000" text-anchor="middle">30</text>
	<line x1="421.81" y1="1921.94" x2="2290.79" y2="1921.94" style="stroke:#000000;stroke-width:4.00"/>
	<text x="1318.03" y="2152.37" style="font-family:'Helvetica';font-size:60.03px;fill:#000000" text-anchor="middle">Duration of stay</text>
	<text x="161.52" y="2396.65" style="font-family:'Helvetica';font-size:60.03px;fill:#000000">Arr. cohort: </text>
	<text x="610.98" y="2396.65" style="font-family:'Helvetica';font-size:60.03px;fill:#000000">1964-73</text>
	<text x="965.98" y="2396.65" style="font-family:'Helvetica';font-size:60.03px;fill:#000000">1974-83</text>
	<text x="1320.98" y="2396.65" style="font-family:'Helvetica';font-size:60.03px;fill:#000000">1984-93</text>
	<text x="1675.98" y="2396.65" style="font-family:'Helvetica';font-size:60.03px;fill:#000000">1994-03</text>
	<text x="2030.98" y="2396.65" style="font-family:'Helvetica';font-size:60.03px;fill:#000000">2004-10</text>
	<line x1="610.98" y1="2301.32" x2="831.01" y2="2301.32" style="stroke:#E69F00;stroke-width:10.00"/>
	<line x1="965.98" y1="2301.32" x2="1185.93" y2="2301.32" style="stroke:#56B4E9;stroke-width:10.00"/>
	<line x1="1320.98" y1="2301.32" x2="1540.93" y2="2301.32" style="stroke:#009E73;stroke-width:10.00"/>
	<line x1="1675.98" y1="2301.32" x2="1895.93" y2="2301.32" style="stroke:#D55E00;stroke-width:10.00"/>
	<line x1="2030.98" y1="2301.32" x2="2250.93" y2="2301.32" style="stroke:#CC79A7;stroke-width:10.00"/>
	<text x="1356.30" y="154.88" style="font-family:'Helvetica';font-size:90.01px;fill:#000000" text-anchor="middle">Women</text>
</svg>
