<?xml version="1.0" encoding="UTF-8" standalone="no"?>
<!-- This is a Stata 15.1 generated SVG file (http://www.stata.com) -->

<svg version="1.1" width="3.54in" height="3.54in" viewBox="0 0 2551 2551" xmlns="http://www.w3.org/2000/svg" xmlns:xlink="http://www.w3.org/1999/xlink">
	<desc>Stata Graph - Graph</desc>
	<rect x="0" y="0" width="2551" height="2551" style="fill:#FFFFFF;stroke:none"/>
	<rect x="0.00" y="0.08" width="2551.00" height="2550.92" style="fill:#FFFFFF"/>
	<rect x="2.55" y="2.63" width="2545.90" height="2545.82" style="fill:none;stroke:#FFFFFF;stroke-width:5.10"/>
	<line x1="351.09" y1="1865.82" x2="2346.91" y2="1865.82" style="stroke:#E8E8E8;stroke-width:4.00"/>
	<line x1="351.09" y1="1715.63" x2="2346.91" y2="1715.63" style="stroke:#E8E8E8;stroke-width:4.00"/>
	<line x1="351.09" y1="1565.52" x2="2346.91" y2="1565.52" style="stroke:#E8E8E8;stroke-width:4.00"/>
	<line x1="351.09" y1="1415.41" x2="2346.91" y2="1415.41" style="stroke:#E8E8E8;stroke-width:4.00"/>
	<line x1="351.09" y1="1265.22" x2="2346.91" y2="1265.22" style="stroke:#E8E8E8;stroke-width:4.00"/>
	<line x1="351.09" y1="1115.11" x2="2346.91" y2="1115.11" style="stroke:#E8E8E8;stroke-width:4.00"/>
	<line x1="351.09" y1="964.92" x2="2346.91" y2="964.92" style="stroke:#E8E8E8;stroke-width:4.00"/>
	<line x1="351.09" y1="814.81" x2="2346.91" y2="814.81" style="stroke:#E8E8E8;stroke-width:4.00"/>
	<line x1="351.09" y1="664.62" x2="2346.91" y2="664.62" style="stroke:#E8E8E8;stroke-width:4.00"/>
	<line x1="351.09" y1="514.50" x2="2346.91" y2="514.50" style="stroke:#E8E8E8;stroke-width:4.00"/>
	<line x1="351.09" y1="364.31" x2="2346.91" y2="364.31" style="stroke:#E8E8E8;stroke-width:4.00"/>
	<line x1="407.22" y1="1921.94" x2="407.22" y2="308.19" style="stroke:#E8E8E8;stroke-width:4.00"/>
	<line x1="642.63" y1="1921.94" x2="642.63" y2="308.19" style="stroke:#E8E8E8;stroke-width:4.00"/>
	<line x1="878.13" y1="1921.94" x2="878.13" y2="308.19" style="stroke:#E8E8E8;stroke-width:4.00"/>
	<line x1="1113.55" y1="1921.94" x2="1113.55" y2="308.19" style="stroke:#E8E8E8;stroke-width:4.00"/>
	<line x1="1349.04" y1="1921.94" x2="1349.04" y2="308.19" style="stroke:#E8E8E8;stroke-width:4.00"/>
	<line x1="1584.46" y1="1921.94" x2="1584.46" y2="308.19" style="stroke:#E8E8E8;stroke-width:4.00"/>
	<line x1="1819.88" y1="1921.94" x2="1819.88" y2="308.19" style="stroke:#E8E8E8;stroke-width:4.00"/>
	<line x1="2055.37" y1="1921.94" x2="2055.37" y2="308.19" style="stroke:#E8E8E8;stroke-width:4.00"/>
	<line x1="2290.79" y1="1921.94" x2="2290.79" y2="308.19" style="stroke:#E8E8E8;stroke-width:4.00"/>
	<line x1="407.22" y1="407.36" x2="501.37" y2="407.60" stroke-linecap="round" style="stroke:#E69F00;stroke-width:10.00"/>
	<line x1="501.37" y1="407.60" x2="595.52" y2="395.25" stroke-linecap="round" style="stroke:#E69F00;stroke-width:10.00"/>
	<line x1="595.52" y1="395.25" x2="689.75" y2="417.17" stroke-linecap="round" style="stroke:#E69F00;stroke-width:10.00"/>
	<line x1="689.75" y1="417.17" x2="831.01" y2="399.07" stroke-linecap="round" style="stroke:#E69F00;stroke-width:10.00"/>
	<line x1="831.01" y1="399.07" x2="925.17" y2="401.78" stroke-linecap="round" style="stroke:#E69F00;stroke-width:10.00"/>
	<line x1="925.17" y1="401.78" x2="1019.32" y2="394.45" stroke-linecap="round" style="stroke:#E69F00;stroke-width:10.00"/>
	<line x1="1019.32" y1="394.45" x2="1113.55" y2="393.01" stroke-linecap="round" style="stroke:#E69F00;stroke-width:10.00"/>
	<line x1="1113.55" y1="393.01" x2="1207.70" y2="450.33" stroke-linecap="round" style="stroke:#E69F00;stroke-width:10.00"/>
	<line x1="1207.70" y1="450.33" x2="1301.85" y2="426.10" stroke-linecap="round" style="stroke:#E69F00;stroke-width:10.00"/>
	<line x1="1301.85" y1="426.10" x2="1348.96" y2="423.94" stroke-linecap="round" style="stroke:#E69F00;stroke-width:10.00"/>
	<line x1="1348.96" y1="423.94" x2="1396.08" y2="426.73" stroke-linecap="round" style="stroke:#E69F00;stroke-width:10.00"/>
	<line x1="1396.08" y1="426.73" x2="1443.11" y2="422.75" stroke-linecap="round" style="stroke:#E69F00;stroke-width:10.00"/>
	<line x1="1443.11" y1="422.75" x2="1490.23" y2="433.83" stroke-linecap="round" style="stroke:#E69F00;stroke-width:10.00"/>
	<line x1="1490.23" y1="433.83" x2="1537.34" y2="424.18" stroke-linecap="round" style="stroke:#E69F00;stroke-width:10.00"/>
	<line x1="1537.34" y1="424.18" x2="1584.38" y2="429.21" stroke-linecap="round" style="stroke:#E69F00;stroke-width:10.00"/>
	<line x1="1584.38" y1="429.21" x2="1631.50" y2="434.39" stroke-linecap="round" style="stroke:#E69F00;stroke-width:10.00"/>
	<line x1="1631.50" y1="434.39" x2="1678.61" y2="438.05" stroke-linecap="round" style="stroke:#E69F00;stroke-width:10.00"/>
	<line x1="831.01" y1="452.01" x2="925.17" y2="435.98" stroke-linecap="round" style="stroke:#56B4E9;stroke-width:10.00"/>
	<line x1="925.17" y1="435.98" x2="1019.32" y2="427.37" stroke-linecap="round" style="stroke:#56B4E9;stroke-width:10.00"/>
	<line x1="1019.32" y1="427.37" x2="1113.55" y2="448.02" stroke-linecap="round" style="stroke:#56B4E9;stroke-width:10.00"/>
	<line x1="1113.55" y1="448.02" x2="1207.70" y2="460.06" stroke-linecap="round" style="stroke:#56B4E9;stroke-width:10.00"/>
	<line x1="1207.70" y1="460.06" x2="1301.85" y2="446.11" stroke-linecap="round" style="stroke:#56B4E9;stroke-width:10.00"/>
	<line x1="1301.85" y1="446.11" x2="1348.96" y2="503.03" stroke-linecap="round" style="stroke:#56B4E9;stroke-width:10.00"/>
	<line x1="1348.96" y1="503.03" x2="1396.08" y2="471.78" stroke-linecap="round" style="stroke:#56B4E9;stroke-width:10.00"/>
	<line x1="1396.08" y1="471.78" x2="1443.11" y2="485.81" stroke-linecap="round" style="stroke:#56B4E9;stroke-width:10.00"/>
	<line x1="1443.11" y1="485.81" x2="1490.23" y2="477.83" stroke-linecap="round" style="stroke:#56B4E9;stroke-width:10.00"/>
	<line x1="1490.23" y1="477.83" x2="1537.34" y2="448.26" stroke-linecap="round" style="stroke:#56B4E9;stroke-width:10.00"/>
	<line x1="1537.34" y1="448.26" x2="1584.38" y2="460.93" stroke-linecap="round" style="stroke:#56B4E9;stroke-width:10.00"/>
	<line x1="1584.38" y1="460.93" x2="1631.50" y2="474.80" stroke-linecap="round" style="stroke:#56B4E9;stroke-width:10.00"/>
	<line x1="1631.50" y1="474.80" x2="1678.61" y2="489.31" stroke-linecap="round" style="stroke:#56B4E9;stroke-width:10.00"/>
	<line x1="1678.61" y1="489.31" x2="1725.65" y2="536.27" stroke-linecap="round" style="stroke:#56B4E9;stroke-width:10.00"/>
	<line x1="1725.65" y1="536.27" x2="1772.76" y2="571.34" stroke-linecap="round" style="stroke:#56B4E9;stroke-width:10.00"/>
	<line x1="1772.76" y1="571.34" x2="1819.88" y2="643.81" stroke-linecap="round" style="stroke:#56B4E9;stroke-width:10.00"/>
	<line x1="1819.88" y1="643.81" x2="1866.99" y2="582.03" stroke-linecap="round" style="stroke:#56B4E9;stroke-width:10.00"/>
	<line x1="1866.99" y1="582.03" x2="1914.03" y2="521.04" stroke-linecap="round" style="stroke:#56B4E9;stroke-width:10.00"/>
	<line x1="1914.03" y1="521.04" x2="1961.14" y2="672.51" stroke-linecap="round" style="stroke:#56B4E9;stroke-width:10.00"/>
	<line x1="1961.14" y1="672.51" x2="2008.26" y2="552.85" stroke-linecap="round" style="stroke:#56B4E9;stroke-width:10.00"/>
	<line x1="2008.26" y1="552.85" x2="2055.29" y2="582.74" stroke-linecap="round" style="stroke:#56B4E9;stroke-width:10.00"/>
	<line x1="2055.29" y1="582.74" x2="2102.41" y2="638.55" stroke-linecap="round" style="stroke:#56B4E9;stroke-width:10.00"/>
	<line x1="2102.41" y1="638.55" x2="2149.52" y2="545.04" stroke-linecap="round" style="stroke:#56B4E9;stroke-width:10.00"/>
	<line x1="1301.85" y1="477.75" x2="1348.96" y2="520.32" stroke-linecap="round" style="stroke:#009E73;stroke-width:10.00"/>
	<line x1="1348.96" y1="520.32" x2="1396.08" y2="559.39" stroke-linecap="round" style="stroke:#009E73;stroke-width:10.00"/>
	<line x1="1396.08" y1="559.39" x2="1443.11" y2="528.93" stroke-linecap="round" style="stroke:#009E73;stroke-width:10.00"/>
	<line x1="1443.11" y1="528.93" x2="1490.23" y2="556.12" stroke-linecap="round" style="stroke:#009E73;stroke-width:10.00"/>
	<line x1="1490.23" y1="556.12" x2="1537.34" y2="538.10" stroke-linecap="round" style="stroke:#009E73;stroke-width:10.00"/>
	<line x1="1537.34" y1="538.10" x2="1584.38" y2="515.30" stroke-linecap="round" style="stroke:#009E73;stroke-width:10.00"/>
	<line x1="1584.38" y1="515.30" x2="1631.50" y2="504.06" stroke-linecap="round" style="stroke:#009E73;stroke-width:10.00"/>
	<line x1="1631.50" y1="504.06" x2="1678.61" y2="514.58" stroke-linecap="round" style="stroke:#009E73;stroke-width:10.00"/>
	<line x1="1678.61" y1="514.58" x2="1725.65" y2="541.29" stroke-linecap="round" style="stroke:#009E73;stroke-width:10.00"/>
	<line x1="1725.65" y1="541.29" x2="1772.76" y2="548.46" stroke-linecap="round" style="stroke:#009E73;stroke-width:10.00"/>
	<line x1="1772.76" y1="548.46" x2="1819.88" y2="613.20" stroke-linecap="round" style="stroke:#009E73;stroke-width:10.00"/>
	<line x1="1819.88" y1="613.20" x2="1866.99" y2="630.66" stroke-linecap="round" style="stroke:#009E73;stroke-width:10.00"/>
	<line x1="1866.99" y1="630.66" x2="1914.03" y2="627.55" stroke-linecap="round" style="stroke:#009E73;stroke-width:10.00"/>
	<line x1="1914.03" y1="627.55" x2="1961.14" y2="699.29" stroke-linecap="round" style="stroke:#009E73;stroke-width:10.00"/>
	<line x1="1961.14" y1="699.29" x2="2008.26" y2="623.88" stroke-linecap="round" style="stroke:#009E73;stroke-width:10.00"/>
	<line x1="2008.26" y1="623.88" x2="2055.29" y2="593.51" stroke-linecap="round" style="stroke:#009E73;stroke-width:10.00"/>
	<line x1="2055.29" y1="593.51" x2="2102.41" y2="635.92" stroke-linecap="round" style="stroke:#009E73;stroke-width:10.00"/>
	<line x1="2102.41" y1="635.92" x2="2149.52" y2="685.34" stroke-linecap="round" style="stroke:#009E73;stroke-width:10.00"/>
	<line x1="2149.52" y1="685.34" x2="2196.56" y2="659.91" stroke-linecap="round" style="stroke:#009E73;stroke-width:10.00"/>
	<line x1="2196.56" y1="659.91" x2="2243.67" y2="612.48" stroke-linecap="round" style="stroke:#009E73;stroke-width:10.00"/>
	<line x1="1725.65" y1="607.70" x2="1772.76" y2="711.33" stroke-linecap="round" style="stroke:#D55E00;stroke-width:10.00"/>
	<line x1="1772.76" y1="711.33" x2="1819.88" y2="708.54" stroke-linecap="round" style="stroke:#D55E00;stroke-width:10.00"/>
	<line x1="1819.88" y1="708.54" x2="1866.99" y2="685.98" stroke-linecap="round" style="stroke:#D55E00;stroke-width:10.00"/>
	<line x1="1866.99" y1="685.98" x2="1914.03" y2="712.45" stroke-linecap="round" style="stroke:#D55E00;stroke-width:10.00"/>
	<line x1="1914.03" y1="712.45" x2="1961.14" y2="716.91" stroke-linecap="round" style="stroke:#D55E00;stroke-width:10.00"/>
	<line x1="1961.14" y1="716.91" x2="2008.26" y2="706.63" stroke-linecap="round" style="stroke:#D55E00;stroke-width:10.00"/>
	<line x1="2008.26" y1="706.63" x2="2055.29" y2="710.45" stroke-linecap="round" style="stroke:#D55E00;stroke-width:10.00"/>
	<line x1="2055.29" y1="710.45" x2="2102.41" y2="694.91" stroke-linecap="round" style="stroke:#D55E00;stroke-width:10.00"/>
	<line x1="2102.41" y1="694.91" x2="2149.52" y2="671.55" stroke-linecap="round" style="stroke:#D55E00;stroke-width:10.00"/>
	<line x1="2149.52" y1="671.55" x2="2196.56" y2="660.79" stroke-linecap="round" style="stroke:#D55E00;stroke-width:10.00"/>
	<line x1="2196.56" y1="660.79" x2="2243.67" y2="669.00" stroke-linecap="round" style="stroke:#D55E00;stroke-width:10.00"/>
	<line x1="2055.29" y1="703.68" x2="2102.41" y2="715.64" stroke-linecap="round" style="stroke:#CC79A7;stroke-width:10.00"/>
	<line x1="2102.41" y1="715.64" x2="2149.52" y2="694.59" stroke-linecap="round" style="stroke:#CC79A7;stroke-width:10.00"/>
	<line x1="2149.52" y1="694.59" x2="2196.56" y2="709.74" stroke-linecap="round" style="stroke:#CC79A7;stroke-width:10.00"/>
	<line x1="2196.56" y1="709.74" x2="2243.67" y2="702.08" stroke-linecap="round" style="stroke:#CC79A7;stroke-width:10.00"/>
	<line x1="407.22" y1="440.37" x2="458.16" y2="437.34" style="stroke:#A0A0A0;stroke-width:10.00"/>
	<line x1="483.67" y1="435.82" x2="501.37" y2="434.79" style="stroke:#A0A0A0;stroke-width:10.00"/>
	<line x1="501.37" y1="434.79" x2="534.61" y2="433.35" style="stroke:#A0A0A0;stroke-width:10.00"/>
	<line x1="560.12" y1="432.31" x2="595.52" y2="430.80" style="stroke:#A0A0A0;stroke-width:10.00"/>
	<line x1="595.52" y1="430.80" x2="611.06" y2="432.08" style="stroke:#A0A0A0;stroke-width:10.00"/>
	<line x1="636.49" y1="434.23" x2="687.28" y2="438.45" style="stroke:#A0A0A0;stroke-width:10.00"/>
	<line x1="712.31" y1="433.83" x2="762.21" y2="423.23" style="stroke:#A0A0A0;stroke-width:10.00"/>
	<line x1="787.17" y1="417.97" x2="831.01" y2="408.64" style="stroke:#A0A0A0;stroke-width:10.00"/>
	<line x1="831.01" y1="408.64" x2="837.15" y2="409.20" style="stroke:#A0A0A0;stroke-width:10.00"/>
	<line x1="862.58" y1="411.67" x2="913.37" y2="416.53" style="stroke:#A0A0A0;stroke-width:10.00"/>
	<line x1="938.80" y1="417.49" x2="989.82" y2="416.69" style="stroke:#A0A0A0;stroke-width:10.00"/>
	<line x1="1015.33" y1="416.29" x2="1019.32" y2="416.29" style="stroke:#A0A0A0;stroke-width:10.00"/>
	<line x1="1019.32" y1="416.29" x2="1066.35" y2="415.97" style="stroke:#A0A0A0;stroke-width:10.00"/>
	<line x1="1091.86" y1="415.81" x2="1113.55" y2="415.73" style="stroke:#A0A0A0;stroke-width:10.00"/>
	<line x1="1113.55" y1="415.73" x2="1142.33" y2="421.55" style="stroke:#A0A0A0;stroke-width:10.00"/>
	<line x1="1167.36" y1="426.65" x2="1207.70" y2="434.87" style="stroke:#A0A0A0;stroke-width:10.00"/>
	<line x1="1207.70" y1="434.87" x2="1217.50" y2="435.66" style="stroke:#A0A0A0;stroke-width:10.00"/>
	<line x1="1242.93" y1="437.66" x2="1293.80" y2="441.64" style="stroke:#A0A0A0;stroke-width:10.00"/>
	<line x1="1319.23" y1="442.20" x2="1348.96" y2="442.20" style="stroke:#A0A0A0;stroke-width:10.00"/>
	<line x1="1348.96" y1="442.20" x2="1370.17" y2="444.35" style="stroke:#A0A0A0;stroke-width:10.00"/>
	<line x1="1395.52" y1="446.98" x2="1396.08" y2="447.06" style="stroke:#A0A0A0;stroke-width:10.00"/>
	<line x1="1396.08" y1="447.06" x2="1443.11" y2="447.22" style="stroke:#A0A0A0;stroke-width:10.00"/>
	<line x1="1443.11" y1="447.22" x2="1446.54" y2="447.14" style="stroke:#A0A0A0;stroke-width:10.00"/>
	<line x1="1472.05" y1="446.90" x2="1490.23" y2="446.74" style="stroke:#A0A0A0;stroke-width:10.00"/>
	<line x1="1490.23" y1="446.74" x2="1523.07" y2="447.22" style="stroke:#A0A0A0;stroke-width:10.00"/>
	<line x1="1548.59" y1="447.70" x2="1584.38" y2="448.34" style="stroke:#A0A0A0;stroke-width:10.00"/>
	<line x1="1584.38" y1="448.34" x2="1599.53" y2="450.33" style="stroke:#A0A0A0;stroke-width:10.00"/>
	<line x1="1624.80" y1="453.76" x2="1631.50" y2="454.64" style="stroke:#A0A0A0;stroke-width:10.00"/>
	<line x1="1631.50" y1="454.64" x2="1675.10" y2="462.05" style="stroke:#A0A0A0;stroke-width:10.00"/>
	<line x1="1700.14" y1="466.91" x2="1725.65" y2="472.01" style="stroke:#A0A0A0;stroke-width:10.00"/>
	<line x1="1725.65" y1="472.01" x2="1744.70" y2="488.20" style="stroke:#A0A0A0;stroke-width:10.00"/>
	<line x1="1764.15" y1="504.70" x2="1772.76" y2="512.03" style="stroke:#A0A0A0;stroke-width:10.00"/>
	<line x1="1772.76" y1="512.03" x2="1803.85" y2="536.67" style="stroke:#A0A0A0;stroke-width:10.00"/>
	<line x1="1824.90" y1="548.94" x2="1866.99" y2="545.28" style="stroke:#A0A0A0;stroke-width:10.00"/>
	<line x1="1866.99" y1="545.28" x2="1875.60" y2="546.79" style="stroke:#A0A0A0;stroke-width:10.00"/>
	<line x1="1900.71" y1="551.33" x2="1914.03" y2="553.73" style="stroke:#A0A0A0;stroke-width:10.00"/>
	<line x1="1914.03" y1="553.73" x2="1941.69" y2="579.08" style="stroke:#A0A0A0;stroke-width:10.00"/>
	<line x1="1960.58" y1="596.30" x2="1961.14" y2="596.77" style="stroke:#A0A0A0;stroke-width:10.00"/>
	<line x1="1961.14" y1="596.77" x2="2002.12" y2="567.68" style="stroke:#A0A0A0;stroke-width:10.00"/>
	<line x1="2026.20" y1="563.61" x2="2055.29" y2="564.09" style="stroke:#A0A0A0;stroke-width:10.00"/>
	<line x1="2055.29" y1="564.09" x2="2077.06" y2="566.72" style="stroke:#A0A0A0;stroke-width:10.00"/>
	<line x1="2102.41" y1="569.91" x2="2102.41" y2="569.91" style="stroke:#A0A0A0;stroke-width:10.00"/>
	<line x1="2102.41" y1="569.91" x2="2149.52" y2="573.90" style="stroke:#A0A0A0;stroke-width:10.00"/>
	<line x1="2149.52" y1="573.90" x2="2153.27" y2="573.66" style="stroke:#A0A0A0;stroke-width:10.00"/>
	<line x1="2178.70" y1="571.98" x2="2196.56" y2="570.87" style="stroke:#A0A0A0;stroke-width:10.00"/>
	<line x1="2196.56" y1="570.87" x2="2229.64" y2="568.71" style="stroke:#A0A0A0;stroke-width:10.00"/>
	<line x1="351.09" y1="1865.82" x2="315.70" y2="1865.82" style="stroke:#000000;stroke-width:4.00"/>
	<text x="297.92" y="1883.33" style="font-family:'Helvetica';font-size:49.99px;fill:#000000" text-anchor="end">0</text>
	<line x1="351.09" y1="1715.63" x2="315.70" y2="1715.63" style="stroke:#000000;stroke-width:4.00"/>
	<text x="297.92" y="1733.14" style="font-family:'Helvetica';font-size:49.99px;fill:#000000" text-anchor="end">.1</text>
	<line x1="351.09" y1="1565.52" x2="315.70" y2="1565.52" style="stroke:#000000;stroke-width:4.00"/>
	<text x="297.92" y="1583.03" style="font-family:'Helvetica';font-size:49.99px;fill:#000000" text-anchor="end">.2</text>
	<line x1="351.09" y1="1415.41" x2="315.70" y2="1415.41" style="stroke:#000000;stroke-width:4.00"/>
	<text x="297.92" y="1432.92" style="font-family:'Helvetica';font-size:49.99px;fill:#000000" text-anchor="end">.3</text>
	<line x1="351.09" y1="1265.22" x2="315.70" y2="1265.22" style="stroke:#000000;stroke-width:4.00"/>
	<text x="297.92" y="1282.73" style="font-family:'Helvetica';font-size:49.99px;fill:#000000" text-anchor="end">.4</text>
	<line x1="351.09" y1="1115.11" x2="315.70" y2="1115.11" style="stroke:#000000;stroke-width:4.00"/>
	<text x="297.92" y="1132.62" style="font-family:'Helvetica';font-size:49.99px;fill:#000000" text-anchor="end">.5</text>
	<line x1="351.09" y1="964.92" x2="315.70" y2="964.92" style="stroke:#000000;stroke-width:4.00"/>
	<text x="297.92" y="982.43" style="font-family:'Helvetica';font-size:49.99px;fill:#000000" text-anchor="end">.6</text>
	<line x1="351.09" y1="814.81" x2="315.70" y2="814.81" style="stroke:#000000;stroke-width:4.00"/>
	<text x="297.92" y="832.32" style="font-family:'Helvetica';font-size:49.99px;fill:#000000" text-anchor="end">.7</text>
	<line x1="351.09" y1="664.62" x2="315.70" y2="664.62" style="stroke:#000000;stroke-width:4.00"/>
	<text x="297.92" y="682.13" style="font-family:'Helvetica';font-size:49.99px;fill:#000000" text-anchor="end">.8</text>
	<line x1="351.09" y1="514.50" x2="315.70" y2="514.50" style="stroke:#000000;stroke-width:4.00"/>
	<text x="297.92" y="532.02" style="font-family:'Helvetica';font-size:49.99px;fill:#000000" text-anchor="end">.9</text>
	<line x1="351.09" y1="364.31" x2="315.70" y2="364.31" style="stroke:#000000;stroke-width:4.00"/>
	<text x="297.92" y="381.83" style="font-family:'Helvetica';font-size:49.99px;fill:#000000" text-anchor="end">1</text>
	<line x1="351.09" y1="1865.82" x2="351.09" y2="364.31" style="stroke:#000000;stroke-width:4.00"/>
	<text x="136.21" y="1076.84" style="font-family:'Helvetica';font-size:60.03px;fill:#000000" transform="rotate(-90 136.21,1076.84)" text-anchor="middle">Full-time employment</text>
	<line x1="407.22" y1="1921.94" x2="407.22" y2="1957.33" style="stroke:#000000;stroke-width:4.00"/>
	<text x="407.22" y="2009.98" style="font-family:'Helvetica';font-size:49.99px;fill:#000000" text-anchor="middle">1976</text>
	<line x1="642.63" y1="1921.94" x2="642.63" y2="1957.33" style="stroke:#000000;stroke-width:4.00"/>
	<text x="642.63" y="2009.98" style="font-family:'Helvetica';font-size:49.99px;fill:#000000" text-anchor="middle">1981</text>
	<line x1="878.13" y1="1921.94" x2="878.13" y2="1957.33" style="stroke:#000000;stroke-width:4.00"/>
	<text x="878.13" y="2009.98" style="font-family:'Helvetica';font-size:49.99px;fill:#000000" text-anchor="middle">1986</text>
	<line x1="1113.55" y1="1921.94" x2="1113.55" y2="1957.33" style="stroke:#000000;stroke-width:4.00"/>
	<text x="1113.55" y="2009.98" style="font-family:'Helvetica';font-size:49.99px;fill:#000000" text-anchor="middle">1991</text>
	<line x1="1349.04" y1="1921.94" x2="1349.04" y2="1957.33" style="stroke:#000000;stroke-width:4.00"/>
	<text x="1349.04" y="2009.98" style="font-family:'Helvetica';font-size:49.99px;fill:#000000" text-anchor="middle">1996</text>
	<line x1="1584.46" y1="1921.94" x2="1584.46" y2="1957.33" style="stroke:#000000;stroke-width:4.00"/>
	<text x="1584.46" y="2009.98" style="font-family:'Helvetica';font-size:49.99px;fill:#000000" text-anchor="middle">2001</text>
	<line x1="1819.88" y1="1921.94" x2="1819.88" y2="1957.33" style="stroke:#000000;stroke-width:4.00"/>
	<text x="1819.88" y="2009.98" style="font-family:'Helvetica';font-size:49.99px;fill:#000000" text-anchor="middle">2006</text>
	<line x1="2055.37" y1="1921.94" x2="2055.37" y2="1957.33" style="stroke:#000000;stroke-width:4.00"/>
	<text x="2055.37" y="2009.98" style="font-family:'Helvetica';font-size:49.99px;fill:#000000" text-anchor="middle">2011</text>
	<line x1="2290.79" y1="1921.94" x2="2290.79" y2="1957.33" style="stroke:#000000;stroke-width:4.00"/>
	<text x="2290.79" y="2009.98" style="font-family:'Helvetica';font-size:49.99px;fill:#000000" text-anchor="middle">2016</text>
	<line x1="407.22" y1="1921.94" x2="2290.79" y2="1921.94" style="stroke:#000000;stroke-width:4.00"/>
	<text x="1310.78" y="2152.37" style="font-family:'Helvetica';font-size:60.03px;fill:#000000" text-anchor="middle">Year</text>
	<text x="145.41" y="2396.65" style="font-family:'Helvetica';font-size:60.03px;fill:#000000">Arr. cohort: </text>
	<text x="536.36" y="2396.65" style="font-family:'Helvetica';font-size:60.03px;fill:#000000">1964-73</text>
	<text x="845.12" y="2396.65" style="font-family:'Helvetica';font-size:60.03px;fill:#000000">1974-83</text>
	<text x="1153.89" y="2396.65" style="font-family:'Helvetica';font-size:60.03px;fill:#000000">1984-93</text>
	<text x="1462.65" y="2396.65" style="font-family:'Helvetica';font-size:60.03px;fill:#000000">1994-03</text>
	<text x="1771.41" y="2396.65" style="font-family:'Helvetica';font-size:60.03px;fill:#000000">2004-10</text>
	<text x="2080.17" y="2396.65" style="font-family:'Helvetica';font-size:60.03px;fill:#000000">German</text>
	<line x1="536.36" y1="2301.32" x2="737.26" y2="2301.32" style="stroke:#E69F00;stroke-width:10.00"/>
	<line x1="845.12" y1="2301.32" x2="1046.02" y2="2301.32" style="stroke:#56B4E9;stroke-width:10.00"/>
	<line x1="1153.89" y1="2301.32" x2="1354.78" y2="2301.32" style="stroke:#009E73;stroke-width:10.00"/>
	<line x1="1462.65" y1="2301.32" x2="1663.54" y2="2301.32" style="stroke:#D55E00;stroke-width:10.00"/>
	<line x1="1771.41" y1="2301.32" x2="1972.30" y2="2301.32" style="stroke:#CC79A7;stroke-width:10.00"/>
	<line x1="2080.17" y1="2301.32" x2="2131.19" y2="2301.32" style="stroke:#A0A0A0;stroke-width:10.00"/>
	<line x1="2156.70" y1="2301.32" x2="2207.72" y2="2301.32" style="stroke:#A0A0A0;stroke-width:10.00"/>
	<line x1="2233.23" y1="2301.32" x2="2278.03" y2="2301.32" style="stroke:#A0A0A0;stroke-width:10.00"/>
	<text x="1349.04" y="239.12" style="font-family:'Helvetica';font-size:60.03px;fill:#000000" text-anchor="middle">Percent</text>
	<text x="1349.04" y="154.88" style="font-family:'Helvetica';font-size:90.01px;fill:#000000" text-anchor="middle">Full-time employment, Men</text>
</svg>
