<?xml version="1.0" encoding="UTF-8" standalone="no"?>
<!-- This is a Stata 15.1 generated SVG file (http://www.stata.com) -->

<svg version="1.1" width="3.54in" height="3.54in" viewBox="0 0 2551 2551" xmlns="http://www.w3.org/2000/svg" xmlns:xlink="http://www.w3.org/1999/xlink">
	<desc>Stata Graph - Graph</desc>
	<rect x="0" y="0" width="2551" height="2551" style="fill:#FFFFFF;stroke:none"/>
	<rect x="0.00" y="0.08" width="2551.00" height="2550.92" style="fill:#FFFFFF"/>
	<rect x="2.55" y="2.63" width="2545.90" height="2545.82" style="fill:none;stroke:#FFFFFF;stroke-width:5.10"/>
	<line x1="394.86" y1="1865.82" x2="2346.91" y2="1865.82" style="stroke:#E8E8E8;stroke-width:4.00"/>
	<line x1="394.86" y1="1704.55" x2="2346.91" y2="1704.55" style="stroke:#E8E8E8;stroke-width:4.00"/>
	<line x1="394.86" y1="1543.28" x2="2346.91" y2="1543.28" style="stroke:#E8E8E8;stroke-width:4.00"/>
	<line x1="394.86" y1="1382.08" x2="2346.91" y2="1382.08" style="stroke:#E8E8E8;stroke-width:4.00"/>
	<line x1="394.86" y1="1220.81" x2="2346.91" y2="1220.81" style="stroke:#E8E8E8;stroke-width:4.00"/>
	<line x1="394.86" y1="1059.54" x2="2346.91" y2="1059.54" style="stroke:#E8E8E8;stroke-width:4.00"/>
	<line x1="394.86" y1="898.35" x2="2346.91" y2="898.35" style="stroke:#E8E8E8;stroke-width:4.00"/>
	<line x1="394.86" y1="737.08" x2="2346.91" y2="737.08" style="stroke:#E8E8E8;stroke-width:4.00"/>
	<line x1="394.86" y1="575.81" x2="2346.91" y2="575.81" style="stroke:#E8E8E8;stroke-width:4.00"/>
	<line x1="394.86" y1="414.54" x2="2346.91" y2="414.54" style="stroke:#E8E8E8;stroke-width:4.00"/>
	<line x1="394.86" y1="253.35" x2="2346.91" y2="253.35" style="stroke:#E8E8E8;stroke-width:4.00"/>
	<line x1="450.98" y1="1921.94" x2="450.98" y2="197.22" style="stroke:#E8E8E8;stroke-width:4.00"/>
	<line x1="639.68" y1="1921.94" x2="639.68" y2="197.22" style="stroke:#E8E8E8;stroke-width:4.00"/>
	<line x1="875.58" y1="1921.94" x2="875.58" y2="197.22" style="stroke:#E8E8E8;stroke-width:4.00"/>
	<line x1="1111.39" y1="1921.94" x2="1111.39" y2="197.22" style="stroke:#E8E8E8;stroke-width:4.00"/>
	<line x1="1347.29" y1="1921.94" x2="1347.29" y2="197.22" style="stroke:#E8E8E8;stroke-width:4.00"/>
	<line x1="1583.18" y1="1921.94" x2="1583.18" y2="197.22" style="stroke:#E8E8E8;stroke-width:4.00"/>
	<line x1="1819.08" y1="1921.94" x2="1819.08" y2="197.22" style="stroke:#E8E8E8;stroke-width:4.00"/>
	<line x1="2054.89" y1="1921.94" x2="2054.89" y2="197.22" style="stroke:#E8E8E8;stroke-width:4.00"/>
	<line x1="2290.79" y1="1921.94" x2="2290.79" y2="197.22" style="stroke:#E8E8E8;stroke-width:4.00"/>
	<line x1="450.90" y1="1671.22" x2="545.29" y2="1657.51" stroke-linecap="round" style="stroke:#E69F00;stroke-width:10.00"/>
	<line x1="545.29" y1="1657.51" x2="639.60" y2="1661.50" stroke-linecap="round" style="stroke:#E69F00;stroke-width:10.00"/>
	<line x1="639.60" y1="1661.50" x2="733.99" y2="1585.29" stroke-linecap="round" style="stroke:#E69F00;stroke-width:10.00"/>
	<line x1="733.99" y1="1585.29" x2="875.50" y2="1607.29" stroke-linecap="round" style="stroke:#E69F00;stroke-width:10.00"/>
	<line x1="875.50" y1="1607.29" x2="969.89" y2="1602.27" stroke-linecap="round" style="stroke:#E69F00;stroke-width:10.00"/>
	<line x1="969.89" y1="1602.27" x2="1064.20" y2="1580.90" stroke-linecap="round" style="stroke:#E69F00;stroke-width:10.00"/>
	<line x1="1064.20" y1="1580.90" x2="1158.59" y2="1566.07" stroke-linecap="round" style="stroke:#E69F00;stroke-width:10.00"/>
	<line x1="1158.59" y1="1566.07" x2="1252.90" y2="1490.10" stroke-linecap="round" style="stroke:#E69F00;stroke-width:10.00"/>
	<line x1="1252.90" y1="1490.10" x2="1347.29" y2="1488.75" stroke-linecap="round" style="stroke:#E69F00;stroke-width:10.00"/>
	<line x1="1347.29" y1="1488.75" x2="1394.40" y2="1495.60" stroke-linecap="round" style="stroke:#E69F00;stroke-width:10.00"/>
	<line x1="1394.40" y1="1495.60" x2="1441.60" y2="1459.81" stroke-linecap="round" style="stroke:#E69F00;stroke-width:10.00"/>
	<line x1="1441.60" y1="1459.81" x2="1488.79" y2="1462.44" stroke-linecap="round" style="stroke:#E69F00;stroke-width:10.00"/>
	<line x1="1488.79" y1="1462.44" x2="1535.99" y2="1440.28" stroke-linecap="round" style="stroke:#E69F00;stroke-width:10.00"/>
	<line x1="1535.99" y1="1440.28" x2="1583.10" y2="1526.77" stroke-linecap="round" style="stroke:#E69F00;stroke-width:10.00"/>
	<line x1="1583.10" y1="1526.77" x2="1630.30" y2="1459.89" stroke-linecap="round" style="stroke:#E69F00;stroke-width:10.00"/>
	<line x1="1630.30" y1="1459.89" x2="1677.49" y2="1466.83" stroke-linecap="round" style="stroke:#E69F00;stroke-width:10.00"/>
	<line x1="1677.49" y1="1466.83" x2="1724.69" y2="1490.34" stroke-linecap="round" style="stroke:#E69F00;stroke-width:10.00"/>
	<line x1="875.50" y1="1546.70" x2="969.89" y2="1510.03" stroke-linecap="round" style="stroke:#56B4E9;stroke-width:10.00"/>
	<line x1="969.89" y1="1510.03" x2="1064.20" y2="1418.67" stroke-linecap="round" style="stroke:#56B4E9;stroke-width:10.00"/>
	<line x1="1064.20" y1="1418.67" x2="1158.59" y2="1447.21" stroke-linecap="round" style="stroke:#56B4E9;stroke-width:10.00"/>
	<line x1="1158.59" y1="1447.21" x2="1252.90" y2="1394.04" stroke-linecap="round" style="stroke:#56B4E9;stroke-width:10.00"/>
	<line x1="1252.90" y1="1394.04" x2="1347.29" y2="1359.84" stroke-linecap="round" style="stroke:#56B4E9;stroke-width:10.00"/>
	<line x1="1347.29" y1="1359.84" x2="1394.40" y2="1385.19" stroke-linecap="round" style="stroke:#56B4E9;stroke-width:10.00"/>
	<line x1="1394.40" y1="1385.19" x2="1441.60" y2="1358.25" stroke-linecap="round" style="stroke:#56B4E9;stroke-width:10.00"/>
	<line x1="1441.60" y1="1358.25" x2="1488.79" y2="1412.46" stroke-linecap="round" style="stroke:#56B4E9;stroke-width:10.00"/>
	<line x1="1488.79" y1="1412.46" x2="1535.99" y2="1332.82" stroke-linecap="round" style="stroke:#56B4E9;stroke-width:10.00"/>
	<line x1="1535.99" y1="1332.82" x2="1583.10" y2="1378.02" stroke-linecap="round" style="stroke:#56B4E9;stroke-width:10.00"/>
	<line x1="1583.10" y1="1378.02" x2="1630.30" y2="1396.11" stroke-linecap="round" style="stroke:#56B4E9;stroke-width:10.00"/>
	<line x1="1630.30" y1="1396.11" x2="1677.49" y2="1303.16" stroke-linecap="round" style="stroke:#56B4E9;stroke-width:10.00"/>
	<line x1="1677.49" y1="1303.16" x2="1724.69" y2="1314.16" stroke-linecap="round" style="stroke:#56B4E9;stroke-width:10.00"/>
	<line x1="1724.69" y1="1314.16" x2="1771.80" y2="1340.07" stroke-linecap="round" style="stroke:#56B4E9;stroke-width:10.00"/>
	<line x1="1771.80" y1="1340.07" x2="1819.00" y2="1341.27" stroke-linecap="round" style="stroke:#56B4E9;stroke-width:10.00"/>
	<line x1="1819.00" y1="1341.27" x2="1866.19" y2="1323.33" stroke-linecap="round" style="stroke:#56B4E9;stroke-width:10.00"/>
	<line x1="1866.19" y1="1323.33" x2="1913.39" y2="1352.03" stroke-linecap="round" style="stroke:#56B4E9;stroke-width:10.00"/>
	<line x1="1913.39" y1="1352.03" x2="1960.50" y2="1439.48" stroke-linecap="round" style="stroke:#56B4E9;stroke-width:10.00"/>
	<line x1="1960.50" y1="1439.48" x2="2007.70" y2="1245.61" stroke-linecap="round" style="stroke:#56B4E9;stroke-width:10.00"/>
	<line x1="2007.70" y1="1245.61" x2="2054.89" y2="1267.77" stroke-linecap="round" style="stroke:#56B4E9;stroke-width:10.00"/>
	<line x1="2054.89" y1="1267.77" x2="2102.09" y2="1336.17" stroke-linecap="round" style="stroke:#56B4E9;stroke-width:10.00"/>
	<line x1="2102.09" y1="1336.17" x2="2149.20" y2="1324.37" stroke-linecap="round" style="stroke:#56B4E9;stroke-width:10.00"/>
	<line x1="1347.29" y1="1452.24" x2="1394.40" y2="1431.27" stroke-linecap="round" style="stroke:#009E73;stroke-width:10.00"/>
	<line x1="1394.40" y1="1431.27" x2="1441.60" y2="1405.92" stroke-linecap="round" style="stroke:#009E73;stroke-width:10.00"/>
	<line x1="1441.60" y1="1405.92" x2="1488.79" y2="1407.12" stroke-linecap="round" style="stroke:#009E73;stroke-width:10.00"/>
	<line x1="1488.79" y1="1407.12" x2="1535.99" y2="1377.14" stroke-linecap="round" style="stroke:#009E73;stroke-width:10.00"/>
	<line x1="1535.99" y1="1377.14" x2="1583.10" y2="1471.53" stroke-linecap="round" style="stroke:#009E73;stroke-width:10.00"/>
	<line x1="1583.10" y1="1471.53" x2="1630.30" y2="1380.97" stroke-linecap="round" style="stroke:#009E73;stroke-width:10.00"/>
	<line x1="1630.30" y1="1380.97" x2="1677.49" y2="1360.48" stroke-linecap="round" style="stroke:#009E73;stroke-width:10.00"/>
	<line x1="1677.49" y1="1360.48" x2="1724.69" y2="1369.89" stroke-linecap="round" style="stroke:#009E73;stroke-width:10.00"/>
	<line x1="1724.69" y1="1369.89" x2="1771.80" y2="1365.42" stroke-linecap="round" style="stroke:#009E73;stroke-width:10.00"/>
	<line x1="1771.80" y1="1365.42" x2="1819.00" y2="1301.65" stroke-linecap="round" style="stroke:#009E73;stroke-width:10.00"/>
	<line x1="1819.00" y1="1301.65" x2="1866.19" y2="1340.63" stroke-linecap="round" style="stroke:#009E73;stroke-width:10.00"/>
	<line x1="1866.19" y1="1340.63" x2="1913.39" y2="1272.95" stroke-linecap="round" style="stroke:#009E73;stroke-width:10.00"/>
	<line x1="1913.39" y1="1272.95" x2="1960.50" y2="1291.60" stroke-linecap="round" style="stroke:#009E73;stroke-width:10.00"/>
	<line x1="1960.50" y1="1291.60" x2="2007.70" y2="1219.78" stroke-linecap="round" style="stroke:#009E73;stroke-width:10.00"/>
	<line x1="2007.70" y1="1219.78" x2="2054.89" y2="1247.04" stroke-linecap="round" style="stroke:#009E73;stroke-width:10.00"/>
	<line x1="2054.89" y1="1247.04" x2="2102.09" y2="1258.76" stroke-linecap="round" style="stroke:#009E73;stroke-width:10.00"/>
	<line x1="2102.09" y1="1258.76" x2="2149.20" y2="1235.80" stroke-linecap="round" style="stroke:#009E73;stroke-width:10.00"/>
	<line x1="2149.20" y1="1235.80" x2="2196.40" y2="1173.86" stroke-linecap="round" style="stroke:#009E73;stroke-width:10.00"/>
	<line x1="2196.40" y1="1173.86" x2="2243.59" y2="1206.62" stroke-linecap="round" style="stroke:#009E73;stroke-width:10.00"/>
	<line x1="2243.59" y1="1206.62" x2="2290.79" y2="1258.68" stroke-linecap="round" style="stroke:#009E73;stroke-width:10.00"/>
	<line x1="1771.80" y1="1380.49" x2="1819.00" y2="1338.80" stroke-linecap="round" style="stroke:#D55E00;stroke-width:10.00"/>
	<line x1="1819.00" y1="1338.80" x2="1866.19" y2="1347.80" stroke-linecap="round" style="stroke:#D55E00;stroke-width:10.00"/>
	<line x1="1866.19" y1="1347.80" x2="1913.39" y2="1280.44" stroke-linecap="round" style="stroke:#D55E00;stroke-width:10.00"/>
	<line x1="1913.39" y1="1280.44" x2="1960.50" y2="1332.34" stroke-linecap="round" style="stroke:#D55E00;stroke-width:10.00"/>
	<line x1="1960.50" y1="1332.34" x2="2007.70" y2="1294.63" stroke-linecap="round" style="stroke:#D55E00;stroke-width:10.00"/>
	<line x1="2007.70" y1="1294.63" x2="2054.89" y2="1273.43" stroke-linecap="round" style="stroke:#D55E00;stroke-width:10.00"/>
	<line x1="2054.89" y1="1273.43" x2="2102.09" y2="1248.48" stroke-linecap="round" style="stroke:#D55E00;stroke-width:10.00"/>
	<line x1="2102.09" y1="1248.48" x2="2149.20" y2="1232.29" stroke-linecap="round" style="stroke:#D55E00;stroke-width:10.00"/>
	<line x1="2149.20" y1="1232.29" x2="2196.40" y2="1246.08" stroke-linecap="round" style="stroke:#D55E00;stroke-width:10.00"/>
	<line x1="2196.40" y1="1246.08" x2="2243.59" y2="1224.64" stroke-linecap="round" style="stroke:#D55E00;stroke-width:10.00"/>
	<line x1="2243.59" y1="1224.64" x2="2290.79" y2="1233.97" stroke-linecap="round" style="stroke:#D55E00;stroke-width:10.00"/>
	<line x1="2102.09" y1="1362.23" x2="2149.20" y2="1328.99" stroke-linecap="round" style="stroke:#CC79A7;stroke-width:10.00"/>
	<line x1="2149.20" y1="1328.99" x2="2196.40" y2="1329.71" stroke-linecap="round" style="stroke:#CC79A7;stroke-width:10.00"/>
	<line x1="2196.40" y1="1329.71" x2="2243.59" y2="1300.29" stroke-linecap="round" style="stroke:#CC79A7;stroke-width:10.00"/>
	<line x1="2243.59" y1="1300.29" x2="2290.79" y2="1335.21" stroke-linecap="round" style="stroke:#CC79A7;stroke-width:10.00"/>
	<line x1="450.90" y1="1328.11" x2="501.85" y2="1330.90" style="stroke:#A0A0A0;stroke-width:10.00"/>
	<line x1="527.36" y1="1332.34" x2="545.29" y2="1333.30" style="stroke:#A0A0A0;stroke-width:10.00"/>
	<line x1="545.29" y1="1333.30" x2="578.22" y2="1330.90" style="stroke:#A0A0A0;stroke-width:10.00"/>
	<line x1="603.65" y1="1328.99" x2="639.60" y2="1326.36" style="stroke:#A0A0A0;stroke-width:10.00"/>
	<line x1="639.60" y1="1326.36" x2="654.35" y2="1323.49" style="stroke:#A0A0A0;stroke-width:10.00"/>
	<line x1="679.30" y1="1318.47" x2="729.37" y2="1308.58" style="stroke:#A0A0A0;stroke-width:10.00"/>
	<line x1="754.64" y1="1310.02" x2="805.34" y2="1315.92" style="stroke:#A0A0A0;stroke-width:10.00"/>
	<line x1="830.70" y1="1318.87" x2="875.50" y2="1324.05" style="stroke:#A0A0A0;stroke-width:10.00"/>
	<line x1="875.50" y1="1324.05" x2="881.40" y2="1324.45" style="stroke:#A0A0A0;stroke-width:10.00"/>
	<line x1="906.83" y1="1326.36" x2="957.69" y2="1330.03" style="stroke:#A0A0A0;stroke-width:10.00"/>
	<line x1="983.12" y1="1329.39" x2="1033.75" y2="1323.49" style="stroke:#A0A0A0;stroke-width:10.00"/>
	<line x1="1059.10" y1="1320.46" x2="1064.20" y2="1319.90" style="stroke:#A0A0A0;stroke-width:10.00"/>
	<line x1="1064.20" y1="1319.90" x2="1110.12" y2="1320.14" style="stroke:#A0A0A0;stroke-width:10.00"/>
	<line x1="1135.63" y1="1320.30" x2="1158.59" y2="1320.46" style="stroke:#A0A0A0;stroke-width:10.00"/>
	<line x1="1158.59" y1="1320.46" x2="1186.57" y2="1319.19" style="stroke:#A0A0A0;stroke-width:10.00"/>
	<line x1="1212.08" y1="1318.07" x2="1252.90" y2="1316.24" style="stroke:#A0A0A0;stroke-width:10.00"/>
	<line x1="1252.90" y1="1316.24" x2="1263.02" y2="1316.56" style="stroke:#A0A0A0;stroke-width:10.00"/>
	<line x1="1288.53" y1="1317.35" x2="1339.56" y2="1319.03" style="stroke:#A0A0A0;stroke-width:10.00"/>
	<line x1="1364.67" y1="1323.25" x2="1394.40" y2="1330.03" style="stroke:#A0A0A0;stroke-width:10.00"/>
	<line x1="1394.40" y1="1330.03" x2="1414.73" y2="1327.48" style="stroke:#A0A0A0;stroke-width:10.00"/>
	<line x1="1440.00" y1="1324.21" x2="1441.60" y2="1324.05" style="stroke:#A0A0A0;stroke-width:10.00"/>
	<line x1="1441.60" y1="1324.05" x2="1488.79" y2="1319.43" style="stroke:#A0A0A0;stroke-width:10.00"/>
	<line x1="1488.79" y1="1319.43" x2="1490.79" y2="1319.11" style="stroke:#A0A0A0;stroke-width:10.00"/>
	<line x1="1515.98" y1="1315.28" x2="1535.99" y2="1312.33" style="stroke:#A0A0A0;stroke-width:10.00"/>
	<line x1="1535.99" y1="1312.33" x2="1566.76" y2="1310.66" style="stroke:#A0A0A0;stroke-width:10.00"/>
	<line x1="1592.19" y1="1308.82" x2="1630.30" y2="1304.92" style="stroke:#A0A0A0;stroke-width:10.00"/>
	<line x1="1630.30" y1="1304.92" x2="1642.90" y2="1303.08" style="stroke:#A0A0A0;stroke-width:10.00"/>
	<line x1="1668.17" y1="1299.34" x2="1677.49" y2="1297.98" style="stroke:#A0A0A0;stroke-width:10.00"/>
	<line x1="1677.49" y1="1297.98" x2="1717.04" y2="1285.46" style="stroke:#A0A0A0;stroke-width:10.00"/>
	<line x1="1742.23" y1="1283.63" x2="1771.80" y2="1284.67" style="stroke:#A0A0A0;stroke-width:10.00"/>
	<line x1="1771.80" y1="1284.67" x2="1792.21" y2="1278.21" style="stroke:#A0A0A0;stroke-width:10.00"/>
	<line x1="1816.53" y1="1270.56" x2="1819.00" y2="1269.76" style="stroke:#A0A0A0;stroke-width:10.00"/>
	<line x1="1819.00" y1="1269.76" x2="1866.11" y2="1281.00" style="stroke:#A0A0A0;stroke-width:10.00"/>
	<line x1="1891.55" y1="1279.01" x2="1913.39" y2="1277.25" style="stroke:#A0A0A0;stroke-width:10.00"/>
	<line x1="1913.39" y1="1277.25" x2="1942.25" y2="1273.67" style="stroke:#A0A0A0;stroke-width:10.00"/>
	<line x1="1966.88" y1="1268.33" x2="2007.70" y2="1248.87" style="stroke:#A0A0A0;stroke-width:10.00"/>
	<line x1="2007.70" y1="1248.87" x2="2013.52" y2="1248.79" style="stroke:#A0A0A0;stroke-width:10.00"/>
	<line x1="2039.03" y1="1248.32" x2="2054.89" y2="1248.08" style="stroke:#A0A0A0;stroke-width:10.00"/>
	<line x1="2054.89" y1="1248.08" x2="2090.05" y2="1249.43" style="stroke:#A0A0A0;stroke-width:10.00"/>
	<line x1="2115.08" y1="1246.40" x2="2149.20" y2="1237.31" style="stroke:#A0A0A0;stroke-width:10.00"/>
	<line x1="2149.20" y1="1237.31" x2="2164.43" y2="1233.57" style="stroke:#A0A0A0;stroke-width:10.00"/>
	<line x1="2189.23" y1="1227.43" x2="2196.40" y2="1225.68" style="stroke:#A0A0A0;stroke-width:10.00"/>
	<line x1="2196.40" y1="1225.68" x2="2240.01" y2="1225.36" style="stroke:#A0A0A0;stroke-width:10.00"/>
	<line x1="2265.36" y1="1227.99" x2="2290.79" y2="1231.10" style="stroke:#A0A0A0;stroke-width:10.00"/>
	<line x1="394.86" y1="1865.82" x2="359.38" y2="1865.82" style="stroke:#000000;stroke-width:4.00"/>
	<text x="341.69" y="1883.33" style="font-family:'Helvetica';font-size:49.99px;fill:#000000" text-anchor="end">0</text>
	<line x1="394.86" y1="1704.55" x2="359.38" y2="1704.55" style="stroke:#000000;stroke-width:4.00"/>
	<text x="341.69" y="1722.06" style="font-family:'Helvetica';font-size:49.99px;fill:#000000" text-anchor="end">10</text>
	<line x1="394.86" y1="1543.28" x2="359.38" y2="1543.28" style="stroke:#000000;stroke-width:4.00"/>
	<text x="341.69" y="1560.79" style="font-family:'Helvetica';font-size:49.99px;fill:#000000" text-anchor="end">20</text>
	<line x1="394.86" y1="1382.08" x2="359.38" y2="1382.08" style="stroke:#000000;stroke-width:4.00"/>
	<text x="341.69" y="1399.60" style="font-family:'Helvetica';font-size:49.99px;fill:#000000" text-anchor="end">30</text>
	<line x1="394.86" y1="1220.81" x2="359.38" y2="1220.81" style="stroke:#000000;stroke-width:4.00"/>
	<text x="341.69" y="1238.33" style="font-family:'Helvetica';font-size:49.99px;fill:#000000" text-anchor="end">40</text>
	<line x1="394.86" y1="1059.54" x2="359.38" y2="1059.54" style="stroke:#000000;stroke-width:4.00"/>
	<text x="341.69" y="1077.06" style="font-family:'Helvetica';font-size:49.99px;fill:#000000" text-anchor="end">50</text>
	<line x1="394.86" y1="898.35" x2="359.38" y2="898.35" style="stroke:#000000;stroke-width:4.00"/>
	<text x="341.69" y="915.86" style="font-family:'Helvetica';font-size:49.99px;fill:#000000" text-anchor="end">60</text>
	<line x1="394.86" y1="737.08" x2="359.38" y2="737.08" style="stroke:#000000;stroke-width:4.00"/>
	<text x="341.69" y="754.59" style="font-family:'Helvetica';font-size:49.99px;fill:#000000" text-anchor="end">70</text>
	<line x1="394.86" y1="575.81" x2="359.38" y2="575.81" style="stroke:#000000;stroke-width:4.00"/>
	<text x="341.69" y="593.32" style="font-family:'Helvetica';font-size:49.99px;fill:#000000" text-anchor="end">80</text>
	<line x1="394.86" y1="414.54" x2="359.38" y2="414.54" style="stroke:#000000;stroke-width:4.00"/>
	<text x="341.69" y="432.05" style="font-family:'Helvetica';font-size:49.99px;fill:#000000" text-anchor="end">90</text>
	<line x1="394.86" y1="253.35" x2="359.38" y2="253.35" style="stroke:#000000;stroke-width:4.00"/>
	<text x="341.69" y="270.86" style="font-family:'Helvetica';font-size:49.99px;fill:#000000" text-anchor="end">100</text>
	<line x1="394.86" y1="1865.82" x2="394.86" y2="253.35" style="stroke:#000000;stroke-width:4.00"/>
	<text x="136.21" y="1021.28" style="font-family:'Helvetica';font-size:60.03px;fill:#000000" transform="rotate(-90 136.21,1021.28)" text-anchor="middle">Part-time employment share (in %)</text>
	<line x1="450.98" y1="1921.94" x2="450.98" y2="1957.33" style="stroke:#000000;stroke-width:4.00"/>
	<text x="450.98" y="2009.98" style="font-family:'Helvetica';font-size:49.99px;fill:#000000" text-anchor="middle">1976</text>
	<line x1="639.68" y1="1921.94" x2="639.68" y2="1957.33" style="stroke:#000000;stroke-width:4.00"/>
	<text x="639.68" y="2009.98" style="font-family:'Helvetica';font-size:49.99px;fill:#000000" text-anchor="middle">1980</text>
	<line x1="875.58" y1="1921.94" x2="875.58" y2="1957.33" style="stroke:#000000;stroke-width:4.00"/>
	<text x="875.58" y="2009.98" style="font-family:'Helvetica';font-size:49.99px;fill:#000000" text-anchor="middle">1985</text>
	<line x1="1111.39" y1="1921.94" x2="1111.39" y2="1957.33" style="stroke:#000000;stroke-width:4.00"/>
	<text x="1111.39" y="2009.98" style="font-family:'Helvetica';font-size:49.99px;fill:#000000" text-anchor="middle">1990</text>
	<line x1="1347.29" y1="1921.94" x2="1347.29" y2="1957.33" style="stroke:#000000;stroke-width:4.00"/>
	<text x="1347.29" y="2009.98" style="font-family:'Helvetica';font-size:49.99px;fill:#000000" text-anchor="middle">1995</text>
	<line x1="1583.18" y1="1921.94" x2="1583.18" y2="1957.33" style="stroke:#000000;stroke-width:4.00"/>
	<text x="1583.18" y="2009.98" style="font-family:'Helvetica';font-size:49.99px;fill:#000000" text-anchor="middle">2000</text>
	<line x1="1819.08" y1="1921.94" x2="1819.08" y2="1957.33" style="stroke:#000000;stroke-width:4.00"/>
	<text x="1819.08" y="2009.98" style="font-family:'Helvetica';font-size:49.99px;fill:#000000" text-anchor="middle">2005</text>
	<line x1="2054.89" y1="1921.94" x2="2054.89" y2="1957.33" style="stroke:#000000;stroke-width:4.00"/>
	<text x="2054.89" y="2009.98" style="font-family:'Helvetica';font-size:49.99px;fill:#000000" text-anchor="middle">2010</text>
	<line x1="2290.79" y1="1921.94" x2="2290.79" y2="1957.33" style="stroke:#000000;stroke-width:4.00"/>
	<text x="2290.79" y="2009.98" style="font-family:'Helvetica';font-size:49.99px;fill:#000000" text-anchor="middle">2015</text>
	<line x1="450.98" y1="1921.94" x2="2290.79" y2="1921.94" style="stroke:#000000;stroke-width:4.00"/>
	<text x="1332.62" y="2152.37" style="font-family:'Helvetica';font-size:60.03px;fill:#000000" text-anchor="middle">Year</text>
	<text x="145.41" y="2396.65" style="font-family:'Helvetica';font-size:60.03px;fill:#000000">Arr. cohort: </text>
	<text x="536.36" y="2396.65" style="font-family:'Helvetica';font-size:60.03px;fill:#000000">1964-73</text>
	<text x="845.12" y="2396.65" style="font-family:'Helvetica';font-size:60.03px;fill:#000000">1974-83</text>
	<text x="1153.89" y="2396.65" style="font-family:'Helvetica';font-size:60.03px;fill:#000000">1984-93</text>
	<text x="1462.65" y="2396.65" style="font-family:'Helvetica';font-size:60.03px;fill:#000000">1994-03</text>
	<text x="1771.41" y="2396.65" style="font-family:'Helvetica';font-size:60.03px;fill:#000000">2004-10</text>
	<text x="2080.17" y="2396.65" style="font-family:'Helvetica';font-size:60.03px;fill:#000000">German</text>
	<line x1="536.36" y1="2301.32" x2="737.26" y2="2301.32" style="stroke:#E69F00;stroke-width:10.00"/>
	<line x1="845.12" y1="2301.32" x2="1046.02" y2="2301.32" style="stroke:#56B4E9;stroke-width:10.00"/>
	<line x1="1153.89" y1="2301.32" x2="1354.78" y2="2301.32" style="stroke:#009E73;stroke-width:10.00"/>
	<line x1="1462.65" y1="2301.32" x2="1663.54" y2="2301.32" style="stroke:#D55E00;stroke-width:10.00"/>
	<line x1="1771.41" y1="2301.32" x2="1972.30" y2="2301.32" style="stroke:#CC79A7;stroke-width:10.00"/>
	<line x1="2080.17" y1="2301.32" x2="2131.19" y2="2301.32" style="stroke:#A0A0A0;stroke-width:10.00"/>
	<line x1="2156.70" y1="2301.32" x2="2207.72" y2="2301.32" style="stroke:#A0A0A0;stroke-width:10.00"/>
	<line x1="2233.23" y1="2301.32" x2="2278.03" y2="2301.32" style="stroke:#A0A0A0;stroke-width:10.00"/>
	<text x="1370.89" y="154.88" style="font-family:'Helvetica';font-size:90.01px;fill:#000000" text-anchor="middle">Women</text>
</svg>
