<?xml version="1.0" encoding="UTF-8" standalone="no"?>
<!-- This is a Stata 15.1 generated SVG file (http://www.stata.com) -->

<svg version="1.1" width="3.54in" height="3.54in" viewBox="0 0 2551 2551" xmlns="http://www.w3.org/2000/svg" xmlns:xlink="http://www.w3.org/1999/xlink">
	<desc>Stata Graph - Graph</desc>
	<rect x="0" y="0" width="2551" height="2551" style="fill:#FFFFFF;stroke:none"/>
	<rect x="0.00" y="0.08" width="2551.00" height="2550.92" style="fill:#FFFFFF"/>
	<rect x="2.55" y="2.63" width="2545.90" height="2545.82" style="fill:none;stroke:#FFFFFF;stroke-width:5.10"/>
	<line x1="394.86" y1="1865.82" x2="2346.91" y2="1865.82" style="stroke:#E8E8E8;stroke-width:4.00"/>
	<line x1="394.86" y1="1704.55" x2="2346.91" y2="1704.55" style="stroke:#E8E8E8;stroke-width:4.00"/>
	<line x1="394.86" y1="1543.28" x2="2346.91" y2="1543.28" style="stroke:#E8E8E8;stroke-width:4.00"/>
	<line x1="394.86" y1="1382.08" x2="2346.91" y2="1382.08" style="stroke:#E8E8E8;stroke-width:4.00"/>
	<line x1="394.86" y1="1220.81" x2="2346.91" y2="1220.81" style="stroke:#E8E8E8;stroke-width:4.00"/>
	<line x1="394.86" y1="1059.54" x2="2346.91" y2="1059.54" style="stroke:#E8E8E8;stroke-width:4.00"/>
	<line x1="394.86" y1="898.35" x2="2346.91" y2="898.35" style="stroke:#E8E8E8;stroke-width:4.00"/>
	<line x1="394.86" y1="737.08" x2="2346.91" y2="737.08" style="stroke:#E8E8E8;stroke-width:4.00"/>
	<line x1="394.86" y1="575.81" x2="2346.91" y2="575.81" style="stroke:#E8E8E8;stroke-width:4.00"/>
	<line x1="394.86" y1="414.54" x2="2346.91" y2="414.54" style="stroke:#E8E8E8;stroke-width:4.00"/>
	<line x1="394.86" y1="253.35" x2="2346.91" y2="253.35" style="stroke:#E8E8E8;stroke-width:4.00"/>
	<line x1="450.98" y1="1921.94" x2="450.98" y2="197.22" style="stroke:#E8E8E8;stroke-width:4.00"/>
	<line x1="639.68" y1="1921.94" x2="639.68" y2="197.22" style="stroke:#E8E8E8;stroke-width:4.00"/>
	<line x1="875.58" y1="1921.94" x2="875.58" y2="197.22" style="stroke:#E8E8E8;stroke-width:4.00"/>
	<line x1="1111.39" y1="1921.94" x2="1111.39" y2="197.22" style="stroke:#E8E8E8;stroke-width:4.00"/>
	<line x1="1347.29" y1="1921.94" x2="1347.29" y2="197.22" style="stroke:#E8E8E8;stroke-width:4.00"/>
	<line x1="1583.18" y1="1921.94" x2="1583.18" y2="197.22" style="stroke:#E8E8E8;stroke-width:4.00"/>
	<line x1="1819.08" y1="1921.94" x2="1819.08" y2="197.22" style="stroke:#E8E8E8;stroke-width:4.00"/>
	<line x1="2054.89" y1="1921.94" x2="2054.89" y2="197.22" style="stroke:#E8E8E8;stroke-width:4.00"/>
	<line x1="2290.79" y1="1921.94" x2="2290.79" y2="197.22" style="stroke:#E8E8E8;stroke-width:4.00"/>
	<line x1="450.90" y1="478.87" x2="545.29" y2="496.09" stroke-linecap="round" style="stroke:#E69F00;stroke-width:10.00"/>
	<line x1="545.29" y1="496.09" x2="639.60" y2="499.36" stroke-linecap="round" style="stroke:#E69F00;stroke-width:10.00"/>
	<line x1="639.60" y1="499.36" x2="733.99" y2="599.64" stroke-linecap="round" style="stroke:#E69F00;stroke-width:10.00"/>
	<line x1="733.99" y1="599.64" x2="875.50" y2="554.92" stroke-linecap="round" style="stroke:#E69F00;stroke-width:10.00"/>
	<line x1="875.50" y1="554.92" x2="969.89" y2="551.49" stroke-linecap="round" style="stroke:#E69F00;stroke-width:10.00"/>
	<line x1="969.89" y1="551.49" x2="1064.20" y2="578.28" stroke-linecap="round" style="stroke:#E69F00;stroke-width:10.00"/>
	<line x1="1064.20" y1="578.28" x2="1158.59" y2="620.37" stroke-linecap="round" style="stroke:#E69F00;stroke-width:10.00"/>
	<line x1="1158.59" y1="620.37" x2="1252.90" y2="722.97" stroke-linecap="round" style="stroke:#E69F00;stroke-width:10.00"/>
	<line x1="1252.90" y1="722.97" x2="1347.29" y2="721.30" stroke-linecap="round" style="stroke:#E69F00;stroke-width:10.00"/>
	<line x1="1347.29" y1="721.30" x2="1394.40" y2="757.09" stroke-linecap="round" style="stroke:#E69F00;stroke-width:10.00"/>
	<line x1="1394.40" y1="757.09" x2="1441.60" y2="814.41" stroke-linecap="round" style="stroke:#E69F00;stroke-width:10.00"/>
	<line x1="1441.60" y1="814.41" x2="1488.79" y2="806.20" stroke-linecap="round" style="stroke:#E69F00;stroke-width:10.00"/>
	<line x1="1488.79" y1="806.20" x2="1535.99" y2="874.51" stroke-linecap="round" style="stroke:#E69F00;stroke-width:10.00"/>
	<line x1="1535.99" y1="874.51" x2="1583.10" y2="766.02" stroke-linecap="round" style="stroke:#E69F00;stroke-width:10.00"/>
	<line x1="1583.10" y1="766.02" x2="1630.30" y2="878.98" stroke-linecap="round" style="stroke:#E69F00;stroke-width:10.00"/>
	<line x1="1630.30" y1="878.98" x2="1677.49" y2="879.22" stroke-linecap="round" style="stroke:#E69F00;stroke-width:10.00"/>
	<line x1="1677.49" y1="879.22" x2="1724.69" y2="857.22" stroke-linecap="round" style="stroke:#E69F00;stroke-width:10.00"/>
	<line x1="875.50" y1="668.36" x2="969.89" y2="750.71" stroke-linecap="round" style="stroke:#56B4E9;stroke-width:10.00"/>
	<line x1="969.89" y1="750.71" x2="1064.20" y2="823.26" stroke-linecap="round" style="stroke:#56B4E9;stroke-width:10.00"/>
	<line x1="1064.20" y1="823.26" x2="1158.59" y2="858.49" stroke-linecap="round" style="stroke:#56B4E9;stroke-width:10.00"/>
	<line x1="1158.59" y1="858.49" x2="1252.90" y2="915.65" stroke-linecap="round" style="stroke:#56B4E9;stroke-width:10.00"/>
	<line x1="1252.90" y1="915.65" x2="1347.29" y2="969.14" stroke-linecap="round" style="stroke:#56B4E9;stroke-width:10.00"/>
	<line x1="1347.29" y1="969.14" x2="1394.40" y2="949.21" stroke-linecap="round" style="stroke:#56B4E9;stroke-width:10.00"/>
	<line x1="1394.40" y1="949.21" x2="1441.60" y2="996.25" stroke-linecap="round" style="stroke:#56B4E9;stroke-width:10.00"/>
	<line x1="1441.60" y1="996.25" x2="1488.79" y2="966.51" stroke-linecap="round" style="stroke:#56B4E9;stroke-width:10.00"/>
	<line x1="1488.79" y1="966.51" x2="1535.99" y2="1068.55" stroke-linecap="round" style="stroke:#56B4E9;stroke-width:10.00"/>
	<line x1="1535.99" y1="1068.55" x2="1583.10" y2="997.92" stroke-linecap="round" style="stroke:#56B4E9;stroke-width:10.00"/>
	<line x1="1583.10" y1="997.92" x2="1630.30" y2="1058.59" stroke-linecap="round" style="stroke:#56B4E9;stroke-width:10.00"/>
	<line x1="1630.30" y1="1058.59" x2="1677.49" y2="1091.19" stroke-linecap="round" style="stroke:#56B4E9;stroke-width:10.00"/>
	<line x1="1677.49" y1="1091.19" x2="1724.69" y2="1083.30" stroke-linecap="round" style="stroke:#56B4E9;stroke-width:10.00"/>
	<line x1="1724.69" y1="1083.30" x2="1771.80" y2="1097.17" stroke-linecap="round" style="stroke:#56B4E9;stroke-width:10.00"/>
	<line x1="1771.80" y1="1097.17" x2="1819.00" y2="1075.88" stroke-linecap="round" style="stroke:#56B4E9;stroke-width:10.00"/>
	<line x1="1819.00" y1="1075.88" x2="1866.19" y2="1184.46" stroke-linecap="round" style="stroke:#56B4E9;stroke-width:10.00"/>
	<line x1="1866.19" y1="1184.46" x2="1913.39" y2="1140.86" stroke-linecap="round" style="stroke:#56B4E9;stroke-width:10.00"/>
	<line x1="1913.39" y1="1140.86" x2="1960.50" y2="1026.94" stroke-linecap="round" style="stroke:#56B4E9;stroke-width:10.00"/>
	<line x1="1960.50" y1="1026.94" x2="2007.70" y2="1221.21" stroke-linecap="round" style="stroke:#56B4E9;stroke-width:10.00"/>
	<line x1="2007.70" y1="1221.21" x2="2054.89" y2="1142.77" stroke-linecap="round" style="stroke:#56B4E9;stroke-width:10.00"/>
	<line x1="2054.89" y1="1142.77" x2="2102.09" y2="1132.40" stroke-linecap="round" style="stroke:#56B4E9;stroke-width:10.00"/>
	<line x1="2102.09" y1="1132.40" x2="2149.20" y2="1154.49" stroke-linecap="round" style="stroke:#56B4E9;stroke-width:10.00"/>
	<line x1="1347.29" y1="899.94" x2="1394.40" y2="990.66" stroke-linecap="round" style="stroke:#009E73;stroke-width:10.00"/>
	<line x1="1394.40" y1="990.66" x2="1441.60" y2="1029.73" stroke-linecap="round" style="stroke:#009E73;stroke-width:10.00"/>
	<line x1="1441.60" y1="1029.73" x2="1488.79" y2="1068.15" stroke-linecap="round" style="stroke:#009E73;stroke-width:10.00"/>
	<line x1="1488.79" y1="1068.15" x2="1535.99" y2="1083.06" stroke-linecap="round" style="stroke:#009E73;stroke-width:10.00"/>
	<line x1="1535.99" y1="1083.06" x2="1583.10" y2="1040.89" stroke-linecap="round" style="stroke:#009E73;stroke-width:10.00"/>
	<line x1="1583.10" y1="1040.89" x2="1630.30" y2="1124.19" stroke-linecap="round" style="stroke:#009E73;stroke-width:10.00"/>
	<line x1="1630.30" y1="1124.19" x2="1677.49" y2="1152.25" stroke-linecap="round" style="stroke:#009E73;stroke-width:10.00"/>
	<line x1="1677.49" y1="1152.25" x2="1724.69" y2="1177.37" stroke-linecap="round" style="stroke:#009E73;stroke-width:10.00"/>
	<line x1="1724.69" y1="1177.37" x2="1771.80" y2="1217.54" stroke-linecap="round" style="stroke:#009E73;stroke-width:10.00"/>
	<line x1="1771.80" y1="1217.54" x2="1819.00" y2="1272.79" stroke-linecap="round" style="stroke:#009E73;stroke-width:10.00"/>
	<line x1="1819.00" y1="1272.79" x2="1866.19" y2="1213.40" stroke-linecap="round" style="stroke:#009E73;stroke-width:10.00"/>
	<line x1="1866.19" y1="1213.40" x2="1913.39" y2="1268.64" stroke-linecap="round" style="stroke:#009E73;stroke-width:10.00"/>
	<line x1="1913.39" y1="1268.64" x2="1960.50" y2="1286.90" stroke-linecap="round" style="stroke:#009E73;stroke-width:10.00"/>
	<line x1="1960.50" y1="1286.90" x2="2007.70" y2="1348.76" stroke-linecap="round" style="stroke:#009E73;stroke-width:10.00"/>
	<line x1="2007.70" y1="1348.76" x2="2054.89" y2="1287.94" stroke-linecap="round" style="stroke:#009E73;stroke-width:10.00"/>
	<line x1="2054.89" y1="1287.94" x2="2102.09" y2="1254.61" stroke-linecap="round" style="stroke:#009E73;stroke-width:10.00"/>
	<line x1="2102.09" y1="1254.61" x2="2149.20" y2="1268.72" stroke-linecap="round" style="stroke:#009E73;stroke-width:10.00"/>
	<line x1="2149.20" y1="1268.72" x2="2196.40" y2="1326.44" stroke-linecap="round" style="stroke:#009E73;stroke-width:10.00"/>
	<line x1="2196.40" y1="1326.44" x2="2243.59" y2="1281.24" stroke-linecap="round" style="stroke:#009E73;stroke-width:10.00"/>
	<line x1="2243.59" y1="1281.24" x2="2290.79" y2="1262.03" stroke-linecap="round" style="stroke:#009E73;stroke-width:10.00"/>
	<line x1="1771.80" y1="1123.64" x2="1819.00" y2="1200.96" stroke-linecap="round" style="stroke:#D55E00;stroke-width:10.00"/>
	<line x1="1819.00" y1="1200.96" x2="1866.19" y2="1257.32" stroke-linecap="round" style="stroke:#D55E00;stroke-width:10.00"/>
	<line x1="1866.19" y1="1257.32" x2="1913.39" y2="1295.27" stroke-linecap="round" style="stroke:#D55E00;stroke-width:10.00"/>
	<line x1="1913.39" y1="1295.27" x2="1960.50" y2="1239.87" stroke-linecap="round" style="stroke:#D55E00;stroke-width:10.00"/>
	<line x1="1960.50" y1="1239.87" x2="2007.70" y2="1275.66" stroke-linecap="round" style="stroke:#D55E00;stroke-width:10.00"/>
	<line x1="2007.70" y1="1275.66" x2="2054.89" y2="1282.20" stroke-linecap="round" style="stroke:#D55E00;stroke-width:10.00"/>
	<line x1="2054.89" y1="1282.20" x2="2102.09" y2="1297.02" stroke-linecap="round" style="stroke:#D55E00;stroke-width:10.00"/>
	<line x1="2102.09" y1="1297.02" x2="2149.20" y2="1308.74" stroke-linecap="round" style="stroke:#D55E00;stroke-width:10.00"/>
	<line x1="2149.20" y1="1308.74" x2="2196.40" y2="1310.74" stroke-linecap="round" style="stroke:#D55E00;stroke-width:10.00"/>
	<line x1="2196.40" y1="1310.74" x2="2243.59" y2="1302.44" stroke-linecap="round" style="stroke:#D55E00;stroke-width:10.00"/>
	<line x1="2243.59" y1="1302.44" x2="2290.79" y2="1315.68" stroke-linecap="round" style="stroke:#D55E00;stroke-width:10.00"/>
	<line x1="2102.09" y1="1143.33" x2="2149.20" y2="1174.50" stroke-linecap="round" style="stroke:#CC79A7;stroke-width:10.00"/>
	<line x1="2149.20" y1="1174.50" x2="2196.40" y2="1157.44" stroke-linecap="round" style="stroke:#CC79A7;stroke-width:10.00"/>
	<line x1="2196.40" y1="1157.44" x2="2243.59" y2="1172.90" stroke-linecap="round" style="stroke:#CC79A7;stroke-width:10.00"/>
	<line x1="2243.59" y1="1172.90" x2="2290.79" y2="1178.00" stroke-linecap="round" style="stroke:#CC79A7;stroke-width:10.00"/>
	<line x1="450.90" y1="884.96" x2="501.92" y2="886.55" style="stroke:#A0A0A0;stroke-width:10.00"/>
	<line x1="527.36" y1="887.35" x2="545.29" y2="887.91" style="stroke:#A0A0A0;stroke-width:10.00"/>
	<line x1="545.29" y1="887.91" x2="578.38" y2="889.18" style="stroke:#A0A0A0;stroke-width:10.00"/>
	<line x1="603.89" y1="890.22" x2="639.60" y2="891.57" style="stroke:#A0A0A0;stroke-width:10.00"/>
	<line x1="639.60" y1="891.57" x2="653.95" y2="896.76" style="stroke:#A0A0A0;stroke-width:10.00"/>
	<line x1="677.95" y1="905.45" x2="725.94" y2="922.74" style="stroke:#A0A0A0;stroke-width:10.00"/>
	<line x1="750.58" y1="922.35" x2="800.64" y2="912.38" style="stroke:#A0A0A0;stroke-width:10.00"/>
	<line x1="825.67" y1="907.36" x2="875.50" y2="897.39" style="stroke:#A0A0A0;stroke-width:10.00"/>
	<line x1="875.50" y1="897.39" x2="875.66" y2="897.39" style="stroke:#A0A0A0;stroke-width:10.00"/>
	<line x1="901.09" y1="895.00" x2="951.87" y2="890.14" style="stroke:#A0A0A0;stroke-width:10.00"/>
	<line x1="977.22" y1="889.42" x2="1027.77" y2="896.52" style="stroke:#A0A0A0;stroke-width:10.00"/>
	<line x1="1053.04" y1="900.10" x2="1064.20" y2="901.70" style="stroke:#A0A0A0;stroke-width:10.00"/>
	<line x1="1064.20" y1="901.70" x2="1100.71" y2="917.32" style="stroke:#A0A0A0;stroke-width:10.00"/>
	<line x1="1124.15" y1="927.37" x2="1158.59" y2="942.20" style="stroke:#A0A0A0;stroke-width:10.00"/>
	<line x1="1158.59" y1="942.20" x2="1171.98" y2="943.63" style="stroke:#A0A0A0;stroke-width:10.00"/>
	<line x1="1197.41" y1="946.26" x2="1248.12" y2="951.52" style="stroke:#A0A0A0;stroke-width:10.00"/>
	<line x1="1273.47" y1="954.15" x2="1324.25" y2="959.42" style="stroke:#A0A0A0;stroke-width:10.00"/>
	<line x1="1349.60" y1="961.97" x2="1394.40" y2="966.11" style="stroke:#A0A0A0;stroke-width:10.00"/>
	<line x1="1394.40" y1="966.11" x2="1399.98" y2="968.42" style="stroke:#A0A0A0;stroke-width:10.00"/>
	<line x1="1423.58" y1="978.15" x2="1441.60" y2="985.56" style="stroke:#A0A0A0;stroke-width:10.00"/>
	<line x1="1441.60" y1="985.56" x2="1471.73" y2="994.97" style="stroke:#A0A0A0;stroke-width:10.00"/>
	<line x1="1495.65" y1="1003.58" x2="1535.99" y2="1022.23" style="stroke:#A0A0A0;stroke-width:10.00"/>
	<line x1="1535.99" y1="1022.23" x2="1542.53" y2="1023.19" style="stroke:#A0A0A0;stroke-width:10.00"/>
	<line x1="1567.72" y1="1027.02" x2="1583.10" y2="1029.33" style="stroke:#A0A0A0;stroke-width:10.00"/>
	<line x1="1583.10" y1="1029.33" x2="1617.86" y2="1036.26" style="stroke:#A0A0A0;stroke-width:10.00"/>
	<line x1="1642.74" y1="1042.08" x2="1677.49" y2="1051.25" style="stroke:#A0A0A0;stroke-width:10.00"/>
	<line x1="1677.49" y1="1051.25" x2="1691.84" y2="1055.80" style="stroke:#A0A0A0;stroke-width:10.00"/>
	<line x1="1716.24" y1="1063.53" x2="1724.69" y2="1066.16" style="stroke:#A0A0A0;stroke-width:10.00"/>
	<line x1="1724.69" y1="1066.16" x2="1766.46" y2="1071.82" style="stroke:#A0A0A0;stroke-width:10.00"/>
	<line x1="1788.79" y1="1083.38" x2="1819.00" y2="1102.43" style="stroke:#A0A0A0;stroke-width:10.00"/>
	<line x1="1819.00" y1="1102.43" x2="1832.71" y2="1109.29" style="stroke:#A0A0A0;stroke-width:10.00"/>
	<line x1="1855.51" y1="1120.61" x2="1866.19" y2="1125.95" style="stroke:#A0A0A0;stroke-width:10.00"/>
	<line x1="1866.19" y1="1125.95" x2="1905.26" y2="1123.08" style="stroke:#A0A0A0;stroke-width:10.00"/>
	<line x1="1930.69" y1="1121.24" x2="1960.50" y2="1119.09" style="stroke:#A0A0A0;stroke-width:10.00"/>
	<line x1="1960.50" y1="1119.09" x2="1980.04" y2="1126.90" style="stroke:#A0A0A0;stroke-width:10.00"/>
	<line x1="2003.79" y1="1136.39" x2="2007.70" y2="1137.99" style="stroke:#A0A0A0;stroke-width:10.00"/>
	<line x1="2007.70" y1="1137.99" x2="2053.22" y2="1127.30" style="stroke:#A0A0A0;stroke-width:10.00"/>
	<line x1="2078.09" y1="1121.56" x2="2102.09" y2="1115.98" style="stroke:#A0A0A0;stroke-width:10.00"/>
	<line x1="2102.09" y1="1115.98" x2="2128.32" y2="1118.77" style="stroke:#A0A0A0;stroke-width:10.00"/>
	<line x1="2153.67" y1="1121.08" x2="2196.40" y2="1121.88" style="stroke:#A0A0A0;stroke-width:10.00"/>
	<line x1="2196.40" y1="1121.88" x2="2204.53" y2="1120.13" style="stroke:#A0A0A0;stroke-width:10.00"/>
	<line x1="2229.48" y1="1114.79" x2="2243.59" y2="1111.68" style="stroke:#A0A0A0;stroke-width:10.00"/>
	<line x1="2243.59" y1="1111.68" x2="2278.91" y2="1102.43" style="stroke:#A0A0A0;stroke-width:10.00"/>
	<line x1="394.86" y1="1865.82" x2="359.38" y2="1865.82" style="stroke:#000000;stroke-width:4.00"/>
	<text x="341.69" y="1883.33" style="font-family:'Helvetica';font-size:49.99px;fill:#000000" text-anchor="end">0</text>
	<line x1="394.86" y1="1704.55" x2="359.38" y2="1704.55" style="stroke:#000000;stroke-width:4.00"/>
	<text x="341.69" y="1722.06" style="font-family:'Helvetica';font-size:49.99px;fill:#000000" text-anchor="end">10</text>
	<line x1="394.86" y1="1543.28" x2="359.38" y2="1543.28" style="stroke:#000000;stroke-width:4.00"/>
	<text x="341.69" y="1560.79" style="font-family:'Helvetica';font-size:49.99px;fill:#000000" text-anchor="end">20</text>
	<line x1="394.86" y1="1382.08" x2="359.38" y2="1382.08" style="stroke:#000000;stroke-width:4.00"/>
	<text x="341.69" y="1399.60" style="font-family:'Helvetica';font-size:49.99px;fill:#000000" text-anchor="end">30</text>
	<line x1="394.86" y1="1220.81" x2="359.38" y2="1220.81" style="stroke:#000000;stroke-width:4.00"/>
	<text x="341.69" y="1238.33" style="font-family:'Helvetica';font-size:49.99px;fill:#000000" text-anchor="end">40</text>
	<line x1="394.86" y1="1059.54" x2="359.38" y2="1059.54" style="stroke:#000000;stroke-width:4.00"/>
	<text x="341.69" y="1077.06" style="font-family:'Helvetica';font-size:49.99px;fill:#000000" text-anchor="end">50</text>
	<line x1="394.86" y1="898.35" x2="359.38" y2="898.35" style="stroke:#000000;stroke-width:4.00"/>
	<text x="341.69" y="915.86" style="font-family:'Helvetica';font-size:49.99px;fill:#000000" text-anchor="end">60</text>
	<line x1="394.86" y1="737.08" x2="359.38" y2="737.08" style="stroke:#000000;stroke-width:4.00"/>
	<text x="341.69" y="754.59" style="font-family:'Helvetica';font-size:49.99px;fill:#000000" text-anchor="end">70</text>
	<line x1="394.86" y1="575.81" x2="359.38" y2="575.81" style="stroke:#000000;stroke-width:4.00"/>
	<text x="341.69" y="593.32" style="font-family:'Helvetica';font-size:49.99px;fill:#000000" text-anchor="end">80</text>
	<line x1="394.86" y1="414.54" x2="359.38" y2="414.54" style="stroke:#000000;stroke-width:4.00"/>
	<text x="341.69" y="432.05" style="font-family:'Helvetica';font-size:49.99px;fill:#000000" text-anchor="end">90</text>
	<line x1="394.86" y1="253.35" x2="359.38" y2="253.35" style="stroke:#000000;stroke-width:4.00"/>
	<text x="341.69" y="270.86" style="font-family:'Helvetica';font-size:49.99px;fill:#000000" text-anchor="end">100</text>
	<line x1="394.86" y1="1865.82" x2="394.86" y2="253.35" style="stroke:#000000;stroke-width:4.00"/>
	<text x="136.21" y="1021.28" style="font-family:'Helvetica';font-size:60.03px;fill:#000000" transform="rotate(-90 136.21,1021.28)" text-anchor="middle">Full-time employment share (in %)</text>
	<line x1="450.98" y1="1921.94" x2="450.98" y2="1957.33" style="stroke:#000000;stroke-width:4.00"/>
	<text x="450.98" y="2009.98" style="font-family:'Helvetica';font-size:49.99px;fill:#000000" text-anchor="middle">1976</text>
	<line x1="639.68" y1="1921.94" x2="639.68" y2="1957.33" style="stroke:#000000;stroke-width:4.00"/>
	<text x="639.68" y="2009.98" style="font-family:'Helvetica';font-size:49.99px;fill:#000000" text-anchor="middle">1980</text>
	<line x1="875.58" y1="1921.94" x2="875.58" y2="1957.33" style="stroke:#000000;stroke-width:4.00"/>
	<text x="875.58" y="2009.98" style="font-family:'Helvetica';font-size:49.99px;fill:#000000" text-anchor="middle">1985</text>
	<line x1="1111.39" y1="1921.94" x2="1111.39" y2="1957.33" style="stroke:#000000;stroke-width:4.00"/>
	<text x="1111.39" y="2009.98" style="font-family:'Helvetica';font-size:49.99px;fill:#000000" text-anchor="middle">1990</text>
	<line x1="1347.29" y1="1921.94" x2="1347.29" y2="1957.33" style="stroke:#000000;stroke-width:4.00"/>
	<text x="1347.29" y="2009.98" style="font-family:'Helvetica';font-size:49.99px;fill:#000000" text-anchor="middle">1995</text>
	<line x1="1583.18" y1="1921.94" x2="1583.18" y2="1957.33" style="stroke:#000000;stroke-width:4.00"/>
	<text x="1583.18" y="2009.98" style="font-family:'Helvetica';font-size:49.99px;fill:#000000" text-anchor="middle">2000</text>
	<line x1="1819.08" y1="1921.94" x2="1819.08" y2="1957.33" style="stroke:#000000;stroke-width:4.00"/>
	<text x="1819.08" y="2009.98" style="font-family:'Helvetica';font-size:49.99px;fill:#000000" text-anchor="middle">2005</text>
	<line x1="2054.89" y1="1921.94" x2="2054.89" y2="1957.33" style="stroke:#000000;stroke-width:4.00"/>
	<text x="2054.89" y="2009.98" style="font-family:'Helvetica';font-size:49.99px;fill:#000000" text-anchor="middle">2010</text>
	<line x1="2290.79" y1="1921.94" x2="2290.79" y2="1957.33" style="stroke:#000000;stroke-width:4.00"/>
	<text x="2290.79" y="2009.98" style="font-family:'Helvetica';font-size:49.99px;fill:#000000" text-anchor="middle">2015</text>
	<line x1="450.98" y1="1921.94" x2="2290.79" y2="1921.94" style="stroke:#000000;stroke-width:4.00"/>
	<text x="1332.62" y="2152.37" style="font-family:'Helvetica';font-size:60.03px;fill:#000000" text-anchor="middle">Year</text>
	<text x="145.41" y="2396.65" style="font-family:'Helvetica';font-size:60.03px;fill:#000000">Arr. cohort: </text>
	<text x="536.36" y="2396.65" style="font-family:'Helvetica';font-size:60.03px;fill:#000000">1964-73</text>
	<text x="845.12" y="2396.65" style="font-family:'Helvetica';font-size:60.03px;fill:#000000">1974-83</text>
	<text x="1153.89" y="2396.65" style="font-family:'Helvetica';font-size:60.03px;fill:#000000">1984-93</text>
	<text x="1462.65" y="2396.65" style="font-family:'Helvetica';font-size:60.03px;fill:#000000">1994-03</text>
	<text x="1771.41" y="2396.65" style="font-family:'Helvetica';font-size:60.03px;fill:#000000">2004-10</text>
	<text x="2080.17" y="2396.65" style="font-family:'Helvetica';font-size:60.03px;fill:#000000">German</text>
	<line x1="536.36" y1="2301.32" x2="737.26" y2="2301.32" style="stroke:#E69F00;stroke-width:10.00"/>
	<line x1="845.12" y1="2301.32" x2="1046.02" y2="2301.32" style="stroke:#56B4E9;stroke-width:10.00"/>
	<line x1="1153.89" y1="2301.32" x2="1354.78" y2="2301.32" style="stroke:#009E73;stroke-width:10.00"/>
	<line x1="1462.65" y1="2301.32" x2="1663.54" y2="2301.32" style="stroke:#D55E00;stroke-width:10.00"/>
	<line x1="1771.41" y1="2301.32" x2="1972.30" y2="2301.32" style="stroke:#CC79A7;stroke-width:10.00"/>
	<line x1="2080.17" y1="2301.32" x2="2131.19" y2="2301.32" style="stroke:#A0A0A0;stroke-width:10.00"/>
	<line x1="2156.70" y1="2301.32" x2="2207.72" y2="2301.32" style="stroke:#A0A0A0;stroke-width:10.00"/>
	<line x1="2233.23" y1="2301.32" x2="2278.03" y2="2301.32" style="stroke:#A0A0A0;stroke-width:10.00"/>
	<text x="1370.89" y="154.88" style="font-family:'Helvetica';font-size:90.01px;fill:#000000" text-anchor="middle">Women</text>
</svg>
