<?xml version="1.0" encoding="UTF-8" standalone="no"?>
<!-- This is a Stata 15.1 generated SVG file (http://www.stata.com) -->

<svg version="1.1" width="3.54in" height="3.54in" viewBox="0 0 2551 2551" xmlns="http://www.w3.org/2000/svg" xmlns:xlink="http://www.w3.org/1999/xlink">
	<desc>Stata Graph - Graph</desc>
	<rect x="0" y="0" width="2551" height="2551" style="fill:#FFFFFF;stroke:none"/>
	<rect x="0.00" y="0.08" width="2551.00" height="2550.92" style="fill:#FFFFFF"/>
	<rect x="2.55" y="2.63" width="2545.90" height="2545.82" style="fill:none;stroke:#FFFFFF;stroke-width:5.10"/>
	<line x1="351.09" y1="1865.82" x2="2346.91" y2="1865.82" style="stroke:#E8E8E8;stroke-width:4.00"/>
	<line x1="351.09" y1="1715.63" x2="2346.91" y2="1715.63" style="stroke:#E8E8E8;stroke-width:4.00"/>
	<line x1="351.09" y1="1565.52" x2="2346.91" y2="1565.52" style="stroke:#E8E8E8;stroke-width:4.00"/>
	<line x1="351.09" y1="1415.41" x2="2346.91" y2="1415.41" style="stroke:#E8E8E8;stroke-width:4.00"/>
	<line x1="351.09" y1="1265.22" x2="2346.91" y2="1265.22" style="stroke:#E8E8E8;stroke-width:4.00"/>
	<line x1="351.09" y1="1115.11" x2="2346.91" y2="1115.11" style="stroke:#E8E8E8;stroke-width:4.00"/>
	<line x1="351.09" y1="964.92" x2="2346.91" y2="964.92" style="stroke:#E8E8E8;stroke-width:4.00"/>
	<line x1="351.09" y1="814.81" x2="2346.91" y2="814.81" style="stroke:#E8E8E8;stroke-width:4.00"/>
	<line x1="351.09" y1="664.62" x2="2346.91" y2="664.62" style="stroke:#E8E8E8;stroke-width:4.00"/>
	<line x1="351.09" y1="514.50" x2="2346.91" y2="514.50" style="stroke:#E8E8E8;stroke-width:4.00"/>
	<line x1="351.09" y1="364.31" x2="2346.91" y2="364.31" style="stroke:#E8E8E8;stroke-width:4.00"/>
	<line x1="407.22" y1="1921.94" x2="407.22" y2="308.19" style="stroke:#E8E8E8;stroke-width:4.00"/>
	<line x1="642.63" y1="1921.94" x2="642.63" y2="308.19" style="stroke:#E8E8E8;stroke-width:4.00"/>
	<line x1="878.13" y1="1921.94" x2="878.13" y2="308.19" style="stroke:#E8E8E8;stroke-width:4.00"/>
	<line x1="1113.55" y1="1921.94" x2="1113.55" y2="308.19" style="stroke:#E8E8E8;stroke-width:4.00"/>
	<line x1="1349.04" y1="1921.94" x2="1349.04" y2="308.19" style="stroke:#E8E8E8;stroke-width:4.00"/>
	<line x1="1584.46" y1="1921.94" x2="1584.46" y2="308.19" style="stroke:#E8E8E8;stroke-width:4.00"/>
	<line x1="1819.88" y1="1921.94" x2="1819.88" y2="308.19" style="stroke:#E8E8E8;stroke-width:4.00"/>
	<line x1="2055.37" y1="1921.94" x2="2055.37" y2="308.19" style="stroke:#E8E8E8;stroke-width:4.00"/>
	<line x1="2290.79" y1="1921.94" x2="2290.79" y2="308.19" style="stroke:#E8E8E8;stroke-width:4.00"/>
	<line x1="407.22" y1="1857.53" x2="501.37" y2="1858.48" stroke-linecap="round" style="stroke:#E69F00;stroke-width:10.00"/>
	<line x1="501.37" y1="1858.48" x2="595.52" y2="1859.76" stroke-linecap="round" style="stroke:#E69F00;stroke-width:10.00"/>
	<line x1="595.52" y1="1859.76" x2="689.75" y2="1857.69" stroke-linecap="round" style="stroke:#E69F00;stroke-width:10.00"/>
	<line x1="689.75" y1="1857.69" x2="831.01" y2="1858.16" stroke-linecap="round" style="stroke:#E69F00;stroke-width:10.00"/>
	<line x1="831.01" y1="1858.16" x2="925.17" y2="1862.95" stroke-linecap="round" style="stroke:#E69F00;stroke-width:10.00"/>
	<line x1="925.17" y1="1862.95" x2="1019.32" y2="1859.76" stroke-linecap="round" style="stroke:#E69F00;stroke-width:10.00"/>
	<line x1="1019.32" y1="1859.76" x2="1113.55" y2="1860.00" stroke-linecap="round" style="stroke:#E69F00;stroke-width:10.00"/>
	<line x1="1113.55" y1="1860.00" x2="1207.70" y2="1858.96" stroke-linecap="round" style="stroke:#E69F00;stroke-width:10.00"/>
	<line x1="1207.70" y1="1858.96" x2="1301.85" y2="1854.18" stroke-linecap="round" style="stroke:#E69F00;stroke-width:10.00"/>
	<line x1="1301.85" y1="1854.18" x2="1348.96" y2="1855.29" stroke-linecap="round" style="stroke:#E69F00;stroke-width:10.00"/>
	<line x1="1348.96" y1="1855.29" x2="1396.08" y2="1860.87" stroke-linecap="round" style="stroke:#E69F00;stroke-width:10.00"/>
	<line x1="1396.08" y1="1860.87" x2="1443.11" y2="1857.77" stroke-linecap="round" style="stroke:#E69F00;stroke-width:10.00"/>
	<line x1="1443.11" y1="1857.77" x2="1490.23" y2="1838.87" stroke-linecap="round" style="stroke:#E69F00;stroke-width:10.00"/>
	<line x1="1490.23" y1="1838.87" x2="1537.34" y2="1850.67" stroke-linecap="round" style="stroke:#E69F00;stroke-width:10.00"/>
	<line x1="1537.34" y1="1850.67" x2="1584.38" y2="1835.60" stroke-linecap="round" style="stroke:#E69F00;stroke-width:10.00"/>
	<line x1="1584.38" y1="1835.60" x2="1631.50" y2="1855.21" stroke-linecap="round" style="stroke:#E69F00;stroke-width:10.00"/>
	<line x1="1631.50" y1="1855.21" x2="1678.61" y2="1843.97" stroke-linecap="round" style="stroke:#E69F00;stroke-width:10.00"/>
	<line x1="831.01" y1="1850.51" x2="925.17" y2="1852.90" stroke-linecap="round" style="stroke:#56B4E9;stroke-width:10.00"/>
	<line x1="925.17" y1="1852.90" x2="1019.32" y2="1858.16" stroke-linecap="round" style="stroke:#56B4E9;stroke-width:10.00"/>
	<line x1="1019.32" y1="1858.16" x2="1113.55" y2="1839.03" stroke-linecap="round" style="stroke:#56B4E9;stroke-width:10.00"/>
	<line x1="1113.55" y1="1839.03" x2="1207.70" y2="1849.32" stroke-linecap="round" style="stroke:#56B4E9;stroke-width:10.00"/>
	<line x1="1207.70" y1="1849.32" x2="1301.85" y2="1854.10" stroke-linecap="round" style="stroke:#56B4E9;stroke-width:10.00"/>
	<line x1="1301.85" y1="1854.10" x2="1348.96" y2="1838.08" stroke-linecap="round" style="stroke:#56B4E9;stroke-width:10.00"/>
	<line x1="1348.96" y1="1838.08" x2="1396.08" y2="1836.80" stroke-linecap="round" style="stroke:#56B4E9;stroke-width:10.00"/>
	<line x1="1396.08" y1="1836.80" x2="1443.11" y2="1831.86" stroke-linecap="round" style="stroke:#56B4E9;stroke-width:10.00"/>
	<line x1="1443.11" y1="1831.86" x2="1490.23" y2="1845.01" stroke-linecap="round" style="stroke:#56B4E9;stroke-width:10.00"/>
	<line x1="1490.23" y1="1845.01" x2="1537.34" y2="1841.26" stroke-linecap="round" style="stroke:#56B4E9;stroke-width:10.00"/>
	<line x1="1537.34" y1="1841.26" x2="1584.38" y2="1848.20" stroke-linecap="round" style="stroke:#56B4E9;stroke-width:10.00"/>
	<line x1="1584.38" y1="1848.20" x2="1631.50" y2="1847.72" stroke-linecap="round" style="stroke:#56B4E9;stroke-width:10.00"/>
	<line x1="1631.50" y1="1847.72" x2="1678.61" y2="1833.13" stroke-linecap="round" style="stroke:#56B4E9;stroke-width:10.00"/>
	<line x1="1678.61" y1="1833.13" x2="1725.65" y2="1796.70" stroke-linecap="round" style="stroke:#56B4E9;stroke-width:10.00"/>
	<line x1="1725.65" y1="1796.70" x2="1772.76" y2="1814.48" stroke-linecap="round" style="stroke:#56B4E9;stroke-width:10.00"/>
	<line x1="1772.76" y1="1814.48" x2="1819.88" y2="1774.94" stroke-linecap="round" style="stroke:#56B4E9;stroke-width:10.00"/>
	<line x1="1819.88" y1="1774.94" x2="1866.99" y2="1811.53" stroke-linecap="round" style="stroke:#56B4E9;stroke-width:10.00"/>
	<line x1="1866.99" y1="1811.53" x2="1914.03" y2="1816.95" stroke-linecap="round" style="stroke:#56B4E9;stroke-width:10.00"/>
	<line x1="1914.03" y1="1816.95" x2="1961.14" y2="1774.30" stroke-linecap="round" style="stroke:#56B4E9;stroke-width:10.00"/>
	<line x1="1961.14" y1="1774.30" x2="2008.26" y2="1828.67" stroke-linecap="round" style="stroke:#56B4E9;stroke-width:10.00"/>
	<line x1="2008.26" y1="1828.67" x2="2055.29" y2="1790.80" stroke-linecap="round" style="stroke:#56B4E9;stroke-width:10.00"/>
	<line x1="2055.29" y1="1790.80" x2="2102.41" y2="1789.93" stroke-linecap="round" style="stroke:#56B4E9;stroke-width:10.00"/>
	<line x1="2102.41" y1="1789.93" x2="2149.52" y2="1821.81" stroke-linecap="round" style="stroke:#56B4E9;stroke-width:10.00"/>
	<line x1="1301.85" y1="1839.43" x2="1348.96" y2="1806.91" stroke-linecap="round" style="stroke:#009E73;stroke-width:10.00"/>
	<line x1="1348.96" y1="1806.91" x2="1396.08" y2="1807.54" stroke-linecap="round" style="stroke:#009E73;stroke-width:10.00"/>
	<line x1="1396.08" y1="1807.54" x2="1443.11" y2="1819.74" stroke-linecap="round" style="stroke:#009E73;stroke-width:10.00"/>
	<line x1="1443.11" y1="1819.74" x2="1490.23" y2="1795.74" stroke-linecap="round" style="stroke:#009E73;stroke-width:10.00"/>
	<line x1="1490.23" y1="1795.74" x2="1537.34" y2="1808.02" stroke-linecap="round" style="stroke:#009E73;stroke-width:10.00"/>
	<line x1="1537.34" y1="1808.02" x2="1584.38" y2="1821.49" stroke-linecap="round" style="stroke:#009E73;stroke-width:10.00"/>
	<line x1="1584.38" y1="1821.49" x2="1631.50" y2="1824.60" stroke-linecap="round" style="stroke:#009E73;stroke-width:10.00"/>
	<line x1="1631.50" y1="1824.60" x2="1678.61" y2="1832.02" stroke-linecap="round" style="stroke:#009E73;stroke-width:10.00"/>
	<line x1="1678.61" y1="1832.02" x2="1725.65" y2="1824.04" stroke-linecap="round" style="stroke:#009E73;stroke-width:10.00"/>
	<line x1="1725.65" y1="1824.04" x2="1772.76" y2="1807.06" stroke-linecap="round" style="stroke:#009E73;stroke-width:10.00"/>
	<line x1="1772.76" y1="1807.06" x2="1819.88" y2="1764.81" stroke-linecap="round" style="stroke:#009E73;stroke-width:10.00"/>
	<line x1="1819.88" y1="1764.81" x2="1866.99" y2="1797.10" stroke-linecap="round" style="stroke:#009E73;stroke-width:10.00"/>
	<line x1="1866.99" y1="1797.10" x2="1914.03" y2="1801.96" stroke-linecap="round" style="stroke:#009E73;stroke-width:10.00"/>
	<line x1="1914.03" y1="1801.96" x2="1961.14" y2="1775.66" stroke-linecap="round" style="stroke:#009E73;stroke-width:10.00"/>
	<line x1="1961.14" y1="1775.66" x2="2008.26" y2="1802.36" stroke-linecap="round" style="stroke:#009E73;stroke-width:10.00"/>
	<line x1="2008.26" y1="1802.36" x2="2055.29" y2="1798.93" stroke-linecap="round" style="stroke:#009E73;stroke-width:10.00"/>
	<line x1="2055.29" y1="1798.93" x2="2102.41" y2="1790.40" stroke-linecap="round" style="stroke:#009E73;stroke-width:10.00"/>
	<line x1="2102.41" y1="1790.40" x2="2149.52" y2="1792.32" stroke-linecap="round" style="stroke:#009E73;stroke-width:10.00"/>
	<line x1="2149.52" y1="1792.32" x2="2196.56" y2="1799.41" stroke-linecap="round" style="stroke:#009E73;stroke-width:10.00"/>
	<line x1="2196.56" y1="1799.41" x2="2243.67" y2="1796.62" stroke-linecap="round" style="stroke:#009E73;stroke-width:10.00"/>
	<line x1="1725.65" y1="1782.11" x2="1772.76" y2="1773.50" stroke-linecap="round" style="stroke:#D55E00;stroke-width:10.00"/>
	<line x1="1772.76" y1="1773.50" x2="1819.88" y2="1750.54" stroke-linecap="round" style="stroke:#D55E00;stroke-width:10.00"/>
	<line x1="1819.88" y1="1750.54" x2="1866.99" y2="1742.01" stroke-linecap="round" style="stroke:#D55E00;stroke-width:10.00"/>
	<line x1="1866.99" y1="1742.01" x2="1914.03" y2="1745.12" stroke-linecap="round" style="stroke:#D55E00;stroke-width:10.00"/>
	<line x1="1914.03" y1="1745.12" x2="1961.14" y2="1759.47" stroke-linecap="round" style="stroke:#D55E00;stroke-width:10.00"/>
	<line x1="1961.14" y1="1759.47" x2="2008.26" y2="1772.23" stroke-linecap="round" style="stroke:#D55E00;stroke-width:10.00"/>
	<line x1="2008.26" y1="1772.23" x2="2055.29" y2="1788.49" stroke-linecap="round" style="stroke:#D55E00;stroke-width:10.00"/>
	<line x1="2055.29" y1="1788.49" x2="2102.41" y2="1782.59" stroke-linecap="round" style="stroke:#D55E00;stroke-width:10.00"/>
	<line x1="2102.41" y1="1782.59" x2="2149.52" y2="1779.32" stroke-linecap="round" style="stroke:#D55E00;stroke-width:10.00"/>
	<line x1="2149.52" y1="1779.32" x2="2196.56" y2="1792.79" stroke-linecap="round" style="stroke:#D55E00;stroke-width:10.00"/>
	<line x1="2196.56" y1="1792.79" x2="2243.67" y2="1801.56" stroke-linecap="round" style="stroke:#D55E00;stroke-width:10.00"/>
	<line x1="2055.29" y1="1776.13" x2="2102.41" y2="1760.03" stroke-linecap="round" style="stroke:#CC79A7;stroke-width:10.00"/>
	<line x1="2102.41" y1="1760.03" x2="2149.52" y2="1759.95" stroke-linecap="round" style="stroke:#CC79A7;stroke-width:10.00"/>
	<line x1="2149.52" y1="1759.95" x2="2196.56" y2="1775.97" stroke-linecap="round" style="stroke:#CC79A7;stroke-width:10.00"/>
	<line x1="2196.56" y1="1775.97" x2="2243.67" y2="1770.71" stroke-linecap="round" style="stroke:#CC79A7;stroke-width:10.00"/>
	<line x1="407.22" y1="1849.32" x2="458.24" y2="1849.71" style="stroke:#A0A0A0;stroke-width:10.00"/>
	<line x1="483.75" y1="1849.87" x2="501.37" y2="1850.03" style="stroke:#A0A0A0;stroke-width:10.00"/>
	<line x1="501.37" y1="1850.03" x2="534.77" y2="1850.27" style="stroke:#A0A0A0;stroke-width:10.00"/>
	<line x1="560.28" y1="1850.51" x2="595.52" y2="1850.83" style="stroke:#A0A0A0;stroke-width:10.00"/>
	<line x1="595.52" y1="1850.83" x2="611.30" y2="1850.67" style="stroke:#A0A0A0;stroke-width:10.00"/>
	<line x1="636.81" y1="1850.35" x2="687.83" y2="1849.79" style="stroke:#A0A0A0;stroke-width:10.00"/>
	<line x1="713.35" y1="1851.15" x2="764.29" y2="1853.94" style="stroke:#A0A0A0;stroke-width:10.00"/>
	<line x1="789.72" y1="1855.37" x2="831.01" y2="1857.69" style="stroke:#A0A0A0;stroke-width:10.00"/>
	<line x1="831.01" y1="1857.69" x2="840.66" y2="1857.69" style="stroke:#A0A0A0;stroke-width:10.00"/>
	<line x1="866.17" y1="1857.85" x2="917.19" y2="1858.00" style="stroke:#A0A0A0;stroke-width:10.00"/>
	<line x1="942.70" y1="1858.16" x2="993.73" y2="1858.40" style="stroke:#A0A0A0;stroke-width:10.00"/>
	<line x1="1019.24" y1="1858.48" x2="1019.32" y2="1858.48" style="stroke:#A0A0A0;stroke-width:10.00"/>
	<line x1="1019.32" y1="1858.48" x2="1070.26" y2="1857.29" style="stroke:#A0A0A0;stroke-width:10.00"/>
	<line x1="1095.77" y1="1856.73" x2="1113.55" y2="1856.33" style="stroke:#A0A0A0;stroke-width:10.00"/>
	<line x1="1113.55" y1="1856.33" x2="1146.79" y2="1855.21" style="stroke:#A0A0A0;stroke-width:10.00"/>
	<line x1="1172.30" y1="1854.42" x2="1207.70" y2="1853.22" style="stroke:#A0A0A0;stroke-width:10.00"/>
	<line x1="1207.70" y1="1853.22" x2="1223.32" y2="1852.98" style="stroke:#A0A0A0;stroke-width:10.00"/>
	<line x1="1248.83" y1="1852.58" x2="1299.85" y2="1851.95" style="stroke:#A0A0A0;stroke-width:10.00"/>
	<line x1="1325.29" y1="1850.67" x2="1348.96" y2="1849.40" style="stroke:#A0A0A0;stroke-width:10.00"/>
	<line x1="1348.96" y1="1849.40" x2="1376.23" y2="1848.36" style="stroke:#A0A0A0;stroke-width:10.00"/>
	<line x1="1401.74" y1="1847.48" x2="1443.11" y2="1846.61" style="stroke:#A0A0A0;stroke-width:10.00"/>
	<line x1="1443.11" y1="1846.61" x2="1452.76" y2="1846.37" style="stroke:#A0A0A0;stroke-width:10.00"/>
	<line x1="1478.27" y1="1845.57" x2="1490.23" y2="1845.25" style="stroke:#A0A0A0;stroke-width:10.00"/>
	<line x1="1490.23" y1="1845.25" x2="1529.29" y2="1846.68" style="stroke:#A0A0A0;stroke-width:10.00"/>
	<line x1="1554.80" y1="1846.53" x2="1584.38" y2="1845.73" style="stroke:#A0A0A0;stroke-width:10.00"/>
	<line x1="1584.38" y1="1845.73" x2="1605.82" y2="1845.65" style="stroke:#A0A0A0;stroke-width:10.00"/>
	<line x1="1631.34" y1="1845.57" x2="1631.50" y2="1845.57" style="stroke:#A0A0A0;stroke-width:10.00"/>
	<line x1="1631.50" y1="1845.57" x2="1678.61" y2="1842.22" style="stroke:#A0A0A0;stroke-width:10.00"/>
	<line x1="1678.61" y1="1842.22" x2="1682.20" y2="1841.98" style="stroke:#A0A0A0;stroke-width:10.00"/>
	<line x1="1707.71" y1="1840.39" x2="1725.65" y2="1839.27" style="stroke:#A0A0A0;stroke-width:10.00"/>
	<line x1="1725.65" y1="1839.27" x2="1758.57" y2="1836.24" style="stroke:#A0A0A0;stroke-width:10.00"/>
	<line x1="1782.41" y1="1829.07" x2="1819.88" y2="1806.67" style="stroke:#A0A0A0;stroke-width:10.00"/>
	<line x1="1819.88" y1="1806.67" x2="1826.97" y2="1808.34" style="stroke:#A0A0A0;stroke-width:10.00"/>
	<line x1="1851.92" y1="1813.92" x2="1866.99" y2="1817.43" style="stroke:#A0A0A0;stroke-width:10.00"/>
	<line x1="1866.99" y1="1817.43" x2="1902.55" y2="1816.55" style="stroke:#A0A0A0;stroke-width:10.00"/>
	<line x1="1927.90" y1="1814.08" x2="1961.14" y2="1808.74" style="stroke:#A0A0A0;stroke-width:10.00"/>
	<line x1="1961.14" y1="1808.74" x2="1978.12" y2="1812.25" style="stroke:#A0A0A0;stroke-width:10.00"/>
	<line x1="2003.08" y1="1817.35" x2="2008.26" y2="1818.38" style="stroke:#A0A0A0;stroke-width:10.00"/>
	<line x1="2008.26" y1="1818.38" x2="2054.02" y2="1819.42" style="stroke:#A0A0A0;stroke-width:10.00"/>
	<line x1="2079.53" y1="1820.14" x2="2102.41" y2="1820.78" style="stroke:#A0A0A0;stroke-width:10.00"/>
	<line x1="2102.41" y1="1820.78" x2="2130.47" y2="1819.82" style="stroke:#A0A0A0;stroke-width:10.00"/>
	<line x1="2155.98" y1="1819.42" x2="2196.56" y2="1820.94" style="stroke:#A0A0A0;stroke-width:10.00"/>
	<line x1="2196.56" y1="1820.94" x2="2207.00" y2="1820.70" style="stroke:#A0A0A0;stroke-width:10.00"/>
	<line x1="2232.51" y1="1820.14" x2="2243.67" y2="1819.90" style="stroke:#A0A0A0;stroke-width:10.00"/>
	<line x1="351.09" y1="1865.82" x2="315.70" y2="1865.82" style="stroke:#000000;stroke-width:4.00"/>
	<text x="297.92" y="1883.33" style="font-family:'Helvetica';font-size:49.99px;fill:#000000" text-anchor="end">0</text>
	<line x1="351.09" y1="1715.63" x2="315.70" y2="1715.63" style="stroke:#000000;stroke-width:4.00"/>
	<text x="297.92" y="1733.14" style="font-family:'Helvetica';font-size:49.99px;fill:#000000" text-anchor="end">.1</text>
	<line x1="351.09" y1="1565.52" x2="315.70" y2="1565.52" style="stroke:#000000;stroke-width:4.00"/>
	<text x="297.92" y="1583.03" style="font-family:'Helvetica';font-size:49.99px;fill:#000000" text-anchor="end">.2</text>
	<line x1="351.09" y1="1415.41" x2="315.70" y2="1415.41" style="stroke:#000000;stroke-width:4.00"/>
	<text x="297.92" y="1432.92" style="font-family:'Helvetica';font-size:49.99px;fill:#000000" text-anchor="end">.3</text>
	<line x1="351.09" y1="1265.22" x2="315.70" y2="1265.22" style="stroke:#000000;stroke-width:4.00"/>
	<text x="297.92" y="1282.73" style="font-family:'Helvetica';font-size:49.99px;fill:#000000" text-anchor="end">.4</text>
	<line x1="351.09" y1="1115.11" x2="315.70" y2="1115.11" style="stroke:#000000;stroke-width:4.00"/>
	<text x="297.92" y="1132.62" style="font-family:'Helvetica';font-size:49.99px;fill:#000000" text-anchor="end">.5</text>
	<line x1="351.09" y1="964.92" x2="315.70" y2="964.92" style="stroke:#000000;stroke-width:4.00"/>
	<text x="297.92" y="982.43" style="font-family:'Helvetica';font-size:49.99px;fill:#000000" text-anchor="end">.6</text>
	<line x1="351.09" y1="814.81" x2="315.70" y2="814.81" style="stroke:#000000;stroke-width:4.00"/>
	<text x="297.92" y="832.32" style="font-family:'Helvetica';font-size:49.99px;fill:#000000" text-anchor="end">.7</text>
	<line x1="351.09" y1="664.62" x2="315.70" y2="664.62" style="stroke:#000000;stroke-width:4.00"/>
	<text x="297.92" y="682.13" style="font-family:'Helvetica';font-size:49.99px;fill:#000000" text-anchor="end">.8</text>
	<line x1="351.09" y1="514.50" x2="315.70" y2="514.50" style="stroke:#000000;stroke-width:4.00"/>
	<text x="297.92" y="532.02" style="font-family:'Helvetica';font-size:49.99px;fill:#000000" text-anchor="end">.9</text>
	<line x1="351.09" y1="364.31" x2="315.70" y2="364.31" style="stroke:#000000;stroke-width:4.00"/>
	<text x="297.92" y="381.83" style="font-family:'Helvetica';font-size:49.99px;fill:#000000" text-anchor="end">1</text>
	<line x1="351.09" y1="1865.82" x2="351.09" y2="364.31" style="stroke:#000000;stroke-width:4.00"/>
	<text x="136.21" y="1076.84" style="font-family:'Helvetica';font-size:60.03px;fill:#000000" transform="rotate(-90 136.21,1076.84)" text-anchor="middle">Marginal employment</text>
	<line x1="407.22" y1="1921.94" x2="407.22" y2="1957.33" style="stroke:#000000;stroke-width:4.00"/>
	<text x="407.22" y="2009.98" style="font-family:'Helvetica';font-size:49.99px;fill:#000000" text-anchor="middle">1976</text>
	<line x1="642.63" y1="1921.94" x2="642.63" y2="1957.33" style="stroke:#000000;stroke-width:4.00"/>
	<text x="642.63" y="2009.98" style="font-family:'Helvetica';font-size:49.99px;fill:#000000" text-anchor="middle">1981</text>
	<line x1="878.13" y1="1921.94" x2="878.13" y2="1957.33" style="stroke:#000000;stroke-width:4.00"/>
	<text x="878.13" y="2009.98" style="font-family:'Helvetica';font-size:49.99px;fill:#000000" text-anchor="middle">1986</text>
	<line x1="1113.55" y1="1921.94" x2="1113.55" y2="1957.33" style="stroke:#000000;stroke-width:4.00"/>
	<text x="1113.55" y="2009.98" style="font-family:'Helvetica';font-size:49.99px;fill:#000000" text-anchor="middle">1991</text>
	<line x1="1349.04" y1="1921.94" x2="1349.04" y2="1957.33" style="stroke:#000000;stroke-width:4.00"/>
	<text x="1349.04" y="2009.98" style="font-family:'Helvetica';font-size:49.99px;fill:#000000" text-anchor="middle">1996</text>
	<line x1="1584.46" y1="1921.94" x2="1584.46" y2="1957.33" style="stroke:#000000;stroke-width:4.00"/>
	<text x="1584.46" y="2009.98" style="font-family:'Helvetica';font-size:49.99px;fill:#000000" text-anchor="middle">2001</text>
	<line x1="1819.88" y1="1921.94" x2="1819.88" y2="1957.33" style="stroke:#000000;stroke-width:4.00"/>
	<text x="1819.88" y="2009.98" style="font-family:'Helvetica';font-size:49.99px;fill:#000000" text-anchor="middle">2006</text>
	<line x1="2055.37" y1="1921.94" x2="2055.37" y2="1957.33" style="stroke:#000000;stroke-width:4.00"/>
	<text x="2055.37" y="2009.98" style="font-family:'Helvetica';font-size:49.99px;fill:#000000" text-anchor="middle">2011</text>
	<line x1="2290.79" y1="1921.94" x2="2290.79" y2="1957.33" style="stroke:#000000;stroke-width:4.00"/>
	<text x="2290.79" y="2009.98" style="font-family:'Helvetica';font-size:49.99px;fill:#000000" text-anchor="middle">2016</text>
	<line x1="407.22" y1="1921.94" x2="2290.79" y2="1921.94" style="stroke:#000000;stroke-width:4.00"/>
	<text x="1310.78" y="2152.37" style="font-family:'Helvetica';font-size:60.03px;fill:#000000" text-anchor="middle">Year</text>
	<text x="145.41" y="2396.65" style="font-family:'Helvetica';font-size:60.03px;fill:#000000">Arr. cohort: </text>
	<text x="536.36" y="2396.65" style="font-family:'Helvetica';font-size:60.03px;fill:#000000">1964-73</text>
	<text x="845.12" y="2396.65" style="font-family:'Helvetica';font-size:60.03px;fill:#000000">1974-83</text>
	<text x="1153.89" y="2396.65" style="font-family:'Helvetica';font-size:60.03px;fill:#000000">1984-93</text>
	<text x="1462.65" y="2396.65" style="font-family:'Helvetica';font-size:60.03px;fill:#000000">1994-03</text>
	<text x="1771.41" y="2396.65" style="font-family:'Helvetica';font-size:60.03px;fill:#000000">2004-10</text>
	<text x="2080.17" y="2396.65" style="font-family:'Helvetica';font-size:60.03px;fill:#000000">German</text>
	<line x1="536.36" y1="2301.32" x2="737.26" y2="2301.32" style="stroke:#E69F00;stroke-width:10.00"/>
	<line x1="845.12" y1="2301.32" x2="1046.02" y2="2301.32" style="stroke:#56B4E9;stroke-width:10.00"/>
	<line x1="1153.89" y1="2301.32" x2="1354.78" y2="2301.32" style="stroke:#009E73;stroke-width:10.00"/>
	<line x1="1462.65" y1="2301.32" x2="1663.54" y2="2301.32" style="stroke:#D55E00;stroke-width:10.00"/>
	<line x1="1771.41" y1="2301.32" x2="1972.30" y2="2301.32" style="stroke:#CC79A7;stroke-width:10.00"/>
	<line x1="2080.17" y1="2301.32" x2="2131.19" y2="2301.32" style="stroke:#A0A0A0;stroke-width:10.00"/>
	<line x1="2156.70" y1="2301.32" x2="2207.72" y2="2301.32" style="stroke:#A0A0A0;stroke-width:10.00"/>
	<line x1="2233.23" y1="2301.32" x2="2278.03" y2="2301.32" style="stroke:#A0A0A0;stroke-width:10.00"/>
	<text x="1349.04" y="239.12" style="font-family:'Helvetica';font-size:60.03px;fill:#000000" text-anchor="middle">Percent</text>
	<text x="1349.04" y="154.88" style="font-family:'Helvetica';font-size:90.01px;fill:#000000" text-anchor="middle">Marginal employment, Men</text>
</svg>
