<?xml version="1.0" encoding="UTF-8" standalone="no"?>
<!-- This is a Stata 15.1 generated SVG file (http://www.stata.com) -->

<svg version="1.1" width="3.54in" height="3.54in" viewBox="0 0 2551 2551" xmlns="http://www.w3.org/2000/svg" xmlns:xlink="http://www.w3.org/1999/xlink">
	<desc>Stata Graph - Graph</desc>
	<rect x="0" y="0" width="2551" height="2551" style="fill:#FFFFFF;stroke:none"/>
	<rect x="0.00" y="0.08" width="2551.00" height="2550.92" style="fill:#FFFFFF"/>
	<rect x="2.55" y="2.63" width="2545.90" height="2545.82" style="fill:none;stroke:#FFFFFF;stroke-width:5.10"/>
	<line x1="394.86" y1="1865.82" x2="2346.91" y2="1865.82" style="stroke:#E8E8E8;stroke-width:4.00"/>
	<line x1="394.86" y1="1715.63" x2="2346.91" y2="1715.63" style="stroke:#E8E8E8;stroke-width:4.00"/>
	<line x1="394.86" y1="1565.52" x2="2346.91" y2="1565.52" style="stroke:#E8E8E8;stroke-width:4.00"/>
	<line x1="394.86" y1="1415.41" x2="2346.91" y2="1415.41" style="stroke:#E8E8E8;stroke-width:4.00"/>
	<line x1="394.86" y1="1265.22" x2="2346.91" y2="1265.22" style="stroke:#E8E8E8;stroke-width:4.00"/>
	<line x1="394.86" y1="1115.11" x2="2346.91" y2="1115.11" style="stroke:#E8E8E8;stroke-width:4.00"/>
	<line x1="394.86" y1="964.92" x2="2346.91" y2="964.92" style="stroke:#E8E8E8;stroke-width:4.00"/>
	<line x1="394.86" y1="814.81" x2="2346.91" y2="814.81" style="stroke:#E8E8E8;stroke-width:4.00"/>
	<line x1="394.86" y1="664.62" x2="2346.91" y2="664.62" style="stroke:#E8E8E8;stroke-width:4.00"/>
	<line x1="394.86" y1="514.50" x2="2346.91" y2="514.50" style="stroke:#E8E8E8;stroke-width:4.00"/>
	<line x1="394.86" y1="364.31" x2="2346.91" y2="364.31" style="stroke:#E8E8E8;stroke-width:4.00"/>
	<line x1="450.98" y1="1921.94" x2="450.98" y2="308.19" style="stroke:#E8E8E8;stroke-width:4.00"/>
	<line x1="680.98" y1="1921.94" x2="680.98" y2="308.19" style="stroke:#E8E8E8;stroke-width:4.00"/>
	<line x1="910.89" y1="1921.94" x2="910.89" y2="308.19" style="stroke:#E8E8E8;stroke-width:4.00"/>
	<line x1="1140.89" y1="1921.94" x2="1140.89" y2="308.19" style="stroke:#E8E8E8;stroke-width:4.00"/>
	<line x1="1370.89" y1="1921.94" x2="1370.89" y2="308.19" style="stroke:#E8E8E8;stroke-width:4.00"/>
	<line x1="1600.88" y1="1921.94" x2="1600.88" y2="308.19" style="stroke:#E8E8E8;stroke-width:4.00"/>
	<line x1="1830.88" y1="1921.94" x2="1830.88" y2="308.19" style="stroke:#E8E8E8;stroke-width:4.00"/>
	<line x1="2060.79" y1="1921.94" x2="2060.79" y2="308.19" style="stroke:#E8E8E8;stroke-width:4.00"/>
	<line x1="2290.79" y1="1921.94" x2="2290.79" y2="308.19" style="stroke:#E8E8E8;stroke-width:4.00"/>
	<line x1="450.90" y1="456.31" x2="542.90" y2="440.13" stroke-linecap="round" style="stroke:#E69F00;stroke-width:10.00"/>
	<line x1="542.90" y1="440.13" x2="634.90" y2="423.47" stroke-linecap="round" style="stroke:#E69F00;stroke-width:10.00"/>
	<line x1="634.90" y1="423.47" x2="726.90" y2="499.76" stroke-linecap="round" style="stroke:#E69F00;stroke-width:10.00"/>
	<line x1="726.90" y1="499.76" x2="864.90" y2="520.40" stroke-linecap="round" style="stroke:#E69F00;stroke-width:10.00"/>
	<line x1="864.90" y1="520.40" x2="956.89" y2="527.50" stroke-linecap="round" style="stroke:#E69F00;stroke-width:10.00"/>
	<line x1="956.89" y1="527.50" x2="1048.89" y2="511.79" stroke-linecap="round" style="stroke:#E69F00;stroke-width:10.00"/>
	<line x1="1048.89" y1="511.79" x2="1140.89" y2="515.46" stroke-linecap="round" style="stroke:#E69F00;stroke-width:10.00"/>
	<line x1="1140.89" y1="515.46" x2="1232.89" y2="576.21" stroke-linecap="round" style="stroke:#E69F00;stroke-width:10.00"/>
	<line x1="1232.89" y1="576.21" x2="1324.81" y2="681.12" stroke-linecap="round" style="stroke:#E69F00;stroke-width:10.00"/>
	<line x1="1324.81" y1="681.12" x2="1370.81" y2="715.64" stroke-linecap="round" style="stroke:#E69F00;stroke-width:10.00"/>
	<line x1="1370.81" y1="715.64" x2="1416.81" y2="710.53" stroke-linecap="round" style="stroke:#E69F00;stroke-width:10.00"/>
	<line x1="1416.81" y1="710.53" x2="1462.81" y2="724.40" stroke-linecap="round" style="stroke:#E69F00;stroke-width:10.00"/>
	<line x1="1462.81" y1="724.40" x2="1508.80" y2="719.54" stroke-linecap="round" style="stroke:#E69F00;stroke-width:10.00"/>
	<line x1="1508.80" y1="719.54" x2="1554.80" y2="719.38" stroke-linecap="round" style="stroke:#E69F00;stroke-width:10.00"/>
	<line x1="1554.80" y1="719.38" x2="1600.80" y2="720.74" stroke-linecap="round" style="stroke:#E69F00;stroke-width:10.00"/>
	<line x1="1600.80" y1="720.74" x2="1646.80" y2="738.12" stroke-linecap="round" style="stroke:#E69F00;stroke-width:10.00"/>
	<line x1="1646.80" y1="738.12" x2="1692.80" y2="754.06" stroke-linecap="round" style="stroke:#E69F00;stroke-width:10.00"/>
	<line x1="864.90" y1="716.59" x2="956.89" y2="659.99" stroke-linecap="round" style="stroke:#56B4E9;stroke-width:10.00"/>
	<line x1="956.89" y1="659.99" x2="1048.89" y2="623.48" stroke-linecap="round" style="stroke:#56B4E9;stroke-width:10.00"/>
	<line x1="1048.89" y1="623.48" x2="1140.89" y2="547.59" stroke-linecap="round" style="stroke:#56B4E9;stroke-width:10.00"/>
	<line x1="1140.89" y1="547.59" x2="1232.89" y2="632.41" stroke-linecap="round" style="stroke:#56B4E9;stroke-width:10.00"/>
	<line x1="1232.89" y1="632.41" x2="1324.81" y2="616.31" stroke-linecap="round" style="stroke:#56B4E9;stroke-width:10.00"/>
	<line x1="1324.81" y1="616.31" x2="1370.81" y2="639.26" stroke-linecap="round" style="stroke:#56B4E9;stroke-width:10.00"/>
	<line x1="1370.81" y1="639.26" x2="1416.81" y2="637.27" stroke-linecap="round" style="stroke:#56B4E9;stroke-width:10.00"/>
	<line x1="1416.81" y1="637.27" x2="1462.81" y2="626.83" stroke-linecap="round" style="stroke:#56B4E9;stroke-width:10.00"/>
	<line x1="1462.81" y1="626.83" x2="1508.80" y2="692.68" stroke-linecap="round" style="stroke:#56B4E9;stroke-width:10.00"/>
	<line x1="1508.80" y1="692.68" x2="1554.80" y2="634.00" stroke-linecap="round" style="stroke:#56B4E9;stroke-width:10.00"/>
	<line x1="1554.80" y1="634.00" x2="1600.80" y2="618.54" stroke-linecap="round" style="stroke:#56B4E9;stroke-width:10.00"/>
	<line x1="1600.80" y1="618.54" x2="1646.80" y2="654.01" stroke-linecap="round" style="stroke:#56B4E9;stroke-width:10.00"/>
	<line x1="1646.80" y1="654.01" x2="1692.80" y2="685.50" stroke-linecap="round" style="stroke:#56B4E9;stroke-width:10.00"/>
	<line x1="1692.80" y1="685.50" x2="1738.80" y2="729.83" stroke-linecap="round" style="stroke:#56B4E9;stroke-width:10.00"/>
	<line x1="1738.80" y1="729.83" x2="1784.80" y2="754.70" stroke-linecap="round" style="stroke:#56B4E9;stroke-width:10.00"/>
	<line x1="1784.80" y1="754.70" x2="1830.80" y2="724.24" stroke-linecap="round" style="stroke:#56B4E9;stroke-width:10.00"/>
	<line x1="1830.80" y1="724.24" x2="1876.80" y2="698.50" stroke-linecap="round" style="stroke:#56B4E9;stroke-width:10.00"/>
	<line x1="1876.80" y1="698.50" x2="1922.80" y2="731.74" stroke-linecap="round" style="stroke:#56B4E9;stroke-width:10.00"/>
	<line x1="1922.80" y1="731.74" x2="1968.80" y2="717.79" stroke-linecap="round" style="stroke:#56B4E9;stroke-width:10.00"/>
	<line x1="1968.80" y1="717.79" x2="2014.79" y2="741.78" stroke-linecap="round" style="stroke:#56B4E9;stroke-width:10.00"/>
	<line x1="2014.79" y1="741.78" x2="2060.79" y2="714.44" stroke-linecap="round" style="stroke:#56B4E9;stroke-width:10.00"/>
	<line x1="2060.79" y1="714.44" x2="2106.79" y2="727.11" stroke-linecap="round" style="stroke:#56B4E9;stroke-width:10.00"/>
	<line x1="2106.79" y1="727.11" x2="2152.79" y2="730.06" stroke-linecap="round" style="stroke:#56B4E9;stroke-width:10.00"/>
	<line x1="1324.81" y1="786.27" x2="1324.81" y2="786.27" stroke-linecap="round" style="stroke:#009E73;stroke-width:10.00"/>
	<line x1="1324.81" y1="786.27" x2="1370.81" y2="818.63" stroke-linecap="round" style="stroke:#009E73;stroke-width:10.00"/>
	<line x1="1370.81" y1="818.63" x2="1416.81" y2="821.74" stroke-linecap="round" style="stroke:#009E73;stroke-width:10.00"/>
	<line x1="1416.81" y1="821.74" x2="1462.81" y2="759.96" stroke-linecap="round" style="stroke:#009E73;stroke-width:10.00"/>
	<line x1="1462.81" y1="759.96" x2="1462.81" y2="759.96" stroke-linecap="round" style="stroke:#009E73;stroke-width:10.00"/>
	<line x1="1462.81" y1="759.96" x2="1508.80" y2="723.29" stroke-linecap="round" style="stroke:#009E73;stroke-width:10.00"/>
	<line x1="1508.80" y1="723.29" x2="1508.80" y2="723.29" stroke-linecap="round" style="stroke:#009E73;stroke-width:10.00"/>
	<line x1="1508.80" y1="723.29" x2="1554.80" y2="655.21" stroke-linecap="round" style="stroke:#009E73;stroke-width:10.00"/>
	<line x1="1554.80" y1="655.21" x2="1600.80" y2="646.60" stroke-linecap="round" style="stroke:#009E73;stroke-width:10.00"/>
	<line x1="1600.80" y1="646.60" x2="1646.80" y2="670.04" stroke-linecap="round" style="stroke:#009E73;stroke-width:10.00"/>
	<line x1="1646.80" y1="670.04" x2="1692.80" y2="704.08" stroke-linecap="round" style="stroke:#009E73;stroke-width:10.00"/>
	<line x1="1692.80" y1="704.08" x2="1738.80" y2="733.65" stroke-linecap="round" style="stroke:#009E73;stroke-width:10.00"/>
	<line x1="1738.80" y1="733.65" x2="1784.80" y2="729.11" stroke-linecap="round" style="stroke:#009E73;stroke-width:10.00"/>
	<line x1="1784.80" y1="729.11" x2="1784.80" y2="729.11" stroke-linecap="round" style="stroke:#009E73;stroke-width:10.00"/>
	<line x1="1784.80" y1="729.11" x2="1830.80" y2="714.52" stroke-linecap="round" style="stroke:#009E73;stroke-width:10.00"/>
	<line x1="1830.80" y1="714.52" x2="1830.80" y2="714.52" stroke-linecap="round" style="stroke:#009E73;stroke-width:10.00"/>
	<line x1="1830.80" y1="714.52" x2="1876.80" y2="695.63" stroke-linecap="round" style="stroke:#009E73;stroke-width:10.00"/>
	<line x1="1876.80" y1="695.63" x2="1876.80" y2="695.63" stroke-linecap="round" style="stroke:#009E73;stroke-width:10.00"/>
	<line x1="1876.80" y1="695.63" x2="1922.80" y2="675.86" stroke-linecap="round" style="stroke:#009E73;stroke-width:10.00"/>
	<line x1="1922.80" y1="675.86" x2="1922.80" y2="675.86" stroke-linecap="round" style="stroke:#009E73;stroke-width:10.00"/>
	<line x1="1922.80" y1="675.86" x2="1968.80" y2="670.99" stroke-linecap="round" style="stroke:#009E73;stroke-width:10.00"/>
	<line x1="1968.80" y1="670.99" x2="1968.80" y2="670.99" stroke-linecap="round" style="stroke:#009E73;stroke-width:10.00"/>
	<line x1="1968.80" y1="670.99" x2="2014.79" y2="683.27" stroke-linecap="round" style="stroke:#009E73;stroke-width:10.00"/>
	<line x1="2014.79" y1="683.27" x2="2014.79" y2="683.27" stroke-linecap="round" style="stroke:#009E73;stroke-width:10.00"/>
	<line x1="2014.79" y1="683.27" x2="2060.79" y2="656.48" stroke-linecap="round" style="stroke:#009E73;stroke-width:10.00"/>
	<line x1="2060.79" y1="656.48" x2="2060.79" y2="656.48" stroke-linecap="round" style="stroke:#009E73;stroke-width:10.00"/>
	<line x1="2060.79" y1="656.48" x2="2106.79" y2="659.51" stroke-linecap="round" style="stroke:#009E73;stroke-width:10.00"/>
	<line x1="2106.79" y1="659.51" x2="2152.79" y2="647.24" stroke-linecap="round" style="stroke:#009E73;stroke-width:10.00"/>
	<line x1="2152.79" y1="647.24" x2="2198.79" y2="660.23" stroke-linecap="round" style="stroke:#009E73;stroke-width:10.00"/>
	<line x1="2198.79" y1="660.23" x2="2244.79" y2="663.74" stroke-linecap="round" style="stroke:#009E73;stroke-width:10.00"/>
	<line x1="1738.80" y1="873.32" x2="1738.80" y2="873.32" stroke-linecap="round" style="stroke:#D55E00;stroke-width:10.00"/>
	<line x1="1738.80" y1="873.32" x2="1784.80" y2="868.38" stroke-linecap="round" style="stroke:#D55E00;stroke-width:10.00"/>
	<line x1="1784.80" y1="868.38" x2="1784.80" y2="868.38" stroke-linecap="round" style="stroke:#D55E00;stroke-width:10.00"/>
	<line x1="1784.80" y1="868.38" x2="1830.80" y2="829.31" stroke-linecap="round" style="stroke:#D55E00;stroke-width:10.00"/>
	<line x1="1830.80" y1="829.31" x2="1830.80" y2="829.31" stroke-linecap="round" style="stroke:#D55E00;stroke-width:10.00"/>
	<line x1="1830.80" y1="829.31" x2="1876.80" y2="775.42" stroke-linecap="round" style="stroke:#D55E00;stroke-width:10.00"/>
	<line x1="1876.80" y1="775.42" x2="1876.80" y2="775.42" stroke-linecap="round" style="stroke:#D55E00;stroke-width:10.00"/>
	<line x1="1876.80" y1="775.42" x2="1922.80" y2="731.90" stroke-linecap="round" style="stroke:#D55E00;stroke-width:10.00"/>
	<line x1="1922.80" y1="731.90" x2="1922.80" y2="731.90" stroke-linecap="round" style="stroke:#D55E00;stroke-width:10.00"/>
	<line x1="1922.80" y1="731.90" x2="1968.80" y2="728.87" stroke-linecap="round" style="stroke:#D55E00;stroke-width:10.00"/>
	<line x1="1968.80" y1="728.87" x2="1968.80" y2="728.87" stroke-linecap="round" style="stroke:#D55E00;stroke-width:10.00"/>
	<line x1="1968.80" y1="728.87" x2="2014.79" y2="717.31" stroke-linecap="round" style="stroke:#D55E00;stroke-width:10.00"/>
	<line x1="2014.79" y1="717.31" x2="2014.79" y2="717.31" stroke-linecap="round" style="stroke:#D55E00;stroke-width:10.00"/>
	<line x1="2014.79" y1="717.31" x2="2060.79" y2="648.75" stroke-linecap="round" style="stroke:#D55E00;stroke-width:10.00"/>
	<line x1="2060.79" y1="648.75" x2="2060.79" y2="648.75" stroke-linecap="round" style="stroke:#D55E00;stroke-width:10.00"/>
	<line x1="2060.79" y1="648.75" x2="2106.79" y2="608.89" stroke-linecap="round" style="stroke:#D55E00;stroke-width:10.00"/>
	<line x1="2106.79" y1="608.89" x2="2106.79" y2="608.89" stroke-linecap="round" style="stroke:#D55E00;stroke-width:10.00"/>
	<line x1="2106.79" y1="608.89" x2="2152.79" y2="624.36" stroke-linecap="round" style="stroke:#D55E00;stroke-width:10.00"/>
	<line x1="2152.79" y1="624.36" x2="2152.79" y2="624.36" stroke-linecap="round" style="stroke:#D55E00;stroke-width:10.00"/>
	<line x1="2152.79" y1="624.36" x2="2198.79" y2="634.40" stroke-linecap="round" style="stroke:#D55E00;stroke-width:10.00"/>
	<line x1="2198.79" y1="634.40" x2="2198.79" y2="634.40" stroke-linecap="round" style="stroke:#D55E00;stroke-width:10.00"/>
	<line x1="2198.79" y1="634.40" x2="2244.79" y2="596.14" stroke-linecap="round" style="stroke:#D55E00;stroke-width:10.00"/>
	<line x1="2244.79" y1="596.14" x2="2244.79" y2="596.14" stroke-linecap="round" style="stroke:#D55E00;stroke-width:10.00"/>
	<line x1="2060.79" y1="656.09" x2="2060.79" y2="656.09" stroke-linecap="round" style="stroke:#CC79A7;stroke-width:10.00"/>
	<line x1="2060.79" y1="656.09" x2="2106.79" y2="637.59" stroke-linecap="round" style="stroke:#CC79A7;stroke-width:10.00"/>
	<line x1="2106.79" y1="637.59" x2="2106.79" y2="637.59" stroke-linecap="round" style="stroke:#CC79A7;stroke-width:10.00"/>
	<line x1="2106.79" y1="637.59" x2="2152.79" y2="657.12" stroke-linecap="round" style="stroke:#CC79A7;stroke-width:10.00"/>
	<line x1="2152.79" y1="657.12" x2="2152.79" y2="657.12" stroke-linecap="round" style="stroke:#CC79A7;stroke-width:10.00"/>
	<line x1="2152.79" y1="657.12" x2="2198.79" y2="640.54" stroke-linecap="round" style="stroke:#CC79A7;stroke-width:10.00"/>
	<line x1="2198.79" y1="640.54" x2="2198.79" y2="640.54" stroke-linecap="round" style="stroke:#CC79A7;stroke-width:10.00"/>
	<line x1="2198.79" y1="640.54" x2="2244.79" y2="622.13" stroke-linecap="round" style="stroke:#CC79A7;stroke-width:10.00"/>
	<line x1="2244.79" y1="622.13" x2="2244.79" y2="622.13" stroke-linecap="round" style="stroke:#CC79A7;stroke-width:10.00"/>
	<line x1="450.90" y1="448.02" x2="501.92" y2="445.71" style="stroke:#A0A0A0;stroke-width:10.00"/>
	<line x1="527.36" y1="444.51" x2="542.90" y2="443.79" style="stroke:#A0A0A0;stroke-width:10.00"/>
	<line x1="542.90" y1="443.79" x2="578.38" y2="442.60" style="stroke:#A0A0A0;stroke-width:10.00"/>
	<line x1="603.89" y1="441.80" x2="634.90" y2="440.76" style="stroke:#A0A0A0;stroke-width:10.00"/>
	<line x1="634.90" y1="440.76" x2="653.95" y2="446.82" style="stroke:#A0A0A0;stroke-width:10.00"/>
	<line x1="678.27" y1="454.56" x2="726.90" y2="470.02" style="stroke:#A0A0A0;stroke-width:10.00"/>
	<line x1="751.77" y1="475.84" x2="801.36" y2="487.56" style="stroke:#A0A0A0;stroke-width:10.00"/>
	<line x1="826.23" y1="493.38" x2="864.90" y2="502.55" style="stroke:#A0A0A0;stroke-width:10.00"/>
	<line x1="864.90" y1="502.55" x2="876.06" y2="504.38" style="stroke:#A0A0A0;stroke-width:10.00"/>
	<line x1="901.25" y1="508.45" x2="951.55" y2="516.58" style="stroke:#A0A0A0;stroke-width:10.00"/>
	<line x1="976.90" y1="514.90" x2="1027.45" y2="508.29" style="stroke:#A0A0A0;stroke-width:10.00"/>
	<line x1="1052.80" y1="504.94" x2="1103.02" y2="496.17" style="stroke:#A0A0A0;stroke-width:10.00"/>
	<line x1="1128.14" y1="491.78" x2="1140.89" y2="489.55" style="stroke:#A0A0A0;stroke-width:10.00"/>
	<line x1="1140.89" y1="489.55" x2="1177.88" y2="498.72" style="stroke:#A0A0A0;stroke-width:10.00"/>
	<line x1="1202.67" y1="504.86" x2="1232.89" y2="512.27" style="stroke:#A0A0A0;stroke-width:10.00"/>
	<line x1="1232.89" y1="512.27" x2="1252.58" y2="514.74" style="stroke:#A0A0A0;stroke-width:10.00"/>
	<line x1="1277.93" y1="517.85" x2="1324.81" y2="523.67" style="stroke:#A0A0A0;stroke-width:10.00"/>
	<line x1="1324.81" y1="523.67" x2="1328.55" y2="524.39" style="stroke:#A0A0A0;stroke-width:10.00"/>
	<line x1="1353.51" y1="529.41" x2="1370.81" y2="532.92" style="stroke:#A0A0A0;stroke-width:10.00"/>
	<line x1="1370.81" y1="532.92" x2="1404.05" y2="536.35" style="stroke:#A0A0A0;stroke-width:10.00"/>
	<line x1="1429.24" y1="535.31" x2="1462.81" y2="529.01" style="stroke:#A0A0A0;stroke-width:10.00"/>
	<line x1="1462.81" y1="529.01" x2="1479.39" y2="525.82" style="stroke:#A0A0A0;stroke-width:10.00"/>
	<line x1="1504.50" y1="521.04" x2="1508.80" y2="520.24" style="stroke:#A0A0A0;stroke-width:10.00"/>
	<line x1="1508.80" y1="520.24" x2="1554.48" y2="511.16" style="stroke:#A0A0A0;stroke-width:10.00"/>
	<line x1="1579.92" y1="513.23" x2="1600.80" y2="514.98" style="stroke:#A0A0A0;stroke-width:10.00"/>
	<line x1="1600.80" y1="514.98" x2="1629.02" y2="525.43" style="stroke:#A0A0A0;stroke-width:10.00"/>
	<line x1="1653.10" y1="533.96" x2="1692.80" y2="546.87" style="stroke:#A0A0A0;stroke-width:10.00"/>
	<line x1="1692.80" y1="546.87" x2="1701.65" y2="549.58" style="stroke:#A0A0A0;stroke-width:10.00"/>
	<line x1="1726.04" y1="557.07" x2="1738.80" y2="560.98" style="stroke:#A0A0A0;stroke-width:10.00"/>
	<line x1="1738.80" y1="560.98" x2="1776.35" y2="558.27" style="stroke:#A0A0A0;stroke-width:10.00"/>
	<line x1="1801.30" y1="553.33" x2="1830.80" y2="545.52" style="stroke:#A0A0A0;stroke-width:10.00"/>
	<line x1="1830.80" y1="545.52" x2="1849.69" y2="537.62" style="stroke:#A0A0A0;stroke-width:10.00"/>
	<line x1="1873.29" y1="527.82" x2="1876.80" y2="526.30" style="stroke:#A0A0A0;stroke-width:10.00"/>
	<line x1="1876.80" y1="526.30" x2="1922.80" y2="519.93" style="stroke:#A0A0A0;stroke-width:10.00"/>
	<line x1="1922.80" y1="519.93" x2="1923.51" y2="520.16" style="stroke:#A0A0A0;stroke-width:10.00"/>
	<line x1="1947.99" y1="527.42" x2="1968.80" y2="533.56" style="stroke:#A0A0A0;stroke-width:10.00"/>
	<line x1="1968.80" y1="533.56" x2="1998.05" y2="533.00" style="stroke:#A0A0A0;stroke-width:10.00"/>
	<line x1="2023.25" y1="530.21" x2="2060.79" y2="519.29" style="stroke:#A0A0A0;stroke-width:10.00"/>
	<line x1="2060.79" y1="519.29" x2="2072.59" y2="517.61" style="stroke:#A0A0A0;stroke-width:10.00"/>
	<line x1="2097.78" y1="514.03" x2="2106.79" y2="512.75" style="stroke:#A0A0A0;stroke-width:10.00"/>
	<line x1="2106.79" y1="512.75" x2="2148.41" y2="517.85" style="stroke:#A0A0A0;stroke-width:10.00"/>
	<line x1="2173.92" y1="519.13" x2="2198.79" y2="520.09" style="stroke:#A0A0A0;stroke-width:10.00"/>
	<line x1="2198.79" y1="520.09" x2="2224.78" y2="517.53" style="stroke:#A0A0A0;stroke-width:10.00"/>
	<line x1="1140.89" y1="504.86" x2="1157.23" y2="517.06" style="stroke:#A0A0A0;stroke-width:10.00"/>
	<line x1="1173.58" y1="529.25" x2="1175.65" y2="530.77" style="stroke:#A0A0A0;stroke-width:10.00"/>
	<line x1="1191.99" y1="543.04" x2="1208.41" y2="555.24" style="stroke:#A0A0A0;stroke-width:10.00"/>
	<line x1="1224.76" y1="567.44" x2="1226.83" y2="568.95" style="stroke:#A0A0A0;stroke-width:10.00"/>
	<line x1="1245.41" y1="571.03" x2="1265.42" y2="566.96" style="stroke:#A0A0A0;stroke-width:10.00"/>
	<line x1="1285.51" y1="562.89" x2="1287.98" y2="562.42" style="stroke:#A0A0A0;stroke-width:10.00"/>
	<line x1="1307.99" y1="558.43" x2="1324.81" y2="555.00" style="stroke:#A0A0A0;stroke-width:10.00"/>
	<line x1="1324.81" y1="555.00" x2="1327.20" y2="557.23" style="stroke:#A0A0A0;stroke-width:10.00"/>
	<line x1="1342.35" y1="570.95" x2="1344.26" y2="572.62" style="stroke:#A0A0A0;stroke-width:10.00"/>
	<line x1="1359.41" y1="586.33" x2="1370.81" y2="596.54" style="stroke:#A0A0A0;stroke-width:10.00"/>
	<line x1="1370.81" y1="596.54" x2="1375.19" y2="599.17" style="stroke:#A0A0A0;stroke-width:10.00"/>
	<line x1="1392.73" y1="609.69" x2="1394.88" y2="610.96" style="stroke:#A0A0A0;stroke-width:10.00"/>
	<line x1="1412.42" y1="621.41" x2="1416.81" y2="624.04" style="stroke:#A0A0A0;stroke-width:10.00"/>
	<line x1="1416.81" y1="624.04" x2="1430.84" y2="630.10" style="stroke:#A0A0A0;stroke-width:10.00"/>
	<line x1="1449.57" y1="638.15" x2="1451.88" y2="639.18" style="stroke:#A0A0A0;stroke-width:10.00"/>
	<line x1="1471.02" y1="641.50" x2="1490.63" y2="635.76" style="stroke:#A0A0A0;stroke-width:10.00"/>
	<line x1="1510.24" y1="630.73" x2="1512.79" y2="631.13" style="stroke:#A0A0A0;stroke-width:10.00"/>
	<line x1="1532.88" y1="634.48" x2="1553.05" y2="637.83" style="stroke:#A0A0A0;stroke-width:10.00"/>
	<line x1="1570.67" y1="647.87" x2="1572.82" y2="649.15" style="stroke:#A0A0A0;stroke-width:10.00"/>
	<line x1="1590.20" y1="659.83" x2="1600.80" y2="666.29" style="stroke:#A0A0A0;stroke-width:10.00"/>
	<line x1="1600.80" y1="666.29" x2="1607.90" y2="669.96" style="stroke:#A0A0A0;stroke-width:10.00"/>
	<line x1="1626.07" y1="679.28" x2="1628.31" y2="680.48" style="stroke:#A0A0A0;stroke-width:10.00"/>
	<line x1="1646.48" y1="689.81" x2="1646.80" y2="690.05" style="stroke:#A0A0A0;stroke-width:10.00"/>
	<line x1="1646.80" y1="690.05" x2="1665.62" y2="696.90" style="stroke:#A0A0A0;stroke-width:10.00"/>
	<line x1="1684.83" y1="703.92" x2="1687.22" y2="704.71" style="stroke:#A0A0A0;stroke-width:10.00"/>
	<line x1="1705.16" y1="714.28" x2="1722.62" y2="724.88" style="stroke:#A0A0A0;stroke-width:10.00"/>
	<line x1="1740.16" y1="734.13" x2="1742.55" y2="733.17" style="stroke:#A0A0A0;stroke-width:10.00"/>
	<line x1="1761.52" y1="725.68" x2="1780.49" y2="718.19" style="stroke:#A0A0A0;stroke-width:10.00"/>
	<line x1="1798.43" y1="708.46" x2="1800.58" y2="707.19" style="stroke:#A0A0A0;stroke-width:10.00"/>
	<line x1="1818.20" y1="696.82" x2="1830.80" y2="689.41" style="stroke:#A0A0A0;stroke-width:10.00"/>
	<line x1="1830.80" y1="689.41" x2="1835.18" y2="685.66" style="stroke:#A0A0A0;stroke-width:10.00"/>
	<line x1="1850.73" y1="672.43" x2="1852.64" y2="670.83" style="stroke:#A0A0A0;stroke-width:10.00"/>
	<line x1="1868.19" y1="657.60" x2="1876.80" y2="650.19" style="stroke:#A0A0A0;stroke-width:10.00"/>
	<line x1="1876.80" y1="650.19" x2="1884.53" y2="645.40" style="stroke:#A0A0A0;stroke-width:10.00"/>
	<line x1="1901.83" y1="634.56" x2="1903.98" y2="633.21" style="stroke:#A0A0A0;stroke-width:10.00"/>
	<line x1="1921.28" y1="622.36" x2="1922.80" y2="621.41" style="stroke:#A0A0A0;stroke-width:10.00"/>
	<line x1="1922.80" y1="621.41" x2="1940.02" y2="628.42" style="stroke:#A0A0A0;stroke-width:10.00"/>
	<line x1="1958.99" y1="636.16" x2="1961.30" y2="637.11" style="stroke:#A0A0A0;stroke-width:10.00"/>
	<line x1="1980.28" y1="635.60" x2="1999.25" y2="628.02" style="stroke:#A0A0A0;stroke-width:10.00"/>
	<line x1="2018.06" y1="620.29" x2="2020.46" y2="619.26" style="stroke:#A0A0A0;stroke-width:10.00"/>
	<line x1="2038.79" y1="610.41" x2="2057.29" y2="601.64" style="stroke:#A0A0A0;stroke-width:10.00"/>
	<line x1="2076.98" y1="596.93" x2="2079.53" y2="596.46" style="stroke:#A0A0A0;stroke-width:10.00"/>
	<line x1="2099.54" y1="592.63" x2="2106.79" y2="591.27" style="stroke:#A0A0A0;stroke-width:10.00"/>
	<line x1="2106.79" y1="591.27" x2="2119.55" y2="588.48" style="stroke:#A0A0A0;stroke-width:10.00"/>
	<line x1="2139.48" y1="584.10" x2="2142.03" y2="583.54" style="stroke:#A0A0A0;stroke-width:10.00"/>
	<line x1="2162.04" y1="579.64" x2="2182.21" y2="576.37" style="stroke:#A0A0A0;stroke-width:10.00"/>
	<line x1="2202.30" y1="572.86" x2="2204.77" y2="572.38" style="stroke:#A0A0A0;stroke-width:10.00"/>
	<line x1="2224.78" y1="568.47" x2="2244.79" y2="564.57" style="stroke:#A0A0A0;stroke-width:10.00"/>
	<line x1="394.86" y1="1865.82" x2="359.38" y2="1865.82" style="stroke:#000000;stroke-width:4.00"/>
	<text x="341.69" y="1883.33" style="font-family:'Helvetica';font-size:49.99px;fill:#000000" text-anchor="end">0</text>
	<line x1="394.86" y1="1715.63" x2="359.38" y2="1715.63" style="stroke:#000000;stroke-width:4.00"/>
	<text x="341.69" y="1733.14" style="font-family:'Helvetica';font-size:49.99px;fill:#000000" text-anchor="end">10</text>
	<line x1="394.86" y1="1565.52" x2="359.38" y2="1565.52" style="stroke:#000000;stroke-width:4.00"/>
	<text x="341.69" y="1583.03" style="font-family:'Helvetica';font-size:49.99px;fill:#000000" text-anchor="end">20</text>
	<line x1="394.86" y1="1415.41" x2="359.38" y2="1415.41" style="stroke:#000000;stroke-width:4.00"/>
	<text x="341.69" y="1432.92" style="font-family:'Helvetica';font-size:49.99px;fill:#000000" text-anchor="end">30</text>
	<line x1="394.86" y1="1265.22" x2="359.38" y2="1265.22" style="stroke:#000000;stroke-width:4.00"/>
	<text x="341.69" y="1282.73" style="font-family:'Helvetica';font-size:49.99px;fill:#000000" text-anchor="end">40</text>
	<line x1="394.86" y1="1115.11" x2="359.38" y2="1115.11" style="stroke:#000000;stroke-width:4.00"/>
	<text x="341.69" y="1132.62" style="font-family:'Helvetica';font-size:49.99px;fill:#000000" text-anchor="end">50</text>
	<line x1="394.86" y1="964.92" x2="359.38" y2="964.92" style="stroke:#000000;stroke-width:4.00"/>
	<text x="341.69" y="982.43" style="font-family:'Helvetica';font-size:49.99px;fill:#000000" text-anchor="end">60</text>
	<line x1="394.86" y1="814.81" x2="359.38" y2="814.81" style="stroke:#000000;stroke-width:4.00"/>
	<text x="341.69" y="832.32" style="font-family:'Helvetica';font-size:49.99px;fill:#000000" text-anchor="end">70</text>
	<line x1="394.86" y1="664.62" x2="359.38" y2="664.62" style="stroke:#000000;stroke-width:4.00"/>
	<text x="341.69" y="682.13" style="font-family:'Helvetica';font-size:49.99px;fill:#000000" text-anchor="end">80</text>
	<line x1="394.86" y1="514.50" x2="359.38" y2="514.50" style="stroke:#000000;stroke-width:4.00"/>
	<text x="341.69" y="532.02" style="font-family:'Helvetica';font-size:49.99px;fill:#000000" text-anchor="end">90</text>
	<line x1="394.86" y1="364.31" x2="359.38" y2="364.31" style="stroke:#000000;stroke-width:4.00"/>
	<text x="341.69" y="381.83" style="font-family:'Helvetica';font-size:49.99px;fill:#000000" text-anchor="end">100</text>
	<line x1="394.86" y1="1865.82" x2="394.86" y2="364.31" style="stroke:#000000;stroke-width:4.00"/>
	<text x="136.21" y="1076.84" style="font-family:'Helvetica';font-size:60.03px;fill:#000000" transform="rotate(-90 136.21,1076.84)" text-anchor="middle">Employment</text>
	<line x1="450.98" y1="1921.94" x2="450.98" y2="1957.33" style="stroke:#000000;stroke-width:4.00"/>
	<text x="450.98" y="2009.98" style="font-family:'Helvetica';font-size:49.99px;fill:#000000" text-anchor="middle">1976</text>
	<line x1="680.98" y1="1921.94" x2="680.98" y2="1957.33" style="stroke:#000000;stroke-width:4.00"/>
	<text x="680.98" y="2009.98" style="font-family:'Helvetica';font-size:49.99px;fill:#000000" text-anchor="middle">1981</text>
	<line x1="910.89" y1="1921.94" x2="910.89" y2="1957.33" style="stroke:#000000;stroke-width:4.00"/>
	<text x="910.89" y="2009.98" style="font-family:'Helvetica';font-size:49.99px;fill:#000000" text-anchor="middle">1986</text>
	<line x1="1140.89" y1="1921.94" x2="1140.89" y2="1957.33" style="stroke:#000000;stroke-width:4.00"/>
	<text x="1140.89" y="2009.98" style="font-family:'Helvetica';font-size:49.99px;fill:#000000" text-anchor="middle">1991</text>
	<line x1="1370.89" y1="1921.94" x2="1370.89" y2="1957.33" style="stroke:#000000;stroke-width:4.00"/>
	<text x="1370.89" y="2009.98" style="font-family:'Helvetica';font-size:49.99px;fill:#000000" text-anchor="middle">1996</text>
	<line x1="1600.88" y1="1921.94" x2="1600.88" y2="1957.33" style="stroke:#000000;stroke-width:4.00"/>
	<text x="1600.88" y="2009.98" style="font-family:'Helvetica';font-size:49.99px;fill:#000000" text-anchor="middle">2001</text>
	<line x1="1830.88" y1="1921.94" x2="1830.88" y2="1957.33" style="stroke:#000000;stroke-width:4.00"/>
	<text x="1830.88" y="2009.98" style="font-family:'Helvetica';font-size:49.99px;fill:#000000" text-anchor="middle">2006</text>
	<line x1="2060.79" y1="1921.94" x2="2060.79" y2="1957.33" style="stroke:#000000;stroke-width:4.00"/>
	<text x="2060.79" y="2009.98" style="font-family:'Helvetica';font-size:49.99px;fill:#000000" text-anchor="middle">2011</text>
	<line x1="2290.79" y1="1921.94" x2="2290.79" y2="1957.33" style="stroke:#000000;stroke-width:4.00"/>
	<text x="2290.79" y="2009.98" style="font-family:'Helvetica';font-size:49.99px;fill:#000000" text-anchor="middle">2016</text>
	<line x1="450.98" y1="1921.94" x2="2290.79" y2="1921.94" style="stroke:#000000;stroke-width:4.00"/>
	<text x="1332.62" y="2152.37" style="font-family:'Helvetica';font-size:60.03px;fill:#000000" text-anchor="middle">Year</text>
	<text x="145.41" y="2396.65" style="font-family:'Helvetica';font-size:60.03px;fill:#000000">Arr. cohort: </text>
	<text x="487.81" y="2396.65" style="font-family:'Helvetica';font-size:60.03px;fill:#000000">1964-73</text>
	<text x="758.23" y="2396.65" style="font-family:'Helvetica';font-size:60.03px;fill:#000000">1974-83</text>
	<text x="1028.72" y="2396.65" style="font-family:'Helvetica';font-size:60.03px;fill:#000000">1984-93</text>
	<text x="1299.14" y="2396.65" style="font-family:'Helvetica';font-size:60.03px;fill:#000000">1994-03</text>
	<text x="1569.55" y="2396.65" style="font-family:'Helvetica';font-size:60.03px;fill:#000000">2004-10</text>
	<text x="1840.05" y="2396.65" style="font-family:'Helvetica';font-size:60.03px;fill:#000000">West G.</text>
	<text x="2110.46" y="2396.65" style="font-family:'Helvetica';font-size:60.03px;fill:#000000">East G.</text>
	<line x1="487.81" y1="2301.32" x2="663.76" y2="2301.32" style="stroke:#E69F00;stroke-width:10.00"/>
	<line x1="758.23" y1="2301.32" x2="934.25" y2="2301.32" style="stroke:#56B4E9;stroke-width:10.00"/>
	<line x1="1028.72" y1="2301.32" x2="1204.67" y2="2301.32" style="stroke:#009E73;stroke-width:10.00"/>
	<line x1="1299.14" y1="2301.32" x2="1475.08" y2="2301.32" style="stroke:#D55E00;stroke-width:10.00"/>
	<line x1="1569.55" y1="2301.32" x2="1745.58" y2="2301.32" style="stroke:#CC79A7;stroke-width:10.00"/>
	<line x1="1840.05" y1="2301.32" x2="1891.07" y2="2301.32" style="stroke:#A0A0A0;stroke-width:10.00"/>
	<line x1="1916.58" y1="2301.32" x2="1967.60" y2="2301.32" style="stroke:#A0A0A0;stroke-width:10.00"/>
	<line x1="1993.11" y1="2301.32" x2="2015.99" y2="2301.32" style="stroke:#A0A0A0;stroke-width:10.00"/>
	<line x1="2110.46" y1="2301.32" x2="2130.87" y2="2301.32" style="stroke:#A0A0A0;stroke-width:10.00"/>
	<line x1="2151.28" y1="2301.32" x2="2153.83" y2="2301.32" style="stroke:#A0A0A0;stroke-width:10.00"/>
	<line x1="2174.24" y1="2301.32" x2="2194.65" y2="2301.32" style="stroke:#A0A0A0;stroke-width:10.00"/>
	<line x1="2215.05" y1="2301.32" x2="2217.61" y2="2301.32" style="stroke:#A0A0A0;stroke-width:10.00"/>
	<line x1="2238.01" y1="2301.32" x2="2258.42" y2="2301.32" style="stroke:#A0A0A0;stroke-width:10.00"/>
	<text x="1370.89" y="239.12" style="font-family:'Helvetica';font-size:60.03px;fill:#000000" text-anchor="middle">Percent, including East Germany</text>
	<text x="1370.89" y="154.88" style="font-family:'Helvetica';font-size:90.01px;fill:#000000" text-anchor="middle">Employment, Men</text>
</svg>
