<?xml version="1.0" encoding="UTF-8" standalone="no"?>
<!-- This is a Stata 15.1 generated SVG file (http://www.stata.com) -->

<svg version="1.1" width="3.54in" height="3.54in" viewBox="0 0 2551 2551" xmlns="http://www.w3.org/2000/svg" xmlns:xlink="http://www.w3.org/1999/xlink">
	<desc>Stata Graph - Graph</desc>
	<rect x="0" y="0" width="2551" height="2551" style="fill:#FFFFFF;stroke:none"/>
	<rect x="0.00" y="0.08" width="2551.00" height="2550.92" style="fill:#FFFFFF"/>
	<rect x="2.55" y="2.63" width="2545.90" height="2545.82" style="fill:none;stroke:#FFFFFF;stroke-width:5.10"/>
	<line x1="351.09" y1="1865.82" x2="2346.91" y2="1865.82" style="stroke:#E8E8E8;stroke-width:4.00"/>
	<line x1="351.09" y1="1715.63" x2="2346.91" y2="1715.63" style="stroke:#E8E8E8;stroke-width:4.00"/>
	<line x1="351.09" y1="1565.52" x2="2346.91" y2="1565.52" style="stroke:#E8E8E8;stroke-width:4.00"/>
	<line x1="351.09" y1="1415.41" x2="2346.91" y2="1415.41" style="stroke:#E8E8E8;stroke-width:4.00"/>
	<line x1="351.09" y1="1265.22" x2="2346.91" y2="1265.22" style="stroke:#E8E8E8;stroke-width:4.00"/>
	<line x1="351.09" y1="1115.11" x2="2346.91" y2="1115.11" style="stroke:#E8E8E8;stroke-width:4.00"/>
	<line x1="351.09" y1="964.92" x2="2346.91" y2="964.92" style="stroke:#E8E8E8;stroke-width:4.00"/>
	<line x1="351.09" y1="814.81" x2="2346.91" y2="814.81" style="stroke:#E8E8E8;stroke-width:4.00"/>
	<line x1="351.09" y1="664.62" x2="2346.91" y2="664.62" style="stroke:#E8E8E8;stroke-width:4.00"/>
	<line x1="351.09" y1="514.50" x2="2346.91" y2="514.50" style="stroke:#E8E8E8;stroke-width:4.00"/>
	<line x1="351.09" y1="364.31" x2="2346.91" y2="364.31" style="stroke:#E8E8E8;stroke-width:4.00"/>
	<line x1="407.22" y1="1921.94" x2="407.22" y2="308.19" style="stroke:#E8E8E8;stroke-width:4.00"/>
	<line x1="642.63" y1="1921.94" x2="642.63" y2="308.19" style="stroke:#E8E8E8;stroke-width:4.00"/>
	<line x1="878.13" y1="1921.94" x2="878.13" y2="308.19" style="stroke:#E8E8E8;stroke-width:4.00"/>
	<line x1="1113.55" y1="1921.94" x2="1113.55" y2="308.19" style="stroke:#E8E8E8;stroke-width:4.00"/>
	<line x1="1349.04" y1="1921.94" x2="1349.04" y2="308.19" style="stroke:#E8E8E8;stroke-width:4.00"/>
	<line x1="1584.46" y1="1921.94" x2="1584.46" y2="308.19" style="stroke:#E8E8E8;stroke-width:4.00"/>
	<line x1="1819.88" y1="1921.94" x2="1819.88" y2="308.19" style="stroke:#E8E8E8;stroke-width:4.00"/>
	<line x1="2055.37" y1="1921.94" x2="2055.37" y2="308.19" style="stroke:#E8E8E8;stroke-width:4.00"/>
	<line x1="2290.79" y1="1921.94" x2="2290.79" y2="308.19" style="stroke:#E8E8E8;stroke-width:4.00"/>
	<line x1="407.22" y1="1837.12" x2="501.37" y2="1833.85" stroke-linecap="round" style="stroke:#E69F00;stroke-width:10.00"/>
	<line x1="501.37" y1="1833.85" x2="595.52" y2="1826.99" stroke-linecap="round" style="stroke:#E69F00;stroke-width:10.00"/>
	<line x1="595.52" y1="1826.99" x2="689.75" y2="1804.67" stroke-linecap="round" style="stroke:#E69F00;stroke-width:10.00"/>
	<line x1="689.75" y1="1804.67" x2="831.01" y2="1825.80" stroke-linecap="round" style="stroke:#E69F00;stroke-width:10.00"/>
	<line x1="831.01" y1="1825.80" x2="925.17" y2="1833.61" stroke-linecap="round" style="stroke:#E69F00;stroke-width:10.00"/>
	<line x1="925.17" y1="1833.61" x2="1019.32" y2="1828.59" stroke-linecap="round" style="stroke:#E69F00;stroke-width:10.00"/>
	<line x1="1019.32" y1="1828.59" x2="1113.55" y2="1803.24" stroke-linecap="round" style="stroke:#E69F00;stroke-width:10.00"/>
	<line x1="1113.55" y1="1803.24" x2="1207.70" y2="1778.45" stroke-linecap="round" style="stroke:#E69F00;stroke-width:10.00"/>
	<line x1="1207.70" y1="1778.45" x2="1301.85" y2="1781.24" stroke-linecap="round" style="stroke:#E69F00;stroke-width:10.00"/>
	<line x1="1301.85" y1="1781.24" x2="1348.96" y2="1741.54" stroke-linecap="round" style="stroke:#E69F00;stroke-width:10.00"/>
	<line x1="1348.96" y1="1741.54" x2="1396.08" y2="1721.53" stroke-linecap="round" style="stroke:#E69F00;stroke-width:10.00"/>
	<line x1="1396.08" y1="1721.53" x2="1443.11" y2="1726.71" stroke-linecap="round" style="stroke:#E69F00;stroke-width:10.00"/>
	<line x1="1443.11" y1="1726.71" x2="1490.23" y2="1683.82" stroke-linecap="round" style="stroke:#E69F00;stroke-width:10.00"/>
	<line x1="1490.23" y1="1683.82" x2="1537.34" y2="1704.31" stroke-linecap="round" style="stroke:#E69F00;stroke-width:10.00"/>
	<line x1="1537.34" y1="1704.31" x2="1584.38" y2="1661.34" stroke-linecap="round" style="stroke:#E69F00;stroke-width:10.00"/>
	<line x1="1584.38" y1="1661.34" x2="1631.50" y2="1654.64" stroke-linecap="round" style="stroke:#E69F00;stroke-width:10.00"/>
	<line x1="1631.50" y1="1654.64" x2="1678.61" y2="1653.21" stroke-linecap="round" style="stroke:#E69F00;stroke-width:10.00"/>
	<line x1="831.01" y1="1776.61" x2="925.17" y2="1734.04" stroke-linecap="round" style="stroke:#56B4E9;stroke-width:10.00"/>
	<line x1="925.17" y1="1734.04" x2="1019.32" y2="1751.58" stroke-linecap="round" style="stroke:#56B4E9;stroke-width:10.00"/>
	<line x1="1019.32" y1="1751.58" x2="1113.55" y2="1692.19" stroke-linecap="round" style="stroke:#56B4E9;stroke-width:10.00"/>
	<line x1="1113.55" y1="1692.19" x2="1207.70" y2="1688.44" stroke-linecap="round" style="stroke:#56B4E9;stroke-width:10.00"/>
	<line x1="1207.70" y1="1688.44" x2="1301.85" y2="1670.51" stroke-linecap="round" style="stroke:#56B4E9;stroke-width:10.00"/>
	<line x1="1301.85" y1="1670.51" x2="1348.96" y2="1665.48" stroke-linecap="round" style="stroke:#56B4E9;stroke-width:10.00"/>
	<line x1="1348.96" y1="1665.48" x2="1396.08" y2="1646.83" stroke-linecap="round" style="stroke:#56B4E9;stroke-width:10.00"/>
	<line x1="1396.08" y1="1646.83" x2="1443.11" y2="1624.03" stroke-linecap="round" style="stroke:#56B4E9;stroke-width:10.00"/>
	<line x1="1443.11" y1="1624.03" x2="1490.23" y2="1603.14" stroke-linecap="round" style="stroke:#56B4E9;stroke-width:10.00"/>
	<line x1="1490.23" y1="1603.14" x2="1537.34" y2="1626.82" stroke-linecap="round" style="stroke:#56B4E9;stroke-width:10.00"/>
	<line x1="1537.34" y1="1626.82" x2="1584.38" y2="1553.48" stroke-linecap="round" style="stroke:#56B4E9;stroke-width:10.00"/>
	<line x1="1584.38" y1="1553.48" x2="1631.50" y2="1609.68" stroke-linecap="round" style="stroke:#56B4E9;stroke-width:10.00"/>
	<line x1="1631.50" y1="1609.68" x2="1678.61" y2="1606.81" stroke-linecap="round" style="stroke:#56B4E9;stroke-width:10.00"/>
	<line x1="1678.61" y1="1606.81" x2="1725.65" y2="1569.66" stroke-linecap="round" style="stroke:#56B4E9;stroke-width:10.00"/>
	<line x1="1725.65" y1="1569.66" x2="1772.76" y2="1588.40" stroke-linecap="round" style="stroke:#56B4E9;stroke-width:10.00"/>
	<line x1="1772.76" y1="1588.40" x2="1819.88" y2="1504.05" stroke-linecap="round" style="stroke:#56B4E9;stroke-width:10.00"/>
	<line x1="1819.88" y1="1504.05" x2="1866.99" y2="1517.92" stroke-linecap="round" style="stroke:#56B4E9;stroke-width:10.00"/>
	<line x1="1866.99" y1="1517.92" x2="1914.03" y2="1542.56" stroke-linecap="round" style="stroke:#56B4E9;stroke-width:10.00"/>
	<line x1="1914.03" y1="1542.56" x2="1961.14" y2="1542.16" stroke-linecap="round" style="stroke:#56B4E9;stroke-width:10.00"/>
	<line x1="1961.14" y1="1542.16" x2="2008.26" y2="1594.53" stroke-linecap="round" style="stroke:#56B4E9;stroke-width:10.00"/>
	<line x1="2008.26" y1="1594.53" x2="2055.29" y2="1540.49" stroke-linecap="round" style="stroke:#56B4E9;stroke-width:10.00"/>
	<line x1="2055.29" y1="1540.49" x2="2102.41" y2="1531.00" stroke-linecap="round" style="stroke:#56B4E9;stroke-width:10.00"/>
	<line x1="1301.85" y1="1648.90" x2="1348.96" y2="1584.01" stroke-linecap="round" style="stroke:#009E73;stroke-width:10.00"/>
	<line x1="1348.96" y1="1584.01" x2="1396.08" y2="1571.18" stroke-linecap="round" style="stroke:#009E73;stroke-width:10.00"/>
	<line x1="1396.08" y1="1571.18" x2="1443.11" y2="1534.27" stroke-linecap="round" style="stroke:#009E73;stroke-width:10.00"/>
	<line x1="1443.11" y1="1534.27" x2="1490.23" y2="1548.38" stroke-linecap="round" style="stroke:#009E73;stroke-width:10.00"/>
	<line x1="1490.23" y1="1548.38" x2="1537.34" y2="1499.67" stroke-linecap="round" style="stroke:#009E73;stroke-width:10.00"/>
	<line x1="1537.34" y1="1499.67" x2="1584.38" y2="1506.52" stroke-linecap="round" style="stroke:#009E73;stroke-width:10.00"/>
	<line x1="1584.38" y1="1506.52" x2="1631.50" y2="1499.43" stroke-linecap="round" style="stroke:#009E73;stroke-width:10.00"/>
	<line x1="1631.50" y1="1499.43" x2="1678.61" y2="1467.30" stroke-linecap="round" style="stroke:#009E73;stroke-width:10.00"/>
	<line x1="1678.61" y1="1467.30" x2="1725.65" y2="1433.98" stroke-linecap="round" style="stroke:#009E73;stroke-width:10.00"/>
	<line x1="1725.65" y1="1433.98" x2="1772.76" y2="1441.95" stroke-linecap="round" style="stroke:#009E73;stroke-width:10.00"/>
	<line x1="1772.76" y1="1441.95" x2="1819.88" y2="1460.93" stroke-linecap="round" style="stroke:#009E73;stroke-width:10.00"/>
	<line x1="1819.88" y1="1460.93" x2="1866.99" y2="1472.56" stroke-linecap="round" style="stroke:#009E73;stroke-width:10.00"/>
	<line x1="1866.99" y1="1472.56" x2="1914.03" y2="1438.13" stroke-linecap="round" style="stroke:#009E73;stroke-width:10.00"/>
	<line x1="1914.03" y1="1438.13" x2="1961.14" y2="1447.53" stroke-linecap="round" style="stroke:#009E73;stroke-width:10.00"/>
	<line x1="1961.14" y1="1447.53" x2="2008.26" y2="1478.78" stroke-linecap="round" style="stroke:#009E73;stroke-width:10.00"/>
	<line x1="2008.26" y1="1478.78" x2="2055.29" y2="1498.79" stroke-linecap="round" style="stroke:#009E73;stroke-width:10.00"/>
	<line x1="2055.29" y1="1498.79" x2="2102.41" y2="1507.00" stroke-linecap="round" style="stroke:#009E73;stroke-width:10.00"/>
	<line x1="2102.41" y1="1507.00" x2="2149.52" y2="1510.99" stroke-linecap="round" style="stroke:#009E73;stroke-width:10.00"/>
	<line x1="2149.52" y1="1510.99" x2="2196.56" y2="1522.55" stroke-linecap="round" style="stroke:#009E73;stroke-width:10.00"/>
	<line x1="2196.56" y1="1522.55" x2="2243.67" y2="1492.02" stroke-linecap="round" style="stroke:#009E73;stroke-width:10.00"/>
	<line x1="1725.65" y1="1507.48" x2="1772.76" y2="1474.24" stroke-linecap="round" style="stroke:#D55E00;stroke-width:10.00"/>
	<line x1="1772.76" y1="1474.24" x2="1819.88" y2="1413.33" stroke-linecap="round" style="stroke:#D55E00;stroke-width:10.00"/>
	<line x1="1819.88" y1="1413.33" x2="1866.99" y2="1440.76" stroke-linecap="round" style="stroke:#D55E00;stroke-width:10.00"/>
	<line x1="1866.99" y1="1440.76" x2="1914.03" y2="1444.11" stroke-linecap="round" style="stroke:#D55E00;stroke-width:10.00"/>
	<line x1="1914.03" y1="1444.11" x2="1961.14" y2="1445.78" stroke-linecap="round" style="stroke:#D55E00;stroke-width:10.00"/>
	<line x1="1961.14" y1="1445.78" x2="2008.26" y2="1459.49" stroke-linecap="round" style="stroke:#D55E00;stroke-width:10.00"/>
	<line x1="2008.26" y1="1459.49" x2="2055.29" y2="1468.90" stroke-linecap="round" style="stroke:#D55E00;stroke-width:10.00"/>
	<line x1="2055.29" y1="1468.90" x2="2102.41" y2="1473.12" stroke-linecap="round" style="stroke:#D55E00;stroke-width:10.00"/>
	<line x1="2102.41" y1="1473.12" x2="2149.52" y2="1458.37" stroke-linecap="round" style="stroke:#D55E00;stroke-width:10.00"/>
	<line x1="2149.52" y1="1458.37" x2="2196.56" y2="1486.04" stroke-linecap="round" style="stroke:#D55E00;stroke-width:10.00"/>
	<line x1="2196.56" y1="1486.04" x2="2243.67" y2="1465.07" stroke-linecap="round" style="stroke:#D55E00;stroke-width:10.00"/>
	<line x1="2055.29" y1="1506.05" x2="2102.41" y2="1508.04" stroke-linecap="round" style="stroke:#CC79A7;stroke-width:10.00"/>
	<line x1="2102.41" y1="1508.04" x2="2149.52" y2="1523.19" stroke-linecap="round" style="stroke:#CC79A7;stroke-width:10.00"/>
	<line x1="2149.52" y1="1523.19" x2="2196.56" y2="1536.18" stroke-linecap="round" style="stroke:#CC79A7;stroke-width:10.00"/>
	<line x1="2196.56" y1="1536.18" x2="2243.67" y2="1499.03" stroke-linecap="round" style="stroke:#CC79A7;stroke-width:10.00"/>
	<line x1="407.22" y1="1778.45" x2="458.08" y2="1774.38" style="stroke:#A0A0A0;stroke-width:10.00"/>
	<line x1="483.51" y1="1772.31" x2="501.37" y2="1770.87" style="stroke:#A0A0A0;stroke-width:10.00"/>
	<line x1="501.37" y1="1770.87" x2="534.45" y2="1771.91" style="stroke:#A0A0A0;stroke-width:10.00"/>
	<line x1="559.96" y1="1772.79" x2="595.52" y2="1773.90" style="stroke:#A0A0A0;stroke-width:10.00"/>
	<line x1="595.52" y1="1773.90" x2="610.82" y2="1771.59" style="stroke:#A0A0A0;stroke-width:10.00"/>
	<line x1="636.10" y1="1767.76" x2="686.48" y2="1760.11" style="stroke:#A0A0A0;stroke-width:10.00"/>
	<line x1="711.91" y1="1761.39" x2="762.77" y2="1765.29" style="stroke:#A0A0A0;stroke-width:10.00"/>
	<line x1="788.20" y1="1767.28" x2="831.01" y2="1770.63" style="stroke:#A0A0A0;stroke-width:10.00"/>
	<line x1="831.01" y1="1770.63" x2="839.15" y2="1770.79" style="stroke:#A0A0A0;stroke-width:10.00"/>
	<line x1="864.66" y1="1771.35" x2="915.68" y2="1772.55" style="stroke:#A0A0A0;stroke-width:10.00"/>
	<line x1="941.19" y1="1772.31" x2="992.13" y2="1771.11" style="stroke:#A0A0A0;stroke-width:10.00"/>
	<line x1="1017.64" y1="1770.47" x2="1019.32" y2="1770.47" style="stroke:#A0A0A0;stroke-width:10.00"/>
	<line x1="1019.32" y1="1770.47" x2="1065.08" y2="1751.98" style="stroke:#A0A0A0;stroke-width:10.00"/>
	<line x1="1088.75" y1="1742.41" x2="1113.55" y2="1732.37" style="stroke:#A0A0A0;stroke-width:10.00"/>
	<line x1="1113.55" y1="1732.37" x2="1137.78" y2="1731.01" style="stroke:#A0A0A0;stroke-width:10.00"/>
	<line x1="1163.21" y1="1729.58" x2="1207.70" y2="1727.11" style="stroke:#A0A0A0;stroke-width:10.00"/>
	<line x1="1207.70" y1="1727.11" x2="1214.15" y2="1726.31" style="stroke:#A0A0A0;stroke-width:10.00"/>
	<line x1="1239.43" y1="1723.04" x2="1290.05" y2="1716.66" style="stroke:#A0A0A0;stroke-width:10.00"/>
	<line x1="1314.92" y1="1711.24" x2="1348.96" y2="1701.12" style="stroke:#A0A0A0;stroke-width:10.00"/>
	<line x1="1348.96" y1="1701.12" x2="1363.95" y2="1697.13" style="stroke:#A0A0A0;stroke-width:10.00"/>
	<line x1="1388.58" y1="1690.52" x2="1396.08" y2="1688.52" style="stroke:#A0A0A0;stroke-width:10.00"/>
	<line x1="1396.08" y1="1688.52" x2="1438.49" y2="1680.07" style="stroke:#A0A0A0;stroke-width:10.00"/>
	<line x1="1463.04" y1="1673.30" x2="1490.23" y2="1665.32" style="stroke:#A0A0A0;stroke-width:10.00"/>
	<line x1="1490.23" y1="1665.32" x2="1512.87" y2="1663.25" style="stroke:#A0A0A0;stroke-width:10.00"/>
	<line x1="1538.30" y1="1660.94" x2="1584.38" y2="1656.79" style="stroke:#A0A0A0;stroke-width:10.00"/>
	<line x1="1584.38" y1="1656.79" x2="1589.08" y2="1656.24" style="stroke:#A0A0A0;stroke-width:10.00"/>
	<line x1="1614.43" y1="1653.45" x2="1631.50" y2="1651.61" style="stroke:#A0A0A0;stroke-width:10.00"/>
	<line x1="1631.50" y1="1651.61" x2="1665.30" y2="1651.61" style="stroke:#A0A0A0;stroke-width:10.00"/>
	<line x1="1690.65" y1="1649.78" x2="1725.65" y2="1644.20" style="stroke:#A0A0A0;stroke-width:10.00"/>
	<line x1="1725.65" y1="1644.20" x2="1740.55" y2="1639.81" style="stroke:#A0A0A0;stroke-width:10.00"/>
	<line x1="1765.03" y1="1632.56" x2="1772.76" y2="1630.25" style="stroke:#A0A0A0;stroke-width:10.00"/>
	<line x1="1772.76" y1="1630.25" x2="1808.24" y2="1605.93" style="stroke:#A0A0A0;stroke-width:10.00"/>
	<line x1="1831.12" y1="1599.56" x2="1866.99" y2="1604.66" style="stroke:#A0A0A0;stroke-width:10.00"/>
	<line x1="1866.99" y1="1604.66" x2="1881.58" y2="1607.29" style="stroke:#A0A0A0;stroke-width:10.00"/>
	<line x1="1906.69" y1="1611.83" x2="1914.03" y2="1613.19" style="stroke:#A0A0A0;stroke-width:10.00"/>
	<line x1="1914.03" y1="1613.19" x2="1957.48" y2="1616.46" style="stroke:#A0A0A0;stroke-width:10.00"/>
	<line x1="1982.43" y1="1621.64" x2="2008.26" y2="1627.62" style="stroke:#A0A0A0;stroke-width:10.00"/>
	<line x1="2008.26" y1="1627.62" x2="2032.33" y2="1632.00" style="stroke:#A0A0A0;stroke-width:10.00"/>
	<line x1="2057.45" y1="1636.47" x2="2102.41" y2="1643.24" style="stroke:#A0A0A0;stroke-width:10.00"/>
	<line x1="2102.41" y1="1643.24" x2="2107.83" y2="1644.36" style="stroke:#A0A0A0;stroke-width:10.00"/>
	<line x1="2132.78" y1="1649.70" x2="2149.52" y2="1653.21" style="stroke:#A0A0A0;stroke-width:10.00"/>
	<line x1="2149.52" y1="1653.21" x2="2182.77" y2="1660.14" style="stroke:#A0A0A0;stroke-width:10.00"/>
	<line x1="2207.88" y1="1664.45" x2="2243.67" y2="1669.15" style="stroke:#A0A0A0;stroke-width:10.00"/>
	<line x1="351.09" y1="1865.82" x2="315.70" y2="1865.82" style="stroke:#000000;stroke-width:4.00"/>
	<text x="297.92" y="1883.33" style="font-family:'Helvetica';font-size:49.99px;fill:#000000" text-anchor="end">0</text>
	<line x1="351.09" y1="1715.63" x2="315.70" y2="1715.63" style="stroke:#000000;stroke-width:4.00"/>
	<text x="297.92" y="1733.14" style="font-family:'Helvetica';font-size:49.99px;fill:#000000" text-anchor="end">.1</text>
	<line x1="351.09" y1="1565.52" x2="315.70" y2="1565.52" style="stroke:#000000;stroke-width:4.00"/>
	<text x="297.92" y="1583.03" style="font-family:'Helvetica';font-size:49.99px;fill:#000000" text-anchor="end">.2</text>
	<line x1="351.09" y1="1415.41" x2="315.70" y2="1415.41" style="stroke:#000000;stroke-width:4.00"/>
	<text x="297.92" y="1432.92" style="font-family:'Helvetica';font-size:49.99px;fill:#000000" text-anchor="end">.3</text>
	<line x1="351.09" y1="1265.22" x2="315.70" y2="1265.22" style="stroke:#000000;stroke-width:4.00"/>
	<text x="297.92" y="1282.73" style="font-family:'Helvetica';font-size:49.99px;fill:#000000" text-anchor="end">.4</text>
	<line x1="351.09" y1="1115.11" x2="315.70" y2="1115.11" style="stroke:#000000;stroke-width:4.00"/>
	<text x="297.92" y="1132.62" style="font-family:'Helvetica';font-size:49.99px;fill:#000000" text-anchor="end">.5</text>
	<line x1="351.09" y1="964.92" x2="315.70" y2="964.92" style="stroke:#000000;stroke-width:4.00"/>
	<text x="297.92" y="982.43" style="font-family:'Helvetica';font-size:49.99px;fill:#000000" text-anchor="end">.6</text>
	<line x1="351.09" y1="814.81" x2="315.70" y2="814.81" style="stroke:#000000;stroke-width:4.00"/>
	<text x="297.92" y="832.32" style="font-family:'Helvetica';font-size:49.99px;fill:#000000" text-anchor="end">.7</text>
	<line x1="351.09" y1="664.62" x2="315.70" y2="664.62" style="stroke:#000000;stroke-width:4.00"/>
	<text x="297.92" y="682.13" style="font-family:'Helvetica';font-size:49.99px;fill:#000000" text-anchor="end">.8</text>
	<line x1="351.09" y1="514.50" x2="315.70" y2="514.50" style="stroke:#000000;stroke-width:4.00"/>
	<text x="297.92" y="532.02" style="font-family:'Helvetica';font-size:49.99px;fill:#000000" text-anchor="end">.9</text>
	<line x1="351.09" y1="364.31" x2="315.70" y2="364.31" style="stroke:#000000;stroke-width:4.00"/>
	<text x="297.92" y="381.83" style="font-family:'Helvetica';font-size:49.99px;fill:#000000" text-anchor="end">1</text>
	<line x1="351.09" y1="1865.82" x2="351.09" y2="364.31" style="stroke:#000000;stroke-width:4.00"/>
	<text x="136.21" y="1076.84" style="font-family:'Helvetica';font-size:60.03px;fill:#000000" transform="rotate(-90 136.21,1076.84)" text-anchor="middle">Marginal employment</text>
	<line x1="407.22" y1="1921.94" x2="407.22" y2="1957.33" style="stroke:#000000;stroke-width:4.00"/>
	<text x="407.22" y="2009.98" style="font-family:'Helvetica';font-size:49.99px;fill:#000000" text-anchor="middle">1976</text>
	<line x1="642.63" y1="1921.94" x2="642.63" y2="1957.33" style="stroke:#000000;stroke-width:4.00"/>
	<text x="642.63" y="2009.98" style="font-family:'Helvetica';font-size:49.99px;fill:#000000" text-anchor="middle">1981</text>
	<line x1="878.13" y1="1921.94" x2="878.13" y2="1957.33" style="stroke:#000000;stroke-width:4.00"/>
	<text x="878.13" y="2009.98" style="font-family:'Helvetica';font-size:49.99px;fill:#000000" text-anchor="middle">1986</text>
	<line x1="1113.55" y1="1921.94" x2="1113.55" y2="1957.33" style="stroke:#000000;stroke-width:4.00"/>
	<text x="1113.55" y="2009.98" style="font-family:'Helvetica';font-size:49.99px;fill:#000000" text-anchor="middle">1991</text>
	<line x1="1349.04" y1="1921.94" x2="1349.04" y2="1957.33" style="stroke:#000000;stroke-width:4.00"/>
	<text x="1349.04" y="2009.98" style="font-family:'Helvetica';font-size:49.99px;fill:#000000" text-anchor="middle">1996</text>
	<line x1="1584.46" y1="1921.94" x2="1584.46" y2="1957.33" style="stroke:#000000;stroke-width:4.00"/>
	<text x="1584.46" y="2009.98" style="font-family:'Helvetica';font-size:49.99px;fill:#000000" text-anchor="middle">2001</text>
	<line x1="1819.88" y1="1921.94" x2="1819.88" y2="1957.33" style="stroke:#000000;stroke-width:4.00"/>
	<text x="1819.88" y="2009.98" style="font-family:'Helvetica';font-size:49.99px;fill:#000000" text-anchor="middle">2006</text>
	<line x1="2055.37" y1="1921.94" x2="2055.37" y2="1957.33" style="stroke:#000000;stroke-width:4.00"/>
	<text x="2055.37" y="2009.98" style="font-family:'Helvetica';font-size:49.99px;fill:#000000" text-anchor="middle">2011</text>
	<line x1="2290.79" y1="1921.94" x2="2290.79" y2="1957.33" style="stroke:#000000;stroke-width:4.00"/>
	<text x="2290.79" y="2009.98" style="font-family:'Helvetica';font-size:49.99px;fill:#000000" text-anchor="middle">2016</text>
	<line x1="407.22" y1="1921.94" x2="2290.79" y2="1921.94" style="stroke:#000000;stroke-width:4.00"/>
	<text x="1310.78" y="2152.37" style="font-family:'Helvetica';font-size:60.03px;fill:#000000" text-anchor="middle">Year</text>
	<text x="145.41" y="2396.65" style="font-family:'Helvetica';font-size:60.03px;fill:#000000">Arr. cohort: </text>
	<text x="536.36" y="2396.65" style="font-family:'Helvetica';font-size:60.03px;fill:#000000">1964-73</text>
	<text x="845.12" y="2396.65" style="font-family:'Helvetica';font-size:60.03px;fill:#000000">1974-83</text>
	<text x="1153.89" y="2396.65" style="font-family:'Helvetica';font-size:60.03px;fill:#000000">1984-93</text>
	<text x="1462.65" y="2396.65" style="font-family:'Helvetica';font-size:60.03px;fill:#000000">1994-03</text>
	<text x="1771.41" y="2396.65" style="font-family:'Helvetica';font-size:60.03px;fill:#000000">2004-10</text>
	<text x="2080.17" y="2396.65" style="font-family:'Helvetica';font-size:60.03px;fill:#000000">German</text>
	<line x1="536.36" y1="2301.32" x2="737.26" y2="2301.32" style="stroke:#E69F00;stroke-width:10.00"/>
	<line x1="845.12" y1="2301.32" x2="1046.02" y2="2301.32" style="stroke:#56B4E9;stroke-width:10.00"/>
	<line x1="1153.89" y1="2301.32" x2="1354.78" y2="2301.32" style="stroke:#009E73;stroke-width:10.00"/>
	<line x1="1462.65" y1="2301.32" x2="1663.54" y2="2301.32" style="stroke:#D55E00;stroke-width:10.00"/>
	<line x1="1771.41" y1="2301.32" x2="1972.30" y2="2301.32" style="stroke:#CC79A7;stroke-width:10.00"/>
	<line x1="2080.17" y1="2301.32" x2="2131.19" y2="2301.32" style="stroke:#A0A0A0;stroke-width:10.00"/>
	<line x1="2156.70" y1="2301.32" x2="2207.72" y2="2301.32" style="stroke:#A0A0A0;stroke-width:10.00"/>
	<line x1="2233.23" y1="2301.32" x2="2278.03" y2="2301.32" style="stroke:#A0A0A0;stroke-width:10.00"/>
	<text x="1349.04" y="239.12" style="font-family:'Helvetica';font-size:60.03px;fill:#000000" text-anchor="middle">Percent</text>
	<text x="1349.04" y="154.88" style="font-family:'Helvetica';font-size:90.01px;fill:#000000" text-anchor="middle">Marginal employment, Women</text>
</svg>
