<?xml version="1.0" encoding="UTF-8" standalone="no"?>
<!-- This is a Stata 15.1 generated SVG file (http://www.stata.com) -->

<svg version="1.1" width="3.54in" height="3.54in" viewBox="0 0 2551 2551" xmlns="http://www.w3.org/2000/svg" xmlns:xlink="http://www.w3.org/1999/xlink">
	<desc>Stata Graph - Graph</desc>
	<rect x="0" y="0" width="2551" height="2551" style="fill:#FFFFFF;stroke:none"/>
	<rect x="0.00" y="0.08" width="2551.00" height="2550.92" style="fill:#FFFFFF"/>
	<rect x="2.55" y="2.63" width="2545.90" height="2545.82" style="fill:none;stroke:#FFFFFF;stroke-width:5.10"/>
	<line x1="394.86" y1="1865.82" x2="2346.91" y2="1865.82" style="stroke:#E8E8E8;stroke-width:4.00"/>
	<line x1="394.86" y1="1704.55" x2="2346.91" y2="1704.55" style="stroke:#E8E8E8;stroke-width:4.00"/>
	<line x1="394.86" y1="1543.28" x2="2346.91" y2="1543.28" style="stroke:#E8E8E8;stroke-width:4.00"/>
	<line x1="394.86" y1="1382.08" x2="2346.91" y2="1382.08" style="stroke:#E8E8E8;stroke-width:4.00"/>
	<line x1="394.86" y1="1220.81" x2="2346.91" y2="1220.81" style="stroke:#E8E8E8;stroke-width:4.00"/>
	<line x1="394.86" y1="1059.54" x2="2346.91" y2="1059.54" style="stroke:#E8E8E8;stroke-width:4.00"/>
	<line x1="394.86" y1="898.35" x2="2346.91" y2="898.35" style="stroke:#E8E8E8;stroke-width:4.00"/>
	<line x1="394.86" y1="737.08" x2="2346.91" y2="737.08" style="stroke:#E8E8E8;stroke-width:4.00"/>
	<line x1="394.86" y1="575.81" x2="2346.91" y2="575.81" style="stroke:#E8E8E8;stroke-width:4.00"/>
	<line x1="394.86" y1="414.54" x2="2346.91" y2="414.54" style="stroke:#E8E8E8;stroke-width:4.00"/>
	<line x1="394.86" y1="253.35" x2="2346.91" y2="253.35" style="stroke:#E8E8E8;stroke-width:4.00"/>
	<line x1="450.98" y1="1921.94" x2="450.98" y2="197.22" style="stroke:#E8E8E8;stroke-width:4.00"/>
	<line x1="639.68" y1="1921.94" x2="639.68" y2="197.22" style="stroke:#E8E8E8;stroke-width:4.00"/>
	<line x1="875.58" y1="1921.94" x2="875.58" y2="197.22" style="stroke:#E8E8E8;stroke-width:4.00"/>
	<line x1="1111.39" y1="1921.94" x2="1111.39" y2="197.22" style="stroke:#E8E8E8;stroke-width:4.00"/>
	<line x1="1347.29" y1="1921.94" x2="1347.29" y2="197.22" style="stroke:#E8E8E8;stroke-width:4.00"/>
	<line x1="1583.18" y1="1921.94" x2="1583.18" y2="197.22" style="stroke:#E8E8E8;stroke-width:4.00"/>
	<line x1="1819.08" y1="1921.94" x2="1819.08" y2="197.22" style="stroke:#E8E8E8;stroke-width:4.00"/>
	<line x1="2054.89" y1="1921.94" x2="2054.89" y2="197.22" style="stroke:#E8E8E8;stroke-width:4.00"/>
	<line x1="2290.79" y1="1921.94" x2="2290.79" y2="197.22" style="stroke:#E8E8E8;stroke-width:4.00"/>
	<line x1="450.90" y1="1835.05" x2="545.29" y2="1831.46" stroke-linecap="round" style="stroke:#E69F00;stroke-width:10.00"/>
	<line x1="545.29" y1="1831.46" x2="639.60" y2="1824.12" stroke-linecap="round" style="stroke:#E69F00;stroke-width:10.00"/>
	<line x1="639.60" y1="1824.12" x2="733.99" y2="1800.13" stroke-linecap="round" style="stroke:#E69F00;stroke-width:10.00"/>
	<line x1="733.99" y1="1800.13" x2="875.50" y2="1822.85" stroke-linecap="round" style="stroke:#E69F00;stroke-width:10.00"/>
	<line x1="875.50" y1="1822.85" x2="969.89" y2="1831.22" stroke-linecap="round" style="stroke:#E69F00;stroke-width:10.00"/>
	<line x1="969.89" y1="1831.22" x2="1064.20" y2="1825.88" stroke-linecap="round" style="stroke:#E69F00;stroke-width:10.00"/>
	<line x1="1064.20" y1="1825.88" x2="1158.59" y2="1798.53" stroke-linecap="round" style="stroke:#E69F00;stroke-width:10.00"/>
	<line x1="1158.59" y1="1798.53" x2="1252.90" y2="1771.99" stroke-linecap="round" style="stroke:#E69F00;stroke-width:10.00"/>
	<line x1="1252.90" y1="1771.99" x2="1347.29" y2="1775.02" stroke-linecap="round" style="stroke:#E69F00;stroke-width:10.00"/>
	<line x1="1347.29" y1="1775.02" x2="1394.40" y2="1732.37" stroke-linecap="round" style="stroke:#E69F00;stroke-width:10.00"/>
	<line x1="1394.40" y1="1732.37" x2="1441.60" y2="1710.84" stroke-linecap="round" style="stroke:#E69F00;stroke-width:10.00"/>
	<line x1="1441.60" y1="1710.84" x2="1488.79" y2="1716.42" stroke-linecap="round" style="stroke:#E69F00;stroke-width:10.00"/>
	<line x1="1488.79" y1="1716.42" x2="1535.99" y2="1670.35" stroke-linecap="round" style="stroke:#E69F00;stroke-width:10.00"/>
	<line x1="1535.99" y1="1670.35" x2="1583.10" y2="1692.35" stroke-linecap="round" style="stroke:#E69F00;stroke-width:10.00"/>
	<line x1="1583.10" y1="1692.35" x2="1630.30" y2="1646.19" stroke-linecap="round" style="stroke:#E69F00;stroke-width:10.00"/>
	<line x1="1630.30" y1="1646.19" x2="1677.49" y2="1639.02" stroke-linecap="round" style="stroke:#E69F00;stroke-width:10.00"/>
	<line x1="1677.49" y1="1639.02" x2="1724.69" y2="1637.50" stroke-linecap="round" style="stroke:#E69F00;stroke-width:10.00"/>
	<line x1="875.50" y1="1770.00" x2="969.89" y2="1724.32" stroke-linecap="round" style="stroke:#56B4E9;stroke-width:10.00"/>
	<line x1="969.89" y1="1724.32" x2="1064.20" y2="1743.13" stroke-linecap="round" style="stroke:#56B4E9;stroke-width:10.00"/>
	<line x1="1064.20" y1="1743.13" x2="1158.59" y2="1679.36" stroke-linecap="round" style="stroke:#56B4E9;stroke-width:10.00"/>
	<line x1="1158.59" y1="1679.36" x2="1252.90" y2="1675.37" stroke-linecap="round" style="stroke:#56B4E9;stroke-width:10.00"/>
	<line x1="1252.90" y1="1675.37" x2="1347.29" y2="1656.08" stroke-linecap="round" style="stroke:#56B4E9;stroke-width:10.00"/>
	<line x1="1347.29" y1="1656.08" x2="1394.40" y2="1650.66" stroke-linecap="round" style="stroke:#56B4E9;stroke-width:10.00"/>
	<line x1="1394.40" y1="1650.66" x2="1441.60" y2="1630.65" stroke-linecap="round" style="stroke:#56B4E9;stroke-width:10.00"/>
	<line x1="1441.60" y1="1630.65" x2="1488.79" y2="1606.09" stroke-linecap="round" style="stroke:#56B4E9;stroke-width:10.00"/>
	<line x1="1488.79" y1="1606.09" x2="1535.99" y2="1583.69" stroke-linecap="round" style="stroke:#56B4E9;stroke-width:10.00"/>
	<line x1="1535.99" y1="1583.69" x2="1583.10" y2="1609.20" stroke-linecap="round" style="stroke:#56B4E9;stroke-width:10.00"/>
	<line x1="1583.10" y1="1609.20" x2="1630.30" y2="1530.44" stroke-linecap="round" style="stroke:#56B4E9;stroke-width:10.00"/>
	<line x1="1630.30" y1="1530.44" x2="1677.49" y2="1590.79" stroke-linecap="round" style="stroke:#56B4E9;stroke-width:10.00"/>
	<line x1="1677.49" y1="1590.79" x2="1724.69" y2="1587.60" stroke-linecap="round" style="stroke:#56B4E9;stroke-width:10.00"/>
	<line x1="1724.69" y1="1587.60" x2="1771.80" y2="1547.82" stroke-linecap="round" style="stroke:#56B4E9;stroke-width:10.00"/>
	<line x1="1771.80" y1="1547.82" x2="1819.00" y2="1567.91" stroke-linecap="round" style="stroke:#56B4E9;stroke-width:10.00"/>
	<line x1="1819.00" y1="1567.91" x2="1866.19" y2="1477.27" stroke-linecap="round" style="stroke:#56B4E9;stroke-width:10.00"/>
	<line x1="1866.19" y1="1477.27" x2="1913.39" y2="1492.18" stroke-linecap="round" style="stroke:#56B4E9;stroke-width:10.00"/>
	<line x1="1913.39" y1="1492.18" x2="1960.50" y2="1518.64" stroke-linecap="round" style="stroke:#56B4E9;stroke-width:10.00"/>
	<line x1="1960.50" y1="1518.64" x2="2007.70" y2="1518.24" stroke-linecap="round" style="stroke:#56B4E9;stroke-width:10.00"/>
	<line x1="2007.70" y1="1518.24" x2="2054.89" y2="1574.53" stroke-linecap="round" style="stroke:#56B4E9;stroke-width:10.00"/>
	<line x1="2054.89" y1="1574.53" x2="2102.09" y2="1516.41" stroke-linecap="round" style="stroke:#56B4E9;stroke-width:10.00"/>
	<line x1="2102.09" y1="1516.41" x2="2149.20" y2="1506.21" stroke-linecap="round" style="stroke:#56B4E9;stroke-width:10.00"/>
	<line x1="1347.29" y1="1632.88" x2="1394.40" y2="1563.13" stroke-linecap="round" style="stroke:#009E73;stroke-width:10.00"/>
	<line x1="1394.40" y1="1563.13" x2="1441.60" y2="1549.41" stroke-linecap="round" style="stroke:#009E73;stroke-width:10.00"/>
	<line x1="1441.60" y1="1549.41" x2="1488.79" y2="1509.79" stroke-linecap="round" style="stroke:#009E73;stroke-width:10.00"/>
	<line x1="1488.79" y1="1509.79" x2="1535.99" y2="1524.86" stroke-linecap="round" style="stroke:#009E73;stroke-width:10.00"/>
	<line x1="1535.99" y1="1524.86" x2="1583.10" y2="1472.64" stroke-linecap="round" style="stroke:#009E73;stroke-width:10.00"/>
	<line x1="1583.10" y1="1472.64" x2="1630.30" y2="1479.98" stroke-linecap="round" style="stroke:#009E73;stroke-width:10.00"/>
	<line x1="1630.30" y1="1479.98" x2="1677.49" y2="1472.33" stroke-linecap="round" style="stroke:#009E73;stroke-width:10.00"/>
	<line x1="1677.49" y1="1472.33" x2="1724.69" y2="1437.81" stroke-linecap="round" style="stroke:#009E73;stroke-width:10.00"/>
	<line x1="1724.69" y1="1437.81" x2="1771.80" y2="1402.09" stroke-linecap="round" style="stroke:#009E73;stroke-width:10.00"/>
	<line x1="1771.80" y1="1402.09" x2="1819.00" y2="1410.62" stroke-linecap="round" style="stroke:#009E73;stroke-width:10.00"/>
	<line x1="1819.00" y1="1410.62" x2="1866.19" y2="1431.03" stroke-linecap="round" style="stroke:#009E73;stroke-width:10.00"/>
	<line x1="1866.19" y1="1431.03" x2="1913.39" y2="1443.47" stroke-linecap="round" style="stroke:#009E73;stroke-width:10.00"/>
	<line x1="1913.39" y1="1443.47" x2="1960.50" y2="1406.56" stroke-linecap="round" style="stroke:#009E73;stroke-width:10.00"/>
	<line x1="1960.50" y1="1406.56" x2="2007.70" y2="1416.60" stroke-linecap="round" style="stroke:#009E73;stroke-width:10.00"/>
	<line x1="2007.70" y1="1416.60" x2="2054.89" y2="1450.16" stroke-linecap="round" style="stroke:#009E73;stroke-width:10.00"/>
	<line x1="2054.89" y1="1450.16" x2="2102.09" y2="1471.61" stroke-linecap="round" style="stroke:#009E73;stroke-width:10.00"/>
	<line x1="2102.09" y1="1471.61" x2="2149.20" y2="1480.54" stroke-linecap="round" style="stroke:#009E73;stroke-width:10.00"/>
	<line x1="2149.20" y1="1480.54" x2="2196.40" y2="1484.76" stroke-linecap="round" style="stroke:#009E73;stroke-width:10.00"/>
	<line x1="2196.40" y1="1484.76" x2="2243.59" y2="1497.12" stroke-linecap="round" style="stroke:#009E73;stroke-width:10.00"/>
	<line x1="2243.59" y1="1497.12" x2="2290.79" y2="1464.35" stroke-linecap="round" style="stroke:#009E73;stroke-width:10.00"/>
	<line x1="1771.80" y1="1481.01" x2="1819.00" y2="1445.22" stroke-linecap="round" style="stroke:#D55E00;stroke-width:10.00"/>
	<line x1="1819.00" y1="1445.22" x2="1866.19" y2="1379.85" stroke-linecap="round" style="stroke:#D55E00;stroke-width:10.00"/>
	<line x1="1866.19" y1="1379.85" x2="1913.39" y2="1409.35" stroke-linecap="round" style="stroke:#D55E00;stroke-width:10.00"/>
	<line x1="1913.39" y1="1409.35" x2="1960.50" y2="1412.94" stroke-linecap="round" style="stroke:#D55E00;stroke-width:10.00"/>
	<line x1="1960.50" y1="1412.94" x2="2007.70" y2="1414.69" stroke-linecap="round" style="stroke:#D55E00;stroke-width:10.00"/>
	<line x1="2007.70" y1="1414.69" x2="2054.89" y2="1429.44" stroke-linecap="round" style="stroke:#D55E00;stroke-width:10.00"/>
	<line x1="2054.89" y1="1429.44" x2="2102.09" y2="1439.56" stroke-linecap="round" style="stroke:#D55E00;stroke-width:10.00"/>
	<line x1="2102.09" y1="1439.56" x2="2149.20" y2="1444.03" stroke-linecap="round" style="stroke:#D55E00;stroke-width:10.00"/>
	<line x1="2149.20" y1="1444.03" x2="2196.40" y2="1428.24" stroke-linecap="round" style="stroke:#D55E00;stroke-width:10.00"/>
	<line x1="2196.40" y1="1428.24" x2="2243.59" y2="1457.98" stroke-linecap="round" style="stroke:#D55E00;stroke-width:10.00"/>
	<line x1="2243.59" y1="1457.98" x2="2290.79" y2="1435.42" stroke-linecap="round" style="stroke:#D55E00;stroke-width:10.00"/>
	<line x1="2102.09" y1="1479.42" x2="2149.20" y2="1481.57" stroke-linecap="round" style="stroke:#CC79A7;stroke-width:10.00"/>
	<line x1="2149.20" y1="1481.57" x2="2196.40" y2="1497.84" stroke-linecap="round" style="stroke:#CC79A7;stroke-width:10.00"/>
	<line x1="2196.40" y1="1497.84" x2="2243.59" y2="1511.79" stroke-linecap="round" style="stroke:#CC79A7;stroke-width:10.00"/>
	<line x1="2243.59" y1="1511.79" x2="2290.79" y2="1471.93" stroke-linecap="round" style="stroke:#CC79A7;stroke-width:10.00"/>
	<line x1="450.90" y1="1771.99" x2="501.77" y2="1767.60" style="stroke:#A0A0A0;stroke-width:10.00"/>
	<line x1="527.20" y1="1765.37" x2="545.29" y2="1763.86" style="stroke:#A0A0A0;stroke-width:10.00"/>
	<line x1="545.29" y1="1763.86" x2="578.14" y2="1764.97" style="stroke:#A0A0A0;stroke-width:10.00"/>
	<line x1="603.65" y1="1765.85" x2="639.60" y2="1767.13" style="stroke:#A0A0A0;stroke-width:10.00"/>
	<line x1="639.60" y1="1767.13" x2="654.43" y2="1764.73" style="stroke:#A0A0A0;stroke-width:10.00"/>
	<line x1="679.54" y1="1760.67" x2="729.93" y2="1752.54" style="stroke:#A0A0A0;stroke-width:10.00"/>
	<line x1="755.28" y1="1753.57" x2="806.14" y2="1757.80" style="stroke:#A0A0A0;stroke-width:10.00"/>
	<line x1="831.65" y1="1759.95" x2="875.50" y2="1763.54" style="stroke:#A0A0A0;stroke-width:10.00"/>
	<line x1="875.50" y1="1763.54" x2="882.51" y2="1763.70" style="stroke:#A0A0A0;stroke-width:10.00"/>
	<line x1="908.02" y1="1764.26" x2="959.05" y2="1765.45" style="stroke:#A0A0A0;stroke-width:10.00"/>
	<line x1="984.56" y1="1765.37" x2="1035.50" y2="1764.18" style="stroke:#A0A0A0;stroke-width:10.00"/>
	<line x1="1061.01" y1="1763.54" x2="1064.20" y2="1763.46" style="stroke:#A0A0A0;stroke-width:10.00"/>
	<line x1="1064.20" y1="1763.46" x2="1108.05" y2="1744.41" style="stroke:#A0A0A0;stroke-width:10.00"/>
	<line x1="1131.48" y1="1734.28" x2="1158.59" y2="1722.48" style="stroke:#A0A0A0;stroke-width:10.00"/>
	<line x1="1158.59" y1="1722.48" x2="1180.03" y2="1721.21" style="stroke:#A0A0A0;stroke-width:10.00"/>
	<line x1="1205.46" y1="1719.61" x2="1252.90" y2="1716.82" style="stroke:#A0A0A0;stroke-width:10.00"/>
	<line x1="1252.90" y1="1716.82" x2="1256.41" y2="1716.34" style="stroke:#A0A0A0;stroke-width:10.00"/>
	<line x1="1281.68" y1="1712.92" x2="1332.22" y2="1706.06" style="stroke:#A0A0A0;stroke-width:10.00"/>
	<line x1="1357.09" y1="1700.88" x2="1394.40" y2="1689.00" style="stroke:#A0A0A0;stroke-width:10.00"/>
	<line x1="1394.40" y1="1689.00" x2="1405.80" y2="1685.73" style="stroke:#A0A0A0;stroke-width:10.00"/>
	<line x1="1430.36" y1="1678.72" x2="1441.60" y2="1675.45" style="stroke:#A0A0A0;stroke-width:10.00"/>
	<line x1="1441.60" y1="1675.45" x2="1479.95" y2="1667.16" style="stroke:#A0A0A0;stroke-width:10.00"/>
	<line x1="1504.58" y1="1660.38" x2="1535.99" y2="1650.50" style="stroke:#A0A0A0;stroke-width:10.00"/>
	<line x1="1535.99" y1="1650.50" x2="1554.01" y2="1648.74" style="stroke:#A0A0A0;stroke-width:10.00"/>
	<line x1="1579.36" y1="1646.19" x2="1583.10" y2="1645.87" style="stroke:#A0A0A0;stroke-width:10.00"/>
	<line x1="1583.10" y1="1645.87" x2="1630.14" y2="1641.33" style="stroke:#A0A0A0;stroke-width:10.00"/>
	<line x1="1655.57" y1="1638.30" x2="1677.49" y2="1635.75" style="stroke:#A0A0A0;stroke-width:10.00"/>
	<line x1="1677.49" y1="1635.75" x2="1706.43" y2="1635.75" style="stroke:#A0A0A0;stroke-width:10.00"/>
	<line x1="1731.78" y1="1634.63" x2="1771.80" y2="1627.86" style="stroke:#A0A0A0;stroke-width:10.00"/>
	<line x1="1771.80" y1="1627.86" x2="1781.77" y2="1624.67" style="stroke:#A0A0A0;stroke-width:10.00"/>
	<line x1="1806.08" y1="1616.94" x2="1819.00" y2="1612.87" style="stroke:#A0A0A0;stroke-width:10.00"/>
	<line x1="1819.00" y1="1612.87" x2="1849.21" y2="1590.63" style="stroke:#A0A0A0;stroke-width:10.00"/>
	<line x1="1870.58" y1="1578.83" x2="1913.39" y2="1585.37" style="stroke:#A0A0A0;stroke-width:10.00"/>
	<line x1="1913.39" y1="1585.37" x2="1920.96" y2="1586.80" style="stroke:#A0A0A0;stroke-width:10.00"/>
	<line x1="1946.00" y1="1591.66" x2="1960.50" y2="1594.45" style="stroke:#A0A0A0;stroke-width:10.00"/>
	<line x1="1960.50" y1="1594.45" x2="1996.62" y2="1597.40" style="stroke:#A0A0A0;stroke-width:10.00"/>
	<line x1="2021.65" y1="1601.79" x2="2054.89" y2="1610.00" style="stroke:#A0A0A0;stroke-width:10.00"/>
	<line x1="2054.89" y1="1610.00" x2="2071.32" y2="1613.19" style="stroke:#A0A0A0;stroke-width:10.00"/>
	<line x1="2096.35" y1="1618.05" x2="2102.09" y2="1619.17" style="stroke:#A0A0A0;stroke-width:10.00"/>
	<line x1="2102.09" y1="1619.17" x2="2146.73" y2="1626.34" style="stroke:#A0A0A0;stroke-width:10.00"/>
	<line x1="2171.61" y1="1631.84" x2="2196.40" y2="1637.50" style="stroke:#A0A0A0;stroke-width:10.00"/>
	<line x1="2196.40" y1="1637.50" x2="2221.35" y2="1643.08" style="stroke:#A0A0A0;stroke-width:10.00"/>
	<line x1="2246.31" y1="1648.42" x2="2290.79" y2="1654.64" style="stroke:#A0A0A0;stroke-width:10.00"/>
	<line x1="394.86" y1="1865.82" x2="359.38" y2="1865.82" style="stroke:#000000;stroke-width:4.00"/>
	<text x="341.69" y="1883.33" style="font-family:'Helvetica';font-size:49.99px;fill:#000000" text-anchor="end">0</text>
	<line x1="394.86" y1="1704.55" x2="359.38" y2="1704.55" style="stroke:#000000;stroke-width:4.00"/>
	<text x="341.69" y="1722.06" style="font-family:'Helvetica';font-size:49.99px;fill:#000000" text-anchor="end">10</text>
	<line x1="394.86" y1="1543.28" x2="359.38" y2="1543.28" style="stroke:#000000;stroke-width:4.00"/>
	<text x="341.69" y="1560.79" style="font-family:'Helvetica';font-size:49.99px;fill:#000000" text-anchor="end">20</text>
	<line x1="394.86" y1="1382.08" x2="359.38" y2="1382.08" style="stroke:#000000;stroke-width:4.00"/>
	<text x="341.69" y="1399.60" style="font-family:'Helvetica';font-size:49.99px;fill:#000000" text-anchor="end">30</text>
	<line x1="394.86" y1="1220.81" x2="359.38" y2="1220.81" style="stroke:#000000;stroke-width:4.00"/>
	<text x="341.69" y="1238.33" style="font-family:'Helvetica';font-size:49.99px;fill:#000000" text-anchor="end">40</text>
	<line x1="394.86" y1="1059.54" x2="359.38" y2="1059.54" style="stroke:#000000;stroke-width:4.00"/>
	<text x="341.69" y="1077.06" style="font-family:'Helvetica';font-size:49.99px;fill:#000000" text-anchor="end">50</text>
	<line x1="394.86" y1="898.35" x2="359.38" y2="898.35" style="stroke:#000000;stroke-width:4.00"/>
	<text x="341.69" y="915.86" style="font-family:'Helvetica';font-size:49.99px;fill:#000000" text-anchor="end">60</text>
	<line x1="394.86" y1="737.08" x2="359.38" y2="737.08" style="stroke:#000000;stroke-width:4.00"/>
	<text x="341.69" y="754.59" style="font-family:'Helvetica';font-size:49.99px;fill:#000000" text-anchor="end">70</text>
	<line x1="394.86" y1="575.81" x2="359.38" y2="575.81" style="stroke:#000000;stroke-width:4.00"/>
	<text x="341.69" y="593.32" style="font-family:'Helvetica';font-size:49.99px;fill:#000000" text-anchor="end">80</text>
	<line x1="394.86" y1="414.54" x2="359.38" y2="414.54" style="stroke:#000000;stroke-width:4.00"/>
	<text x="341.69" y="432.05" style="font-family:'Helvetica';font-size:49.99px;fill:#000000" text-anchor="end">90</text>
	<line x1="394.86" y1="253.35" x2="359.38" y2="253.35" style="stroke:#000000;stroke-width:4.00"/>
	<text x="341.69" y="270.86" style="font-family:'Helvetica';font-size:49.99px;fill:#000000" text-anchor="end">100</text>
	<line x1="394.86" y1="1865.82" x2="394.86" y2="253.35" style="stroke:#000000;stroke-width:4.00"/>
	<text x="136.21" y="1021.28" style="font-family:'Helvetica';font-size:60.03px;fill:#000000" transform="rotate(-90 136.21,1021.28)" text-anchor="middle">Marginal employment share (in %)</text>
	<line x1="450.98" y1="1921.94" x2="450.98" y2="1957.33" style="stroke:#000000;stroke-width:4.00"/>
	<text x="450.98" y="2009.98" style="font-family:'Helvetica';font-size:49.99px;fill:#000000" text-anchor="middle">1976</text>
	<line x1="639.68" y1="1921.94" x2="639.68" y2="1957.33" style="stroke:#000000;stroke-width:4.00"/>
	<text x="639.68" y="2009.98" style="font-family:'Helvetica';font-size:49.99px;fill:#000000" text-anchor="middle">1980</text>
	<line x1="875.58" y1="1921.94" x2="875.58" y2="1957.33" style="stroke:#000000;stroke-width:4.00"/>
	<text x="875.58" y="2009.98" style="font-family:'Helvetica';font-size:49.99px;fill:#000000" text-anchor="middle">1985</text>
	<line x1="1111.39" y1="1921.94" x2="1111.39" y2="1957.33" style="stroke:#000000;stroke-width:4.00"/>
	<text x="1111.39" y="2009.98" style="font-family:'Helvetica';font-size:49.99px;fill:#000000" text-anchor="middle">1990</text>
	<line x1="1347.29" y1="1921.94" x2="1347.29" y2="1957.33" style="stroke:#000000;stroke-width:4.00"/>
	<text x="1347.29" y="2009.98" style="font-family:'Helvetica';font-size:49.99px;fill:#000000" text-anchor="middle">1995</text>
	<line x1="1583.18" y1="1921.94" x2="1583.18" y2="1957.33" style="stroke:#000000;stroke-width:4.00"/>
	<text x="1583.18" y="2009.98" style="font-family:'Helvetica';font-size:49.99px;fill:#000000" text-anchor="middle">2000</text>
	<line x1="1819.08" y1="1921.94" x2="1819.08" y2="1957.33" style="stroke:#000000;stroke-width:4.00"/>
	<text x="1819.08" y="2009.98" style="font-family:'Helvetica';font-size:49.99px;fill:#000000" text-anchor="middle">2005</text>
	<line x1="2054.89" y1="1921.94" x2="2054.89" y2="1957.33" style="stroke:#000000;stroke-width:4.00"/>
	<text x="2054.89" y="2009.98" style="font-family:'Helvetica';font-size:49.99px;fill:#000000" text-anchor="middle">2010</text>
	<line x1="2290.79" y1="1921.94" x2="2290.79" y2="1957.33" style="stroke:#000000;stroke-width:4.00"/>
	<text x="2290.79" y="2009.98" style="font-family:'Helvetica';font-size:49.99px;fill:#000000" text-anchor="middle">2015</text>
	<line x1="450.98" y1="1921.94" x2="2290.79" y2="1921.94" style="stroke:#000000;stroke-width:4.00"/>
	<text x="1332.62" y="2152.37" style="font-family:'Helvetica';font-size:60.03px;fill:#000000" text-anchor="middle">Year</text>
	<text x="145.41" y="2396.65" style="font-family:'Helvetica';font-size:60.03px;fill:#000000">Arr. cohort: </text>
	<text x="536.36" y="2396.65" style="font-family:'Helvetica';font-size:60.03px;fill:#000000">1964-73</text>
	<text x="845.12" y="2396.65" style="font-family:'Helvetica';font-size:60.03px;fill:#000000">1974-83</text>
	<text x="1153.89" y="2396.65" style="font-family:'Helvetica';font-size:60.03px;fill:#000000">1984-93</text>
	<text x="1462.65" y="2396.65" style="font-family:'Helvetica';font-size:60.03px;fill:#000000">1994-03</text>
	<text x="1771.41" y="2396.65" style="font-family:'Helvetica';font-size:60.03px;fill:#000000">2004-10</text>
	<text x="2080.17" y="2396.65" style="font-family:'Helvetica';font-size:60.03px;fill:#000000">German</text>
	<line x1="536.36" y1="2301.32" x2="737.26" y2="2301.32" style="stroke:#E69F00;stroke-width:10.00"/>
	<line x1="845.12" y1="2301.32" x2="1046.02" y2="2301.32" style="stroke:#56B4E9;stroke-width:10.00"/>
	<line x1="1153.89" y1="2301.32" x2="1354.78" y2="2301.32" style="stroke:#009E73;stroke-width:10.00"/>
	<line x1="1462.65" y1="2301.32" x2="1663.54" y2="2301.32" style="stroke:#D55E00;stroke-width:10.00"/>
	<line x1="1771.41" y1="2301.32" x2="1972.30" y2="2301.32" style="stroke:#CC79A7;stroke-width:10.00"/>
	<line x1="2080.17" y1="2301.32" x2="2131.19" y2="2301.32" style="stroke:#A0A0A0;stroke-width:10.00"/>
	<line x1="2156.70" y1="2301.32" x2="2207.72" y2="2301.32" style="stroke:#A0A0A0;stroke-width:10.00"/>
	<line x1="2233.23" y1="2301.32" x2="2278.03" y2="2301.32" style="stroke:#A0A0A0;stroke-width:10.00"/>
	<text x="1370.89" y="154.88" style="font-family:'Helvetica';font-size:90.01px;fill:#000000" text-anchor="middle">Women</text>
</svg>
