<?xml version="1.0" encoding="UTF-8" standalone="no"?>
<!-- This is a Stata 15.1 generated SVG file (http://www.stata.com) -->

<svg version="1.1" width="3.54in" height="3.54in" viewBox="0 0 2551 2551" xmlns="http://www.w3.org/2000/svg" xmlns:xlink="http://www.w3.org/1999/xlink">
	<desc>Stata Graph - Graph</desc>
	<rect x="0" y="0" width="2551" height="2551" style="fill:#FFFFFF;stroke:none"/>
	<rect x="0.00" y="0.08" width="2551.00" height="2550.92" style="fill:#FFFFFF"/>
	<rect x="2.55" y="2.63" width="2545.90" height="2545.82" style="fill:none;stroke:#FFFFFF;stroke-width:5.10"/>
	<line x1="351.09" y1="1865.82" x2="2346.91" y2="1865.82" style="stroke:#E8E8E8;stroke-width:4.00"/>
	<line x1="351.09" y1="1715.63" x2="2346.91" y2="1715.63" style="stroke:#E8E8E8;stroke-width:4.00"/>
	<line x1="351.09" y1="1565.52" x2="2346.91" y2="1565.52" style="stroke:#E8E8E8;stroke-width:4.00"/>
	<line x1="351.09" y1="1415.41" x2="2346.91" y2="1415.41" style="stroke:#E8E8E8;stroke-width:4.00"/>
	<line x1="351.09" y1="1265.22" x2="2346.91" y2="1265.22" style="stroke:#E8E8E8;stroke-width:4.00"/>
	<line x1="351.09" y1="1115.11" x2="2346.91" y2="1115.11" style="stroke:#E8E8E8;stroke-width:4.00"/>
	<line x1="351.09" y1="964.92" x2="2346.91" y2="964.92" style="stroke:#E8E8E8;stroke-width:4.00"/>
	<line x1="351.09" y1="814.81" x2="2346.91" y2="814.81" style="stroke:#E8E8E8;stroke-width:4.00"/>
	<line x1="351.09" y1="664.62" x2="2346.91" y2="664.62" style="stroke:#E8E8E8;stroke-width:4.00"/>
	<line x1="351.09" y1="514.50" x2="2346.91" y2="514.50" style="stroke:#E8E8E8;stroke-width:4.00"/>
	<line x1="351.09" y1="364.31" x2="2346.91" y2="364.31" style="stroke:#E8E8E8;stroke-width:4.00"/>
	<line x1="407.22" y1="1921.94" x2="407.22" y2="308.19" style="stroke:#E8E8E8;stroke-width:4.00"/>
	<line x1="642.63" y1="1921.94" x2="642.63" y2="308.19" style="stroke:#E8E8E8;stroke-width:4.00"/>
	<line x1="878.13" y1="1921.94" x2="878.13" y2="308.19" style="stroke:#E8E8E8;stroke-width:4.00"/>
	<line x1="1113.55" y1="1921.94" x2="1113.55" y2="308.19" style="stroke:#E8E8E8;stroke-width:4.00"/>
	<line x1="1349.04" y1="1921.94" x2="1349.04" y2="308.19" style="stroke:#E8E8E8;stroke-width:4.00"/>
	<line x1="1584.46" y1="1921.94" x2="1584.46" y2="308.19" style="stroke:#E8E8E8;stroke-width:4.00"/>
	<line x1="1819.88" y1="1921.94" x2="1819.88" y2="308.19" style="stroke:#E8E8E8;stroke-width:4.00"/>
	<line x1="2055.37" y1="1921.94" x2="2055.37" y2="308.19" style="stroke:#E8E8E8;stroke-width:4.00"/>
	<line x1="2290.79" y1="1921.94" x2="2290.79" y2="308.19" style="stroke:#E8E8E8;stroke-width:4.00"/>
	<line x1="407.22" y1="1831.30" x2="501.37" y2="1830.02" stroke-linecap="round" style="stroke:#E69F00;stroke-width:10.00"/>
	<line x1="501.37" y1="1830.02" x2="595.52" y2="1841.10" stroke-linecap="round" style="stroke:#E69F00;stroke-width:10.00"/>
	<line x1="595.52" y1="1841.10" x2="689.75" y2="1821.25" stroke-linecap="round" style="stroke:#E69F00;stroke-width:10.00"/>
	<line x1="689.75" y1="1821.25" x2="831.01" y2="1838.79" stroke-linecap="round" style="stroke:#E69F00;stroke-width:10.00"/>
	<line x1="831.01" y1="1838.79" x2="925.17" y2="1831.38" stroke-linecap="round" style="stroke:#E69F00;stroke-width:10.00"/>
	<line x1="925.17" y1="1831.38" x2="1019.32" y2="1841.90" stroke-linecap="round" style="stroke:#E69F00;stroke-width:10.00"/>
	<line x1="1019.32" y1="1841.90" x2="1113.55" y2="1843.10" stroke-linecap="round" style="stroke:#E69F00;stroke-width:10.00"/>
	<line x1="1113.55" y1="1843.10" x2="1207.70" y2="1786.74" stroke-linecap="round" style="stroke:#E69F00;stroke-width:10.00"/>
	<line x1="1207.70" y1="1786.74" x2="1301.85" y2="1815.75" stroke-linecap="round" style="stroke:#E69F00;stroke-width:10.00"/>
	<line x1="1301.85" y1="1815.75" x2="1348.96" y2="1816.79" stroke-linecap="round" style="stroke:#E69F00;stroke-width:10.00"/>
	<line x1="1348.96" y1="1816.79" x2="1396.08" y2="1808.42" stroke-linecap="round" style="stroke:#E69F00;stroke-width:10.00"/>
	<line x1="1396.08" y1="1808.42" x2="1443.11" y2="1815.59" stroke-linecap="round" style="stroke:#E69F00;stroke-width:10.00"/>
	<line x1="1443.11" y1="1815.59" x2="1490.23" y2="1823.49" stroke-linecap="round" style="stroke:#E69F00;stroke-width:10.00"/>
	<line x1="1490.23" y1="1823.49" x2="1537.34" y2="1821.25" stroke-linecap="round" style="stroke:#E69F00;stroke-width:10.00"/>
	<line x1="1537.34" y1="1821.25" x2="1584.38" y2="1831.30" stroke-linecap="round" style="stroke:#E69F00;stroke-width:10.00"/>
	<line x1="1584.38" y1="1831.30" x2="1631.50" y2="1806.51" stroke-linecap="round" style="stroke:#E69F00;stroke-width:10.00"/>
	<line x1="1631.50" y1="1806.51" x2="1678.61" y2="1814.08" stroke-linecap="round" style="stroke:#E69F00;stroke-width:10.00"/>
	<line x1="831.01" y1="1793.59" x2="925.17" y2="1807.22" stroke-linecap="round" style="stroke:#56B4E9;stroke-width:10.00"/>
	<line x1="925.17" y1="1807.22" x2="1019.32" y2="1810.57" stroke-linecap="round" style="stroke:#56B4E9;stroke-width:10.00"/>
	<line x1="1019.32" y1="1810.57" x2="1113.55" y2="1809.06" stroke-linecap="round" style="stroke:#56B4E9;stroke-width:10.00"/>
	<line x1="1113.55" y1="1809.06" x2="1207.70" y2="1786.74" stroke-linecap="round" style="stroke:#56B4E9;stroke-width:10.00"/>
	<line x1="1207.70" y1="1786.74" x2="1301.85" y2="1795.82" stroke-linecap="round" style="stroke:#56B4E9;stroke-width:10.00"/>
	<line x1="1301.85" y1="1795.82" x2="1348.96" y2="1755.01" stroke-linecap="round" style="stroke:#56B4E9;stroke-width:10.00"/>
	<line x1="1348.96" y1="1755.01" x2="1396.08" y2="1787.45" stroke-linecap="round" style="stroke:#56B4E9;stroke-width:10.00"/>
	<line x1="1396.08" y1="1787.45" x2="1443.11" y2="1778.45" stroke-linecap="round" style="stroke:#56B4E9;stroke-width:10.00"/>
	<line x1="1443.11" y1="1778.45" x2="1490.23" y2="1773.18" stroke-linecap="round" style="stroke:#56B4E9;stroke-width:10.00"/>
	<line x1="1490.23" y1="1773.18" x2="1537.34" y2="1806.59" stroke-linecap="round" style="stroke:#56B4E9;stroke-width:10.00"/>
	<line x1="1537.34" y1="1806.59" x2="1584.38" y2="1786.98" stroke-linecap="round" style="stroke:#56B4E9;stroke-width:10.00"/>
	<line x1="1584.38" y1="1786.98" x2="1631.50" y2="1773.50" stroke-linecap="round" style="stroke:#56B4E9;stroke-width:10.00"/>
	<line x1="1631.50" y1="1773.50" x2="1678.61" y2="1773.58" stroke-linecap="round" style="stroke:#56B4E9;stroke-width:10.00"/>
	<line x1="1678.61" y1="1773.58" x2="1725.65" y2="1763.06" stroke-linecap="round" style="stroke:#56B4E9;stroke-width:10.00"/>
	<line x1="1725.65" y1="1763.06" x2="1772.76" y2="1710.21" stroke-linecap="round" style="stroke:#56B4E9;stroke-width:10.00"/>
	<line x1="1772.76" y1="1710.21" x2="1819.88" y2="1677.28" stroke-linecap="round" style="stroke:#56B4E9;stroke-width:10.00"/>
	<line x1="1819.88" y1="1677.28" x2="1866.99" y2="1702.47" stroke-linecap="round" style="stroke:#56B4E9;stroke-width:10.00"/>
	<line x1="1866.99" y1="1702.47" x2="1914.03" y2="1758.04" stroke-linecap="round" style="stroke:#56B4E9;stroke-width:10.00"/>
	<line x1="1914.03" y1="1758.04" x2="1961.14" y2="1649.22" stroke-linecap="round" style="stroke:#56B4E9;stroke-width:10.00"/>
	<line x1="1961.14" y1="1649.22" x2="2008.26" y2="1714.59" stroke-linecap="round" style="stroke:#56B4E9;stroke-width:10.00"/>
	<line x1="2008.26" y1="1714.59" x2="2055.29" y2="1722.48" stroke-linecap="round" style="stroke:#56B4E9;stroke-width:10.00"/>
	<line x1="2055.29" y1="1722.48" x2="2102.41" y2="1667.56" stroke-linecap="round" style="stroke:#56B4E9;stroke-width:10.00"/>
	<line x1="2102.41" y1="1667.56" x2="2149.52" y2="1729.18" stroke-linecap="round" style="stroke:#56B4E9;stroke-width:10.00"/>
	<line x1="1301.85" y1="1778.92" x2="1348.96" y2="1768.88" stroke-linecap="round" style="stroke:#009E73;stroke-width:10.00"/>
	<line x1="1348.96" y1="1768.88" x2="1396.08" y2="1729.18" stroke-linecap="round" style="stroke:#009E73;stroke-width:10.00"/>
	<line x1="1396.08" y1="1729.18" x2="1443.11" y2="1747.36" stroke-linecap="round" style="stroke:#009E73;stroke-width:10.00"/>
	<line x1="1443.11" y1="1747.36" x2="1490.23" y2="1744.17" stroke-linecap="round" style="stroke:#009E73;stroke-width:10.00"/>
	<line x1="1490.23" y1="1744.17" x2="1537.34" y2="1749.99" stroke-linecap="round" style="stroke:#009E73;stroke-width:10.00"/>
	<line x1="1537.34" y1="1749.99" x2="1584.38" y2="1759.31" stroke-linecap="round" style="stroke:#009E73;stroke-width:10.00"/>
	<line x1="1584.38" y1="1759.31" x2="1631.50" y2="1767.36" stroke-linecap="round" style="stroke:#009E73;stroke-width:10.00"/>
	<line x1="1631.50" y1="1767.36" x2="1678.61" y2="1749.51" stroke-linecap="round" style="stroke:#009E73;stroke-width:10.00"/>
	<line x1="1678.61" y1="1749.51" x2="1725.65" y2="1730.77" stroke-linecap="round" style="stroke:#009E73;stroke-width:10.00"/>
	<line x1="1725.65" y1="1730.77" x2="1772.76" y2="1740.50" stroke-linecap="round" style="stroke:#009E73;stroke-width:10.00"/>
	<line x1="1772.76" y1="1740.50" x2="1819.88" y2="1718.02" stroke-linecap="round" style="stroke:#009E73;stroke-width:10.00"/>
	<line x1="1819.88" y1="1718.02" x2="1866.99" y2="1668.35" stroke-linecap="round" style="stroke:#009E73;stroke-width:10.00"/>
	<line x1="1866.99" y1="1668.35" x2="1914.03" y2="1666.60" stroke-linecap="round" style="stroke:#009E73;stroke-width:10.00"/>
	<line x1="1914.03" y1="1666.60" x2="1961.14" y2="1621.16" stroke-linecap="round" style="stroke:#009E73;stroke-width:10.00"/>
	<line x1="1961.14" y1="1621.16" x2="2008.26" y2="1669.79" stroke-linecap="round" style="stroke:#009E73;stroke-width:10.00"/>
	<line x1="2008.26" y1="1669.79" x2="2055.29" y2="1703.67" stroke-linecap="round" style="stroke:#009E73;stroke-width:10.00"/>
	<line x1="2055.29" y1="1703.67" x2="2102.41" y2="1669.71" stroke-linecap="round" style="stroke:#009E73;stroke-width:10.00"/>
	<line x1="2102.41" y1="1669.71" x2="2149.52" y2="1618.45" stroke-linecap="round" style="stroke:#009E73;stroke-width:10.00"/>
	<line x1="2149.52" y1="1618.45" x2="2196.56" y2="1636.79" stroke-linecap="round" style="stroke:#009E73;stroke-width:10.00"/>
	<line x1="2196.56" y1="1636.79" x2="2243.67" y2="1687.01" stroke-linecap="round" style="stroke:#009E73;stroke-width:10.00"/>
	<line x1="1725.65" y1="1706.30" x2="1772.76" y2="1611.28" stroke-linecap="round" style="stroke:#D55E00;stroke-width:10.00"/>
	<line x1="1772.76" y1="1611.28" x2="1819.88" y2="1637.02" stroke-linecap="round" style="stroke:#D55E00;stroke-width:10.00"/>
	<line x1="1819.88" y1="1637.02" x2="1866.99" y2="1668.11" stroke-linecap="round" style="stroke:#D55E00;stroke-width:10.00"/>
	<line x1="1866.99" y1="1668.11" x2="1914.03" y2="1638.54" stroke-linecap="round" style="stroke:#D55E00;stroke-width:10.00"/>
	<line x1="1914.03" y1="1638.54" x2="1961.14" y2="1619.73" stroke-linecap="round" style="stroke:#D55E00;stroke-width:10.00"/>
	<line x1="1961.14" y1="1619.73" x2="2008.26" y2="1617.25" stroke-linecap="round" style="stroke:#D55E00;stroke-width:10.00"/>
	<line x1="2008.26" y1="1617.25" x2="2055.29" y2="1597.09" stroke-linecap="round" style="stroke:#D55E00;stroke-width:10.00"/>
	<line x1="2055.29" y1="1597.09" x2="2102.41" y2="1618.61" stroke-linecap="round" style="stroke:#D55E00;stroke-width:10.00"/>
	<line x1="2102.41" y1="1618.61" x2="2149.52" y2="1645.16" stroke-linecap="round" style="stroke:#D55E00;stroke-width:10.00"/>
	<line x1="2149.52" y1="1645.16" x2="2196.56" y2="1642.60" stroke-linecap="round" style="stroke:#D55E00;stroke-width:10.00"/>
	<line x1="2196.56" y1="1642.60" x2="2243.67" y2="1625.47" stroke-linecap="round" style="stroke:#D55E00;stroke-width:10.00"/>
	<line x1="2055.29" y1="1616.22" x2="2102.41" y2="1620.44" stroke-linecap="round" style="stroke:#CC79A7;stroke-width:10.00"/>
	<line x1="2102.41" y1="1620.44" x2="2149.52" y2="1641.57" stroke-linecap="round" style="stroke:#CC79A7;stroke-width:10.00"/>
	<line x1="2149.52" y1="1641.57" x2="2196.56" y2="1610.40" stroke-linecap="round" style="stroke:#CC79A7;stroke-width:10.00"/>
	<line x1="2196.56" y1="1610.40" x2="2243.67" y2="1623.23" stroke-linecap="round" style="stroke:#CC79A7;stroke-width:10.00"/>
	<line x1="407.22" y1="1806.35" x2="458.16" y2="1808.98" style="stroke:#A0A0A0;stroke-width:10.00"/>
	<line x1="483.67" y1="1810.33" x2="501.37" y2="1811.29" style="stroke:#A0A0A0;stroke-width:10.00"/>
	<line x1="501.37" y1="1811.29" x2="534.61" y2="1812.41" style="stroke:#A0A0A0;stroke-width:10.00"/>
	<line x1="560.12" y1="1813.20" x2="595.52" y2="1814.40" style="stroke:#A0A0A0;stroke-width:10.00"/>
	<line x1="595.52" y1="1814.40" x2="611.14" y2="1813.28" style="stroke:#A0A0A0;stroke-width:10.00"/>
	<line x1="636.57" y1="1811.45" x2="687.44" y2="1807.86" style="stroke:#A0A0A0;stroke-width:10.00"/>
	<line x1="712.71" y1="1811.29" x2="763.09" y2="1819.10" style="stroke:#A0A0A0;stroke-width:10.00"/>
	<line x1="788.28" y1="1823.09" x2="831.01" y2="1829.70" style="stroke:#A0A0A0;stroke-width:10.00"/>
	<line x1="831.01" y1="1829.70" x2="838.83" y2="1828.91" style="stroke:#A0A0A0;stroke-width:10.00"/>
	<line x1="864.18" y1="1826.44" x2="914.96" y2="1821.33" style="stroke:#A0A0A0;stroke-width:10.00"/>
	<line x1="940.39" y1="1820.46" x2="991.41" y2="1821.02" style="stroke:#A0A0A0;stroke-width:10.00"/>
	<line x1="1016.92" y1="1821.33" x2="1019.32" y2="1821.33" style="stroke:#A0A0A0;stroke-width:10.00"/>
	<line x1="1019.32" y1="1821.33" x2="1067.95" y2="1822.69" style="stroke:#A0A0A0;stroke-width:10.00"/>
	<line x1="1093.46" y1="1823.41" x2="1113.55" y2="1823.97" style="stroke:#A0A0A0;stroke-width:10.00"/>
	<line x1="1113.55" y1="1823.97" x2="1144.00" y2="1818.86" style="stroke:#A0A0A0;stroke-width:10.00"/>
	<line x1="1169.19" y1="1814.56" x2="1207.70" y2="1808.02" style="stroke:#A0A0A0;stroke-width:10.00"/>
	<line x1="1207.70" y1="1808.02" x2="1219.58" y2="1807.22" style="stroke:#A0A0A0;stroke-width:10.00"/>
	<line x1="1245.09" y1="1805.63" x2="1295.95" y2="1802.36" style="stroke:#A0A0A0;stroke-width:10.00"/>
	<line x1="1321.46" y1="1803.00" x2="1348.96" y2="1804.43" style="stroke:#A0A0A0;stroke-width:10.00"/>
	<line x1="1348.96" y1="1804.43" x2="1372.40" y2="1802.92" style="stroke:#A0A0A0;stroke-width:10.00"/>
	<line x1="1397.91" y1="1801.32" x2="1443.11" y2="1802.28" style="stroke:#A0A0A0;stroke-width:10.00"/>
	<line x1="1443.11" y1="1802.28" x2="1448.93" y2="1802.52" style="stroke:#A0A0A0;stroke-width:10.00"/>
	<line x1="1474.36" y1="1803.48" x2="1490.23" y2="1804.12" style="stroke:#A0A0A0;stroke-width:10.00"/>
	<line x1="1490.23" y1="1804.12" x2="1525.39" y2="1802.36" style="stroke:#A0A0A0;stroke-width:10.00"/>
	<line x1="1550.90" y1="1801.80" x2="1584.38" y2="1801.96" style="stroke:#A0A0A0;stroke-width:10.00"/>
	<line x1="1584.38" y1="1801.96" x2="1601.76" y2="1799.73" style="stroke:#A0A0A0;stroke-width:10.00"/>
	<line x1="1627.03" y1="1796.38" x2="1631.50" y2="1795.82" style="stroke:#A0A0A0;stroke-width:10.00"/>
	<line x1="1631.50" y1="1795.82" x2="1677.81" y2="1791.36" style="stroke:#A0A0A0;stroke-width:10.00"/>
	<line x1="1703.08" y1="1787.93" x2="1725.65" y2="1784.74" style="stroke:#A0A0A0;stroke-width:10.00"/>
	<line x1="1725.65" y1="1784.74" x2="1748.13" y2="1767.76" style="stroke:#A0A0A0;stroke-width:10.00"/>
	<line x1="1768.54" y1="1752.38" x2="1772.76" y2="1749.19" style="stroke:#A0A0A0;stroke-width:10.00"/>
	<line x1="1772.76" y1="1749.19" x2="1817.64" y2="1740.42" style="stroke:#A0A0A0;stroke-width:10.00"/>
	<line x1="1842.84" y1="1736.83" x2="1866.99" y2="1733.40" style="stroke:#A0A0A0;stroke-width:10.00"/>
	<line x1="1866.99" y1="1733.40" x2="1893.30" y2="1729.34" style="stroke:#A0A0A0;stroke-width:10.00"/>
	<line x1="1917.69" y1="1723.36" x2="1958.43" y2="1692.67" style="stroke:#A0A0A0;stroke-width:10.00"/>
	<line x1="1980.91" y1="1700.56" x2="2008.26" y2="1714.35" style="stroke:#A0A0A0;stroke-width:10.00"/>
	<line x1="2008.26" y1="1714.35" x2="2028.67" y2="1713.55" style="stroke:#A0A0A0;stroke-width:10.00"/>
	<line x1="2054.18" y1="1712.44" x2="2055.29" y2="1712.44" style="stroke:#A0A0A0;stroke-width:10.00"/>
	<line x1="2055.29" y1="1712.44" x2="2102.41" y2="1705.34" style="stroke:#A0A0A0;stroke-width:10.00"/>
	<line x1="2102.41" y1="1705.34" x2="2104.64" y2="1705.18" style="stroke:#A0A0A0;stroke-width:10.00"/>
	<line x1="2130.15" y1="1703.99" x2="2149.52" y2="1703.03" style="stroke:#A0A0A0;stroke-width:10.00"/>
	<line x1="2149.52" y1="1703.03" x2="2181.09" y2="1703.91" style="stroke:#A0A0A0;stroke-width:10.00"/>
	<line x1="2206.60" y1="1705.18" x2="2243.67" y2="1708.37" style="stroke:#A0A0A0;stroke-width:10.00"/>
	<line x1="351.09" y1="1865.82" x2="315.70" y2="1865.82" style="stroke:#000000;stroke-width:4.00"/>
	<text x="297.92" y="1883.33" style="font-family:'Helvetica';font-size:49.99px;fill:#000000" text-anchor="end">0</text>
	<line x1="351.09" y1="1715.63" x2="315.70" y2="1715.63" style="stroke:#000000;stroke-width:4.00"/>
	<text x="297.92" y="1733.14" style="font-family:'Helvetica';font-size:49.99px;fill:#000000" text-anchor="end">.1</text>
	<line x1="351.09" y1="1565.52" x2="315.70" y2="1565.52" style="stroke:#000000;stroke-width:4.00"/>
	<text x="297.92" y="1583.03" style="font-family:'Helvetica';font-size:49.99px;fill:#000000" text-anchor="end">.2</text>
	<line x1="351.09" y1="1415.41" x2="315.70" y2="1415.41" style="stroke:#000000;stroke-width:4.00"/>
	<text x="297.92" y="1432.92" style="font-family:'Helvetica';font-size:49.99px;fill:#000000" text-anchor="end">.3</text>
	<line x1="351.09" y1="1265.22" x2="315.70" y2="1265.22" style="stroke:#000000;stroke-width:4.00"/>
	<text x="297.92" y="1282.73" style="font-family:'Helvetica';font-size:49.99px;fill:#000000" text-anchor="end">.4</text>
	<line x1="351.09" y1="1115.11" x2="315.70" y2="1115.11" style="stroke:#000000;stroke-width:4.00"/>
	<text x="297.92" y="1132.62" style="font-family:'Helvetica';font-size:49.99px;fill:#000000" text-anchor="end">.5</text>
	<line x1="351.09" y1="964.92" x2="315.70" y2="964.92" style="stroke:#000000;stroke-width:4.00"/>
	<text x="297.92" y="982.43" style="font-family:'Helvetica';font-size:49.99px;fill:#000000" text-anchor="end">.6</text>
	<line x1="351.09" y1="814.81" x2="315.70" y2="814.81" style="stroke:#000000;stroke-width:4.00"/>
	<text x="297.92" y="832.32" style="font-family:'Helvetica';font-size:49.99px;fill:#000000" text-anchor="end">.7</text>
	<line x1="351.09" y1="664.62" x2="315.70" y2="664.62" style="stroke:#000000;stroke-width:4.00"/>
	<text x="297.92" y="682.13" style="font-family:'Helvetica';font-size:49.99px;fill:#000000" text-anchor="end">.8</text>
	<line x1="351.09" y1="514.50" x2="315.70" y2="514.50" style="stroke:#000000;stroke-width:4.00"/>
	<text x="297.92" y="532.02" style="font-family:'Helvetica';font-size:49.99px;fill:#000000" text-anchor="end">.9</text>
	<line x1="351.09" y1="364.31" x2="315.70" y2="364.31" style="stroke:#000000;stroke-width:4.00"/>
	<text x="297.92" y="381.83" style="font-family:'Helvetica';font-size:49.99px;fill:#000000" text-anchor="end">1</text>
	<line x1="351.09" y1="1865.82" x2="351.09" y2="364.31" style="stroke:#000000;stroke-width:4.00"/>
	<text x="136.21" y="1076.84" style="font-family:'Helvetica';font-size:60.03px;fill:#000000" transform="rotate(-90 136.21,1076.84)" text-anchor="middle">Part-time employment</text>
	<line x1="407.22" y1="1921.94" x2="407.22" y2="1957.33" style="stroke:#000000;stroke-width:4.00"/>
	<text x="407.22" y="2009.98" style="font-family:'Helvetica';font-size:49.99px;fill:#000000" text-anchor="middle">1976</text>
	<line x1="642.63" y1="1921.94" x2="642.63" y2="1957.33" style="stroke:#000000;stroke-width:4.00"/>
	<text x="642.63" y="2009.98" style="font-family:'Helvetica';font-size:49.99px;fill:#000000" text-anchor="middle">1981</text>
	<line x1="878.13" y1="1921.94" x2="878.13" y2="1957.33" style="stroke:#000000;stroke-width:4.00"/>
	<text x="878.13" y="2009.98" style="font-family:'Helvetica';font-size:49.99px;fill:#000000" text-anchor="middle">1986</text>
	<line x1="1113.55" y1="1921.94" x2="1113.55" y2="1957.33" style="stroke:#000000;stroke-width:4.00"/>
	<text x="1113.55" y="2009.98" style="font-family:'Helvetica';font-size:49.99px;fill:#000000" text-anchor="middle">1991</text>
	<line x1="1349.04" y1="1921.94" x2="1349.04" y2="1957.33" style="stroke:#000000;stroke-width:4.00"/>
	<text x="1349.04" y="2009.98" style="font-family:'Helvetica';font-size:49.99px;fill:#000000" text-anchor="middle">1996</text>
	<line x1="1584.46" y1="1921.94" x2="1584.46" y2="1957.33" style="stroke:#000000;stroke-width:4.00"/>
	<text x="1584.46" y="2009.98" style="font-family:'Helvetica';font-size:49.99px;fill:#000000" text-anchor="middle">2001</text>
	<line x1="1819.88" y1="1921.94" x2="1819.88" y2="1957.33" style="stroke:#000000;stroke-width:4.00"/>
	<text x="1819.88" y="2009.98" style="font-family:'Helvetica';font-size:49.99px;fill:#000000" text-anchor="middle">2006</text>
	<line x1="2055.37" y1="1921.94" x2="2055.37" y2="1957.33" style="stroke:#000000;stroke-width:4.00"/>
	<text x="2055.37" y="2009.98" style="font-family:'Helvetica';font-size:49.99px;fill:#000000" text-anchor="middle">2011</text>
	<line x1="2290.79" y1="1921.94" x2="2290.79" y2="1957.33" style="stroke:#000000;stroke-width:4.00"/>
	<text x="2290.79" y="2009.98" style="font-family:'Helvetica';font-size:49.99px;fill:#000000" text-anchor="middle">2016</text>
	<line x1="407.22" y1="1921.94" x2="2290.79" y2="1921.94" style="stroke:#000000;stroke-width:4.00"/>
	<text x="1310.78" y="2152.37" style="font-family:'Helvetica';font-size:60.03px;fill:#000000" text-anchor="middle">Year</text>
	<text x="145.41" y="2396.65" style="font-family:'Helvetica';font-size:60.03px;fill:#000000">Arr. cohort: </text>
	<text x="536.36" y="2396.65" style="font-family:'Helvetica';font-size:60.03px;fill:#000000">1964-73</text>
	<text x="845.12" y="2396.65" style="font-family:'Helvetica';font-size:60.03px;fill:#000000">1974-83</text>
	<text x="1153.89" y="2396.65" style="font-family:'Helvetica';font-size:60.03px;fill:#000000">1984-93</text>
	<text x="1462.65" y="2396.65" style="font-family:'Helvetica';font-size:60.03px;fill:#000000">1994-03</text>
	<text x="1771.41" y="2396.65" style="font-family:'Helvetica';font-size:60.03px;fill:#000000">2004-10</text>
	<text x="2080.17" y="2396.65" style="font-family:'Helvetica';font-size:60.03px;fill:#000000">German</text>
	<line x1="536.36" y1="2301.32" x2="737.26" y2="2301.32" style="stroke:#E69F00;stroke-width:10.00"/>
	<line x1="845.12" y1="2301.32" x2="1046.02" y2="2301.32" style="stroke:#56B4E9;stroke-width:10.00"/>
	<line x1="1153.89" y1="2301.32" x2="1354.78" y2="2301.32" style="stroke:#009E73;stroke-width:10.00"/>
	<line x1="1462.65" y1="2301.32" x2="1663.54" y2="2301.32" style="stroke:#D55E00;stroke-width:10.00"/>
	<line x1="1771.41" y1="2301.32" x2="1972.30" y2="2301.32" style="stroke:#CC79A7;stroke-width:10.00"/>
	<line x1="2080.17" y1="2301.32" x2="2131.19" y2="2301.32" style="stroke:#A0A0A0;stroke-width:10.00"/>
	<line x1="2156.70" y1="2301.32" x2="2207.72" y2="2301.32" style="stroke:#A0A0A0;stroke-width:10.00"/>
	<line x1="2233.23" y1="2301.32" x2="2278.03" y2="2301.32" style="stroke:#A0A0A0;stroke-width:10.00"/>
	<text x="1349.04" y="239.12" style="font-family:'Helvetica';font-size:60.03px;fill:#000000" text-anchor="middle">Percent</text>
	<text x="1349.04" y="154.88" style="font-family:'Helvetica';font-size:90.01px;fill:#000000" text-anchor="middle">Part-time employment, Men</text>
</svg>
