<?xml version="1.0" encoding="UTF-8" standalone="no"?>
<!-- This is a Stata 15.1 generated SVG file (http://www.stata.com) -->

<svg version="1.1" width="3.54in" height="3.54in" viewBox="0 0 2551 2551" xmlns="http://www.w3.org/2000/svg" xmlns:xlink="http://www.w3.org/1999/xlink">
	<desc>Stata Graph - Graph</desc>
	<rect x="0" y="0" width="2551" height="2551" style="fill:#FFFFFF;stroke:none"/>
	<rect x="0.00" y="0.08" width="2551.00" height="2550.92" style="fill:#FFFFFF"/>
	<rect x="2.55" y="2.63" width="2545.90" height="2545.82" style="fill:none;stroke:#FFFFFF;stroke-width:5.10"/>
	<line x1="351.09" y1="1904.40" x2="2346.91" y2="1904.40" style="stroke:#E8E8E8;stroke-width:4.00"/>
	<line x1="351.09" y1="1711.88" x2="2346.91" y2="1711.88" style="stroke:#E8E8E8;stroke-width:4.00"/>
	<line x1="351.09" y1="1519.36" x2="2346.91" y2="1519.36" style="stroke:#E8E8E8;stroke-width:4.00"/>
	<line x1="351.09" y1="1326.84" x2="2346.91" y2="1326.84" style="stroke:#E8E8E8;stroke-width:4.00"/>
	<line x1="351.09" y1="1134.40" x2="2346.91" y2="1134.40" style="stroke:#E8E8E8;stroke-width:4.00"/>
	<line x1="351.09" y1="941.88" x2="2346.91" y2="941.88" style="stroke:#E8E8E8;stroke-width:4.00"/>
	<line x1="351.09" y1="749.36" x2="2346.91" y2="749.36" style="stroke:#E8E8E8;stroke-width:4.00"/>
	<line x1="351.09" y1="556.84" x2="2346.91" y2="556.84" style="stroke:#E8E8E8;stroke-width:4.00"/>
	<line x1="351.09" y1="364.31" x2="2346.91" y2="364.31" style="stroke:#E8E8E8;stroke-width:4.00"/>
	<line x1="407.22" y1="1960.52" x2="407.22" y2="308.19" style="stroke:#E8E8E8;stroke-width:4.00"/>
	<line x1="642.63" y1="1960.52" x2="642.63" y2="308.19" style="stroke:#E8E8E8;stroke-width:4.00"/>
	<line x1="878.13" y1="1960.52" x2="878.13" y2="308.19" style="stroke:#E8E8E8;stroke-width:4.00"/>
	<line x1="1113.55" y1="1960.52" x2="1113.55" y2="308.19" style="stroke:#E8E8E8;stroke-width:4.00"/>
	<line x1="1349.04" y1="1960.52" x2="1349.04" y2="308.19" style="stroke:#E8E8E8;stroke-width:4.00"/>
	<line x1="1584.46" y1="1960.52" x2="1584.46" y2="308.19" style="stroke:#E8E8E8;stroke-width:4.00"/>
	<line x1="1819.88" y1="1960.52" x2="1819.88" y2="308.19" style="stroke:#E8E8E8;stroke-width:4.00"/>
	<line x1="2055.37" y1="1960.52" x2="2055.37" y2="308.19" style="stroke:#E8E8E8;stroke-width:4.00"/>
	<line x1="2290.79" y1="1960.52" x2="2290.79" y2="308.19" style="stroke:#E8E8E8;stroke-width:4.00"/>
	<line x1="407.22" y1="482.22" x2="501.37" y2="461.49" stroke-linecap="round" style="stroke:#E69F00;stroke-width:10.00"/>
	<line x1="501.37" y1="461.49" x2="595.52" y2="440.13" stroke-linecap="round" style="stroke:#E69F00;stroke-width:10.00"/>
	<line x1="595.52" y1="440.13" x2="689.75" y2="537.94" stroke-linecap="round" style="stroke:#E69F00;stroke-width:10.00"/>
	<line x1="689.75" y1="537.94" x2="831.01" y2="564.41" stroke-linecap="round" style="stroke:#E69F00;stroke-width:10.00"/>
	<line x1="831.01" y1="564.41" x2="925.17" y2="573.50" stroke-linecap="round" style="stroke:#E69F00;stroke-width:10.00"/>
	<line x1="925.17" y1="573.50" x2="1019.32" y2="553.33" stroke-linecap="round" style="stroke:#E69F00;stroke-width:10.00"/>
	<line x1="1019.32" y1="553.33" x2="1113.55" y2="558.27" stroke-linecap="round" style="stroke:#E69F00;stroke-width:10.00"/>
	<line x1="1113.55" y1="558.27" x2="1207.70" y2="637.67" stroke-linecap="round" style="stroke:#E69F00;stroke-width:10.00"/>
	<line x1="1207.70" y1="637.67" x2="1301.85" y2="768.57" stroke-linecap="round" style="stroke:#E69F00;stroke-width:10.00"/>
	<line x1="1301.85" y1="768.57" x2="1348.96" y2="815.36" stroke-linecap="round" style="stroke:#E69F00;stroke-width:10.00"/>
	<line x1="1348.96" y1="815.36" x2="1396.08" y2="806.36" stroke-linecap="round" style="stroke:#E69F00;stroke-width:10.00"/>
	<line x1="1396.08" y1="806.36" x2="1443.11" y2="827.24" stroke-linecap="round" style="stroke:#E69F00;stroke-width:10.00"/>
	<line x1="1443.11" y1="827.24" x2="1490.23" y2="818.63" stroke-linecap="round" style="stroke:#E69F00;stroke-width:10.00"/>
	<line x1="1490.23" y1="818.63" x2="1537.34" y2="821.98" stroke-linecap="round" style="stroke:#E69F00;stroke-width:10.00"/>
	<line x1="1537.34" y1="821.98" x2="1584.38" y2="820.23" stroke-linecap="round" style="stroke:#E69F00;stroke-width:10.00"/>
	<line x1="1584.38" y1="820.23" x2="1631.50" y2="835.93" stroke-linecap="round" style="stroke:#E69F00;stroke-width:10.00"/>
	<line x1="1631.50" y1="835.93" x2="1678.61" y2="860.25" stroke-linecap="round" style="stroke:#E69F00;stroke-width:10.00"/>
	<line x1="831.01" y1="816.00" x2="925.17" y2="743.38" stroke-linecap="round" style="stroke:#56B4E9;stroke-width:10.00"/>
	<line x1="925.17" y1="743.38" x2="1019.32" y2="696.58" stroke-linecap="round" style="stroke:#56B4E9;stroke-width:10.00"/>
	<line x1="1019.32" y1="696.58" x2="1113.55" y2="600.60" stroke-linecap="round" style="stroke:#56B4E9;stroke-width:10.00"/>
	<line x1="1113.55" y1="600.60" x2="1207.70" y2="701.60" stroke-linecap="round" style="stroke:#56B4E9;stroke-width:10.00"/>
	<line x1="1207.70" y1="701.60" x2="1301.85" y2="694.83" stroke-linecap="round" style="stroke:#56B4E9;stroke-width:10.00"/>
	<line x1="1301.85" y1="694.83" x2="1348.96" y2="711.01" stroke-linecap="round" style="stroke:#56B4E9;stroke-width:10.00"/>
	<line x1="1348.96" y1="711.01" x2="1396.08" y2="719.78" stroke-linecap="round" style="stroke:#56B4E9;stroke-width:10.00"/>
	<line x1="1396.08" y1="719.78" x2="1443.11" y2="695.94" stroke-linecap="round" style="stroke:#56B4E9;stroke-width:10.00"/>
	<line x1="1443.11" y1="695.94" x2="1490.23" y2="779.57" stroke-linecap="round" style="stroke:#56B4E9;stroke-width:10.00"/>
	<line x1="1490.23" y1="779.57" x2="1537.34" y2="702.40" stroke-linecap="round" style="stroke:#56B4E9;stroke-width:10.00"/>
	<line x1="1537.34" y1="702.40" x2="1584.38" y2="691.64" stroke-linecap="round" style="stroke:#56B4E9;stroke-width:10.00"/>
	<line x1="1584.38" y1="691.64" x2="1631.50" y2="737.80" stroke-linecap="round" style="stroke:#56B4E9;stroke-width:10.00"/>
	<line x1="1631.50" y1="737.80" x2="1678.61" y2="771.28" stroke-linecap="round" style="stroke:#56B4E9;stroke-width:10.00"/>
	<line x1="1678.61" y1="771.28" x2="1725.65" y2="831.79" stroke-linecap="round" style="stroke:#56B4E9;stroke-width:10.00"/>
	<line x1="1725.65" y1="831.79" x2="1772.76" y2="804.92" stroke-linecap="round" style="stroke:#56B4E9;stroke-width:10.00"/>
	<line x1="1772.76" y1="804.92" x2="1819.88" y2="801.49" stroke-linecap="round" style="stroke:#56B4E9;stroke-width:10.00"/>
	<line x1="1819.88" y1="801.49" x2="1866.99" y2="777.26" stroke-linecap="round" style="stroke:#56B4E9;stroke-width:10.00"/>
	<line x1="1866.99" y1="777.26" x2="1914.03" y2="830.19" stroke-linecap="round" style="stroke:#56B4E9;stroke-width:10.00"/>
	<line x1="1914.03" y1="830.19" x2="1961.14" y2="807.79" stroke-linecap="round" style="stroke:#56B4E9;stroke-width:10.00"/>
	<line x1="1961.14" y1="807.79" x2="2008.26" y2="825.33" stroke-linecap="round" style="stroke:#56B4E9;stroke-width:10.00"/>
	<line x1="2008.26" y1="825.33" x2="2055.29" y2="792.01" stroke-linecap="round" style="stroke:#56B4E9;stroke-width:10.00"/>
	<line x1="2055.29" y1="792.01" x2="2102.41" y2="845.66" stroke-linecap="round" style="stroke:#56B4E9;stroke-width:10.00"/>
	<line x1="2102.41" y1="845.66" x2="2149.52" y2="847.73" stroke-linecap="round" style="stroke:#56B4E9;stroke-width:10.00"/>
	<line x1="1301.85" y1="916.85" x2="1348.96" y2="949.53" stroke-linecap="round" style="stroke:#009E73;stroke-width:10.00"/>
	<line x1="1348.96" y1="949.53" x2="1396.08" y2="949.13" stroke-linecap="round" style="stroke:#009E73;stroke-width:10.00"/>
	<line x1="1396.08" y1="949.13" x2="1443.11" y2="866.22" stroke-linecap="round" style="stroke:#009E73;stroke-width:10.00"/>
	<line x1="1443.11" y1="866.22" x2="1490.23" y2="810.82" stroke-linecap="round" style="stroke:#009E73;stroke-width:10.00"/>
	<line x1="1490.23" y1="810.82" x2="1537.34" y2="727.99" stroke-linecap="round" style="stroke:#009E73;stroke-width:10.00"/>
	<line x1="1537.34" y1="727.99" x2="1584.38" y2="719.30" stroke-linecap="round" style="stroke:#009E73;stroke-width:10.00"/>
	<line x1="1584.38" y1="719.30" x2="1631.50" y2="754.06" stroke-linecap="round" style="stroke:#009E73;stroke-width:10.00"/>
	<line x1="1631.50" y1="754.06" x2="1678.61" y2="793.36" stroke-linecap="round" style="stroke:#009E73;stroke-width:10.00"/>
	<line x1="1678.61" y1="793.36" x2="1725.65" y2="838.48" stroke-linecap="round" style="stroke:#009E73;stroke-width:10.00"/>
	<line x1="1725.65" y1="838.48" x2="1772.76" y2="837.13" stroke-linecap="round" style="stroke:#009E73;stroke-width:10.00"/>
	<line x1="1772.76" y1="837.13" x2="1819.88" y2="799.50" stroke-linecap="round" style="stroke:#009E73;stroke-width:10.00"/>
	<line x1="1819.88" y1="799.50" x2="1866.99" y2="790.09" stroke-linecap="round" style="stroke:#009E73;stroke-width:10.00"/>
	<line x1="1866.99" y1="790.09" x2="1914.03" y2="760.52" stroke-linecap="round" style="stroke:#009E73;stroke-width:10.00"/>
	<line x1="1914.03" y1="760.52" x2="1961.14" y2="757.89" stroke-linecap="round" style="stroke:#009E73;stroke-width:10.00"/>
	<line x1="1961.14" y1="757.89" x2="2008.26" y2="753.98" stroke-linecap="round" style="stroke:#009E73;stroke-width:10.00"/>
	<line x1="2008.26" y1="753.98" x2="2055.29" y2="726.08" stroke-linecap="round" style="stroke:#009E73;stroke-width:10.00"/>
	<line x1="2055.29" y1="726.08" x2="2102.41" y2="742.66" stroke-linecap="round" style="stroke:#009E73;stroke-width:10.00"/>
	<line x1="2102.41" y1="742.66" x2="2149.52" y2="723.93" stroke-linecap="round" style="stroke:#009E73;stroke-width:10.00"/>
	<line x1="2149.52" y1="723.93" x2="2196.56" y2="738.20" stroke-linecap="round" style="stroke:#009E73;stroke-width:10.00"/>
	<line x1="2196.56" y1="738.20" x2="2243.67" y2="745.61" stroke-linecap="round" style="stroke:#009E73;stroke-width:10.00"/>
	<line x1="1725.65" y1="994.09" x2="1772.76" y2="959.73" stroke-linecap="round" style="stroke:#D55E00;stroke-width:10.00"/>
	<line x1="1772.76" y1="959.73" x2="1819.88" y2="927.93" stroke-linecap="round" style="stroke:#D55E00;stroke-width:10.00"/>
	<line x1="1819.88" y1="927.93" x2="1866.99" y2="860.56" stroke-linecap="round" style="stroke:#D55E00;stroke-width:10.00"/>
	<line x1="1866.99" y1="860.56" x2="1914.03" y2="811.86" stroke-linecap="round" style="stroke:#D55E00;stroke-width:10.00"/>
	<line x1="1914.03" y1="811.86" x2="1961.14" y2="800.62" stroke-linecap="round" style="stroke:#D55E00;stroke-width:10.00"/>
	<line x1="1961.14" y1="800.62" x2="2008.26" y2="792.56" stroke-linecap="round" style="stroke:#D55E00;stroke-width:10.00"/>
	<line x1="2008.26" y1="792.56" x2="2055.29" y2="699.93" stroke-linecap="round" style="stroke:#D55E00;stroke-width:10.00"/>
	<line x1="2055.29" y1="699.93" x2="2102.41" y2="658.00" stroke-linecap="round" style="stroke:#D55E00;stroke-width:10.00"/>
	<line x1="2102.41" y1="658.00" x2="2149.52" y2="684.15" stroke-linecap="round" style="stroke:#D55E00;stroke-width:10.00"/>
	<line x1="2149.52" y1="684.15" x2="2196.56" y2="699.29" stroke-linecap="round" style="stroke:#D55E00;stroke-width:10.00"/>
	<line x1="2196.56" y1="699.29" x2="2243.67" y2="640.30" stroke-linecap="round" style="stroke:#D55E00;stroke-width:10.00"/>
	<line x1="2055.29" y1="723.85" x2="2102.41" y2="691.40" stroke-linecap="round" style="stroke:#CC79A7;stroke-width:10.00"/>
	<line x1="2102.41" y1="691.40" x2="2149.52" y2="729.35" stroke-linecap="round" style="stroke:#CC79A7;stroke-width:10.00"/>
	<line x1="2149.52" y1="729.35" x2="2196.56" y2="706.07" stroke-linecap="round" style="stroke:#CC79A7;stroke-width:10.00"/>
	<line x1="2196.56" y1="706.07" x2="2243.67" y2="678.41" stroke-linecap="round" style="stroke:#CC79A7;stroke-width:10.00"/>
	<line x1="407.22" y1="471.62" x2="458.16" y2="468.75" style="stroke:#A0A0A0;stroke-width:10.00"/>
	<line x1="483.67" y1="467.23" x2="501.37" y2="466.27" style="stroke:#A0A0A0;stroke-width:10.00"/>
	<line x1="501.37" y1="466.27" x2="534.61" y2="464.84" style="stroke:#A0A0A0;stroke-width:10.00"/>
	<line x1="560.12" y1="463.80" x2="595.52" y2="462.29" style="stroke:#A0A0A0;stroke-width:10.00"/>
	<line x1="595.52" y1="462.29" x2="609.95" y2="468.03" style="stroke:#A0A0A0;stroke-width:10.00"/>
	<line x1="633.70" y1="477.52" x2="681.14" y2="496.41" style="stroke:#A0A0A0;stroke-width:10.00"/>
	<line x1="705.29" y1="504.46" x2="754.24" y2="518.89" style="stroke:#A0A0A0;stroke-width:10.00"/>
	<line x1="778.72" y1="526.06" x2="827.67" y2="540.57" style="stroke:#A0A0A0;stroke-width:10.00"/>
	<line x1="852.54" y1="545.91" x2="902.60" y2="556.12" style="stroke:#A0A0A0;stroke-width:10.00"/>
	<line x1="927.56" y1="560.26" x2="977.94" y2="552.05" style="stroke:#A0A0A0;stroke-width:10.00"/>
	<line x1="1003.05" y1="547.99" x2="1019.32" y2="545.36" style="stroke:#A0A0A0;stroke-width:10.00"/>
	<line x1="1019.32" y1="545.36" x2="1053.12" y2="538.02" style="stroke:#A0A0A0;stroke-width:10.00"/>
	<line x1="1078.07" y1="532.60" x2="1113.55" y2="524.87" style="stroke:#A0A0A0;stroke-width:10.00"/>
	<line x1="1113.55" y1="524.87" x2="1127.58" y2="529.25" style="stroke:#A0A0A0;stroke-width:10.00"/>
	<line x1="1151.97" y1="536.75" x2="1200.68" y2="551.89" style="stroke:#A0A0A0;stroke-width:10.00"/>
	<line x1="1225.63" y1="556.84" x2="1276.02" y2="564.65" style="stroke:#A0A0A0;stroke-width:10.00"/>
	<line x1="1301.21" y1="568.55" x2="1301.85" y2="568.63" style="stroke:#A0A0A0;stroke-width:10.00"/>
	<line x1="1301.85" y1="568.63" x2="1348.96" y2="580.43" style="stroke:#A0A0A0;stroke-width:10.00"/>
	<line x1="1348.96" y1="580.43" x2="1350.80" y2="580.67" style="stroke:#A0A0A0;stroke-width:10.00"/>
	<line x1="1376.15" y1="583.94" x2="1396.08" y2="586.49" style="stroke:#A0A0A0;stroke-width:10.00"/>
	<line x1="1396.08" y1="586.49" x2="1426.21" y2="579.48" style="stroke:#A0A0A0;stroke-width:10.00"/>
	<line x1="1451.01" y1="573.66" x2="1490.23" y2="564.25" style="stroke:#A0A0A0;stroke-width:10.00"/>
	<line x1="1490.23" y1="564.25" x2="1500.59" y2="561.62" style="stroke:#A0A0A0;stroke-width:10.00"/>
	<line x1="1525.39" y1="555.56" x2="1537.34" y2="552.53" style="stroke:#A0A0A0;stroke-width:10.00"/>
	<line x1="1537.34" y1="552.53" x2="1575.85" y2="556.60" style="stroke:#A0A0A0;stroke-width:10.00"/>
	<line x1="1599.69" y1="564.57" x2="1631.50" y2="579.24" style="stroke:#A0A0A0;stroke-width:10.00"/>
	<line x1="1631.50" y1="579.24" x2="1646.32" y2="585.22" style="stroke:#A0A0A0;stroke-width:10.00"/>
	<line x1="1670.00" y1="594.78" x2="1678.61" y2="598.29" style="stroke:#A0A0A0;stroke-width:10.00"/>
	<line x1="1678.61" y1="598.29" x2="1717.51" y2="613.28" style="stroke:#A0A0A0;stroke-width:10.00"/>
	<line x1="1742.39" y1="614.87" x2="1772.76" y2="612.16" style="stroke:#A0A0A0;stroke-width:10.00"/>
	<line x1="1772.76" y1="612.16" x2="1792.29" y2="605.70" style="stroke:#A0A0A0;stroke-width:10.00"/>
	<line x1="1816.53" y1="597.73" x2="1819.88" y2="596.62" style="stroke:#A0A0A0;stroke-width:10.00"/>
	<line x1="1819.88" y1="596.62" x2="1861.97" y2="574.53" style="stroke:#A0A0A0;stroke-width:10.00"/>
	<line x1="1886.60" y1="568.55" x2="1914.03" y2="563.77" style="stroke:#A0A0A0;stroke-width:10.00"/>
	<line x1="1914.03" y1="563.77" x2="1935.79" y2="571.82" style="stroke:#A0A0A0;stroke-width:10.00"/>
	<line x1="1959.63" y1="580.75" x2="1961.14" y2="581.31" style="stroke:#A0A0A0;stroke-width:10.00"/>
	<line x1="1961.14" y1="581.31" x2="2008.26" y2="580.11" style="stroke:#A0A0A0;stroke-width:10.00"/>
	<line x1="2008.26" y1="580.11" x2="2010.41" y2="579.24" style="stroke:#A0A0A0;stroke-width:10.00"/>
	<line x1="2034.41" y1="570.55" x2="2055.29" y2="562.97" style="stroke:#A0A0A0;stroke-width:10.00"/>
	<line x1="2055.29" y1="562.97" x2="2083.67" y2="557.95" style="stroke:#A0A0A0;stroke-width:10.00"/>
	<line x1="2108.79" y1="555.56" x2="2149.52" y2="561.70" style="stroke:#A0A0A0;stroke-width:10.00"/>
	<line x1="2149.52" y1="561.70" x2="2159.33" y2="562.18" style="stroke:#A0A0A0;stroke-width:10.00"/>
	<line x1="2184.84" y1="563.53" x2="2196.56" y2="564.09" style="stroke:#A0A0A0;stroke-width:10.00"/>
	<line x1="2196.56" y1="564.09" x2="2235.54" y2="559.15" style="stroke:#A0A0A0;stroke-width:10.00"/>
	<line x1="351.09" y1="1904.40" x2="315.70" y2="1904.40" style="stroke:#000000;stroke-width:4.00"/>
	<text x="297.92" y="1921.92" style="font-family:'Helvetica';font-size:49.99px;fill:#000000" text-anchor="end">.2</text>
	<line x1="351.09" y1="1711.88" x2="315.70" y2="1711.88" style="stroke:#000000;stroke-width:4.00"/>
	<text x="297.92" y="1729.39" style="font-family:'Helvetica';font-size:49.99px;fill:#000000" text-anchor="end">.3</text>
	<line x1="351.09" y1="1519.36" x2="315.70" y2="1519.36" style="stroke:#000000;stroke-width:4.00"/>
	<text x="297.92" y="1536.87" style="font-family:'Helvetica';font-size:49.99px;fill:#000000" text-anchor="end">.4</text>
	<line x1="351.09" y1="1326.84" x2="315.70" y2="1326.84" style="stroke:#000000;stroke-width:4.00"/>
	<text x="297.92" y="1344.35" style="font-family:'Helvetica';font-size:49.99px;fill:#000000" text-anchor="end">.5</text>
	<line x1="351.09" y1="1134.40" x2="315.70" y2="1134.40" style="stroke:#000000;stroke-width:4.00"/>
	<text x="297.92" y="1151.91" style="font-family:'Helvetica';font-size:49.99px;fill:#000000" text-anchor="end">.6</text>
	<line x1="351.09" y1="941.88" x2="315.70" y2="941.88" style="stroke:#000000;stroke-width:4.00"/>
	<text x="297.92" y="959.39" style="font-family:'Helvetica';font-size:49.99px;fill:#000000" text-anchor="end">.7</text>
	<line x1="351.09" y1="749.36" x2="315.70" y2="749.36" style="stroke:#000000;stroke-width:4.00"/>
	<text x="297.92" y="766.87" style="font-family:'Helvetica';font-size:49.99px;fill:#000000" text-anchor="end">.8</text>
	<line x1="351.09" y1="556.84" x2="315.70" y2="556.84" style="stroke:#000000;stroke-width:4.00"/>
	<text x="297.92" y="574.35" style="font-family:'Helvetica';font-size:49.99px;fill:#000000" text-anchor="end">.9</text>
	<line x1="351.09" y1="364.31" x2="315.70" y2="364.31" style="stroke:#000000;stroke-width:4.00"/>
	<text x="297.92" y="381.83" style="font-family:'Helvetica';font-size:49.99px;fill:#000000" text-anchor="end">1</text>
	<line x1="351.09" y1="1904.40" x2="351.09" y2="364.31" style="stroke:#000000;stroke-width:4.00"/>
	<text x="136.21" y="1096.13" style="font-family:'Helvetica';font-size:60.03px;fill:#000000" transform="rotate(-90 136.21,1096.13)" text-anchor="middle">Employment</text>
	<line x1="407.22" y1="1960.52" x2="407.22" y2="1995.92" style="stroke:#000000;stroke-width:4.00"/>
	<text x="407.22" y="2048.56" style="font-family:'Helvetica';font-size:49.99px;fill:#000000" text-anchor="middle">1976</text>
	<line x1="642.63" y1="1960.52" x2="642.63" y2="1995.92" style="stroke:#000000;stroke-width:4.00"/>
	<text x="642.63" y="2048.56" style="font-family:'Helvetica';font-size:49.99px;fill:#000000" text-anchor="middle">1981</text>
	<line x1="878.13" y1="1960.52" x2="878.13" y2="1995.92" style="stroke:#000000;stroke-width:4.00"/>
	<text x="878.13" y="2048.56" style="font-family:'Helvetica';font-size:49.99px;fill:#000000" text-anchor="middle">1986</text>
	<line x1="1113.55" y1="1960.52" x2="1113.55" y2="1995.92" style="stroke:#000000;stroke-width:4.00"/>
	<text x="1113.55" y="2048.56" style="font-family:'Helvetica';font-size:49.99px;fill:#000000" text-anchor="middle">1991</text>
	<line x1="1349.04" y1="1960.52" x2="1349.04" y2="1995.92" style="stroke:#000000;stroke-width:4.00"/>
	<text x="1349.04" y="2048.56" style="font-family:'Helvetica';font-size:49.99px;fill:#000000" text-anchor="middle">1996</text>
	<line x1="1584.46" y1="1960.52" x2="1584.46" y2="1995.92" style="stroke:#000000;stroke-width:4.00"/>
	<text x="1584.46" y="2048.56" style="font-family:'Helvetica';font-size:49.99px;fill:#000000" text-anchor="middle">2001</text>
	<line x1="1819.88" y1="1960.52" x2="1819.88" y2="1995.92" style="stroke:#000000;stroke-width:4.00"/>
	<text x="1819.88" y="2048.56" style="font-family:'Helvetica';font-size:49.99px;fill:#000000" text-anchor="middle">2006</text>
	<line x1="2055.37" y1="1960.52" x2="2055.37" y2="1995.92" style="stroke:#000000;stroke-width:4.00"/>
	<text x="2055.37" y="2048.56" style="font-family:'Helvetica';font-size:49.99px;fill:#000000" text-anchor="middle">2011</text>
	<line x1="2290.79" y1="1960.52" x2="2290.79" y2="1995.92" style="stroke:#000000;stroke-width:4.00"/>
	<text x="2290.79" y="2048.56" style="font-family:'Helvetica';font-size:49.99px;fill:#000000" text-anchor="middle">2016</text>
	<line x1="407.22" y1="1960.52" x2="2290.79" y2="1960.52" style="stroke:#000000;stroke-width:4.00"/>
	<text x="1310.78" y="2190.96" style="font-family:'Helvetica';font-size:60.03px;fill:#000000" text-anchor="middle">Year</text>
	<text x="145.41" y="2396.65" style="font-family:'Helvetica';font-size:60.03px;fill:#000000">Arr. cohort: </text>
	<text x="536.36" y="2396.65" style="font-family:'Helvetica';font-size:60.03px;fill:#000000">1964-73</text>
	<text x="845.12" y="2396.65" style="font-family:'Helvetica';font-size:60.03px;fill:#000000">1974-83</text>
	<text x="1153.89" y="2396.65" style="font-family:'Helvetica';font-size:60.03px;fill:#000000">1984-93</text>
	<text x="1462.65" y="2396.65" style="font-family:'Helvetica';font-size:60.03px;fill:#000000">1994-03</text>
	<text x="1771.41" y="2396.65" style="font-family:'Helvetica';font-size:60.03px;fill:#000000">2004-10</text>
	<text x="2080.17" y="2396.65" style="font-family:'Helvetica';font-size:60.03px;fill:#000000">German</text>
	<line x1="536.36" y1="2320.61" x2="737.26" y2="2320.61" style="stroke:#E69F00;stroke-width:10.00"/>
	<line x1="845.12" y1="2320.61" x2="1046.02" y2="2320.61" style="stroke:#56B4E9;stroke-width:10.00"/>
	<line x1="1153.89" y1="2320.61" x2="1354.78" y2="2320.61" style="stroke:#009E73;stroke-width:10.00"/>
	<line x1="1462.65" y1="2320.61" x2="1663.54" y2="2320.61" style="stroke:#D55E00;stroke-width:10.00"/>
	<line x1="1771.41" y1="2320.61" x2="1972.30" y2="2320.61" style="stroke:#CC79A7;stroke-width:10.00"/>
	<line x1="2080.17" y1="2320.61" x2="2131.19" y2="2320.61" style="stroke:#A0A0A0;stroke-width:10.00"/>
	<line x1="2156.70" y1="2320.61" x2="2207.72" y2="2320.61" style="stroke:#A0A0A0;stroke-width:10.00"/>
	<line x1="2233.23" y1="2320.61" x2="2278.03" y2="2320.61" style="stroke:#A0A0A0;stroke-width:10.00"/>
	<text x="1349.04" y="239.12" style="font-family:'Helvetica';font-size:60.03px;fill:#000000" text-anchor="middle">Means</text>
	<text x="1349.04" y="154.88" style="font-family:'Helvetica';font-size:90.01px;fill:#000000" text-anchor="middle">Employment, Men</text>
</svg>
