<?xml version="1.0" encoding="UTF-8" standalone="no"?>
<!-- This is a Stata 15.1 generated SVG file (http://www.stata.com) -->

<svg version="1.1" width="3.54in" height="3.54in" viewBox="0 0 2551 2551" xmlns="http://www.w3.org/2000/svg" xmlns:xlink="http://www.w3.org/1999/xlink">
	<desc>Stata Graph - Graph</desc>
	<rect x="0" y="0" width="2551" height="2551" style="fill:#FFFFFF;stroke:none"/>
	<rect x="0.00" y="0.08" width="2551.00" height="2550.92" style="fill:#FFFFFF"/>
	<rect x="2.55" y="2.63" width="2545.90" height="2545.82" style="fill:none;stroke:#FFFFFF;stroke-width:5.10"/>
	<line x1="394.86" y1="1865.82" x2="2346.91" y2="1865.82" style="stroke:#E8E8E8;stroke-width:4.00"/>
	<line x1="394.86" y1="1704.55" x2="2346.91" y2="1704.55" style="stroke:#E8E8E8;stroke-width:4.00"/>
	<line x1="394.86" y1="1543.28" x2="2346.91" y2="1543.28" style="stroke:#E8E8E8;stroke-width:4.00"/>
	<line x1="394.86" y1="1382.08" x2="2346.91" y2="1382.08" style="stroke:#E8E8E8;stroke-width:4.00"/>
	<line x1="394.86" y1="1220.81" x2="2346.91" y2="1220.81" style="stroke:#E8E8E8;stroke-width:4.00"/>
	<line x1="394.86" y1="1059.54" x2="2346.91" y2="1059.54" style="stroke:#E8E8E8;stroke-width:4.00"/>
	<line x1="394.86" y1="898.35" x2="2346.91" y2="898.35" style="stroke:#E8E8E8;stroke-width:4.00"/>
	<line x1="394.86" y1="737.08" x2="2346.91" y2="737.08" style="stroke:#E8E8E8;stroke-width:4.00"/>
	<line x1="394.86" y1="575.81" x2="2346.91" y2="575.81" style="stroke:#E8E8E8;stroke-width:4.00"/>
	<line x1="394.86" y1="414.54" x2="2346.91" y2="414.54" style="stroke:#E8E8E8;stroke-width:4.00"/>
	<line x1="394.86" y1="253.35" x2="2346.91" y2="253.35" style="stroke:#E8E8E8;stroke-width:4.00"/>
	<line x1="450.98" y1="1921.94" x2="450.98" y2="197.22" style="stroke:#E8E8E8;stroke-width:4.00"/>
	<line x1="639.68" y1="1921.94" x2="639.68" y2="197.22" style="stroke:#E8E8E8;stroke-width:4.00"/>
	<line x1="875.58" y1="1921.94" x2="875.58" y2="197.22" style="stroke:#E8E8E8;stroke-width:4.00"/>
	<line x1="1111.39" y1="1921.94" x2="1111.39" y2="197.22" style="stroke:#E8E8E8;stroke-width:4.00"/>
	<line x1="1347.29" y1="1921.94" x2="1347.29" y2="197.22" style="stroke:#E8E8E8;stroke-width:4.00"/>
	<line x1="1583.18" y1="1921.94" x2="1583.18" y2="197.22" style="stroke:#E8E8E8;stroke-width:4.00"/>
	<line x1="1819.08" y1="1921.94" x2="1819.08" y2="197.22" style="stroke:#E8E8E8;stroke-width:4.00"/>
	<line x1="2054.89" y1="1921.94" x2="2054.89" y2="197.22" style="stroke:#E8E8E8;stroke-width:4.00"/>
	<line x1="2290.79" y1="1921.94" x2="2290.79" y2="197.22" style="stroke:#E8E8E8;stroke-width:4.00"/>
	<line x1="450.90" y1="1828.67" x2="545.29" y2="1827.31" stroke-linecap="round" style="stroke:#E69F00;stroke-width:10.00"/>
	<line x1="545.29" y1="1827.31" x2="639.60" y2="1839.27" stroke-linecap="round" style="stroke:#E69F00;stroke-width:10.00"/>
	<line x1="639.60" y1="1839.27" x2="733.99" y2="1817.91" stroke-linecap="round" style="stroke:#E69F00;stroke-width:10.00"/>
	<line x1="733.99" y1="1817.91" x2="875.50" y2="1836.80" stroke-linecap="round" style="stroke:#E69F00;stroke-width:10.00"/>
	<line x1="875.50" y1="1836.80" x2="969.89" y2="1828.83" stroke-linecap="round" style="stroke:#E69F00;stroke-width:10.00"/>
	<line x1="969.89" y1="1828.83" x2="1064.20" y2="1840.15" stroke-linecap="round" style="stroke:#E69F00;stroke-width:10.00"/>
	<line x1="1064.20" y1="1840.15" x2="1158.59" y2="1841.42" stroke-linecap="round" style="stroke:#E69F00;stroke-width:10.00"/>
	<line x1="1158.59" y1="1841.42" x2="1252.90" y2="1780.92" stroke-linecap="round" style="stroke:#E69F00;stroke-width:10.00"/>
	<line x1="1252.90" y1="1780.92" x2="1347.29" y2="1812.09" stroke-linecap="round" style="stroke:#E69F00;stroke-width:10.00"/>
	<line x1="1347.29" y1="1812.09" x2="1394.40" y2="1813.20" stroke-linecap="round" style="stroke:#E69F00;stroke-width:10.00"/>
	<line x1="1394.40" y1="1813.20" x2="1441.60" y2="1804.19" stroke-linecap="round" style="stroke:#E69F00;stroke-width:10.00"/>
	<line x1="1441.60" y1="1804.19" x2="1488.79" y2="1811.85" stroke-linecap="round" style="stroke:#E69F00;stroke-width:10.00"/>
	<line x1="1488.79" y1="1811.85" x2="1535.99" y2="1820.30" stroke-linecap="round" style="stroke:#E69F00;stroke-width:10.00"/>
	<line x1="1535.99" y1="1820.30" x2="1583.10" y2="1817.91" stroke-linecap="round" style="stroke:#E69F00;stroke-width:10.00"/>
	<line x1="1583.10" y1="1817.91" x2="1630.30" y2="1828.67" stroke-linecap="round" style="stroke:#E69F00;stroke-width:10.00"/>
	<line x1="1630.30" y1="1828.67" x2="1677.49" y2="1802.12" stroke-linecap="round" style="stroke:#E69F00;stroke-width:10.00"/>
	<line x1="1677.49" y1="1802.12" x2="1724.69" y2="1810.25" stroke-linecap="round" style="stroke:#E69F00;stroke-width:10.00"/>
	<line x1="875.50" y1="1788.17" x2="969.89" y2="1802.92" stroke-linecap="round" style="stroke:#56B4E9;stroke-width:10.00"/>
	<line x1="969.89" y1="1802.92" x2="1064.20" y2="1806.43" stroke-linecap="round" style="stroke:#56B4E9;stroke-width:10.00"/>
	<line x1="1064.20" y1="1806.43" x2="1158.59" y2="1804.83" stroke-linecap="round" style="stroke:#56B4E9;stroke-width:10.00"/>
	<line x1="1158.59" y1="1804.83" x2="1252.90" y2="1780.92" stroke-linecap="round" style="stroke:#56B4E9;stroke-width:10.00"/>
	<line x1="1252.90" y1="1780.92" x2="1347.29" y2="1790.64" stroke-linecap="round" style="stroke:#56B4E9;stroke-width:10.00"/>
	<line x1="1347.29" y1="1790.64" x2="1394.40" y2="1746.80" stroke-linecap="round" style="stroke:#56B4E9;stroke-width:10.00"/>
	<line x1="1394.40" y1="1746.80" x2="1441.60" y2="1781.63" stroke-linecap="round" style="stroke:#56B4E9;stroke-width:10.00"/>
	<line x1="1441.60" y1="1781.63" x2="1488.79" y2="1771.99" stroke-linecap="round" style="stroke:#56B4E9;stroke-width:10.00"/>
	<line x1="1488.79" y1="1771.99" x2="1535.99" y2="1766.33" stroke-linecap="round" style="stroke:#56B4E9;stroke-width:10.00"/>
	<line x1="1535.99" y1="1766.33" x2="1583.10" y2="1802.28" stroke-linecap="round" style="stroke:#56B4E9;stroke-width:10.00"/>
	<line x1="1583.10" y1="1802.28" x2="1630.30" y2="1781.16" stroke-linecap="round" style="stroke:#56B4E9;stroke-width:10.00"/>
	<line x1="1630.30" y1="1781.16" x2="1677.49" y2="1766.65" stroke-linecap="round" style="stroke:#56B4E9;stroke-width:10.00"/>
	<line x1="1677.49" y1="1766.65" x2="1724.69" y2="1766.81" stroke-linecap="round" style="stroke:#56B4E9;stroke-width:10.00"/>
	<line x1="1724.69" y1="1766.81" x2="1771.80" y2="1755.41" stroke-linecap="round" style="stroke:#56B4E9;stroke-width:10.00"/>
	<line x1="1771.80" y1="1755.41" x2="1819.00" y2="1698.65" stroke-linecap="round" style="stroke:#56B4E9;stroke-width:10.00"/>
	<line x1="1819.00" y1="1698.65" x2="1866.19" y2="1663.33" stroke-linecap="round" style="stroke:#56B4E9;stroke-width:10.00"/>
	<line x1="1866.19" y1="1663.33" x2="1913.39" y2="1690.44" stroke-linecap="round" style="stroke:#56B4E9;stroke-width:10.00"/>
	<line x1="1913.39" y1="1690.44" x2="1960.50" y2="1750.15" stroke-linecap="round" style="stroke:#56B4E9;stroke-width:10.00"/>
	<line x1="1960.50" y1="1750.15" x2="2007.70" y2="1633.20" stroke-linecap="round" style="stroke:#56B4E9;stroke-width:10.00"/>
	<line x1="2007.70" y1="1633.20" x2="2054.89" y2="1703.43" stroke-linecap="round" style="stroke:#56B4E9;stroke-width:10.00"/>
	<line x1="2054.89" y1="1703.43" x2="2102.09" y2="1711.88" stroke-linecap="round" style="stroke:#56B4E9;stroke-width:10.00"/>
	<line x1="2102.09" y1="1711.88" x2="2149.20" y2="1652.89" stroke-linecap="round" style="stroke:#56B4E9;stroke-width:10.00"/>
	<line x1="1347.29" y1="1772.47" x2="1394.40" y2="1761.70" stroke-linecap="round" style="stroke:#009E73;stroke-width:10.00"/>
	<line x1="1394.40" y1="1761.70" x2="1441.60" y2="1719.06" stroke-linecap="round" style="stroke:#009E73;stroke-width:10.00"/>
	<line x1="1441.60" y1="1719.06" x2="1488.79" y2="1738.59" stroke-linecap="round" style="stroke:#009E73;stroke-width:10.00"/>
	<line x1="1488.79" y1="1738.59" x2="1535.99" y2="1735.16" stroke-linecap="round" style="stroke:#009E73;stroke-width:10.00"/>
	<line x1="1535.99" y1="1735.16" x2="1583.10" y2="1741.46" stroke-linecap="round" style="stroke:#009E73;stroke-width:10.00"/>
	<line x1="1583.10" y1="1741.46" x2="1630.30" y2="1751.42" stroke-linecap="round" style="stroke:#009E73;stroke-width:10.00"/>
	<line x1="1630.30" y1="1751.42" x2="1677.49" y2="1760.03" stroke-linecap="round" style="stroke:#009E73;stroke-width:10.00"/>
	<line x1="1677.49" y1="1760.03" x2="1724.69" y2="1740.90" stroke-linecap="round" style="stroke:#009E73;stroke-width:10.00"/>
	<line x1="1724.69" y1="1740.90" x2="1771.80" y2="1720.73" stroke-linecap="round" style="stroke:#009E73;stroke-width:10.00"/>
	<line x1="1771.80" y1="1720.73" x2="1819.00" y2="1731.25" stroke-linecap="round" style="stroke:#009E73;stroke-width:10.00"/>
	<line x1="1819.00" y1="1731.25" x2="1866.19" y2="1707.10" stroke-linecap="round" style="stroke:#009E73;stroke-width:10.00"/>
	<line x1="1866.19" y1="1707.10" x2="1913.39" y2="1653.77" stroke-linecap="round" style="stroke:#009E73;stroke-width:10.00"/>
	<line x1="1913.39" y1="1653.77" x2="1960.50" y2="1651.85" stroke-linecap="round" style="stroke:#009E73;stroke-width:10.00"/>
	<line x1="1960.50" y1="1651.85" x2="2007.70" y2="1603.06" stroke-linecap="round" style="stroke:#009E73;stroke-width:10.00"/>
	<line x1="2007.70" y1="1603.06" x2="2054.89" y2="1655.28" stroke-linecap="round" style="stroke:#009E73;stroke-width:10.00"/>
	<line x1="2054.89" y1="1655.28" x2="2102.09" y2="1691.71" stroke-linecap="round" style="stroke:#009E73;stroke-width:10.00"/>
	<line x1="2102.09" y1="1691.71" x2="2149.20" y2="1655.20" stroke-linecap="round" style="stroke:#009E73;stroke-width:10.00"/>
	<line x1="2149.20" y1="1655.20" x2="2196.40" y2="1600.11" stroke-linecap="round" style="stroke:#009E73;stroke-width:10.00"/>
	<line x1="2196.40" y1="1600.11" x2="2243.59" y2="1619.88" stroke-linecap="round" style="stroke:#009E73;stroke-width:10.00"/>
	<line x1="2243.59" y1="1619.88" x2="2290.79" y2="1673.77" stroke-linecap="round" style="stroke:#009E73;stroke-width:10.00"/>
	<line x1="1771.80" y1="1694.50" x2="1819.00" y2="1592.46" stroke-linecap="round" style="stroke:#D55E00;stroke-width:10.00"/>
	<line x1="1819.00" y1="1592.46" x2="1866.19" y2="1620.12" stroke-linecap="round" style="stroke:#D55E00;stroke-width:10.00"/>
	<line x1="1866.19" y1="1620.12" x2="1913.39" y2="1653.53" stroke-linecap="round" style="stroke:#D55E00;stroke-width:10.00"/>
	<line x1="1913.39" y1="1653.53" x2="1960.50" y2="1621.72" stroke-linecap="round" style="stroke:#D55E00;stroke-width:10.00"/>
	<line x1="1960.50" y1="1621.72" x2="2007.70" y2="1601.55" stroke-linecap="round" style="stroke:#D55E00;stroke-width:10.00"/>
	<line x1="2007.70" y1="1601.55" x2="2054.89" y2="1598.92" stroke-linecap="round" style="stroke:#D55E00;stroke-width:10.00"/>
	<line x1="2054.89" y1="1598.92" x2="2102.09" y2="1577.24" stroke-linecap="round" style="stroke:#D55E00;stroke-width:10.00"/>
	<line x1="2102.09" y1="1577.24" x2="2149.20" y2="1600.27" stroke-linecap="round" style="stroke:#D55E00;stroke-width:10.00"/>
	<line x1="2149.20" y1="1600.27" x2="2196.40" y2="1628.89" stroke-linecap="round" style="stroke:#D55E00;stroke-width:10.00"/>
	<line x1="2196.40" y1="1628.89" x2="2243.59" y2="1626.02" stroke-linecap="round" style="stroke:#D55E00;stroke-width:10.00"/>
	<line x1="2243.59" y1="1626.02" x2="2290.79" y2="1607.69" stroke-linecap="round" style="stroke:#D55E00;stroke-width:10.00"/>
	<line x1="2102.09" y1="1597.80" x2="2149.20" y2="1602.27" stroke-linecap="round" style="stroke:#CC79A7;stroke-width:10.00"/>
	<line x1="2149.20" y1="1602.27" x2="2196.40" y2="1624.99" stroke-linecap="round" style="stroke:#CC79A7;stroke-width:10.00"/>
	<line x1="2196.40" y1="1624.99" x2="2243.59" y2="1591.51" stroke-linecap="round" style="stroke:#CC79A7;stroke-width:10.00"/>
	<line x1="2243.59" y1="1591.51" x2="2290.79" y2="1605.30" stroke-linecap="round" style="stroke:#CC79A7;stroke-width:10.00"/>
	<line x1="450.90" y1="1801.96" x2="501.85" y2="1804.83" style="stroke:#A0A0A0;stroke-width:10.00"/>
	<line x1="527.36" y1="1806.27" x2="545.29" y2="1807.30" style="stroke:#A0A0A0;stroke-width:10.00"/>
	<line x1="545.29" y1="1807.30" x2="578.30" y2="1808.50" style="stroke:#A0A0A0;stroke-width:10.00"/>
	<line x1="603.81" y1="1809.38" x2="639.60" y2="1810.65" style="stroke:#A0A0A0;stroke-width:10.00"/>
	<line x1="639.60" y1="1810.65" x2="654.75" y2="1809.46" style="stroke:#A0A0A0;stroke-width:10.00"/>
	<line x1="680.18" y1="1807.54" x2="731.04" y2="1803.64" style="stroke:#A0A0A0;stroke-width:10.00"/>
	<line x1="756.24" y1="1807.14" x2="806.54" y2="1815.51" style="stroke:#A0A0A0;stroke-width:10.00"/>
	<line x1="831.65" y1="1819.74" x2="875.50" y2="1827.07" style="stroke:#A0A0A0;stroke-width:10.00"/>
	<line x1="875.50" y1="1827.07" x2="882.04" y2="1826.36" style="stroke:#A0A0A0;stroke-width:10.00"/>
	<line x1="907.39" y1="1823.65" x2="958.17" y2="1818.23" style="stroke:#A0A0A0;stroke-width:10.00"/>
	<line x1="983.60" y1="1817.11" x2="1034.62" y2="1817.75" style="stroke:#A0A0A0;stroke-width:10.00"/>
	<line x1="1060.13" y1="1818.07" x2="1064.20" y2="1818.07" style="stroke:#A0A0A0;stroke-width:10.00"/>
	<line x1="1064.20" y1="1818.07" x2="1111.15" y2="1819.50" style="stroke:#A0A0A0;stroke-width:10.00"/>
	<line x1="1136.59" y1="1820.30" x2="1158.59" y2="1820.94" style="stroke:#A0A0A0;stroke-width:10.00"/>
	<line x1="1158.59" y1="1820.94" x2="1187.13" y2="1815.75" style="stroke:#A0A0A0;stroke-width:10.00"/>
	<line x1="1212.24" y1="1811.21" x2="1252.90" y2="1803.80" style="stroke:#A0A0A0;stroke-width:10.00"/>
	<line x1="1252.90" y1="1803.80" x2="1262.55" y2="1803.16" style="stroke:#A0A0A0;stroke-width:10.00"/>
	<line x1="1287.98" y1="1801.32" x2="1338.92" y2="1797.90" style="stroke:#A0A0A0;stroke-width:10.00"/>
	<line x1="1364.35" y1="1798.22" x2="1394.40" y2="1799.89" style="stroke:#A0A0A0;stroke-width:10.00"/>
	<line x1="1394.40" y1="1799.89" x2="1415.29" y2="1798.45" style="stroke:#A0A0A0;stroke-width:10.00"/>
	<line x1="1440.72" y1="1796.70" x2="1441.60" y2="1796.62" style="stroke:#A0A0A0;stroke-width:10.00"/>
	<line x1="1441.60" y1="1796.62" x2="1488.79" y2="1797.58" style="stroke:#A0A0A0;stroke-width:10.00"/>
	<line x1="1488.79" y1="1797.58" x2="1491.74" y2="1797.74" style="stroke:#A0A0A0;stroke-width:10.00"/>
	<line x1="1517.17" y1="1798.69" x2="1535.99" y2="1799.49" style="stroke:#A0A0A0;stroke-width:10.00"/>
	<line x1="1535.99" y1="1799.49" x2="1568.20" y2="1797.74" style="stroke:#A0A0A0;stroke-width:10.00"/>
	<line x1="1593.63" y1="1797.02" x2="1630.30" y2="1797.26" style="stroke:#A0A0A0;stroke-width:10.00"/>
	<line x1="1630.30" y1="1797.26" x2="1644.49" y2="1795.27" style="stroke:#A0A0A0;stroke-width:10.00"/>
	<line x1="1669.76" y1="1791.76" x2="1677.49" y2="1790.64" style="stroke:#A0A0A0;stroke-width:10.00"/>
	<line x1="1677.49" y1="1790.64" x2="1720.46" y2="1786.10" style="stroke:#A0A0A0;stroke-width:10.00"/>
	<line x1="1745.74" y1="1782.59" x2="1771.80" y2="1778.76" style="stroke:#A0A0A0;stroke-width:10.00"/>
	<line x1="1771.80" y1="1778.76" x2="1790.94" y2="1763.22" style="stroke:#A0A0A0;stroke-width:10.00"/>
	<line x1="1810.79" y1="1747.20" x2="1819.00" y2="1740.58" style="stroke:#A0A0A0;stroke-width:10.00"/>
	<line x1="1819.00" y1="1740.58" x2="1858.62" y2="1732.29" style="stroke:#A0A0A0;stroke-width:10.00"/>
	<line x1="1883.73" y1="1728.06" x2="1913.39" y2="1723.60" style="stroke:#A0A0A0;stroke-width:10.00"/>
	<line x1="1913.39" y1="1723.60" x2="1934.20" y2="1720.09" style="stroke:#A0A0A0;stroke-width:10.00"/>
	<line x1="1959.31" y1="1715.95" x2="1960.50" y2="1715.71" style="stroke:#A0A0A0;stroke-width:10.00"/>
	<line x1="1960.50" y1="1715.71" x2="1999.33" y2="1684.38" style="stroke:#A0A0A0;stroke-width:10.00"/>
	<line x1="2020.61" y1="1684.62" x2="2054.89" y2="1703.19" style="stroke:#A0A0A0;stroke-width:10.00"/>
	<line x1="2054.89" y1="1703.19" x2="2066.93" y2="1702.63" style="stroke:#A0A0A0;stroke-width:10.00"/>
	<line x1="2092.44" y1="1701.52" x2="2102.09" y2="1701.12" style="stroke:#A0A0A0;stroke-width:10.00"/>
	<line x1="2102.09" y1="1701.12" x2="2142.91" y2="1694.58" style="stroke:#A0A0A0;stroke-width:10.00"/>
	<line x1="2168.34" y1="1692.51" x2="2196.40" y2="1690.91" style="stroke:#A0A0A0;stroke-width:10.00"/>
	<line x1="2196.40" y1="1690.91" x2="2219.36" y2="1691.55" style="stroke:#A0A0A0;stroke-width:10.00"/>
	<line x1="2244.87" y1="1692.43" x2="2290.79" y2="1696.73" style="stroke:#A0A0A0;stroke-width:10.00"/>
	<line x1="394.86" y1="1865.82" x2="359.38" y2="1865.82" style="stroke:#000000;stroke-width:4.00"/>
	<text x="341.69" y="1883.33" style="font-family:'Helvetica';font-size:49.99px;fill:#000000" text-anchor="end">0</text>
	<line x1="394.86" y1="1704.55" x2="359.38" y2="1704.55" style="stroke:#000000;stroke-width:4.00"/>
	<text x="341.69" y="1722.06" style="font-family:'Helvetica';font-size:49.99px;fill:#000000" text-anchor="end">10</text>
	<line x1="394.86" y1="1543.28" x2="359.38" y2="1543.28" style="stroke:#000000;stroke-width:4.00"/>
	<text x="341.69" y="1560.79" style="font-family:'Helvetica';font-size:49.99px;fill:#000000" text-anchor="end">20</text>
	<line x1="394.86" y1="1382.08" x2="359.38" y2="1382.08" style="stroke:#000000;stroke-width:4.00"/>
	<text x="341.69" y="1399.60" style="font-family:'Helvetica';font-size:49.99px;fill:#000000" text-anchor="end">30</text>
	<line x1="394.86" y1="1220.81" x2="359.38" y2="1220.81" style="stroke:#000000;stroke-width:4.00"/>
	<text x="341.69" y="1238.33" style="font-family:'Helvetica';font-size:49.99px;fill:#000000" text-anchor="end">40</text>
	<line x1="394.86" y1="1059.54" x2="359.38" y2="1059.54" style="stroke:#000000;stroke-width:4.00"/>
	<text x="341.69" y="1077.06" style="font-family:'Helvetica';font-size:49.99px;fill:#000000" text-anchor="end">50</text>
	<line x1="394.86" y1="898.35" x2="359.38" y2="898.35" style="stroke:#000000;stroke-width:4.00"/>
	<text x="341.69" y="915.86" style="font-family:'Helvetica';font-size:49.99px;fill:#000000" text-anchor="end">60</text>
	<line x1="394.86" y1="737.08" x2="359.38" y2="737.08" style="stroke:#000000;stroke-width:4.00"/>
	<text x="341.69" y="754.59" style="font-family:'Helvetica';font-size:49.99px;fill:#000000" text-anchor="end">70</text>
	<line x1="394.86" y1="575.81" x2="359.38" y2="575.81" style="stroke:#000000;stroke-width:4.00"/>
	<text x="341.69" y="593.32" style="font-family:'Helvetica';font-size:49.99px;fill:#000000" text-anchor="end">80</text>
	<line x1="394.86" y1="414.54" x2="359.38" y2="414.54" style="stroke:#000000;stroke-width:4.00"/>
	<text x="341.69" y="432.05" style="font-family:'Helvetica';font-size:49.99px;fill:#000000" text-anchor="end">90</text>
	<line x1="394.86" y1="253.35" x2="359.38" y2="253.35" style="stroke:#000000;stroke-width:4.00"/>
	<text x="341.69" y="270.86" style="font-family:'Helvetica';font-size:49.99px;fill:#000000" text-anchor="end">100</text>
	<line x1="394.86" y1="1865.82" x2="394.86" y2="253.35" style="stroke:#000000;stroke-width:4.00"/>
	<text x="136.21" y="1021.28" style="font-family:'Helvetica';font-size:60.03px;fill:#000000" transform="rotate(-90 136.21,1021.28)" text-anchor="middle">Part-time employment share (in %)</text>
	<line x1="450.98" y1="1921.94" x2="450.98" y2="1957.33" style="stroke:#000000;stroke-width:4.00"/>
	<text x="450.98" y="2009.98" style="font-family:'Helvetica';font-size:49.99px;fill:#000000" text-anchor="middle">1976</text>
	<line x1="639.68" y1="1921.94" x2="639.68" y2="1957.33" style="stroke:#000000;stroke-width:4.00"/>
	<text x="639.68" y="2009.98" style="font-family:'Helvetica';font-size:49.99px;fill:#000000" text-anchor="middle">1980</text>
	<line x1="875.58" y1="1921.94" x2="875.58" y2="1957.33" style="stroke:#000000;stroke-width:4.00"/>
	<text x="875.58" y="2009.98" style="font-family:'Helvetica';font-size:49.99px;fill:#000000" text-anchor="middle">1985</text>
	<line x1="1111.39" y1="1921.94" x2="1111.39" y2="1957.33" style="stroke:#000000;stroke-width:4.00"/>
	<text x="1111.39" y="2009.98" style="font-family:'Helvetica';font-size:49.99px;fill:#000000" text-anchor="middle">1990</text>
	<line x1="1347.29" y1="1921.94" x2="1347.29" y2="1957.33" style="stroke:#000000;stroke-width:4.00"/>
	<text x="1347.29" y="2009.98" style="font-family:'Helvetica';font-size:49.99px;fill:#000000" text-anchor="middle">1995</text>
	<line x1="1583.18" y1="1921.94" x2="1583.18" y2="1957.33" style="stroke:#000000;stroke-width:4.00"/>
	<text x="1583.18" y="2009.98" style="font-family:'Helvetica';font-size:49.99px;fill:#000000" text-anchor="middle">2000</text>
	<line x1="1819.08" y1="1921.94" x2="1819.08" y2="1957.33" style="stroke:#000000;stroke-width:4.00"/>
	<text x="1819.08" y="2009.98" style="font-family:'Helvetica';font-size:49.99px;fill:#000000" text-anchor="middle">2005</text>
	<line x1="2054.89" y1="1921.94" x2="2054.89" y2="1957.33" style="stroke:#000000;stroke-width:4.00"/>
	<text x="2054.89" y="2009.98" style="font-family:'Helvetica';font-size:49.99px;fill:#000000" text-anchor="middle">2010</text>
	<line x1="2290.79" y1="1921.94" x2="2290.79" y2="1957.33" style="stroke:#000000;stroke-width:4.00"/>
	<text x="2290.79" y="2009.98" style="font-family:'Helvetica';font-size:49.99px;fill:#000000" text-anchor="middle">2015</text>
	<line x1="450.98" y1="1921.94" x2="2290.79" y2="1921.94" style="stroke:#000000;stroke-width:4.00"/>
	<text x="1332.62" y="2152.37" style="font-family:'Helvetica';font-size:60.03px;fill:#000000" text-anchor="middle">Year</text>
	<text x="145.41" y="2396.65" style="font-family:'Helvetica';font-size:60.03px;fill:#000000">Arr. cohort: </text>
	<text x="536.36" y="2396.65" style="font-family:'Helvetica';font-size:60.03px;fill:#000000">1964-73</text>
	<text x="845.12" y="2396.65" style="font-family:'Helvetica';font-size:60.03px;fill:#000000">1974-83</text>
	<text x="1153.89" y="2396.65" style="font-family:'Helvetica';font-size:60.03px;fill:#000000">1984-93</text>
	<text x="1462.65" y="2396.65" style="font-family:'Helvetica';font-size:60.03px;fill:#000000">1994-03</text>
	<text x="1771.41" y="2396.65" style="font-family:'Helvetica';font-size:60.03px;fill:#000000">2004-10</text>
	<text x="2080.17" y="2396.65" style="font-family:'Helvetica';font-size:60.03px;fill:#000000">German</text>
	<line x1="536.36" y1="2301.32" x2="737.26" y2="2301.32" style="stroke:#E69F00;stroke-width:10.00"/>
	<line x1="845.12" y1="2301.32" x2="1046.02" y2="2301.32" style="stroke:#56B4E9;stroke-width:10.00"/>
	<line x1="1153.89" y1="2301.32" x2="1354.78" y2="2301.32" style="stroke:#009E73;stroke-width:10.00"/>
	<line x1="1462.65" y1="2301.32" x2="1663.54" y2="2301.32" style="stroke:#D55E00;stroke-width:10.00"/>
	<line x1="1771.41" y1="2301.32" x2="1972.30" y2="2301.32" style="stroke:#CC79A7;stroke-width:10.00"/>
	<line x1="2080.17" y1="2301.32" x2="2131.19" y2="2301.32" style="stroke:#A0A0A0;stroke-width:10.00"/>
	<line x1="2156.70" y1="2301.32" x2="2207.72" y2="2301.32" style="stroke:#A0A0A0;stroke-width:10.00"/>
	<line x1="2233.23" y1="2301.32" x2="2278.03" y2="2301.32" style="stroke:#A0A0A0;stroke-width:10.00"/>
	<text x="1370.89" y="154.88" style="font-family:'Helvetica';font-size:90.01px;fill:#000000" text-anchor="middle">Men</text>
</svg>
