<?xml version="1.0" encoding="UTF-8" standalone="no"?>
<!-- This is a Stata 15.1 generated SVG file (http://www.stata.com) -->

<svg version="1.1" width="3.54in" height="3.54in" viewBox="0 0 2551 2551" xmlns="http://www.w3.org/2000/svg" xmlns:xlink="http://www.w3.org/1999/xlink">
	<desc>Stata Graph - Graph</desc>
	<rect x="0" y="0" width="2551" height="2551" style="fill:#FFFFFF;stroke:none"/>
	<rect x="0.00" y="0.08" width="2551.00" height="2550.92" style="fill:#FFFFFF"/>
	<rect x="2.55" y="2.63" width="2545.90" height="2545.82" style="fill:none;stroke:#FFFFFF;stroke-width:5.10"/>
	<line x1="394.86" y1="1865.82" x2="2346.91" y2="1865.82" style="stroke:#E8E8E8;stroke-width:4.00"/>
	<line x1="394.86" y1="1715.63" x2="2346.91" y2="1715.63" style="stroke:#E8E8E8;stroke-width:4.00"/>
	<line x1="394.86" y1="1565.52" x2="2346.91" y2="1565.52" style="stroke:#E8E8E8;stroke-width:4.00"/>
	<line x1="394.86" y1="1415.41" x2="2346.91" y2="1415.41" style="stroke:#E8E8E8;stroke-width:4.00"/>
	<line x1="394.86" y1="1265.22" x2="2346.91" y2="1265.22" style="stroke:#E8E8E8;stroke-width:4.00"/>
	<line x1="394.86" y1="1115.11" x2="2346.91" y2="1115.11" style="stroke:#E8E8E8;stroke-width:4.00"/>
	<line x1="394.86" y1="964.92" x2="2346.91" y2="964.92" style="stroke:#E8E8E8;stroke-width:4.00"/>
	<line x1="394.86" y1="814.81" x2="2346.91" y2="814.81" style="stroke:#E8E8E8;stroke-width:4.00"/>
	<line x1="394.86" y1="664.62" x2="2346.91" y2="664.62" style="stroke:#E8E8E8;stroke-width:4.00"/>
	<line x1="394.86" y1="514.50" x2="2346.91" y2="514.50" style="stroke:#E8E8E8;stroke-width:4.00"/>
	<line x1="394.86" y1="364.31" x2="2346.91" y2="364.31" style="stroke:#E8E8E8;stroke-width:4.00"/>
	<line x1="450.98" y1="1921.94" x2="450.98" y2="308.19" style="stroke:#E8E8E8;stroke-width:4.00"/>
	<line x1="747.71" y1="1921.94" x2="747.71" y2="308.19" style="stroke:#E8E8E8;stroke-width:4.00"/>
	<line x1="1044.43" y1="1921.94" x2="1044.43" y2="308.19" style="stroke:#E8E8E8;stroke-width:4.00"/>
	<line x1="1341.23" y1="1921.94" x2="1341.23" y2="308.19" style="stroke:#E8E8E8;stroke-width:4.00"/>
	<line x1="1637.95" y1="1921.94" x2="1637.95" y2="308.19" style="stroke:#E8E8E8;stroke-width:4.00"/>
	<line x1="1934.68" y1="1921.94" x2="1934.68" y2="308.19" style="stroke:#E8E8E8;stroke-width:4.00"/>
	<line x1="2231.48" y1="1921.94" x2="2231.48" y2="308.19" style="stroke:#E8E8E8;stroke-width:4.00"/>
	<line x1="1163.13" y1="484.53" x2="1222.45" y2="479.67" stroke-linecap="round" style="stroke:#E69F00;stroke-width:10.00"/>
	<line x1="1222.45" y1="479.67" x2="1281.84" y2="495.13" stroke-linecap="round" style="stroke:#E69F00;stroke-width:10.00"/>
	<line x1="1281.84" y1="495.13" x2="1341.15" y2="487.96" stroke-linecap="round" style="stroke:#E69F00;stroke-width:10.00"/>
	<line x1="1341.15" y1="487.96" x2="1400.54" y2="506.85" stroke-linecap="round" style="stroke:#E69F00;stroke-width:10.00"/>
	<line x1="1400.54" y1="506.85" x2="1459.86" y2="503.50" stroke-linecap="round" style="stroke:#E69F00;stroke-width:10.00"/>
	<line x1="1459.86" y1="503.50" x2="1519.25" y2="509.08" stroke-linecap="round" style="stroke:#E69F00;stroke-width:10.00"/>
	<line x1="1519.25" y1="509.08" x2="1578.56" y2="538.42" stroke-linecap="round" style="stroke:#E69F00;stroke-width:10.00"/>
	<line x1="1578.56" y1="538.42" x2="1637.95" y2="513.23" stroke-linecap="round" style="stroke:#E69F00;stroke-width:10.00"/>
	<line x1="1637.95" y1="513.23" x2="1697.27" y2="525.43" stroke-linecap="round" style="stroke:#E69F00;stroke-width:10.00"/>
	<line x1="1697.27" y1="525.43" x2="1756.58" y2="590.64" stroke-linecap="round" style="stroke:#E69F00;stroke-width:10.00"/>
	<line x1="1756.58" y1="590.64" x2="1815.97" y2="631.53" stroke-linecap="round" style="stroke:#E69F00;stroke-width:10.00"/>
	<line x1="1815.97" y1="631.53" x2="1875.28" y2="633.68" stroke-linecap="round" style="stroke:#E69F00;stroke-width:10.00"/>
	<line x1="1875.28" y1="633.68" x2="1934.68" y2="661.59" stroke-linecap="round" style="stroke:#E69F00;stroke-width:10.00"/>
	<line x1="1934.68" y1="661.59" x2="1993.99" y2="728.15" stroke-linecap="round" style="stroke:#E69F00;stroke-width:10.00"/>
	<line x1="1993.99" y1="728.15" x2="2053.38" y2="722.97" stroke-linecap="round" style="stroke:#E69F00;stroke-width:10.00"/>
	<line x1="2053.38" y1="722.97" x2="2112.69" y2="706.07" stroke-linecap="round" style="stroke:#E69F00;stroke-width:10.00"/>
	<line x1="2112.69" y1="706.07" x2="2172.08" y2="683.27" stroke-linecap="round" style="stroke:#E69F00;stroke-width:10.00"/>
	<line x1="2172.08" y1="683.27" x2="2231.40" y2="691.64" stroke-linecap="round" style="stroke:#E69F00;stroke-width:10.00"/>
	<line x1="569.61" y1="698.42" x2="629.00" y2="699.93" stroke-linecap="round" style="stroke:#56B4E9;stroke-width:10.00"/>
	<line x1="629.00" y1="699.93" x2="688.31" y2="707.34" stroke-linecap="round" style="stroke:#56B4E9;stroke-width:10.00"/>
	<line x1="688.31" y1="707.34" x2="747.71" y2="707.98" stroke-linecap="round" style="stroke:#56B4E9;stroke-width:10.00"/>
	<line x1="747.71" y1="707.98" x2="807.02" y2="681.36" stroke-linecap="round" style="stroke:#56B4E9;stroke-width:10.00"/>
	<line x1="807.02" y1="681.36" x2="866.41" y2="669.00" stroke-linecap="round" style="stroke:#56B4E9;stroke-width:10.00"/>
	<line x1="866.41" y1="669.00" x2="925.72" y2="629.38" stroke-linecap="round" style="stroke:#56B4E9;stroke-width:10.00"/>
	<line x1="925.72" y1="629.38" x2="985.04" y2="612.00" stroke-linecap="round" style="stroke:#56B4E9;stroke-width:10.00"/>
	<line x1="985.04" y1="612.00" x2="1044.43" y2="594.70" stroke-linecap="round" style="stroke:#56B4E9;stroke-width:10.00"/>
	<line x1="1044.43" y1="594.70" x2="1103.74" y2="595.98" stroke-linecap="round" style="stroke:#56B4E9;stroke-width:10.00"/>
	<line x1="1103.74" y1="595.98" x2="1163.13" y2="574.77" stroke-linecap="round" style="stroke:#56B4E9;stroke-width:10.00"/>
	<line x1="1163.13" y1="574.77" x2="1222.45" y2="633.37" stroke-linecap="round" style="stroke:#56B4E9;stroke-width:10.00"/>
	<line x1="1222.45" y1="633.37" x2="1281.84" y2="592.07" stroke-linecap="round" style="stroke:#56B4E9;stroke-width:10.00"/>
	<line x1="1281.84" y1="592.07" x2="1341.15" y2="595.26" stroke-linecap="round" style="stroke:#56B4E9;stroke-width:10.00"/>
	<line x1="1341.15" y1="595.26" x2="1400.54" y2="630.97" stroke-linecap="round" style="stroke:#56B4E9;stroke-width:10.00"/>
	<line x1="1400.54" y1="630.97" x2="1459.86" y2="619.65" stroke-linecap="round" style="stroke:#56B4E9;stroke-width:10.00"/>
	<line x1="1459.86" y1="619.65" x2="1519.25" y2="633.84" stroke-linecap="round" style="stroke:#56B4E9;stroke-width:10.00"/>
	<line x1="1519.25" y1="633.84" x2="1578.56" y2="630.73" stroke-linecap="round" style="stroke:#56B4E9;stroke-width:10.00"/>
	<line x1="1578.56" y1="630.73" x2="1637.95" y2="652.98" stroke-linecap="round" style="stroke:#56B4E9;stroke-width:10.00"/>
	<line x1="1637.95" y1="652.98" x2="1697.27" y2="669.48" stroke-linecap="round" style="stroke:#56B4E9;stroke-width:10.00"/>
	<line x1="1697.27" y1="669.48" x2="1756.58" y2="649.07" stroke-linecap="round" style="stroke:#56B4E9;stroke-width:10.00"/>
	<line x1="1756.58" y1="649.07" x2="1815.97" y2="606.98" stroke-linecap="round" style="stroke:#56B4E9;stroke-width:10.00"/>
	<line x1="1815.97" y1="606.98" x2="1875.28" y2="651.46" stroke-linecap="round" style="stroke:#56B4E9;stroke-width:10.00"/>
	<line x1="1875.28" y1="651.46" x2="1934.68" y2="699.05" stroke-linecap="round" style="stroke:#56B4E9;stroke-width:10.00"/>
	<line x1="1934.68" y1="699.05" x2="1993.99" y2="675.38" stroke-linecap="round" style="stroke:#56B4E9;stroke-width:10.00"/>
	<line x1="1993.99" y1="675.38" x2="2053.38" y2="671.95" stroke-linecap="round" style="stroke:#56B4E9;stroke-width:10.00"/>
	<line x1="2053.38" y1="671.95" x2="2112.69" y2="769.53" stroke-linecap="round" style="stroke:#56B4E9;stroke-width:10.00"/>
	<line x1="2112.69" y1="769.53" x2="2172.08" y2="763.55" stroke-linecap="round" style="stroke:#56B4E9;stroke-width:10.00"/>
	<line x1="2172.08" y1="763.55" x2="2231.40" y2="829.00" stroke-linecap="round" style="stroke:#56B4E9;stroke-width:10.00"/>
	<line x1="510.30" y1="1061.06" x2="569.61" y2="903.77" stroke-linecap="round" style="stroke:#009E73;stroke-width:10.00"/>
	<line x1="569.61" y1="903.77" x2="629.00" y2="899.94" stroke-linecap="round" style="stroke:#009E73;stroke-width:10.00"/>
	<line x1="629.00" y1="899.94" x2="688.31" y2="860.72" stroke-linecap="round" style="stroke:#009E73;stroke-width:10.00"/>
	<line x1="688.31" y1="860.72" x2="747.71" y2="839.52" stroke-linecap="round" style="stroke:#009E73;stroke-width:10.00"/>
	<line x1="747.71" y1="839.52" x2="807.02" y2="808.35" stroke-linecap="round" style="stroke:#009E73;stroke-width:10.00"/>
	<line x1="807.02" y1="808.35" x2="866.41" y2="747.92" stroke-linecap="round" style="stroke:#009E73;stroke-width:10.00"/>
	<line x1="866.41" y1="747.92" x2="925.72" y2="719.14" stroke-linecap="round" style="stroke:#009E73;stroke-width:10.00"/>
	<line x1="925.72" y1="719.14" x2="985.04" y2="709.34" stroke-linecap="round" style="stroke:#009E73;stroke-width:10.00"/>
	<line x1="985.04" y1="709.34" x2="1044.43" y2="686.70" stroke-linecap="round" style="stroke:#009E73;stroke-width:10.00"/>
	<line x1="1044.43" y1="686.70" x2="1103.74" y2="684.07" stroke-linecap="round" style="stroke:#009E73;stroke-width:10.00"/>
	<line x1="1103.74" y1="684.07" x2="1163.13" y2="693.23" stroke-linecap="round" style="stroke:#009E73;stroke-width:10.00"/>
	<line x1="1163.13" y1="693.23" x2="1222.45" y2="696.26" stroke-linecap="round" style="stroke:#009E73;stroke-width:10.00"/>
	<line x1="1222.45" y1="696.26" x2="1281.84" y2="687.18" stroke-linecap="round" style="stroke:#009E73;stroke-width:10.00"/>
	<line x1="1281.84" y1="687.18" x2="1341.15" y2="691.48" stroke-linecap="round" style="stroke:#009E73;stroke-width:10.00"/>
	<line x1="1341.15" y1="691.48" x2="1400.54" y2="695.79" stroke-linecap="round" style="stroke:#009E73;stroke-width:10.00"/>
	<line x1="1400.54" y1="695.79" x2="1459.86" y2="667.33" stroke-linecap="round" style="stroke:#009E73;stroke-width:10.00"/>
	<line x1="1459.86" y1="667.33" x2="1519.25" y2="675.62" stroke-linecap="round" style="stroke:#009E73;stroke-width:10.00"/>
	<line x1="1519.25" y1="675.62" x2="1578.56" y2="671.95" stroke-linecap="round" style="stroke:#009E73;stroke-width:10.00"/>
	<line x1="1578.56" y1="671.95" x2="1637.95" y2="710.21" stroke-linecap="round" style="stroke:#009E73;stroke-width:10.00"/>
	<line x1="1637.95" y1="710.21" x2="1697.27" y2="658.80" stroke-linecap="round" style="stroke:#009E73;stroke-width:10.00"/>
	<line x1="1697.27" y1="658.80" x2="1756.58" y2="665.01" stroke-linecap="round" style="stroke:#009E73;stroke-width:10.00"/>
	<line x1="510.30" y1="1019.12" x2="569.61" y2="950.01" stroke-linecap="round" style="stroke:#D55E00;stroke-width:10.00"/>
	<line x1="569.61" y1="950.01" x2="629.00" y2="910.15" stroke-linecap="round" style="stroke:#D55E00;stroke-width:10.00"/>
	<line x1="629.00" y1="910.15" x2="688.31" y2="859.61" stroke-linecap="round" style="stroke:#D55E00;stroke-width:10.00"/>
	<line x1="688.31" y1="859.61" x2="747.71" y2="809.07" stroke-linecap="round" style="stroke:#D55E00;stroke-width:10.00"/>
	<line x1="747.71" y1="809.07" x2="807.02" y2="812.09" stroke-linecap="round" style="stroke:#D55E00;stroke-width:10.00"/>
	<line x1="807.02" y1="812.09" x2="866.41" y2="790.49" stroke-linecap="round" style="stroke:#D55E00;stroke-width:10.00"/>
	<line x1="866.41" y1="790.49" x2="925.72" y2="756.45" stroke-linecap="round" style="stroke:#D55E00;stroke-width:10.00"/>
	<line x1="925.72" y1="756.45" x2="985.04" y2="737.08" stroke-linecap="round" style="stroke:#D55E00;stroke-width:10.00"/>
	<line x1="985.04" y1="737.08" x2="1044.43" y2="714.12" stroke-linecap="round" style="stroke:#D55E00;stroke-width:10.00"/>
	<line x1="1044.43" y1="714.12" x2="1103.74" y2="680.48" stroke-linecap="round" style="stroke:#D55E00;stroke-width:10.00"/>
	<line x1="1103.74" y1="680.48" x2="1163.13" y2="665.09" stroke-linecap="round" style="stroke:#D55E00;stroke-width:10.00"/>
	<line x1="510.30" y1="836.01" x2="569.61" y2="781.40" stroke-linecap="round" style="stroke:#CC79A7;stroke-width:10.00"/>
	<line x1="569.61" y1="781.40" x2="629.00" y2="711.89" stroke-linecap="round" style="stroke:#CC79A7;stroke-width:10.00"/>
	<line x1="629.00" y1="711.89" x2="688.31" y2="658.00" stroke-linecap="round" style="stroke:#CC79A7;stroke-width:10.00"/>
	<line x1="688.31" y1="658.00" x2="747.71" y2="662.78" stroke-linecap="round" style="stroke:#CC79A7;stroke-width:10.00"/>
	<line x1="394.86" y1="1865.82" x2="359.38" y2="1865.82" style="stroke:#000000;stroke-width:4.00"/>
	<text x="341.69" y="1883.33" style="font-family:'Helvetica';font-size:49.99px;fill:#000000" text-anchor="end">0</text>
	<line x1="394.86" y1="1715.63" x2="359.38" y2="1715.63" style="stroke:#000000;stroke-width:4.00"/>
	<text x="341.69" y="1733.14" style="font-family:'Helvetica';font-size:49.99px;fill:#000000" text-anchor="end">10</text>
	<line x1="394.86" y1="1565.52" x2="359.38" y2="1565.52" style="stroke:#000000;stroke-width:4.00"/>
	<text x="341.69" y="1583.03" style="font-family:'Helvetica';font-size:49.99px;fill:#000000" text-anchor="end">20</text>
	<line x1="394.86" y1="1415.41" x2="359.38" y2="1415.41" style="stroke:#000000;stroke-width:4.00"/>
	<text x="341.69" y="1432.92" style="font-family:'Helvetica';font-size:49.99px;fill:#000000" text-anchor="end">30</text>
	<line x1="394.86" y1="1265.22" x2="359.38" y2="1265.22" style="stroke:#000000;stroke-width:4.00"/>
	<text x="341.69" y="1282.73" style="font-family:'Helvetica';font-size:49.99px;fill:#000000" text-anchor="end">40</text>
	<line x1="394.86" y1="1115.11" x2="359.38" y2="1115.11" style="stroke:#000000;stroke-width:4.00"/>
	<text x="341.69" y="1132.62" style="font-family:'Helvetica';font-size:49.99px;fill:#000000" text-anchor="end">50</text>
	<line x1="394.86" y1="964.92" x2="359.38" y2="964.92" style="stroke:#000000;stroke-width:4.00"/>
	<text x="341.69" y="982.43" style="font-family:'Helvetica';font-size:49.99px;fill:#000000" text-anchor="end">60</text>
	<line x1="394.86" y1="814.81" x2="359.38" y2="814.81" style="stroke:#000000;stroke-width:4.00"/>
	<text x="341.69" y="832.32" style="font-family:'Helvetica';font-size:49.99px;fill:#000000" text-anchor="end">70</text>
	<line x1="394.86" y1="664.62" x2="359.38" y2="664.62" style="stroke:#000000;stroke-width:4.00"/>
	<text x="341.69" y="682.13" style="font-family:'Helvetica';font-size:49.99px;fill:#000000" text-anchor="end">80</text>
	<line x1="394.86" y1="514.50" x2="359.38" y2="514.50" style="stroke:#000000;stroke-width:4.00"/>
	<text x="341.69" y="532.02" style="font-family:'Helvetica';font-size:49.99px;fill:#000000" text-anchor="end">90</text>
	<line x1="394.86" y1="364.31" x2="359.38" y2="364.31" style="stroke:#000000;stroke-width:4.00"/>
	<text x="341.69" y="381.83" style="font-family:'Helvetica';font-size:49.99px;fill:#000000" text-anchor="end">100</text>
	<line x1="394.86" y1="1865.82" x2="394.86" y2="364.31" style="stroke:#000000;stroke-width:4.00"/>
	<text x="136.21" y="1076.84" style="font-family:'Helvetica';font-size:60.03px;fill:#000000" transform="rotate(-90 136.21,1076.84)" text-anchor="middle">Employment</text>
	<line x1="450.98" y1="1921.94" x2="450.98" y2="1957.33" style="stroke:#000000;stroke-width:4.00"/>
	<text x="450.98" y="2009.98" style="font-family:'Helvetica';font-size:49.99px;fill:#000000" text-anchor="middle">0</text>
	<line x1="747.71" y1="1921.94" x2="747.71" y2="1957.33" style="stroke:#000000;stroke-width:4.00"/>
	<text x="747.71" y="2009.98" style="font-family:'Helvetica';font-size:49.99px;fill:#000000" text-anchor="middle">5</text>
	<line x1="1044.43" y1="1921.94" x2="1044.43" y2="1957.33" style="stroke:#000000;stroke-width:4.00"/>
	<text x="1044.43" y="2009.98" style="font-family:'Helvetica';font-size:49.99px;fill:#000000" text-anchor="middle">10</text>
	<line x1="1341.23" y1="1921.94" x2="1341.23" y2="1957.33" style="stroke:#000000;stroke-width:4.00"/>
	<text x="1341.23" y="2009.98" style="font-family:'Helvetica';font-size:49.99px;fill:#000000" text-anchor="middle">15</text>
	<line x1="1637.95" y1="1921.94" x2="1637.95" y2="1957.33" style="stroke:#000000;stroke-width:4.00"/>
	<text x="1637.95" y="2009.98" style="font-family:'Helvetica';font-size:49.99px;fill:#000000" text-anchor="middle">20</text>
	<line x1="1934.68" y1="1921.94" x2="1934.68" y2="1957.33" style="stroke:#000000;stroke-width:4.00"/>
	<text x="1934.68" y="2009.98" style="font-family:'Helvetica';font-size:49.99px;fill:#000000" text-anchor="middle">25</text>
	<line x1="2231.48" y1="1921.94" x2="2231.48" y2="1957.33" style="stroke:#000000;stroke-width:4.00"/>
	<text x="2231.48" y="2009.98" style="font-family:'Helvetica';font-size:49.99px;fill:#000000" text-anchor="middle">30</text>
	<line x1="450.98" y1="1921.94" x2="2290.79" y2="1921.94" style="stroke:#000000;stroke-width:4.00"/>
	<text x="1332.62" y="2152.37" style="font-family:'Helvetica';font-size:60.03px;fill:#000000" text-anchor="middle">Duration of stay</text>
	<text x="161.52" y="2396.65" style="font-family:'Helvetica';font-size:60.03px;fill:#000000">Arr. cohort: </text>
	<text x="610.98" y="2396.65" style="font-family:'Helvetica';font-size:60.03px;fill:#000000">1964-73</text>
	<text x="965.98" y="2396.65" style="font-family:'Helvetica';font-size:60.03px;fill:#000000">1974-83</text>
	<text x="1320.98" y="2396.65" style="font-family:'Helvetica';font-size:60.03px;fill:#000000">1984-93</text>
	<text x="1675.98" y="2396.65" style="font-family:'Helvetica';font-size:60.03px;fill:#000000">1994-03</text>
	<text x="2030.98" y="2396.65" style="font-family:'Helvetica';font-size:60.03px;fill:#000000">2004-10</text>
	<line x1="610.98" y1="2301.32" x2="831.01" y2="2301.32" style="stroke:#E69F00;stroke-width:10.00"/>
	<line x1="965.98" y1="2301.32" x2="1185.93" y2="2301.32" style="stroke:#56B4E9;stroke-width:10.00"/>
	<line x1="1320.98" y1="2301.32" x2="1540.93" y2="2301.32" style="stroke:#009E73;stroke-width:10.00"/>
	<line x1="1675.98" y1="2301.32" x2="1895.93" y2="2301.32" style="stroke:#D55E00;stroke-width:10.00"/>
	<line x1="2030.98" y1="2301.32" x2="2250.93" y2="2301.32" style="stroke:#CC79A7;stroke-width:10.00"/>
	<text x="1370.89" y="239.12" style="font-family:'Helvetica';font-size:60.03px;fill:#000000" text-anchor="middle">Percent, including East Germany</text>
	<text x="1370.89" y="154.88" style="font-family:'Helvetica';font-size:90.01px;fill:#000000" text-anchor="middle">Employment, Men</text>
</svg>
