<?xml version="1.0" encoding="UTF-8" standalone="no"?>
<!-- This is a Stata 15.1 generated SVG file (http://www.stata.com) -->

<svg version="1.1" width="3.54in" height="3.54in" viewBox="0 0 2551 2551" xmlns="http://www.w3.org/2000/svg" xmlns:xlink="http://www.w3.org/1999/xlink">
	<desc>Stata Graph - Graph</desc>
	<rect x="0" y="0" width="2551" height="2551" style="fill:#FFFFFF;stroke:none"/>
	<rect x="0.00" y="0.08" width="2551.00" height="2550.92" style="fill:#FFFFFF"/>
	<rect x="2.55" y="2.63" width="2545.90" height="2545.82" style="fill:none;stroke:#FFFFFF;stroke-width:5.10"/>
	<line x1="351.09" y1="1904.40" x2="2346.91" y2="1904.40" style="stroke:#E8E8E8;stroke-width:4.00"/>
	<line x1="351.09" y1="1750.38" x2="2346.91" y2="1750.38" style="stroke:#E8E8E8;stroke-width:4.00"/>
	<line x1="351.09" y1="1596.37" x2="2346.91" y2="1596.37" style="stroke:#E8E8E8;stroke-width:4.00"/>
	<line x1="351.09" y1="1442.35" x2="2346.91" y2="1442.35" style="stroke:#E8E8E8;stroke-width:4.00"/>
	<line x1="351.09" y1="1288.33" x2="2346.91" y2="1288.33" style="stroke:#E8E8E8;stroke-width:4.00"/>
	<line x1="351.09" y1="1134.40" x2="2346.91" y2="1134.40" style="stroke:#E8E8E8;stroke-width:4.00"/>
	<line x1="351.09" y1="980.38" x2="2346.91" y2="980.38" style="stroke:#E8E8E8;stroke-width:4.00"/>
	<line x1="351.09" y1="826.36" x2="2346.91" y2="826.36" style="stroke:#E8E8E8;stroke-width:4.00"/>
	<line x1="351.09" y1="672.35" x2="2346.91" y2="672.35" style="stroke:#E8E8E8;stroke-width:4.00"/>
	<line x1="351.09" y1="518.33" x2="2346.91" y2="518.33" style="stroke:#E8E8E8;stroke-width:4.00"/>
	<line x1="351.09" y1="364.31" x2="2346.91" y2="364.31" style="stroke:#E8E8E8;stroke-width:4.00"/>
	<line x1="407.22" y1="1960.52" x2="407.22" y2="308.19" style="stroke:#E8E8E8;stroke-width:4.00"/>
	<line x1="642.63" y1="1960.52" x2="642.63" y2="308.19" style="stroke:#E8E8E8;stroke-width:4.00"/>
	<line x1="878.13" y1="1960.52" x2="878.13" y2="308.19" style="stroke:#E8E8E8;stroke-width:4.00"/>
	<line x1="1113.55" y1="1960.52" x2="1113.55" y2="308.19" style="stroke:#E8E8E8;stroke-width:4.00"/>
	<line x1="1349.04" y1="1960.52" x2="1349.04" y2="308.19" style="stroke:#E8E8E8;stroke-width:4.00"/>
	<line x1="1584.46" y1="1960.52" x2="1584.46" y2="308.19" style="stroke:#E8E8E8;stroke-width:4.00"/>
	<line x1="1819.88" y1="1960.52" x2="1819.88" y2="308.19" style="stroke:#E8E8E8;stroke-width:4.00"/>
	<line x1="2055.37" y1="1960.52" x2="2055.37" y2="308.19" style="stroke:#E8E8E8;stroke-width:4.00"/>
	<line x1="2290.79" y1="1960.52" x2="2290.79" y2="308.19" style="stroke:#E8E8E8;stroke-width:4.00"/>
	<line x1="407.22" y1="1895.87" x2="501.37" y2="1896.91" stroke-linecap="round" style="stroke:#E69F00;stroke-width:10.00"/>
	<line x1="501.37" y1="1896.91" x2="595.52" y2="1898.18" stroke-linecap="round" style="stroke:#E69F00;stroke-width:10.00"/>
	<line x1="595.52" y1="1898.18" x2="689.75" y2="1896.03" stroke-linecap="round" style="stroke:#E69F00;stroke-width:10.00"/>
	<line x1="689.75" y1="1896.03" x2="831.01" y2="1896.59" stroke-linecap="round" style="stroke:#E69F00;stroke-width:10.00"/>
	<line x1="831.01" y1="1896.59" x2="925.17" y2="1901.45" stroke-linecap="round" style="stroke:#E69F00;stroke-width:10.00"/>
	<line x1="925.17" y1="1901.45" x2="1019.32" y2="1898.18" stroke-linecap="round" style="stroke:#E69F00;stroke-width:10.00"/>
	<line x1="1019.32" y1="1898.18" x2="1113.55" y2="1898.42" stroke-linecap="round" style="stroke:#E69F00;stroke-width:10.00"/>
	<line x1="1113.55" y1="1898.42" x2="1207.70" y2="1897.31" stroke-linecap="round" style="stroke:#E69F00;stroke-width:10.00"/>
	<line x1="1207.70" y1="1897.31" x2="1301.85" y2="1892.44" stroke-linecap="round" style="stroke:#E69F00;stroke-width:10.00"/>
	<line x1="1301.85" y1="1892.44" x2="1348.96" y2="1893.64" stroke-linecap="round" style="stroke:#E69F00;stroke-width:10.00"/>
	<line x1="1348.96" y1="1893.64" x2="1396.08" y2="1899.30" stroke-linecap="round" style="stroke:#E69F00;stroke-width:10.00"/>
	<line x1="1396.08" y1="1899.30" x2="1443.11" y2="1896.11" stroke-linecap="round" style="stroke:#E69F00;stroke-width:10.00"/>
	<line x1="1443.11" y1="1896.11" x2="1490.23" y2="1876.74" stroke-linecap="round" style="stroke:#E69F00;stroke-width:10.00"/>
	<line x1="1490.23" y1="1876.74" x2="1537.34" y2="1888.86" stroke-linecap="round" style="stroke:#E69F00;stroke-width:10.00"/>
	<line x1="1537.34" y1="1888.86" x2="1584.38" y2="1873.39" stroke-linecap="round" style="stroke:#E69F00;stroke-width:10.00"/>
	<line x1="1584.38" y1="1873.39" x2="1631.50" y2="1893.48" stroke-linecap="round" style="stroke:#E69F00;stroke-width:10.00"/>
	<line x1="1631.50" y1="1893.48" x2="1678.61" y2="1882.00" stroke-linecap="round" style="stroke:#E69F00;stroke-width:10.00"/>
	<line x1="831.01" y1="1888.70" x2="925.17" y2="1891.09" stroke-linecap="round" style="stroke:#56B4E9;stroke-width:10.00"/>
	<line x1="925.17" y1="1891.09" x2="1019.32" y2="1896.51" stroke-linecap="round" style="stroke:#56B4E9;stroke-width:10.00"/>
	<line x1="1019.32" y1="1896.51" x2="1113.55" y2="1876.90" stroke-linecap="round" style="stroke:#56B4E9;stroke-width:10.00"/>
	<line x1="1113.55" y1="1876.90" x2="1207.70" y2="1887.42" stroke-linecap="round" style="stroke:#56B4E9;stroke-width:10.00"/>
	<line x1="1207.70" y1="1887.42" x2="1301.85" y2="1892.36" stroke-linecap="round" style="stroke:#56B4E9;stroke-width:10.00"/>
	<line x1="1301.85" y1="1892.36" x2="1348.96" y2="1875.94" stroke-linecap="round" style="stroke:#56B4E9;stroke-width:10.00"/>
	<line x1="1348.96" y1="1875.94" x2="1396.08" y2="1874.67" stroke-linecap="round" style="stroke:#56B4E9;stroke-width:10.00"/>
	<line x1="1396.08" y1="1874.67" x2="1443.11" y2="1869.48" stroke-linecap="round" style="stroke:#56B4E9;stroke-width:10.00"/>
	<line x1="1443.11" y1="1869.48" x2="1490.23" y2="1883.12" stroke-linecap="round" style="stroke:#56B4E9;stroke-width:10.00"/>
	<line x1="1490.23" y1="1883.12" x2="1537.34" y2="1879.21" stroke-linecap="round" style="stroke:#56B4E9;stroke-width:10.00"/>
	<line x1="1537.34" y1="1879.21" x2="1584.38" y2="1886.31" stroke-linecap="round" style="stroke:#56B4E9;stroke-width:10.00"/>
	<line x1="1584.38" y1="1886.31" x2="1631.50" y2="1885.91" stroke-linecap="round" style="stroke:#56B4E9;stroke-width:10.00"/>
	<line x1="1631.50" y1="1885.91" x2="1678.61" y2="1870.92" stroke-linecap="round" style="stroke:#56B4E9;stroke-width:10.00"/>
	<line x1="1678.61" y1="1870.92" x2="1725.65" y2="1833.53" stroke-linecap="round" style="stroke:#56B4E9;stroke-width:10.00"/>
	<line x1="1725.65" y1="1833.53" x2="1772.76" y2="1851.79" stroke-linecap="round" style="stroke:#56B4E9;stroke-width:10.00"/>
	<line x1="1772.76" y1="1851.79" x2="1819.88" y2="1811.21" stroke-linecap="round" style="stroke:#56B4E9;stroke-width:10.00"/>
	<line x1="1819.88" y1="1811.21" x2="1866.99" y2="1848.76" stroke-linecap="round" style="stroke:#56B4E9;stroke-width:10.00"/>
	<line x1="1866.99" y1="1848.76" x2="1914.03" y2="1854.34" stroke-linecap="round" style="stroke:#56B4E9;stroke-width:10.00"/>
	<line x1="1914.03" y1="1854.34" x2="1961.14" y2="1810.57" stroke-linecap="round" style="stroke:#56B4E9;stroke-width:10.00"/>
	<line x1="1961.14" y1="1810.57" x2="2008.26" y2="1866.30" stroke-linecap="round" style="stroke:#56B4E9;stroke-width:10.00"/>
	<line x1="2008.26" y1="1866.30" x2="2055.29" y2="1827.47" stroke-linecap="round" style="stroke:#56B4E9;stroke-width:10.00"/>
	<line x1="2055.29" y1="1827.47" x2="2102.41" y2="1826.60" stroke-linecap="round" style="stroke:#56B4E9;stroke-width:10.00"/>
	<line x1="2102.41" y1="1826.60" x2="2149.52" y2="1859.28" stroke-linecap="round" style="stroke:#56B4E9;stroke-width:10.00"/>
	<line x1="1301.85" y1="1877.30" x2="1348.96" y2="1843.97" stroke-linecap="round" style="stroke:#009E73;stroke-width:10.00"/>
	<line x1="1348.96" y1="1843.97" x2="1396.08" y2="1844.61" stroke-linecap="round" style="stroke:#009E73;stroke-width:10.00"/>
	<line x1="1396.08" y1="1844.61" x2="1443.11" y2="1857.13" stroke-linecap="round" style="stroke:#009E73;stroke-width:10.00"/>
	<line x1="1443.11" y1="1857.13" x2="1490.23" y2="1832.49" stroke-linecap="round" style="stroke:#009E73;stroke-width:10.00"/>
	<line x1="1490.23" y1="1832.49" x2="1537.34" y2="1845.09" stroke-linecap="round" style="stroke:#009E73;stroke-width:10.00"/>
	<line x1="1537.34" y1="1845.09" x2="1584.38" y2="1858.88" stroke-linecap="round" style="stroke:#009E73;stroke-width:10.00"/>
	<line x1="1584.38" y1="1858.88" x2="1631.50" y2="1862.15" stroke-linecap="round" style="stroke:#009E73;stroke-width:10.00"/>
	<line x1="1631.50" y1="1862.15" x2="1678.61" y2="1869.72" stroke-linecap="round" style="stroke:#009E73;stroke-width:10.00"/>
	<line x1="1678.61" y1="1869.72" x2="1725.65" y2="1861.59" stroke-linecap="round" style="stroke:#009E73;stroke-width:10.00"/>
	<line x1="1725.65" y1="1861.59" x2="1772.76" y2="1844.13" stroke-linecap="round" style="stroke:#009E73;stroke-width:10.00"/>
	<line x1="1772.76" y1="1844.13" x2="1819.88" y2="1800.85" stroke-linecap="round" style="stroke:#009E73;stroke-width:10.00"/>
	<line x1="1819.88" y1="1800.85" x2="1866.99" y2="1833.85" stroke-linecap="round" style="stroke:#009E73;stroke-width:10.00"/>
	<line x1="1866.99" y1="1833.85" x2="1914.03" y2="1838.95" stroke-linecap="round" style="stroke:#009E73;stroke-width:10.00"/>
	<line x1="1914.03" y1="1838.95" x2="1961.14" y2="1811.93" stroke-linecap="round" style="stroke:#009E73;stroke-width:10.00"/>
	<line x1="1961.14" y1="1811.93" x2="2008.26" y2="1839.35" stroke-linecap="round" style="stroke:#009E73;stroke-width:10.00"/>
	<line x1="2008.26" y1="1839.35" x2="2055.29" y2="1835.76" stroke-linecap="round" style="stroke:#009E73;stroke-width:10.00"/>
	<line x1="2055.29" y1="1835.76" x2="2102.41" y2="1827.07" stroke-linecap="round" style="stroke:#009E73;stroke-width:10.00"/>
	<line x1="2102.41" y1="1827.07" x2="2149.52" y2="1828.99" stroke-linecap="round" style="stroke:#009E73;stroke-width:10.00"/>
	<line x1="2149.52" y1="1828.99" x2="2196.56" y2="1836.24" stroke-linecap="round" style="stroke:#009E73;stroke-width:10.00"/>
	<line x1="2196.56" y1="1836.24" x2="2243.67" y2="1833.45" stroke-linecap="round" style="stroke:#009E73;stroke-width:10.00"/>
	<line x1="1725.65" y1="1818.54" x2="1772.76" y2="1809.70" stroke-linecap="round" style="stroke:#D55E00;stroke-width:10.00"/>
	<line x1="1772.76" y1="1809.70" x2="1819.88" y2="1786.18" stroke-linecap="round" style="stroke:#D55E00;stroke-width:10.00"/>
	<line x1="1819.88" y1="1786.18" x2="1866.99" y2="1777.41" stroke-linecap="round" style="stroke:#D55E00;stroke-width:10.00"/>
	<line x1="1866.99" y1="1777.41" x2="1914.03" y2="1780.60" stroke-linecap="round" style="stroke:#D55E00;stroke-width:10.00"/>
	<line x1="1914.03" y1="1780.60" x2="1961.14" y2="1795.27" stroke-linecap="round" style="stroke:#D55E00;stroke-width:10.00"/>
	<line x1="1961.14" y1="1795.27" x2="2008.26" y2="1808.42" stroke-linecap="round" style="stroke:#D55E00;stroke-width:10.00"/>
	<line x1="2008.26" y1="1808.42" x2="2055.29" y2="1825.08" stroke-linecap="round" style="stroke:#D55E00;stroke-width:10.00"/>
	<line x1="2055.29" y1="1825.08" x2="2102.41" y2="1819.02" stroke-linecap="round" style="stroke:#D55E00;stroke-width:10.00"/>
	<line x1="2102.41" y1="1819.02" x2="2149.52" y2="1815.67" stroke-linecap="round" style="stroke:#D55E00;stroke-width:10.00"/>
	<line x1="2149.52" y1="1815.67" x2="2196.56" y2="1829.47" stroke-linecap="round" style="stroke:#D55E00;stroke-width:10.00"/>
	<line x1="2196.56" y1="1829.47" x2="2243.67" y2="1838.47" stroke-linecap="round" style="stroke:#D55E00;stroke-width:10.00"/>
	<line x1="2055.29" y1="1812.41" x2="2102.41" y2="1795.82" stroke-linecap="round" style="stroke:#CC79A7;stroke-width:10.00"/>
	<line x1="2102.41" y1="1795.82" x2="2149.52" y2="1795.74" stroke-linecap="round" style="stroke:#CC79A7;stroke-width:10.00"/>
	<line x1="2149.52" y1="1795.74" x2="2196.56" y2="1812.25" stroke-linecap="round" style="stroke:#CC79A7;stroke-width:10.00"/>
	<line x1="2196.56" y1="1812.25" x2="2243.67" y2="1806.91" stroke-linecap="round" style="stroke:#CC79A7;stroke-width:10.00"/>
	<line x1="407.22" y1="1887.50" x2="458.24" y2="1887.82" style="stroke:#A0A0A0;stroke-width:10.00"/>
	<line x1="483.75" y1="1887.98" x2="501.37" y2="1888.14" style="stroke:#A0A0A0;stroke-width:10.00"/>
	<line x1="501.37" y1="1888.14" x2="534.77" y2="1888.46" style="stroke:#A0A0A0;stroke-width:10.00"/>
	<line x1="560.28" y1="1888.70" x2="595.52" y2="1889.02" style="stroke:#A0A0A0;stroke-width:10.00"/>
	<line x1="595.52" y1="1889.02" x2="611.30" y2="1888.86" style="stroke:#A0A0A0;stroke-width:10.00"/>
	<line x1="636.81" y1="1888.54" x2="687.83" y2="1887.98" style="stroke:#A0A0A0;stroke-width:10.00"/>
	<line x1="713.35" y1="1889.33" x2="764.29" y2="1892.28" style="stroke:#A0A0A0;stroke-width:10.00"/>
	<line x1="789.72" y1="1893.72" x2="831.01" y2="1896.11" style="stroke:#A0A0A0;stroke-width:10.00"/>
	<line x1="831.01" y1="1896.11" x2="840.66" y2="1896.11" style="stroke:#A0A0A0;stroke-width:10.00"/>
	<line x1="866.17" y1="1896.27" x2="917.19" y2="1896.43" style="stroke:#A0A0A0;stroke-width:10.00"/>
	<line x1="942.70" y1="1896.59" x2="993.73" y2="1896.75" style="stroke:#A0A0A0;stroke-width:10.00"/>
	<line x1="1019.24" y1="1896.83" x2="1019.32" y2="1896.83" style="stroke:#A0A0A0;stroke-width:10.00"/>
	<line x1="1019.32" y1="1896.83" x2="1070.26" y2="1895.63" style="stroke:#A0A0A0;stroke-width:10.00"/>
	<line x1="1095.77" y1="1895.07" x2="1113.55" y2="1894.68" style="stroke:#A0A0A0;stroke-width:10.00"/>
	<line x1="1113.55" y1="1894.68" x2="1146.79" y2="1893.48" style="stroke:#A0A0A0;stroke-width:10.00"/>
	<line x1="1172.30" y1="1892.60" x2="1207.70" y2="1891.41" style="stroke:#A0A0A0;stroke-width:10.00"/>
	<line x1="1207.70" y1="1891.41" x2="1223.24" y2="1891.17" style="stroke:#A0A0A0;stroke-width:10.00"/>
	<line x1="1248.75" y1="1890.77" x2="1299.78" y2="1890.13" style="stroke:#A0A0A0;stroke-width:10.00"/>
	<line x1="1325.29" y1="1888.86" x2="1348.96" y2="1887.58" style="stroke:#A0A0A0;stroke-width:10.00"/>
	<line x1="1348.96" y1="1887.58" x2="1376.23" y2="1886.54" style="stroke:#A0A0A0;stroke-width:10.00"/>
	<line x1="1401.74" y1="1885.59" x2="1443.11" y2="1884.71" style="stroke:#A0A0A0;stroke-width:10.00"/>
	<line x1="1443.11" y1="1884.71" x2="1452.76" y2="1884.39" style="stroke:#A0A0A0;stroke-width:10.00"/>
	<line x1="1478.27" y1="1883.59" x2="1490.23" y2="1883.28" style="stroke:#A0A0A0;stroke-width:10.00"/>
	<line x1="1490.23" y1="1883.28" x2="1529.21" y2="1884.71" style="stroke:#A0A0A0;stroke-width:10.00"/>
	<line x1="1554.72" y1="1884.63" x2="1584.38" y2="1883.83" style="stroke:#A0A0A0;stroke-width:10.00"/>
	<line x1="1584.38" y1="1883.83" x2="1605.75" y2="1883.75" style="stroke:#A0A0A0;stroke-width:10.00"/>
	<line x1="1631.26" y1="1883.67" x2="1631.50" y2="1883.67" style="stroke:#A0A0A0;stroke-width:10.00"/>
	<line x1="1631.50" y1="1883.67" x2="1678.61" y2="1880.17" style="stroke:#A0A0A0;stroke-width:10.00"/>
	<line x1="1678.61" y1="1880.17" x2="1682.20" y2="1879.93" style="stroke:#A0A0A0;stroke-width:10.00"/>
	<line x1="1707.63" y1="1878.25" x2="1725.65" y2="1877.14" style="stroke:#A0A0A0;stroke-width:10.00"/>
	<line x1="1725.65" y1="1877.14" x2="1758.49" y2="1874.03" style="stroke:#A0A0A0;stroke-width:10.00"/>
	<line x1="1782.33" y1="1866.85" x2="1819.88" y2="1843.66" style="stroke:#A0A0A0;stroke-width:10.00"/>
	<line x1="1819.88" y1="1843.66" x2="1826.57" y2="1845.25" style="stroke:#A0A0A0;stroke-width:10.00"/>
	<line x1="1851.45" y1="1851.07" x2="1866.99" y2="1854.74" style="stroke:#A0A0A0;stroke-width:10.00"/>
	<line x1="1866.99" y1="1854.74" x2="1901.99" y2="1853.94" style="stroke:#A0A0A0;stroke-width:10.00"/>
	<line x1="1927.34" y1="1851.47" x2="1961.14" y2="1845.89" style="stroke:#A0A0A0;stroke-width:10.00"/>
	<line x1="1961.14" y1="1845.89" x2="1977.57" y2="1849.32" style="stroke:#A0A0A0;stroke-width:10.00"/>
	<line x1="2002.52" y1="1854.58" x2="2008.26" y2="1855.77" style="stroke:#A0A0A0;stroke-width:10.00"/>
	<line x1="2008.26" y1="1855.77" x2="2053.46" y2="1856.89" style="stroke:#A0A0A0;stroke-width:10.00"/>
	<line x1="2078.97" y1="1857.53" x2="2102.41" y2="1858.16" style="stroke:#A0A0A0;stroke-width:10.00"/>
	<line x1="2102.41" y1="1858.16" x2="2129.91" y2="1857.21" style="stroke:#A0A0A0;stroke-width:10.00"/>
	<line x1="2155.42" y1="1856.81" x2="2196.56" y2="1858.32" style="stroke:#A0A0A0;stroke-width:10.00"/>
	<line x1="2196.56" y1="1858.32" x2="2206.44" y2="1858.08" style="stroke:#A0A0A0;stroke-width:10.00"/>
	<line x1="2231.96" y1="1857.53" x2="2243.67" y2="1857.29" style="stroke:#A0A0A0;stroke-width:10.00"/>
	<line x1="351.09" y1="1904.40" x2="315.70" y2="1904.40" style="stroke:#000000;stroke-width:4.00"/>
	<text x="297.92" y="1921.92" style="font-family:'Helvetica';font-size:49.99px;fill:#000000" text-anchor="end">0</text>
	<line x1="351.09" y1="1750.38" x2="315.70" y2="1750.38" style="stroke:#000000;stroke-width:4.00"/>
	<text x="297.92" y="1767.90" style="font-family:'Helvetica';font-size:49.99px;fill:#000000" text-anchor="end">.1</text>
	<line x1="351.09" y1="1596.37" x2="315.70" y2="1596.37" style="stroke:#000000;stroke-width:4.00"/>
	<text x="297.92" y="1613.88" style="font-family:'Helvetica';font-size:49.99px;fill:#000000" text-anchor="end">.2</text>
	<line x1="351.09" y1="1442.35" x2="315.70" y2="1442.35" style="stroke:#000000;stroke-width:4.00"/>
	<text x="297.92" y="1459.87" style="font-family:'Helvetica';font-size:49.99px;fill:#000000" text-anchor="end">.3</text>
	<line x1="351.09" y1="1288.33" x2="315.70" y2="1288.33" style="stroke:#000000;stroke-width:4.00"/>
	<text x="297.92" y="1305.85" style="font-family:'Helvetica';font-size:49.99px;fill:#000000" text-anchor="end">.4</text>
	<line x1="351.09" y1="1134.40" x2="315.70" y2="1134.40" style="stroke:#000000;stroke-width:4.00"/>
	<text x="297.92" y="1151.91" style="font-family:'Helvetica';font-size:49.99px;fill:#000000" text-anchor="end">.5</text>
	<line x1="351.09" y1="980.38" x2="315.70" y2="980.38" style="stroke:#000000;stroke-width:4.00"/>
	<text x="297.92" y="997.90" style="font-family:'Helvetica';font-size:49.99px;fill:#000000" text-anchor="end">.6</text>
	<line x1="351.09" y1="826.36" x2="315.70" y2="826.36" style="stroke:#000000;stroke-width:4.00"/>
	<text x="297.92" y="843.88" style="font-family:'Helvetica';font-size:49.99px;fill:#000000" text-anchor="end">.7</text>
	<line x1="351.09" y1="672.35" x2="315.70" y2="672.35" style="stroke:#000000;stroke-width:4.00"/>
	<text x="297.92" y="689.86" style="font-family:'Helvetica';font-size:49.99px;fill:#000000" text-anchor="end">.8</text>
	<line x1="351.09" y1="518.33" x2="315.70" y2="518.33" style="stroke:#000000;stroke-width:4.00"/>
	<text x="297.92" y="535.85" style="font-family:'Helvetica';font-size:49.99px;fill:#000000" text-anchor="end">.9</text>
	<line x1="351.09" y1="364.31" x2="315.70" y2="364.31" style="stroke:#000000;stroke-width:4.00"/>
	<text x="297.92" y="381.83" style="font-family:'Helvetica';font-size:49.99px;fill:#000000" text-anchor="end">1</text>
	<line x1="351.09" y1="1904.40" x2="351.09" y2="364.31" style="stroke:#000000;stroke-width:4.00"/>
	<text x="136.21" y="1096.13" style="font-family:'Helvetica';font-size:60.03px;fill:#000000" transform="rotate(-90 136.21,1096.13)" text-anchor="middle">Marginal employment</text>
	<line x1="407.22" y1="1960.52" x2="407.22" y2="1995.92" style="stroke:#000000;stroke-width:4.00"/>
	<text x="407.22" y="2048.56" style="font-family:'Helvetica';font-size:49.99px;fill:#000000" text-anchor="middle">1976</text>
	<line x1="642.63" y1="1960.52" x2="642.63" y2="1995.92" style="stroke:#000000;stroke-width:4.00"/>
	<text x="642.63" y="2048.56" style="font-family:'Helvetica';font-size:49.99px;fill:#000000" text-anchor="middle">1981</text>
	<line x1="878.13" y1="1960.52" x2="878.13" y2="1995.92" style="stroke:#000000;stroke-width:4.00"/>
	<text x="878.13" y="2048.56" style="font-family:'Helvetica';font-size:49.99px;fill:#000000" text-anchor="middle">1986</text>
	<line x1="1113.55" y1="1960.52" x2="1113.55" y2="1995.92" style="stroke:#000000;stroke-width:4.00"/>
	<text x="1113.55" y="2048.56" style="font-family:'Helvetica';font-size:49.99px;fill:#000000" text-anchor="middle">1991</text>
	<line x1="1349.04" y1="1960.52" x2="1349.04" y2="1995.92" style="stroke:#000000;stroke-width:4.00"/>
	<text x="1349.04" y="2048.56" style="font-family:'Helvetica';font-size:49.99px;fill:#000000" text-anchor="middle">1996</text>
	<line x1="1584.46" y1="1960.52" x2="1584.46" y2="1995.92" style="stroke:#000000;stroke-width:4.00"/>
	<text x="1584.46" y="2048.56" style="font-family:'Helvetica';font-size:49.99px;fill:#000000" text-anchor="middle">2001</text>
	<line x1="1819.88" y1="1960.52" x2="1819.88" y2="1995.92" style="stroke:#000000;stroke-width:4.00"/>
	<text x="1819.88" y="2048.56" style="font-family:'Helvetica';font-size:49.99px;fill:#000000" text-anchor="middle">2006</text>
	<line x1="2055.37" y1="1960.52" x2="2055.37" y2="1995.92" style="stroke:#000000;stroke-width:4.00"/>
	<text x="2055.37" y="2048.56" style="font-family:'Helvetica';font-size:49.99px;fill:#000000" text-anchor="middle">2011</text>
	<line x1="2290.79" y1="1960.52" x2="2290.79" y2="1995.92" style="stroke:#000000;stroke-width:4.00"/>
	<text x="2290.79" y="2048.56" style="font-family:'Helvetica';font-size:49.99px;fill:#000000" text-anchor="middle">2016</text>
	<line x1="407.22" y1="1960.52" x2="2290.79" y2="1960.52" style="stroke:#000000;stroke-width:4.00"/>
	<text x="1310.78" y="2190.96" style="font-family:'Helvetica';font-size:60.03px;fill:#000000" text-anchor="middle">Year</text>
	<text x="145.41" y="2396.65" style="font-family:'Helvetica';font-size:60.03px;fill:#000000">Arr. cohort: </text>
	<text x="536.36" y="2396.65" style="font-family:'Helvetica';font-size:60.03px;fill:#000000">1964-73</text>
	<text x="845.12" y="2396.65" style="font-family:'Helvetica';font-size:60.03px;fill:#000000">1974-83</text>
	<text x="1153.89" y="2396.65" style="font-family:'Helvetica';font-size:60.03px;fill:#000000">1984-93</text>
	<text x="1462.65" y="2396.65" style="font-family:'Helvetica';font-size:60.03px;fill:#000000">1994-03</text>
	<text x="1771.41" y="2396.65" style="font-family:'Helvetica';font-size:60.03px;fill:#000000">2004-10</text>
	<text x="2080.17" y="2396.65" style="font-family:'Helvetica';font-size:60.03px;fill:#000000">German</text>
	<line x1="536.36" y1="2320.61" x2="737.26" y2="2320.61" style="stroke:#E69F00;stroke-width:10.00"/>
	<line x1="845.12" y1="2320.61" x2="1046.02" y2="2320.61" style="stroke:#56B4E9;stroke-width:10.00"/>
	<line x1="1153.89" y1="2320.61" x2="1354.78" y2="2320.61" style="stroke:#009E73;stroke-width:10.00"/>
	<line x1="1462.65" y1="2320.61" x2="1663.54" y2="2320.61" style="stroke:#D55E00;stroke-width:10.00"/>
	<line x1="1771.41" y1="2320.61" x2="1972.30" y2="2320.61" style="stroke:#CC79A7;stroke-width:10.00"/>
	<line x1="2080.17" y1="2320.61" x2="2131.19" y2="2320.61" style="stroke:#A0A0A0;stroke-width:10.00"/>
	<line x1="2156.70" y1="2320.61" x2="2207.72" y2="2320.61" style="stroke:#A0A0A0;stroke-width:10.00"/>
	<line x1="2233.23" y1="2320.61" x2="2278.03" y2="2320.61" style="stroke:#A0A0A0;stroke-width:10.00"/>
	<text x="1349.04" y="239.12" style="font-family:'Helvetica';font-size:60.03px;fill:#000000" text-anchor="middle">Shares</text>
	<text x="1349.04" y="154.88" style="font-family:'Helvetica';font-size:90.01px;fill:#000000" text-anchor="middle">Marginal employment, Men</text>
</svg>
