<?xml version="1.0" encoding="UTF-8" standalone="no"?>
<!-- This is a Stata 15.1 generated SVG file (http://www.stata.com) -->

<svg version="1.1" width="3.54in" height="3.54in" viewBox="0 0 2551 2551" xmlns="http://www.w3.org/2000/svg" xmlns:xlink="http://www.w3.org/1999/xlink">
	<desc>Stata Graph - Graph</desc>
	<rect x="0" y="0" width="2551" height="2551" style="fill:#FFFFFF;stroke:none"/>
	<rect x="0.00" y="0.08" width="2551.00" height="2550.92" style="fill:#FFFFFF"/>
	<rect x="2.55" y="2.63" width="2545.90" height="2545.82" style="fill:none;stroke:#FFFFFF;stroke-width:5.10"/>
	<line x1="351.09" y1="1904.40" x2="2346.91" y2="1904.40" style="stroke:#E8E8E8;stroke-width:4.00"/>
	<line x1="351.09" y1="1750.38" x2="2346.91" y2="1750.38" style="stroke:#E8E8E8;stroke-width:4.00"/>
	<line x1="351.09" y1="1596.37" x2="2346.91" y2="1596.37" style="stroke:#E8E8E8;stroke-width:4.00"/>
	<line x1="351.09" y1="1442.35" x2="2346.91" y2="1442.35" style="stroke:#E8E8E8;stroke-width:4.00"/>
	<line x1="351.09" y1="1288.33" x2="2346.91" y2="1288.33" style="stroke:#E8E8E8;stroke-width:4.00"/>
	<line x1="351.09" y1="1134.40" x2="2346.91" y2="1134.40" style="stroke:#E8E8E8;stroke-width:4.00"/>
	<line x1="351.09" y1="980.38" x2="2346.91" y2="980.38" style="stroke:#E8E8E8;stroke-width:4.00"/>
	<line x1="351.09" y1="826.36" x2="2346.91" y2="826.36" style="stroke:#E8E8E8;stroke-width:4.00"/>
	<line x1="351.09" y1="672.35" x2="2346.91" y2="672.35" style="stroke:#E8E8E8;stroke-width:4.00"/>
	<line x1="351.09" y1="518.33" x2="2346.91" y2="518.33" style="stroke:#E8E8E8;stroke-width:4.00"/>
	<line x1="351.09" y1="364.31" x2="2346.91" y2="364.31" style="stroke:#E8E8E8;stroke-width:4.00"/>
	<line x1="407.22" y1="1960.52" x2="407.22" y2="308.19" style="stroke:#E8E8E8;stroke-width:4.00"/>
	<line x1="642.63" y1="1960.52" x2="642.63" y2="308.19" style="stroke:#E8E8E8;stroke-width:4.00"/>
	<line x1="878.13" y1="1960.52" x2="878.13" y2="308.19" style="stroke:#E8E8E8;stroke-width:4.00"/>
	<line x1="1113.55" y1="1960.52" x2="1113.55" y2="308.19" style="stroke:#E8E8E8;stroke-width:4.00"/>
	<line x1="1349.04" y1="1960.52" x2="1349.04" y2="308.19" style="stroke:#E8E8E8;stroke-width:4.00"/>
	<line x1="1584.46" y1="1960.52" x2="1584.46" y2="308.19" style="stroke:#E8E8E8;stroke-width:4.00"/>
	<line x1="1819.88" y1="1960.52" x2="1819.88" y2="308.19" style="stroke:#E8E8E8;stroke-width:4.00"/>
	<line x1="2055.37" y1="1960.52" x2="2055.37" y2="308.19" style="stroke:#E8E8E8;stroke-width:4.00"/>
	<line x1="2290.79" y1="1960.52" x2="2290.79" y2="308.19" style="stroke:#E8E8E8;stroke-width:4.00"/>
	<line x1="407.22" y1="1874.99" x2="501.37" y2="1871.64" stroke-linecap="round" style="stroke:#E69F00;stroke-width:10.00"/>
	<line x1="501.37" y1="1871.64" x2="595.52" y2="1864.62" stroke-linecap="round" style="stroke:#E69F00;stroke-width:10.00"/>
	<line x1="595.52" y1="1864.62" x2="689.75" y2="1841.66" stroke-linecap="round" style="stroke:#E69F00;stroke-width:10.00"/>
	<line x1="689.75" y1="1841.66" x2="831.01" y2="1863.35" stroke-linecap="round" style="stroke:#E69F00;stroke-width:10.00"/>
	<line x1="831.01" y1="1863.35" x2="925.17" y2="1871.40" stroke-linecap="round" style="stroke:#E69F00;stroke-width:10.00"/>
	<line x1="925.17" y1="1871.40" x2="1019.32" y2="1866.22" stroke-linecap="round" style="stroke:#E69F00;stroke-width:10.00"/>
	<line x1="1019.32" y1="1866.22" x2="1113.55" y2="1840.15" stroke-linecap="round" style="stroke:#E69F00;stroke-width:10.00"/>
	<line x1="1113.55" y1="1840.15" x2="1207.70" y2="1814.80" stroke-linecap="round" style="stroke:#E69F00;stroke-width:10.00"/>
	<line x1="1207.70" y1="1814.80" x2="1301.85" y2="1817.67" stroke-linecap="round" style="stroke:#E69F00;stroke-width:10.00"/>
	<line x1="1301.85" y1="1817.67" x2="1348.96" y2="1776.93" stroke-linecap="round" style="stroke:#E69F00;stroke-width:10.00"/>
	<line x1="1348.96" y1="1776.93" x2="1396.08" y2="1756.36" stroke-linecap="round" style="stroke:#E69F00;stroke-width:10.00"/>
	<line x1="1396.08" y1="1756.36" x2="1443.11" y2="1761.70" stroke-linecap="round" style="stroke:#E69F00;stroke-width:10.00"/>
	<line x1="1443.11" y1="1761.70" x2="1490.23" y2="1717.70" stroke-linecap="round" style="stroke:#E69F00;stroke-width:10.00"/>
	<line x1="1490.23" y1="1717.70" x2="1537.34" y2="1738.75" stroke-linecap="round" style="stroke:#E69F00;stroke-width:10.00"/>
	<line x1="1537.34" y1="1738.75" x2="1584.38" y2="1694.66" stroke-linecap="round" style="stroke:#E69F00;stroke-width:10.00"/>
	<line x1="1584.38" y1="1694.66" x2="1631.50" y2="1687.81" stroke-linecap="round" style="stroke:#E69F00;stroke-width:10.00"/>
	<line x1="1631.50" y1="1687.81" x2="1678.61" y2="1686.37" stroke-linecap="round" style="stroke:#E69F00;stroke-width:10.00"/>
	<line x1="831.01" y1="1812.88" x2="925.17" y2="1769.28" stroke-linecap="round" style="stroke:#56B4E9;stroke-width:10.00"/>
	<line x1="925.17" y1="1769.28" x2="1019.32" y2="1787.21" stroke-linecap="round" style="stroke:#56B4E9;stroke-width:10.00"/>
	<line x1="1019.32" y1="1787.21" x2="1113.55" y2="1726.31" stroke-linecap="round" style="stroke:#56B4E9;stroke-width:10.00"/>
	<line x1="1113.55" y1="1726.31" x2="1207.70" y2="1722.48" stroke-linecap="round" style="stroke:#56B4E9;stroke-width:10.00"/>
	<line x1="1207.70" y1="1722.48" x2="1301.85" y2="1704.07" stroke-linecap="round" style="stroke:#56B4E9;stroke-width:10.00"/>
	<line x1="1301.85" y1="1704.07" x2="1348.96" y2="1698.89" stroke-linecap="round" style="stroke:#56B4E9;stroke-width:10.00"/>
	<line x1="1348.96" y1="1698.89" x2="1396.08" y2="1679.75" stroke-linecap="round" style="stroke:#56B4E9;stroke-width:10.00"/>
	<line x1="1396.08" y1="1679.75" x2="1443.11" y2="1656.32" stroke-linecap="round" style="stroke:#56B4E9;stroke-width:10.00"/>
	<line x1="1443.11" y1="1656.32" x2="1490.23" y2="1634.95" stroke-linecap="round" style="stroke:#56B4E9;stroke-width:10.00"/>
	<line x1="1490.23" y1="1634.95" x2="1537.34" y2="1659.27" stroke-linecap="round" style="stroke:#56B4E9;stroke-width:10.00"/>
	<line x1="1537.34" y1="1659.27" x2="1584.38" y2="1584.09" stroke-linecap="round" style="stroke:#56B4E9;stroke-width:10.00"/>
	<line x1="1584.38" y1="1584.09" x2="1631.50" y2="1641.65" stroke-linecap="round" style="stroke:#56B4E9;stroke-width:10.00"/>
	<line x1="1631.50" y1="1641.65" x2="1678.61" y2="1638.70" stroke-linecap="round" style="stroke:#56B4E9;stroke-width:10.00"/>
	<line x1="1678.61" y1="1638.70" x2="1725.65" y2="1600.67" stroke-linecap="round" style="stroke:#56B4E9;stroke-width:10.00"/>
	<line x1="1725.65" y1="1600.67" x2="1772.76" y2="1619.88" stroke-linecap="round" style="stroke:#56B4E9;stroke-width:10.00"/>
	<line x1="1772.76" y1="1619.88" x2="1819.88" y2="1533.31" stroke-linecap="round" style="stroke:#56B4E9;stroke-width:10.00"/>
	<line x1="1819.88" y1="1533.31" x2="1866.99" y2="1547.58" stroke-linecap="round" style="stroke:#56B4E9;stroke-width:10.00"/>
	<line x1="1866.99" y1="1547.58" x2="1914.03" y2="1572.77" stroke-linecap="round" style="stroke:#56B4E9;stroke-width:10.00"/>
	<line x1="1914.03" y1="1572.77" x2="1961.14" y2="1572.45" stroke-linecap="round" style="stroke:#56B4E9;stroke-width:10.00"/>
	<line x1="1961.14" y1="1572.45" x2="2008.26" y2="1626.18" stroke-linecap="round" style="stroke:#56B4E9;stroke-width:10.00"/>
	<line x1="2008.26" y1="1626.18" x2="2055.29" y2="1570.70" stroke-linecap="round" style="stroke:#56B4E9;stroke-width:10.00"/>
	<line x1="2055.29" y1="1570.70" x2="2102.41" y2="1560.97" stroke-linecap="round" style="stroke:#56B4E9;stroke-width:10.00"/>
	<line x1="1301.85" y1="1681.91" x2="1348.96" y2="1615.34" stroke-linecap="round" style="stroke:#009E73;stroke-width:10.00"/>
	<line x1="1348.96" y1="1615.34" x2="1396.08" y2="1602.19" stroke-linecap="round" style="stroke:#009E73;stroke-width:10.00"/>
	<line x1="1396.08" y1="1602.19" x2="1443.11" y2="1564.32" stroke-linecap="round" style="stroke:#009E73;stroke-width:10.00"/>
	<line x1="1443.11" y1="1564.32" x2="1490.23" y2="1578.75" stroke-linecap="round" style="stroke:#009E73;stroke-width:10.00"/>
	<line x1="1490.23" y1="1578.75" x2="1537.34" y2="1528.85" stroke-linecap="round" style="stroke:#009E73;stroke-width:10.00"/>
	<line x1="1537.34" y1="1528.85" x2="1584.38" y2="1535.86" stroke-linecap="round" style="stroke:#009E73;stroke-width:10.00"/>
	<line x1="1584.38" y1="1535.86" x2="1631.50" y2="1528.61" stroke-linecap="round" style="stroke:#009E73;stroke-width:10.00"/>
	<line x1="1631.50" y1="1528.61" x2="1678.61" y2="1495.60" stroke-linecap="round" style="stroke:#009E73;stroke-width:10.00"/>
	<line x1="1678.61" y1="1495.60" x2="1725.65" y2="1461.48" stroke-linecap="round" style="stroke:#009E73;stroke-width:10.00"/>
	<line x1="1725.65" y1="1461.48" x2="1772.76" y2="1469.62" stroke-linecap="round" style="stroke:#009E73;stroke-width:10.00"/>
	<line x1="1772.76" y1="1469.62" x2="1819.88" y2="1489.15" stroke-linecap="round" style="stroke:#009E73;stroke-width:10.00"/>
	<line x1="1819.88" y1="1489.15" x2="1866.99" y2="1501.02" stroke-linecap="round" style="stroke:#009E73;stroke-width:10.00"/>
	<line x1="1866.99" y1="1501.02" x2="1914.03" y2="1465.79" stroke-linecap="round" style="stroke:#009E73;stroke-width:10.00"/>
	<line x1="1914.03" y1="1465.79" x2="1961.14" y2="1475.35" stroke-linecap="round" style="stroke:#009E73;stroke-width:10.00"/>
	<line x1="1961.14" y1="1475.35" x2="2008.26" y2="1507.40" stroke-linecap="round" style="stroke:#009E73;stroke-width:10.00"/>
	<line x1="2008.26" y1="1507.40" x2="2055.29" y2="1527.89" stroke-linecap="round" style="stroke:#009E73;stroke-width:10.00"/>
	<line x1="2055.29" y1="1527.89" x2="2102.41" y2="1536.42" stroke-linecap="round" style="stroke:#009E73;stroke-width:10.00"/>
	<line x1="2102.41" y1="1536.42" x2="2149.52" y2="1540.41" stroke-linecap="round" style="stroke:#009E73;stroke-width:10.00"/>
	<line x1="2149.52" y1="1540.41" x2="2196.56" y2="1552.28" stroke-linecap="round" style="stroke:#009E73;stroke-width:10.00"/>
	<line x1="2196.56" y1="1552.28" x2="2243.67" y2="1520.95" stroke-linecap="round" style="stroke:#009E73;stroke-width:10.00"/>
	<line x1="1725.65" y1="1536.90" x2="1772.76" y2="1502.70" stroke-linecap="round" style="stroke:#D55E00;stroke-width:10.00"/>
	<line x1="1772.76" y1="1502.70" x2="1819.88" y2="1440.28" stroke-linecap="round" style="stroke:#D55E00;stroke-width:10.00"/>
	<line x1="1819.88" y1="1440.28" x2="1866.99" y2="1468.42" stroke-linecap="round" style="stroke:#D55E00;stroke-width:10.00"/>
	<line x1="1866.99" y1="1468.42" x2="1914.03" y2="1471.85" stroke-linecap="round" style="stroke:#D55E00;stroke-width:10.00"/>
	<line x1="1914.03" y1="1471.85" x2="1961.14" y2="1473.52" stroke-linecap="round" style="stroke:#D55E00;stroke-width:10.00"/>
	<line x1="1961.14" y1="1473.52" x2="2008.26" y2="1487.63" stroke-linecap="round" style="stroke:#D55E00;stroke-width:10.00"/>
	<line x1="2008.26" y1="1487.63" x2="2055.29" y2="1497.28" stroke-linecap="round" style="stroke:#D55E00;stroke-width:10.00"/>
	<line x1="2055.29" y1="1497.28" x2="2102.41" y2="1501.58" stroke-linecap="round" style="stroke:#D55E00;stroke-width:10.00"/>
	<line x1="2102.41" y1="1501.58" x2="2149.52" y2="1486.44" stroke-linecap="round" style="stroke:#D55E00;stroke-width:10.00"/>
	<line x1="2149.52" y1="1486.44" x2="2196.56" y2="1514.90" stroke-linecap="round" style="stroke:#D55E00;stroke-width:10.00"/>
	<line x1="2196.56" y1="1514.90" x2="2243.67" y2="1493.37" stroke-linecap="round" style="stroke:#D55E00;stroke-width:10.00"/>
	<line x1="2055.29" y1="1535.38" x2="2102.41" y2="1537.46" stroke-linecap="round" style="stroke:#CC79A7;stroke-width:10.00"/>
	<line x1="2102.41" y1="1537.46" x2="2149.52" y2="1553.00" stroke-linecap="round" style="stroke:#CC79A7;stroke-width:10.00"/>
	<line x1="2149.52" y1="1553.00" x2="2196.56" y2="1566.31" stroke-linecap="round" style="stroke:#CC79A7;stroke-width:10.00"/>
	<line x1="2196.56" y1="1566.31" x2="2243.67" y2="1528.21" stroke-linecap="round" style="stroke:#CC79A7;stroke-width:10.00"/>
	<line x1="407.22" y1="1814.80" x2="458.08" y2="1810.57" style="stroke:#A0A0A0;stroke-width:10.00"/>
	<line x1="483.51" y1="1808.50" x2="501.37" y2="1806.98" style="stroke:#A0A0A0;stroke-width:10.00"/>
	<line x1="501.37" y1="1806.98" x2="534.45" y2="1808.10" style="stroke:#A0A0A0;stroke-width:10.00"/>
	<line x1="559.96" y1="1808.90" x2="595.52" y2="1810.09" style="stroke:#A0A0A0;stroke-width:10.00"/>
	<line x1="595.52" y1="1810.09" x2="610.82" y2="1807.78" style="stroke:#A0A0A0;stroke-width:10.00"/>
	<line x1="636.02" y1="1803.80" x2="686.40" y2="1795.98" style="stroke:#A0A0A0;stroke-width:10.00"/>
	<line x1="711.83" y1="1797.26" x2="762.69" y2="1801.32" style="stroke:#A0A0A0;stroke-width:10.00"/>
	<line x1="788.12" y1="1803.32" x2="831.01" y2="1806.75" style="stroke:#A0A0A0;stroke-width:10.00"/>
	<line x1="831.01" y1="1806.75" x2="839.07" y2="1806.91" style="stroke:#A0A0A0;stroke-width:10.00"/>
	<line x1="864.58" y1="1807.54" x2="915.60" y2="1808.66" style="stroke:#A0A0A0;stroke-width:10.00"/>
	<line x1="941.11" y1="1808.50" x2="992.05" y2="1807.30" style="stroke:#A0A0A0;stroke-width:10.00"/>
	<line x1="1017.56" y1="1806.67" x2="1019.32" y2="1806.67" style="stroke:#A0A0A0;stroke-width:10.00"/>
	<line x1="1019.32" y1="1806.67" x2="1064.76" y2="1787.77" style="stroke:#A0A0A0;stroke-width:10.00"/>
	<line x1="1088.35" y1="1777.97" x2="1113.55" y2="1767.44" style="stroke:#A0A0A0;stroke-width:10.00"/>
	<line x1="1113.55" y1="1767.44" x2="1137.22" y2="1766.09" style="stroke:#A0A0A0;stroke-width:10.00"/>
	<line x1="1162.73" y1="1764.65" x2="1207.70" y2="1762.10" style="stroke:#A0A0A0;stroke-width:10.00"/>
	<line x1="1207.70" y1="1762.10" x2="1213.60" y2="1761.31" style="stroke:#A0A0A0;stroke-width:10.00"/>
	<line x1="1238.95" y1="1758.04" x2="1289.49" y2="1751.42" style="stroke:#A0A0A0;stroke-width:10.00"/>
	<line x1="1314.28" y1="1746.00" x2="1348.96" y2="1735.48" style="stroke:#A0A0A0;stroke-width:10.00"/>
	<line x1="1348.96" y1="1735.48" x2="1363.23" y2="1731.57" style="stroke:#A0A0A0;stroke-width:10.00"/>
	<line x1="1387.87" y1="1724.79" x2="1396.08" y2="1722.56" style="stroke:#A0A0A0;stroke-width:10.00"/>
	<line x1="1396.08" y1="1722.56" x2="1437.69" y2="1713.95" style="stroke:#A0A0A0;stroke-width:10.00"/>
	<line x1="1462.25" y1="1707.10" x2="1490.23" y2="1698.73" style="stroke:#A0A0A0;stroke-width:10.00"/>
	<line x1="1490.23" y1="1698.73" x2="1511.99" y2="1696.65" style="stroke:#A0A0A0;stroke-width:10.00"/>
	<line x1="1537.34" y1="1694.34" x2="1537.34" y2="1694.34" style="stroke:#A0A0A0;stroke-width:10.00"/>
	<line x1="1537.34" y1="1694.34" x2="1584.38" y2="1690.04" style="stroke:#A0A0A0;stroke-width:10.00"/>
	<line x1="1584.38" y1="1690.04" x2="1588.13" y2="1689.56" style="stroke:#A0A0A0;stroke-width:10.00"/>
	<line x1="1613.48" y1="1686.69" x2="1631.50" y2="1684.70" style="stroke:#A0A0A0;stroke-width:10.00"/>
	<line x1="1631.50" y1="1684.70" x2="1664.42" y2="1684.70" style="stroke:#A0A0A0;stroke-width:10.00"/>
	<line x1="1689.77" y1="1682.94" x2="1725.65" y2="1677.12" style="stroke:#A0A0A0;stroke-width:10.00"/>
	<line x1="1725.65" y1="1677.12" x2="1739.68" y2="1672.90" style="stroke:#A0A0A0;stroke-width:10.00"/>
	<line x1="1764.07" y1="1665.48" x2="1772.76" y2="1662.85" style="stroke:#A0A0A0;stroke-width:10.00"/>
	<line x1="1772.76" y1="1662.85" x2="1807.04" y2="1638.70" style="stroke:#A0A0A0;stroke-width:10.00"/>
	<line x1="1829.52" y1="1631.05" x2="1866.99" y2="1636.55" style="stroke:#A0A0A0;stroke-width:10.00"/>
	<line x1="1866.99" y1="1636.55" x2="1879.99" y2="1638.94" style="stroke:#A0A0A0;stroke-width:10.00"/>
	<line x1="1905.02" y1="1643.56" x2="1914.03" y2="1645.24" style="stroke:#A0A0A0;stroke-width:10.00"/>
	<line x1="1914.03" y1="1645.24" x2="1955.80" y2="1648.42" style="stroke:#A0A0A0;stroke-width:10.00"/>
	<line x1="1980.75" y1="1653.53" x2="2008.26" y2="1660.14" style="stroke:#A0A0A0;stroke-width:10.00"/>
	<line x1="2008.26" y1="1660.14" x2="2030.66" y2="1664.29" style="stroke:#A0A0A0;stroke-width:10.00"/>
	<line x1="2055.69" y1="1668.91" x2="2102.41" y2="1676.09" style="stroke:#A0A0A0;stroke-width:10.00"/>
	<line x1="2102.41" y1="1676.09" x2="2106.08" y2="1676.88" style="stroke:#A0A0A0;stroke-width:10.00"/>
	<line x1="2131.03" y1="1682.30" x2="2149.52" y2="1686.37" style="stroke:#A0A0A0;stroke-width:10.00"/>
	<line x1="2149.52" y1="1686.37" x2="2180.93" y2="1693.07" style="stroke:#A0A0A0;stroke-width:10.00"/>
	<line x1="2205.97" y1="1697.69" x2="2243.67" y2="1702.71" style="stroke:#A0A0A0;stroke-width:10.00"/>
	<line x1="351.09" y1="1904.40" x2="315.70" y2="1904.40" style="stroke:#000000;stroke-width:4.00"/>
	<text x="297.92" y="1921.92" style="font-family:'Helvetica';font-size:49.99px;fill:#000000" text-anchor="end">0</text>
	<line x1="351.09" y1="1750.38" x2="315.70" y2="1750.38" style="stroke:#000000;stroke-width:4.00"/>
	<text x="297.92" y="1767.90" style="font-family:'Helvetica';font-size:49.99px;fill:#000000" text-anchor="end">.1</text>
	<line x1="351.09" y1="1596.37" x2="315.70" y2="1596.37" style="stroke:#000000;stroke-width:4.00"/>
	<text x="297.92" y="1613.88" style="font-family:'Helvetica';font-size:49.99px;fill:#000000" text-anchor="end">.2</text>
	<line x1="351.09" y1="1442.35" x2="315.70" y2="1442.35" style="stroke:#000000;stroke-width:4.00"/>
	<text x="297.92" y="1459.87" style="font-family:'Helvetica';font-size:49.99px;fill:#000000" text-anchor="end">.3</text>
	<line x1="351.09" y1="1288.33" x2="315.70" y2="1288.33" style="stroke:#000000;stroke-width:4.00"/>
	<text x="297.92" y="1305.85" style="font-family:'Helvetica';font-size:49.99px;fill:#000000" text-anchor="end">.4</text>
	<line x1="351.09" y1="1134.40" x2="315.70" y2="1134.40" style="stroke:#000000;stroke-width:4.00"/>
	<text x="297.92" y="1151.91" style="font-family:'Helvetica';font-size:49.99px;fill:#000000" text-anchor="end">.5</text>
	<line x1="351.09" y1="980.38" x2="315.70" y2="980.38" style="stroke:#000000;stroke-width:4.00"/>
	<text x="297.92" y="997.90" style="font-family:'Helvetica';font-size:49.99px;fill:#000000" text-anchor="end">.6</text>
	<line x1="351.09" y1="826.36" x2="315.70" y2="826.36" style="stroke:#000000;stroke-width:4.00"/>
	<text x="297.92" y="843.88" style="font-family:'Helvetica';font-size:49.99px;fill:#000000" text-anchor="end">.7</text>
	<line x1="351.09" y1="672.35" x2="315.70" y2="672.35" style="stroke:#000000;stroke-width:4.00"/>
	<text x="297.92" y="689.86" style="font-family:'Helvetica';font-size:49.99px;fill:#000000" text-anchor="end">.8</text>
	<line x1="351.09" y1="518.33" x2="315.70" y2="518.33" style="stroke:#000000;stroke-width:4.00"/>
	<text x="297.92" y="535.85" style="font-family:'Helvetica';font-size:49.99px;fill:#000000" text-anchor="end">.9</text>
	<line x1="351.09" y1="364.31" x2="315.70" y2="364.31" style="stroke:#000000;stroke-width:4.00"/>
	<text x="297.92" y="381.83" style="font-family:'Helvetica';font-size:49.99px;fill:#000000" text-anchor="end">1</text>
	<line x1="351.09" y1="1904.40" x2="351.09" y2="364.31" style="stroke:#000000;stroke-width:4.00"/>
	<text x="136.21" y="1096.13" style="font-family:'Helvetica';font-size:60.03px;fill:#000000" transform="rotate(-90 136.21,1096.13)" text-anchor="middle">Marginal employment</text>
	<line x1="407.22" y1="1960.52" x2="407.22" y2="1995.92" style="stroke:#000000;stroke-width:4.00"/>
	<text x="407.22" y="2048.56" style="font-family:'Helvetica';font-size:49.99px;fill:#000000" text-anchor="middle">1976</text>
	<line x1="642.63" y1="1960.52" x2="642.63" y2="1995.92" style="stroke:#000000;stroke-width:4.00"/>
	<text x="642.63" y="2048.56" style="font-family:'Helvetica';font-size:49.99px;fill:#000000" text-anchor="middle">1981</text>
	<line x1="878.13" y1="1960.52" x2="878.13" y2="1995.92" style="stroke:#000000;stroke-width:4.00"/>
	<text x="878.13" y="2048.56" style="font-family:'Helvetica';font-size:49.99px;fill:#000000" text-anchor="middle">1986</text>
	<line x1="1113.55" y1="1960.52" x2="1113.55" y2="1995.92" style="stroke:#000000;stroke-width:4.00"/>
	<text x="1113.55" y="2048.56" style="font-family:'Helvetica';font-size:49.99px;fill:#000000" text-anchor="middle">1991</text>
	<line x1="1349.04" y1="1960.52" x2="1349.04" y2="1995.92" style="stroke:#000000;stroke-width:4.00"/>
	<text x="1349.04" y="2048.56" style="font-family:'Helvetica';font-size:49.99px;fill:#000000" text-anchor="middle">1996</text>
	<line x1="1584.46" y1="1960.52" x2="1584.46" y2="1995.92" style="stroke:#000000;stroke-width:4.00"/>
	<text x="1584.46" y="2048.56" style="font-family:'Helvetica';font-size:49.99px;fill:#000000" text-anchor="middle">2001</text>
	<line x1="1819.88" y1="1960.52" x2="1819.88" y2="1995.92" style="stroke:#000000;stroke-width:4.00"/>
	<text x="1819.88" y="2048.56" style="font-family:'Helvetica';font-size:49.99px;fill:#000000" text-anchor="middle">2006</text>
	<line x1="2055.37" y1="1960.52" x2="2055.37" y2="1995.92" style="stroke:#000000;stroke-width:4.00"/>
	<text x="2055.37" y="2048.56" style="font-family:'Helvetica';font-size:49.99px;fill:#000000" text-anchor="middle">2011</text>
	<line x1="2290.79" y1="1960.52" x2="2290.79" y2="1995.92" style="stroke:#000000;stroke-width:4.00"/>
	<text x="2290.79" y="2048.56" style="font-family:'Helvetica';font-size:49.99px;fill:#000000" text-anchor="middle">2016</text>
	<line x1="407.22" y1="1960.52" x2="2290.79" y2="1960.52" style="stroke:#000000;stroke-width:4.00"/>
	<text x="1310.78" y="2190.96" style="font-family:'Helvetica';font-size:60.03px;fill:#000000" text-anchor="middle">Year</text>
	<text x="145.41" y="2396.65" style="font-family:'Helvetica';font-size:60.03px;fill:#000000">Arr. cohort: </text>
	<text x="536.36" y="2396.65" style="font-family:'Helvetica';font-size:60.03px;fill:#000000">1964-73</text>
	<text x="845.12" y="2396.65" style="font-family:'Helvetica';font-size:60.03px;fill:#000000">1974-83</text>
	<text x="1153.89" y="2396.65" style="font-family:'Helvetica';font-size:60.03px;fill:#000000">1984-93</text>
	<text x="1462.65" y="2396.65" style="font-family:'Helvetica';font-size:60.03px;fill:#000000">1994-03</text>
	<text x="1771.41" y="2396.65" style="font-family:'Helvetica';font-size:60.03px;fill:#000000">2004-10</text>
	<text x="2080.17" y="2396.65" style="font-family:'Helvetica';font-size:60.03px;fill:#000000">German</text>
	<line x1="536.36" y1="2320.61" x2="737.26" y2="2320.61" style="stroke:#E69F00;stroke-width:10.00"/>
	<line x1="845.12" y1="2320.61" x2="1046.02" y2="2320.61" style="stroke:#56B4E9;stroke-width:10.00"/>
	<line x1="1153.89" y1="2320.61" x2="1354.78" y2="2320.61" style="stroke:#009E73;stroke-width:10.00"/>
	<line x1="1462.65" y1="2320.61" x2="1663.54" y2="2320.61" style="stroke:#D55E00;stroke-width:10.00"/>
	<line x1="1771.41" y1="2320.61" x2="1972.30" y2="2320.61" style="stroke:#CC79A7;stroke-width:10.00"/>
	<line x1="2080.17" y1="2320.61" x2="2131.19" y2="2320.61" style="stroke:#A0A0A0;stroke-width:10.00"/>
	<line x1="2156.70" y1="2320.61" x2="2207.72" y2="2320.61" style="stroke:#A0A0A0;stroke-width:10.00"/>
	<line x1="2233.23" y1="2320.61" x2="2278.03" y2="2320.61" style="stroke:#A0A0A0;stroke-width:10.00"/>
	<text x="1349.04" y="239.12" style="font-family:'Helvetica';font-size:60.03px;fill:#000000" text-anchor="middle">Shares</text>
	<text x="1349.04" y="154.88" style="font-family:'Helvetica';font-size:90.01px;fill:#000000" text-anchor="middle">Marginal employment, Women</text>
</svg>
