<?xml version="1.0" encoding="UTF-8" standalone="no"?>
<!-- This is a Stata 15.1 generated SVG file (http://www.stata.com) -->

<svg version="1.1" width="3.54in" height="3.54in" viewBox="0 0 2551 2551" xmlns="http://www.w3.org/2000/svg" xmlns:xlink="http://www.w3.org/1999/xlink">
	<desc>Stata Graph - Graph</desc>
	<rect x="0" y="0" width="2551" height="2551" style="fill:#FFFFFF;stroke:none"/>
	<rect x="0.00" y="0.08" width="2551.00" height="2550.92" style="fill:#FFFFFF"/>
	<rect x="2.55" y="2.63" width="2545.90" height="2545.82" style="fill:none;stroke:#FFFFFF;stroke-width:5.10"/>
	<line x1="351.09" y1="1865.82" x2="2346.91" y2="1865.82" style="stroke:#E8E8E8;stroke-width:4.00"/>
	<line x1="351.09" y1="1715.63" x2="2346.91" y2="1715.63" style="stroke:#E8E8E8;stroke-width:4.00"/>
	<line x1="351.09" y1="1565.52" x2="2346.91" y2="1565.52" style="stroke:#E8E8E8;stroke-width:4.00"/>
	<line x1="351.09" y1="1415.41" x2="2346.91" y2="1415.41" style="stroke:#E8E8E8;stroke-width:4.00"/>
	<line x1="351.09" y1="1265.22" x2="2346.91" y2="1265.22" style="stroke:#E8E8E8;stroke-width:4.00"/>
	<line x1="351.09" y1="1115.11" x2="2346.91" y2="1115.11" style="stroke:#E8E8E8;stroke-width:4.00"/>
	<line x1="351.09" y1="964.92" x2="2346.91" y2="964.92" style="stroke:#E8E8E8;stroke-width:4.00"/>
	<line x1="351.09" y1="814.81" x2="2346.91" y2="814.81" style="stroke:#E8E8E8;stroke-width:4.00"/>
	<line x1="351.09" y1="664.62" x2="2346.91" y2="664.62" style="stroke:#E8E8E8;stroke-width:4.00"/>
	<line x1="351.09" y1="514.50" x2="2346.91" y2="514.50" style="stroke:#E8E8E8;stroke-width:4.00"/>
	<line x1="351.09" y1="364.31" x2="2346.91" y2="364.31" style="stroke:#E8E8E8;stroke-width:4.00"/>
	<line x1="407.22" y1="1921.94" x2="407.22" y2="308.19" style="stroke:#E8E8E8;stroke-width:4.00"/>
	<line x1="642.63" y1="1921.94" x2="642.63" y2="308.19" style="stroke:#E8E8E8;stroke-width:4.00"/>
	<line x1="878.13" y1="1921.94" x2="878.13" y2="308.19" style="stroke:#E8E8E8;stroke-width:4.00"/>
	<line x1="1113.55" y1="1921.94" x2="1113.55" y2="308.19" style="stroke:#E8E8E8;stroke-width:4.00"/>
	<line x1="1349.04" y1="1921.94" x2="1349.04" y2="308.19" style="stroke:#E8E8E8;stroke-width:4.00"/>
	<line x1="1584.46" y1="1921.94" x2="1584.46" y2="308.19" style="stroke:#E8E8E8;stroke-width:4.00"/>
	<line x1="1819.88" y1="1921.94" x2="1819.88" y2="308.19" style="stroke:#E8E8E8;stroke-width:4.00"/>
	<line x1="2055.37" y1="1921.94" x2="2055.37" y2="308.19" style="stroke:#E8E8E8;stroke-width:4.00"/>
	<line x1="2290.79" y1="1921.94" x2="2290.79" y2="308.19" style="stroke:#E8E8E8;stroke-width:4.00"/>
	<line x1="407.22" y1="1684.62" x2="501.37" y2="1671.86" stroke-linecap="round" style="stroke:#E69F00;stroke-width:10.00"/>
	<line x1="501.37" y1="1671.86" x2="595.52" y2="1675.61" stroke-linecap="round" style="stroke:#E69F00;stroke-width:10.00"/>
	<line x1="595.52" y1="1675.61" x2="689.75" y2="1604.58" stroke-linecap="round" style="stroke:#E69F00;stroke-width:10.00"/>
	<line x1="689.75" y1="1604.58" x2="831.01" y2="1625.15" stroke-linecap="round" style="stroke:#E69F00;stroke-width:10.00"/>
	<line x1="831.01" y1="1625.15" x2="925.17" y2="1620.44" stroke-linecap="round" style="stroke:#E69F00;stroke-width:10.00"/>
	<line x1="925.17" y1="1620.44" x2="1019.32" y2="1600.51" stroke-linecap="round" style="stroke:#E69F00;stroke-width:10.00"/>
	<line x1="1019.32" y1="1600.51" x2="1113.55" y2="1586.72" stroke-linecap="round" style="stroke:#E69F00;stroke-width:10.00"/>
	<line x1="1113.55" y1="1586.72" x2="1207.70" y2="1515.93" stroke-linecap="round" style="stroke:#E69F00;stroke-width:10.00"/>
	<line x1="1207.70" y1="1515.93" x2="1301.85" y2="1514.74" stroke-linecap="round" style="stroke:#E69F00;stroke-width:10.00"/>
	<line x1="1301.85" y1="1514.74" x2="1348.96" y2="1521.11" stroke-linecap="round" style="stroke:#E69F00;stroke-width:10.00"/>
	<line x1="1348.96" y1="1521.11" x2="1396.08" y2="1487.79" stroke-linecap="round" style="stroke:#E69F00;stroke-width:10.00"/>
	<line x1="1396.08" y1="1487.79" x2="1443.11" y2="1490.18" stroke-linecap="round" style="stroke:#E69F00;stroke-width:10.00"/>
	<line x1="1443.11" y1="1490.18" x2="1490.23" y2="1469.54" stroke-linecap="round" style="stroke:#E69F00;stroke-width:10.00"/>
	<line x1="1490.23" y1="1469.54" x2="1537.34" y2="1550.05" stroke-linecap="round" style="stroke:#E69F00;stroke-width:10.00"/>
	<line x1="1537.34" y1="1550.05" x2="1584.38" y2="1487.87" stroke-linecap="round" style="stroke:#E69F00;stroke-width:10.00"/>
	<line x1="1584.38" y1="1487.87" x2="1631.50" y2="1494.33" stroke-linecap="round" style="stroke:#E69F00;stroke-width:10.00"/>
	<line x1="1631.50" y1="1494.33" x2="1678.61" y2="1516.17" stroke-linecap="round" style="stroke:#E69F00;stroke-width:10.00"/>
	<line x1="831.01" y1="1568.63" x2="925.17" y2="1534.51" stroke-linecap="round" style="stroke:#56B4E9;stroke-width:10.00"/>
	<line x1="925.17" y1="1534.51" x2="1019.32" y2="1449.53" stroke-linecap="round" style="stroke:#56B4E9;stroke-width:10.00"/>
	<line x1="1019.32" y1="1449.53" x2="1113.55" y2="1476.07" stroke-linecap="round" style="stroke:#56B4E9;stroke-width:10.00"/>
	<line x1="1113.55" y1="1476.07" x2="1207.70" y2="1426.49" stroke-linecap="round" style="stroke:#56B4E9;stroke-width:10.00"/>
	<line x1="1207.70" y1="1426.49" x2="1301.85" y2="1394.68" stroke-linecap="round" style="stroke:#56B4E9;stroke-width:10.00"/>
	<line x1="1301.85" y1="1394.68" x2="1348.96" y2="1418.28" stroke-linecap="round" style="stroke:#56B4E9;stroke-width:10.00"/>
	<line x1="1348.96" y1="1418.28" x2="1396.08" y2="1393.16" stroke-linecap="round" style="stroke:#56B4E9;stroke-width:10.00"/>
	<line x1="1396.08" y1="1393.16" x2="1443.11" y2="1443.63" stroke-linecap="round" style="stroke:#56B4E9;stroke-width:10.00"/>
	<line x1="1443.11" y1="1443.63" x2="1490.23" y2="1369.49" stroke-linecap="round" style="stroke:#56B4E9;stroke-width:10.00"/>
	<line x1="1490.23" y1="1369.49" x2="1537.34" y2="1411.58" stroke-linecap="round" style="stroke:#56B4E9;stroke-width:10.00"/>
	<line x1="1537.34" y1="1411.58" x2="1584.38" y2="1428.48" stroke-linecap="round" style="stroke:#56B4E9;stroke-width:10.00"/>
	<line x1="1584.38" y1="1428.48" x2="1631.50" y2="1341.91" stroke-linecap="round" style="stroke:#56B4E9;stroke-width:10.00"/>
	<line x1="1631.50" y1="1341.91" x2="1678.61" y2="1352.11" stroke-linecap="round" style="stroke:#56B4E9;stroke-width:10.00"/>
	<line x1="1678.61" y1="1352.11" x2="1725.65" y2="1376.26" stroke-linecap="round" style="stroke:#56B4E9;stroke-width:10.00"/>
	<line x1="1725.65" y1="1376.26" x2="1772.76" y2="1377.38" stroke-linecap="round" style="stroke:#56B4E9;stroke-width:10.00"/>
	<line x1="1772.76" y1="1377.38" x2="1819.88" y2="1360.72" stroke-linecap="round" style="stroke:#56B4E9;stroke-width:10.00"/>
	<line x1="1819.88" y1="1360.72" x2="1866.99" y2="1387.35" stroke-linecap="round" style="stroke:#56B4E9;stroke-width:10.00"/>
	<line x1="1866.99" y1="1387.35" x2="1914.03" y2="1468.90" stroke-linecap="round" style="stroke:#56B4E9;stroke-width:10.00"/>
	<line x1="1914.03" y1="1468.90" x2="1961.14" y2="1288.33" stroke-linecap="round" style="stroke:#56B4E9;stroke-width:10.00"/>
	<line x1="1961.14" y1="1288.33" x2="2008.26" y2="1308.98" stroke-linecap="round" style="stroke:#56B4E9;stroke-width:10.00"/>
	<line x1="2008.26" y1="1308.98" x2="2055.29" y2="1372.68" stroke-linecap="round" style="stroke:#56B4E9;stroke-width:10.00"/>
	<line x1="2055.29" y1="1372.68" x2="2102.41" y2="1361.68" stroke-linecap="round" style="stroke:#56B4E9;stroke-width:10.00"/>
	<line x1="1301.85" y1="1480.78" x2="1348.96" y2="1461.16" stroke-linecap="round" style="stroke:#009E73;stroke-width:10.00"/>
	<line x1="1348.96" y1="1461.16" x2="1396.08" y2="1437.57" stroke-linecap="round" style="stroke:#009E73;stroke-width:10.00"/>
	<line x1="1396.08" y1="1437.57" x2="1443.11" y2="1438.68" stroke-linecap="round" style="stroke:#009E73;stroke-width:10.00"/>
	<line x1="1443.11" y1="1438.68" x2="1490.23" y2="1410.78" stroke-linecap="round" style="stroke:#009E73;stroke-width:10.00"/>
	<line x1="1490.23" y1="1410.78" x2="1537.34" y2="1498.63" stroke-linecap="round" style="stroke:#009E73;stroke-width:10.00"/>
	<line x1="1537.34" y1="1498.63" x2="1584.38" y2="1414.29" stroke-linecap="round" style="stroke:#009E73;stroke-width:10.00"/>
	<line x1="1584.38" y1="1414.29" x2="1631.50" y2="1395.24" stroke-linecap="round" style="stroke:#009E73;stroke-width:10.00"/>
	<line x1="1631.50" y1="1395.24" x2="1678.61" y2="1404.01" stroke-linecap="round" style="stroke:#009E73;stroke-width:10.00"/>
	<line x1="1678.61" y1="1404.01" x2="1725.65" y2="1399.86" stroke-linecap="round" style="stroke:#009E73;stroke-width:10.00"/>
	<line x1="1725.65" y1="1399.86" x2="1772.76" y2="1340.47" stroke-linecap="round" style="stroke:#009E73;stroke-width:10.00"/>
	<line x1="1772.76" y1="1340.47" x2="1819.88" y2="1376.82" stroke-linecap="round" style="stroke:#009E73;stroke-width:10.00"/>
	<line x1="1819.88" y1="1376.82" x2="1866.99" y2="1313.77" stroke-linecap="round" style="stroke:#009E73;stroke-width:10.00"/>
	<line x1="1866.99" y1="1313.77" x2="1914.03" y2="1331.14" stroke-linecap="round" style="stroke:#009E73;stroke-width:10.00"/>
	<line x1="1914.03" y1="1331.14" x2="1961.14" y2="1264.26" stroke-linecap="round" style="stroke:#009E73;stroke-width:10.00"/>
	<line x1="1961.14" y1="1264.26" x2="2008.26" y2="1289.61" stroke-linecap="round" style="stroke:#009E73;stroke-width:10.00"/>
	<line x1="2008.26" y1="1289.61" x2="2055.29" y2="1300.61" stroke-linecap="round" style="stroke:#009E73;stroke-width:10.00"/>
	<line x1="2055.29" y1="1300.61" x2="2102.41" y2="1279.25" stroke-linecap="round" style="stroke:#009E73;stroke-width:10.00"/>
	<line x1="2102.41" y1="1279.25" x2="2149.52" y2="1221.45" stroke-linecap="round" style="stroke:#009E73;stroke-width:10.00"/>
	<line x1="2149.52" y1="1221.45" x2="2196.56" y2="1252.06" stroke-linecap="round" style="stroke:#009E73;stroke-width:10.00"/>
	<line x1="2196.56" y1="1252.06" x2="2243.67" y2="1300.45" stroke-linecap="round" style="stroke:#009E73;stroke-width:10.00"/>
	<line x1="1725.65" y1="1413.89" x2="1772.76" y2="1375.15" stroke-linecap="round" style="stroke:#D55E00;stroke-width:10.00"/>
	<line x1="1772.76" y1="1375.15" x2="1819.88" y2="1383.52" stroke-linecap="round" style="stroke:#D55E00;stroke-width:10.00"/>
	<line x1="1819.88" y1="1383.52" x2="1866.99" y2="1320.70" stroke-linecap="round" style="stroke:#D55E00;stroke-width:10.00"/>
	<line x1="1866.99" y1="1320.70" x2="1914.03" y2="1369.09" stroke-linecap="round" style="stroke:#D55E00;stroke-width:10.00"/>
	<line x1="1914.03" y1="1369.09" x2="1961.14" y2="1334.01" stroke-linecap="round" style="stroke:#D55E00;stroke-width:10.00"/>
	<line x1="1961.14" y1="1334.01" x2="2008.26" y2="1314.24" stroke-linecap="round" style="stroke:#D55E00;stroke-width:10.00"/>
	<line x1="2008.26" y1="1314.24" x2="2055.29" y2="1291.05" stroke-linecap="round" style="stroke:#D55E00;stroke-width:10.00"/>
	<line x1="2055.29" y1="1291.05" x2="2102.41" y2="1275.90" stroke-linecap="round" style="stroke:#D55E00;stroke-width:10.00"/>
	<line x1="2102.41" y1="1275.90" x2="2149.52" y2="1288.81" stroke-linecap="round" style="stroke:#D55E00;stroke-width:10.00"/>
	<line x1="2149.52" y1="1288.81" x2="2196.56" y2="1268.80" stroke-linecap="round" style="stroke:#D55E00;stroke-width:10.00"/>
	<line x1="2196.56" y1="1268.80" x2="2243.67" y2="1277.49" stroke-linecap="round" style="stroke:#D55E00;stroke-width:10.00"/>
	<line x1="2055.29" y1="1396.91" x2="2102.41" y2="1365.98" stroke-linecap="round" style="stroke:#CC79A7;stroke-width:10.00"/>
	<line x1="2102.41" y1="1365.98" x2="2149.52" y2="1366.62" stroke-linecap="round" style="stroke:#CC79A7;stroke-width:10.00"/>
	<line x1="2149.52" y1="1366.62" x2="2196.56" y2="1339.28" stroke-linecap="round" style="stroke:#CC79A7;stroke-width:10.00"/>
	<line x1="2196.56" y1="1339.28" x2="2243.67" y2="1371.72" stroke-linecap="round" style="stroke:#CC79A7;stroke-width:10.00"/>
	<line x1="407.22" y1="1365.10" x2="458.16" y2="1367.73" style="stroke:#A0A0A0;stroke-width:10.00"/>
	<line x1="483.67" y1="1369.09" x2="501.37" y2="1369.97" style="stroke:#A0A0A0;stroke-width:10.00"/>
	<line x1="501.37" y1="1369.97" x2="534.53" y2="1367.65" style="stroke:#A0A0A0;stroke-width:10.00"/>
	<line x1="559.96" y1="1365.90" x2="595.52" y2="1363.51" style="stroke:#A0A0A0;stroke-width:10.00"/>
	<line x1="595.52" y1="1363.51" x2="610.66" y2="1360.72" style="stroke:#A0A0A0;stroke-width:10.00"/>
	<line x1="635.70" y1="1356.10" x2="685.92" y2="1346.77" style="stroke:#A0A0A0;stroke-width:10.00"/>
	<line x1="711.27" y1="1348.36" x2="761.98" y2="1353.86" style="stroke:#A0A0A0;stroke-width:10.00"/>
	<line x1="787.33" y1="1356.65" x2="831.01" y2="1361.36" style="stroke:#A0A0A0;stroke-width:10.00"/>
	<line x1="831.01" y1="1361.36" x2="838.03" y2="1361.84" style="stroke:#A0A0A0;stroke-width:10.00"/>
	<line x1="863.54" y1="1363.59" x2="914.40" y2="1367.02" style="stroke:#A0A0A0;stroke-width:10.00"/>
	<line x1="939.83" y1="1366.14" x2="990.54" y2="1360.56" style="stroke:#A0A0A0;stroke-width:10.00"/>
	<line x1="1015.89" y1="1357.85" x2="1019.32" y2="1357.45" style="stroke:#A0A0A0;stroke-width:10.00"/>
	<line x1="1019.32" y1="1357.45" x2="1066.83" y2="1357.69" style="stroke:#A0A0A0;stroke-width:10.00"/>
	<line x1="1092.34" y1="1357.85" x2="1113.55" y2="1358.01" style="stroke:#A0A0A0;stroke-width:10.00"/>
	<line x1="1113.55" y1="1358.01" x2="1143.36" y2="1356.73" style="stroke:#A0A0A0;stroke-width:10.00"/>
	<line x1="1168.87" y1="1355.70" x2="1207.70" y2="1354.02" style="stroke:#A0A0A0;stroke-width:10.00"/>
	<line x1="1207.70" y1="1354.02" x2="1219.81" y2="1354.42" style="stroke:#A0A0A0;stroke-width:10.00"/>
	<line x1="1245.33" y1="1355.14" x2="1296.35" y2="1356.73" style="stroke:#A0A0A0;stroke-width:10.00"/>
	<line x1="1321.46" y1="1361.04" x2="1348.96" y2="1366.86" style="stroke:#A0A0A0;stroke-width:10.00"/>
	<line x1="1348.96" y1="1366.86" x2="1371.68" y2="1364.23" style="stroke:#A0A0A0;stroke-width:10.00"/>
	<line x1="1397.04" y1="1361.28" x2="1443.11" y2="1357.05" style="stroke:#A0A0A0;stroke-width:10.00"/>
	<line x1="1443.11" y1="1357.05" x2="1447.82" y2="1356.41" style="stroke:#A0A0A0;stroke-width:10.00"/>
	<line x1="1473.01" y1="1352.83" x2="1490.23" y2="1350.44" style="stroke:#A0A0A0;stroke-width:10.00"/>
	<line x1="1490.23" y1="1350.44" x2="1523.87" y2="1348.76" style="stroke:#A0A0A0;stroke-width:10.00"/>
	<line x1="1549.30" y1="1346.93" x2="1584.38" y2="1343.58" style="stroke:#A0A0A0;stroke-width:10.00"/>
	<line x1="1584.38" y1="1343.58" x2="1600.01" y2="1341.43" style="stroke:#A0A0A0;stroke-width:10.00"/>
	<line x1="1625.28" y1="1338.00" x2="1631.50" y2="1337.12" style="stroke:#A0A0A0;stroke-width:10.00"/>
	<line x1="1631.50" y1="1337.12" x2="1674.39" y2="1324.45" style="stroke:#A0A0A0;stroke-width:10.00"/>
	<line x1="1699.74" y1="1323.89" x2="1725.65" y2="1324.69" style="stroke:#A0A0A0;stroke-width:10.00"/>
	<line x1="1725.65" y1="1324.69" x2="1749.72" y2="1317.59" style="stroke:#A0A0A0;stroke-width:10.00"/>
	<line x1="1774.20" y1="1311.05" x2="1819.88" y2="1321.26" style="stroke:#A0A0A0;stroke-width:10.00"/>
	<line x1="1819.88" y1="1321.26" x2="1824.10" y2="1320.94" style="stroke:#A0A0A0;stroke-width:10.00"/>
	<line x1="1849.53" y1="1319.03" x2="1866.99" y2="1317.75" style="stroke:#A0A0A0;stroke-width:10.00"/>
	<line x1="1866.99" y1="1317.75" x2="1900.32" y2="1313.92" style="stroke:#A0A0A0;stroke-width:10.00"/>
	<line x1="1924.71" y1="1307.63" x2="1961.14" y2="1291.36" style="stroke:#A0A0A0;stroke-width:10.00"/>
	<line x1="1961.14" y1="1291.36" x2="1972.22" y2="1291.20" style="stroke:#A0A0A0;stroke-width:10.00"/>
	<line x1="1997.73" y1="1290.81" x2="2008.26" y2="1290.65" style="stroke:#A0A0A0;stroke-width:10.00"/>
	<line x1="2008.26" y1="1290.65" x2="2048.76" y2="1292.08" style="stroke:#A0A0A0;stroke-width:10.00"/>
	<line x1="2073.71" y1="1287.78" x2="2102.41" y2="1280.60" style="stroke:#A0A0A0;stroke-width:10.00"/>
	<line x1="2102.41" y1="1280.60" x2="2123.30" y2="1275.74" style="stroke:#A0A0A0;stroke-width:10.00"/>
	<line x1="2148.17" y1="1270.08" x2="2149.52" y2="1269.76" style="stroke:#A0A0A0;stroke-width:10.00"/>
	<line x1="2149.52" y1="1269.76" x2="2196.56" y2="1269.44" style="stroke:#A0A0A0;stroke-width:10.00"/>
	<line x1="2196.56" y1="1269.44" x2="2199.19" y2="1269.76" style="stroke:#A0A0A0;stroke-width:10.00"/>
	<line x1="2224.54" y1="1272.63" x2="2243.67" y2="1274.78" style="stroke:#A0A0A0;stroke-width:10.00"/>
	<line x1="351.09" y1="1865.82" x2="315.70" y2="1865.82" style="stroke:#000000;stroke-width:4.00"/>
	<text x="297.92" y="1883.33" style="font-family:'Helvetica';font-size:49.99px;fill:#000000" text-anchor="end">0</text>
	<line x1="351.09" y1="1715.63" x2="315.70" y2="1715.63" style="stroke:#000000;stroke-width:4.00"/>
	<text x="297.92" y="1733.14" style="font-family:'Helvetica';font-size:49.99px;fill:#000000" text-anchor="end">.1</text>
	<line x1="351.09" y1="1565.52" x2="315.70" y2="1565.52" style="stroke:#000000;stroke-width:4.00"/>
	<text x="297.92" y="1583.03" style="font-family:'Helvetica';font-size:49.99px;fill:#000000" text-anchor="end">.2</text>
	<line x1="351.09" y1="1415.41" x2="315.70" y2="1415.41" style="stroke:#000000;stroke-width:4.00"/>
	<text x="297.92" y="1432.92" style="font-family:'Helvetica';font-size:49.99px;fill:#000000" text-anchor="end">.3</text>
	<line x1="351.09" y1="1265.22" x2="315.70" y2="1265.22" style="stroke:#000000;stroke-width:4.00"/>
	<text x="297.92" y="1282.73" style="font-family:'Helvetica';font-size:49.99px;fill:#000000" text-anchor="end">.4</text>
	<line x1="351.09" y1="1115.11" x2="315.70" y2="1115.11" style="stroke:#000000;stroke-width:4.00"/>
	<text x="297.92" y="1132.62" style="font-family:'Helvetica';font-size:49.99px;fill:#000000" text-anchor="end">.5</text>
	<line x1="351.09" y1="964.92" x2="315.70" y2="964.92" style="stroke:#000000;stroke-width:4.00"/>
	<text x="297.92" y="982.43" style="font-family:'Helvetica';font-size:49.99px;fill:#000000" text-anchor="end">.6</text>
	<line x1="351.09" y1="814.81" x2="315.70" y2="814.81" style="stroke:#000000;stroke-width:4.00"/>
	<text x="297.92" y="832.32" style="font-family:'Helvetica';font-size:49.99px;fill:#000000" text-anchor="end">.7</text>
	<line x1="351.09" y1="664.62" x2="315.70" y2="664.62" style="stroke:#000000;stroke-width:4.00"/>
	<text x="297.92" y="682.13" style="font-family:'Helvetica';font-size:49.99px;fill:#000000" text-anchor="end">.8</text>
	<line x1="351.09" y1="514.50" x2="315.70" y2="514.50" style="stroke:#000000;stroke-width:4.00"/>
	<text x="297.92" y="532.02" style="font-family:'Helvetica';font-size:49.99px;fill:#000000" text-anchor="end">.9</text>
	<line x1="351.09" y1="364.31" x2="315.70" y2="364.31" style="stroke:#000000;stroke-width:4.00"/>
	<text x="297.92" y="381.83" style="font-family:'Helvetica';font-size:49.99px;fill:#000000" text-anchor="end">1</text>
	<line x1="351.09" y1="1865.82" x2="351.09" y2="364.31" style="stroke:#000000;stroke-width:4.00"/>
	<text x="136.21" y="1076.84" style="font-family:'Helvetica';font-size:60.03px;fill:#000000" transform="rotate(-90 136.21,1076.84)" text-anchor="middle">Part-time employment</text>
	<line x1="407.22" y1="1921.94" x2="407.22" y2="1957.33" style="stroke:#000000;stroke-width:4.00"/>
	<text x="407.22" y="2009.98" style="font-family:'Helvetica';font-size:49.99px;fill:#000000" text-anchor="middle">1976</text>
	<line x1="642.63" y1="1921.94" x2="642.63" y2="1957.33" style="stroke:#000000;stroke-width:4.00"/>
	<text x="642.63" y="2009.98" style="font-family:'Helvetica';font-size:49.99px;fill:#000000" text-anchor="middle">1981</text>
	<line x1="878.13" y1="1921.94" x2="878.13" y2="1957.33" style="stroke:#000000;stroke-width:4.00"/>
	<text x="878.13" y="2009.98" style="font-family:'Helvetica';font-size:49.99px;fill:#000000" text-anchor="middle">1986</text>
	<line x1="1113.55" y1="1921.94" x2="1113.55" y2="1957.33" style="stroke:#000000;stroke-width:4.00"/>
	<text x="1113.55" y="2009.98" style="font-family:'Helvetica';font-size:49.99px;fill:#000000" text-anchor="middle">1991</text>
	<line x1="1349.04" y1="1921.94" x2="1349.04" y2="1957.33" style="stroke:#000000;stroke-width:4.00"/>
	<text x="1349.04" y="2009.98" style="font-family:'Helvetica';font-size:49.99px;fill:#000000" text-anchor="middle">1996</text>
	<line x1="1584.46" y1="1921.94" x2="1584.46" y2="1957.33" style="stroke:#000000;stroke-width:4.00"/>
	<text x="1584.46" y="2009.98" style="font-family:'Helvetica';font-size:49.99px;fill:#000000" text-anchor="middle">2001</text>
	<line x1="1819.88" y1="1921.94" x2="1819.88" y2="1957.33" style="stroke:#000000;stroke-width:4.00"/>
	<text x="1819.88" y="2009.98" style="font-family:'Helvetica';font-size:49.99px;fill:#000000" text-anchor="middle">2006</text>
	<line x1="2055.37" y1="1921.94" x2="2055.37" y2="1957.33" style="stroke:#000000;stroke-width:4.00"/>
	<text x="2055.37" y="2009.98" style="font-family:'Helvetica';font-size:49.99px;fill:#000000" text-anchor="middle">2011</text>
	<line x1="2290.79" y1="1921.94" x2="2290.79" y2="1957.33" style="stroke:#000000;stroke-width:4.00"/>
	<text x="2290.79" y="2009.98" style="font-family:'Helvetica';font-size:49.99px;fill:#000000" text-anchor="middle">2016</text>
	<line x1="407.22" y1="1921.94" x2="2290.79" y2="1921.94" style="stroke:#000000;stroke-width:4.00"/>
	<text x="1310.78" y="2152.37" style="font-family:'Helvetica';font-size:60.03px;fill:#000000" text-anchor="middle">Year</text>
	<text x="145.41" y="2396.65" style="font-family:'Helvetica';font-size:60.03px;fill:#000000">Arr. cohort: </text>
	<text x="536.36" y="2396.65" style="font-family:'Helvetica';font-size:60.03px;fill:#000000">1964-73</text>
	<text x="845.12" y="2396.65" style="font-family:'Helvetica';font-size:60.03px;fill:#000000">1974-83</text>
	<text x="1153.89" y="2396.65" style="font-family:'Helvetica';font-size:60.03px;fill:#000000">1984-93</text>
	<text x="1462.65" y="2396.65" style="font-family:'Helvetica';font-size:60.03px;fill:#000000">1994-03</text>
	<text x="1771.41" y="2396.65" style="font-family:'Helvetica';font-size:60.03px;fill:#000000">2004-10</text>
	<text x="2080.17" y="2396.65" style="font-family:'Helvetica';font-size:60.03px;fill:#000000">German</text>
	<line x1="536.36" y1="2301.32" x2="737.26" y2="2301.32" style="stroke:#E69F00;stroke-width:10.00"/>
	<line x1="845.12" y1="2301.32" x2="1046.02" y2="2301.32" style="stroke:#56B4E9;stroke-width:10.00"/>
	<line x1="1153.89" y1="2301.32" x2="1354.78" y2="2301.32" style="stroke:#009E73;stroke-width:10.00"/>
	<line x1="1462.65" y1="2301.32" x2="1663.54" y2="2301.32" style="stroke:#D55E00;stroke-width:10.00"/>
	<line x1="1771.41" y1="2301.32" x2="1972.30" y2="2301.32" style="stroke:#CC79A7;stroke-width:10.00"/>
	<line x1="2080.17" y1="2301.32" x2="2131.19" y2="2301.32" style="stroke:#A0A0A0;stroke-width:10.00"/>
	<line x1="2156.70" y1="2301.32" x2="2207.72" y2="2301.32" style="stroke:#A0A0A0;stroke-width:10.00"/>
	<line x1="2233.23" y1="2301.32" x2="2278.03" y2="2301.32" style="stroke:#A0A0A0;stroke-width:10.00"/>
	<text x="1349.04" y="239.12" style="font-family:'Helvetica';font-size:60.03px;fill:#000000" text-anchor="middle">Percent</text>
	<text x="1349.04" y="154.88" style="font-family:'Helvetica';font-size:90.01px;fill:#000000" text-anchor="middle">Part-time employment, Women</text>
</svg>
