<?xml version="1.0" encoding="UTF-8" standalone="no"?>
<!-- This is a Stata 15.1 generated SVG file (http://www.stata.com) -->

<svg version="1.1" width="3.54in" height="3.54in" viewBox="0 0 2551 2551" xmlns="http://www.w3.org/2000/svg" xmlns:xlink="http://www.w3.org/1999/xlink">
	<desc>Stata Graph - Graph</desc>
	<rect x="0" y="0" width="2551" height="2551" style="fill:#FFFFFF;stroke:none"/>
	<rect x="0.00" y="0.08" width="2551.00" height="2550.92" style="fill:#FFFFFF"/>
	<rect x="2.55" y="2.63" width="2545.90" height="2545.82" style="fill:none;stroke:#FFFFFF;stroke-width:5.10"/>
	<line x1="351.09" y1="1904.40" x2="2346.91" y2="1904.40" style="stroke:#E8E8E8;stroke-width:4.00"/>
	<line x1="351.09" y1="1750.38" x2="2346.91" y2="1750.38" style="stroke:#E8E8E8;stroke-width:4.00"/>
	<line x1="351.09" y1="1596.37" x2="2346.91" y2="1596.37" style="stroke:#E8E8E8;stroke-width:4.00"/>
	<line x1="351.09" y1="1442.35" x2="2346.91" y2="1442.35" style="stroke:#E8E8E8;stroke-width:4.00"/>
	<line x1="351.09" y1="1288.33" x2="2346.91" y2="1288.33" style="stroke:#E8E8E8;stroke-width:4.00"/>
	<line x1="351.09" y1="1134.40" x2="2346.91" y2="1134.40" style="stroke:#E8E8E8;stroke-width:4.00"/>
	<line x1="351.09" y1="980.38" x2="2346.91" y2="980.38" style="stroke:#E8E8E8;stroke-width:4.00"/>
	<line x1="351.09" y1="826.36" x2="2346.91" y2="826.36" style="stroke:#E8E8E8;stroke-width:4.00"/>
	<line x1="351.09" y1="672.35" x2="2346.91" y2="672.35" style="stroke:#E8E8E8;stroke-width:4.00"/>
	<line x1="351.09" y1="518.33" x2="2346.91" y2="518.33" style="stroke:#E8E8E8;stroke-width:4.00"/>
	<line x1="351.09" y1="364.31" x2="2346.91" y2="364.31" style="stroke:#E8E8E8;stroke-width:4.00"/>
	<line x1="407.22" y1="1960.52" x2="407.22" y2="308.19" style="stroke:#E8E8E8;stroke-width:4.00"/>
	<line x1="642.63" y1="1960.52" x2="642.63" y2="308.19" style="stroke:#E8E8E8;stroke-width:4.00"/>
	<line x1="878.13" y1="1960.52" x2="878.13" y2="308.19" style="stroke:#E8E8E8;stroke-width:4.00"/>
	<line x1="1113.55" y1="1960.52" x2="1113.55" y2="308.19" style="stroke:#E8E8E8;stroke-width:4.00"/>
	<line x1="1349.04" y1="1960.52" x2="1349.04" y2="308.19" style="stroke:#E8E8E8;stroke-width:4.00"/>
	<line x1="1584.46" y1="1960.52" x2="1584.46" y2="308.19" style="stroke:#E8E8E8;stroke-width:4.00"/>
	<line x1="1819.88" y1="1960.52" x2="1819.88" y2="308.19" style="stroke:#E8E8E8;stroke-width:4.00"/>
	<line x1="2055.37" y1="1960.52" x2="2055.37" y2="308.19" style="stroke:#E8E8E8;stroke-width:4.00"/>
	<line x1="2290.79" y1="1960.52" x2="2290.79" y2="308.19" style="stroke:#E8E8E8;stroke-width:4.00"/>
	<line x1="407.22" y1="579.71" x2="501.37" y2="596.14" stroke-linecap="round" style="stroke:#E69F00;stroke-width:10.00"/>
	<line x1="501.37" y1="596.14" x2="595.52" y2="599.33" stroke-linecap="round" style="stroke:#E69F00;stroke-width:10.00"/>
	<line x1="595.52" y1="599.33" x2="689.75" y2="695.15" stroke-linecap="round" style="stroke:#E69F00;stroke-width:10.00"/>
	<line x1="689.75" y1="695.15" x2="831.01" y2="652.34" stroke-linecap="round" style="stroke:#E69F00;stroke-width:10.00"/>
	<line x1="831.01" y1="652.34" x2="925.17" y2="649.15" stroke-linecap="round" style="stroke:#E69F00;stroke-width:10.00"/>
	<line x1="925.17" y1="649.15" x2="1019.32" y2="674.74" stroke-linecap="round" style="stroke:#E69F00;stroke-width:10.00"/>
	<line x1="1019.32" y1="674.74" x2="1113.55" y2="714.92" stroke-linecap="round" style="stroke:#E69F00;stroke-width:10.00"/>
	<line x1="1113.55" y1="714.92" x2="1207.70" y2="812.89" stroke-linecap="round" style="stroke:#E69F00;stroke-width:10.00"/>
	<line x1="1207.70" y1="812.89" x2="1301.85" y2="811.30" stroke-linecap="round" style="stroke:#E69F00;stroke-width:10.00"/>
	<line x1="1301.85" y1="811.30" x2="1348.96" y2="845.50" stroke-linecap="round" style="stroke:#E69F00;stroke-width:10.00"/>
	<line x1="1348.96" y1="845.50" x2="1396.08" y2="900.18" stroke-linecap="round" style="stroke:#E69F00;stroke-width:10.00"/>
	<line x1="1396.08" y1="900.18" x2="1443.11" y2="892.37" stroke-linecap="round" style="stroke:#E69F00;stroke-width:10.00"/>
	<line x1="1443.11" y1="892.37" x2="1490.23" y2="957.58" stroke-linecap="round" style="stroke:#E69F00;stroke-width:10.00"/>
	<line x1="1490.23" y1="957.58" x2="1537.34" y2="853.95" stroke-linecap="round" style="stroke:#E69F00;stroke-width:10.00"/>
	<line x1="1537.34" y1="853.95" x2="1584.38" y2="961.89" stroke-linecap="round" style="stroke:#E69F00;stroke-width:10.00"/>
	<line x1="1584.38" y1="961.89" x2="1631.50" y2="962.13" stroke-linecap="round" style="stroke:#E69F00;stroke-width:10.00"/>
	<line x1="1631.50" y1="962.13" x2="1678.61" y2="941.08" stroke-linecap="round" style="stroke:#E69F00;stroke-width:10.00"/>
	<line x1="831.01" y1="760.76" x2="925.17" y2="839.36" stroke-linecap="round" style="stroke:#56B4E9;stroke-width:10.00"/>
	<line x1="925.17" y1="839.36" x2="1019.32" y2="908.63" stroke-linecap="round" style="stroke:#56B4E9;stroke-width:10.00"/>
	<line x1="1019.32" y1="908.63" x2="1113.55" y2="942.28" stroke-linecap="round" style="stroke:#56B4E9;stroke-width:10.00"/>
	<line x1="1113.55" y1="942.28" x2="1207.70" y2="996.96" stroke-linecap="round" style="stroke:#56B4E9;stroke-width:10.00"/>
	<line x1="1207.70" y1="996.96" x2="1301.85" y2="1047.98" stroke-linecap="round" style="stroke:#56B4E9;stroke-width:10.00"/>
	<line x1="1301.85" y1="1047.98" x2="1348.96" y2="1029.01" stroke-linecap="round" style="stroke:#56B4E9;stroke-width:10.00"/>
	<line x1="1348.96" y1="1029.01" x2="1396.08" y2="1073.89" stroke-linecap="round" style="stroke:#56B4E9;stroke-width:10.00"/>
	<line x1="1396.08" y1="1073.89" x2="1443.11" y2="1045.51" stroke-linecap="round" style="stroke:#56B4E9;stroke-width:10.00"/>
	<line x1="1443.11" y1="1045.51" x2="1490.23" y2="1142.93" stroke-linecap="round" style="stroke:#56B4E9;stroke-width:10.00"/>
	<line x1="1490.23" y1="1142.93" x2="1537.34" y2="1075.49" stroke-linecap="round" style="stroke:#56B4E9;stroke-width:10.00"/>
	<line x1="1537.34" y1="1075.49" x2="1584.38" y2="1133.36" stroke-linecap="round" style="stroke:#56B4E9;stroke-width:10.00"/>
	<line x1="1584.38" y1="1133.36" x2="1631.50" y2="1164.53" stroke-linecap="round" style="stroke:#56B4E9;stroke-width:10.00"/>
	<line x1="1631.50" y1="1164.53" x2="1678.61" y2="1156.96" stroke-linecap="round" style="stroke:#56B4E9;stroke-width:10.00"/>
	<line x1="1678.61" y1="1156.96" x2="1725.65" y2="1170.27" stroke-linecap="round" style="stroke:#56B4E9;stroke-width:10.00"/>
	<line x1="1725.65" y1="1170.27" x2="1772.76" y2="1149.94" stroke-linecap="round" style="stroke:#56B4E9;stroke-width:10.00"/>
	<line x1="1772.76" y1="1149.94" x2="1819.88" y2="1253.66" stroke-linecap="round" style="stroke:#56B4E9;stroke-width:10.00"/>
	<line x1="1819.88" y1="1253.66" x2="1866.99" y2="1212.04" stroke-linecap="round" style="stroke:#56B4E9;stroke-width:10.00"/>
	<line x1="1866.99" y1="1212.04" x2="1914.03" y2="1103.23" stroke-linecap="round" style="stroke:#56B4E9;stroke-width:10.00"/>
	<line x1="1914.03" y1="1103.23" x2="1961.14" y2="1288.73" stroke-linecap="round" style="stroke:#56B4E9;stroke-width:10.00"/>
	<line x1="1961.14" y1="1288.73" x2="2008.26" y2="1213.88" stroke-linecap="round" style="stroke:#56B4E9;stroke-width:10.00"/>
	<line x1="2008.26" y1="1213.88" x2="2055.29" y2="1203.99" stroke-linecap="round" style="stroke:#56B4E9;stroke-width:10.00"/>
	<line x1="2055.29" y1="1203.99" x2="2102.41" y2="1225.04" stroke-linecap="round" style="stroke:#56B4E9;stroke-width:10.00"/>
	<line x1="1301.85" y1="981.90" x2="1348.96" y2="1068.55" stroke-linecap="round" style="stroke:#009E73;stroke-width:10.00"/>
	<line x1="1348.96" y1="1068.55" x2="1396.08" y2="1105.86" stroke-linecap="round" style="stroke:#009E73;stroke-width:10.00"/>
	<line x1="1396.08" y1="1105.86" x2="1443.11" y2="1142.61" stroke-linecap="round" style="stroke:#009E73;stroke-width:10.00"/>
	<line x1="1443.11" y1="1142.61" x2="1490.23" y2="1156.80" stroke-linecap="round" style="stroke:#009E73;stroke-width:10.00"/>
	<line x1="1490.23" y1="1156.80" x2="1537.34" y2="1116.54" stroke-linecap="round" style="stroke:#009E73;stroke-width:10.00"/>
	<line x1="1537.34" y1="1116.54" x2="1584.38" y2="1196.02" stroke-linecap="round" style="stroke:#009E73;stroke-width:10.00"/>
	<line x1="1584.38" y1="1196.02" x2="1631.50" y2="1222.89" stroke-linecap="round" style="stroke:#009E73;stroke-width:10.00"/>
	<line x1="1631.50" y1="1222.89" x2="1678.61" y2="1246.88" stroke-linecap="round" style="stroke:#009E73;stroke-width:10.00"/>
	<line x1="1678.61" y1="1246.88" x2="1725.65" y2="1285.23" stroke-linecap="round" style="stroke:#009E73;stroke-width:10.00"/>
	<line x1="1725.65" y1="1285.23" x2="1772.76" y2="1338.00" stroke-linecap="round" style="stroke:#009E73;stroke-width:10.00"/>
	<line x1="1772.76" y1="1338.00" x2="1819.88" y2="1281.32" stroke-linecap="round" style="stroke:#009E73;stroke-width:10.00"/>
	<line x1="1819.88" y1="1281.32" x2="1866.99" y2="1334.01" stroke-linecap="round" style="stroke:#009E73;stroke-width:10.00"/>
	<line x1="1866.99" y1="1334.01" x2="1914.03" y2="1351.47" stroke-linecap="round" style="stroke:#009E73;stroke-width:10.00"/>
	<line x1="1914.03" y1="1351.47" x2="1961.14" y2="1410.54" stroke-linecap="round" style="stroke:#009E73;stroke-width:10.00"/>
	<line x1="1961.14" y1="1410.54" x2="2008.26" y2="1352.51" stroke-linecap="round" style="stroke:#009E73;stroke-width:10.00"/>
	<line x1="2008.26" y1="1352.51" x2="2055.29" y2="1320.70" stroke-linecap="round" style="stroke:#009E73;stroke-width:10.00"/>
	<line x1="2055.29" y1="1320.70" x2="2102.41" y2="1334.09" stroke-linecap="round" style="stroke:#009E73;stroke-width:10.00"/>
	<line x1="2102.41" y1="1334.09" x2="2149.52" y2="1389.26" stroke-linecap="round" style="stroke:#009E73;stroke-width:10.00"/>
	<line x1="2149.52" y1="1389.26" x2="2196.56" y2="1346.13" stroke-linecap="round" style="stroke:#009E73;stroke-width:10.00"/>
	<line x1="2196.56" y1="1346.13" x2="2243.67" y2="1327.72" stroke-linecap="round" style="stroke:#009E73;stroke-width:10.00"/>
	<line x1="1725.65" y1="1195.54" x2="1772.76" y2="1269.44" stroke-linecap="round" style="stroke:#D55E00;stroke-width:10.00"/>
	<line x1="1772.76" y1="1269.44" x2="1819.88" y2="1323.25" stroke-linecap="round" style="stroke:#D55E00;stroke-width:10.00"/>
	<line x1="1819.88" y1="1323.25" x2="1866.99" y2="1359.52" stroke-linecap="round" style="stroke:#D55E00;stroke-width:10.00"/>
	<line x1="1866.99" y1="1359.52" x2="1914.03" y2="1306.51" stroke-linecap="round" style="stroke:#D55E00;stroke-width:10.00"/>
	<line x1="1914.03" y1="1306.51" x2="1961.14" y2="1340.79" stroke-linecap="round" style="stroke:#D55E00;stroke-width:10.00"/>
	<line x1="1961.14" y1="1340.79" x2="2008.26" y2="1347.01" stroke-linecap="round" style="stroke:#D55E00;stroke-width:10.00"/>
	<line x1="2008.26" y1="1347.01" x2="2055.29" y2="1361.12" stroke-linecap="round" style="stroke:#D55E00;stroke-width:10.00"/>
	<line x1="2055.29" y1="1361.12" x2="2102.41" y2="1372.36" stroke-linecap="round" style="stroke:#D55E00;stroke-width:10.00"/>
	<line x1="2102.41" y1="1372.36" x2="2149.52" y2="1374.27" stroke-linecap="round" style="stroke:#D55E00;stroke-width:10.00"/>
	<line x1="2149.52" y1="1374.27" x2="2196.56" y2="1366.30" stroke-linecap="round" style="stroke:#D55E00;stroke-width:10.00"/>
	<line x1="2196.56" y1="1366.30" x2="2243.67" y2="1378.90" stroke-linecap="round" style="stroke:#D55E00;stroke-width:10.00"/>
	<line x1="2055.29" y1="1214.36" x2="2102.41" y2="1244.09" stroke-linecap="round" style="stroke:#CC79A7;stroke-width:10.00"/>
	<line x1="2102.41" y1="1244.09" x2="2149.52" y2="1227.83" stroke-linecap="round" style="stroke:#CC79A7;stroke-width:10.00"/>
	<line x1="2149.52" y1="1227.83" x2="2196.56" y2="1242.66" stroke-linecap="round" style="stroke:#CC79A7;stroke-width:10.00"/>
	<line x1="2196.56" y1="1242.66" x2="2243.67" y2="1247.44" stroke-linecap="round" style="stroke:#CC79A7;stroke-width:10.00"/>
	<line x1="407.22" y1="967.63" x2="458.24" y2="969.14" style="stroke:#A0A0A0;stroke-width:10.00"/>
	<line x1="483.75" y1="969.86" x2="501.37" y2="970.42" style="stroke:#A0A0A0;stroke-width:10.00"/>
	<line x1="501.37" y1="970.42" x2="534.69" y2="971.69" style="stroke:#A0A0A0;stroke-width:10.00"/>
	<line x1="560.20" y1="972.57" x2="595.52" y2="973.92" style="stroke:#A0A0A0;stroke-width:10.00"/>
	<line x1="595.52" y1="973.92" x2="610.35" y2="979.11" style="stroke:#A0A0A0;stroke-width:10.00"/>
	<line x1="634.42" y1="987.40" x2="682.65" y2="1004.06" style="stroke:#A0A0A0;stroke-width:10.00"/>
	<line x1="707.45" y1="1003.10" x2="757.59" y2="993.53" style="stroke:#A0A0A0;stroke-width:10.00"/>
	<line x1="782.62" y1="988.75" x2="831.01" y2="979.50" style="stroke:#A0A0A0;stroke-width:10.00"/>
	<line x1="831.01" y1="979.50" x2="832.77" y2="979.34" style="stroke:#A0A0A0;stroke-width:10.00"/>
	<line x1="858.20" y1="977.03" x2="908.98" y2="972.41" style="stroke:#A0A0A0;stroke-width:10.00"/>
	<line x1="934.33" y1="972.09" x2="984.88" y2="978.95" style="stroke:#A0A0A0;stroke-width:10.00"/>
	<line x1="1010.23" y1="982.37" x2="1019.32" y2="983.57" style="stroke:#A0A0A0;stroke-width:10.00"/>
	<line x1="1019.32" y1="983.57" x2="1057.98" y2="999.43" style="stroke:#A0A0A0;stroke-width:10.00"/>
	<line x1="1081.58" y1="1009.16" x2="1113.55" y2="1022.23" style="stroke:#A0A0A0;stroke-width:10.00"/>
	<line x1="1113.55" y1="1022.23" x2="1129.97" y2="1023.91" style="stroke:#A0A0A0;stroke-width:10.00"/>
	<line x1="1155.32" y1="1026.38" x2="1206.10" y2="1031.48" style="stroke:#A0A0A0;stroke-width:10.00"/>
	<line x1="1231.45" y1="1033.95" x2="1282.24" y2="1038.97" style="stroke:#A0A0A0;stroke-width:10.00"/>
	<line x1="1307.67" y1="1041.45" x2="1348.96" y2="1045.11" style="stroke:#A0A0A0;stroke-width:10.00"/>
	<line x1="1348.96" y1="1045.11" x2="1357.81" y2="1048.62" style="stroke:#A0A0A0;stroke-width:10.00"/>
	<line x1="1381.57" y1="1057.95" x2="1396.08" y2="1063.69" style="stroke:#A0A0A0;stroke-width:10.00"/>
	<line x1="1396.08" y1="1063.69" x2="1430.04" y2="1073.97" style="stroke:#A0A0A0;stroke-width:10.00"/>
	<line x1="1453.96" y1="1082.66" x2="1490.23" y2="1098.68" style="stroke:#A0A0A0;stroke-width:10.00"/>
	<line x1="1490.23" y1="1098.68" x2="1501.47" y2="1100.28" style="stroke:#A0A0A0;stroke-width:10.00"/>
	<line x1="1526.66" y1="1103.95" x2="1537.34" y2="1105.54" style="stroke:#A0A0A0;stroke-width:10.00"/>
	<line x1="1537.34" y1="1105.54" x2="1576.89" y2="1113.11" style="stroke:#A0A0A0;stroke-width:10.00"/>
	<line x1="1601.68" y1="1118.93" x2="1631.50" y2="1126.43" style="stroke:#A0A0A0;stroke-width:10.00"/>
	<line x1="1631.50" y1="1126.43" x2="1650.87" y2="1132.33" style="stroke:#A0A0A0;stroke-width:10.00"/>
	<line x1="1675.34" y1="1139.66" x2="1678.61" y2="1140.62" style="stroke:#A0A0A0;stroke-width:10.00"/>
	<line x1="1678.61" y1="1140.62" x2="1725.65" y2="1146.75" style="stroke:#A0A0A0;stroke-width:10.00"/>
	<line x1="1725.65" y1="1146.75" x2="1725.81" y2="1146.91" style="stroke:#A0A0A0;stroke-width:10.00"/>
	<line x1="1747.57" y1="1160.15" x2="1772.76" y2="1175.37" style="stroke:#A0A0A0;stroke-width:10.00"/>
	<line x1="1772.76" y1="1175.37" x2="1792.29" y2="1184.62" style="stroke:#A0A0A0;stroke-width:10.00"/>
	<line x1="1815.33" y1="1195.62" x2="1819.88" y2="1197.77" style="stroke:#A0A0A0;stroke-width:10.00"/>
	<line x1="1819.88" y1="1197.77" x2="1865.72" y2="1194.59" style="stroke:#A0A0A0;stroke-width:10.00"/>
	<line x1="1891.15" y1="1192.83" x2="1914.03" y2="1191.24" style="stroke:#A0A0A0;stroke-width:10.00"/>
	<line x1="1914.03" y1="1191.24" x2="1940.34" y2="1201.28" style="stroke:#A0A0A0;stroke-width:10.00"/>
	<line x1="1964.33" y1="1208.54" x2="2008.26" y2="1198.73" style="stroke:#A0A0A0;stroke-width:10.00"/>
	<line x1="2008.26" y1="1198.73" x2="2014.08" y2="1197.46" style="stroke:#A0A0A0;stroke-width:10.00"/>
	<line x1="2038.95" y1="1191.88" x2="2055.29" y2="1188.29" style="stroke:#A0A0A0;stroke-width:10.00"/>
	<line x1="2055.29" y1="1188.29" x2="2089.41" y2="1191.72" style="stroke:#A0A0A0;stroke-width:10.00"/>
	<line x1="2114.85" y1="1193.23" x2="2149.52" y2="1193.87" style="stroke:#A0A0A0;stroke-width:10.00"/>
	<line x1="2149.52" y1="1193.87" x2="2165.55" y2="1190.60" style="stroke:#A0A0A0;stroke-width:10.00"/>
	<line x1="2190.50" y1="1185.42" x2="2196.56" y2="1184.14" style="stroke:#A0A0A0;stroke-width:10.00"/>
	<line x1="2196.56" y1="1184.14" x2="2240.01" y2="1173.30" style="stroke:#A0A0A0;stroke-width:10.00"/>
	<line x1="351.09" y1="1904.40" x2="315.70" y2="1904.40" style="stroke:#000000;stroke-width:4.00"/>
	<text x="297.92" y="1921.92" style="font-family:'Helvetica';font-size:49.99px;fill:#000000" text-anchor="end">0</text>
	<line x1="351.09" y1="1750.38" x2="315.70" y2="1750.38" style="stroke:#000000;stroke-width:4.00"/>
	<text x="297.92" y="1767.90" style="font-family:'Helvetica';font-size:49.99px;fill:#000000" text-anchor="end">.1</text>
	<line x1="351.09" y1="1596.37" x2="315.70" y2="1596.37" style="stroke:#000000;stroke-width:4.00"/>
	<text x="297.92" y="1613.88" style="font-family:'Helvetica';font-size:49.99px;fill:#000000" text-anchor="end">.2</text>
	<line x1="351.09" y1="1442.35" x2="315.70" y2="1442.35" style="stroke:#000000;stroke-width:4.00"/>
	<text x="297.92" y="1459.87" style="font-family:'Helvetica';font-size:49.99px;fill:#000000" text-anchor="end">.3</text>
	<line x1="351.09" y1="1288.33" x2="315.70" y2="1288.33" style="stroke:#000000;stroke-width:4.00"/>
	<text x="297.92" y="1305.85" style="font-family:'Helvetica';font-size:49.99px;fill:#000000" text-anchor="end">.4</text>
	<line x1="351.09" y1="1134.40" x2="315.70" y2="1134.40" style="stroke:#000000;stroke-width:4.00"/>
	<text x="297.92" y="1151.91" style="font-family:'Helvetica';font-size:49.99px;fill:#000000" text-anchor="end">.5</text>
	<line x1="351.09" y1="980.38" x2="315.70" y2="980.38" style="stroke:#000000;stroke-width:4.00"/>
	<text x="297.92" y="997.90" style="font-family:'Helvetica';font-size:49.99px;fill:#000000" text-anchor="end">.6</text>
	<line x1="351.09" y1="826.36" x2="315.70" y2="826.36" style="stroke:#000000;stroke-width:4.00"/>
	<text x="297.92" y="843.88" style="font-family:'Helvetica';font-size:49.99px;fill:#000000" text-anchor="end">.7</text>
	<line x1="351.09" y1="672.35" x2="315.70" y2="672.35" style="stroke:#000000;stroke-width:4.00"/>
	<text x="297.92" y="689.86" style="font-family:'Helvetica';font-size:49.99px;fill:#000000" text-anchor="end">.8</text>
	<line x1="351.09" y1="518.33" x2="315.70" y2="518.33" style="stroke:#000000;stroke-width:4.00"/>
	<text x="297.92" y="535.85" style="font-family:'Helvetica';font-size:49.99px;fill:#000000" text-anchor="end">.9</text>
	<line x1="351.09" y1="364.31" x2="315.70" y2="364.31" style="stroke:#000000;stroke-width:4.00"/>
	<text x="297.92" y="381.83" style="font-family:'Helvetica';font-size:49.99px;fill:#000000" text-anchor="end">1</text>
	<line x1="351.09" y1="1904.40" x2="351.09" y2="364.31" style="stroke:#000000;stroke-width:4.00"/>
	<text x="136.21" y="1096.13" style="font-family:'Helvetica';font-size:60.03px;fill:#000000" transform="rotate(-90 136.21,1096.13)" text-anchor="middle">Full-time employment</text>
	<line x1="407.22" y1="1960.52" x2="407.22" y2="1995.92" style="stroke:#000000;stroke-width:4.00"/>
	<text x="407.22" y="2048.56" style="font-family:'Helvetica';font-size:49.99px;fill:#000000" text-anchor="middle">1976</text>
	<line x1="642.63" y1="1960.52" x2="642.63" y2="1995.92" style="stroke:#000000;stroke-width:4.00"/>
	<text x="642.63" y="2048.56" style="font-family:'Helvetica';font-size:49.99px;fill:#000000" text-anchor="middle">1981</text>
	<line x1="878.13" y1="1960.52" x2="878.13" y2="1995.92" style="stroke:#000000;stroke-width:4.00"/>
	<text x="878.13" y="2048.56" style="font-family:'Helvetica';font-size:49.99px;fill:#000000" text-anchor="middle">1986</text>
	<line x1="1113.55" y1="1960.52" x2="1113.55" y2="1995.92" style="stroke:#000000;stroke-width:4.00"/>
	<text x="1113.55" y="2048.56" style="font-family:'Helvetica';font-size:49.99px;fill:#000000" text-anchor="middle">1991</text>
	<line x1="1349.04" y1="1960.52" x2="1349.04" y2="1995.92" style="stroke:#000000;stroke-width:4.00"/>
	<text x="1349.04" y="2048.56" style="font-family:'Helvetica';font-size:49.99px;fill:#000000" text-anchor="middle">1996</text>
	<line x1="1584.46" y1="1960.52" x2="1584.46" y2="1995.92" style="stroke:#000000;stroke-width:4.00"/>
	<text x="1584.46" y="2048.56" style="font-family:'Helvetica';font-size:49.99px;fill:#000000" text-anchor="middle">2001</text>
	<line x1="1819.88" y1="1960.52" x2="1819.88" y2="1995.92" style="stroke:#000000;stroke-width:4.00"/>
	<text x="1819.88" y="2048.56" style="font-family:'Helvetica';font-size:49.99px;fill:#000000" text-anchor="middle">2006</text>
	<line x1="2055.37" y1="1960.52" x2="2055.37" y2="1995.92" style="stroke:#000000;stroke-width:4.00"/>
	<text x="2055.37" y="2048.56" style="font-family:'Helvetica';font-size:49.99px;fill:#000000" text-anchor="middle">2011</text>
	<line x1="2290.79" y1="1960.52" x2="2290.79" y2="1995.92" style="stroke:#000000;stroke-width:4.00"/>
	<text x="2290.79" y="2048.56" style="font-family:'Helvetica';font-size:49.99px;fill:#000000" text-anchor="middle">2016</text>
	<line x1="407.22" y1="1960.52" x2="2290.79" y2="1960.52" style="stroke:#000000;stroke-width:4.00"/>
	<text x="1310.78" y="2190.96" style="font-family:'Helvetica';font-size:60.03px;fill:#000000" text-anchor="middle">Year</text>
	<text x="145.41" y="2396.65" style="font-family:'Helvetica';font-size:60.03px;fill:#000000">Arr. cohort: </text>
	<text x="536.36" y="2396.65" style="font-family:'Helvetica';font-size:60.03px;fill:#000000">1964-73</text>
	<text x="845.12" y="2396.65" style="font-family:'Helvetica';font-size:60.03px;fill:#000000">1974-83</text>
	<text x="1153.89" y="2396.65" style="font-family:'Helvetica';font-size:60.03px;fill:#000000">1984-93</text>
	<text x="1462.65" y="2396.65" style="font-family:'Helvetica';font-size:60.03px;fill:#000000">1994-03</text>
	<text x="1771.41" y="2396.65" style="font-family:'Helvetica';font-size:60.03px;fill:#000000">2004-10</text>
	<text x="2080.17" y="2396.65" style="font-family:'Helvetica';font-size:60.03px;fill:#000000">German</text>
	<line x1="536.36" y1="2320.61" x2="737.26" y2="2320.61" style="stroke:#E69F00;stroke-width:10.00"/>
	<line x1="845.12" y1="2320.61" x2="1046.02" y2="2320.61" style="stroke:#56B4E9;stroke-width:10.00"/>
	<line x1="1153.89" y1="2320.61" x2="1354.78" y2="2320.61" style="stroke:#009E73;stroke-width:10.00"/>
	<line x1="1462.65" y1="2320.61" x2="1663.54" y2="2320.61" style="stroke:#D55E00;stroke-width:10.00"/>
	<line x1="1771.41" y1="2320.61" x2="1972.30" y2="2320.61" style="stroke:#CC79A7;stroke-width:10.00"/>
	<line x1="2080.17" y1="2320.61" x2="2131.19" y2="2320.61" style="stroke:#A0A0A0;stroke-width:10.00"/>
	<line x1="2156.70" y1="2320.61" x2="2207.72" y2="2320.61" style="stroke:#A0A0A0;stroke-width:10.00"/>
	<line x1="2233.23" y1="2320.61" x2="2278.03" y2="2320.61" style="stroke:#A0A0A0;stroke-width:10.00"/>
	<text x="1349.04" y="239.12" style="font-family:'Helvetica';font-size:60.03px;fill:#000000" text-anchor="middle">Shares</text>
	<text x="1349.04" y="154.88" style="font-family:'Helvetica';font-size:90.01px;fill:#000000" text-anchor="middle">Full-time employment, Women</text>
</svg>
