<?xml version="1.0" encoding="UTF-8" standalone="no"?>
<!-- This is a Stata 15.1 generated SVG file (http://www.stata.com) -->

<svg version="1.1" width="3.54in" height="3.54in" viewBox="0 0 2551 2551" xmlns="http://www.w3.org/2000/svg" xmlns:xlink="http://www.w3.org/1999/xlink">
	<desc>Stata Graph - Graph</desc>
	<rect x="0" y="0" width="2551" height="2551" style="fill:#FFFFFF;stroke:none"/>
	<rect x="0.00" y="0.08" width="2551.00" height="2550.92" style="fill:#FFFFFF"/>
	<rect x="2.55" y="2.63" width="2545.90" height="2545.82" style="fill:none;stroke:#FFFFFF;stroke-width:5.10"/>
	<line x1="351.09" y1="1904.40" x2="2346.91" y2="1904.40" style="stroke:#E8E8E8;stroke-width:4.00"/>
	<line x1="351.09" y1="1750.38" x2="2346.91" y2="1750.38" style="stroke:#E8E8E8;stroke-width:4.00"/>
	<line x1="351.09" y1="1596.37" x2="2346.91" y2="1596.37" style="stroke:#E8E8E8;stroke-width:4.00"/>
	<line x1="351.09" y1="1442.35" x2="2346.91" y2="1442.35" style="stroke:#E8E8E8;stroke-width:4.00"/>
	<line x1="351.09" y1="1288.33" x2="2346.91" y2="1288.33" style="stroke:#E8E8E8;stroke-width:4.00"/>
	<line x1="351.09" y1="1134.40" x2="2346.91" y2="1134.40" style="stroke:#E8E8E8;stroke-width:4.00"/>
	<line x1="351.09" y1="980.38" x2="2346.91" y2="980.38" style="stroke:#E8E8E8;stroke-width:4.00"/>
	<line x1="351.09" y1="826.36" x2="2346.91" y2="826.36" style="stroke:#E8E8E8;stroke-width:4.00"/>
	<line x1="351.09" y1="672.35" x2="2346.91" y2="672.35" style="stroke:#E8E8E8;stroke-width:4.00"/>
	<line x1="351.09" y1="518.33" x2="2346.91" y2="518.33" style="stroke:#E8E8E8;stroke-width:4.00"/>
	<line x1="351.09" y1="364.31" x2="2346.91" y2="364.31" style="stroke:#E8E8E8;stroke-width:4.00"/>
	<line x1="407.22" y1="1960.52" x2="407.22" y2="308.19" style="stroke:#E8E8E8;stroke-width:4.00"/>
	<line x1="642.63" y1="1960.52" x2="642.63" y2="308.19" style="stroke:#E8E8E8;stroke-width:4.00"/>
	<line x1="878.13" y1="1960.52" x2="878.13" y2="308.19" style="stroke:#E8E8E8;stroke-width:4.00"/>
	<line x1="1113.55" y1="1960.52" x2="1113.55" y2="308.19" style="stroke:#E8E8E8;stroke-width:4.00"/>
	<line x1="1349.04" y1="1960.52" x2="1349.04" y2="308.19" style="stroke:#E8E8E8;stroke-width:4.00"/>
	<line x1="1584.46" y1="1960.52" x2="1584.46" y2="308.19" style="stroke:#E8E8E8;stroke-width:4.00"/>
	<line x1="1819.88" y1="1960.52" x2="1819.88" y2="308.19" style="stroke:#E8E8E8;stroke-width:4.00"/>
	<line x1="2055.37" y1="1960.52" x2="2055.37" y2="308.19" style="stroke:#E8E8E8;stroke-width:4.00"/>
	<line x1="2290.79" y1="1960.52" x2="2290.79" y2="308.19" style="stroke:#E8E8E8;stroke-width:4.00"/>
	<line x1="407.22" y1="1868.93" x2="501.37" y2="1867.65" stroke-linecap="round" style="stroke:#E69F00;stroke-width:10.00"/>
	<line x1="501.37" y1="1867.65" x2="595.52" y2="1879.05" stroke-linecap="round" style="stroke:#E69F00;stroke-width:10.00"/>
	<line x1="595.52" y1="1879.05" x2="689.75" y2="1858.64" stroke-linecap="round" style="stroke:#E69F00;stroke-width:10.00"/>
	<line x1="689.75" y1="1858.64" x2="831.01" y2="1876.66" stroke-linecap="round" style="stroke:#E69F00;stroke-width:10.00"/>
	<line x1="831.01" y1="1876.66" x2="925.17" y2="1869.09" stroke-linecap="round" style="stroke:#E69F00;stroke-width:10.00"/>
	<line x1="925.17" y1="1869.09" x2="1019.32" y2="1879.85" stroke-linecap="round" style="stroke:#E69F00;stroke-width:10.00"/>
	<line x1="1019.32" y1="1879.85" x2="1113.55" y2="1881.12" stroke-linecap="round" style="stroke:#E69F00;stroke-width:10.00"/>
	<line x1="1113.55" y1="1881.12" x2="1207.70" y2="1823.33" stroke-linecap="round" style="stroke:#E69F00;stroke-width:10.00"/>
	<line x1="1207.70" y1="1823.33" x2="1301.85" y2="1853.06" stroke-linecap="round" style="stroke:#E69F00;stroke-width:10.00"/>
	<line x1="1301.85" y1="1853.06" x2="1348.96" y2="1854.10" stroke-linecap="round" style="stroke:#E69F00;stroke-width:10.00"/>
	<line x1="1348.96" y1="1854.10" x2="1396.08" y2="1845.57" stroke-linecap="round" style="stroke:#E69F00;stroke-width:10.00"/>
	<line x1="1396.08" y1="1845.57" x2="1443.11" y2="1852.82" stroke-linecap="round" style="stroke:#E69F00;stroke-width:10.00"/>
	<line x1="1443.11" y1="1852.82" x2="1490.23" y2="1860.95" stroke-linecap="round" style="stroke:#E69F00;stroke-width:10.00"/>
	<line x1="1490.23" y1="1860.95" x2="1537.34" y2="1858.64" stroke-linecap="round" style="stroke:#E69F00;stroke-width:10.00"/>
	<line x1="1537.34" y1="1858.64" x2="1584.38" y2="1868.93" stroke-linecap="round" style="stroke:#E69F00;stroke-width:10.00"/>
	<line x1="1584.38" y1="1868.93" x2="1631.50" y2="1843.58" stroke-linecap="round" style="stroke:#E69F00;stroke-width:10.00"/>
	<line x1="1631.50" y1="1843.58" x2="1678.61" y2="1851.31" stroke-linecap="round" style="stroke:#E69F00;stroke-width:10.00"/>
	<line x1="831.01" y1="1830.26" x2="925.17" y2="1844.29" stroke-linecap="round" style="stroke:#56B4E9;stroke-width:10.00"/>
	<line x1="925.17" y1="1844.29" x2="1019.32" y2="1847.72" stroke-linecap="round" style="stroke:#56B4E9;stroke-width:10.00"/>
	<line x1="1019.32" y1="1847.72" x2="1113.55" y2="1846.21" stroke-linecap="round" style="stroke:#56B4E9;stroke-width:10.00"/>
	<line x1="1113.55" y1="1846.21" x2="1207.70" y2="1823.33" stroke-linecap="round" style="stroke:#56B4E9;stroke-width:10.00"/>
	<line x1="1207.70" y1="1823.33" x2="1301.85" y2="1832.57" stroke-linecap="round" style="stroke:#56B4E9;stroke-width:10.00"/>
	<line x1="1301.85" y1="1832.57" x2="1348.96" y2="1790.72" stroke-linecap="round" style="stroke:#56B4E9;stroke-width:10.00"/>
	<line x1="1348.96" y1="1790.72" x2="1396.08" y2="1824.04" stroke-linecap="round" style="stroke:#56B4E9;stroke-width:10.00"/>
	<line x1="1396.08" y1="1824.04" x2="1443.11" y2="1814.80" stroke-linecap="round" style="stroke:#56B4E9;stroke-width:10.00"/>
	<line x1="1443.11" y1="1814.80" x2="1490.23" y2="1809.38" stroke-linecap="round" style="stroke:#56B4E9;stroke-width:10.00"/>
	<line x1="1490.23" y1="1809.38" x2="1537.34" y2="1843.66" stroke-linecap="round" style="stroke:#56B4E9;stroke-width:10.00"/>
	<line x1="1537.34" y1="1843.66" x2="1584.38" y2="1823.49" stroke-linecap="round" style="stroke:#56B4E9;stroke-width:10.00"/>
	<line x1="1584.38" y1="1823.49" x2="1631.50" y2="1809.70" stroke-linecap="round" style="stroke:#56B4E9;stroke-width:10.00"/>
	<line x1="1631.50" y1="1809.70" x2="1678.61" y2="1809.78" stroke-linecap="round" style="stroke:#56B4E9;stroke-width:10.00"/>
	<line x1="1678.61" y1="1809.78" x2="1725.65" y2="1799.01" stroke-linecap="round" style="stroke:#56B4E9;stroke-width:10.00"/>
	<line x1="1725.65" y1="1799.01" x2="1772.76" y2="1744.80" stroke-linecap="round" style="stroke:#56B4E9;stroke-width:10.00"/>
	<line x1="1772.76" y1="1744.80" x2="1819.88" y2="1711.00" stroke-linecap="round" style="stroke:#56B4E9;stroke-width:10.00"/>
	<line x1="1819.88" y1="1711.00" x2="1866.99" y2="1736.83" stroke-linecap="round" style="stroke:#56B4E9;stroke-width:10.00"/>
	<line x1="1866.99" y1="1736.83" x2="1914.03" y2="1793.91" stroke-linecap="round" style="stroke:#56B4E9;stroke-width:10.00"/>
	<line x1="1914.03" y1="1793.91" x2="1961.14" y2="1682.23" stroke-linecap="round" style="stroke:#56B4E9;stroke-width:10.00"/>
	<line x1="1961.14" y1="1682.23" x2="2008.26" y2="1749.27" stroke-linecap="round" style="stroke:#56B4E9;stroke-width:10.00"/>
	<line x1="2008.26" y1="1749.27" x2="2055.29" y2="1757.40" stroke-linecap="round" style="stroke:#56B4E9;stroke-width:10.00"/>
	<line x1="2055.29" y1="1757.40" x2="2102.41" y2="1701.04" stroke-linecap="round" style="stroke:#56B4E9;stroke-width:10.00"/>
	<line x1="2102.41" y1="1701.04" x2="2149.52" y2="1764.26" stroke-linecap="round" style="stroke:#56B4E9;stroke-width:10.00"/>
	<line x1="1301.85" y1="1815.28" x2="1348.96" y2="1804.91" stroke-linecap="round" style="stroke:#009E73;stroke-width:10.00"/>
	<line x1="1348.96" y1="1804.91" x2="1396.08" y2="1764.26" stroke-linecap="round" style="stroke:#009E73;stroke-width:10.00"/>
	<line x1="1396.08" y1="1764.26" x2="1443.11" y2="1782.91" stroke-linecap="round" style="stroke:#009E73;stroke-width:10.00"/>
	<line x1="1443.11" y1="1782.91" x2="1490.23" y2="1779.64" stroke-linecap="round" style="stroke:#009E73;stroke-width:10.00"/>
	<line x1="1490.23" y1="1779.64" x2="1537.34" y2="1785.62" stroke-linecap="round" style="stroke:#009E73;stroke-width:10.00"/>
	<line x1="1537.34" y1="1785.62" x2="1584.38" y2="1795.11" stroke-linecap="round" style="stroke:#009E73;stroke-width:10.00"/>
	<line x1="1584.38" y1="1795.11" x2="1631.50" y2="1803.40" stroke-linecap="round" style="stroke:#009E73;stroke-width:10.00"/>
	<line x1="1631.50" y1="1803.40" x2="1678.61" y2="1785.06" stroke-linecap="round" style="stroke:#009E73;stroke-width:10.00"/>
	<line x1="1678.61" y1="1785.06" x2="1725.65" y2="1765.85" stroke-linecap="round" style="stroke:#009E73;stroke-width:10.00"/>
	<line x1="1725.65" y1="1765.85" x2="1772.76" y2="1775.89" stroke-linecap="round" style="stroke:#009E73;stroke-width:10.00"/>
	<line x1="1772.76" y1="1775.89" x2="1819.88" y2="1752.86" stroke-linecap="round" style="stroke:#009E73;stroke-width:10.00"/>
	<line x1="1819.88" y1="1752.86" x2="1866.99" y2="1701.84" stroke-linecap="round" style="stroke:#009E73;stroke-width:10.00"/>
	<line x1="1866.99" y1="1701.84" x2="1914.03" y2="1700.00" stroke-linecap="round" style="stroke:#009E73;stroke-width:10.00"/>
	<line x1="1914.03" y1="1700.00" x2="1961.14" y2="1653.45" stroke-linecap="round" style="stroke:#009E73;stroke-width:10.00"/>
	<line x1="1961.14" y1="1653.45" x2="2008.26" y2="1703.35" stroke-linecap="round" style="stroke:#009E73;stroke-width:10.00"/>
	<line x1="2008.26" y1="1703.35" x2="2055.29" y2="1738.11" stroke-linecap="round" style="stroke:#009E73;stroke-width:10.00"/>
	<line x1="2055.29" y1="1738.11" x2="2102.41" y2="1703.19" stroke-linecap="round" style="stroke:#009E73;stroke-width:10.00"/>
	<line x1="2102.41" y1="1703.19" x2="2149.52" y2="1650.66" stroke-linecap="round" style="stroke:#009E73;stroke-width:10.00"/>
	<line x1="2149.52" y1="1650.66" x2="2196.56" y2="1669.47" stroke-linecap="round" style="stroke:#009E73;stroke-width:10.00"/>
	<line x1="2196.56" y1="1669.47" x2="2243.67" y2="1720.97" stroke-linecap="round" style="stroke:#009E73;stroke-width:10.00"/>
	<line x1="1725.65" y1="1740.82" x2="1772.76" y2="1643.32" stroke-linecap="round" style="stroke:#D55E00;stroke-width:10.00"/>
	<line x1="1772.76" y1="1643.32" x2="1819.88" y2="1669.71" stroke-linecap="round" style="stroke:#D55E00;stroke-width:10.00"/>
	<line x1="1819.88" y1="1669.71" x2="1866.99" y2="1701.60" stroke-linecap="round" style="stroke:#D55E00;stroke-width:10.00"/>
	<line x1="1866.99" y1="1701.60" x2="1914.03" y2="1671.30" stroke-linecap="round" style="stroke:#D55E00;stroke-width:10.00"/>
	<line x1="1914.03" y1="1671.30" x2="1961.14" y2="1652.01" stroke-linecap="round" style="stroke:#D55E00;stroke-width:10.00"/>
	<line x1="1961.14" y1="1652.01" x2="2008.26" y2="1649.46" stroke-linecap="round" style="stroke:#D55E00;stroke-width:10.00"/>
	<line x1="2008.26" y1="1649.46" x2="2055.29" y2="1628.81" stroke-linecap="round" style="stroke:#D55E00;stroke-width:10.00"/>
	<line x1="2055.29" y1="1628.81" x2="2102.41" y2="1650.82" stroke-linecap="round" style="stroke:#D55E00;stroke-width:10.00"/>
	<line x1="2102.41" y1="1650.82" x2="2149.52" y2="1678.08" stroke-linecap="round" style="stroke:#D55E00;stroke-width:10.00"/>
	<line x1="2149.52" y1="1678.08" x2="2196.56" y2="1675.37" stroke-linecap="round" style="stroke:#D55E00;stroke-width:10.00"/>
	<line x1="2196.56" y1="1675.37" x2="2243.67" y2="1657.91" stroke-linecap="round" style="stroke:#D55E00;stroke-width:10.00"/>
	<line x1="2055.29" y1="1648.42" x2="2102.41" y2="1652.73" stroke-linecap="round" style="stroke:#CC79A7;stroke-width:10.00"/>
	<line x1="2102.41" y1="1652.73" x2="2149.52" y2="1674.41" stroke-linecap="round" style="stroke:#CC79A7;stroke-width:10.00"/>
	<line x1="2149.52" y1="1674.41" x2="2196.56" y2="1642.37" stroke-linecap="round" style="stroke:#CC79A7;stroke-width:10.00"/>
	<line x1="2196.56" y1="1642.37" x2="2243.67" y2="1655.60" stroke-linecap="round" style="stroke:#CC79A7;stroke-width:10.00"/>
	<line x1="407.22" y1="1843.42" x2="458.16" y2="1846.21" style="stroke:#A0A0A0;stroke-width:10.00"/>
	<line x1="483.67" y1="1847.56" x2="501.37" y2="1848.52" style="stroke:#A0A0A0;stroke-width:10.00"/>
	<line x1="501.37" y1="1848.52" x2="534.61" y2="1849.63" style="stroke:#A0A0A0;stroke-width:10.00"/>
	<line x1="560.12" y1="1850.51" x2="595.52" y2="1851.71" style="stroke:#A0A0A0;stroke-width:10.00"/>
	<line x1="595.52" y1="1851.71" x2="611.14" y2="1850.59" style="stroke:#A0A0A0;stroke-width:10.00"/>
	<line x1="636.57" y1="1848.68" x2="687.44" y2="1844.93" style="stroke:#A0A0A0;stroke-width:10.00"/>
	<line x1="712.63" y1="1848.44" x2="763.01" y2="1856.57" style="stroke:#A0A0A0;stroke-width:10.00"/>
	<line x1="788.28" y1="1860.56" x2="831.01" y2="1867.41" style="stroke:#A0A0A0;stroke-width:10.00"/>
	<line x1="831.01" y1="1867.41" x2="838.67" y2="1866.61" style="stroke:#A0A0A0;stroke-width:10.00"/>
	<line x1="864.02" y1="1864.06" x2="914.80" y2="1858.80" style="stroke:#A0A0A0;stroke-width:10.00"/>
	<line x1="940.23" y1="1857.93" x2="991.25" y2="1858.48" style="stroke:#A0A0A0;stroke-width:10.00"/>
	<line x1="1016.76" y1="1858.80" x2="1019.32" y2="1858.80" style="stroke:#A0A0A0;stroke-width:10.00"/>
	<line x1="1019.32" y1="1858.80" x2="1067.79" y2="1860.16" style="stroke:#A0A0A0;stroke-width:10.00"/>
	<line x1="1093.30" y1="1860.95" x2="1113.55" y2="1861.51" style="stroke:#A0A0A0;stroke-width:10.00"/>
	<line x1="1113.55" y1="1861.51" x2="1143.84" y2="1856.25" style="stroke:#A0A0A0;stroke-width:10.00"/>
	<line x1="1168.95" y1="1851.95" x2="1207.70" y2="1845.17" style="stroke:#A0A0A0;stroke-width:10.00"/>
	<line x1="1207.70" y1="1845.17" x2="1219.42" y2="1844.37" style="stroke:#A0A0A0;stroke-width:10.00"/>
	<line x1="1244.85" y1="1842.70" x2="1295.71" y2="1839.27" style="stroke:#A0A0A0;stroke-width:10.00"/>
	<line x1="1321.22" y1="1839.91" x2="1348.96" y2="1841.42" style="stroke:#A0A0A0;stroke-width:10.00"/>
	<line x1="1348.96" y1="1841.42" x2="1372.16" y2="1839.83" style="stroke:#A0A0A0;stroke-width:10.00"/>
	<line x1="1397.59" y1="1838.31" x2="1443.11" y2="1839.19" style="stroke:#A0A0A0;stroke-width:10.00"/>
	<line x1="1443.11" y1="1839.19" x2="1448.61" y2="1839.43" style="stroke:#A0A0A0;stroke-width:10.00"/>
	<line x1="1474.13" y1="1840.47" x2="1490.23" y2="1841.10" style="stroke:#A0A0A0;stroke-width:10.00"/>
	<line x1="1490.23" y1="1841.10" x2="1525.07" y2="1839.27" style="stroke:#A0A0A0;stroke-width:10.00"/>
	<line x1="1550.58" y1="1838.71" x2="1584.38" y2="1838.87" style="stroke:#A0A0A0;stroke-width:10.00"/>
	<line x1="1584.38" y1="1838.87" x2="1601.44" y2="1836.64" style="stroke:#A0A0A0;stroke-width:10.00"/>
	<line x1="1626.71" y1="1833.29" x2="1631.50" y2="1832.65" style="stroke:#A0A0A0;stroke-width:10.00"/>
	<line x1="1631.50" y1="1832.65" x2="1677.49" y2="1828.03" style="stroke:#A0A0A0;stroke-width:10.00"/>
	<line x1="1702.77" y1="1824.44" x2="1725.65" y2="1821.25" style="stroke:#A0A0A0;stroke-width:10.00"/>
	<line x1="1725.65" y1="1821.25" x2="1747.65" y2="1804.19" style="stroke:#A0A0A0;stroke-width:10.00"/>
	<line x1="1767.90" y1="1788.57" x2="1772.76" y2="1784.74" style="stroke:#A0A0A0;stroke-width:10.00"/>
	<line x1="1772.76" y1="1784.74" x2="1816.69" y2="1775.97" style="stroke:#A0A0A0;stroke-width:10.00"/>
	<line x1="1841.88" y1="1772.15" x2="1866.99" y2="1768.56" style="stroke:#A0A0A0;stroke-width:10.00"/>
	<line x1="1866.99" y1="1768.56" x2="1892.34" y2="1764.49" style="stroke:#A0A0A0;stroke-width:10.00"/>
	<line x1="1916.82" y1="1758.76" x2="1957.24" y2="1727.59" style="stroke:#A0A0A0;stroke-width:10.00"/>
	<line x1="1979.48" y1="1734.12" x2="2008.26" y2="1749.03" style="stroke:#A0A0A0;stroke-width:10.00"/>
	<line x1="2008.26" y1="1749.03" x2="2026.83" y2="1748.31" style="stroke:#A0A0A0;stroke-width:10.00"/>
	<line x1="2052.26" y1="1747.28" x2="2055.29" y2="1747.12" style="stroke:#A0A0A0;stroke-width:10.00"/>
	<line x1="2055.29" y1="1747.12" x2="2102.41" y2="1739.86" style="stroke:#A0A0A0;stroke-width:10.00"/>
	<line x1="2102.41" y1="1739.86" x2="2102.73" y2="1739.86" style="stroke:#A0A0A0;stroke-width:10.00"/>
	<line x1="2128.24" y1="1738.51" x2="2149.52" y2="1737.39" style="stroke:#A0A0A0;stroke-width:10.00"/>
	<line x1="2149.52" y1="1737.39" x2="2179.18" y2="1738.19" style="stroke:#A0A0A0;stroke-width:10.00"/>
	<line x1="2204.69" y1="1739.46" x2="2243.67" y2="1742.97" style="stroke:#A0A0A0;stroke-width:10.00"/>
	<line x1="351.09" y1="1904.40" x2="315.70" y2="1904.40" style="stroke:#000000;stroke-width:4.00"/>
	<text x="297.92" y="1921.92" style="font-family:'Helvetica';font-size:49.99px;fill:#000000" text-anchor="end">0</text>
	<line x1="351.09" y1="1750.38" x2="315.70" y2="1750.38" style="stroke:#000000;stroke-width:4.00"/>
	<text x="297.92" y="1767.90" style="font-family:'Helvetica';font-size:49.99px;fill:#000000" text-anchor="end">.1</text>
	<line x1="351.09" y1="1596.37" x2="315.70" y2="1596.37" style="stroke:#000000;stroke-width:4.00"/>
	<text x="297.92" y="1613.88" style="font-family:'Helvetica';font-size:49.99px;fill:#000000" text-anchor="end">.2</text>
	<line x1="351.09" y1="1442.35" x2="315.70" y2="1442.35" style="stroke:#000000;stroke-width:4.00"/>
	<text x="297.92" y="1459.87" style="font-family:'Helvetica';font-size:49.99px;fill:#000000" text-anchor="end">.3</text>
	<line x1="351.09" y1="1288.33" x2="315.70" y2="1288.33" style="stroke:#000000;stroke-width:4.00"/>
	<text x="297.92" y="1305.85" style="font-family:'Helvetica';font-size:49.99px;fill:#000000" text-anchor="end">.4</text>
	<line x1="351.09" y1="1134.40" x2="315.70" y2="1134.40" style="stroke:#000000;stroke-width:4.00"/>
	<text x="297.92" y="1151.91" style="font-family:'Helvetica';font-size:49.99px;fill:#000000" text-anchor="end">.5</text>
	<line x1="351.09" y1="980.38" x2="315.70" y2="980.38" style="stroke:#000000;stroke-width:4.00"/>
	<text x="297.92" y="997.90" style="font-family:'Helvetica';font-size:49.99px;fill:#000000" text-anchor="end">.6</text>
	<line x1="351.09" y1="826.36" x2="315.70" y2="826.36" style="stroke:#000000;stroke-width:4.00"/>
	<text x="297.92" y="843.88" style="font-family:'Helvetica';font-size:49.99px;fill:#000000" text-anchor="end">.7</text>
	<line x1="351.09" y1="672.35" x2="315.70" y2="672.35" style="stroke:#000000;stroke-width:4.00"/>
	<text x="297.92" y="689.86" style="font-family:'Helvetica';font-size:49.99px;fill:#000000" text-anchor="end">.8</text>
	<line x1="351.09" y1="518.33" x2="315.70" y2="518.33" style="stroke:#000000;stroke-width:4.00"/>
	<text x="297.92" y="535.85" style="font-family:'Helvetica';font-size:49.99px;fill:#000000" text-anchor="end">.9</text>
	<line x1="351.09" y1="364.31" x2="315.70" y2="364.31" style="stroke:#000000;stroke-width:4.00"/>
	<text x="297.92" y="381.83" style="font-family:'Helvetica';font-size:49.99px;fill:#000000" text-anchor="end">1</text>
	<line x1="351.09" y1="1904.40" x2="351.09" y2="364.31" style="stroke:#000000;stroke-width:4.00"/>
	<text x="136.21" y="1096.13" style="font-family:'Helvetica';font-size:60.03px;fill:#000000" transform="rotate(-90 136.21,1096.13)" text-anchor="middle">Part-time employment</text>
	<line x1="407.22" y1="1960.52" x2="407.22" y2="1995.92" style="stroke:#000000;stroke-width:4.00"/>
	<text x="407.22" y="2048.56" style="font-family:'Helvetica';font-size:49.99px;fill:#000000" text-anchor="middle">1976</text>
	<line x1="642.63" y1="1960.52" x2="642.63" y2="1995.92" style="stroke:#000000;stroke-width:4.00"/>
	<text x="642.63" y="2048.56" style="font-family:'Helvetica';font-size:49.99px;fill:#000000" text-anchor="middle">1981</text>
	<line x1="878.13" y1="1960.52" x2="878.13" y2="1995.92" style="stroke:#000000;stroke-width:4.00"/>
	<text x="878.13" y="2048.56" style="font-family:'Helvetica';font-size:49.99px;fill:#000000" text-anchor="middle">1986</text>
	<line x1="1113.55" y1="1960.52" x2="1113.55" y2="1995.92" style="stroke:#000000;stroke-width:4.00"/>
	<text x="1113.55" y="2048.56" style="font-family:'Helvetica';font-size:49.99px;fill:#000000" text-anchor="middle">1991</text>
	<line x1="1349.04" y1="1960.52" x2="1349.04" y2="1995.92" style="stroke:#000000;stroke-width:4.00"/>
	<text x="1349.04" y="2048.56" style="font-family:'Helvetica';font-size:49.99px;fill:#000000" text-anchor="middle">1996</text>
	<line x1="1584.46" y1="1960.52" x2="1584.46" y2="1995.92" style="stroke:#000000;stroke-width:4.00"/>
	<text x="1584.46" y="2048.56" style="font-family:'Helvetica';font-size:49.99px;fill:#000000" text-anchor="middle">2001</text>
	<line x1="1819.88" y1="1960.52" x2="1819.88" y2="1995.92" style="stroke:#000000;stroke-width:4.00"/>
	<text x="1819.88" y="2048.56" style="font-family:'Helvetica';font-size:49.99px;fill:#000000" text-anchor="middle">2006</text>
	<line x1="2055.37" y1="1960.52" x2="2055.37" y2="1995.92" style="stroke:#000000;stroke-width:4.00"/>
	<text x="2055.37" y="2048.56" style="font-family:'Helvetica';font-size:49.99px;fill:#000000" text-anchor="middle">2011</text>
	<line x1="2290.79" y1="1960.52" x2="2290.79" y2="1995.92" style="stroke:#000000;stroke-width:4.00"/>
	<text x="2290.79" y="2048.56" style="font-family:'Helvetica';font-size:49.99px;fill:#000000" text-anchor="middle">2016</text>
	<line x1="407.22" y1="1960.52" x2="2290.79" y2="1960.52" style="stroke:#000000;stroke-width:4.00"/>
	<text x="1310.78" y="2190.96" style="font-family:'Helvetica';font-size:60.03px;fill:#000000" text-anchor="middle">Year</text>
	<text x="145.41" y="2396.65" style="font-family:'Helvetica';font-size:60.03px;fill:#000000">Arr. cohort: </text>
	<text x="536.36" y="2396.65" style="font-family:'Helvetica';font-size:60.03px;fill:#000000">1964-73</text>
	<text x="845.12" y="2396.65" style="font-family:'Helvetica';font-size:60.03px;fill:#000000">1974-83</text>
	<text x="1153.89" y="2396.65" style="font-family:'Helvetica';font-size:60.03px;fill:#000000">1984-93</text>
	<text x="1462.65" y="2396.65" style="font-family:'Helvetica';font-size:60.03px;fill:#000000">1994-03</text>
	<text x="1771.41" y="2396.65" style="font-family:'Helvetica';font-size:60.03px;fill:#000000">2004-10</text>
	<text x="2080.17" y="2396.65" style="font-family:'Helvetica';font-size:60.03px;fill:#000000">German</text>
	<line x1="536.36" y1="2320.61" x2="737.26" y2="2320.61" style="stroke:#E69F00;stroke-width:10.00"/>
	<line x1="845.12" y1="2320.61" x2="1046.02" y2="2320.61" style="stroke:#56B4E9;stroke-width:10.00"/>
	<line x1="1153.89" y1="2320.61" x2="1354.78" y2="2320.61" style="stroke:#009E73;stroke-width:10.00"/>
	<line x1="1462.65" y1="2320.61" x2="1663.54" y2="2320.61" style="stroke:#D55E00;stroke-width:10.00"/>
	<line x1="1771.41" y1="2320.61" x2="1972.30" y2="2320.61" style="stroke:#CC79A7;stroke-width:10.00"/>
	<line x1="2080.17" y1="2320.61" x2="2131.19" y2="2320.61" style="stroke:#A0A0A0;stroke-width:10.00"/>
	<line x1="2156.70" y1="2320.61" x2="2207.72" y2="2320.61" style="stroke:#A0A0A0;stroke-width:10.00"/>
	<line x1="2233.23" y1="2320.61" x2="2278.03" y2="2320.61" style="stroke:#A0A0A0;stroke-width:10.00"/>
	<text x="1349.04" y="239.12" style="font-family:'Helvetica';font-size:60.03px;fill:#000000" text-anchor="middle">Shares</text>
	<text x="1349.04" y="154.88" style="font-family:'Helvetica';font-size:90.01px;fill:#000000" text-anchor="middle">Part-time employment, Men</text>
</svg>
