<?xml version="1.0" encoding="UTF-8" standalone="no"?>
<!-- This is a Stata 15.1 generated SVG file (http://www.stata.com) -->

<svg version="1.1" width="3.54in" height="3.54in" viewBox="0 0 2551 2551" xmlns="http://www.w3.org/2000/svg" xmlns:xlink="http://www.w3.org/1999/xlink">
	<desc>Stata Graph - Graph</desc>
	<rect x="0" y="0" width="2551" height="2551" style="fill:#FFFFFF;stroke:none"/>
	<rect x="0.00" y="0.08" width="2551.00" height="2550.92" style="fill:#FFFFFF"/>
	<rect x="2.55" y="2.63" width="2545.90" height="2545.82" style="fill:none;stroke:#FFFFFF;stroke-width:5.10"/>
	<line x1="394.86" y1="1865.82" x2="2346.91" y2="1865.82" style="stroke:#E8E8E8;stroke-width:4.00"/>
	<line x1="394.86" y1="1715.63" x2="2346.91" y2="1715.63" style="stroke:#E8E8E8;stroke-width:4.00"/>
	<line x1="394.86" y1="1565.52" x2="2346.91" y2="1565.52" style="stroke:#E8E8E8;stroke-width:4.00"/>
	<line x1="394.86" y1="1415.41" x2="2346.91" y2="1415.41" style="stroke:#E8E8E8;stroke-width:4.00"/>
	<line x1="394.86" y1="1265.22" x2="2346.91" y2="1265.22" style="stroke:#E8E8E8;stroke-width:4.00"/>
	<line x1="394.86" y1="1115.11" x2="2346.91" y2="1115.11" style="stroke:#E8E8E8;stroke-width:4.00"/>
	<line x1="394.86" y1="964.92" x2="2346.91" y2="964.92" style="stroke:#E8E8E8;stroke-width:4.00"/>
	<line x1="394.86" y1="814.81" x2="2346.91" y2="814.81" style="stroke:#E8E8E8;stroke-width:4.00"/>
	<line x1="394.86" y1="664.62" x2="2346.91" y2="664.62" style="stroke:#E8E8E8;stroke-width:4.00"/>
	<line x1="394.86" y1="514.50" x2="2346.91" y2="514.50" style="stroke:#E8E8E8;stroke-width:4.00"/>
	<line x1="394.86" y1="364.31" x2="2346.91" y2="364.31" style="stroke:#E8E8E8;stroke-width:4.00"/>
	<line x1="450.98" y1="1921.94" x2="450.98" y2="308.19" style="stroke:#E8E8E8;stroke-width:4.00"/>
	<line x1="680.98" y1="1921.94" x2="680.98" y2="308.19" style="stroke:#E8E8E8;stroke-width:4.00"/>
	<line x1="910.89" y1="1921.94" x2="910.89" y2="308.19" style="stroke:#E8E8E8;stroke-width:4.00"/>
	<line x1="1140.89" y1="1921.94" x2="1140.89" y2="308.19" style="stroke:#E8E8E8;stroke-width:4.00"/>
	<line x1="1370.89" y1="1921.94" x2="1370.89" y2="308.19" style="stroke:#E8E8E8;stroke-width:4.00"/>
	<line x1="1600.88" y1="1921.94" x2="1600.88" y2="308.19" style="stroke:#E8E8E8;stroke-width:4.00"/>
	<line x1="1830.88" y1="1921.94" x2="1830.88" y2="308.19" style="stroke:#E8E8E8;stroke-width:4.00"/>
	<line x1="2060.79" y1="1921.94" x2="2060.79" y2="308.19" style="stroke:#E8E8E8;stroke-width:4.00"/>
	<line x1="2290.79" y1="1921.94" x2="2290.79" y2="308.19" style="stroke:#E8E8E8;stroke-width:4.00"/>
	<line x1="450.90" y1="456.31" x2="542.90" y2="440.13" stroke-linecap="round" style="stroke:#E69F00;stroke-width:10.00"/>
	<line x1="542.90" y1="440.13" x2="634.90" y2="423.47" stroke-linecap="round" style="stroke:#E69F00;stroke-width:10.00"/>
	<line x1="634.90" y1="423.47" x2="726.90" y2="499.76" stroke-linecap="round" style="stroke:#E69F00;stroke-width:10.00"/>
	<line x1="726.90" y1="499.76" x2="864.90" y2="520.40" stroke-linecap="round" style="stroke:#E69F00;stroke-width:10.00"/>
	<line x1="864.90" y1="520.40" x2="956.89" y2="527.50" stroke-linecap="round" style="stroke:#E69F00;stroke-width:10.00"/>
	<line x1="956.89" y1="527.50" x2="1048.89" y2="511.79" stroke-linecap="round" style="stroke:#E69F00;stroke-width:10.00"/>
	<line x1="1048.89" y1="511.79" x2="1140.89" y2="515.62" stroke-linecap="round" style="stroke:#E69F00;stroke-width:10.00"/>
	<line x1="1140.89" y1="515.62" x2="1232.89" y2="577.56" stroke-linecap="round" style="stroke:#E69F00;stroke-width:10.00"/>
	<line x1="1232.89" y1="577.56" x2="1324.81" y2="679.60" stroke-linecap="round" style="stroke:#E69F00;stroke-width:10.00"/>
	<line x1="1324.81" y1="679.60" x2="1370.81" y2="716.11" stroke-linecap="round" style="stroke:#E69F00;stroke-width:10.00"/>
	<line x1="1370.81" y1="716.11" x2="1416.81" y2="709.10" stroke-linecap="round" style="stroke:#E69F00;stroke-width:10.00"/>
	<line x1="1416.81" y1="709.10" x2="1462.81" y2="725.36" stroke-linecap="round" style="stroke:#E69F00;stroke-width:10.00"/>
	<line x1="1462.81" y1="725.36" x2="1508.80" y2="718.66" stroke-linecap="round" style="stroke:#E69F00;stroke-width:10.00"/>
	<line x1="1508.80" y1="718.66" x2="1554.80" y2="721.30" stroke-linecap="round" style="stroke:#E69F00;stroke-width:10.00"/>
	<line x1="1554.80" y1="721.30" x2="1600.80" y2="719.94" stroke-linecap="round" style="stroke:#E69F00;stroke-width:10.00"/>
	<line x1="1600.80" y1="719.94" x2="1646.80" y2="732.14" stroke-linecap="round" style="stroke:#E69F00;stroke-width:10.00"/>
	<line x1="1646.80" y1="732.14" x2="1692.80" y2="751.11" stroke-linecap="round" style="stroke:#E69F00;stroke-width:10.00"/>
	<line x1="864.90" y1="716.59" x2="956.89" y2="659.99" stroke-linecap="round" style="stroke:#56B4E9;stroke-width:10.00"/>
	<line x1="956.89" y1="659.99" x2="1048.89" y2="623.48" stroke-linecap="round" style="stroke:#56B4E9;stroke-width:10.00"/>
	<line x1="1048.89" y1="623.48" x2="1140.89" y2="548.62" stroke-linecap="round" style="stroke:#56B4E9;stroke-width:10.00"/>
	<line x1="1140.89" y1="548.62" x2="1232.89" y2="627.39" stroke-linecap="round" style="stroke:#56B4E9;stroke-width:10.00"/>
	<line x1="1232.89" y1="627.39" x2="1324.81" y2="622.13" stroke-linecap="round" style="stroke:#56B4E9;stroke-width:10.00"/>
	<line x1="1324.81" y1="622.13" x2="1370.81" y2="634.72" stroke-linecap="round" style="stroke:#56B4E9;stroke-width:10.00"/>
	<line x1="1370.81" y1="634.72" x2="1416.81" y2="641.58" stroke-linecap="round" style="stroke:#56B4E9;stroke-width:10.00"/>
	<line x1="1416.81" y1="641.58" x2="1462.81" y2="623.00" stroke-linecap="round" style="stroke:#56B4E9;stroke-width:10.00"/>
	<line x1="1462.81" y1="623.00" x2="1508.80" y2="688.21" stroke-linecap="round" style="stroke:#56B4E9;stroke-width:10.00"/>
	<line x1="1508.80" y1="688.21" x2="1554.80" y2="628.02" stroke-linecap="round" style="stroke:#56B4E9;stroke-width:10.00"/>
	<line x1="1554.80" y1="628.02" x2="1600.80" y2="619.65" stroke-linecap="round" style="stroke:#56B4E9;stroke-width:10.00"/>
	<line x1="1600.80" y1="619.65" x2="1646.80" y2="655.69" stroke-linecap="round" style="stroke:#56B4E9;stroke-width:10.00"/>
	<line x1="1646.80" y1="655.69" x2="1692.80" y2="681.75" stroke-linecap="round" style="stroke:#56B4E9;stroke-width:10.00"/>
	<line x1="1692.80" y1="681.75" x2="1738.80" y2="728.95" stroke-linecap="round" style="stroke:#56B4E9;stroke-width:10.00"/>
	<line x1="1738.80" y1="728.95" x2="1784.80" y2="707.98" stroke-linecap="round" style="stroke:#56B4E9;stroke-width:10.00"/>
	<line x1="1784.80" y1="707.98" x2="1830.80" y2="705.35" stroke-linecap="round" style="stroke:#56B4E9;stroke-width:10.00"/>
	<line x1="1830.80" y1="705.35" x2="1876.80" y2="686.38" stroke-linecap="round" style="stroke:#56B4E9;stroke-width:10.00"/>
	<line x1="1876.80" y1="686.38" x2="1922.80" y2="727.67" stroke-linecap="round" style="stroke:#56B4E9;stroke-width:10.00"/>
	<line x1="1922.80" y1="727.67" x2="1968.80" y2="710.21" stroke-linecap="round" style="stroke:#56B4E9;stroke-width:10.00"/>
	<line x1="1968.80" y1="710.21" x2="2014.79" y2="723.93" stroke-linecap="round" style="stroke:#56B4E9;stroke-width:10.00"/>
	<line x1="2014.79" y1="723.93" x2="2060.79" y2="697.94" stroke-linecap="round" style="stroke:#56B4E9;stroke-width:10.00"/>
	<line x1="2060.79" y1="697.94" x2="2106.79" y2="739.71" stroke-linecap="round" style="stroke:#56B4E9;stroke-width:10.00"/>
	<line x1="2106.79" y1="739.71" x2="2152.79" y2="741.38" stroke-linecap="round" style="stroke:#56B4E9;stroke-width:10.00"/>
	<line x1="1324.81" y1="795.27" x2="1370.81" y2="820.78" stroke-linecap="round" style="stroke:#009E73;stroke-width:10.00"/>
	<line x1="1370.81" y1="820.78" x2="1416.81" y2="820.47" stroke-linecap="round" style="stroke:#009E73;stroke-width:10.00"/>
	<line x1="1416.81" y1="820.47" x2="1462.81" y2="755.81" stroke-linecap="round" style="stroke:#009E73;stroke-width:10.00"/>
	<line x1="1462.81" y1="755.81" x2="1508.80" y2="712.61" stroke-linecap="round" style="stroke:#009E73;stroke-width:10.00"/>
	<line x1="1508.80" y1="712.61" x2="1554.80" y2="647.95" stroke-linecap="round" style="stroke:#009E73;stroke-width:10.00"/>
	<line x1="1554.80" y1="647.95" x2="1600.80" y2="641.26" stroke-linecap="round" style="stroke:#009E73;stroke-width:10.00"/>
	<line x1="1600.80" y1="641.26" x2="1646.80" y2="668.28" stroke-linecap="round" style="stroke:#009E73;stroke-width:10.00"/>
	<line x1="1646.80" y1="668.28" x2="1692.80" y2="698.97" stroke-linecap="round" style="stroke:#009E73;stroke-width:10.00"/>
	<line x1="1692.80" y1="698.97" x2="1738.80" y2="734.21" stroke-linecap="round" style="stroke:#009E73;stroke-width:10.00"/>
	<line x1="1738.80" y1="734.21" x2="1784.80" y2="733.09" stroke-linecap="round" style="stroke:#009E73;stroke-width:10.00"/>
	<line x1="1784.80" y1="733.09" x2="1830.80" y2="703.76" stroke-linecap="round" style="stroke:#009E73;stroke-width:10.00"/>
	<line x1="1830.80" y1="703.76" x2="1876.80" y2="696.42" stroke-linecap="round" style="stroke:#009E73;stroke-width:10.00"/>
	<line x1="1876.80" y1="696.42" x2="1922.80" y2="673.30" stroke-linecap="round" style="stroke:#009E73;stroke-width:10.00"/>
	<line x1="1922.80" y1="673.30" x2="1968.80" y2="671.31" stroke-linecap="round" style="stroke:#009E73;stroke-width:10.00"/>
	<line x1="1968.80" y1="671.31" x2="2014.79" y2="668.20" stroke-linecap="round" style="stroke:#009E73;stroke-width:10.00"/>
	<line x1="2014.79" y1="668.20" x2="2060.79" y2="646.44" stroke-linecap="round" style="stroke:#009E73;stroke-width:10.00"/>
	<line x1="2060.79" y1="646.44" x2="2106.79" y2="659.43" stroke-linecap="round" style="stroke:#009E73;stroke-width:10.00"/>
	<line x1="2106.79" y1="659.43" x2="2152.79" y2="644.84" stroke-linecap="round" style="stroke:#009E73;stroke-width:10.00"/>
	<line x1="2152.79" y1="644.84" x2="2198.79" y2="655.93" stroke-linecap="round" style="stroke:#009E73;stroke-width:10.00"/>
	<line x1="2198.79" y1="655.93" x2="2244.79" y2="661.75" stroke-linecap="round" style="stroke:#009E73;stroke-width:10.00"/>
	<line x1="1738.80" y1="855.54" x2="1784.80" y2="828.68" stroke-linecap="round" style="stroke:#D55E00;stroke-width:10.00"/>
	<line x1="1784.80" y1="828.68" x2="1830.80" y2="803.88" stroke-linecap="round" style="stroke:#D55E00;stroke-width:10.00"/>
	<line x1="1830.80" y1="803.88" x2="1876.80" y2="751.35" stroke-linecap="round" style="stroke:#D55E00;stroke-width:10.00"/>
	<line x1="1876.80" y1="751.35" x2="1922.80" y2="713.40" stroke-linecap="round" style="stroke:#D55E00;stroke-width:10.00"/>
	<line x1="1922.80" y1="713.40" x2="1968.80" y2="704.63" stroke-linecap="round" style="stroke:#D55E00;stroke-width:10.00"/>
	<line x1="1968.80" y1="704.63" x2="2014.79" y2="698.34" stroke-linecap="round" style="stroke:#D55E00;stroke-width:10.00"/>
	<line x1="2014.79" y1="698.34" x2="2060.79" y2="626.11" stroke-linecap="round" style="stroke:#D55E00;stroke-width:10.00"/>
	<line x1="2060.79" y1="626.11" x2="2106.79" y2="593.43" stroke-linecap="round" style="stroke:#D55E00;stroke-width:10.00"/>
	<line x1="2106.79" y1="593.43" x2="2152.79" y2="613.75" stroke-linecap="round" style="stroke:#D55E00;stroke-width:10.00"/>
	<line x1="2152.79" y1="613.75" x2="2198.79" y2="625.55" stroke-linecap="round" style="stroke:#D55E00;stroke-width:10.00"/>
	<line x1="2198.79" y1="625.55" x2="2244.79" y2="579.56" stroke-linecap="round" style="stroke:#D55E00;stroke-width:10.00"/>
	<line x1="2060.79" y1="644.77" x2="2106.79" y2="619.41" stroke-linecap="round" style="stroke:#CC79A7;stroke-width:10.00"/>
	<line x1="2106.79" y1="619.41" x2="2152.79" y2="649.07" stroke-linecap="round" style="stroke:#CC79A7;stroke-width:10.00"/>
	<line x1="2152.79" y1="649.07" x2="2198.79" y2="630.89" stroke-linecap="round" style="stroke:#CC79A7;stroke-width:10.00"/>
	<line x1="2198.79" y1="630.89" x2="2244.79" y2="609.29" stroke-linecap="round" style="stroke:#CC79A7;stroke-width:10.00"/>
	<line x1="450.90" y1="448.02" x2="501.92" y2="445.71" style="stroke:#A0A0A0;stroke-width:10.00"/>
	<line x1="527.36" y1="444.51" x2="542.90" y2="443.79" style="stroke:#A0A0A0;stroke-width:10.00"/>
	<line x1="542.90" y1="443.79" x2="578.38" y2="442.60" style="stroke:#A0A0A0;stroke-width:10.00"/>
	<line x1="603.89" y1="441.80" x2="634.90" y2="440.76" style="stroke:#A0A0A0;stroke-width:10.00"/>
	<line x1="634.90" y1="440.76" x2="653.95" y2="446.82" style="stroke:#A0A0A0;stroke-width:10.00"/>
	<line x1="678.27" y1="454.56" x2="726.90" y2="470.02" style="stroke:#A0A0A0;stroke-width:10.00"/>
	<line x1="751.77" y1="475.84" x2="801.36" y2="487.56" style="stroke:#A0A0A0;stroke-width:10.00"/>
	<line x1="826.23" y1="493.38" x2="864.90" y2="502.55" style="stroke:#A0A0A0;stroke-width:10.00"/>
	<line x1="864.90" y1="502.55" x2="876.06" y2="504.38" style="stroke:#A0A0A0;stroke-width:10.00"/>
	<line x1="901.25" y1="508.45" x2="951.55" y2="516.58" style="stroke:#A0A0A0;stroke-width:10.00"/>
	<line x1="976.90" y1="514.90" x2="1027.45" y2="508.29" style="stroke:#A0A0A0;stroke-width:10.00"/>
	<line x1="1052.80" y1="504.94" x2="1103.02" y2="496.17" style="stroke:#A0A0A0;stroke-width:10.00"/>
	<line x1="1128.14" y1="491.78" x2="1140.89" y2="489.55" style="stroke:#A0A0A0;stroke-width:10.00"/>
	<line x1="1140.89" y1="489.55" x2="1177.88" y2="498.72" style="stroke:#A0A0A0;stroke-width:10.00"/>
	<line x1="1202.67" y1="504.86" x2="1232.89" y2="512.27" style="stroke:#A0A0A0;stroke-width:10.00"/>
	<line x1="1232.89" y1="512.27" x2="1252.58" y2="514.74" style="stroke:#A0A0A0;stroke-width:10.00"/>
	<line x1="1277.93" y1="517.85" x2="1324.81" y2="523.67" style="stroke:#A0A0A0;stroke-width:10.00"/>
	<line x1="1324.81" y1="523.67" x2="1328.55" y2="524.39" style="stroke:#A0A0A0;stroke-width:10.00"/>
	<line x1="1353.51" y1="529.41" x2="1370.81" y2="532.92" style="stroke:#A0A0A0;stroke-width:10.00"/>
	<line x1="1370.81" y1="532.92" x2="1404.05" y2="536.35" style="stroke:#A0A0A0;stroke-width:10.00"/>
	<line x1="1429.24" y1="535.31" x2="1462.81" y2="529.01" style="stroke:#A0A0A0;stroke-width:10.00"/>
	<line x1="1462.81" y1="529.01" x2="1479.39" y2="525.82" style="stroke:#A0A0A0;stroke-width:10.00"/>
	<line x1="1504.50" y1="521.04" x2="1508.80" y2="520.24" style="stroke:#A0A0A0;stroke-width:10.00"/>
	<line x1="1508.80" y1="520.24" x2="1554.48" y2="511.16" style="stroke:#A0A0A0;stroke-width:10.00"/>
	<line x1="1579.92" y1="513.23" x2="1600.80" y2="514.98" style="stroke:#A0A0A0;stroke-width:10.00"/>
	<line x1="1600.80" y1="514.98" x2="1629.02" y2="525.43" style="stroke:#A0A0A0;stroke-width:10.00"/>
	<line x1="1653.10" y1="533.96" x2="1692.80" y2="546.87" style="stroke:#A0A0A0;stroke-width:10.00"/>
	<line x1="1692.80" y1="546.87" x2="1701.65" y2="549.58" style="stroke:#A0A0A0;stroke-width:10.00"/>
	<line x1="1726.04" y1="557.07" x2="1738.80" y2="560.98" style="stroke:#A0A0A0;stroke-width:10.00"/>
	<line x1="1738.80" y1="560.98" x2="1776.35" y2="558.27" style="stroke:#A0A0A0;stroke-width:10.00"/>
	<line x1="1801.30" y1="553.33" x2="1830.80" y2="545.52" style="stroke:#A0A0A0;stroke-width:10.00"/>
	<line x1="1830.80" y1="545.52" x2="1849.69" y2="537.62" style="stroke:#A0A0A0;stroke-width:10.00"/>
	<line x1="1873.29" y1="527.82" x2="1876.80" y2="526.30" style="stroke:#A0A0A0;stroke-width:10.00"/>
	<line x1="1876.80" y1="526.30" x2="1922.80" y2="519.93" style="stroke:#A0A0A0;stroke-width:10.00"/>
	<line x1="1922.80" y1="519.93" x2="1923.51" y2="520.16" style="stroke:#A0A0A0;stroke-width:10.00"/>
	<line x1="1947.99" y1="527.42" x2="1968.80" y2="533.56" style="stroke:#A0A0A0;stroke-width:10.00"/>
	<line x1="1968.80" y1="533.56" x2="1998.05" y2="533.00" style="stroke:#A0A0A0;stroke-width:10.00"/>
	<line x1="2023.25" y1="530.21" x2="2060.79" y2="519.29" style="stroke:#A0A0A0;stroke-width:10.00"/>
	<line x1="2060.79" y1="519.29" x2="2072.59" y2="517.61" style="stroke:#A0A0A0;stroke-width:10.00"/>
	<line x1="2097.78" y1="514.03" x2="2106.79" y2="512.75" style="stroke:#A0A0A0;stroke-width:10.00"/>
	<line x1="2106.79" y1="512.75" x2="2148.41" y2="517.85" style="stroke:#A0A0A0;stroke-width:10.00"/>
	<line x1="2173.92" y1="519.13" x2="2198.79" y2="520.09" style="stroke:#A0A0A0;stroke-width:10.00"/>
	<line x1="2198.79" y1="520.09" x2="2224.78" y2="517.53" style="stroke:#A0A0A0;stroke-width:10.00"/>
	<line x1="394.86" y1="1865.82" x2="359.38" y2="1865.82" style="stroke:#000000;stroke-width:4.00"/>
	<text x="341.69" y="1883.33" style="font-family:'Helvetica';font-size:49.99px;fill:#000000" text-anchor="end">0</text>
	<line x1="394.86" y1="1715.63" x2="359.38" y2="1715.63" style="stroke:#000000;stroke-width:4.00"/>
	<text x="341.69" y="1733.14" style="font-family:'Helvetica';font-size:49.99px;fill:#000000" text-anchor="end">10</text>
	<line x1="394.86" y1="1565.52" x2="359.38" y2="1565.52" style="stroke:#000000;stroke-width:4.00"/>
	<text x="341.69" y="1583.03" style="font-family:'Helvetica';font-size:49.99px;fill:#000000" text-anchor="end">20</text>
	<line x1="394.86" y1="1415.41" x2="359.38" y2="1415.41" style="stroke:#000000;stroke-width:4.00"/>
	<text x="341.69" y="1432.92" style="font-family:'Helvetica';font-size:49.99px;fill:#000000" text-anchor="end">30</text>
	<line x1="394.86" y1="1265.22" x2="359.38" y2="1265.22" style="stroke:#000000;stroke-width:4.00"/>
	<text x="341.69" y="1282.73" style="font-family:'Helvetica';font-size:49.99px;fill:#000000" text-anchor="end">40</text>
	<line x1="394.86" y1="1115.11" x2="359.38" y2="1115.11" style="stroke:#000000;stroke-width:4.00"/>
	<text x="341.69" y="1132.62" style="font-family:'Helvetica';font-size:49.99px;fill:#000000" text-anchor="end">50</text>
	<line x1="394.86" y1="964.92" x2="359.38" y2="964.92" style="stroke:#000000;stroke-width:4.00"/>
	<text x="341.69" y="982.43" style="font-family:'Helvetica';font-size:49.99px;fill:#000000" text-anchor="end">60</text>
	<line x1="394.86" y1="814.81" x2="359.38" y2="814.81" style="stroke:#000000;stroke-width:4.00"/>
	<text x="341.69" y="832.32" style="font-family:'Helvetica';font-size:49.99px;fill:#000000" text-anchor="end">70</text>
	<line x1="394.86" y1="664.62" x2="359.38" y2="664.62" style="stroke:#000000;stroke-width:4.00"/>
	<text x="341.69" y="682.13" style="font-family:'Helvetica';font-size:49.99px;fill:#000000" text-anchor="end">80</text>
	<line x1="394.86" y1="514.50" x2="359.38" y2="514.50" style="stroke:#000000;stroke-width:4.00"/>
	<text x="341.69" y="532.02" style="font-family:'Helvetica';font-size:49.99px;fill:#000000" text-anchor="end">90</text>
	<line x1="394.86" y1="364.31" x2="359.38" y2="364.31" style="stroke:#000000;stroke-width:4.00"/>
	<text x="341.69" y="381.83" style="font-family:'Helvetica';font-size:49.99px;fill:#000000" text-anchor="end">100</text>
	<line x1="394.86" y1="1865.82" x2="394.86" y2="364.31" style="stroke:#000000;stroke-width:4.00"/>
	<text x="136.21" y="1076.84" style="font-family:'Helvetica';font-size:60.03px;fill:#000000" transform="rotate(-90 136.21,1076.84)" text-anchor="middle">Employment</text>
	<line x1="450.98" y1="1921.94" x2="450.98" y2="1957.33" style="stroke:#000000;stroke-width:4.00"/>
	<text x="450.98" y="2009.98" style="font-family:'Helvetica';font-size:49.99px;fill:#000000" text-anchor="middle">1976</text>
	<line x1="680.98" y1="1921.94" x2="680.98" y2="1957.33" style="stroke:#000000;stroke-width:4.00"/>
	<text x="680.98" y="2009.98" style="font-family:'Helvetica';font-size:49.99px;fill:#000000" text-anchor="middle">1981</text>
	<line x1="910.89" y1="1921.94" x2="910.89" y2="1957.33" style="stroke:#000000;stroke-width:4.00"/>
	<text x="910.89" y="2009.98" style="font-family:'Helvetica';font-size:49.99px;fill:#000000" text-anchor="middle">1986</text>
	<line x1="1140.89" y1="1921.94" x2="1140.89" y2="1957.33" style="stroke:#000000;stroke-width:4.00"/>
	<text x="1140.89" y="2009.98" style="font-family:'Helvetica';font-size:49.99px;fill:#000000" text-anchor="middle">1991</text>
	<line x1="1370.89" y1="1921.94" x2="1370.89" y2="1957.33" style="stroke:#000000;stroke-width:4.00"/>
	<text x="1370.89" y="2009.98" style="font-family:'Helvetica';font-size:49.99px;fill:#000000" text-anchor="middle">1996</text>
	<line x1="1600.88" y1="1921.94" x2="1600.88" y2="1957.33" style="stroke:#000000;stroke-width:4.00"/>
	<text x="1600.88" y="2009.98" style="font-family:'Helvetica';font-size:49.99px;fill:#000000" text-anchor="middle">2001</text>
	<line x1="1830.88" y1="1921.94" x2="1830.88" y2="1957.33" style="stroke:#000000;stroke-width:4.00"/>
	<text x="1830.88" y="2009.98" style="font-family:'Helvetica';font-size:49.99px;fill:#000000" text-anchor="middle">2006</text>
	<line x1="2060.79" y1="1921.94" x2="2060.79" y2="1957.33" style="stroke:#000000;stroke-width:4.00"/>
	<text x="2060.79" y="2009.98" style="font-family:'Helvetica';font-size:49.99px;fill:#000000" text-anchor="middle">2011</text>
	<line x1="2290.79" y1="1921.94" x2="2290.79" y2="1957.33" style="stroke:#000000;stroke-width:4.00"/>
	<text x="2290.79" y="2009.98" style="font-family:'Helvetica';font-size:49.99px;fill:#000000" text-anchor="middle">2016</text>
	<line x1="450.98" y1="1921.94" x2="2290.79" y2="1921.94" style="stroke:#000000;stroke-width:4.00"/>
	<text x="1332.62" y="2152.37" style="font-family:'Helvetica';font-size:60.03px;fill:#000000" text-anchor="middle">Year</text>
	<text x="145.41" y="2396.65" style="font-family:'Helvetica';font-size:60.03px;fill:#000000">Arr. cohort: </text>
	<text x="536.36" y="2396.65" style="font-family:'Helvetica';font-size:60.03px;fill:#000000">1964-73</text>
	<text x="845.12" y="2396.65" style="font-family:'Helvetica';font-size:60.03px;fill:#000000">1974-83</text>
	<text x="1153.89" y="2396.65" style="font-family:'Helvetica';font-size:60.03px;fill:#000000">1984-93</text>
	<text x="1462.65" y="2396.65" style="font-family:'Helvetica';font-size:60.03px;fill:#000000">1994-03</text>
	<text x="1771.41" y="2396.65" style="font-family:'Helvetica';font-size:60.03px;fill:#000000">2004-10</text>
	<text x="2080.17" y="2396.65" style="font-family:'Helvetica';font-size:60.03px;fill:#000000">German</text>
	<line x1="536.36" y1="2301.32" x2="737.26" y2="2301.32" style="stroke:#E69F00;stroke-width:10.00"/>
	<line x1="845.12" y1="2301.32" x2="1046.02" y2="2301.32" style="stroke:#56B4E9;stroke-width:10.00"/>
	<line x1="1153.89" y1="2301.32" x2="1354.78" y2="2301.32" style="stroke:#009E73;stroke-width:10.00"/>
	<line x1="1462.65" y1="2301.32" x2="1663.54" y2="2301.32" style="stroke:#D55E00;stroke-width:10.00"/>
	<line x1="1771.41" y1="2301.32" x2="1972.30" y2="2301.32" style="stroke:#CC79A7;stroke-width:10.00"/>
	<line x1="2080.17" y1="2301.32" x2="2131.19" y2="2301.32" style="stroke:#A0A0A0;stroke-width:10.00"/>
	<line x1="2156.70" y1="2301.32" x2="2207.72" y2="2301.32" style="stroke:#A0A0A0;stroke-width:10.00"/>
	<line x1="2233.23" y1="2301.32" x2="2278.03" y2="2301.32" style="stroke:#A0A0A0;stroke-width:10.00"/>
	<text x="1370.89" y="239.12" style="font-family:'Helvetica';font-size:60.03px;fill:#000000" text-anchor="middle">Percent</text>
	<text x="1370.89" y="154.88" style="font-family:'Helvetica';font-size:90.01px;fill:#000000" text-anchor="middle">Employment, Men</text>
</svg>
