<?xml version="1.0" encoding="UTF-8" standalone="no"?>
<!-- This is a Stata 15.1 generated SVG file (http://www.stata.com) -->

<svg version="1.1" width="3.54in" height="3.54in" viewBox="0 0 2551 2551" xmlns="http://www.w3.org/2000/svg" xmlns:xlink="http://www.w3.org/1999/xlink">
	<desc>Stata Graph - Graph</desc>
	<rect x="0" y="0" width="2551" height="2551" style="fill:#FFFFFF;stroke:none"/>
	<rect x="0.00" y="0.08" width="2551.00" height="2550.92" style="fill:#FFFFFF"/>
	<rect x="2.55" y="2.63" width="2545.90" height="2545.82" style="fill:none;stroke:#FFFFFF;stroke-width:5.10"/>
	<line x1="351.09" y1="1904.40" x2="2346.91" y2="1904.40" style="stroke:#E8E8E8;stroke-width:4.00"/>
	<line x1="351.09" y1="1711.88" x2="2346.91" y2="1711.88" style="stroke:#E8E8E8;stroke-width:4.00"/>
	<line x1="351.09" y1="1519.36" x2="2346.91" y2="1519.36" style="stroke:#E8E8E8;stroke-width:4.00"/>
	<line x1="351.09" y1="1326.84" x2="2346.91" y2="1326.84" style="stroke:#E8E8E8;stroke-width:4.00"/>
	<line x1="351.09" y1="1134.40" x2="2346.91" y2="1134.40" style="stroke:#E8E8E8;stroke-width:4.00"/>
	<line x1="351.09" y1="941.88" x2="2346.91" y2="941.88" style="stroke:#E8E8E8;stroke-width:4.00"/>
	<line x1="351.09" y1="749.36" x2="2346.91" y2="749.36" style="stroke:#E8E8E8;stroke-width:4.00"/>
	<line x1="351.09" y1="556.84" x2="2346.91" y2="556.84" style="stroke:#E8E8E8;stroke-width:4.00"/>
	<line x1="351.09" y1="364.31" x2="2346.91" y2="364.31" style="stroke:#E8E8E8;stroke-width:4.00"/>
	<line x1="407.22" y1="1960.52" x2="407.22" y2="308.19" style="stroke:#E8E8E8;stroke-width:4.00"/>
	<line x1="711.03" y1="1960.52" x2="711.03" y2="308.19" style="stroke:#E8E8E8;stroke-width:4.00"/>
	<line x1="1014.85" y1="1960.52" x2="1014.85" y2="308.19" style="stroke:#E8E8E8;stroke-width:4.00"/>
	<line x1="1318.59" y1="1960.52" x2="1318.59" y2="308.19" style="stroke:#E8E8E8;stroke-width:4.00"/>
	<line x1="1622.41" y1="1960.52" x2="1622.41" y2="308.19" style="stroke:#E8E8E8;stroke-width:4.00"/>
	<line x1="1926.22" y1="1960.52" x2="1926.22" y2="308.19" style="stroke:#E8E8E8;stroke-width:4.00"/>
	<line x1="2230.04" y1="1960.52" x2="2230.04" y2="308.19" style="stroke:#E8E8E8;stroke-width:4.00"/>
	<line x1="1136.35" y1="1065.84" x2="1197.09" y2="1082.82" stroke-linecap="round" style="stroke:#E69F00;stroke-width:10.00"/>
	<line x1="1197.09" y1="1082.82" x2="1257.84" y2="1007.88" stroke-linecap="round" style="stroke:#E69F00;stroke-width:10.00"/>
	<line x1="1257.84" y1="1007.88" x2="1318.59" y2="1132.33" stroke-linecap="round" style="stroke:#E69F00;stroke-width:10.00"/>
	<line x1="1318.59" y1="1132.33" x2="1379.34" y2="1139.34" stroke-linecap="round" style="stroke:#E69F00;stroke-width:10.00"/>
	<line x1="1379.34" y1="1139.34" x2="1440.08" y2="1128.74" stroke-linecap="round" style="stroke:#E69F00;stroke-width:10.00"/>
	<line x1="1440.08" y1="1128.74" x2="1500.83" y2="1105.78" stroke-linecap="round" style="stroke:#E69F00;stroke-width:10.00"/>
	<line x1="1500.83" y1="1105.78" x2="1561.66" y2="1157.84" stroke-linecap="round" style="stroke:#E69F00;stroke-width:10.00"/>
	<line x1="1561.66" y1="1157.84" x2="1622.41" y2="1130.97" stroke-linecap="round" style="stroke:#E69F00;stroke-width:10.00"/>
	<line x1="1622.41" y1="1130.97" x2="1683.15" y2="1109.84" stroke-linecap="round" style="stroke:#E69F00;stroke-width:10.00"/>
	<line x1="1683.15" y1="1109.84" x2="1743.90" y2="1117.58" stroke-linecap="round" style="stroke:#E69F00;stroke-width:10.00"/>
	<line x1="1743.90" y1="1117.58" x2="1804.65" y2="1178.24" stroke-linecap="round" style="stroke:#E69F00;stroke-width:10.00"/>
	<line x1="1804.65" y1="1178.24" x2="1865.40" y2="1156.96" stroke-linecap="round" style="stroke:#E69F00;stroke-width:10.00"/>
	<line x1="1865.40" y1="1156.96" x2="1926.22" y2="1112.95" stroke-linecap="round" style="stroke:#E69F00;stroke-width:10.00"/>
	<line x1="1926.22" y1="1112.95" x2="1986.97" y2="1157.28" stroke-linecap="round" style="stroke:#E69F00;stroke-width:10.00"/>
	<line x1="1986.97" y1="1157.28" x2="2047.72" y2="1182.31" stroke-linecap="round" style="stroke:#E69F00;stroke-width:10.00"/>
	<line x1="2047.72" y1="1182.31" x2="2108.47" y2="1214.04" stroke-linecap="round" style="stroke:#E69F00;stroke-width:10.00"/>
	<line x1="2108.47" y1="1214.04" x2="2169.21" y2="1209.81" stroke-linecap="round" style="stroke:#E69F00;stroke-width:10.00"/>
	<line x1="2169.21" y1="1209.81" x2="2229.96" y2="1190.76" stroke-linecap="round" style="stroke:#E69F00;stroke-width:10.00"/>
	<line x1="528.71" y1="1731.89" x2="589.46" y2="1576.52" stroke-linecap="round" style="stroke:#56B4E9;stroke-width:10.00"/>
	<line x1="589.46" y1="1576.52" x2="650.21" y2="1651.45" stroke-linecap="round" style="stroke:#56B4E9;stroke-width:10.00"/>
	<line x1="650.21" y1="1651.45" x2="710.95" y2="1528.77" stroke-linecap="round" style="stroke:#56B4E9;stroke-width:10.00"/>
	<line x1="710.95" y1="1528.77" x2="771.78" y2="1568.71" stroke-linecap="round" style="stroke:#56B4E9;stroke-width:10.00"/>
	<line x1="771.78" y1="1568.71" x2="832.53" y2="1551.57" stroke-linecap="round" style="stroke:#56B4E9;stroke-width:10.00"/>
	<line x1="832.53" y1="1551.57" x2="893.28" y2="1512.82" stroke-linecap="round" style="stroke:#56B4E9;stroke-width:10.00"/>
	<line x1="893.28" y1="1512.82" x2="954.02" y2="1606.33" stroke-linecap="round" style="stroke:#56B4E9;stroke-width:10.00"/>
	<line x1="954.02" y1="1606.33" x2="1014.77" y2="1531.48" stroke-linecap="round" style="stroke:#56B4E9;stroke-width:10.00"/>
	<line x1="1014.77" y1="1531.48" x2="1075.52" y2="1530.04" stroke-linecap="round" style="stroke:#56B4E9;stroke-width:10.00"/>
	<line x1="1075.52" y1="1530.04" x2="1136.35" y2="1450.24" stroke-linecap="round" style="stroke:#56B4E9;stroke-width:10.00"/>
	<line x1="1136.35" y1="1450.24" x2="1197.09" y2="1432.79" stroke-linecap="round" style="stroke:#56B4E9;stroke-width:10.00"/>
	<line x1="1197.09" y1="1432.79" x2="1257.84" y2="1414.29" stroke-linecap="round" style="stroke:#56B4E9;stroke-width:10.00"/>
	<line x1="1257.84" y1="1414.29" x2="1318.59" y2="1413.97" stroke-linecap="round" style="stroke:#56B4E9;stroke-width:10.00"/>
	<line x1="1318.59" y1="1413.97" x2="1379.34" y2="1333.93" stroke-linecap="round" style="stroke:#56B4E9;stroke-width:10.00"/>
	<line x1="1379.34" y1="1333.93" x2="1440.08" y2="1342.30" stroke-linecap="round" style="stroke:#56B4E9;stroke-width:10.00"/>
	<line x1="1440.08" y1="1342.30" x2="1500.83" y2="1374.19" stroke-linecap="round" style="stroke:#56B4E9;stroke-width:10.00"/>
	<line x1="1500.83" y1="1374.19" x2="1561.66" y2="1348.52" stroke-linecap="round" style="stroke:#56B4E9;stroke-width:10.00"/>
	<line x1="1561.66" y1="1348.52" x2="1622.41" y2="1299.97" stroke-linecap="round" style="stroke:#56B4E9;stroke-width:10.00"/>
	<line x1="1622.41" y1="1299.97" x2="1683.15" y2="1301.73" stroke-linecap="round" style="stroke:#56B4E9;stroke-width:10.00"/>
	<line x1="1683.15" y1="1301.73" x2="1743.90" y2="1283.31" stroke-linecap="round" style="stroke:#56B4E9;stroke-width:10.00"/>
	<line x1="1743.90" y1="1283.31" x2="1804.65" y2="1279.09" stroke-linecap="round" style="stroke:#56B4E9;stroke-width:10.00"/>
	<line x1="1804.65" y1="1279.09" x2="1865.40" y2="1208.46" stroke-linecap="round" style="stroke:#56B4E9;stroke-width:10.00"/>
	<line x1="1865.40" y1="1208.46" x2="1926.22" y2="1226.15" stroke-linecap="round" style="stroke:#56B4E9;stroke-width:10.00"/>
	<line x1="1926.22" y1="1226.15" x2="1986.97" y2="1158.23" stroke-linecap="round" style="stroke:#56B4E9;stroke-width:10.00"/>
	<line x1="1986.97" y1="1158.23" x2="2047.72" y2="1228.55" stroke-linecap="round" style="stroke:#56B4E9;stroke-width:10.00"/>
	<line x1="2047.72" y1="1228.55" x2="2108.47" y2="1196.10" stroke-linecap="round" style="stroke:#56B4E9;stroke-width:10.00"/>
	<line x1="2108.47" y1="1196.10" x2="2169.21" y2="1230.38" stroke-linecap="round" style="stroke:#56B4E9;stroke-width:10.00"/>
	<line x1="2169.21" y1="1230.38" x2="2229.96" y2="1136.23" stroke-linecap="round" style="stroke:#56B4E9;stroke-width:10.00"/>
	<line x1="467.96" y1="1864.62" x2="528.71" y2="1650.74" stroke-linecap="round" style="stroke:#009E73;stroke-width:10.00"/>
	<line x1="528.71" y1="1650.74" x2="589.46" y2="1665.17" stroke-linecap="round" style="stroke:#009E73;stroke-width:10.00"/>
	<line x1="589.46" y1="1665.17" x2="650.21" y2="1635.35" stroke-linecap="round" style="stroke:#009E73;stroke-width:10.00"/>
	<line x1="650.21" y1="1635.35" x2="710.95" y2="1556.75" stroke-linecap="round" style="stroke:#009E73;stroke-width:10.00"/>
	<line x1="710.95" y1="1556.75" x2="771.78" y2="1571.89" stroke-linecap="round" style="stroke:#009E73;stroke-width:10.00"/>
	<line x1="771.78" y1="1571.89" x2="832.53" y2="1520.24" stroke-linecap="round" style="stroke:#009E73;stroke-width:10.00"/>
	<line x1="832.53" y1="1520.24" x2="893.28" y2="1461.40" stroke-linecap="round" style="stroke:#009E73;stroke-width:10.00"/>
	<line x1="893.28" y1="1461.40" x2="954.02" y2="1439.16" stroke-linecap="round" style="stroke:#009E73;stroke-width:10.00"/>
	<line x1="954.02" y1="1439.16" x2="1014.77" y2="1382.16" stroke-linecap="round" style="stroke:#009E73;stroke-width:10.00"/>
	<line x1="1014.77" y1="1382.16" x2="1075.52" y2="1384.48" stroke-linecap="round" style="stroke:#009E73;stroke-width:10.00"/>
	<line x1="1075.52" y1="1384.48" x2="1136.35" y2="1352.27" stroke-linecap="round" style="stroke:#009E73;stroke-width:10.00"/>
	<line x1="1136.35" y1="1352.27" x2="1197.09" y2="1336.96" stroke-linecap="round" style="stroke:#009E73;stroke-width:10.00"/>
	<line x1="1197.09" y1="1336.96" x2="1257.84" y2="1263.86" stroke-linecap="round" style="stroke:#009E73;stroke-width:10.00"/>
	<line x1="1257.84" y1="1263.86" x2="1318.59" y2="1226.15" stroke-linecap="round" style="stroke:#009E73;stroke-width:10.00"/>
	<line x1="1318.59" y1="1226.15" x2="1379.34" y2="1239.71" stroke-linecap="round" style="stroke:#009E73;stroke-width:10.00"/>
	<line x1="1379.34" y1="1239.71" x2="1440.08" y2="1248.16" stroke-linecap="round" style="stroke:#009E73;stroke-width:10.00"/>
	<line x1="1440.08" y1="1248.16" x2="1500.83" y2="1186.29" stroke-linecap="round" style="stroke:#009E73;stroke-width:10.00"/>
	<line x1="1500.83" y1="1186.29" x2="1561.66" y2="1109.21" stroke-linecap="round" style="stroke:#009E73;stroke-width:10.00"/>
	<line x1="1561.66" y1="1109.21" x2="1622.41" y2="1113.03" stroke-linecap="round" style="stroke:#009E73;stroke-width:10.00"/>
	<line x1="1622.41" y1="1113.03" x2="1683.15" y2="1087.44" stroke-linecap="round" style="stroke:#009E73;stroke-width:10.00"/>
	<line x1="1683.15" y1="1087.44" x2="1743.90" y2="1110.88" stroke-linecap="round" style="stroke:#009E73;stroke-width:10.00"/>
	<line x1="467.96" y1="1781.16" x2="528.71" y2="1635.35" stroke-linecap="round" style="stroke:#D55E00;stroke-width:10.00"/>
	<line x1="528.71" y1="1635.35" x2="589.46" y2="1573.81" stroke-linecap="round" style="stroke:#D55E00;stroke-width:10.00"/>
	<line x1="589.46" y1="1573.81" x2="650.21" y2="1560.10" stroke-linecap="round" style="stroke:#D55E00;stroke-width:10.00"/>
	<line x1="650.21" y1="1560.10" x2="710.95" y2="1472.41" stroke-linecap="round" style="stroke:#D55E00;stroke-width:10.00"/>
	<line x1="710.95" y1="1472.41" x2="771.78" y2="1420.99" stroke-linecap="round" style="stroke:#D55E00;stroke-width:10.00"/>
	<line x1="771.78" y1="1420.99" x2="832.53" y2="1375.63" stroke-linecap="round" style="stroke:#D55E00;stroke-width:10.00"/>
	<line x1="832.53" y1="1375.63" x2="893.28" y2="1372.76" stroke-linecap="round" style="stroke:#D55E00;stroke-width:10.00"/>
	<line x1="893.28" y1="1372.76" x2="954.02" y2="1334.33" stroke-linecap="round" style="stroke:#D55E00;stroke-width:10.00"/>
	<line x1="954.02" y1="1334.33" x2="1014.77" y2="1284.83" stroke-linecap="round" style="stroke:#D55E00;stroke-width:10.00"/>
	<line x1="1014.77" y1="1284.83" x2="1075.52" y2="1243.53" stroke-linecap="round" style="stroke:#D55E00;stroke-width:10.00"/>
	<line x1="1075.52" y1="1243.53" x2="1136.35" y2="1208.93" stroke-linecap="round" style="stroke:#D55E00;stroke-width:10.00"/>
	<line x1="467.96" y1="1602.83" x2="528.71" y2="1472.01" stroke-linecap="round" style="stroke:#CC79A7;stroke-width:10.00"/>
	<line x1="528.71" y1="1472.01" x2="589.46" y2="1397.47" stroke-linecap="round" style="stroke:#CC79A7;stroke-width:10.00"/>
	<line x1="589.46" y1="1397.47" x2="650.21" y2="1396.35" stroke-linecap="round" style="stroke:#CC79A7;stroke-width:10.00"/>
	<line x1="650.21" y1="1396.35" x2="710.95" y2="1341.03" stroke-linecap="round" style="stroke:#CC79A7;stroke-width:10.00"/>
	<line x1="351.09" y1="1904.40" x2="315.70" y2="1904.40" style="stroke:#000000;stroke-width:4.00"/>
	<text x="297.92" y="1921.92" style="font-family:'Helvetica';font-size:49.99px;fill:#000000" text-anchor="end">.2</text>
	<line x1="351.09" y1="1711.88" x2="315.70" y2="1711.88" style="stroke:#000000;stroke-width:4.00"/>
	<text x="297.92" y="1729.39" style="font-family:'Helvetica';font-size:49.99px;fill:#000000" text-anchor="end">.3</text>
	<line x1="351.09" y1="1519.36" x2="315.70" y2="1519.36" style="stroke:#000000;stroke-width:4.00"/>
	<text x="297.92" y="1536.87" style="font-family:'Helvetica';font-size:49.99px;fill:#000000" text-anchor="end">.4</text>
	<line x1="351.09" y1="1326.84" x2="315.70" y2="1326.84" style="stroke:#000000;stroke-width:4.00"/>
	<text x="297.92" y="1344.35" style="font-family:'Helvetica';font-size:49.99px;fill:#000000" text-anchor="end">.5</text>
	<line x1="351.09" y1="1134.40" x2="315.70" y2="1134.40" style="stroke:#000000;stroke-width:4.00"/>
	<text x="297.92" y="1151.91" style="font-family:'Helvetica';font-size:49.99px;fill:#000000" text-anchor="end">.6</text>
	<line x1="351.09" y1="941.88" x2="315.70" y2="941.88" style="stroke:#000000;stroke-width:4.00"/>
	<text x="297.92" y="959.39" style="font-family:'Helvetica';font-size:49.99px;fill:#000000" text-anchor="end">.7</text>
	<line x1="351.09" y1="749.36" x2="315.70" y2="749.36" style="stroke:#000000;stroke-width:4.00"/>
	<text x="297.92" y="766.87" style="font-family:'Helvetica';font-size:49.99px;fill:#000000" text-anchor="end">.8</text>
	<line x1="351.09" y1="556.84" x2="315.70" y2="556.84" style="stroke:#000000;stroke-width:4.00"/>
	<text x="297.92" y="574.35" style="font-family:'Helvetica';font-size:49.99px;fill:#000000" text-anchor="end">.9</text>
	<line x1="351.09" y1="364.31" x2="315.70" y2="364.31" style="stroke:#000000;stroke-width:4.00"/>
	<text x="297.92" y="381.83" style="font-family:'Helvetica';font-size:49.99px;fill:#000000" text-anchor="end">1</text>
	<line x1="351.09" y1="1904.40" x2="351.09" y2="364.31" style="stroke:#000000;stroke-width:4.00"/>
	<text x="136.21" y="1096.13" style="font-family:'Helvetica';font-size:60.03px;fill:#000000" transform="rotate(-90 136.21,1096.13)" text-anchor="middle">Employment</text>
	<line x1="407.22" y1="1960.52" x2="407.22" y2="1995.92" style="stroke:#000000;stroke-width:4.00"/>
	<text x="407.22" y="2048.56" style="font-family:'Helvetica';font-size:49.99px;fill:#000000" text-anchor="middle">0</text>
	<line x1="711.03" y1="1960.52" x2="711.03" y2="1995.92" style="stroke:#000000;stroke-width:4.00"/>
	<text x="711.03" y="2048.56" style="font-family:'Helvetica';font-size:49.99px;fill:#000000" text-anchor="middle">5</text>
	<line x1="1014.85" y1="1960.52" x2="1014.85" y2="1995.92" style="stroke:#000000;stroke-width:4.00"/>
	<text x="1014.85" y="2048.56" style="font-family:'Helvetica';font-size:49.99px;fill:#000000" text-anchor="middle">10</text>
	<line x1="1318.59" y1="1960.52" x2="1318.59" y2="1995.92" style="stroke:#000000;stroke-width:4.00"/>
	<text x="1318.59" y="2048.56" style="font-family:'Helvetica';font-size:49.99px;fill:#000000" text-anchor="middle">15</text>
	<line x1="1622.41" y1="1960.52" x2="1622.41" y2="1995.92" style="stroke:#000000;stroke-width:4.00"/>
	<text x="1622.41" y="2048.56" style="font-family:'Helvetica';font-size:49.99px;fill:#000000" text-anchor="middle">20</text>
	<line x1="1926.22" y1="1960.52" x2="1926.22" y2="1995.92" style="stroke:#000000;stroke-width:4.00"/>
	<text x="1926.22" y="2048.56" style="font-family:'Helvetica';font-size:49.99px;fill:#000000" text-anchor="middle">25</text>
	<line x1="2230.04" y1="1960.52" x2="2230.04" y2="1995.92" style="stroke:#000000;stroke-width:4.00"/>
	<text x="2230.04" y="2048.56" style="font-family:'Helvetica';font-size:49.99px;fill:#000000" text-anchor="middle">30</text>
	<line x1="407.22" y1="1960.52" x2="2290.79" y2="1960.52" style="stroke:#000000;stroke-width:4.00"/>
	<text x="1310.78" y="2190.96" style="font-family:'Helvetica';font-size:60.03px;fill:#000000" text-anchor="middle">Duration of stay</text>
	<text x="161.52" y="2396.65" style="font-family:'Helvetica';font-size:60.03px;fill:#000000">Arr. cohort: </text>
	<text x="610.98" y="2396.65" style="font-family:'Helvetica';font-size:60.03px;fill:#000000">1964-73</text>
	<text x="965.98" y="2396.65" style="font-family:'Helvetica';font-size:60.03px;fill:#000000">1974-83</text>
	<text x="1320.98" y="2396.65" style="font-family:'Helvetica';font-size:60.03px;fill:#000000">1984-93</text>
	<text x="1675.98" y="2396.65" style="font-family:'Helvetica';font-size:60.03px;fill:#000000">1994-03</text>
	<text x="2030.98" y="2396.65" style="font-family:'Helvetica';font-size:60.03px;fill:#000000">2004-10</text>
	<line x1="610.98" y1="2320.61" x2="831.01" y2="2320.61" style="stroke:#E69F00;stroke-width:10.00"/>
	<line x1="965.98" y1="2320.61" x2="1185.93" y2="2320.61" style="stroke:#56B4E9;stroke-width:10.00"/>
	<line x1="1320.98" y1="2320.61" x2="1540.93" y2="2320.61" style="stroke:#009E73;stroke-width:10.00"/>
	<line x1="1675.98" y1="2320.61" x2="1895.93" y2="2320.61" style="stroke:#D55E00;stroke-width:10.00"/>
	<line x1="2030.98" y1="2320.61" x2="2250.93" y2="2320.61" style="stroke:#CC79A7;stroke-width:10.00"/>
	<text x="1349.04" y="239.12" style="font-family:'Helvetica';font-size:60.03px;fill:#000000" text-anchor="middle">Means</text>
	<text x="1349.04" y="154.88" style="font-family:'Helvetica';font-size:90.01px;fill:#000000" text-anchor="middle">Employment, Women</text>
</svg>
