<?xml version="1.0" encoding="UTF-8" standalone="no"?>
<!-- This is a Stata 15.1 generated SVG file (http://www.stata.com) -->

<svg version="1.1" width="3.54in" height="3.54in" viewBox="0 0 2551 2551" xmlns="http://www.w3.org/2000/svg" xmlns:xlink="http://www.w3.org/1999/xlink">
	<desc>Stata Graph - Graph</desc>
	<rect x="0" y="0" width="2551" height="2551" style="fill:#FFFFFF;stroke:none"/>
	<rect x="0.00" y="0.08" width="2551.00" height="2550.92" style="fill:#FFFFFF"/>
	<rect x="2.55" y="2.63" width="2545.90" height="2545.82" style="fill:none;stroke:#FFFFFF;stroke-width:5.10"/>
	<line x1="394.86" y1="1865.82" x2="2346.91" y2="1865.82" style="stroke:#E8E8E8;stroke-width:4.00"/>
	<line x1="394.86" y1="1715.63" x2="2346.91" y2="1715.63" style="stroke:#E8E8E8;stroke-width:4.00"/>
	<line x1="394.86" y1="1565.52" x2="2346.91" y2="1565.52" style="stroke:#E8E8E8;stroke-width:4.00"/>
	<line x1="394.86" y1="1415.41" x2="2346.91" y2="1415.41" style="stroke:#E8E8E8;stroke-width:4.00"/>
	<line x1="394.86" y1="1265.22" x2="2346.91" y2="1265.22" style="stroke:#E8E8E8;stroke-width:4.00"/>
	<line x1="394.86" y1="1115.11" x2="2346.91" y2="1115.11" style="stroke:#E8E8E8;stroke-width:4.00"/>
	<line x1="394.86" y1="964.92" x2="2346.91" y2="964.92" style="stroke:#E8E8E8;stroke-width:4.00"/>
	<line x1="394.86" y1="814.81" x2="2346.91" y2="814.81" style="stroke:#E8E8E8;stroke-width:4.00"/>
	<line x1="394.86" y1="664.62" x2="2346.91" y2="664.62" style="stroke:#E8E8E8;stroke-width:4.00"/>
	<line x1="394.86" y1="514.50" x2="2346.91" y2="514.50" style="stroke:#E8E8E8;stroke-width:4.00"/>
	<line x1="394.86" y1="364.31" x2="2346.91" y2="364.31" style="stroke:#E8E8E8;stroke-width:4.00"/>
	<line x1="450.98" y1="1921.94" x2="450.98" y2="308.19" style="stroke:#E8E8E8;stroke-width:4.00"/>
	<line x1="680.98" y1="1921.94" x2="680.98" y2="308.19" style="stroke:#E8E8E8;stroke-width:4.00"/>
	<line x1="910.89" y1="1921.94" x2="910.89" y2="308.19" style="stroke:#E8E8E8;stroke-width:4.00"/>
	<line x1="1140.89" y1="1921.94" x2="1140.89" y2="308.19" style="stroke:#E8E8E8;stroke-width:4.00"/>
	<line x1="1370.89" y1="1921.94" x2="1370.89" y2="308.19" style="stroke:#E8E8E8;stroke-width:4.00"/>
	<line x1="1600.88" y1="1921.94" x2="1600.88" y2="308.19" style="stroke:#E8E8E8;stroke-width:4.00"/>
	<line x1="1830.88" y1="1921.94" x2="1830.88" y2="308.19" style="stroke:#E8E8E8;stroke-width:4.00"/>
	<line x1="2060.79" y1="1921.94" x2="2060.79" y2="308.19" style="stroke:#E8E8E8;stroke-width:4.00"/>
	<line x1="2290.79" y1="1921.94" x2="2290.79" y2="308.19" style="stroke:#E8E8E8;stroke-width:4.00"/>
	<line x1="450.90" y1="940.04" x2="542.90" y2="888.86" stroke-linecap="round" style="stroke:#E69F00;stroke-width:10.00"/>
	<line x1="542.90" y1="888.86" x2="634.90" y2="923.62" stroke-linecap="round" style="stroke:#E69F00;stroke-width:10.00"/>
	<line x1="634.90" y1="923.62" x2="726.90" y2="951.36" stroke-linecap="round" style="stroke:#E69F00;stroke-width:10.00"/>
	<line x1="726.90" y1="951.36" x2="864.90" y2="929.04" stroke-linecap="round" style="stroke:#E69F00;stroke-width:10.00"/>
	<line x1="864.90" y1="929.04" x2="956.89" y2="975.12" stroke-linecap="round" style="stroke:#E69F00;stroke-width:10.00"/>
	<line x1="956.89" y1="975.12" x2="1048.89" y2="981.50" stroke-linecap="round" style="stroke:#E69F00;stroke-width:10.00"/>
	<line x1="1048.89" y1="981.50" x2="1140.89" y2="890.06" stroke-linecap="round" style="stroke:#E69F00;stroke-width:10.00"/>
	<line x1="1140.89" y1="890.06" x2="1232.89" y2="969.14" stroke-linecap="round" style="stroke:#E69F00;stroke-width:10.00"/>
	<line x1="1232.89" y1="969.14" x2="1324.81" y2="971.93" stroke-linecap="round" style="stroke:#E69F00;stroke-width:10.00"/>
	<line x1="1324.81" y1="971.93" x2="1370.81" y2="971.37" stroke-linecap="round" style="stroke:#E69F00;stroke-width:10.00"/>
	<line x1="1370.81" y1="971.37" x2="1416.81" y2="1034.43" stroke-linecap="round" style="stroke:#E69F00;stroke-width:10.00"/>
	<line x1="1416.81" y1="1034.43" x2="1462.81" y2="1094.30" stroke-linecap="round" style="stroke:#E69F00;stroke-width:10.00"/>
	<line x1="1462.81" y1="1094.30" x2="1508.80" y2="1045.75" stroke-linecap="round" style="stroke:#E69F00;stroke-width:10.00"/>
	<line x1="1508.80" y1="1045.75" x2="1554.80" y2="1019.60" stroke-linecap="round" style="stroke:#E69F00;stroke-width:10.00"/>
	<line x1="1554.80" y1="1019.60" x2="1600.80" y2="974.24" stroke-linecap="round" style="stroke:#E69F00;stroke-width:10.00"/>
	<line x1="1600.80" y1="974.24" x2="1646.80" y2="1006.05" stroke-linecap="round" style="stroke:#E69F00;stroke-width:10.00"/>
	<line x1="1646.80" y1="1006.05" x2="1692.80" y2="1046.31" stroke-linecap="round" style="stroke:#E69F00;stroke-width:10.00"/>
	<line x1="864.90" y1="1280.28" x2="956.89" y2="1307.15" stroke-linecap="round" style="stroke:#56B4E9;stroke-width:10.00"/>
	<line x1="956.89" y1="1307.15" x2="1048.89" y2="1309.38" stroke-linecap="round" style="stroke:#56B4E9;stroke-width:10.00"/>
	<line x1="1048.89" y1="1309.38" x2="1140.89" y2="1153.05" stroke-linecap="round" style="stroke:#56B4E9;stroke-width:10.00"/>
	<line x1="1140.89" y1="1153.05" x2="1232.89" y2="1171.79" stroke-linecap="round" style="stroke:#56B4E9;stroke-width:10.00"/>
	<line x1="1232.89" y1="1171.79" x2="1324.81" y2="1160.94" stroke-linecap="round" style="stroke:#56B4E9;stroke-width:10.00"/>
	<line x1="1324.81" y1="1160.94" x2="1370.81" y2="1170.27" stroke-linecap="round" style="stroke:#56B4E9;stroke-width:10.00"/>
	<line x1="1370.81" y1="1170.27" x2="1416.81" y2="1120.37" stroke-linecap="round" style="stroke:#56B4E9;stroke-width:10.00"/>
	<line x1="1416.81" y1="1120.37" x2="1462.81" y2="1134.32" stroke-linecap="round" style="stroke:#56B4E9;stroke-width:10.00"/>
	<line x1="1462.81" y1="1134.32" x2="1508.80" y2="1109.76" stroke-linecap="round" style="stroke:#56B4E9;stroke-width:10.00"/>
	<line x1="1508.80" y1="1109.76" x2="1554.80" y2="1089.44" stroke-linecap="round" style="stroke:#56B4E9;stroke-width:10.00"/>
	<line x1="1554.80" y1="1089.44" x2="1600.80" y2="1056.03" stroke-linecap="round" style="stroke:#56B4E9;stroke-width:10.00"/>
	<line x1="1600.80" y1="1056.03" x2="1646.80" y2="987.95" stroke-linecap="round" style="stroke:#56B4E9;stroke-width:10.00"/>
	<line x1="1646.80" y1="987.95" x2="1692.80" y2="1040.41" stroke-linecap="round" style="stroke:#56B4E9;stroke-width:10.00"/>
	<line x1="1692.80" y1="1040.41" x2="1738.80" y2="1014.26" stroke-linecap="round" style="stroke:#56B4E9;stroke-width:10.00"/>
	<line x1="1738.80" y1="1014.26" x2="1784.80" y2="1022.15" stroke-linecap="round" style="stroke:#56B4E9;stroke-width:10.00"/>
	<line x1="1784.80" y1="1022.15" x2="1830.80" y2="1047.98" stroke-linecap="round" style="stroke:#56B4E9;stroke-width:10.00"/>
	<line x1="1830.80" y1="1047.98" x2="1876.80" y2="1004.38" stroke-linecap="round" style="stroke:#56B4E9;stroke-width:10.00"/>
	<line x1="1876.80" y1="1004.38" x2="1922.80" y2="1018.57" stroke-linecap="round" style="stroke:#56B4E9;stroke-width:10.00"/>
	<line x1="1922.80" y1="1018.57" x2="1968.80" y2="965.63" stroke-linecap="round" style="stroke:#56B4E9;stroke-width:10.00"/>
	<line x1="1968.80" y1="965.63" x2="2014.79" y2="889.50" stroke-linecap="round" style="stroke:#56B4E9;stroke-width:10.00"/>
	<line x1="2014.79" y1="889.50" x2="2060.79" y2="922.82" stroke-linecap="round" style="stroke:#56B4E9;stroke-width:10.00"/>
	<line x1="2060.79" y1="922.82" x2="2106.79" y2="959.97" stroke-linecap="round" style="stroke:#56B4E9;stroke-width:10.00"/>
	<line x1="2106.79" y1="959.97" x2="2152.79" y2="980.22" stroke-linecap="round" style="stroke:#56B4E9;stroke-width:10.00"/>
	<line x1="1324.81" y1="1303.48" x2="1324.81" y2="1303.48" stroke-linecap="round" style="stroke:#009E73;stroke-width:10.00"/>
	<line x1="1324.81" y1="1303.48" x2="1370.81" y2="1284.19" stroke-linecap="round" style="stroke:#009E73;stroke-width:10.00"/>
	<line x1="1370.81" y1="1284.19" x2="1416.81" y2="1281.08" stroke-linecap="round" style="stroke:#009E73;stroke-width:10.00"/>
	<line x1="1416.81" y1="1281.08" x2="1462.81" y2="1241.38" stroke-linecap="round" style="stroke:#009E73;stroke-width:10.00"/>
	<line x1="1462.81" y1="1241.38" x2="1508.80" y2="1216.11" stroke-linecap="round" style="stroke:#009E73;stroke-width:10.00"/>
	<line x1="1508.80" y1="1216.11" x2="1554.80" y2="1161.90" stroke-linecap="round" style="stroke:#009E73;stroke-width:10.00"/>
	<line x1="1554.80" y1="1161.90" x2="1600.80" y2="1118.69" stroke-linecap="round" style="stroke:#009E73;stroke-width:10.00"/>
	<line x1="1600.80" y1="1118.69" x2="1646.80" y2="1095.34" stroke-linecap="round" style="stroke:#009E73;stroke-width:10.00"/>
	<line x1="1646.80" y1="1095.34" x2="1692.80" y2="1093.66" stroke-linecap="round" style="stroke:#009E73;stroke-width:10.00"/>
	<line x1="1692.80" y1="1093.66" x2="1738.80" y2="1085.45" stroke-linecap="round" style="stroke:#009E73;stroke-width:10.00"/>
	<line x1="1738.80" y1="1085.45" x2="1784.80" y2="1037.30" stroke-linecap="round" style="stroke:#009E73;stroke-width:10.00"/>
	<line x1="1784.80" y1="1037.30" x2="1830.80" y2="1048.62" stroke-linecap="round" style="stroke:#009E73;stroke-width:10.00"/>
	<line x1="1830.80" y1="1048.62" x2="1876.80" y2="990.66" stroke-linecap="round" style="stroke:#009E73;stroke-width:10.00"/>
	<line x1="1876.80" y1="990.66" x2="1922.80" y2="961.41" stroke-linecap="round" style="stroke:#009E73;stroke-width:10.00"/>
	<line x1="1922.80" y1="961.41" x2="1922.80" y2="961.41" stroke-linecap="round" style="stroke:#009E73;stroke-width:10.00"/>
	<line x1="1922.80" y1="961.41" x2="1968.80" y2="989.23" stroke-linecap="round" style="stroke:#009E73;stroke-width:10.00"/>
	<line x1="1968.80" y1="989.23" x2="2014.79" y2="963.40" stroke-linecap="round" style="stroke:#009E73;stroke-width:10.00"/>
	<line x1="2014.79" y1="963.40" x2="2060.79" y2="968.42" stroke-linecap="round" style="stroke:#009E73;stroke-width:10.00"/>
	<line x1="2060.79" y1="968.42" x2="2106.79" y2="908.40" stroke-linecap="round" style="stroke:#009E73;stroke-width:10.00"/>
	<line x1="2106.79" y1="908.40" x2="2152.79" y2="946.82" stroke-linecap="round" style="stroke:#009E73;stroke-width:10.00"/>
	<line x1="2152.79" y1="946.82" x2="2198.79" y2="906.64" stroke-linecap="round" style="stroke:#009E73;stroke-width:10.00"/>
	<line x1="2198.79" y1="906.64" x2="2244.79" y2="934.62" stroke-linecap="round" style="stroke:#009E73;stroke-width:10.00"/>
	<line x1="1738.80" y1="1279.57" x2="1738.80" y2="1279.57" stroke-linecap="round" style="stroke:#D55E00;stroke-width:10.00"/>
	<line x1="1738.80" y1="1279.57" x2="1784.80" y2="1270.08" stroke-linecap="round" style="stroke:#D55E00;stroke-width:10.00"/>
	<line x1="1784.80" y1="1270.08" x2="1784.80" y2="1270.08" stroke-linecap="round" style="stroke:#D55E00;stroke-width:10.00"/>
	<line x1="1784.80" y1="1270.08" x2="1830.80" y2="1211.09" stroke-linecap="round" style="stroke:#D55E00;stroke-width:10.00"/>
	<line x1="1830.80" y1="1211.09" x2="1830.80" y2="1211.09" stroke-linecap="round" style="stroke:#D55E00;stroke-width:10.00"/>
	<line x1="1830.80" y1="1211.09" x2="1876.80" y2="1161.10" stroke-linecap="round" style="stroke:#D55E00;stroke-width:10.00"/>
	<line x1="1876.80" y1="1161.10" x2="1876.80" y2="1161.10" stroke-linecap="round" style="stroke:#D55E00;stroke-width:10.00"/>
	<line x1="1876.80" y1="1161.10" x2="1922.80" y2="1140.14" stroke-linecap="round" style="stroke:#D55E00;stroke-width:10.00"/>
	<line x1="1922.80" y1="1140.14" x2="1922.80" y2="1140.14" stroke-linecap="round" style="stroke:#D55E00;stroke-width:10.00"/>
	<line x1="1922.80" y1="1140.14" x2="1968.80" y2="1079.95" stroke-linecap="round" style="stroke:#D55E00;stroke-width:10.00"/>
	<line x1="1968.80" y1="1079.95" x2="1968.80" y2="1079.95" stroke-linecap="round" style="stroke:#D55E00;stroke-width:10.00"/>
	<line x1="1968.80" y1="1079.95" x2="2014.79" y2="1077.40" stroke-linecap="round" style="stroke:#D55E00;stroke-width:10.00"/>
	<line x1="2014.79" y1="1077.40" x2="2014.79" y2="1077.40" stroke-linecap="round" style="stroke:#D55E00;stroke-width:10.00"/>
	<line x1="2014.79" y1="1077.40" x2="2060.79" y2="1021.76" stroke-linecap="round" style="stroke:#D55E00;stroke-width:10.00"/>
	<line x1="2060.79" y1="1021.76" x2="2060.79" y2="1021.76" stroke-linecap="round" style="stroke:#D55E00;stroke-width:10.00"/>
	<line x1="2060.79" y1="1021.76" x2="2106.79" y2="981.42" stroke-linecap="round" style="stroke:#D55E00;stroke-width:10.00"/>
	<line x1="2106.79" y1="981.42" x2="2106.79" y2="981.42" stroke-linecap="round" style="stroke:#D55E00;stroke-width:10.00"/>
	<line x1="2106.79" y1="981.42" x2="2152.79" y2="963.72" stroke-linecap="round" style="stroke:#D55E00;stroke-width:10.00"/>
	<line x1="2152.79" y1="963.72" x2="2152.79" y2="963.72" stroke-linecap="round" style="stroke:#D55E00;stroke-width:10.00"/>
	<line x1="2152.79" y1="963.72" x2="2198.79" y2="966.11" stroke-linecap="round" style="stroke:#D55E00;stroke-width:10.00"/>
	<line x1="2198.79" y1="966.11" x2="2198.79" y2="966.11" stroke-linecap="round" style="stroke:#D55E00;stroke-width:10.00"/>
	<line x1="2198.79" y1="966.11" x2="2244.79" y2="929.68" stroke-linecap="round" style="stroke:#D55E00;stroke-width:10.00"/>
	<line x1="2244.79" y1="929.68" x2="2244.79" y2="929.68" stroke-linecap="round" style="stroke:#D55E00;stroke-width:10.00"/>
	<line x1="2060.79" y1="1117.50" x2="2060.79" y2="1117.50" stroke-linecap="round" style="stroke:#CC79A7;stroke-width:10.00"/>
	<line x1="2060.79" y1="1117.50" x2="2106.79" y2="1120.61" stroke-linecap="round" style="stroke:#CC79A7;stroke-width:10.00"/>
	<line x1="2106.79" y1="1120.61" x2="2106.79" y2="1120.61" stroke-linecap="round" style="stroke:#CC79A7;stroke-width:10.00"/>
	<line x1="2106.79" y1="1120.61" x2="2152.79" y2="1065.92" stroke-linecap="round" style="stroke:#CC79A7;stroke-width:10.00"/>
	<line x1="2152.79" y1="1065.92" x2="2152.79" y2="1065.92" stroke-linecap="round" style="stroke:#CC79A7;stroke-width:10.00"/>
	<line x1="2152.79" y1="1065.92" x2="2198.79" y2="1050.53" stroke-linecap="round" style="stroke:#CC79A7;stroke-width:10.00"/>
	<line x1="2198.79" y1="1050.53" x2="2198.79" y2="1050.53" stroke-linecap="round" style="stroke:#CC79A7;stroke-width:10.00"/>
	<line x1="2198.79" y1="1050.53" x2="2244.79" y2="1064.17" stroke-linecap="round" style="stroke:#CC79A7;stroke-width:10.00"/>
	<line x1="2244.79" y1="1064.17" x2="2244.79" y2="1064.17" stroke-linecap="round" style="stroke:#CC79A7;stroke-width:10.00"/>
	<line x1="450.90" y1="1131.93" x2="499.53" y2="1116.46" style="stroke:#A0A0A0;stroke-width:10.00"/>
	<line x1="523.85" y1="1108.65" x2="542.90" y2="1102.59" style="stroke:#A0A0A0;stroke-width:10.00"/>
	<line x1="542.90" y1="1102.59" x2="573.28" y2="1096.45" style="stroke:#A0A0A0;stroke-width:10.00"/>
	<line x1="598.31" y1="1091.43" x2="634.90" y2="1084.02" style="stroke:#A0A0A0;stroke-width:10.00"/>
	<line x1="634.90" y1="1084.02" x2="648.21" y2="1081.15" style="stroke:#A0A0A0;stroke-width:10.00"/>
	<line x1="673.17" y1="1075.72" x2="722.99" y2="1064.88" style="stroke:#A0A0A0;stroke-width:10.00"/>
	<line x1="748.18" y1="1060.82" x2="798.57" y2="1052.93" style="stroke:#A0A0A0;stroke-width:10.00"/>
	<line x1="823.84" y1="1049.02" x2="864.90" y2="1042.64" style="stroke:#A0A0A0;stroke-width:10.00"/>
	<line x1="864.90" y1="1042.64" x2="874.14" y2="1040.81" style="stroke:#A0A0A0;stroke-width:10.00"/>
	<line x1="899.18" y1="1035.71" x2="949.16" y2="1025.58" style="stroke:#A0A0A0;stroke-width:10.00"/>
	<line x1="973.79" y1="1019.04" x2="1022.66" y2="1004.46" style="stroke:#A0A0A0;stroke-width:10.00"/>
	<line x1="1047.14" y1="997.20" x2="1048.89" y2="996.64" style="stroke:#A0A0A0;stroke-width:10.00"/>
	<line x1="1048.89" y1="996.64" x2="1082.22" y2="960.53" style="stroke:#A0A0A0;stroke-width:10.00"/>
	<line x1="1099.52" y1="941.72" x2="1134.11" y2="904.25" style="stroke:#A0A0A0;stroke-width:10.00"/>
	<line x1="1156.12" y1="894.05" x2="1206.34" y2="884.88" style="stroke:#A0A0A0;stroke-width:10.00"/>
	<line x1="1231.45" y1="880.25" x2="1232.89" y2="880.02" style="stroke:#A0A0A0;stroke-width:10.00"/>
	<line x1="1232.89" y1="880.02" x2="1281.60" y2="871.25" style="stroke:#A0A0A0;stroke-width:10.00"/>
	<line x1="1306.71" y1="866.70" x2="1324.81" y2="863.43" style="stroke:#A0A0A0;stroke-width:10.00"/>
	<line x1="1324.81" y1="863.43" x2="1353.51" y2="847.73" style="stroke:#A0A0A0;stroke-width:10.00"/>
	<line x1="1376.31" y1="836.49" x2="1416.81" y2="822.46" style="stroke:#A0A0A0;stroke-width:10.00"/>
	<line x1="1416.81" y1="822.46" x2="1424.62" y2="820.07" style="stroke:#A0A0A0;stroke-width:10.00"/>
	<line x1="1449.01" y1="812.65" x2="1462.81" y2="808.43" style="stroke:#A0A0A0;stroke-width:10.00"/>
	<line x1="1462.81" y1="808.43" x2="1494.45" y2="790.01" style="stroke:#A0A0A0;stroke-width:10.00"/>
	<line x1="1516.86" y1="777.90" x2="1554.80" y2="759.80" style="stroke:#A0A0A0;stroke-width:10.00"/>
	<line x1="1554.80" y1="759.80" x2="1563.41" y2="757.17" style="stroke:#A0A0A0;stroke-width:10.00"/>
	<line x1="1587.73" y1="749.52" x2="1600.80" y2="745.45" style="stroke:#A0A0A0;stroke-width:10.00"/>
	<line x1="1600.80" y1="745.45" x2="1638.11" y2="746.41" style="stroke:#A0A0A0;stroke-width:10.00"/>
	<line x1="1663.62" y1="747.04" x2="1692.80" y2="747.84" style="stroke:#A0A0A0;stroke-width:10.00"/>
	<line x1="1692.80" y1="747.84" x2="1714.49" y2="750.47" style="stroke:#A0A0A0;stroke-width:10.00"/>
	<line x1="1739.84" y1="753.58" x2="1784.80" y2="759.64" style="stroke:#A0A0A0;stroke-width:10.00"/>
	<line x1="1784.80" y1="759.64" x2="1789.50" y2="756.45" style="stroke:#A0A0A0;stroke-width:10.00"/>
	<line x1="1810.55" y1="742.10" x2="1830.80" y2="728.31" style="stroke:#A0A0A0;stroke-width:10.00"/>
	<line x1="1830.80" y1="728.31" x2="1855.03" y2="717.63" style="stroke:#A0A0A0;stroke-width:10.00"/>
	<line x1="1878.47" y1="707.74" x2="1922.80" y2="700.25" style="stroke:#A0A0A0;stroke-width:10.00"/>
	<line x1="1922.80" y1="700.25" x2="1928.78" y2="699.05" style="stroke:#A0A0A0;stroke-width:10.00"/>
	<line x1="1953.81" y1="694.03" x2="1968.80" y2="691.00" style="stroke:#A0A0A0;stroke-width:10.00"/>
	<line x1="1968.80" y1="691.00" x2="2002.60" y2="679.44" style="stroke:#A0A0A0;stroke-width:10.00"/>
	<line x1="2026.20" y1="669.96" x2="2060.79" y2="653.85" style="stroke:#A0A0A0;stroke-width:10.00"/>
	<line x1="2060.79" y1="653.85" x2="2073.63" y2="653.14" style="stroke:#A0A0A0;stroke-width:10.00"/>
	<line x1="2099.14" y1="651.86" x2="2106.79" y2="651.46" style="stroke:#A0A0A0;stroke-width:10.00"/>
	<line x1="2106.79" y1="651.46" x2="2149.13" y2="642.29" style="stroke:#A0A0A0;stroke-width:10.00"/>
	<line x1="2174.32" y1="638.23" x2="2198.79" y2="634.56" style="stroke:#A0A0A0;stroke-width:10.00"/>
	<line x1="2198.79" y1="634.56" x2="2224.30" y2="628.18" style="stroke:#A0A0A0;stroke-width:10.00"/>
	<line x1="1140.89" y1="608.97" x2="1149.66" y2="627.39" style="stroke:#A0A0A0;stroke-width:10.00"/>
	<line x1="1158.43" y1="645.80" x2="1159.55" y2="648.11" style="stroke:#A0A0A0;stroke-width:10.00"/>
	<line x1="1168.39" y1="666.53" x2="1177.16" y2="684.94" style="stroke:#A0A0A0;stroke-width:10.00"/>
	<line x1="1185.93" y1="703.36" x2="1187.05" y2="705.67" style="stroke:#A0A0A0;stroke-width:10.00"/>
	<line x1="1195.90" y1="724.09" x2="1204.67" y2="742.42" style="stroke:#A0A0A0;stroke-width:10.00"/>
	<line x1="1213.52" y1="760.84" x2="1214.55" y2="763.15" style="stroke:#A0A0A0;stroke-width:10.00"/>
	<line x1="1223.40" y1="781.56" x2="1232.17" y2="799.98" style="stroke:#A0A0A0;stroke-width:10.00"/>
	<line x1="1249.71" y1="792.88" x2="1251.94" y2="791.77" style="stroke:#A0A0A0;stroke-width:10.00"/>
	<line x1="1270.20" y1="782.52" x2="1288.30" y2="773.19" style="stroke:#A0A0A0;stroke-width:10.00"/>
	<line x1="1306.55" y1="763.94" x2="1308.78" y2="762.83" style="stroke:#A0A0A0;stroke-width:10.00"/>
	<line x1="1327.28" y1="754.94" x2="1347.61" y2="756.77" style="stroke:#A0A0A0;stroke-width:10.00"/>
	<line x1="1367.94" y1="758.52" x2="1370.49" y2="758.76" style="stroke:#A0A0A0;stroke-width:10.00"/>
	<line x1="1389.06" y1="767.13" x2="1407.72" y2="775.50" style="stroke:#A0A0A0;stroke-width:10.00"/>
	<line x1="1427.17" y1="780.37" x2="1429.72" y2="780.53" style="stroke:#A0A0A0;stroke-width:10.00"/>
	<line x1="1450.13" y1="781.80" x2="1462.81" y2="782.60" style="stroke:#A0A0A0;stroke-width:10.00"/>
	<line x1="1462.81" y1="782.60" x2="1468.70" y2="777.74" style="stroke:#A0A0A0;stroke-width:10.00"/>
	<line x1="1484.49" y1="764.74" x2="1486.40" y2="763.07" style="stroke:#A0A0A0;stroke-width:10.00"/>
	<line x1="1502.19" y1="750.07" x2="1508.80" y2="744.65" style="stroke:#A0A0A0;stroke-width:10.00"/>
	<line x1="1508.80" y1="744.65" x2="1520.52" y2="743.94" style="stroke:#A0A0A0;stroke-width:10.00"/>
	<line x1="1540.93" y1="742.66" x2="1543.48" y2="742.50" style="stroke:#A0A0A0;stroke-width:10.00"/>
	<line x1="1563.81" y1="742.18" x2="1584.22" y2="743.06" style="stroke:#A0A0A0;stroke-width:10.00"/>
	<line x1="1604.55" y1="744.41" x2="1607.10" y2="744.89" style="stroke:#A0A0A0;stroke-width:10.00"/>
	<line x1="1627.19" y1="748.48" x2="1646.80" y2="751.99" style="stroke:#A0A0A0;stroke-width:10.00"/>
	<line x1="1646.80" y1="751.99" x2="1647.28" y2="751.99" style="stroke:#A0A0A0;stroke-width:10.00"/>
	<line x1="1667.61" y1="750.47" x2="1670.16" y2="750.31" style="stroke:#A0A0A0;stroke-width:10.00"/>
	<line x1="1690.57" y1="748.88" x2="1692.80" y2="748.72" style="stroke:#A0A0A0;stroke-width:10.00"/>
	<line x1="1692.80" y1="748.72" x2="1710.58" y2="752.55" style="stroke:#A0A0A0;stroke-width:10.00"/>
	<line x1="1730.51" y1="756.85" x2="1732.98" y2="757.41" style="stroke:#A0A0A0;stroke-width:10.00"/>
	<line x1="1752.51" y1="753.90" x2="1771.72" y2="747.12" style="stroke:#A0A0A0;stroke-width:10.00"/>
	<line x1="1790.94" y1="740.27" x2="1793.33" y2="739.39" style="stroke:#A0A0A0;stroke-width:10.00"/>
	<line x1="1812.46" y1="732.30" x2="1830.80" y2="725.60" style="stroke:#A0A0A0;stroke-width:10.00"/>
	<line x1="1830.80" y1="725.60" x2="1831.60" y2="725.28" style="stroke:#A0A0A0;stroke-width:10.00"/>
	<line x1="1850.49" y1="717.55" x2="1852.88" y2="716.59" style="stroke:#A0A0A0;stroke-width:10.00"/>
	<line x1="1871.78" y1="708.94" x2="1876.80" y2="706.87" style="stroke:#A0A0A0;stroke-width:10.00"/>
	<line x1="1876.80" y1="706.87" x2="1891.15" y2="702.48" style="stroke:#A0A0A0;stroke-width:10.00"/>
	<line x1="1910.68" y1="696.42" x2="1913.07" y2="695.71" style="stroke:#A0A0A0;stroke-width:10.00"/>
	<line x1="1932.36" y1="689.09" x2="1951.42" y2="681.83" style="stroke:#A0A0A0;stroke-width:10.00"/>
	<line x1="1970.39" y1="674.42" x2="1972.70" y2="673.30" style="stroke:#A0A0A0;stroke-width:10.00"/>
	<line x1="1990.96" y1="664.22" x2="2009.29" y2="655.21" style="stroke:#A0A0A0;stroke-width:10.00"/>
	<line x1="2028.11" y1="647.40" x2="2030.50" y2="646.44" style="stroke:#A0A0A0;stroke-width:10.00"/>
	<line x1="2049.55" y1="639.18" x2="2060.79" y2="634.88" style="stroke:#A0A0A0;stroke-width:10.00"/>
	<line x1="2060.79" y1="634.88" x2="2069.16" y2="634.48" style="stroke:#A0A0A0;stroke-width:10.00"/>
	<line x1="2089.57" y1="633.60" x2="2092.12" y2="633.45" style="stroke:#A0A0A0;stroke-width:10.00"/>
	<line x1="2112.29" y1="631.37" x2="2132.14" y2="626.35" style="stroke:#A0A0A0;stroke-width:10.00"/>
	<line x1="2151.92" y1="621.33" x2="2152.79" y2="621.09" style="stroke:#A0A0A0;stroke-width:10.00"/>
	<line x1="2152.79" y1="621.09" x2="2154.39" y2="620.93" style="stroke:#A0A0A0;stroke-width:10.00"/>
	<line x1="2174.72" y1="619.10" x2="2195.04" y2="617.26" style="stroke:#A0A0A0;stroke-width:10.00"/>
	<line x1="2215.29" y1="614.63" x2="2217.84" y2="614.31" style="stroke:#A0A0A0;stroke-width:10.00"/>
	<line x1="2238.01" y1="611.52" x2="2244.79" y2="610.57" style="stroke:#A0A0A0;stroke-width:10.00"/>
	<line x1="394.86" y1="1865.82" x2="359.38" y2="1865.82" style="stroke:#000000;stroke-width:4.00"/>
	<text x="341.69" y="1883.33" style="font-family:'Helvetica';font-size:49.99px;fill:#000000" text-anchor="end">0</text>
	<line x1="394.86" y1="1715.63" x2="359.38" y2="1715.63" style="stroke:#000000;stroke-width:4.00"/>
	<text x="341.69" y="1733.14" style="font-family:'Helvetica';font-size:49.99px;fill:#000000" text-anchor="end">10</text>
	<line x1="394.86" y1="1565.52" x2="359.38" y2="1565.52" style="stroke:#000000;stroke-width:4.00"/>
	<text x="341.69" y="1583.03" style="font-family:'Helvetica';font-size:49.99px;fill:#000000" text-anchor="end">20</text>
	<line x1="394.86" y1="1415.41" x2="359.38" y2="1415.41" style="stroke:#000000;stroke-width:4.00"/>
	<text x="341.69" y="1432.92" style="font-family:'Helvetica';font-size:49.99px;fill:#000000" text-anchor="end">30</text>
	<line x1="394.86" y1="1265.22" x2="359.38" y2="1265.22" style="stroke:#000000;stroke-width:4.00"/>
	<text x="341.69" y="1282.73" style="font-family:'Helvetica';font-size:49.99px;fill:#000000" text-anchor="end">40</text>
	<line x1="394.86" y1="1115.11" x2="359.38" y2="1115.11" style="stroke:#000000;stroke-width:4.00"/>
	<text x="341.69" y="1132.62" style="font-family:'Helvetica';font-size:49.99px;fill:#000000" text-anchor="end">50</text>
	<line x1="394.86" y1="964.92" x2="359.38" y2="964.92" style="stroke:#000000;stroke-width:4.00"/>
	<text x="341.69" y="982.43" style="font-family:'Helvetica';font-size:49.99px;fill:#000000" text-anchor="end">60</text>
	<line x1="394.86" y1="814.81" x2="359.38" y2="814.81" style="stroke:#000000;stroke-width:4.00"/>
	<text x="341.69" y="832.32" style="font-family:'Helvetica';font-size:49.99px;fill:#000000" text-anchor="end">70</text>
	<line x1="394.86" y1="664.62" x2="359.38" y2="664.62" style="stroke:#000000;stroke-width:4.00"/>
	<text x="341.69" y="682.13" style="font-family:'Helvetica';font-size:49.99px;fill:#000000" text-anchor="end">80</text>
	<line x1="394.86" y1="514.50" x2="359.38" y2="514.50" style="stroke:#000000;stroke-width:4.00"/>
	<text x="341.69" y="532.02" style="font-family:'Helvetica';font-size:49.99px;fill:#000000" text-anchor="end">90</text>
	<line x1="394.86" y1="364.31" x2="359.38" y2="364.31" style="stroke:#000000;stroke-width:4.00"/>
	<text x="341.69" y="381.83" style="font-family:'Helvetica';font-size:49.99px;fill:#000000" text-anchor="end">100</text>
	<line x1="394.86" y1="1865.82" x2="394.86" y2="364.31" style="stroke:#000000;stroke-width:4.00"/>
	<text x="136.21" y="1076.84" style="font-family:'Helvetica';font-size:60.03px;fill:#000000" transform="rotate(-90 136.21,1076.84)" text-anchor="middle">Employment</text>
	<line x1="450.98" y1="1921.94" x2="450.98" y2="1957.33" style="stroke:#000000;stroke-width:4.00"/>
	<text x="450.98" y="2009.98" style="font-family:'Helvetica';font-size:49.99px;fill:#000000" text-anchor="middle">1976</text>
	<line x1="680.98" y1="1921.94" x2="680.98" y2="1957.33" style="stroke:#000000;stroke-width:4.00"/>
	<text x="680.98" y="2009.98" style="font-family:'Helvetica';font-size:49.99px;fill:#000000" text-anchor="middle">1981</text>
	<line x1="910.89" y1="1921.94" x2="910.89" y2="1957.33" style="stroke:#000000;stroke-width:4.00"/>
	<text x="910.89" y="2009.98" style="font-family:'Helvetica';font-size:49.99px;fill:#000000" text-anchor="middle">1986</text>
	<line x1="1140.89" y1="1921.94" x2="1140.89" y2="1957.33" style="stroke:#000000;stroke-width:4.00"/>
	<text x="1140.89" y="2009.98" style="font-family:'Helvetica';font-size:49.99px;fill:#000000" text-anchor="middle">1991</text>
	<line x1="1370.89" y1="1921.94" x2="1370.89" y2="1957.33" style="stroke:#000000;stroke-width:4.00"/>
	<text x="1370.89" y="2009.98" style="font-family:'Helvetica';font-size:49.99px;fill:#000000" text-anchor="middle">1996</text>
	<line x1="1600.88" y1="1921.94" x2="1600.88" y2="1957.33" style="stroke:#000000;stroke-width:4.00"/>
	<text x="1600.88" y="2009.98" style="font-family:'Helvetica';font-size:49.99px;fill:#000000" text-anchor="middle">2001</text>
	<line x1="1830.88" y1="1921.94" x2="1830.88" y2="1957.33" style="stroke:#000000;stroke-width:4.00"/>
	<text x="1830.88" y="2009.98" style="font-family:'Helvetica';font-size:49.99px;fill:#000000" text-anchor="middle">2006</text>
	<line x1="2060.79" y1="1921.94" x2="2060.79" y2="1957.33" style="stroke:#000000;stroke-width:4.00"/>
	<text x="2060.79" y="2009.98" style="font-family:'Helvetica';font-size:49.99px;fill:#000000" text-anchor="middle">2011</text>
	<line x1="2290.79" y1="1921.94" x2="2290.79" y2="1957.33" style="stroke:#000000;stroke-width:4.00"/>
	<text x="2290.79" y="2009.98" style="font-family:'Helvetica';font-size:49.99px;fill:#000000" text-anchor="middle">2016</text>
	<line x1="450.98" y1="1921.94" x2="2290.79" y2="1921.94" style="stroke:#000000;stroke-width:4.00"/>
	<text x="1332.62" y="2152.37" style="font-family:'Helvetica';font-size:60.03px;fill:#000000" text-anchor="middle">Year</text>
	<text x="145.41" y="2396.65" style="font-family:'Helvetica';font-size:60.03px;fill:#000000">Arr. cohort: </text>
	<text x="487.81" y="2396.65" style="font-family:'Helvetica';font-size:60.03px;fill:#000000">1964-73</text>
	<text x="758.23" y="2396.65" style="font-family:'Helvetica';font-size:60.03px;fill:#000000">1974-83</text>
	<text x="1028.72" y="2396.65" style="font-family:'Helvetica';font-size:60.03px;fill:#000000">1984-93</text>
	<text x="1299.14" y="2396.65" style="font-family:'Helvetica';font-size:60.03px;fill:#000000">1994-03</text>
	<text x="1569.55" y="2396.65" style="font-family:'Helvetica';font-size:60.03px;fill:#000000">2004-10</text>
	<text x="1840.05" y="2396.65" style="font-family:'Helvetica';font-size:60.03px;fill:#000000">West G.</text>
	<text x="2110.46" y="2396.65" style="font-family:'Helvetica';font-size:60.03px;fill:#000000">East G.</text>
	<line x1="487.81" y1="2301.32" x2="663.76" y2="2301.32" style="stroke:#E69F00;stroke-width:10.00"/>
	<line x1="758.23" y1="2301.32" x2="934.25" y2="2301.32" style="stroke:#56B4E9;stroke-width:10.00"/>
	<line x1="1028.72" y1="2301.32" x2="1204.67" y2="2301.32" style="stroke:#009E73;stroke-width:10.00"/>
	<line x1="1299.14" y1="2301.32" x2="1475.08" y2="2301.32" style="stroke:#D55E00;stroke-width:10.00"/>
	<line x1="1569.55" y1="2301.32" x2="1745.58" y2="2301.32" style="stroke:#CC79A7;stroke-width:10.00"/>
	<line x1="1840.05" y1="2301.32" x2="1891.07" y2="2301.32" style="stroke:#A0A0A0;stroke-width:10.00"/>
	<line x1="1916.58" y1="2301.32" x2="1967.60" y2="2301.32" style="stroke:#A0A0A0;stroke-width:10.00"/>
	<line x1="1993.11" y1="2301.32" x2="2015.99" y2="2301.32" style="stroke:#A0A0A0;stroke-width:10.00"/>
	<line x1="2110.46" y1="2301.32" x2="2130.87" y2="2301.32" style="stroke:#A0A0A0;stroke-width:10.00"/>
	<line x1="2151.28" y1="2301.32" x2="2153.83" y2="2301.32" style="stroke:#A0A0A0;stroke-width:10.00"/>
	<line x1="2174.24" y1="2301.32" x2="2194.65" y2="2301.32" style="stroke:#A0A0A0;stroke-width:10.00"/>
	<line x1="2215.05" y1="2301.32" x2="2217.61" y2="2301.32" style="stroke:#A0A0A0;stroke-width:10.00"/>
	<line x1="2238.01" y1="2301.32" x2="2258.42" y2="2301.32" style="stroke:#A0A0A0;stroke-width:10.00"/>
	<text x="1370.89" y="239.12" style="font-family:'Helvetica';font-size:60.03px;fill:#000000" text-anchor="middle">Percent, including East Germany</text>
	<text x="1370.89" y="154.88" style="font-family:'Helvetica';font-size:90.01px;fill:#000000" text-anchor="middle">Employment, Women</text>
</svg>
