<?xml version="1.0" encoding="UTF-8" standalone="no"?>
<!-- This is a Stata 15.1 generated SVG file (http://www.stata.com) -->

<svg version="1.1" width="3.54in" height="3.54in" viewBox="0 0 2551 2551" xmlns="http://www.w3.org/2000/svg" xmlns:xlink="http://www.w3.org/1999/xlink">
	<desc>Stata Graph - Graph</desc>
	<rect x="0" y="0" width="2551" height="2551" style="fill:#FFFFFF;stroke:none"/>
	<rect x="0.00" y="0.08" width="2551.00" height="2550.92" style="fill:#FFFFFF"/>
	<rect x="2.55" y="2.63" width="2545.90" height="2545.82" style="fill:none;stroke:#FFFFFF;stroke-width:5.10"/>
	<line x1="351.09" y1="1904.40" x2="2346.91" y2="1904.40" style="stroke:#E8E8E8;stroke-width:4.00"/>
	<line x1="351.09" y1="1711.88" x2="2346.91" y2="1711.88" style="stroke:#E8E8E8;stroke-width:4.00"/>
	<line x1="351.09" y1="1519.36" x2="2346.91" y2="1519.36" style="stroke:#E8E8E8;stroke-width:4.00"/>
	<line x1="351.09" y1="1326.84" x2="2346.91" y2="1326.84" style="stroke:#E8E8E8;stroke-width:4.00"/>
	<line x1="351.09" y1="1134.40" x2="2346.91" y2="1134.40" style="stroke:#E8E8E8;stroke-width:4.00"/>
	<line x1="351.09" y1="941.88" x2="2346.91" y2="941.88" style="stroke:#E8E8E8;stroke-width:4.00"/>
	<line x1="351.09" y1="749.36" x2="2346.91" y2="749.36" style="stroke:#E8E8E8;stroke-width:4.00"/>
	<line x1="351.09" y1="556.84" x2="2346.91" y2="556.84" style="stroke:#E8E8E8;stroke-width:4.00"/>
	<line x1="351.09" y1="364.31" x2="2346.91" y2="364.31" style="stroke:#E8E8E8;stroke-width:4.00"/>
	<line x1="407.22" y1="1960.52" x2="407.22" y2="308.19" style="stroke:#E8E8E8;stroke-width:4.00"/>
	<line x1="711.03" y1="1960.52" x2="711.03" y2="308.19" style="stroke:#E8E8E8;stroke-width:4.00"/>
	<line x1="1014.85" y1="1960.52" x2="1014.85" y2="308.19" style="stroke:#E8E8E8;stroke-width:4.00"/>
	<line x1="1318.59" y1="1960.52" x2="1318.59" y2="308.19" style="stroke:#E8E8E8;stroke-width:4.00"/>
	<line x1="1622.41" y1="1960.52" x2="1622.41" y2="308.19" style="stroke:#E8E8E8;stroke-width:4.00"/>
	<line x1="1926.22" y1="1960.52" x2="1926.22" y2="308.19" style="stroke:#E8E8E8;stroke-width:4.00"/>
	<line x1="2230.04" y1="1960.52" x2="2230.04" y2="308.19" style="stroke:#E8E8E8;stroke-width:4.00"/>
	<line x1="1136.35" y1="518.41" x2="1197.09" y2="512.19" stroke-linecap="round" style="stroke:#E69F00;stroke-width:10.00"/>
	<line x1="1197.09" y1="512.19" x2="1257.84" y2="532.04" stroke-linecap="round" style="stroke:#E69F00;stroke-width:10.00"/>
	<line x1="1257.84" y1="532.04" x2="1318.59" y2="522.88" stroke-linecap="round" style="stroke:#E69F00;stroke-width:10.00"/>
	<line x1="1318.59" y1="522.88" x2="1379.34" y2="547.03" stroke-linecap="round" style="stroke:#E69F00;stroke-width:10.00"/>
	<line x1="1379.34" y1="547.03" x2="1440.08" y2="542.73" stroke-linecap="round" style="stroke:#E69F00;stroke-width:10.00"/>
	<line x1="1440.08" y1="542.73" x2="1500.83" y2="548.78" stroke-linecap="round" style="stroke:#E69F00;stroke-width:10.00"/>
	<line x1="1500.83" y1="548.78" x2="1561.66" y2="588.16" stroke-linecap="round" style="stroke:#E69F00;stroke-width:10.00"/>
	<line x1="1561.66" y1="588.16" x2="1622.41" y2="555.56" stroke-linecap="round" style="stroke:#E69F00;stroke-width:10.00"/>
	<line x1="1622.41" y1="555.56" x2="1683.15" y2="572.30" stroke-linecap="round" style="stroke:#E69F00;stroke-width:10.00"/>
	<line x1="1683.15" y1="572.30" x2="1743.90" y2="654.33" stroke-linecap="round" style="stroke:#E69F00;stroke-width:10.00"/>
	<line x1="1743.90" y1="654.33" x2="1804.65" y2="709.82" stroke-linecap="round" style="stroke:#E69F00;stroke-width:10.00"/>
	<line x1="1804.65" y1="709.82" x2="1865.40" y2="706.31" stroke-linecap="round" style="stroke:#E69F00;stroke-width:10.00"/>
	<line x1="1865.40" y1="706.31" x2="1926.22" y2="746.33" stroke-linecap="round" style="stroke:#E69F00;stroke-width:10.00"/>
	<line x1="1926.22" y1="746.33" x2="1986.97" y2="832.42" stroke-linecap="round" style="stroke:#E69F00;stroke-width:10.00"/>
	<line x1="1986.97" y1="832.42" x2="2047.72" y2="825.97" stroke-linecap="round" style="stroke:#E69F00;stroke-width:10.00"/>
	<line x1="2047.72" y1="825.97" x2="2108.47" y2="801.01" stroke-linecap="round" style="stroke:#E69F00;stroke-width:10.00"/>
	<line x1="2108.47" y1="801.01" x2="2169.21" y2="771.04" stroke-linecap="round" style="stroke:#E69F00;stroke-width:10.00"/>
	<line x1="2169.21" y1="771.04" x2="2229.96" y2="785.15" stroke-linecap="round" style="stroke:#E69F00;stroke-width:10.00"/>
	<line x1="528.71" y1="792.64" x2="589.46" y2="794.64" stroke-linecap="round" style="stroke:#56B4E9;stroke-width:10.00"/>
	<line x1="589.46" y1="794.64" x2="650.21" y2="804.12" stroke-linecap="round" style="stroke:#56B4E9;stroke-width:10.00"/>
	<line x1="650.21" y1="804.12" x2="710.95" y2="804.92" stroke-linecap="round" style="stroke:#56B4E9;stroke-width:10.00"/>
	<line x1="710.95" y1="804.92" x2="771.78" y2="770.72" stroke-linecap="round" style="stroke:#56B4E9;stroke-width:10.00"/>
	<line x1="771.78" y1="770.72" x2="832.53" y2="754.94" stroke-linecap="round" style="stroke:#56B4E9;stroke-width:10.00"/>
	<line x1="832.53" y1="754.94" x2="893.28" y2="703.28" stroke-linecap="round" style="stroke:#56B4E9;stroke-width:10.00"/>
	<line x1="893.28" y1="703.28" x2="954.02" y2="680.56" stroke-linecap="round" style="stroke:#56B4E9;stroke-width:10.00"/>
	<line x1="954.02" y1="680.56" x2="1014.77" y2="659.27" stroke-linecap="round" style="stroke:#56B4E9;stroke-width:10.00"/>
	<line x1="1014.77" y1="659.27" x2="1075.52" y2="664.38" stroke-linecap="round" style="stroke:#56B4E9;stroke-width:10.00"/>
	<line x1="1075.52" y1="664.38" x2="1136.35" y2="632.41" stroke-linecap="round" style="stroke:#56B4E9;stroke-width:10.00"/>
	<line x1="1136.35" y1="632.41" x2="1197.09" y2="700.49" stroke-linecap="round" style="stroke:#56B4E9;stroke-width:10.00"/>
	<line x1="1197.09" y1="700.49" x2="1257.84" y2="666.13" stroke-linecap="round" style="stroke:#56B4E9;stroke-width:10.00"/>
	<line x1="1257.84" y1="666.13" x2="1318.59" y2="655.53" stroke-linecap="round" style="stroke:#56B4E9;stroke-width:10.00"/>
	<line x1="1318.59" y1="655.53" x2="1379.34" y2="710.37" stroke-linecap="round" style="stroke:#56B4E9;stroke-width:10.00"/>
	<line x1="1379.34" y1="710.37" x2="1440.08" y2="690.92" stroke-linecap="round" style="stroke:#56B4E9;stroke-width:10.00"/>
	<line x1="1440.08" y1="690.92" x2="1500.83" y2="693.87" stroke-linecap="round" style="stroke:#56B4E9;stroke-width:10.00"/>
	<line x1="1500.83" y1="693.87" x2="1561.66" y2="709.18" stroke-linecap="round" style="stroke:#56B4E9;stroke-width:10.00"/>
	<line x1="1561.66" y1="709.18" x2="1622.41" y2="733.01" stroke-linecap="round" style="stroke:#56B4E9;stroke-width:10.00"/>
	<line x1="1622.41" y1="733.01" x2="1683.15" y2="753.42" stroke-linecap="round" style="stroke:#56B4E9;stroke-width:10.00"/>
	<line x1="1683.15" y1="753.42" x2="1743.90" y2="728.55" stroke-linecap="round" style="stroke:#56B4E9;stroke-width:10.00"/>
	<line x1="1743.90" y1="728.55" x2="1804.65" y2="679.04" stroke-linecap="round" style="stroke:#56B4E9;stroke-width:10.00"/>
	<line x1="1804.65" y1="679.04" x2="1865.40" y2="715.00" stroke-linecap="round" style="stroke:#56B4E9;stroke-width:10.00"/>
	<line x1="1865.40" y1="715.00" x2="1926.22" y2="777.42" stroke-linecap="round" style="stroke:#56B4E9;stroke-width:10.00"/>
	<line x1="1926.22" y1="777.42" x2="1986.97" y2="738.59" stroke-linecap="round" style="stroke:#56B4E9;stroke-width:10.00"/>
	<line x1="1986.97" y1="738.59" x2="2047.72" y2="738.20" stroke-linecap="round" style="stroke:#56B4E9;stroke-width:10.00"/>
	<line x1="2047.72" y1="738.20" x2="2108.47" y2="848.77" stroke-linecap="round" style="stroke:#56B4E9;stroke-width:10.00"/>
	<line x1="2108.47" y1="848.77" x2="2169.21" y2="852.99" stroke-linecap="round" style="stroke:#56B4E9;stroke-width:10.00"/>
	<line x1="2169.21" y1="852.99" x2="2229.96" y2="961.01" stroke-linecap="round" style="stroke:#56B4E9;stroke-width:10.00"/>
	<line x1="467.96" y1="1258.76" x2="528.71" y2="1057.63" stroke-linecap="round" style="stroke:#009E73;stroke-width:10.00"/>
	<line x1="528.71" y1="1057.63" x2="589.46" y2="1062.25" stroke-linecap="round" style="stroke:#009E73;stroke-width:10.00"/>
	<line x1="589.46" y1="1062.25" x2="650.21" y2="1009.08" stroke-linecap="round" style="stroke:#009E73;stroke-width:10.00"/>
	<line x1="650.21" y1="1009.08" x2="710.95" y2="968.66" stroke-linecap="round" style="stroke:#009E73;stroke-width:10.00"/>
	<line x1="710.95" y1="968.66" x2="771.78" y2="922.59" stroke-linecap="round" style="stroke:#009E73;stroke-width:10.00"/>
	<line x1="771.78" y1="922.59" x2="832.53" y2="844.54" stroke-linecap="round" style="stroke:#009E73;stroke-width:10.00"/>
	<line x1="832.53" y1="844.54" x2="893.28" y2="815.60" stroke-linecap="round" style="stroke:#009E73;stroke-width:10.00"/>
	<line x1="893.28" y1="815.60" x2="954.02" y2="809.70" stroke-linecap="round" style="stroke:#009E73;stroke-width:10.00"/>
	<line x1="954.02" y1="809.70" x2="1014.77" y2="774.47" stroke-linecap="round" style="stroke:#009E73;stroke-width:10.00"/>
	<line x1="1014.77" y1="774.47" x2="1075.52" y2="767.69" stroke-linecap="round" style="stroke:#009E73;stroke-width:10.00"/>
	<line x1="1075.52" y1="767.69" x2="1136.35" y2="773.83" stroke-linecap="round" style="stroke:#009E73;stroke-width:10.00"/>
	<line x1="1136.35" y1="773.83" x2="1197.09" y2="781.32" stroke-linecap="round" style="stroke:#009E73;stroke-width:10.00"/>
	<line x1="1197.09" y1="781.32" x2="1257.84" y2="773.43" stroke-linecap="round" style="stroke:#009E73;stroke-width:10.00"/>
	<line x1="1257.84" y1="773.43" x2="1318.59" y2="779.97" stroke-linecap="round" style="stroke:#009E73;stroke-width:10.00"/>
	<line x1="1318.59" y1="779.97" x2="1379.34" y2="789.14" stroke-linecap="round" style="stroke:#009E73;stroke-width:10.00"/>
	<line x1="1379.34" y1="789.14" x2="1440.08" y2="750.55" stroke-linecap="round" style="stroke:#009E73;stroke-width:10.00"/>
	<line x1="1440.08" y1="750.55" x2="1500.83" y2="750.79" stroke-linecap="round" style="stroke:#009E73;stroke-width:10.00"/>
	<line x1="1500.83" y1="750.79" x2="1561.66" y2="755.81" stroke-linecap="round" style="stroke:#009E73;stroke-width:10.00"/>
	<line x1="1561.66" y1="755.81" x2="1622.41" y2="807.39" stroke-linecap="round" style="stroke:#009E73;stroke-width:10.00"/>
	<line x1="1622.41" y1="807.39" x2="1683.15" y2="736.68" stroke-linecap="round" style="stroke:#009E73;stroke-width:10.00"/>
	<line x1="1683.15" y1="736.68" x2="1743.90" y2="737.80" stroke-linecap="round" style="stroke:#009E73;stroke-width:10.00"/>
	<line x1="467.96" y1="1184.22" x2="528.71" y2="1102.03" stroke-linecap="round" style="stroke:#D55E00;stroke-width:10.00"/>
	<line x1="528.71" y1="1102.03" x2="589.46" y2="1034.19" stroke-linecap="round" style="stroke:#D55E00;stroke-width:10.00"/>
	<line x1="589.46" y1="1034.19" x2="650.21" y2="971.37" stroke-linecap="round" style="stroke:#D55E00;stroke-width:10.00"/>
	<line x1="650.21" y1="971.37" x2="710.95" y2="904.65" stroke-linecap="round" style="stroke:#D55E00;stroke-width:10.00"/>
	<line x1="710.95" y1="904.65" x2="771.78" y2="899.71" stroke-linecap="round" style="stroke:#D55E00;stroke-width:10.00"/>
	<line x1="771.78" y1="899.71" x2="832.53" y2="873.72" stroke-linecap="round" style="stroke:#D55E00;stroke-width:10.00"/>
	<line x1="832.53" y1="873.72" x2="893.28" y2="843.66" stroke-linecap="round" style="stroke:#D55E00;stroke-width:10.00"/>
	<line x1="893.28" y1="843.66" x2="954.02" y2="822.46" stroke-linecap="round" style="stroke:#D55E00;stroke-width:10.00"/>
	<line x1="954.02" y1="822.46" x2="1014.77" y2="786.82" stroke-linecap="round" style="stroke:#D55E00;stroke-width:10.00"/>
	<line x1="1014.77" y1="786.82" x2="1075.52" y2="748.56" stroke-linecap="round" style="stroke:#D55E00;stroke-width:10.00"/>
	<line x1="1075.52" y1="748.56" x2="1136.35" y2="724.01" stroke-linecap="round" style="stroke:#D55E00;stroke-width:10.00"/>
	<line x1="467.96" y1="933.35" x2="528.71" y2="852.11" stroke-linecap="round" style="stroke:#CC79A7;stroke-width:10.00"/>
	<line x1="528.71" y1="852.11" x2="589.46" y2="788.90" stroke-linecap="round" style="stroke:#CC79A7;stroke-width:10.00"/>
	<line x1="589.46" y1="788.90" x2="650.21" y2="709.90" stroke-linecap="round" style="stroke:#CC79A7;stroke-width:10.00"/>
	<line x1="650.21" y1="709.90" x2="710.95" y2="740.75" stroke-linecap="round" style="stroke:#CC79A7;stroke-width:10.00"/>
	<line x1="351.09" y1="1904.40" x2="315.70" y2="1904.40" style="stroke:#000000;stroke-width:4.00"/>
	<text x="297.92" y="1921.92" style="font-family:'Helvetica';font-size:49.99px;fill:#000000" text-anchor="end">.2</text>
	<line x1="351.09" y1="1711.88" x2="315.70" y2="1711.88" style="stroke:#000000;stroke-width:4.00"/>
	<text x="297.92" y="1729.39" style="font-family:'Helvetica';font-size:49.99px;fill:#000000" text-anchor="end">.3</text>
	<line x1="351.09" y1="1519.36" x2="315.70" y2="1519.36" style="stroke:#000000;stroke-width:4.00"/>
	<text x="297.92" y="1536.87" style="font-family:'Helvetica';font-size:49.99px;fill:#000000" text-anchor="end">.4</text>
	<line x1="351.09" y1="1326.84" x2="315.70" y2="1326.84" style="stroke:#000000;stroke-width:4.00"/>
	<text x="297.92" y="1344.35" style="font-family:'Helvetica';font-size:49.99px;fill:#000000" text-anchor="end">.5</text>
	<line x1="351.09" y1="1134.40" x2="315.70" y2="1134.40" style="stroke:#000000;stroke-width:4.00"/>
	<text x="297.92" y="1151.91" style="font-family:'Helvetica';font-size:49.99px;fill:#000000" text-anchor="end">.6</text>
	<line x1="351.09" y1="941.88" x2="315.70" y2="941.88" style="stroke:#000000;stroke-width:4.00"/>
	<text x="297.92" y="959.39" style="font-family:'Helvetica';font-size:49.99px;fill:#000000" text-anchor="end">.7</text>
	<line x1="351.09" y1="749.36" x2="315.70" y2="749.36" style="stroke:#000000;stroke-width:4.00"/>
	<text x="297.92" y="766.87" style="font-family:'Helvetica';font-size:49.99px;fill:#000000" text-anchor="end">.8</text>
	<line x1="351.09" y1="556.84" x2="315.70" y2="556.84" style="stroke:#000000;stroke-width:4.00"/>
	<text x="297.92" y="574.35" style="font-family:'Helvetica';font-size:49.99px;fill:#000000" text-anchor="end">.9</text>
	<line x1="351.09" y1="364.31" x2="315.70" y2="364.31" style="stroke:#000000;stroke-width:4.00"/>
	<text x="297.92" y="381.83" style="font-family:'Helvetica';font-size:49.99px;fill:#000000" text-anchor="end">1</text>
	<line x1="351.09" y1="1904.40" x2="351.09" y2="364.31" style="stroke:#000000;stroke-width:4.00"/>
	<text x="136.21" y="1096.13" style="font-family:'Helvetica';font-size:60.03px;fill:#000000" transform="rotate(-90 136.21,1096.13)" text-anchor="middle">Employment</text>
	<line x1="407.22" y1="1960.52" x2="407.22" y2="1995.92" style="stroke:#000000;stroke-width:4.00"/>
	<text x="407.22" y="2048.56" style="font-family:'Helvetica';font-size:49.99px;fill:#000000" text-anchor="middle">0</text>
	<line x1="711.03" y1="1960.52" x2="711.03" y2="1995.92" style="stroke:#000000;stroke-width:4.00"/>
	<text x="711.03" y="2048.56" style="font-family:'Helvetica';font-size:49.99px;fill:#000000" text-anchor="middle">5</text>
	<line x1="1014.85" y1="1960.52" x2="1014.85" y2="1995.92" style="stroke:#000000;stroke-width:4.00"/>
	<text x="1014.85" y="2048.56" style="font-family:'Helvetica';font-size:49.99px;fill:#000000" text-anchor="middle">10</text>
	<line x1="1318.59" y1="1960.52" x2="1318.59" y2="1995.92" style="stroke:#000000;stroke-width:4.00"/>
	<text x="1318.59" y="2048.56" style="font-family:'Helvetica';font-size:49.99px;fill:#000000" text-anchor="middle">15</text>
	<line x1="1622.41" y1="1960.52" x2="1622.41" y2="1995.92" style="stroke:#000000;stroke-width:4.00"/>
	<text x="1622.41" y="2048.56" style="font-family:'Helvetica';font-size:49.99px;fill:#000000" text-anchor="middle">20</text>
	<line x1="1926.22" y1="1960.52" x2="1926.22" y2="1995.92" style="stroke:#000000;stroke-width:4.00"/>
	<text x="1926.22" y="2048.56" style="font-family:'Helvetica';font-size:49.99px;fill:#000000" text-anchor="middle">25</text>
	<line x1="2230.04" y1="1960.52" x2="2230.04" y2="1995.92" style="stroke:#000000;stroke-width:4.00"/>
	<text x="2230.04" y="2048.56" style="font-family:'Helvetica';font-size:49.99px;fill:#000000" text-anchor="middle">30</text>
	<line x1="407.22" y1="1960.52" x2="2290.79" y2="1960.52" style="stroke:#000000;stroke-width:4.00"/>
	<text x="1310.78" y="2190.96" style="font-family:'Helvetica';font-size:60.03px;fill:#000000" text-anchor="middle">Duration of stay</text>
	<text x="161.52" y="2396.65" style="font-family:'Helvetica';font-size:60.03px;fill:#000000">Arr. cohort: </text>
	<text x="610.98" y="2396.65" style="font-family:'Helvetica';font-size:60.03px;fill:#000000">1964-73</text>
	<text x="965.98" y="2396.65" style="font-family:'Helvetica';font-size:60.03px;fill:#000000">1974-83</text>
	<text x="1320.98" y="2396.65" style="font-family:'Helvetica';font-size:60.03px;fill:#000000">1984-93</text>
	<text x="1675.98" y="2396.65" style="font-family:'Helvetica';font-size:60.03px;fill:#000000">1994-03</text>
	<text x="2030.98" y="2396.65" style="font-family:'Helvetica';font-size:60.03px;fill:#000000">2004-10</text>
	<line x1="610.98" y1="2320.61" x2="831.01" y2="2320.61" style="stroke:#E69F00;stroke-width:10.00"/>
	<line x1="965.98" y1="2320.61" x2="1185.93" y2="2320.61" style="stroke:#56B4E9;stroke-width:10.00"/>
	<line x1="1320.98" y1="2320.61" x2="1540.93" y2="2320.61" style="stroke:#009E73;stroke-width:10.00"/>
	<line x1="1675.98" y1="2320.61" x2="1895.93" y2="2320.61" style="stroke:#D55E00;stroke-width:10.00"/>
	<line x1="2030.98" y1="2320.61" x2="2250.93" y2="2320.61" style="stroke:#CC79A7;stroke-width:10.00"/>
	<text x="1349.04" y="239.12" style="font-family:'Helvetica';font-size:60.03px;fill:#000000" text-anchor="middle">Means</text>
	<text x="1349.04" y="154.88" style="font-family:'Helvetica';font-size:90.01px;fill:#000000" text-anchor="middle">Employment, Men</text>
</svg>
