<?xml version="1.0" encoding="UTF-8" standalone="no"?>
<!-- This is a Stata 15.1 generated SVG file (http://www.stata.com) -->

<svg version="1.1" width="3.54in" height="3.54in" viewBox="0 0 2551 2551" xmlns="http://www.w3.org/2000/svg" xmlns:xlink="http://www.w3.org/1999/xlink">
	<desc>Stata Graph - Graph</desc>
	<rect x="0" y="0" width="2551" height="2551" style="fill:#FFFFFF;stroke:none"/>
	<rect x="0.00" y="0.08" width="2551.00" height="2550.92" style="fill:#FFFFFF"/>
	<rect x="2.55" y="2.63" width="2545.90" height="2545.82" style="fill:none;stroke:#FFFFFF;stroke-width:5.10"/>
	<line x1="394.86" y1="1904.40" x2="2346.91" y2="1904.40" style="stroke:#E8E8E8;stroke-width:4.00"/>
	<line x1="394.86" y1="1750.38" x2="2346.91" y2="1750.38" style="stroke:#E8E8E8;stroke-width:4.00"/>
	<line x1="394.86" y1="1596.37" x2="2346.91" y2="1596.37" style="stroke:#E8E8E8;stroke-width:4.00"/>
	<line x1="394.86" y1="1442.35" x2="2346.91" y2="1442.35" style="stroke:#E8E8E8;stroke-width:4.00"/>
	<line x1="394.86" y1="1288.33" x2="2346.91" y2="1288.33" style="stroke:#E8E8E8;stroke-width:4.00"/>
	<line x1="394.86" y1="1134.40" x2="2346.91" y2="1134.40" style="stroke:#E8E8E8;stroke-width:4.00"/>
	<line x1="394.86" y1="980.38" x2="2346.91" y2="980.38" style="stroke:#E8E8E8;stroke-width:4.00"/>
	<line x1="394.86" y1="826.36" x2="2346.91" y2="826.36" style="stroke:#E8E8E8;stroke-width:4.00"/>
	<line x1="394.86" y1="672.35" x2="2346.91" y2="672.35" style="stroke:#E8E8E8;stroke-width:4.00"/>
	<line x1="394.86" y1="518.33" x2="2346.91" y2="518.33" style="stroke:#E8E8E8;stroke-width:4.00"/>
	<line x1="394.86" y1="364.31" x2="2346.91" y2="364.31" style="stroke:#E8E8E8;stroke-width:4.00"/>
	<line x1="450.98" y1="1960.52" x2="450.98" y2="308.19" style="stroke:#E8E8E8;stroke-width:4.00"/>
	<line x1="747.71" y1="1960.52" x2="747.71" y2="308.19" style="stroke:#E8E8E8;stroke-width:4.00"/>
	<line x1="1044.43" y1="1960.52" x2="1044.43" y2="308.19" style="stroke:#E8E8E8;stroke-width:4.00"/>
	<line x1="1341.23" y1="1960.52" x2="1341.23" y2="308.19" style="stroke:#E8E8E8;stroke-width:4.00"/>
	<line x1="1637.95" y1="1960.52" x2="1637.95" y2="308.19" style="stroke:#E8E8E8;stroke-width:4.00"/>
	<line x1="1934.68" y1="1960.52" x2="1934.68" y2="308.19" style="stroke:#E8E8E8;stroke-width:4.00"/>
	<line x1="2231.48" y1="1960.52" x2="2231.48" y2="308.19" style="stroke:#E8E8E8;stroke-width:4.00"/>
	<line x1="1163.13" y1="925.53" x2="1222.45" y2="939.17" stroke-linecap="round" style="stroke:#E69F00;stroke-width:10.00"/>
	<line x1="1222.45" y1="939.17" x2="1281.84" y2="879.14" stroke-linecap="round" style="stroke:#E69F00;stroke-width:10.00"/>
	<line x1="1281.84" y1="879.14" x2="1341.15" y2="978.79" stroke-linecap="round" style="stroke:#E69F00;stroke-width:10.00"/>
	<line x1="1341.15" y1="978.79" x2="1400.54" y2="984.37" stroke-linecap="round" style="stroke:#E69F00;stroke-width:10.00"/>
	<line x1="1400.54" y1="984.37" x2="1459.86" y2="975.92" stroke-linecap="round" style="stroke:#E69F00;stroke-width:10.00"/>
	<line x1="1459.86" y1="975.92" x2="1519.25" y2="957.50" stroke-linecap="round" style="stroke:#E69F00;stroke-width:10.00"/>
	<line x1="1519.25" y1="957.50" x2="1578.56" y2="999.12" stroke-linecap="round" style="stroke:#E69F00;stroke-width:10.00"/>
	<line x1="1578.56" y1="999.12" x2="1637.95" y2="977.67" stroke-linecap="round" style="stroke:#E69F00;stroke-width:10.00"/>
	<line x1="1637.95" y1="977.67" x2="1697.27" y2="960.77" stroke-linecap="round" style="stroke:#E69F00;stroke-width:10.00"/>
	<line x1="1697.27" y1="960.77" x2="1756.58" y2="966.91" stroke-linecap="round" style="stroke:#E69F00;stroke-width:10.00"/>
	<line x1="1756.58" y1="966.91" x2="1815.97" y2="1015.46" stroke-linecap="round" style="stroke:#E69F00;stroke-width:10.00"/>
	<line x1="1815.97" y1="1015.46" x2="1875.28" y2="998.40" stroke-linecap="round" style="stroke:#E69F00;stroke-width:10.00"/>
	<line x1="1875.28" y1="998.40" x2="1934.68" y2="963.24" stroke-linecap="round" style="stroke:#E69F00;stroke-width:10.00"/>
	<line x1="1934.68" y1="963.24" x2="1993.99" y2="998.72" stroke-linecap="round" style="stroke:#E69F00;stroke-width:10.00"/>
	<line x1="1993.99" y1="998.72" x2="2053.38" y2="1018.73" stroke-linecap="round" style="stroke:#E69F00;stroke-width:10.00"/>
	<line x1="2053.38" y1="1018.73" x2="2112.69" y2="1044.08" stroke-linecap="round" style="stroke:#E69F00;stroke-width:10.00"/>
	<line x1="2112.69" y1="1044.08" x2="2172.08" y2="1040.73" stroke-linecap="round" style="stroke:#E69F00;stroke-width:10.00"/>
	<line x1="2172.08" y1="1040.73" x2="2231.40" y2="1025.42" stroke-linecap="round" style="stroke:#E69F00;stroke-width:10.00"/>
	<line x1="569.61" y1="1437.33" x2="629.00" y2="1334.49" stroke-linecap="round" style="stroke:#56B4E9;stroke-width:10.00"/>
	<line x1="629.00" y1="1334.49" x2="688.31" y2="1398.11" stroke-linecap="round" style="stroke:#56B4E9;stroke-width:10.00"/>
	<line x1="688.31" y1="1398.11" x2="747.71" y2="1292.88" stroke-linecap="round" style="stroke:#56B4E9;stroke-width:10.00"/>
	<line x1="747.71" y1="1292.88" x2="807.02" y2="1329.47" stroke-linecap="round" style="stroke:#56B4E9;stroke-width:10.00"/>
	<line x1="807.02" y1="1329.47" x2="866.41" y2="1314.16" stroke-linecap="round" style="stroke:#56B4E9;stroke-width:10.00"/>
	<line x1="866.41" y1="1314.16" x2="925.72" y2="1283.15" stroke-linecap="round" style="stroke:#56B4E9;stroke-width:10.00"/>
	<line x1="925.72" y1="1283.15" x2="985.04" y2="1358.01" stroke-linecap="round" style="stroke:#56B4E9;stroke-width:10.00"/>
	<line x1="985.04" y1="1358.01" x2="1044.43" y2="1298.06" stroke-linecap="round" style="stroke:#56B4E9;stroke-width:10.00"/>
	<line x1="1044.43" y1="1298.06" x2="1103.74" y2="1296.94" stroke-linecap="round" style="stroke:#56B4E9;stroke-width:10.00"/>
	<line x1="1103.74" y1="1296.94" x2="1163.13" y2="1233.09" stroke-linecap="round" style="stroke:#56B4E9;stroke-width:10.00"/>
	<line x1="1163.13" y1="1233.09" x2="1222.45" y2="1219.06" stroke-linecap="round" style="stroke:#56B4E9;stroke-width:10.00"/>
	<line x1="1222.45" y1="1219.06" x2="1281.84" y2="1204.31" stroke-linecap="round" style="stroke:#56B4E9;stroke-width:10.00"/>
	<line x1="1281.84" y1="1204.31" x2="1341.15" y2="1204.07" stroke-linecap="round" style="stroke:#56B4E9;stroke-width:10.00"/>
	<line x1="1341.15" y1="1204.07" x2="1400.54" y2="1140.06" stroke-linecap="round" style="stroke:#56B4E9;stroke-width:10.00"/>
	<line x1="1400.54" y1="1140.06" x2="1459.86" y2="1146.75" stroke-linecap="round" style="stroke:#56B4E9;stroke-width:10.00"/>
	<line x1="1459.86" y1="1146.75" x2="1519.25" y2="1172.26" stroke-linecap="round" style="stroke:#56B4E9;stroke-width:10.00"/>
	<line x1="1519.25" y1="1172.26" x2="1578.56" y2="1151.70" stroke-linecap="round" style="stroke:#56B4E9;stroke-width:10.00"/>
	<line x1="1578.56" y1="1151.70" x2="1637.95" y2="1112.87" stroke-linecap="round" style="stroke:#56B4E9;stroke-width:10.00"/>
	<line x1="1637.95" y1="1112.87" x2="1697.27" y2="1114.23" stroke-linecap="round" style="stroke:#56B4E9;stroke-width:10.00"/>
	<line x1="1697.27" y1="1114.23" x2="1756.58" y2="1099.48" stroke-linecap="round" style="stroke:#56B4E9;stroke-width:10.00"/>
	<line x1="1756.58" y1="1099.48" x2="1815.97" y2="1096.13" stroke-linecap="round" style="stroke:#56B4E9;stroke-width:10.00"/>
	<line x1="1815.97" y1="1096.13" x2="1875.28" y2="1039.69" stroke-linecap="round" style="stroke:#56B4E9;stroke-width:10.00"/>
	<line x1="1875.28" y1="1039.69" x2="1934.68" y2="1053.80" stroke-linecap="round" style="stroke:#56B4E9;stroke-width:10.00"/>
	<line x1="1934.68" y1="1053.80" x2="1993.99" y2="999.51" stroke-linecap="round" style="stroke:#56B4E9;stroke-width:10.00"/>
	<line x1="1993.99" y1="999.51" x2="2053.38" y2="1055.72" stroke-linecap="round" style="stroke:#56B4E9;stroke-width:10.00"/>
	<line x1="2053.38" y1="1055.72" x2="2112.69" y2="1029.73" stroke-linecap="round" style="stroke:#56B4E9;stroke-width:10.00"/>
	<line x1="2112.69" y1="1029.73" x2="2172.08" y2="1057.15" stroke-linecap="round" style="stroke:#56B4E9;stroke-width:10.00"/>
	<line x1="2172.08" y1="1057.15" x2="2231.40" y2="981.90" stroke-linecap="round" style="stroke:#56B4E9;stroke-width:10.00"/>
	<line x1="510.30" y1="1515.29" x2="569.61" y2="1409.99" stroke-linecap="round" style="stroke:#009E73;stroke-width:10.00"/>
	<line x1="569.61" y1="1409.99" x2="629.00" y2="1428.96" stroke-linecap="round" style="stroke:#009E73;stroke-width:10.00"/>
	<line x1="629.00" y1="1428.96" x2="688.31" y2="1362.39" stroke-linecap="round" style="stroke:#009E73;stroke-width:10.00"/>
	<line x1="688.31" y1="1362.39" x2="747.71" y2="1328.51" stroke-linecap="round" style="stroke:#009E73;stroke-width:10.00"/>
	<line x1="747.71" y1="1328.51" x2="807.02" y2="1339.12" stroke-linecap="round" style="stroke:#009E73;stroke-width:10.00"/>
	<line x1="807.02" y1="1339.12" x2="866.41" y2="1289.05" stroke-linecap="round" style="stroke:#009E73;stroke-width:10.00"/>
	<line x1="866.41" y1="1289.05" x2="925.72" y2="1241.94" stroke-linecap="round" style="stroke:#009E73;stroke-width:10.00"/>
	<line x1="925.72" y1="1241.94" x2="985.04" y2="1224.24" stroke-linecap="round" style="stroke:#009E73;stroke-width:10.00"/>
	<line x1="985.04" y1="1224.24" x2="1044.43" y2="1178.56" stroke-linecap="round" style="stroke:#009E73;stroke-width:10.00"/>
	<line x1="1044.43" y1="1178.56" x2="1103.74" y2="1180.48" stroke-linecap="round" style="stroke:#009E73;stroke-width:10.00"/>
	<line x1="1103.74" y1="1180.48" x2="1163.13" y2="1154.73" stroke-linecap="round" style="stroke:#009E73;stroke-width:10.00"/>
	<line x1="1163.13" y1="1154.73" x2="1222.45" y2="1142.45" stroke-linecap="round" style="stroke:#009E73;stroke-width:10.00"/>
	<line x1="1222.45" y1="1142.45" x2="1281.84" y2="1083.94" stroke-linecap="round" style="stroke:#009E73;stroke-width:10.00"/>
	<line x1="1281.84" y1="1083.94" x2="1341.15" y2="1053.80" stroke-linecap="round" style="stroke:#009E73;stroke-width:10.00"/>
	<line x1="1341.15" y1="1053.80" x2="1400.54" y2="1064.64" stroke-linecap="round" style="stroke:#009E73;stroke-width:10.00"/>
	<line x1="1400.54" y1="1064.64" x2="1459.86" y2="1071.34" stroke-linecap="round" style="stroke:#009E73;stroke-width:10.00"/>
	<line x1="1459.86" y1="1071.34" x2="1519.25" y2="1021.91" stroke-linecap="round" style="stroke:#009E73;stroke-width:10.00"/>
	<line x1="1519.25" y1="1021.91" x2="1578.56" y2="960.29" stroke-linecap="round" style="stroke:#009E73;stroke-width:10.00"/>
	<line x1="1578.56" y1="960.29" x2="1637.95" y2="963.32" stroke-linecap="round" style="stroke:#009E73;stroke-width:10.00"/>
	<line x1="1637.95" y1="963.32" x2="1697.27" y2="942.83" stroke-linecap="round" style="stroke:#009E73;stroke-width:10.00"/>
	<line x1="1697.27" y1="942.83" x2="1756.58" y2="961.57" stroke-linecap="round" style="stroke:#009E73;stroke-width:10.00"/>
	<line x1="510.30" y1="1487.39" x2="569.61" y2="1404.72" stroke-linecap="round" style="stroke:#D55E00;stroke-width:10.00"/>
	<line x1="569.61" y1="1404.72" x2="629.00" y2="1359.28" stroke-linecap="round" style="stroke:#D55E00;stroke-width:10.00"/>
	<line x1="629.00" y1="1359.28" x2="688.31" y2="1332.18" stroke-linecap="round" style="stroke:#D55E00;stroke-width:10.00"/>
	<line x1="688.31" y1="1332.18" x2="747.71" y2="1261.63" stroke-linecap="round" style="stroke:#D55E00;stroke-width:10.00"/>
	<line x1="747.71" y1="1261.63" x2="807.02" y2="1211.01" stroke-linecap="round" style="stroke:#D55E00;stroke-width:10.00"/>
	<line x1="807.02" y1="1211.01" x2="866.41" y2="1173.38" stroke-linecap="round" style="stroke:#D55E00;stroke-width:10.00"/>
	<line x1="866.41" y1="1173.38" x2="925.72" y2="1171.07" stroke-linecap="round" style="stroke:#D55E00;stroke-width:10.00"/>
	<line x1="925.72" y1="1171.07" x2="985.04" y2="1140.38" stroke-linecap="round" style="stroke:#D55E00;stroke-width:10.00"/>
	<line x1="985.04" y1="1140.38" x2="1044.43" y2="1100.68" stroke-linecap="round" style="stroke:#D55E00;stroke-width:10.00"/>
	<line x1="1044.43" y1="1100.68" x2="1103.74" y2="1067.75" stroke-linecap="round" style="stroke:#D55E00;stroke-width:10.00"/>
	<line x1="1103.74" y1="1067.75" x2="1163.13" y2="1040.01" stroke-linecap="round" style="stroke:#D55E00;stroke-width:10.00"/>
	<line x1="510.30" y1="1389.34" x2="569.61" y2="1284.91" stroke-linecap="round" style="stroke:#CC79A7;stroke-width:10.00"/>
	<line x1="569.61" y1="1284.91" x2="629.00" y2="1211.72" stroke-linecap="round" style="stroke:#CC79A7;stroke-width:10.00"/>
	<line x1="629.00" y1="1211.72" x2="688.31" y2="1205.03" stroke-linecap="round" style="stroke:#CC79A7;stroke-width:10.00"/>
	<line x1="688.31" y1="1205.03" x2="747.71" y2="1157.04" stroke-linecap="round" style="stroke:#CC79A7;stroke-width:10.00"/>
	<line x1="394.86" y1="1904.40" x2="359.38" y2="1904.40" style="stroke:#000000;stroke-width:4.00"/>
	<text x="341.69" y="1921.92" style="font-family:'Helvetica';font-size:49.99px;fill:#000000" text-anchor="end">0</text>
	<line x1="394.86" y1="1750.38" x2="359.38" y2="1750.38" style="stroke:#000000;stroke-width:4.00"/>
	<text x="341.69" y="1767.90" style="font-family:'Helvetica';font-size:49.99px;fill:#000000" text-anchor="end">10</text>
	<line x1="394.86" y1="1596.37" x2="359.38" y2="1596.37" style="stroke:#000000;stroke-width:4.00"/>
	<text x="341.69" y="1613.88" style="font-family:'Helvetica';font-size:49.99px;fill:#000000" text-anchor="end">20</text>
	<line x1="394.86" y1="1442.35" x2="359.38" y2="1442.35" style="stroke:#000000;stroke-width:4.00"/>
	<text x="341.69" y="1459.87" style="font-family:'Helvetica';font-size:49.99px;fill:#000000" text-anchor="end">30</text>
	<line x1="394.86" y1="1288.33" x2="359.38" y2="1288.33" style="stroke:#000000;stroke-width:4.00"/>
	<text x="341.69" y="1305.85" style="font-family:'Helvetica';font-size:49.99px;fill:#000000" text-anchor="end">40</text>
	<line x1="394.86" y1="1134.40" x2="359.38" y2="1134.40" style="stroke:#000000;stroke-width:4.00"/>
	<text x="341.69" y="1151.91" style="font-family:'Helvetica';font-size:49.99px;fill:#000000" text-anchor="end">50</text>
	<line x1="394.86" y1="980.38" x2="359.38" y2="980.38" style="stroke:#000000;stroke-width:4.00"/>
	<text x="341.69" y="997.90" style="font-family:'Helvetica';font-size:49.99px;fill:#000000" text-anchor="end">60</text>
	<line x1="394.86" y1="826.36" x2="359.38" y2="826.36" style="stroke:#000000;stroke-width:4.00"/>
	<text x="341.69" y="843.88" style="font-family:'Helvetica';font-size:49.99px;fill:#000000" text-anchor="end">70</text>
	<line x1="394.86" y1="672.35" x2="359.38" y2="672.35" style="stroke:#000000;stroke-width:4.00"/>
	<text x="341.69" y="689.86" style="font-family:'Helvetica';font-size:49.99px;fill:#000000" text-anchor="end">80</text>
	<line x1="394.86" y1="518.33" x2="359.38" y2="518.33" style="stroke:#000000;stroke-width:4.00"/>
	<text x="341.69" y="535.85" style="font-family:'Helvetica';font-size:49.99px;fill:#000000" text-anchor="end">90</text>
	<line x1="394.86" y1="364.31" x2="359.38" y2="364.31" style="stroke:#000000;stroke-width:4.00"/>
	<text x="341.69" y="381.83" style="font-family:'Helvetica';font-size:49.99px;fill:#000000" text-anchor="end">100</text>
	<line x1="394.86" y1="1904.40" x2="394.86" y2="364.31" style="stroke:#000000;stroke-width:4.00"/>
	<text x="136.21" y="1096.13" style="font-family:'Helvetica';font-size:60.03px;fill:#000000" transform="rotate(-90 136.21,1096.13)" text-anchor="middle">Employment</text>
	<line x1="450.98" y1="1960.52" x2="450.98" y2="1995.92" style="stroke:#000000;stroke-width:4.00"/>
	<text x="450.98" y="2048.56" style="font-family:'Helvetica';font-size:49.99px;fill:#000000" text-anchor="middle">0</text>
	<line x1="747.71" y1="1960.52" x2="747.71" y2="1995.92" style="stroke:#000000;stroke-width:4.00"/>
	<text x="747.71" y="2048.56" style="font-family:'Helvetica';font-size:49.99px;fill:#000000" text-anchor="middle">5</text>
	<line x1="1044.43" y1="1960.52" x2="1044.43" y2="1995.92" style="stroke:#000000;stroke-width:4.00"/>
	<text x="1044.43" y="2048.56" style="font-family:'Helvetica';font-size:49.99px;fill:#000000" text-anchor="middle">10</text>
	<line x1="1341.23" y1="1960.52" x2="1341.23" y2="1995.92" style="stroke:#000000;stroke-width:4.00"/>
	<text x="1341.23" y="2048.56" style="font-family:'Helvetica';font-size:49.99px;fill:#000000" text-anchor="middle">15</text>
	<line x1="1637.95" y1="1960.52" x2="1637.95" y2="1995.92" style="stroke:#000000;stroke-width:4.00"/>
	<text x="1637.95" y="2048.56" style="font-family:'Helvetica';font-size:49.99px;fill:#000000" text-anchor="middle">20</text>
	<line x1="1934.68" y1="1960.52" x2="1934.68" y2="1995.92" style="stroke:#000000;stroke-width:4.00"/>
	<text x="1934.68" y="2048.56" style="font-family:'Helvetica';font-size:49.99px;fill:#000000" text-anchor="middle">25</text>
	<line x1="2231.48" y1="1960.52" x2="2231.48" y2="1995.92" style="stroke:#000000;stroke-width:4.00"/>
	<text x="2231.48" y="2048.56" style="font-family:'Helvetica';font-size:49.99px;fill:#000000" text-anchor="middle">30</text>
	<line x1="450.98" y1="1960.52" x2="2290.79" y2="1960.52" style="stroke:#000000;stroke-width:4.00"/>
	<text x="1332.62" y="2190.96" style="font-family:'Helvetica';font-size:60.03px;fill:#000000" text-anchor="middle">Duration of stay</text>
	<text x="161.52" y="2396.65" style="font-family:'Helvetica';font-size:60.03px;fill:#000000">Arr. cohort: </text>
	<text x="610.98" y="2396.65" style="font-family:'Helvetica';font-size:60.03px;fill:#000000">1964-73</text>
	<text x="965.98" y="2396.65" style="font-family:'Helvetica';font-size:60.03px;fill:#000000">1974-83</text>
	<text x="1320.98" y="2396.65" style="font-family:'Helvetica';font-size:60.03px;fill:#000000">1984-93</text>
	<text x="1675.98" y="2396.65" style="font-family:'Helvetica';font-size:60.03px;fill:#000000">1994-03</text>
	<text x="2030.98" y="2396.65" style="font-family:'Helvetica';font-size:60.03px;fill:#000000">2004-10</text>
	<line x1="610.98" y1="2320.61" x2="831.01" y2="2320.61" style="stroke:#E69F00;stroke-width:10.00"/>
	<line x1="965.98" y1="2320.61" x2="1185.93" y2="2320.61" style="stroke:#56B4E9;stroke-width:10.00"/>
	<line x1="1320.98" y1="2320.61" x2="1540.93" y2="2320.61" style="stroke:#009E73;stroke-width:10.00"/>
	<line x1="1675.98" y1="2320.61" x2="1895.93" y2="2320.61" style="stroke:#D55E00;stroke-width:10.00"/>
	<line x1="2030.98" y1="2320.61" x2="2250.93" y2="2320.61" style="stroke:#CC79A7;stroke-width:10.00"/>
	<text x="1370.89" y="239.12" style="font-family:'Helvetica';font-size:60.03px;fill:#000000" text-anchor="middle">Percent, age 18-54</text>
	<text x="1370.89" y="154.88" style="font-family:'Helvetica';font-size:90.01px;fill:#000000" text-anchor="middle">Employment, Women</text>
</svg>
