<?xml version="1.0" encoding="UTF-8" standalone="no"?>
<!-- This is a Stata 15.1 generated SVG file (http://www.stata.com) -->

<svg version="1.1" width="3.54in" height="3.54in" viewBox="0 0 2551 2551" xmlns="http://www.w3.org/2000/svg" xmlns:xlink="http://www.w3.org/1999/xlink">
	<desc>Stata Graph - Graph</desc>
	<rect x="0" y="0" width="2551" height="2551" style="fill:#FFFFFF;stroke:none"/>
	<rect x="0.00" y="0.08" width="2551.00" height="2550.92" style="fill:#FFFFFF"/>
	<rect x="2.55" y="2.63" width="2545.90" height="2545.82" style="fill:none;stroke:#FFFFFF;stroke-width:5.10"/>
	<line x1="394.86" y1="1904.40" x2="2346.91" y2="1904.40" style="stroke:#E8E8E8;stroke-width:4.00"/>
	<line x1="394.86" y1="1739.30" x2="2346.91" y2="1739.30" style="stroke:#E8E8E8;stroke-width:4.00"/>
	<line x1="394.86" y1="1574.21" x2="2346.91" y2="1574.21" style="stroke:#E8E8E8;stroke-width:4.00"/>
	<line x1="394.86" y1="1409.11" x2="2346.91" y2="1409.11" style="stroke:#E8E8E8;stroke-width:4.00"/>
	<line x1="394.86" y1="1243.93" x2="2346.91" y2="1243.93" style="stroke:#E8E8E8;stroke-width:4.00"/>
	<line x1="394.86" y1="1078.83" x2="2346.91" y2="1078.83" style="stroke:#E8E8E8;stroke-width:4.00"/>
	<line x1="394.86" y1="913.74" x2="2346.91" y2="913.74" style="stroke:#E8E8E8;stroke-width:4.00"/>
	<line x1="394.86" y1="748.64" x2="2346.91" y2="748.64" style="stroke:#E8E8E8;stroke-width:4.00"/>
	<line x1="394.86" y1="583.54" x2="2346.91" y2="583.54" style="stroke:#E8E8E8;stroke-width:4.00"/>
	<line x1="394.86" y1="418.44" x2="2346.91" y2="418.44" style="stroke:#E8E8E8;stroke-width:4.00"/>
	<line x1="394.86" y1="253.35" x2="2346.91" y2="253.35" style="stroke:#E8E8E8;stroke-width:4.00"/>
	<line x1="450.98" y1="1960.52" x2="450.98" y2="197.22" style="stroke:#E8E8E8;stroke-width:4.00"/>
	<line x1="747.71" y1="1960.52" x2="747.71" y2="197.22" style="stroke:#E8E8E8;stroke-width:4.00"/>
	<line x1="1044.43" y1="1960.52" x2="1044.43" y2="197.22" style="stroke:#E8E8E8;stroke-width:4.00"/>
	<line x1="1341.23" y1="1960.52" x2="1341.23" y2="197.22" style="stroke:#E8E8E8;stroke-width:4.00"/>
	<line x1="1637.95" y1="1960.52" x2="1637.95" y2="197.22" style="stroke:#E8E8E8;stroke-width:4.00"/>
	<line x1="1934.68" y1="1960.52" x2="1934.68" y2="197.22" style="stroke:#E8E8E8;stroke-width:4.00"/>
	<line x1="2231.48" y1="1960.52" x2="2231.48" y2="197.22" style="stroke:#E8E8E8;stroke-width:4.00"/>
	<line x1="1163.13" y1="854.98" x2="1222.45" y2="869.57" stroke-linecap="round" style="stroke:#E69F00;stroke-width:10.00"/>
	<line x1="1222.45" y1="869.57" x2="1281.84" y2="805.24" stroke-linecap="round" style="stroke:#E69F00;stroke-width:10.00"/>
	<line x1="1281.84" y1="805.24" x2="1341.15" y2="912.06" stroke-linecap="round" style="stroke:#E69F00;stroke-width:10.00"/>
	<line x1="1341.15" y1="912.06" x2="1400.54" y2="918.04" stroke-linecap="round" style="stroke:#E69F00;stroke-width:10.00"/>
	<line x1="1400.54" y1="918.04" x2="1459.86" y2="908.95" stroke-linecap="round" style="stroke:#E69F00;stroke-width:10.00"/>
	<line x1="1459.86" y1="908.95" x2="1519.25" y2="889.26" stroke-linecap="round" style="stroke:#E69F00;stroke-width:10.00"/>
	<line x1="1519.25" y1="889.26" x2="1578.56" y2="933.91" stroke-linecap="round" style="stroke:#E69F00;stroke-width:10.00"/>
	<line x1="1578.56" y1="933.91" x2="1637.95" y2="910.87" stroke-linecap="round" style="stroke:#E69F00;stroke-width:10.00"/>
	<line x1="1637.95" y1="910.87" x2="1697.27" y2="892.77" stroke-linecap="round" style="stroke:#E69F00;stroke-width:10.00"/>
	<line x1="1697.27" y1="892.77" x2="1756.58" y2="899.31" stroke-linecap="round" style="stroke:#E69F00;stroke-width:10.00"/>
	<line x1="1756.58" y1="899.31" x2="1815.97" y2="951.44" stroke-linecap="round" style="stroke:#E69F00;stroke-width:10.00"/>
	<line x1="1815.97" y1="951.44" x2="1875.28" y2="933.11" stroke-linecap="round" style="stroke:#E69F00;stroke-width:10.00"/>
	<line x1="1875.28" y1="933.11" x2="1934.68" y2="895.40" stroke-linecap="round" style="stroke:#E69F00;stroke-width:10.00"/>
	<line x1="1934.68" y1="895.40" x2="1993.99" y2="933.43" stroke-linecap="round" style="stroke:#E69F00;stroke-width:10.00"/>
	<line x1="1993.99" y1="933.43" x2="2053.38" y2="954.87" stroke-linecap="round" style="stroke:#E69F00;stroke-width:10.00"/>
	<line x1="2053.38" y1="954.87" x2="2112.69" y2="982.06" stroke-linecap="round" style="stroke:#E69F00;stroke-width:10.00"/>
	<line x1="2112.69" y1="982.06" x2="2172.08" y2="978.47" stroke-linecap="round" style="stroke:#E69F00;stroke-width:10.00"/>
	<line x1="2172.08" y1="978.47" x2="2231.40" y2="962.13" stroke-linecap="round" style="stroke:#E69F00;stroke-width:10.00"/>
	<line x1="569.61" y1="1403.61" x2="629.00" y2="1293.44" stroke-linecap="round" style="stroke:#56B4E9;stroke-width:10.00"/>
	<line x1="629.00" y1="1293.44" x2="688.31" y2="1361.60" stroke-linecap="round" style="stroke:#56B4E9;stroke-width:10.00"/>
	<line x1="688.31" y1="1361.60" x2="747.71" y2="1248.79" stroke-linecap="round" style="stroke:#56B4E9;stroke-width:10.00"/>
	<line x1="747.71" y1="1248.79" x2="807.02" y2="1288.02" stroke-linecap="round" style="stroke:#56B4E9;stroke-width:10.00"/>
	<line x1="807.02" y1="1288.02" x2="866.41" y2="1271.59" stroke-linecap="round" style="stroke:#56B4E9;stroke-width:10.00"/>
	<line x1="866.41" y1="1271.59" x2="925.72" y2="1238.35" stroke-linecap="round" style="stroke:#56B4E9;stroke-width:10.00"/>
	<line x1="925.72" y1="1238.35" x2="985.04" y2="1318.55" stroke-linecap="round" style="stroke:#56B4E9;stroke-width:10.00"/>
	<line x1="985.04" y1="1318.55" x2="1044.43" y2="1254.37" stroke-linecap="round" style="stroke:#56B4E9;stroke-width:10.00"/>
	<line x1="1044.43" y1="1254.37" x2="1103.74" y2="1253.10" stroke-linecap="round" style="stroke:#56B4E9;stroke-width:10.00"/>
	<line x1="1103.74" y1="1253.10" x2="1163.13" y2="1184.62" stroke-linecap="round" style="stroke:#56B4E9;stroke-width:10.00"/>
	<line x1="1163.13" y1="1184.62" x2="1222.45" y2="1169.71" stroke-linecap="round" style="stroke:#56B4E9;stroke-width:10.00"/>
	<line x1="1222.45" y1="1169.71" x2="1281.84" y2="1153.85" stroke-linecap="round" style="stroke:#56B4E9;stroke-width:10.00"/>
	<line x1="1281.84" y1="1153.85" x2="1341.15" y2="1153.53" stroke-linecap="round" style="stroke:#56B4E9;stroke-width:10.00"/>
	<line x1="1341.15" y1="1153.53" x2="1400.54" y2="1084.89" stroke-linecap="round" style="stroke:#56B4E9;stroke-width:10.00"/>
	<line x1="1400.54" y1="1084.89" x2="1459.86" y2="1092.15" stroke-linecap="round" style="stroke:#56B4E9;stroke-width:10.00"/>
	<line x1="1459.86" y1="1092.15" x2="1519.25" y2="1119.49" stroke-linecap="round" style="stroke:#56B4E9;stroke-width:10.00"/>
	<line x1="1519.25" y1="1119.49" x2="1578.56" y2="1097.41" stroke-linecap="round" style="stroke:#56B4E9;stroke-width:10.00"/>
	<line x1="1578.56" y1="1097.41" x2="1637.95" y2="1055.80" stroke-linecap="round" style="stroke:#56B4E9;stroke-width:10.00"/>
	<line x1="1637.95" y1="1055.80" x2="1697.27" y2="1057.31" stroke-linecap="round" style="stroke:#56B4E9;stroke-width:10.00"/>
	<line x1="1697.27" y1="1057.31" x2="1756.58" y2="1041.45" stroke-linecap="round" style="stroke:#56B4E9;stroke-width:10.00"/>
	<line x1="1756.58" y1="1041.45" x2="1815.97" y2="1037.86" stroke-linecap="round" style="stroke:#56B4E9;stroke-width:10.00"/>
	<line x1="1815.97" y1="1037.86" x2="1875.28" y2="977.35" stroke-linecap="round" style="stroke:#56B4E9;stroke-width:10.00"/>
	<line x1="1875.28" y1="977.35" x2="1934.68" y2="992.42" stroke-linecap="round" style="stroke:#56B4E9;stroke-width:10.00"/>
	<line x1="1934.68" y1="992.42" x2="1993.99" y2="934.22" stroke-linecap="round" style="stroke:#56B4E9;stroke-width:10.00"/>
	<line x1="1993.99" y1="934.22" x2="2053.38" y2="994.49" stroke-linecap="round" style="stroke:#56B4E9;stroke-width:10.00"/>
	<line x1="2053.38" y1="994.49" x2="2112.69" y2="966.75" stroke-linecap="round" style="stroke:#56B4E9;stroke-width:10.00"/>
	<line x1="2112.69" y1="966.75" x2="2172.08" y2="996.09" stroke-linecap="round" style="stroke:#56B4E9;stroke-width:10.00"/>
	<line x1="2172.08" y1="996.09" x2="2231.40" y2="915.41" stroke-linecap="round" style="stroke:#56B4E9;stroke-width:10.00"/>
	<line x1="510.30" y1="1487.23" x2="569.61" y2="1374.35" stroke-linecap="round" style="stroke:#009E73;stroke-width:10.00"/>
	<line x1="569.61" y1="1374.35" x2="629.00" y2="1394.68" stroke-linecap="round" style="stroke:#009E73;stroke-width:10.00"/>
	<line x1="629.00" y1="1394.68" x2="688.31" y2="1323.33" stroke-linecap="round" style="stroke:#009E73;stroke-width:10.00"/>
	<line x1="688.31" y1="1323.33" x2="747.71" y2="1286.98" stroke-linecap="round" style="stroke:#009E73;stroke-width:10.00"/>
	<line x1="747.71" y1="1286.98" x2="807.02" y2="1298.38" stroke-linecap="round" style="stroke:#009E73;stroke-width:10.00"/>
	<line x1="807.02" y1="1298.38" x2="866.41" y2="1244.73" stroke-linecap="round" style="stroke:#009E73;stroke-width:10.00"/>
	<line x1="866.41" y1="1244.73" x2="925.72" y2="1194.19" stroke-linecap="round" style="stroke:#009E73;stroke-width:10.00"/>
	<line x1="925.72" y1="1194.19" x2="985.04" y2="1175.21" stroke-linecap="round" style="stroke:#009E73;stroke-width:10.00"/>
	<line x1="985.04" y1="1175.21" x2="1044.43" y2="1126.27" stroke-linecap="round" style="stroke:#009E73;stroke-width:10.00"/>
	<line x1="1044.43" y1="1126.27" x2="1103.74" y2="1128.26" stroke-linecap="round" style="stroke:#009E73;stroke-width:10.00"/>
	<line x1="1103.74" y1="1128.26" x2="1163.13" y2="1100.68" stroke-linecap="round" style="stroke:#009E73;stroke-width:10.00"/>
	<line x1="1163.13" y1="1100.68" x2="1222.45" y2="1087.52" stroke-linecap="round" style="stroke:#009E73;stroke-width:10.00"/>
	<line x1="1222.45" y1="1087.52" x2="1281.84" y2="1024.78" stroke-linecap="round" style="stroke:#009E73;stroke-width:10.00"/>
	<line x1="1281.84" y1="1024.78" x2="1341.15" y2="992.50" stroke-linecap="round" style="stroke:#009E73;stroke-width:10.00"/>
	<line x1="1341.15" y1="992.50" x2="1400.54" y2="1004.14" stroke-linecap="round" style="stroke:#009E73;stroke-width:10.00"/>
	<line x1="1400.54" y1="1004.14" x2="1459.86" y2="1011.31" stroke-linecap="round" style="stroke:#009E73;stroke-width:10.00"/>
	<line x1="1459.86" y1="1011.31" x2="1519.25" y2="958.30" stroke-linecap="round" style="stroke:#009E73;stroke-width:10.00"/>
	<line x1="1519.25" y1="958.30" x2="1578.56" y2="892.21" stroke-linecap="round" style="stroke:#009E73;stroke-width:10.00"/>
	<line x1="1578.56" y1="892.21" x2="1637.95" y2="895.48" stroke-linecap="round" style="stroke:#009E73;stroke-width:10.00"/>
	<line x1="1637.95" y1="895.48" x2="1697.27" y2="873.56" stroke-linecap="round" style="stroke:#009E73;stroke-width:10.00"/>
	<line x1="1697.27" y1="873.56" x2="1756.58" y2="893.57" stroke-linecap="round" style="stroke:#009E73;stroke-width:10.00"/>
	<line x1="510.30" y1="1457.34" x2="569.61" y2="1368.77" stroke-linecap="round" style="stroke:#D55E00;stroke-width:10.00"/>
	<line x1="569.61" y1="1368.77" x2="629.00" y2="1319.98" stroke-linecap="round" style="stroke:#D55E00;stroke-width:10.00"/>
	<line x1="629.00" y1="1319.98" x2="688.31" y2="1290.89" stroke-linecap="round" style="stroke:#D55E00;stroke-width:10.00"/>
	<line x1="688.31" y1="1290.89" x2="747.71" y2="1215.31" stroke-linecap="round" style="stroke:#D55E00;stroke-width:10.00"/>
	<line x1="747.71" y1="1215.31" x2="807.02" y2="1161.02" stroke-linecap="round" style="stroke:#D55E00;stroke-width:10.00"/>
	<line x1="807.02" y1="1161.02" x2="866.41" y2="1120.69" stroke-linecap="round" style="stroke:#D55E00;stroke-width:10.00"/>
	<line x1="866.41" y1="1120.69" x2="925.72" y2="1118.21" stroke-linecap="round" style="stroke:#D55E00;stroke-width:10.00"/>
	<line x1="925.72" y1="1118.21" x2="985.04" y2="1085.29" stroke-linecap="round" style="stroke:#D55E00;stroke-width:10.00"/>
	<line x1="985.04" y1="1085.29" x2="1044.43" y2="1042.80" stroke-linecap="round" style="stroke:#D55E00;stroke-width:10.00"/>
	<line x1="1044.43" y1="1042.80" x2="1103.74" y2="1007.41" stroke-linecap="round" style="stroke:#D55E00;stroke-width:10.00"/>
	<line x1="1103.74" y1="1007.41" x2="1163.13" y2="977.75" stroke-linecap="round" style="stroke:#D55E00;stroke-width:10.00"/>
	<line x1="510.30" y1="1352.19" x2="569.61" y2="1240.26" stroke-linecap="round" style="stroke:#CC79A7;stroke-width:10.00"/>
	<line x1="569.61" y1="1240.26" x2="629.00" y2="1161.82" stroke-linecap="round" style="stroke:#CC79A7;stroke-width:10.00"/>
	<line x1="629.00" y1="1161.82" x2="688.31" y2="1154.57" stroke-linecap="round" style="stroke:#CC79A7;stroke-width:10.00"/>
	<line x1="688.31" y1="1154.57" x2="747.71" y2="1103.15" stroke-linecap="round" style="stroke:#CC79A7;stroke-width:10.00"/>
	<line x1="394.86" y1="1904.40" x2="359.38" y2="1904.40" style="stroke:#000000;stroke-width:4.00"/>
	<text x="341.69" y="1921.92" style="font-family:'Helvetica';font-size:49.99px;fill:#000000" text-anchor="end">0</text>
	<line x1="394.86" y1="1739.30" x2="359.38" y2="1739.30" style="stroke:#000000;stroke-width:4.00"/>
	<text x="341.69" y="1756.82" style="font-family:'Helvetica';font-size:49.99px;fill:#000000" text-anchor="end">10</text>
	<line x1="394.86" y1="1574.21" x2="359.38" y2="1574.21" style="stroke:#000000;stroke-width:4.00"/>
	<text x="341.69" y="1591.72" style="font-family:'Helvetica';font-size:49.99px;fill:#000000" text-anchor="end">20</text>
	<line x1="394.86" y1="1409.11" x2="359.38" y2="1409.11" style="stroke:#000000;stroke-width:4.00"/>
	<text x="341.69" y="1426.62" style="font-family:'Helvetica';font-size:49.99px;fill:#000000" text-anchor="end">30</text>
	<line x1="394.86" y1="1243.93" x2="359.38" y2="1243.93" style="stroke:#000000;stroke-width:4.00"/>
	<text x="341.69" y="1261.45" style="font-family:'Helvetica';font-size:49.99px;fill:#000000" text-anchor="end">40</text>
	<line x1="394.86" y1="1078.83" x2="359.38" y2="1078.83" style="stroke:#000000;stroke-width:4.00"/>
	<text x="341.69" y="1096.35" style="font-family:'Helvetica';font-size:49.99px;fill:#000000" text-anchor="end">50</text>
	<line x1="394.86" y1="913.74" x2="359.38" y2="913.74" style="stroke:#000000;stroke-width:4.00"/>
	<text x="341.69" y="931.25" style="font-family:'Helvetica';font-size:49.99px;fill:#000000" text-anchor="end">60</text>
	<line x1="394.86" y1="748.64" x2="359.38" y2="748.64" style="stroke:#000000;stroke-width:4.00"/>
	<text x="341.69" y="766.15" style="font-family:'Helvetica';font-size:49.99px;fill:#000000" text-anchor="end">70</text>
	<line x1="394.86" y1="583.54" x2="359.38" y2="583.54" style="stroke:#000000;stroke-width:4.00"/>
	<text x="341.69" y="601.06" style="font-family:'Helvetica';font-size:49.99px;fill:#000000" text-anchor="end">80</text>
	<line x1="394.86" y1="418.44" x2="359.38" y2="418.44" style="stroke:#000000;stroke-width:4.00"/>
	<text x="341.69" y="435.96" style="font-family:'Helvetica';font-size:49.99px;fill:#000000" text-anchor="end">90</text>
	<line x1="394.86" y1="253.35" x2="359.38" y2="253.35" style="stroke:#000000;stroke-width:4.00"/>
	<text x="341.69" y="270.86" style="font-family:'Helvetica';font-size:49.99px;fill:#000000" text-anchor="end">100</text>
	<line x1="394.86" y1="1904.40" x2="394.86" y2="253.35" style="stroke:#000000;stroke-width:4.00"/>
	<text x="136.21" y="1040.57" style="font-family:'Helvetica';font-size:60.03px;fill:#000000" transform="rotate(-90 136.21,1040.57)" text-anchor="middle">Employment rate (in %)</text>
	<line x1="450.98" y1="1960.52" x2="450.98" y2="1995.92" style="stroke:#000000;stroke-width:4.00"/>
	<text x="450.98" y="2048.56" style="font-family:'Helvetica';font-size:49.99px;fill:#000000" text-anchor="middle">0</text>
	<line x1="747.71" y1="1960.52" x2="747.71" y2="1995.92" style="stroke:#000000;stroke-width:4.00"/>
	<text x="747.71" y="2048.56" style="font-family:'Helvetica';font-size:49.99px;fill:#000000" text-anchor="middle">5</text>
	<line x1="1044.43" y1="1960.52" x2="1044.43" y2="1995.92" style="stroke:#000000;stroke-width:4.00"/>
	<text x="1044.43" y="2048.56" style="font-family:'Helvetica';font-size:49.99px;fill:#000000" text-anchor="middle">10</text>
	<line x1="1341.23" y1="1960.52" x2="1341.23" y2="1995.92" style="stroke:#000000;stroke-width:4.00"/>
	<text x="1341.23" y="2048.56" style="font-family:'Helvetica';font-size:49.99px;fill:#000000" text-anchor="middle">15</text>
	<line x1="1637.95" y1="1960.52" x2="1637.95" y2="1995.92" style="stroke:#000000;stroke-width:4.00"/>
	<text x="1637.95" y="2048.56" style="font-family:'Helvetica';font-size:49.99px;fill:#000000" text-anchor="middle">20</text>
	<line x1="1934.68" y1="1960.52" x2="1934.68" y2="1995.92" style="stroke:#000000;stroke-width:4.00"/>
	<text x="1934.68" y="2048.56" style="font-family:'Helvetica';font-size:49.99px;fill:#000000" text-anchor="middle">25</text>
	<line x1="2231.48" y1="1960.52" x2="2231.48" y2="1995.92" style="stroke:#000000;stroke-width:4.00"/>
	<text x="2231.48" y="2048.56" style="font-family:'Helvetica';font-size:49.99px;fill:#000000" text-anchor="middle">30</text>
	<line x1="450.98" y1="1960.52" x2="2290.79" y2="1960.52" style="stroke:#000000;stroke-width:4.00"/>
	<text x="1332.62" y="2190.96" style="font-family:'Helvetica';font-size:60.03px;fill:#000000" text-anchor="middle">Duration of stay</text>
	<text x="161.52" y="2396.65" style="font-family:'Helvetica';font-size:60.03px;fill:#000000">Arr. cohort: </text>
	<text x="610.98" y="2396.65" style="font-family:'Helvetica';font-size:60.03px;fill:#000000">1964-73</text>
	<text x="965.98" y="2396.65" style="font-family:'Helvetica';font-size:60.03px;fill:#000000">1974-83</text>
	<text x="1320.98" y="2396.65" style="font-family:'Helvetica';font-size:60.03px;fill:#000000">1984-93</text>
	<text x="1675.98" y="2396.65" style="font-family:'Helvetica';font-size:60.03px;fill:#000000">1994-03</text>
	<text x="2030.98" y="2396.65" style="font-family:'Helvetica';font-size:60.03px;fill:#000000">2004-10</text>
	<line x1="610.98" y1="2320.61" x2="831.01" y2="2320.61" style="stroke:#E69F00;stroke-width:10.00"/>
	<line x1="965.98" y1="2320.61" x2="1185.93" y2="2320.61" style="stroke:#56B4E9;stroke-width:10.00"/>
	<line x1="1320.98" y1="2320.61" x2="1540.93" y2="2320.61" style="stroke:#009E73;stroke-width:10.00"/>
	<line x1="1675.98" y1="2320.61" x2="1895.93" y2="2320.61" style="stroke:#D55E00;stroke-width:10.00"/>
	<line x1="2030.98" y1="2320.61" x2="2250.93" y2="2320.61" style="stroke:#CC79A7;stroke-width:10.00"/>
	<text x="1370.89" y="154.88" style="font-family:'Helvetica';font-size:90.01px;fill:#000000" text-anchor="middle">Women</text>
</svg>
