<?xml version="1.0" encoding="UTF-8" standalone="no"?>
<!-- This is a Stata 15.1 generated SVG file (http://www.stata.com) -->

<svg version="1.1" width="3.54in" height="3.54in" viewBox="0 0 2551 2551" xmlns="http://www.w3.org/2000/svg" xmlns:xlink="http://www.w3.org/1999/xlink">
	<desc>Stata Graph - Graph</desc>
	<rect x="0" y="0" width="2551" height="2551" style="fill:#FFFFFF;stroke:none"/>
	<rect x="0.00" y="0.08" width="2551.00" height="2550.92" style="fill:#FFFFFF"/>
	<rect x="2.55" y="2.63" width="2545.90" height="2545.82" style="fill:none;stroke:#FFFFFF;stroke-width:5.10"/>
	<line x1="394.86" y1="1865.82" x2="2346.91" y2="1865.82" style="stroke:#E8E8E8;stroke-width:4.00"/>
	<line x1="394.86" y1="1704.55" x2="2346.91" y2="1704.55" style="stroke:#E8E8E8;stroke-width:4.00"/>
	<line x1="394.86" y1="1543.28" x2="2346.91" y2="1543.28" style="stroke:#E8E8E8;stroke-width:4.00"/>
	<line x1="394.86" y1="1382.08" x2="2346.91" y2="1382.08" style="stroke:#E8E8E8;stroke-width:4.00"/>
	<line x1="394.86" y1="1220.81" x2="2346.91" y2="1220.81" style="stroke:#E8E8E8;stroke-width:4.00"/>
	<line x1="394.86" y1="1059.54" x2="2346.91" y2="1059.54" style="stroke:#E8E8E8;stroke-width:4.00"/>
	<line x1="394.86" y1="898.35" x2="2346.91" y2="898.35" style="stroke:#E8E8E8;stroke-width:4.00"/>
	<line x1="394.86" y1="737.08" x2="2346.91" y2="737.08" style="stroke:#E8E8E8;stroke-width:4.00"/>
	<line x1="394.86" y1="575.81" x2="2346.91" y2="575.81" style="stroke:#E8E8E8;stroke-width:4.00"/>
	<line x1="394.86" y1="414.54" x2="2346.91" y2="414.54" style="stroke:#E8E8E8;stroke-width:4.00"/>
	<line x1="394.86" y1="253.35" x2="2346.91" y2="253.35" style="stroke:#E8E8E8;stroke-width:4.00"/>
	<line x1="450.98" y1="1921.94" x2="450.98" y2="197.22" style="stroke:#E8E8E8;stroke-width:4.00"/>
	<line x1="639.68" y1="1921.94" x2="639.68" y2="197.22" style="stroke:#E8E8E8;stroke-width:4.00"/>
	<line x1="875.58" y1="1921.94" x2="875.58" y2="197.22" style="stroke:#E8E8E8;stroke-width:4.00"/>
	<line x1="1111.39" y1="1921.94" x2="1111.39" y2="197.22" style="stroke:#E8E8E8;stroke-width:4.00"/>
	<line x1="1347.29" y1="1921.94" x2="1347.29" y2="197.22" style="stroke:#E8E8E8;stroke-width:4.00"/>
	<line x1="1583.18" y1="1921.94" x2="1583.18" y2="197.22" style="stroke:#E8E8E8;stroke-width:4.00"/>
	<line x1="1819.08" y1="1921.94" x2="1819.08" y2="197.22" style="stroke:#E8E8E8;stroke-width:4.00"/>
	<line x1="2054.89" y1="1921.94" x2="2054.89" y2="197.22" style="stroke:#E8E8E8;stroke-width:4.00"/>
	<line x1="2290.79" y1="1921.94" x2="2290.79" y2="197.22" style="stroke:#E8E8E8;stroke-width:4.00"/>
	<line x1="450.90" y1="352.12" x2="545.29" y2="334.74" stroke-linecap="round" style="stroke:#E69F00;stroke-width:10.00"/>
	<line x1="545.29" y1="334.74" x2="639.60" y2="316.80" stroke-linecap="round" style="stroke:#E69F00;stroke-width:10.00"/>
	<line x1="639.60" y1="316.80" x2="733.99" y2="398.75" stroke-linecap="round" style="stroke:#E69F00;stroke-width:10.00"/>
	<line x1="733.99" y1="398.75" x2="875.50" y2="420.91" stroke-linecap="round" style="stroke:#E69F00;stroke-width:10.00"/>
	<line x1="875.50" y1="420.91" x2="969.89" y2="428.57" stroke-linecap="round" style="stroke:#E69F00;stroke-width:10.00"/>
	<line x1="969.89" y1="428.57" x2="1064.20" y2="411.67" stroke-linecap="round" style="stroke:#E69F00;stroke-width:10.00"/>
	<line x1="1064.20" y1="411.67" x2="1158.59" y2="415.81" stroke-linecap="round" style="stroke:#E69F00;stroke-width:10.00"/>
	<line x1="1158.59" y1="415.81" x2="1252.90" y2="482.30" stroke-linecap="round" style="stroke:#E69F00;stroke-width:10.00"/>
	<line x1="1252.90" y1="482.30" x2="1347.29" y2="591.91" stroke-linecap="round" style="stroke:#E69F00;stroke-width:10.00"/>
	<line x1="1347.29" y1="591.91" x2="1394.40" y2="631.13" stroke-linecap="round" style="stroke:#E69F00;stroke-width:10.00"/>
	<line x1="1394.40" y1="631.13" x2="1441.60" y2="623.64" stroke-linecap="round" style="stroke:#E69F00;stroke-width:10.00"/>
	<line x1="1441.60" y1="623.64" x2="1488.79" y2="641.10" stroke-linecap="round" style="stroke:#E69F00;stroke-width:10.00"/>
	<line x1="1488.79" y1="641.10" x2="1535.99" y2="633.84" stroke-linecap="round" style="stroke:#E69F00;stroke-width:10.00"/>
	<line x1="1535.99" y1="633.84" x2="1583.10" y2="636.71" stroke-linecap="round" style="stroke:#E69F00;stroke-width:10.00"/>
	<line x1="1583.10" y1="636.71" x2="1630.30" y2="635.20" stroke-linecap="round" style="stroke:#E69F00;stroke-width:10.00"/>
	<line x1="1630.30" y1="635.20" x2="1677.49" y2="648.35" stroke-linecap="round" style="stroke:#E69F00;stroke-width:10.00"/>
	<line x1="1677.49" y1="648.35" x2="1724.69" y2="668.68" stroke-linecap="round" style="stroke:#E69F00;stroke-width:10.00"/>
	<line x1="875.50" y1="631.69" x2="969.89" y2="570.87" stroke-linecap="round" style="stroke:#56B4E9;stroke-width:10.00"/>
	<line x1="969.89" y1="570.87" x2="1064.20" y2="531.64" stroke-linecap="round" style="stroke:#56B4E9;stroke-width:10.00"/>
	<line x1="1064.20" y1="531.64" x2="1158.59" y2="451.21" stroke-linecap="round" style="stroke:#56B4E9;stroke-width:10.00"/>
	<line x1="1158.59" y1="451.21" x2="1252.90" y2="535.87" stroke-linecap="round" style="stroke:#56B4E9;stroke-width:10.00"/>
	<line x1="1252.90" y1="535.87" x2="1347.29" y2="530.13" stroke-linecap="round" style="stroke:#56B4E9;stroke-width:10.00"/>
	<line x1="1347.29" y1="530.13" x2="1394.40" y2="543.68" stroke-linecap="round" style="stroke:#56B4E9;stroke-width:10.00"/>
	<line x1="1394.40" y1="543.68" x2="1441.60" y2="551.10" stroke-linecap="round" style="stroke:#56B4E9;stroke-width:10.00"/>
	<line x1="1441.60" y1="551.10" x2="1488.79" y2="531.09" stroke-linecap="round" style="stroke:#56B4E9;stroke-width:10.00"/>
	<line x1="1488.79" y1="531.09" x2="1535.99" y2="601.16" stroke-linecap="round" style="stroke:#56B4E9;stroke-width:10.00"/>
	<line x1="1535.99" y1="601.16" x2="1583.10" y2="536.51" stroke-linecap="round" style="stroke:#56B4E9;stroke-width:10.00"/>
	<line x1="1583.10" y1="536.51" x2="1630.30" y2="527.50" stroke-linecap="round" style="stroke:#56B4E9;stroke-width:10.00"/>
	<line x1="1630.30" y1="527.50" x2="1677.49" y2="566.16" stroke-linecap="round" style="stroke:#56B4E9;stroke-width:10.00"/>
	<line x1="1677.49" y1="566.16" x2="1724.69" y2="594.22" stroke-linecap="round" style="stroke:#56B4E9;stroke-width:10.00"/>
	<line x1="1724.69" y1="594.22" x2="1771.80" y2="644.84" stroke-linecap="round" style="stroke:#56B4E9;stroke-width:10.00"/>
	<line x1="1771.80" y1="644.84" x2="1819.00" y2="622.36" stroke-linecap="round" style="stroke:#56B4E9;stroke-width:10.00"/>
	<line x1="1819.00" y1="622.36" x2="1866.19" y2="619.49" stroke-linecap="round" style="stroke:#56B4E9;stroke-width:10.00"/>
	<line x1="1866.19" y1="619.49" x2="1913.39" y2="599.17" stroke-linecap="round" style="stroke:#56B4E9;stroke-width:10.00"/>
	<line x1="1913.39" y1="599.17" x2="1960.50" y2="643.57" stroke-linecap="round" style="stroke:#56B4E9;stroke-width:10.00"/>
	<line x1="1960.50" y1="643.57" x2="2007.70" y2="624.84" stroke-linecap="round" style="stroke:#56B4E9;stroke-width:10.00"/>
	<line x1="2007.70" y1="624.84" x2="2054.89" y2="639.50" stroke-linecap="round" style="stroke:#56B4E9;stroke-width:10.00"/>
	<line x1="2054.89" y1="639.50" x2="2102.09" y2="611.52" stroke-linecap="round" style="stroke:#56B4E9;stroke-width:10.00"/>
	<line x1="2102.09" y1="611.52" x2="2149.20" y2="656.48" stroke-linecap="round" style="stroke:#56B4E9;stroke-width:10.00"/>
	<line x1="2149.20" y1="656.48" x2="2196.40" y2="658.24" stroke-linecap="round" style="stroke:#56B4E9;stroke-width:10.00"/>
	<line x1="1347.29" y1="716.19" x2="1394.40" y2="743.54" stroke-linecap="round" style="stroke:#009E73;stroke-width:10.00"/>
	<line x1="1394.40" y1="743.54" x2="1441.60" y2="743.14" stroke-linecap="round" style="stroke:#009E73;stroke-width:10.00"/>
	<line x1="1441.60" y1="743.14" x2="1488.79" y2="673.78" stroke-linecap="round" style="stroke:#009E73;stroke-width:10.00"/>
	<line x1="1488.79" y1="673.78" x2="1535.99" y2="627.31" stroke-linecap="round" style="stroke:#009E73;stroke-width:10.00"/>
	<line x1="1535.99" y1="627.31" x2="1583.10" y2="557.95" stroke-linecap="round" style="stroke:#009E73;stroke-width:10.00"/>
	<line x1="1583.10" y1="557.95" x2="1630.30" y2="550.70" stroke-linecap="round" style="stroke:#009E73;stroke-width:10.00"/>
	<line x1="1630.30" y1="550.70" x2="1677.49" y2="579.79" stroke-linecap="round" style="stroke:#009E73;stroke-width:10.00"/>
	<line x1="1677.49" y1="579.79" x2="1724.69" y2="612.72" stroke-linecap="round" style="stroke:#009E73;stroke-width:10.00"/>
	<line x1="1724.69" y1="612.72" x2="1771.80" y2="650.51" stroke-linecap="round" style="stroke:#009E73;stroke-width:10.00"/>
	<line x1="1771.80" y1="650.51" x2="1819.00" y2="649.31" stroke-linecap="round" style="stroke:#009E73;stroke-width:10.00"/>
	<line x1="1819.00" y1="649.31" x2="1866.19" y2="617.82" stroke-linecap="round" style="stroke:#009E73;stroke-width:10.00"/>
	<line x1="1866.19" y1="617.82" x2="1913.39" y2="609.93" stroke-linecap="round" style="stroke:#009E73;stroke-width:10.00"/>
	<line x1="1913.39" y1="609.93" x2="1960.50" y2="585.14" stroke-linecap="round" style="stroke:#009E73;stroke-width:10.00"/>
	<line x1="1960.50" y1="585.14" x2="2007.70" y2="582.98" stroke-linecap="round" style="stroke:#009E73;stroke-width:10.00"/>
	<line x1="2007.70" y1="582.98" x2="2054.89" y2="579.71" stroke-linecap="round" style="stroke:#009E73;stroke-width:10.00"/>
	<line x1="2054.89" y1="579.71" x2="2102.09" y2="556.28" stroke-linecap="round" style="stroke:#009E73;stroke-width:10.00"/>
	<line x1="2102.09" y1="556.28" x2="2149.20" y2="570.23" stroke-linecap="round" style="stroke:#009E73;stroke-width:10.00"/>
	<line x1="2149.20" y1="570.23" x2="2196.40" y2="554.60" stroke-linecap="round" style="stroke:#009E73;stroke-width:10.00"/>
	<line x1="2196.40" y1="554.60" x2="2243.59" y2="566.48" stroke-linecap="round" style="stroke:#009E73;stroke-width:10.00"/>
	<line x1="2243.59" y1="566.48" x2="2290.79" y2="572.70" stroke-linecap="round" style="stroke:#009E73;stroke-width:10.00"/>
	<line x1="1771.80" y1="780.85" x2="1819.00" y2="751.99" stroke-linecap="round" style="stroke:#D55E00;stroke-width:10.00"/>
	<line x1="1819.00" y1="751.99" x2="1866.19" y2="725.36" stroke-linecap="round" style="stroke:#D55E00;stroke-width:10.00"/>
	<line x1="1866.19" y1="725.36" x2="1913.39" y2="669.00" stroke-linecap="round" style="stroke:#D55E00;stroke-width:10.00"/>
	<line x1="1913.39" y1="669.00" x2="1960.50" y2="628.18" stroke-linecap="round" style="stroke:#D55E00;stroke-width:10.00"/>
	<line x1="1960.50" y1="628.18" x2="2007.70" y2="618.78" stroke-linecap="round" style="stroke:#D55E00;stroke-width:10.00"/>
	<line x1="2007.70" y1="618.78" x2="2054.89" y2="612.00" stroke-linecap="round" style="stroke:#D55E00;stroke-width:10.00"/>
	<line x1="2054.89" y1="612.00" x2="2102.09" y2="534.43" stroke-linecap="round" style="stroke:#D55E00;stroke-width:10.00"/>
	<line x1="2102.09" y1="534.43" x2="2149.20" y2="499.36" stroke-linecap="round" style="stroke:#D55E00;stroke-width:10.00"/>
	<line x1="2149.20" y1="499.36" x2="2196.40" y2="521.20" stroke-linecap="round" style="stroke:#D55E00;stroke-width:10.00"/>
	<line x1="2196.40" y1="521.20" x2="2243.59" y2="533.88" stroke-linecap="round" style="stroke:#D55E00;stroke-width:10.00"/>
	<line x1="2243.59" y1="533.88" x2="2290.79" y2="484.53" stroke-linecap="round" style="stroke:#D55E00;stroke-width:10.00"/>
	<line x1="2102.09" y1="554.44" x2="2149.20" y2="527.26" stroke-linecap="round" style="stroke:#CC79A7;stroke-width:10.00"/>
	<line x1="2149.20" y1="527.26" x2="2196.40" y2="559.07" stroke-linecap="round" style="stroke:#CC79A7;stroke-width:10.00"/>
	<line x1="2196.40" y1="559.07" x2="2243.59" y2="539.54" stroke-linecap="round" style="stroke:#CC79A7;stroke-width:10.00"/>
	<line x1="2243.59" y1="539.54" x2="2290.79" y2="516.42" stroke-linecap="round" style="stroke:#CC79A7;stroke-width:10.00"/>
	<line x1="450.90" y1="343.19" x2="501.85" y2="340.80" style="stroke:#A0A0A0;stroke-width:10.00"/>
	<line x1="527.36" y1="339.52" x2="545.29" y2="338.72" style="stroke:#A0A0A0;stroke-width:10.00"/>
	<line x1="545.29" y1="338.72" x2="578.30" y2="337.53" style="stroke:#A0A0A0;stroke-width:10.00"/>
	<line x1="603.81" y1="336.65" x2="639.60" y2="335.38" style="stroke:#A0A0A0;stroke-width:10.00"/>
	<line x1="639.60" y1="335.38" x2="654.03" y2="340.16" style="stroke:#A0A0A0;stroke-width:10.00"/>
	<line x1="678.27" y1="348.29" x2="726.66" y2="364.39" style="stroke:#A0A0A0;stroke-width:10.00"/>
	<line x1="751.21" y1="371.09" x2="800.80" y2="383.29" style="stroke:#A0A0A0;stroke-width:10.00"/>
	<line x1="825.51" y1="389.43" x2="875.02" y2="401.62" style="stroke:#A0A0A0;stroke-width:10.00"/>
	<line x1="900.21" y1="405.93" x2="950.52" y2="414.54" style="stroke:#A0A0A0;stroke-width:10.00"/>
	<line x1="975.71" y1="417.01" x2="1026.25" y2="410.15" style="stroke:#A0A0A0;stroke-width:10.00"/>
	<line x1="1051.52" y1="406.73" x2="1064.20" y2="404.97" style="stroke:#A0A0A0;stroke-width:10.00"/>
	<line x1="1064.20" y1="404.97" x2="1101.83" y2="398.12" style="stroke:#A0A0A0;stroke-width:10.00"/>
	<line x1="1126.86" y1="393.57" x2="1158.59" y2="387.83" style="stroke:#A0A0A0;stroke-width:10.00"/>
	<line x1="1158.59" y1="387.83" x2="1176.77" y2="392.54" style="stroke:#A0A0A0;stroke-width:10.00"/>
	<line x1="1201.48" y1="398.91" x2="1250.91" y2="411.75" style="stroke:#A0A0A0;stroke-width:10.00"/>
	<line x1="1276.10" y1="415.25" x2="1326.72" y2="421.71" style="stroke:#A0A0A0;stroke-width:10.00"/>
	<line x1="1351.99" y1="425.38" x2="1394.40" y2="434.39" style="stroke:#A0A0A0;stroke-width:10.00"/>
	<line x1="1394.40" y1="434.39" x2="1401.98" y2="435.18" style="stroke:#A0A0A0;stroke-width:10.00"/>
	<line x1="1427.33" y1="437.90" x2="1441.60" y2="439.41" style="stroke:#A0A0A0;stroke-width:10.00"/>
	<line x1="1441.60" y1="439.41" x2="1477.55" y2="432.39" style="stroke:#A0A0A0;stroke-width:10.00"/>
	<line x1="1502.59" y1="427.45" x2="1535.99" y2="420.76" style="stroke:#A0A0A0;stroke-width:10.00"/>
	<line x1="1535.99" y1="420.76" x2="1552.65" y2="417.33" style="stroke:#A0A0A0;stroke-width:10.00"/>
	<line x1="1577.60" y1="412.07" x2="1583.10" y2="410.95" style="stroke:#A0A0A0;stroke-width:10.00"/>
	<line x1="1583.10" y1="410.95" x2="1628.31" y2="414.94" style="stroke:#A0A0A0;stroke-width:10.00"/>
	<line x1="1652.22" y1="423.55" x2="1677.49" y2="433.35" style="stroke:#A0A0A0;stroke-width:10.00"/>
	<line x1="1677.49" y1="433.35" x2="1700.21" y2="441.00" style="stroke:#A0A0A0;stroke-width:10.00"/>
	<line x1="1724.37" y1="449.14" x2="1724.69" y2="449.29" style="stroke:#A0A0A0;stroke-width:10.00"/>
	<line x1="1724.69" y1="449.29" x2="1771.80" y2="464.44" style="stroke:#A0A0A0;stroke-width:10.00"/>
	<line x1="1771.80" y1="464.44" x2="1773.00" y2="464.36" style="stroke:#A0A0A0;stroke-width:10.00"/>
	<line x1="1798.43" y1="462.45" x2="1819.00" y2="460.93" style="stroke:#A0A0A0;stroke-width:10.00"/>
	<line x1="1819.00" y1="460.93" x2="1848.26" y2="452.80" style="stroke:#A0A0A0;stroke-width:10.00"/>
	<line x1="1872.49" y1="445.07" x2="1913.39" y2="427.21" style="stroke:#A0A0A0;stroke-width:10.00"/>
	<line x1="1913.39" y1="427.21" x2="1919.77" y2="426.26" style="stroke:#A0A0A0;stroke-width:10.00"/>
	<line x1="1944.96" y1="422.59" x2="1960.50" y2="420.36" style="stroke:#A0A0A0;stroke-width:10.00"/>
	<line x1="1960.50" y1="420.36" x2="1994.23" y2="430.96" style="stroke:#A0A0A0;stroke-width:10.00"/>
	<line x1="2019.10" y1="434.87" x2="2054.89" y2="434.07" style="stroke:#A0A0A0;stroke-width:10.00"/>
	<line x1="2054.89" y1="434.07" x2="2069.48" y2="429.60" style="stroke:#A0A0A0;stroke-width:10.00"/>
	<line x1="2093.88" y1="422.19" x2="2102.09" y2="419.72" style="stroke:#A0A0A0;stroke-width:10.00"/>
	<line x1="2102.09" y1="419.72" x2="2144.10" y2="413.42" style="stroke:#A0A0A0;stroke-width:10.00"/>
	<line x1="2169.37" y1="415.25" x2="2196.40" y2="418.68" style="stroke:#A0A0A0;stroke-width:10.00"/>
	<line x1="2196.40" y1="418.68" x2="2220.16" y2="419.64" style="stroke:#A0A0A0;stroke-width:10.00"/>
	<line x1="2245.67" y1="420.36" x2="2290.79" y2="415.65" style="stroke:#A0A0A0;stroke-width:10.00"/>
	<line x1="394.86" y1="1865.82" x2="359.38" y2="1865.82" style="stroke:#000000;stroke-width:4.00"/>
	<text x="341.69" y="1883.33" style="font-family:'Helvetica';font-size:49.99px;fill:#000000" text-anchor="end">0</text>
	<line x1="394.86" y1="1704.55" x2="359.38" y2="1704.55" style="stroke:#000000;stroke-width:4.00"/>
	<text x="341.69" y="1722.06" style="font-family:'Helvetica';font-size:49.99px;fill:#000000" text-anchor="end">10</text>
	<line x1="394.86" y1="1543.28" x2="359.38" y2="1543.28" style="stroke:#000000;stroke-width:4.00"/>
	<text x="341.69" y="1560.79" style="font-family:'Helvetica';font-size:49.99px;fill:#000000" text-anchor="end">20</text>
	<line x1="394.86" y1="1382.08" x2="359.38" y2="1382.08" style="stroke:#000000;stroke-width:4.00"/>
	<text x="341.69" y="1399.60" style="font-family:'Helvetica';font-size:49.99px;fill:#000000" text-anchor="end">30</text>
	<line x1="394.86" y1="1220.81" x2="359.38" y2="1220.81" style="stroke:#000000;stroke-width:4.00"/>
	<text x="341.69" y="1238.33" style="font-family:'Helvetica';font-size:49.99px;fill:#000000" text-anchor="end">40</text>
	<line x1="394.86" y1="1059.54" x2="359.38" y2="1059.54" style="stroke:#000000;stroke-width:4.00"/>
	<text x="341.69" y="1077.06" style="font-family:'Helvetica';font-size:49.99px;fill:#000000" text-anchor="end">50</text>
	<line x1="394.86" y1="898.35" x2="359.38" y2="898.35" style="stroke:#000000;stroke-width:4.00"/>
	<text x="341.69" y="915.86" style="font-family:'Helvetica';font-size:49.99px;fill:#000000" text-anchor="end">60</text>
	<line x1="394.86" y1="737.08" x2="359.38" y2="737.08" style="stroke:#000000;stroke-width:4.00"/>
	<text x="341.69" y="754.59" style="font-family:'Helvetica';font-size:49.99px;fill:#000000" text-anchor="end">70</text>
	<line x1="394.86" y1="575.81" x2="359.38" y2="575.81" style="stroke:#000000;stroke-width:4.00"/>
	<text x="341.69" y="593.32" style="font-family:'Helvetica';font-size:49.99px;fill:#000000" text-anchor="end">80</text>
	<line x1="394.86" y1="414.54" x2="359.38" y2="414.54" style="stroke:#000000;stroke-width:4.00"/>
	<text x="341.69" y="432.05" style="font-family:'Helvetica';font-size:49.99px;fill:#000000" text-anchor="end">90</text>
	<line x1="394.86" y1="253.35" x2="359.38" y2="253.35" style="stroke:#000000;stroke-width:4.00"/>
	<text x="341.69" y="270.86" style="font-family:'Helvetica';font-size:49.99px;fill:#000000" text-anchor="end">100</text>
	<line x1="394.86" y1="1865.82" x2="394.86" y2="253.35" style="stroke:#000000;stroke-width:4.00"/>
	<text x="136.21" y="1021.28" style="font-family:'Helvetica';font-size:60.03px;fill:#000000" transform="rotate(-90 136.21,1021.28)" text-anchor="middle">Employment rate (in %)</text>
	<line x1="450.98" y1="1921.94" x2="450.98" y2="1957.33" style="stroke:#000000;stroke-width:4.00"/>
	<text x="450.98" y="2009.98" style="font-family:'Helvetica';font-size:49.99px;fill:#000000" text-anchor="middle">1976</text>
	<line x1="639.68" y1="1921.94" x2="639.68" y2="1957.33" style="stroke:#000000;stroke-width:4.00"/>
	<text x="639.68" y="2009.98" style="font-family:'Helvetica';font-size:49.99px;fill:#000000" text-anchor="middle">1980</text>
	<line x1="875.58" y1="1921.94" x2="875.58" y2="1957.33" style="stroke:#000000;stroke-width:4.00"/>
	<text x="875.58" y="2009.98" style="font-family:'Helvetica';font-size:49.99px;fill:#000000" text-anchor="middle">1985</text>
	<line x1="1111.39" y1="1921.94" x2="1111.39" y2="1957.33" style="stroke:#000000;stroke-width:4.00"/>
	<text x="1111.39" y="2009.98" style="font-family:'Helvetica';font-size:49.99px;fill:#000000" text-anchor="middle">1990</text>
	<line x1="1347.29" y1="1921.94" x2="1347.29" y2="1957.33" style="stroke:#000000;stroke-width:4.00"/>
	<text x="1347.29" y="2009.98" style="font-family:'Helvetica';font-size:49.99px;fill:#000000" text-anchor="middle">1995</text>
	<line x1="1583.18" y1="1921.94" x2="1583.18" y2="1957.33" style="stroke:#000000;stroke-width:4.00"/>
	<text x="1583.18" y="2009.98" style="font-family:'Helvetica';font-size:49.99px;fill:#000000" text-anchor="middle">2000</text>
	<line x1="1819.08" y1="1921.94" x2="1819.08" y2="1957.33" style="stroke:#000000;stroke-width:4.00"/>
	<text x="1819.08" y="2009.98" style="font-family:'Helvetica';font-size:49.99px;fill:#000000" text-anchor="middle">2005</text>
	<line x1="2054.89" y1="1921.94" x2="2054.89" y2="1957.33" style="stroke:#000000;stroke-width:4.00"/>
	<text x="2054.89" y="2009.98" style="font-family:'Helvetica';font-size:49.99px;fill:#000000" text-anchor="middle">2010</text>
	<line x1="2290.79" y1="1921.94" x2="2290.79" y2="1957.33" style="stroke:#000000;stroke-width:4.00"/>
	<text x="2290.79" y="2009.98" style="font-family:'Helvetica';font-size:49.99px;fill:#000000" text-anchor="middle">2015</text>
	<line x1="450.98" y1="1921.94" x2="2290.79" y2="1921.94" style="stroke:#000000;stroke-width:4.00"/>
	<text x="1332.62" y="2152.37" style="font-family:'Helvetica';font-size:60.03px;fill:#000000" text-anchor="middle">Year</text>
	<text x="145.41" y="2396.65" style="font-family:'Helvetica';font-size:60.03px;fill:#000000">Arr. cohort: </text>
	<text x="536.36" y="2396.65" style="font-family:'Helvetica';font-size:60.03px;fill:#000000">1964-73</text>
	<text x="845.12" y="2396.65" style="font-family:'Helvetica';font-size:60.03px;fill:#000000">1974-83</text>
	<text x="1153.89" y="2396.65" style="font-family:'Helvetica';font-size:60.03px;fill:#000000">1984-93</text>
	<text x="1462.65" y="2396.65" style="font-family:'Helvetica';font-size:60.03px;fill:#000000">1994-03</text>
	<text x="1771.41" y="2396.65" style="font-family:'Helvetica';font-size:60.03px;fill:#000000">2004-10</text>
	<text x="2080.17" y="2396.65" style="font-family:'Helvetica';font-size:60.03px;fill:#000000">German</text>
	<line x1="536.36" y1="2301.32" x2="737.26" y2="2301.32" style="stroke:#E69F00;stroke-width:10.00"/>
	<line x1="845.12" y1="2301.32" x2="1046.02" y2="2301.32" style="stroke:#56B4E9;stroke-width:10.00"/>
	<line x1="1153.89" y1="2301.32" x2="1354.78" y2="2301.32" style="stroke:#009E73;stroke-width:10.00"/>
	<line x1="1462.65" y1="2301.32" x2="1663.54" y2="2301.32" style="stroke:#D55E00;stroke-width:10.00"/>
	<line x1="1771.41" y1="2301.32" x2="1972.30" y2="2301.32" style="stroke:#CC79A7;stroke-width:10.00"/>
	<line x1="2080.17" y1="2301.32" x2="2131.19" y2="2301.32" style="stroke:#A0A0A0;stroke-width:10.00"/>
	<line x1="2156.70" y1="2301.32" x2="2207.72" y2="2301.32" style="stroke:#A0A0A0;stroke-width:10.00"/>
	<line x1="2233.23" y1="2301.32" x2="2278.03" y2="2301.32" style="stroke:#A0A0A0;stroke-width:10.00"/>
	<text x="1370.89" y="154.88" style="font-family:'Helvetica';font-size:90.01px;fill:#000000" text-anchor="middle">Men</text>
</svg>
