<?xml version="1.0" encoding="UTF-8" standalone="no"?>
<!-- This is a Stata 15.1 generated SVG file (http://www.stata.com) -->

<svg version="1.1" width="3.54in" height="3.54in" viewBox="0 0 2551 2551" xmlns="http://www.w3.org/2000/svg" xmlns:xlink="http://www.w3.org/1999/xlink">
	<desc>Stata Graph - Graph</desc>
	<rect x="0" y="0" width="2551" height="2551" style="fill:#FFFFFF;stroke:none"/>
	<rect x="0.00" y="0.08" width="2551.00" height="2550.92" style="fill:#FFFFFF"/>
	<rect x="2.55" y="2.63" width="2545.90" height="2545.82" style="fill:none;stroke:#FFFFFF;stroke-width:5.10"/>
	<line x1="394.86" y1="1865.82" x2="2346.91" y2="1865.82" style="stroke:#E8E8E8;stroke-width:4.00"/>
	<line x1="394.86" y1="1704.55" x2="2346.91" y2="1704.55" style="stroke:#E8E8E8;stroke-width:4.00"/>
	<line x1="394.86" y1="1543.28" x2="2346.91" y2="1543.28" style="stroke:#E8E8E8;stroke-width:4.00"/>
	<line x1="394.86" y1="1382.08" x2="2346.91" y2="1382.08" style="stroke:#E8E8E8;stroke-width:4.00"/>
	<line x1="394.86" y1="1220.81" x2="2346.91" y2="1220.81" style="stroke:#E8E8E8;stroke-width:4.00"/>
	<line x1="394.86" y1="1059.54" x2="2346.91" y2="1059.54" style="stroke:#E8E8E8;stroke-width:4.00"/>
	<line x1="394.86" y1="898.35" x2="2346.91" y2="898.35" style="stroke:#E8E8E8;stroke-width:4.00"/>
	<line x1="394.86" y1="737.08" x2="2346.91" y2="737.08" style="stroke:#E8E8E8;stroke-width:4.00"/>
	<line x1="394.86" y1="575.81" x2="2346.91" y2="575.81" style="stroke:#E8E8E8;stroke-width:4.00"/>
	<line x1="394.86" y1="414.54" x2="2346.91" y2="414.54" style="stroke:#E8E8E8;stroke-width:4.00"/>
	<line x1="394.86" y1="253.35" x2="2346.91" y2="253.35" style="stroke:#E8E8E8;stroke-width:4.00"/>
	<line x1="450.98" y1="1921.94" x2="450.98" y2="197.22" style="stroke:#E8E8E8;stroke-width:4.00"/>
	<line x1="639.68" y1="1921.94" x2="639.68" y2="197.22" style="stroke:#E8E8E8;stroke-width:4.00"/>
	<line x1="875.58" y1="1921.94" x2="875.58" y2="197.22" style="stroke:#E8E8E8;stroke-width:4.00"/>
	<line x1="1111.39" y1="1921.94" x2="1111.39" y2="197.22" style="stroke:#E8E8E8;stroke-width:4.00"/>
	<line x1="1347.29" y1="1921.94" x2="1347.29" y2="197.22" style="stroke:#E8E8E8;stroke-width:4.00"/>
	<line x1="1583.18" y1="1921.94" x2="1583.18" y2="197.22" style="stroke:#E8E8E8;stroke-width:4.00"/>
	<line x1="1819.08" y1="1921.94" x2="1819.08" y2="197.22" style="stroke:#E8E8E8;stroke-width:4.00"/>
	<line x1="2054.89" y1="1921.94" x2="2054.89" y2="197.22" style="stroke:#E8E8E8;stroke-width:4.00"/>
	<line x1="2290.79" y1="1921.94" x2="2290.79" y2="197.22" style="stroke:#E8E8E8;stroke-width:4.00"/>
	<line x1="450.90" y1="1856.89" x2="545.29" y2="1857.93" stroke-linecap="round" style="stroke:#E69F00;stroke-width:10.00"/>
	<line x1="545.29" y1="1857.93" x2="639.60" y2="1859.28" stroke-linecap="round" style="stroke:#E69F00;stroke-width:10.00"/>
	<line x1="639.60" y1="1859.28" x2="733.99" y2="1857.05" stroke-linecap="round" style="stroke:#E69F00;stroke-width:10.00"/>
	<line x1="733.99" y1="1857.05" x2="875.50" y2="1857.61" stroke-linecap="round" style="stroke:#E69F00;stroke-width:10.00"/>
	<line x1="875.50" y1="1857.61" x2="969.89" y2="1862.71" stroke-linecap="round" style="stroke:#E69F00;stroke-width:10.00"/>
	<line x1="969.89" y1="1862.71" x2="1064.20" y2="1859.28" stroke-linecap="round" style="stroke:#E69F00;stroke-width:10.00"/>
	<line x1="1064.20" y1="1859.28" x2="1158.59" y2="1859.52" stroke-linecap="round" style="stroke:#E69F00;stroke-width:10.00"/>
	<line x1="1158.59" y1="1859.52" x2="1252.90" y2="1858.40" stroke-linecap="round" style="stroke:#E69F00;stroke-width:10.00"/>
	<line x1="1252.90" y1="1858.40" x2="1347.29" y2="1853.38" stroke-linecap="round" style="stroke:#E69F00;stroke-width:10.00"/>
	<line x1="1347.29" y1="1853.38" x2="1394.40" y2="1854.50" stroke-linecap="round" style="stroke:#E69F00;stroke-width:10.00"/>
	<line x1="1394.40" y1="1854.50" x2="1441.60" y2="1860.48" stroke-linecap="round" style="stroke:#E69F00;stroke-width:10.00"/>
	<line x1="1441.60" y1="1860.48" x2="1488.79" y2="1857.13" stroke-linecap="round" style="stroke:#E69F00;stroke-width:10.00"/>
	<line x1="1488.79" y1="1857.13" x2="1535.99" y2="1836.80" stroke-linecap="round" style="stroke:#E69F00;stroke-width:10.00"/>
	<line x1="1535.99" y1="1836.80" x2="1583.10" y2="1849.55" stroke-linecap="round" style="stroke:#E69F00;stroke-width:10.00"/>
	<line x1="1583.10" y1="1849.55" x2="1630.30" y2="1833.37" stroke-linecap="round" style="stroke:#E69F00;stroke-width:10.00"/>
	<line x1="1630.30" y1="1833.37" x2="1677.49" y2="1854.42" stroke-linecap="round" style="stroke:#E69F00;stroke-width:10.00"/>
	<line x1="1677.49" y1="1854.42" x2="1724.69" y2="1842.38" stroke-linecap="round" style="stroke:#E69F00;stroke-width:10.00"/>
	<line x1="875.50" y1="1849.40" x2="969.89" y2="1851.95" stroke-linecap="round" style="stroke:#56B4E9;stroke-width:10.00"/>
	<line x1="969.89" y1="1851.95" x2="1064.20" y2="1857.53" stroke-linecap="round" style="stroke:#56B4E9;stroke-width:10.00"/>
	<line x1="1064.20" y1="1857.53" x2="1158.59" y2="1837.04" stroke-linecap="round" style="stroke:#56B4E9;stroke-width:10.00"/>
	<line x1="1158.59" y1="1837.04" x2="1252.90" y2="1848.04" stroke-linecap="round" style="stroke:#56B4E9;stroke-width:10.00"/>
	<line x1="1252.90" y1="1848.04" x2="1347.29" y2="1853.22" stroke-linecap="round" style="stroke:#56B4E9;stroke-width:10.00"/>
	<line x1="1347.29" y1="1853.22" x2="1394.40" y2="1836.00" stroke-linecap="round" style="stroke:#56B4E9;stroke-width:10.00"/>
	<line x1="1394.40" y1="1836.00" x2="1441.60" y2="1834.73" stroke-linecap="round" style="stroke:#56B4E9;stroke-width:10.00"/>
	<line x1="1441.60" y1="1834.73" x2="1488.79" y2="1829.31" stroke-linecap="round" style="stroke:#56B4E9;stroke-width:10.00"/>
	<line x1="1488.79" y1="1829.31" x2="1535.99" y2="1843.50" stroke-linecap="round" style="stroke:#56B4E9;stroke-width:10.00"/>
	<line x1="1535.99" y1="1843.50" x2="1583.10" y2="1839.43" stroke-linecap="round" style="stroke:#56B4E9;stroke-width:10.00"/>
	<line x1="1583.10" y1="1839.43" x2="1630.30" y2="1846.92" stroke-linecap="round" style="stroke:#56B4E9;stroke-width:10.00"/>
	<line x1="1630.30" y1="1846.92" x2="1677.49" y2="1846.45" stroke-linecap="round" style="stroke:#56B4E9;stroke-width:10.00"/>
	<line x1="1677.49" y1="1846.45" x2="1724.69" y2="1830.74" stroke-linecap="round" style="stroke:#56B4E9;stroke-width:10.00"/>
	<line x1="1724.69" y1="1830.74" x2="1771.80" y2="1791.60" stroke-linecap="round" style="stroke:#56B4E9;stroke-width:10.00"/>
	<line x1="1771.80" y1="1791.60" x2="1819.00" y2="1810.73" stroke-linecap="round" style="stroke:#56B4E9;stroke-width:10.00"/>
	<line x1="1819.00" y1="1810.73" x2="1866.19" y2="1768.24" stroke-linecap="round" style="stroke:#56B4E9;stroke-width:10.00"/>
	<line x1="1866.19" y1="1768.24" x2="1913.39" y2="1807.54" stroke-linecap="round" style="stroke:#56B4E9;stroke-width:10.00"/>
	<line x1="1913.39" y1="1807.54" x2="1960.50" y2="1813.36" stroke-linecap="round" style="stroke:#56B4E9;stroke-width:10.00"/>
	<line x1="1960.50" y1="1813.36" x2="2007.70" y2="1767.52" stroke-linecap="round" style="stroke:#56B4E9;stroke-width:10.00"/>
	<line x1="2007.70" y1="1767.52" x2="2054.89" y2="1825.88" stroke-linecap="round" style="stroke:#56B4E9;stroke-width:10.00"/>
	<line x1="2054.89" y1="1825.88" x2="2102.09" y2="1785.30" stroke-linecap="round" style="stroke:#56B4E9;stroke-width:10.00"/>
	<line x1="2102.09" y1="1785.30" x2="2149.20" y2="1784.34" stroke-linecap="round" style="stroke:#56B4E9;stroke-width:10.00"/>
	<line x1="1347.29" y1="1837.44" x2="1394.40" y2="1802.52" stroke-linecap="round" style="stroke:#009E73;stroke-width:10.00"/>
	<line x1="1394.40" y1="1802.52" x2="1441.60" y2="1803.24" stroke-linecap="round" style="stroke:#009E73;stroke-width:10.00"/>
	<line x1="1441.60" y1="1803.24" x2="1488.79" y2="1816.31" stroke-linecap="round" style="stroke:#009E73;stroke-width:10.00"/>
	<line x1="1488.79" y1="1816.31" x2="1535.99" y2="1790.56" stroke-linecap="round" style="stroke:#009E73;stroke-width:10.00"/>
	<line x1="1535.99" y1="1790.56" x2="1583.10" y2="1803.72" stroke-linecap="round" style="stroke:#009E73;stroke-width:10.00"/>
	<line x1="1583.10" y1="1803.72" x2="1630.30" y2="1818.23" stroke-linecap="round" style="stroke:#009E73;stroke-width:10.00"/>
	<line x1="1630.30" y1="1818.23" x2="1677.49" y2="1821.57" stroke-linecap="round" style="stroke:#009E73;stroke-width:10.00"/>
	<line x1="1677.49" y1="1821.57" x2="1724.69" y2="1829.55" stroke-linecap="round" style="stroke:#009E73;stroke-width:10.00"/>
	<line x1="1724.69" y1="1829.55" x2="1771.80" y2="1821.02" stroke-linecap="round" style="stroke:#009E73;stroke-width:10.00"/>
	<line x1="1771.80" y1="1821.02" x2="1819.00" y2="1802.68" stroke-linecap="round" style="stroke:#009E73;stroke-width:10.00"/>
	<line x1="1819.00" y1="1802.68" x2="1866.19" y2="1757.40" stroke-linecap="round" style="stroke:#009E73;stroke-width:10.00"/>
	<line x1="1866.19" y1="1757.40" x2="1913.39" y2="1792.00" stroke-linecap="round" style="stroke:#009E73;stroke-width:10.00"/>
	<line x1="1913.39" y1="1792.00" x2="1960.50" y2="1797.26" stroke-linecap="round" style="stroke:#009E73;stroke-width:10.00"/>
	<line x1="1960.50" y1="1797.26" x2="2007.70" y2="1768.96" stroke-linecap="round" style="stroke:#009E73;stroke-width:10.00"/>
	<line x1="2007.70" y1="1768.96" x2="2054.89" y2="1797.74" stroke-linecap="round" style="stroke:#009E73;stroke-width:10.00"/>
	<line x1="2054.89" y1="1797.74" x2="2102.09" y2="1793.99" stroke-linecap="round" style="stroke:#009E73;stroke-width:10.00"/>
	<line x1="2102.09" y1="1793.99" x2="2149.20" y2="1784.90" stroke-linecap="round" style="stroke:#009E73;stroke-width:10.00"/>
	<line x1="2149.20" y1="1784.90" x2="2196.40" y2="1786.90" stroke-linecap="round" style="stroke:#009E73;stroke-width:10.00"/>
	<line x1="2196.40" y1="1786.90" x2="2243.59" y2="1794.47" stroke-linecap="round" style="stroke:#009E73;stroke-width:10.00"/>
	<line x1="2243.59" y1="1794.47" x2="2290.79" y2="1791.52" stroke-linecap="round" style="stroke:#009E73;stroke-width:10.00"/>
	<line x1="1771.80" y1="1775.89" x2="1819.00" y2="1766.65" stroke-linecap="round" style="stroke:#D55E00;stroke-width:10.00"/>
	<line x1="1819.00" y1="1766.65" x2="1866.19" y2="1742.01" stroke-linecap="round" style="stroke:#D55E00;stroke-width:10.00"/>
	<line x1="1866.19" y1="1742.01" x2="1913.39" y2="1732.85" stroke-linecap="round" style="stroke:#D55E00;stroke-width:10.00"/>
	<line x1="1913.39" y1="1732.85" x2="1960.50" y2="1736.19" stroke-linecap="round" style="stroke:#D55E00;stroke-width:10.00"/>
	<line x1="1960.50" y1="1736.19" x2="2007.70" y2="1751.58" stroke-linecap="round" style="stroke:#D55E00;stroke-width:10.00"/>
	<line x1="2007.70" y1="1751.58" x2="2054.89" y2="1765.29" stroke-linecap="round" style="stroke:#D55E00;stroke-width:10.00"/>
	<line x1="2054.89" y1="1765.29" x2="2102.09" y2="1782.75" stroke-linecap="round" style="stroke:#D55E00;stroke-width:10.00"/>
	<line x1="2102.09" y1="1782.75" x2="2149.20" y2="1776.37" stroke-linecap="round" style="stroke:#D55E00;stroke-width:10.00"/>
	<line x1="2149.20" y1="1776.37" x2="2196.40" y2="1772.95" stroke-linecap="round" style="stroke:#D55E00;stroke-width:10.00"/>
	<line x1="2196.40" y1="1772.95" x2="2243.59" y2="1787.37" stroke-linecap="round" style="stroke:#D55E00;stroke-width:10.00"/>
	<line x1="2243.59" y1="1787.37" x2="2290.79" y2="1796.78" stroke-linecap="round" style="stroke:#D55E00;stroke-width:10.00"/>
	<line x1="2102.09" y1="1769.52" x2="2149.20" y2="1752.14" stroke-linecap="round" style="stroke:#CC79A7;stroke-width:10.00"/>
	<line x1="2149.20" y1="1752.14" x2="2196.40" y2="1752.06" stroke-linecap="round" style="stroke:#CC79A7;stroke-width:10.00"/>
	<line x1="2196.40" y1="1752.06" x2="2243.59" y2="1769.36" stroke-linecap="round" style="stroke:#CC79A7;stroke-width:10.00"/>
	<line x1="2243.59" y1="1769.36" x2="2290.79" y2="1763.70" stroke-linecap="round" style="stroke:#CC79A7;stroke-width:10.00"/>
	<line x1="450.90" y1="1848.12" x2="501.92" y2="1848.52" style="stroke:#A0A0A0;stroke-width:10.00"/>
	<line x1="527.44" y1="1848.68" x2="545.29" y2="1848.84" style="stroke:#A0A0A0;stroke-width:10.00"/>
	<line x1="545.29" y1="1848.84" x2="578.46" y2="1849.16" style="stroke:#A0A0A0;stroke-width:10.00"/>
	<line x1="603.97" y1="1849.40" x2="639.60" y2="1849.71" style="stroke:#A0A0A0;stroke-width:10.00"/>
	<line x1="639.60" y1="1849.71" x2="654.99" y2="1849.47" style="stroke:#A0A0A0;stroke-width:10.00"/>
	<line x1="680.50" y1="1849.24" x2="731.52" y2="1848.68" style="stroke:#A0A0A0;stroke-width:10.00"/>
	<line x1="757.03" y1="1849.95" x2="807.97" y2="1853.06" style="stroke:#A0A0A0;stroke-width:10.00"/>
	<line x1="833.41" y1="1854.58" x2="875.50" y2="1857.13" style="stroke:#A0A0A0;stroke-width:10.00"/>
	<line x1="875.50" y1="1857.13" x2="884.35" y2="1857.13" style="stroke:#A0A0A0;stroke-width:10.00"/>
	<line x1="909.86" y1="1857.29" x2="960.88" y2="1857.45" style="stroke:#A0A0A0;stroke-width:10.00"/>
	<line x1="986.39" y1="1857.61" x2="1037.41" y2="1857.77" style="stroke:#A0A0A0;stroke-width:10.00"/>
	<line x1="1062.92" y1="1857.93" x2="1064.20" y2="1857.93" style="stroke:#A0A0A0;stroke-width:10.00"/>
	<line x1="1064.20" y1="1857.93" x2="1113.94" y2="1856.73" style="stroke:#A0A0A0;stroke-width:10.00"/>
	<line x1="1139.46" y1="1856.09" x2="1158.59" y2="1855.61" style="stroke:#A0A0A0;stroke-width:10.00"/>
	<line x1="1158.59" y1="1855.61" x2="1190.40" y2="1854.50" style="stroke:#A0A0A0;stroke-width:10.00"/>
	<line x1="1215.91" y1="1853.54" x2="1252.90" y2="1852.27" style="stroke:#A0A0A0;stroke-width:10.00"/>
	<line x1="1252.90" y1="1852.27" x2="1266.93" y2="1852.03" style="stroke:#A0A0A0;stroke-width:10.00"/>
	<line x1="1292.44" y1="1851.71" x2="1343.46" y2="1850.91" style="stroke:#A0A0A0;stroke-width:10.00"/>
	<line x1="1368.89" y1="1849.63" x2="1394.40" y2="1848.20" style="stroke:#A0A0A0;stroke-width:10.00"/>
	<line x1="1394.40" y1="1848.20" x2="1419.84" y2="1847.16" style="stroke:#A0A0A0;stroke-width:10.00"/>
	<line x1="1445.35" y1="1846.21" x2="1488.79" y2="1845.17" style="stroke:#A0A0A0;stroke-width:10.00"/>
	<line x1="1488.79" y1="1845.17" x2="1496.37" y2="1844.93" style="stroke:#A0A0A0;stroke-width:10.00"/>
	<line x1="1521.88" y1="1844.21" x2="1535.99" y2="1843.74" style="stroke:#A0A0A0;stroke-width:10.00"/>
	<line x1="1535.99" y1="1843.74" x2="1572.90" y2="1845.09" style="stroke:#A0A0A0;stroke-width:10.00"/>
	<line x1="1598.41" y1="1845.09" x2="1630.30" y2="1844.29" style="stroke:#A0A0A0;stroke-width:10.00"/>
	<line x1="1630.30" y1="1844.29" x2="1649.43" y2="1844.21" style="stroke:#A0A0A0;stroke-width:10.00"/>
	<line x1="1674.94" y1="1844.05" x2="1677.49" y2="1844.05" style="stroke:#A0A0A0;stroke-width:10.00"/>
	<line x1="1677.49" y1="1844.05" x2="1724.69" y2="1840.47" style="stroke:#A0A0A0;stroke-width:10.00"/>
	<line x1="1724.69" y1="1840.47" x2="1725.81" y2="1840.39" style="stroke:#A0A0A0;stroke-width:10.00"/>
	<line x1="1751.24" y1="1838.63" x2="1771.80" y2="1837.28" style="stroke:#A0A0A0;stroke-width:10.00"/>
	<line x1="1771.80" y1="1837.28" x2="1802.02" y2="1834.25" style="stroke:#A0A0A0;stroke-width:10.00"/>
	<line x1="1826.17" y1="1827.95" x2="1866.19" y2="1802.28" style="stroke:#A0A0A0;stroke-width:10.00"/>
	<line x1="1866.19" y1="1802.28" x2="1869.54" y2="1803.08" style="stroke:#A0A0A0;stroke-width:10.00"/>
	<line x1="1894.26" y1="1809.14" x2="1913.39" y2="1813.84" style="stroke:#A0A0A0;stroke-width:10.00"/>
	<line x1="1913.39" y1="1813.84" x2="1944.72" y2="1813.04" style="stroke:#A0A0A0;stroke-width:10.00"/>
	<line x1="1970.07" y1="1811.05" x2="2007.70" y2="1804.51" style="stroke:#A0A0A0;stroke-width:10.00"/>
	<line x1="2007.70" y1="1804.51" x2="2020.30" y2="1807.22" style="stroke:#A0A0A0;stroke-width:10.00"/>
	<line x1="2045.17" y1="1812.72" x2="2054.89" y2="1814.88" style="stroke:#A0A0A0;stroke-width:10.00"/>
	<line x1="2054.89" y1="1814.88" x2="2095.95" y2="1815.91" style="stroke:#A0A0A0;stroke-width:10.00"/>
	<line x1="2121.46" y1="1816.63" x2="2149.20" y2="1817.43" style="stroke:#A0A0A0;stroke-width:10.00"/>
	<line x1="2149.20" y1="1817.43" x2="2172.48" y2="1816.55" style="stroke:#A0A0A0;stroke-width:10.00"/>
	<line x1="2197.99" y1="1815.83" x2="2243.59" y2="1817.59" style="stroke:#A0A0A0;stroke-width:10.00"/>
	<line x1="2243.59" y1="1817.59" x2="2249.02" y2="1817.43" style="stroke:#A0A0A0;stroke-width:10.00"/>
	<line x1="2274.53" y1="1816.87" x2="2290.79" y2="1816.55" style="stroke:#A0A0A0;stroke-width:10.00"/>
	<line x1="394.86" y1="1865.82" x2="359.38" y2="1865.82" style="stroke:#000000;stroke-width:4.00"/>
	<text x="341.69" y="1883.33" style="font-family:'Helvetica';font-size:49.99px;fill:#000000" text-anchor="end">0</text>
	<line x1="394.86" y1="1704.55" x2="359.38" y2="1704.55" style="stroke:#000000;stroke-width:4.00"/>
	<text x="341.69" y="1722.06" style="font-family:'Helvetica';font-size:49.99px;fill:#000000" text-anchor="end">10</text>
	<line x1="394.86" y1="1543.28" x2="359.38" y2="1543.28" style="stroke:#000000;stroke-width:4.00"/>
	<text x="341.69" y="1560.79" style="font-family:'Helvetica';font-size:49.99px;fill:#000000" text-anchor="end">20</text>
	<line x1="394.86" y1="1382.08" x2="359.38" y2="1382.08" style="stroke:#000000;stroke-width:4.00"/>
	<text x="341.69" y="1399.60" style="font-family:'Helvetica';font-size:49.99px;fill:#000000" text-anchor="end">30</text>
	<line x1="394.86" y1="1220.81" x2="359.38" y2="1220.81" style="stroke:#000000;stroke-width:4.00"/>
	<text x="341.69" y="1238.33" style="font-family:'Helvetica';font-size:49.99px;fill:#000000" text-anchor="end">40</text>
	<line x1="394.86" y1="1059.54" x2="359.38" y2="1059.54" style="stroke:#000000;stroke-width:4.00"/>
	<text x="341.69" y="1077.06" style="font-family:'Helvetica';font-size:49.99px;fill:#000000" text-anchor="end">50</text>
	<line x1="394.86" y1="898.35" x2="359.38" y2="898.35" style="stroke:#000000;stroke-width:4.00"/>
	<text x="341.69" y="915.86" style="font-family:'Helvetica';font-size:49.99px;fill:#000000" text-anchor="end">60</text>
	<line x1="394.86" y1="737.08" x2="359.38" y2="737.08" style="stroke:#000000;stroke-width:4.00"/>
	<text x="341.69" y="754.59" style="font-family:'Helvetica';font-size:49.99px;fill:#000000" text-anchor="end">70</text>
	<line x1="394.86" y1="575.81" x2="359.38" y2="575.81" style="stroke:#000000;stroke-width:4.00"/>
	<text x="341.69" y="593.32" style="font-family:'Helvetica';font-size:49.99px;fill:#000000" text-anchor="end">80</text>
	<line x1="394.86" y1="414.54" x2="359.38" y2="414.54" style="stroke:#000000;stroke-width:4.00"/>
	<text x="341.69" y="432.05" style="font-family:'Helvetica';font-size:49.99px;fill:#000000" text-anchor="end">90</text>
	<line x1="394.86" y1="253.35" x2="359.38" y2="253.35" style="stroke:#000000;stroke-width:4.00"/>
	<text x="341.69" y="270.86" style="font-family:'Helvetica';font-size:49.99px;fill:#000000" text-anchor="end">100</text>
	<line x1="394.86" y1="1865.82" x2="394.86" y2="253.35" style="stroke:#000000;stroke-width:4.00"/>
	<text x="136.21" y="1021.28" style="font-family:'Helvetica';font-size:60.03px;fill:#000000" transform="rotate(-90 136.21,1021.28)" text-anchor="middle">Marginal employment share (in %)</text>
	<line x1="450.98" y1="1921.94" x2="450.98" y2="1957.33" style="stroke:#000000;stroke-width:4.00"/>
	<text x="450.98" y="2009.98" style="font-family:'Helvetica';font-size:49.99px;fill:#000000" text-anchor="middle">1976</text>
	<line x1="639.68" y1="1921.94" x2="639.68" y2="1957.33" style="stroke:#000000;stroke-width:4.00"/>
	<text x="639.68" y="2009.98" style="font-family:'Helvetica';font-size:49.99px;fill:#000000" text-anchor="middle">1980</text>
	<line x1="875.58" y1="1921.94" x2="875.58" y2="1957.33" style="stroke:#000000;stroke-width:4.00"/>
	<text x="875.58" y="2009.98" style="font-family:'Helvetica';font-size:49.99px;fill:#000000" text-anchor="middle">1985</text>
	<line x1="1111.39" y1="1921.94" x2="1111.39" y2="1957.33" style="stroke:#000000;stroke-width:4.00"/>
	<text x="1111.39" y="2009.98" style="font-family:'Helvetica';font-size:49.99px;fill:#000000" text-anchor="middle">1990</text>
	<line x1="1347.29" y1="1921.94" x2="1347.29" y2="1957.33" style="stroke:#000000;stroke-width:4.00"/>
	<text x="1347.29" y="2009.98" style="font-family:'Helvetica';font-size:49.99px;fill:#000000" text-anchor="middle">1995</text>
	<line x1="1583.18" y1="1921.94" x2="1583.18" y2="1957.33" style="stroke:#000000;stroke-width:4.00"/>
	<text x="1583.18" y="2009.98" style="font-family:'Helvetica';font-size:49.99px;fill:#000000" text-anchor="middle">2000</text>
	<line x1="1819.08" y1="1921.94" x2="1819.08" y2="1957.33" style="stroke:#000000;stroke-width:4.00"/>
	<text x="1819.08" y="2009.98" style="font-family:'Helvetica';font-size:49.99px;fill:#000000" text-anchor="middle">2005</text>
	<line x1="2054.89" y1="1921.94" x2="2054.89" y2="1957.33" style="stroke:#000000;stroke-width:4.00"/>
	<text x="2054.89" y="2009.98" style="font-family:'Helvetica';font-size:49.99px;fill:#000000" text-anchor="middle">2010</text>
	<line x1="2290.79" y1="1921.94" x2="2290.79" y2="1957.33" style="stroke:#000000;stroke-width:4.00"/>
	<text x="2290.79" y="2009.98" style="font-family:'Helvetica';font-size:49.99px;fill:#000000" text-anchor="middle">2015</text>
	<line x1="450.98" y1="1921.94" x2="2290.79" y2="1921.94" style="stroke:#000000;stroke-width:4.00"/>
	<text x="1332.62" y="2152.37" style="font-family:'Helvetica';font-size:60.03px;fill:#000000" text-anchor="middle">Year</text>
	<text x="145.41" y="2396.65" style="font-family:'Helvetica';font-size:60.03px;fill:#000000">Arr. cohort: </text>
	<text x="536.36" y="2396.65" style="font-family:'Helvetica';font-size:60.03px;fill:#000000">1964-73</text>
	<text x="845.12" y="2396.65" style="font-family:'Helvetica';font-size:60.03px;fill:#000000">1974-83</text>
	<text x="1153.89" y="2396.65" style="font-family:'Helvetica';font-size:60.03px;fill:#000000">1984-93</text>
	<text x="1462.65" y="2396.65" style="font-family:'Helvetica';font-size:60.03px;fill:#000000">1994-03</text>
	<text x="1771.41" y="2396.65" style="font-family:'Helvetica';font-size:60.03px;fill:#000000">2004-10</text>
	<text x="2080.17" y="2396.65" style="font-family:'Helvetica';font-size:60.03px;fill:#000000">German</text>
	<line x1="536.36" y1="2301.32" x2="737.26" y2="2301.32" style="stroke:#E69F00;stroke-width:10.00"/>
	<line x1="845.12" y1="2301.32" x2="1046.02" y2="2301.32" style="stroke:#56B4E9;stroke-width:10.00"/>
	<line x1="1153.89" y1="2301.32" x2="1354.78" y2="2301.32" style="stroke:#009E73;stroke-width:10.00"/>
	<line x1="1462.65" y1="2301.32" x2="1663.54" y2="2301.32" style="stroke:#D55E00;stroke-width:10.00"/>
	<line x1="1771.41" y1="2301.32" x2="1972.30" y2="2301.32" style="stroke:#CC79A7;stroke-width:10.00"/>
	<line x1="2080.17" y1="2301.32" x2="2131.19" y2="2301.32" style="stroke:#A0A0A0;stroke-width:10.00"/>
	<line x1="2156.70" y1="2301.32" x2="2207.72" y2="2301.32" style="stroke:#A0A0A0;stroke-width:10.00"/>
	<line x1="2233.23" y1="2301.32" x2="2278.03" y2="2301.32" style="stroke:#A0A0A0;stroke-width:10.00"/>
	<text x="1370.89" y="154.88" style="font-family:'Helvetica';font-size:90.01px;fill:#000000" text-anchor="middle">Men</text>
</svg>
