<?xml version="1.0" encoding="UTF-8" standalone="no"?>
<!-- This is a Stata 15.1 generated SVG file (http://www.stata.com) -->

<svg version="1.1" width="3.54in" height="3.54in" viewBox="0 0 2551 2551" xmlns="http://www.w3.org/2000/svg" xmlns:xlink="http://www.w3.org/1999/xlink">
	<desc>Stata Graph - Graph</desc>
	<rect x="0" y="0" width="2551" height="2551" style="fill:#FFFFFF;stroke:none"/>
	<rect x="0.00" y="0.08" width="2551.00" height="2550.92" style="fill:#FFFFFF"/>
	<rect x="2.55" y="2.63" width="2545.90" height="2545.82" style="fill:none;stroke:#FFFFFF;stroke-width:5.10"/>
	<line x1="394.86" y1="1865.82" x2="2346.91" y2="1865.82" style="stroke:#E8E8E8;stroke-width:4.00"/>
	<line x1="394.86" y1="1704.55" x2="2346.91" y2="1704.55" style="stroke:#E8E8E8;stroke-width:4.00"/>
	<line x1="394.86" y1="1543.28" x2="2346.91" y2="1543.28" style="stroke:#E8E8E8;stroke-width:4.00"/>
	<line x1="394.86" y1="1382.08" x2="2346.91" y2="1382.08" style="stroke:#E8E8E8;stroke-width:4.00"/>
	<line x1="394.86" y1="1220.81" x2="2346.91" y2="1220.81" style="stroke:#E8E8E8;stroke-width:4.00"/>
	<line x1="394.86" y1="1059.54" x2="2346.91" y2="1059.54" style="stroke:#E8E8E8;stroke-width:4.00"/>
	<line x1="394.86" y1="898.35" x2="2346.91" y2="898.35" style="stroke:#E8E8E8;stroke-width:4.00"/>
	<line x1="394.86" y1="737.08" x2="2346.91" y2="737.08" style="stroke:#E8E8E8;stroke-width:4.00"/>
	<line x1="394.86" y1="575.81" x2="2346.91" y2="575.81" style="stroke:#E8E8E8;stroke-width:4.00"/>
	<line x1="394.86" y1="414.54" x2="2346.91" y2="414.54" style="stroke:#E8E8E8;stroke-width:4.00"/>
	<line x1="394.86" y1="253.35" x2="2346.91" y2="253.35" style="stroke:#E8E8E8;stroke-width:4.00"/>
	<line x1="450.98" y1="1921.94" x2="450.98" y2="197.22" style="stroke:#E8E8E8;stroke-width:4.00"/>
	<line x1="639.68" y1="1921.94" x2="639.68" y2="197.22" style="stroke:#E8E8E8;stroke-width:4.00"/>
	<line x1="875.58" y1="1921.94" x2="875.58" y2="197.22" style="stroke:#E8E8E8;stroke-width:4.00"/>
	<line x1="1111.39" y1="1921.94" x2="1111.39" y2="197.22" style="stroke:#E8E8E8;stroke-width:4.00"/>
	<line x1="1347.29" y1="1921.94" x2="1347.29" y2="197.22" style="stroke:#E8E8E8;stroke-width:4.00"/>
	<line x1="1583.18" y1="1921.94" x2="1583.18" y2="197.22" style="stroke:#E8E8E8;stroke-width:4.00"/>
	<line x1="1819.08" y1="1921.94" x2="1819.08" y2="197.22" style="stroke:#E8E8E8;stroke-width:4.00"/>
	<line x1="2054.89" y1="1921.94" x2="2054.89" y2="197.22" style="stroke:#E8E8E8;stroke-width:4.00"/>
	<line x1="2290.79" y1="1921.94" x2="2290.79" y2="197.22" style="stroke:#E8E8E8;stroke-width:4.00"/>
	<line x1="450.90" y1="871.57" x2="545.29" y2="816.64" stroke-linecap="round" style="stroke:#E69F00;stroke-width:10.00"/>
	<line x1="545.29" y1="816.64" x2="639.60" y2="853.95" stroke-linecap="round" style="stroke:#E69F00;stroke-width:10.00"/>
	<line x1="639.60" y1="853.95" x2="733.99" y2="883.76" stroke-linecap="round" style="stroke:#E69F00;stroke-width:10.00"/>
	<line x1="733.99" y1="883.76" x2="875.50" y2="859.77" stroke-linecap="round" style="stroke:#E69F00;stroke-width:10.00"/>
	<line x1="875.50" y1="859.77" x2="969.89" y2="909.27" stroke-linecap="round" style="stroke:#E69F00;stroke-width:10.00"/>
	<line x1="969.89" y1="909.27" x2="1064.20" y2="916.13" stroke-linecap="round" style="stroke:#E69F00;stroke-width:10.00"/>
	<line x1="1064.20" y1="916.13" x2="1158.59" y2="823.18" stroke-linecap="round" style="stroke:#E69F00;stroke-width:10.00"/>
	<line x1="1158.59" y1="823.18" x2="1252.90" y2="903.05" stroke-linecap="round" style="stroke:#E69F00;stroke-width:10.00"/>
	<line x1="1252.90" y1="903.05" x2="1347.29" y2="901.06" stroke-linecap="round" style="stroke:#E69F00;stroke-width:10.00"/>
	<line x1="1347.29" y1="901.06" x2="1394.40" y2="903.21" stroke-linecap="round" style="stroke:#E69F00;stroke-width:10.00"/>
	<line x1="1394.40" y1="903.21" x2="1441.60" y2="972.49" stroke-linecap="round" style="stroke:#E69F00;stroke-width:10.00"/>
	<line x1="1441.60" y1="972.49" x2="1488.79" y2="1036.50" stroke-linecap="round" style="stroke:#E69F00;stroke-width:10.00"/>
	<line x1="1488.79" y1="1036.50" x2="1535.99" y2="987.32" stroke-linecap="round" style="stroke:#E69F00;stroke-width:10.00"/>
	<line x1="1535.99" y1="987.32" x2="1583.10" y2="958.22" stroke-linecap="round" style="stroke:#E69F00;stroke-width:10.00"/>
	<line x1="1583.10" y1="958.22" x2="1630.30" y2="908.32" stroke-linecap="round" style="stroke:#E69F00;stroke-width:10.00"/>
	<line x1="1630.30" y1="908.32" x2="1677.49" y2="945.54" stroke-linecap="round" style="stroke:#E69F00;stroke-width:10.00"/>
	<line x1="1677.49" y1="945.54" x2="1724.69" y2="987.16" stroke-linecap="round" style="stroke:#E69F00;stroke-width:10.00"/>
	<line x1="875.50" y1="1237.00" x2="969.89" y2="1265.85" stroke-linecap="round" style="stroke:#56B4E9;stroke-width:10.00"/>
	<line x1="969.89" y1="1265.85" x2="1064.20" y2="1268.25" stroke-linecap="round" style="stroke:#56B4E9;stroke-width:10.00"/>
	<line x1="1064.20" y1="1268.25" x2="1158.59" y2="1105.38" stroke-linecap="round" style="stroke:#56B4E9;stroke-width:10.00"/>
	<line x1="1158.59" y1="1105.38" x2="1252.90" y2="1118.61" stroke-linecap="round" style="stroke:#56B4E9;stroke-width:10.00"/>
	<line x1="1252.90" y1="1118.61" x2="1347.29" y2="1119.33" stroke-linecap="round" style="stroke:#56B4E9;stroke-width:10.00"/>
	<line x1="1347.29" y1="1119.33" x2="1394.40" y2="1117.10" stroke-linecap="round" style="stroke:#56B4E9;stroke-width:10.00"/>
	<line x1="1394.40" y1="1117.10" x2="1441.60" y2="1069.91" stroke-linecap="round" style="stroke:#56B4E9;stroke-width:10.00"/>
	<line x1="1441.60" y1="1069.91" x2="1488.79" y2="1082.90" stroke-linecap="round" style="stroke:#56B4E9;stroke-width:10.00"/>
	<line x1="1488.79" y1="1082.90" x2="1535.99" y2="1057.07" stroke-linecap="round" style="stroke:#56B4E9;stroke-width:10.00"/>
	<line x1="1535.99" y1="1057.07" x2="1583.10" y2="1030.13" stroke-linecap="round" style="stroke:#56B4E9;stroke-width:10.00"/>
	<line x1="1583.10" y1="1030.13" x2="1630.30" y2="996.56" stroke-linecap="round" style="stroke:#56B4E9;stroke-width:10.00"/>
	<line x1="1630.30" y1="996.56" x2="1677.49" y2="919.00" stroke-linecap="round" style="stroke:#56B4E9;stroke-width:10.00"/>
	<line x1="1677.49" y1="919.00" x2="1724.69" y2="983.81" stroke-linecap="round" style="stroke:#56B4E9;stroke-width:10.00"/>
	<line x1="1724.69" y1="983.81" x2="1771.80" y2="952.08" stroke-linecap="round" style="stroke:#56B4E9;stroke-width:10.00"/>
	<line x1="1771.80" y1="952.08" x2="1819.00" y2="971.21" stroke-linecap="round" style="stroke:#56B4E9;stroke-width:10.00"/>
	<line x1="1819.00" y1="971.21" x2="1866.19" y2="996.88" stroke-linecap="round" style="stroke:#56B4E9;stroke-width:10.00"/>
	<line x1="1866.19" y1="996.88" x2="1913.39" y2="944.99" stroke-linecap="round" style="stroke:#56B4E9;stroke-width:10.00"/>
	<line x1="1913.39" y1="944.99" x2="1960.50" y2="958.22" stroke-linecap="round" style="stroke:#56B4E9;stroke-width:10.00"/>
	<line x1="1960.50" y1="958.22" x2="2007.70" y2="893.81" stroke-linecap="round" style="stroke:#56B4E9;stroke-width:10.00"/>
	<line x1="2007.70" y1="893.81" x2="2054.89" y2="817.52" stroke-linecap="round" style="stroke:#56B4E9;stroke-width:10.00"/>
	<line x1="2054.89" y1="817.52" x2="2102.09" y2="860.09" stroke-linecap="round" style="stroke:#56B4E9;stroke-width:10.00"/>
	<line x1="2102.09" y1="860.09" x2="2149.20" y2="895.08" stroke-linecap="round" style="stroke:#56B4E9;stroke-width:10.00"/>
	<line x1="2149.20" y1="895.08" x2="2196.40" y2="914.69" stroke-linecap="round" style="stroke:#56B4E9;stroke-width:10.00"/>
	<line x1="1347.29" y1="1267.21" x2="1394.40" y2="1244.65" stroke-linecap="round" style="stroke:#009E73;stroke-width:10.00"/>
	<line x1="1394.40" y1="1244.65" x2="1441.60" y2="1240.03" stroke-linecap="round" style="stroke:#009E73;stroke-width:10.00"/>
	<line x1="1441.60" y1="1240.03" x2="1488.79" y2="1196.02" stroke-linecap="round" style="stroke:#009E73;stroke-width:10.00"/>
	<line x1="1488.79" y1="1196.02" x2="1535.99" y2="1170.91" stroke-linecap="round" style="stroke:#009E73;stroke-width:10.00"/>
	<line x1="1535.99" y1="1170.91" x2="1583.10" y2="1110.40" stroke-linecap="round" style="stroke:#009E73;stroke-width:10.00"/>
	<line x1="1583.10" y1="1110.40" x2="1630.30" y2="1067.04" stroke-linecap="round" style="stroke:#009E73;stroke-width:10.00"/>
	<line x1="1630.30" y1="1067.04" x2="1677.49" y2="1040.01" stroke-linecap="round" style="stroke:#009E73;stroke-width:10.00"/>
	<line x1="1677.49" y1="1040.01" x2="1724.69" y2="1039.77" stroke-linecap="round" style="stroke:#009E73;stroke-width:10.00"/>
	<line x1="1724.69" y1="1039.77" x2="1771.80" y2="1029.65" stroke-linecap="round" style="stroke:#009E73;stroke-width:10.00"/>
	<line x1="1771.80" y1="1029.65" x2="1819.00" y2="977.59" stroke-linecap="round" style="stroke:#009E73;stroke-width:10.00"/>
	<line x1="1819.00" y1="977.59" x2="1866.19" y2="983.97" stroke-linecap="round" style="stroke:#009E73;stroke-width:10.00"/>
	<line x1="1866.19" y1="983.97" x2="1913.39" y2="925.53" stroke-linecap="round" style="stroke:#009E73;stroke-width:10.00"/>
	<line x1="1913.39" y1="925.53" x2="1960.50" y2="900.90" stroke-linecap="round" style="stroke:#009E73;stroke-width:10.00"/>
	<line x1="1960.50" y1="900.90" x2="2007.70" y2="927.77" stroke-linecap="round" style="stroke:#009E73;stroke-width:10.00"/>
	<line x1="2007.70" y1="927.77" x2="2054.89" y2="901.30" stroke-linecap="round" style="stroke:#009E73;stroke-width:10.00"/>
	<line x1="2054.89" y1="901.30" x2="2102.09" y2="900.10" stroke-linecap="round" style="stroke:#009E73;stroke-width:10.00"/>
	<line x1="2102.09" y1="900.10" x2="2149.20" y2="837.29" stroke-linecap="round" style="stroke:#009E73;stroke-width:10.00"/>
	<line x1="2149.20" y1="837.29" x2="2196.40" y2="879.38" stroke-linecap="round" style="stroke:#009E73;stroke-width:10.00"/>
	<line x1="2196.40" y1="879.38" x2="2243.59" y2="841.19" stroke-linecap="round" style="stroke:#009E73;stroke-width:10.00"/>
	<line x1="2243.59" y1="841.19" x2="2290.79" y2="873.32" stroke-linecap="round" style="stroke:#009E73;stroke-width:10.00"/>
	<line x1="1771.80" y1="1235.48" x2="1819.00" y2="1214.36" stroke-linecap="round" style="stroke:#D55E00;stroke-width:10.00"/>
	<line x1="1819.00" y1="1214.36" x2="1866.19" y2="1159.27" stroke-linecap="round" style="stroke:#D55E00;stroke-width:10.00"/>
	<line x1="1866.19" y1="1159.27" x2="1913.39" y2="1105.22" stroke-linecap="round" style="stroke:#D55E00;stroke-width:10.00"/>
	<line x1="1913.39" y1="1105.22" x2="1960.50" y2="1078.67" stroke-linecap="round" style="stroke:#D55E00;stroke-width:10.00"/>
	<line x1="1960.50" y1="1078.67" x2="2007.70" y2="1017.13" stroke-linecap="round" style="stroke:#D55E00;stroke-width:10.00"/>
	<line x1="2007.70" y1="1017.13" x2="2054.89" y2="1004.93" stroke-linecap="round" style="stroke:#D55E00;stroke-width:10.00"/>
	<line x1="2054.89" y1="1004.93" x2="2102.09" y2="955.35" stroke-linecap="round" style="stroke:#D55E00;stroke-width:10.00"/>
	<line x1="2102.09" y1="955.35" x2="2149.20" y2="914.93" stroke-linecap="round" style="stroke:#D55E00;stroke-width:10.00"/>
	<line x1="2149.20" y1="914.93" x2="2196.40" y2="901.22" stroke-linecap="round" style="stroke:#D55E00;stroke-width:10.00"/>
	<line x1="2196.40" y1="901.22" x2="2243.59" y2="902.50" stroke-linecap="round" style="stroke:#D55E00;stroke-width:10.00"/>
	<line x1="2243.59" y1="902.50" x2="2290.79" y2="859.37" stroke-linecap="round" style="stroke:#D55E00;stroke-width:10.00"/>
	<line x1="2102.09" y1="1065.60" x2="2149.20" y2="1063.45" stroke-linecap="round" style="stroke:#CC79A7;stroke-width:10.00"/>
	<line x1="2149.20" y1="1063.45" x2="2196.40" y2="1000.15" stroke-linecap="round" style="stroke:#CC79A7;stroke-width:10.00"/>
	<line x1="2196.40" y1="1000.15" x2="2243.59" y2="992.10" stroke-linecap="round" style="stroke:#CC79A7;stroke-width:10.00"/>
	<line x1="2243.59" y1="992.10" x2="2290.79" y2="1013.62" stroke-linecap="round" style="stroke:#CC79A7;stroke-width:10.00"/>
	<line x1="450.90" y1="1077.72" x2="499.29" y2="1061.53" style="stroke:#A0A0A0;stroke-width:10.00"/>
	<line x1="523.45" y1="1053.48" x2="545.29" y2="1046.15" style="stroke:#A0A0A0;stroke-width:10.00"/>
	<line x1="545.29" y1="1046.15" x2="572.72" y2="1040.33" style="stroke:#A0A0A0;stroke-width:10.00"/>
	<line x1="597.67" y1="1035.07" x2="639.60" y2="1026.22" style="stroke:#A0A0A0;stroke-width:10.00"/>
	<line x1="639.60" y1="1026.22" x2="647.58" y2="1024.39" style="stroke:#A0A0A0;stroke-width:10.00"/>
	<line x1="672.45" y1="1018.73" x2="722.19" y2="1007.49" style="stroke:#A0A0A0;stroke-width:10.00"/>
	<line x1="747.31" y1="1002.62" x2="797.61" y2="994.49" style="stroke:#A0A0A0;stroke-width:10.00"/>
	<line x1="822.80" y1="990.35" x2="873.19" y2="982.21" style="stroke:#A0A0A0;stroke-width:10.00"/>
	<line x1="898.14" y1="977.03" x2="948.05" y2="966.43" style="stroke:#A0A0A0;stroke-width:10.00"/>
	<line x1="972.92" y1="960.85" x2="1021.63" y2="945.70" style="stroke:#A0A0A0;stroke-width:10.00"/>
	<line x1="1045.94" y1="938.05" x2="1064.20" y2="932.39" style="stroke:#A0A0A0;stroke-width:10.00"/>
	<line x1="1064.20" y1="932.39" x2="1085.25" y2="908.40" style="stroke:#A0A0A0;stroke-width:10.00"/>
	<line x1="1102.15" y1="889.26" x2="1135.87" y2="851.00" style="stroke:#A0A0A0;stroke-width:10.00"/>
	<line x1="1152.77" y1="831.79" x2="1158.59" y2="825.17" style="stroke:#A0A0A0;stroke-width:10.00"/>
	<line x1="1158.59" y1="825.17" x2="1199.96" y2="817.20" style="stroke:#A0A0A0;stroke-width:10.00"/>
	<line x1="1225.00" y1="812.41" x2="1252.90" y2="807.07" style="stroke:#A0A0A0;stroke-width:10.00"/>
	<line x1="1252.90" y1="807.07" x2="1275.14" y2="802.85" style="stroke:#A0A0A0;stroke-width:10.00"/>
	<line x1="1300.25" y1="798.14" x2="1347.29" y2="789.30" style="stroke:#A0A0A0;stroke-width:10.00"/>
	<line x1="1347.29" y1="789.30" x2="1350.00" y2="787.70" style="stroke:#A0A0A0;stroke-width:10.00"/>
	<line x1="1372.16" y1="775.11" x2="1394.40" y2="762.35" style="stroke:#A0A0A0;stroke-width:10.00"/>
	<line x1="1394.40" y1="762.35" x2="1418.32" y2="753.74" style="stroke:#A0A0A0;stroke-width:10.00"/>
	<line x1="1442.32" y1="745.05" x2="1488.79" y2="730.22" style="stroke:#A0A0A0;stroke-width:10.00"/>
	<line x1="1488.79" y1="730.22" x2="1490.71" y2="729.11" style="stroke:#A0A0A0;stroke-width:10.00"/>
	<line x1="1512.55" y1="715.87" x2="1535.99" y2="701.60" style="stroke:#A0A0A0;stroke-width:10.00"/>
	<line x1="1535.99" y1="701.60" x2="1557.04" y2="691.08" style="stroke:#A0A0A0;stroke-width:10.00"/>
	<line x1="1579.92" y1="679.60" x2="1583.10" y2="678.01" style="stroke:#A0A0A0;stroke-width:10.00"/>
	<line x1="1583.10" y1="678.01" x2="1628.23" y2="663.26" style="stroke:#A0A0A0;stroke-width:10.00"/>
	<line x1="1653.58" y1="663.26" x2="1677.49" y2="663.82" style="stroke:#A0A0A0;stroke-width:10.00"/>
	<line x1="1677.49" y1="663.82" x2="1704.60" y2="664.62" style="stroke:#A0A0A0;stroke-width:10.00"/>
	<line x1="1730.03" y1="665.97" x2="1771.80" y2="671.31" style="stroke:#A0A0A0;stroke-width:10.00"/>
	<line x1="1771.80" y1="671.31" x2="1780.65" y2="672.51" style="stroke:#A0A0A0;stroke-width:10.00"/>
	<line x1="1805.93" y1="676.02" x2="1819.00" y2="677.85" style="stroke:#A0A0A0;stroke-width:10.00"/>
	<line x1="1819.00" y1="677.85" x2="1849.77" y2="655.93" style="stroke:#A0A0A0;stroke-width:10.00"/>
	<line x1="1871.06" y1="641.98" x2="1913.39" y2="622.36" style="stroke:#A0A0A0;stroke-width:10.00"/>
	<line x1="1913.39" y1="622.36" x2="1917.69" y2="621.65" style="stroke:#A0A0A0;stroke-width:10.00"/>
	<line x1="1942.81" y1="617.18" x2="1960.50" y2="614.07" style="stroke:#A0A0A0;stroke-width:10.00"/>
	<line x1="1960.50" y1="614.07" x2="1992.87" y2="607.22" style="stroke:#A0A0A0;stroke-width:10.00"/>
	<line x1="2017.51" y1="600.60" x2="2054.89" y2="587.21" style="stroke:#A0A0A0;stroke-width:10.00"/>
	<line x1="2054.89" y1="587.21" x2="2065.02" y2="582.27" style="stroke:#A0A0A0;stroke-width:10.00"/>
	<line x1="2087.98" y1="571.11" x2="2102.09" y2="564.17" style="stroke:#A0A0A0;stroke-width:10.00"/>
	<line x1="2102.09" y1="564.17" x2="2137.33" y2="562.34" style="stroke:#A0A0A0;stroke-width:10.00"/>
	<line x1="2162.52" y1="558.67" x2="2196.40" y2="551.02" style="stroke:#A0A0A0;stroke-width:10.00"/>
	<line x1="2196.40" y1="551.02" x2="2212.50" y2="548.46" style="stroke:#A0A0A0;stroke-width:10.00"/>
	<line x1="2237.70" y1="544.48" x2="2243.59" y2="543.52" style="stroke:#A0A0A0;stroke-width:10.00"/>
	<line x1="2243.59" y1="543.52" x2="2287.12" y2="532.12" style="stroke:#A0A0A0;stroke-width:10.00"/>
	<line x1="394.86" y1="1865.82" x2="359.38" y2="1865.82" style="stroke:#000000;stroke-width:4.00"/>
	<text x="341.69" y="1883.33" style="font-family:'Helvetica';font-size:49.99px;fill:#000000" text-anchor="end">0</text>
	<line x1="394.86" y1="1704.55" x2="359.38" y2="1704.55" style="stroke:#000000;stroke-width:4.00"/>
	<text x="341.69" y="1722.06" style="font-family:'Helvetica';font-size:49.99px;fill:#000000" text-anchor="end">10</text>
	<line x1="394.86" y1="1543.28" x2="359.38" y2="1543.28" style="stroke:#000000;stroke-width:4.00"/>
	<text x="341.69" y="1560.79" style="font-family:'Helvetica';font-size:49.99px;fill:#000000" text-anchor="end">20</text>
	<line x1="394.86" y1="1382.08" x2="359.38" y2="1382.08" style="stroke:#000000;stroke-width:4.00"/>
	<text x="341.69" y="1399.60" style="font-family:'Helvetica';font-size:49.99px;fill:#000000" text-anchor="end">30</text>
	<line x1="394.86" y1="1220.81" x2="359.38" y2="1220.81" style="stroke:#000000;stroke-width:4.00"/>
	<text x="341.69" y="1238.33" style="font-family:'Helvetica';font-size:49.99px;fill:#000000" text-anchor="end">40</text>
	<line x1="394.86" y1="1059.54" x2="359.38" y2="1059.54" style="stroke:#000000;stroke-width:4.00"/>
	<text x="341.69" y="1077.06" style="font-family:'Helvetica';font-size:49.99px;fill:#000000" text-anchor="end">50</text>
	<line x1="394.86" y1="898.35" x2="359.38" y2="898.35" style="stroke:#000000;stroke-width:4.00"/>
	<text x="341.69" y="915.86" style="font-family:'Helvetica';font-size:49.99px;fill:#000000" text-anchor="end">60</text>
	<line x1="394.86" y1="737.08" x2="359.38" y2="737.08" style="stroke:#000000;stroke-width:4.00"/>
	<text x="341.69" y="754.59" style="font-family:'Helvetica';font-size:49.99px;fill:#000000" text-anchor="end">70</text>
	<line x1="394.86" y1="575.81" x2="359.38" y2="575.81" style="stroke:#000000;stroke-width:4.00"/>
	<text x="341.69" y="593.32" style="font-family:'Helvetica';font-size:49.99px;fill:#000000" text-anchor="end">80</text>
	<line x1="394.86" y1="414.54" x2="359.38" y2="414.54" style="stroke:#000000;stroke-width:4.00"/>
	<text x="341.69" y="432.05" style="font-family:'Helvetica';font-size:49.99px;fill:#000000" text-anchor="end">90</text>
	<line x1="394.86" y1="253.35" x2="359.38" y2="253.35" style="stroke:#000000;stroke-width:4.00"/>
	<text x="341.69" y="270.86" style="font-family:'Helvetica';font-size:49.99px;fill:#000000" text-anchor="end">100</text>
	<line x1="394.86" y1="1865.82" x2="394.86" y2="253.35" style="stroke:#000000;stroke-width:4.00"/>
	<text x="136.21" y="1021.28" style="font-family:'Helvetica';font-size:60.03px;fill:#000000" transform="rotate(-90 136.21,1021.28)" text-anchor="middle">Employment rate (in %)</text>
	<line x1="450.98" y1="1921.94" x2="450.98" y2="1957.33" style="stroke:#000000;stroke-width:4.00"/>
	<text x="450.98" y="2009.98" style="font-family:'Helvetica';font-size:49.99px;fill:#000000" text-anchor="middle">1976</text>
	<line x1="639.68" y1="1921.94" x2="639.68" y2="1957.33" style="stroke:#000000;stroke-width:4.00"/>
	<text x="639.68" y="2009.98" style="font-family:'Helvetica';font-size:49.99px;fill:#000000" text-anchor="middle">1980</text>
	<line x1="875.58" y1="1921.94" x2="875.58" y2="1957.33" style="stroke:#000000;stroke-width:4.00"/>
	<text x="875.58" y="2009.98" style="font-family:'Helvetica';font-size:49.99px;fill:#000000" text-anchor="middle">1985</text>
	<line x1="1111.39" y1="1921.94" x2="1111.39" y2="1957.33" style="stroke:#000000;stroke-width:4.00"/>
	<text x="1111.39" y="2009.98" style="font-family:'Helvetica';font-size:49.99px;fill:#000000" text-anchor="middle">1990</text>
	<line x1="1347.29" y1="1921.94" x2="1347.29" y2="1957.33" style="stroke:#000000;stroke-width:4.00"/>
	<text x="1347.29" y="2009.98" style="font-family:'Helvetica';font-size:49.99px;fill:#000000" text-anchor="middle">1995</text>
	<line x1="1583.18" y1="1921.94" x2="1583.18" y2="1957.33" style="stroke:#000000;stroke-width:4.00"/>
	<text x="1583.18" y="2009.98" style="font-family:'Helvetica';font-size:49.99px;fill:#000000" text-anchor="middle">2000</text>
	<line x1="1819.08" y1="1921.94" x2="1819.08" y2="1957.33" style="stroke:#000000;stroke-width:4.00"/>
	<text x="1819.08" y="2009.98" style="font-family:'Helvetica';font-size:49.99px;fill:#000000" text-anchor="middle">2005</text>
	<line x1="2054.89" y1="1921.94" x2="2054.89" y2="1957.33" style="stroke:#000000;stroke-width:4.00"/>
	<text x="2054.89" y="2009.98" style="font-family:'Helvetica';font-size:49.99px;fill:#000000" text-anchor="middle">2010</text>
	<line x1="2290.79" y1="1921.94" x2="2290.79" y2="1957.33" style="stroke:#000000;stroke-width:4.00"/>
	<text x="2290.79" y="2009.98" style="font-family:'Helvetica';font-size:49.99px;fill:#000000" text-anchor="middle">2015</text>
	<line x1="450.98" y1="1921.94" x2="2290.79" y2="1921.94" style="stroke:#000000;stroke-width:4.00"/>
	<text x="1332.62" y="2152.37" style="font-family:'Helvetica';font-size:60.03px;fill:#000000" text-anchor="middle">Year</text>
	<text x="145.41" y="2396.65" style="font-family:'Helvetica';font-size:60.03px;fill:#000000">Arr. cohort: </text>
	<text x="536.36" y="2396.65" style="font-family:'Helvetica';font-size:60.03px;fill:#000000">1964-73</text>
	<text x="845.12" y="2396.65" style="font-family:'Helvetica';font-size:60.03px;fill:#000000">1974-83</text>
	<text x="1153.89" y="2396.65" style="font-family:'Helvetica';font-size:60.03px;fill:#000000">1984-93</text>
	<text x="1462.65" y="2396.65" style="font-family:'Helvetica';font-size:60.03px;fill:#000000">1994-03</text>
	<text x="1771.41" y="2396.65" style="font-family:'Helvetica';font-size:60.03px;fill:#000000">2004-10</text>
	<text x="2080.17" y="2396.65" style="font-family:'Helvetica';font-size:60.03px;fill:#000000">German</text>
	<line x1="536.36" y1="2301.32" x2="737.26" y2="2301.32" style="stroke:#E69F00;stroke-width:10.00"/>
	<line x1="845.12" y1="2301.32" x2="1046.02" y2="2301.32" style="stroke:#56B4E9;stroke-width:10.00"/>
	<line x1="1153.89" y1="2301.32" x2="1354.78" y2="2301.32" style="stroke:#009E73;stroke-width:10.00"/>
	<line x1="1462.65" y1="2301.32" x2="1663.54" y2="2301.32" style="stroke:#D55E00;stroke-width:10.00"/>
	<line x1="1771.41" y1="2301.32" x2="1972.30" y2="2301.32" style="stroke:#CC79A7;stroke-width:10.00"/>
	<line x1="2080.17" y1="2301.32" x2="2131.19" y2="2301.32" style="stroke:#A0A0A0;stroke-width:10.00"/>
	<line x1="2156.70" y1="2301.32" x2="2207.72" y2="2301.32" style="stroke:#A0A0A0;stroke-width:10.00"/>
	<line x1="2233.23" y1="2301.32" x2="2278.03" y2="2301.32" style="stroke:#A0A0A0;stroke-width:10.00"/>
	<text x="1370.89" y="154.88" style="font-family:'Helvetica';font-size:90.01px;fill:#000000" text-anchor="middle">Women</text>
</svg>
