<?xml version="1.0" encoding="UTF-8" standalone="no"?>
<!-- This is a Stata 15.1 generated SVG file (http://www.stata.com) -->

<svg version="1.1" width="3.54in" height="3.54in" viewBox="0 0 2551 2551" xmlns="http://www.w3.org/2000/svg" xmlns:xlink="http://www.w3.org/1999/xlink">
	<desc>Stata Graph - Graph</desc>
	<rect x="0" y="0" width="2551" height="2551" style="fill:#FFFFFF;stroke:none"/>
	<rect x="0.00" y="0.08" width="2551.00" height="2550.92" style="fill:#FFFFFF"/>
	<rect x="2.55" y="2.63" width="2545.90" height="2545.82" style="fill:none;stroke:#FFFFFF;stroke-width:5.10"/>
	<line x1="394.86" y1="1865.82" x2="2346.91" y2="1865.82" style="stroke:#E8E8E8;stroke-width:4.00"/>
	<line x1="394.86" y1="1715.63" x2="2346.91" y2="1715.63" style="stroke:#E8E8E8;stroke-width:4.00"/>
	<line x1="394.86" y1="1565.52" x2="2346.91" y2="1565.52" style="stroke:#E8E8E8;stroke-width:4.00"/>
	<line x1="394.86" y1="1415.41" x2="2346.91" y2="1415.41" style="stroke:#E8E8E8;stroke-width:4.00"/>
	<line x1="394.86" y1="1265.22" x2="2346.91" y2="1265.22" style="stroke:#E8E8E8;stroke-width:4.00"/>
	<line x1="394.86" y1="1115.11" x2="2346.91" y2="1115.11" style="stroke:#E8E8E8;stroke-width:4.00"/>
	<line x1="394.86" y1="964.92" x2="2346.91" y2="964.92" style="stroke:#E8E8E8;stroke-width:4.00"/>
	<line x1="394.86" y1="814.81" x2="2346.91" y2="814.81" style="stroke:#E8E8E8;stroke-width:4.00"/>
	<line x1="394.86" y1="664.62" x2="2346.91" y2="664.62" style="stroke:#E8E8E8;stroke-width:4.00"/>
	<line x1="394.86" y1="514.50" x2="2346.91" y2="514.50" style="stroke:#E8E8E8;stroke-width:4.00"/>
	<line x1="394.86" y1="364.31" x2="2346.91" y2="364.31" style="stroke:#E8E8E8;stroke-width:4.00"/>
	<line x1="450.98" y1="1921.94" x2="450.98" y2="308.19" style="stroke:#E8E8E8;stroke-width:4.00"/>
	<line x1="680.98" y1="1921.94" x2="680.98" y2="308.19" style="stroke:#E8E8E8;stroke-width:4.00"/>
	<line x1="910.89" y1="1921.94" x2="910.89" y2="308.19" style="stroke:#E8E8E8;stroke-width:4.00"/>
	<line x1="1140.89" y1="1921.94" x2="1140.89" y2="308.19" style="stroke:#E8E8E8;stroke-width:4.00"/>
	<line x1="1370.89" y1="1921.94" x2="1370.89" y2="308.19" style="stroke:#E8E8E8;stroke-width:4.00"/>
	<line x1="1600.88" y1="1921.94" x2="1600.88" y2="308.19" style="stroke:#E8E8E8;stroke-width:4.00"/>
	<line x1="1830.88" y1="1921.94" x2="1830.88" y2="308.19" style="stroke:#E8E8E8;stroke-width:4.00"/>
	<line x1="2060.79" y1="1921.94" x2="2060.79" y2="308.19" style="stroke:#E8E8E8;stroke-width:4.00"/>
	<line x1="2290.79" y1="1921.94" x2="2290.79" y2="308.19" style="stroke:#E8E8E8;stroke-width:4.00"/>
	<line x1="450.90" y1="940.04" x2="542.90" y2="888.86" stroke-linecap="round" style="stroke:#E69F00;stroke-width:10.00"/>
	<line x1="542.90" y1="888.86" x2="634.90" y2="923.62" stroke-linecap="round" style="stroke:#E69F00;stroke-width:10.00"/>
	<line x1="634.90" y1="923.62" x2="726.90" y2="951.36" stroke-linecap="round" style="stroke:#E69F00;stroke-width:10.00"/>
	<line x1="726.90" y1="951.36" x2="864.90" y2="929.04" stroke-linecap="round" style="stroke:#E69F00;stroke-width:10.00"/>
	<line x1="864.90" y1="929.04" x2="956.89" y2="975.12" stroke-linecap="round" style="stroke:#E69F00;stroke-width:10.00"/>
	<line x1="956.89" y1="975.12" x2="1048.89" y2="981.50" stroke-linecap="round" style="stroke:#E69F00;stroke-width:10.00"/>
	<line x1="1048.89" y1="981.50" x2="1140.89" y2="894.92" stroke-linecap="round" style="stroke:#E69F00;stroke-width:10.00"/>
	<line x1="1140.89" y1="894.92" x2="1232.89" y2="969.30" stroke-linecap="round" style="stroke:#E69F00;stroke-width:10.00"/>
	<line x1="1232.89" y1="969.30" x2="1324.81" y2="967.47" stroke-linecap="round" style="stroke:#E69F00;stroke-width:10.00"/>
	<line x1="1324.81" y1="967.47" x2="1370.81" y2="969.54" stroke-linecap="round" style="stroke:#E69F00;stroke-width:10.00"/>
	<line x1="1370.81" y1="969.54" x2="1416.81" y2="1033.95" stroke-linecap="round" style="stroke:#E69F00;stroke-width:10.00"/>
	<line x1="1416.81" y1="1033.95" x2="1462.81" y2="1093.58" stroke-linecap="round" style="stroke:#E69F00;stroke-width:10.00"/>
	<line x1="1462.81" y1="1093.58" x2="1508.80" y2="1047.82" stroke-linecap="round" style="stroke:#E69F00;stroke-width:10.00"/>
	<line x1="1508.80" y1="1047.82" x2="1554.80" y2="1020.72" stroke-linecap="round" style="stroke:#E69F00;stroke-width:10.00"/>
	<line x1="1554.80" y1="1020.72" x2="1600.80" y2="974.24" stroke-linecap="round" style="stroke:#E69F00;stroke-width:10.00"/>
	<line x1="1600.80" y1="974.24" x2="1646.80" y2="1008.92" stroke-linecap="round" style="stroke:#E69F00;stroke-width:10.00"/>
	<line x1="1646.80" y1="1008.92" x2="1692.80" y2="1047.66" stroke-linecap="round" style="stroke:#E69F00;stroke-width:10.00"/>
	<line x1="864.90" y1="1280.28" x2="956.89" y2="1307.15" stroke-linecap="round" style="stroke:#56B4E9;stroke-width:10.00"/>
	<line x1="956.89" y1="1307.15" x2="1048.89" y2="1309.38" stroke-linecap="round" style="stroke:#56B4E9;stroke-width:10.00"/>
	<line x1="1048.89" y1="1309.38" x2="1140.89" y2="1157.76" stroke-linecap="round" style="stroke:#56B4E9;stroke-width:10.00"/>
	<line x1="1140.89" y1="1157.76" x2="1232.89" y2="1170.03" stroke-linecap="round" style="stroke:#56B4E9;stroke-width:10.00"/>
	<line x1="1232.89" y1="1170.03" x2="1324.81" y2="1170.75" stroke-linecap="round" style="stroke:#56B4E9;stroke-width:10.00"/>
	<line x1="1324.81" y1="1170.75" x2="1370.81" y2="1168.68" stroke-linecap="round" style="stroke:#56B4E9;stroke-width:10.00"/>
	<line x1="1370.81" y1="1168.68" x2="1416.81" y2="1124.67" stroke-linecap="round" style="stroke:#56B4E9;stroke-width:10.00"/>
	<line x1="1416.81" y1="1124.67" x2="1462.81" y2="1136.79" stroke-linecap="round" style="stroke:#56B4E9;stroke-width:10.00"/>
	<line x1="1462.81" y1="1136.79" x2="1508.80" y2="1112.71" stroke-linecap="round" style="stroke:#56B4E9;stroke-width:10.00"/>
	<line x1="1508.80" y1="1112.71" x2="1554.80" y2="1087.68" stroke-linecap="round" style="stroke:#56B4E9;stroke-width:10.00"/>
	<line x1="1554.80" y1="1087.68" x2="1600.80" y2="1056.35" stroke-linecap="round" style="stroke:#56B4E9;stroke-width:10.00"/>
	<line x1="1600.80" y1="1056.35" x2="1646.80" y2="984.13" stroke-linecap="round" style="stroke:#56B4E9;stroke-width:10.00"/>
	<line x1="1646.80" y1="984.13" x2="1692.80" y2="1044.55" stroke-linecap="round" style="stroke:#56B4E9;stroke-width:10.00"/>
	<line x1="1692.80" y1="1044.55" x2="1738.80" y2="1014.98" stroke-linecap="round" style="stroke:#56B4E9;stroke-width:10.00"/>
	<line x1="1738.80" y1="1014.98" x2="1784.80" y2="1032.76" stroke-linecap="round" style="stroke:#56B4E9;stroke-width:10.00"/>
	<line x1="1784.80" y1="1032.76" x2="1830.80" y2="1056.67" stroke-linecap="round" style="stroke:#56B4E9;stroke-width:10.00"/>
	<line x1="1830.80" y1="1056.67" x2="1876.80" y2="1008.44" stroke-linecap="round" style="stroke:#56B4E9;stroke-width:10.00"/>
	<line x1="1876.80" y1="1008.44" x2="1922.80" y2="1020.64" stroke-linecap="round" style="stroke:#56B4E9;stroke-width:10.00"/>
	<line x1="1922.80" y1="1020.64" x2="1968.80" y2="960.69" stroke-linecap="round" style="stroke:#56B4E9;stroke-width:10.00"/>
	<line x1="1968.80" y1="960.69" x2="2014.79" y2="889.74" stroke-linecap="round" style="stroke:#56B4E9;stroke-width:10.00"/>
	<line x1="2014.79" y1="889.74" x2="2060.79" y2="929.36" stroke-linecap="round" style="stroke:#56B4E9;stroke-width:10.00"/>
	<line x1="2060.79" y1="929.36" x2="2106.79" y2="961.89" stroke-linecap="round" style="stroke:#56B4E9;stroke-width:10.00"/>
	<line x1="2106.79" y1="961.89" x2="2152.79" y2="980.22" stroke-linecap="round" style="stroke:#56B4E9;stroke-width:10.00"/>
	<line x1="1324.81" y1="1308.42" x2="1370.81" y2="1287.38" stroke-linecap="round" style="stroke:#009E73;stroke-width:10.00"/>
	<line x1="1370.81" y1="1287.38" x2="1416.81" y2="1283.15" stroke-linecap="round" style="stroke:#009E73;stroke-width:10.00"/>
	<line x1="1416.81" y1="1283.15" x2="1462.81" y2="1242.10" stroke-linecap="round" style="stroke:#009E73;stroke-width:10.00"/>
	<line x1="1462.81" y1="1242.10" x2="1508.80" y2="1218.74" stroke-linecap="round" style="stroke:#009E73;stroke-width:10.00"/>
	<line x1="1508.80" y1="1218.74" x2="1554.80" y2="1162.38" stroke-linecap="round" style="stroke:#009E73;stroke-width:10.00"/>
	<line x1="1554.80" y1="1162.38" x2="1600.80" y2="1121.96" stroke-linecap="round" style="stroke:#009E73;stroke-width:10.00"/>
	<line x1="1600.80" y1="1121.96" x2="1646.80" y2="1096.85" stroke-linecap="round" style="stroke:#009E73;stroke-width:10.00"/>
	<line x1="1646.80" y1="1096.85" x2="1692.80" y2="1096.61" stroke-linecap="round" style="stroke:#009E73;stroke-width:10.00"/>
	<line x1="1692.80" y1="1096.61" x2="1738.80" y2="1087.20" stroke-linecap="round" style="stroke:#009E73;stroke-width:10.00"/>
	<line x1="1738.80" y1="1087.20" x2="1784.80" y2="1038.74" stroke-linecap="round" style="stroke:#009E73;stroke-width:10.00"/>
	<line x1="1784.80" y1="1038.74" x2="1830.80" y2="1044.63" stroke-linecap="round" style="stroke:#009E73;stroke-width:10.00"/>
	<line x1="1830.80" y1="1044.63" x2="1876.80" y2="990.27" stroke-linecap="round" style="stroke:#009E73;stroke-width:10.00"/>
	<line x1="1876.80" y1="990.27" x2="1922.80" y2="967.31" stroke-linecap="round" style="stroke:#009E73;stroke-width:10.00"/>
	<line x1="1922.80" y1="967.31" x2="1968.80" y2="992.34" stroke-linecap="round" style="stroke:#009E73;stroke-width:10.00"/>
	<line x1="1968.80" y1="992.34" x2="2014.79" y2="967.71" stroke-linecap="round" style="stroke:#009E73;stroke-width:10.00"/>
	<line x1="2014.79" y1="967.71" x2="2060.79" y2="966.59" stroke-linecap="round" style="stroke:#009E73;stroke-width:10.00"/>
	<line x1="2060.79" y1="966.59" x2="2106.79" y2="908.16" stroke-linecap="round" style="stroke:#009E73;stroke-width:10.00"/>
	<line x1="2106.79" y1="908.16" x2="2152.79" y2="947.30" stroke-linecap="round" style="stroke:#009E73;stroke-width:10.00"/>
	<line x1="2152.79" y1="947.30" x2="2198.79" y2="911.66" stroke-linecap="round" style="stroke:#009E73;stroke-width:10.00"/>
	<line x1="2198.79" y1="911.66" x2="2244.79" y2="941.72" stroke-linecap="round" style="stroke:#009E73;stroke-width:10.00"/>
	<line x1="1738.80" y1="1278.93" x2="1784.80" y2="1259.24" stroke-linecap="round" style="stroke:#D55E00;stroke-width:10.00"/>
	<line x1="1784.80" y1="1259.24" x2="1830.80" y2="1207.90" stroke-linecap="round" style="stroke:#D55E00;stroke-width:10.00"/>
	<line x1="1830.80" y1="1207.90" x2="1876.80" y2="1157.60" stroke-linecap="round" style="stroke:#D55E00;stroke-width:10.00"/>
	<line x1="1876.80" y1="1157.60" x2="1922.80" y2="1132.88" stroke-linecap="round" style="stroke:#D55E00;stroke-width:10.00"/>
	<line x1="1922.80" y1="1132.88" x2="1968.80" y2="1075.57" stroke-linecap="round" style="stroke:#D55E00;stroke-width:10.00"/>
	<line x1="1968.80" y1="1075.57" x2="2014.79" y2="1064.17" stroke-linecap="round" style="stroke:#D55E00;stroke-width:10.00"/>
	<line x1="2014.79" y1="1064.17" x2="2060.79" y2="1018.01" stroke-linecap="round" style="stroke:#D55E00;stroke-width:10.00"/>
	<line x1="2060.79" y1="1018.01" x2="2106.79" y2="980.38" stroke-linecap="round" style="stroke:#D55E00;stroke-width:10.00"/>
	<line x1="2106.79" y1="980.38" x2="2152.79" y2="967.63" stroke-linecap="round" style="stroke:#D55E00;stroke-width:10.00"/>
	<line x1="2152.79" y1="967.63" x2="2198.79" y2="968.82" stroke-linecap="round" style="stroke:#D55E00;stroke-width:10.00"/>
	<line x1="2198.79" y1="968.82" x2="2244.79" y2="928.64" stroke-linecap="round" style="stroke:#D55E00;stroke-width:10.00"/>
	<line x1="2060.79" y1="1120.69" x2="2106.79" y2="1118.69" stroke-linecap="round" style="stroke:#CC79A7;stroke-width:10.00"/>
	<line x1="2106.79" y1="1118.69" x2="2152.79" y2="1059.70" stroke-linecap="round" style="stroke:#CC79A7;stroke-width:10.00"/>
	<line x1="2152.79" y1="1059.70" x2="2198.79" y2="1052.29" stroke-linecap="round" style="stroke:#CC79A7;stroke-width:10.00"/>
	<line x1="2198.79" y1="1052.29" x2="2244.79" y2="1072.30" stroke-linecap="round" style="stroke:#CC79A7;stroke-width:10.00"/>
	<line x1="450.90" y1="1131.93" x2="499.53" y2="1116.46" style="stroke:#A0A0A0;stroke-width:10.00"/>
	<line x1="523.85" y1="1108.65" x2="542.90" y2="1102.59" style="stroke:#A0A0A0;stroke-width:10.00"/>
	<line x1="542.90" y1="1102.59" x2="573.28" y2="1096.45" style="stroke:#A0A0A0;stroke-width:10.00"/>
	<line x1="598.31" y1="1091.43" x2="634.90" y2="1084.02" style="stroke:#A0A0A0;stroke-width:10.00"/>
	<line x1="634.90" y1="1084.02" x2="648.21" y2="1081.15" style="stroke:#A0A0A0;stroke-width:10.00"/>
	<line x1="673.17" y1="1075.72" x2="722.99" y2="1064.88" style="stroke:#A0A0A0;stroke-width:10.00"/>
	<line x1="748.18" y1="1060.82" x2="798.57" y2="1052.93" style="stroke:#A0A0A0;stroke-width:10.00"/>
	<line x1="823.84" y1="1049.02" x2="864.90" y2="1042.64" style="stroke:#A0A0A0;stroke-width:10.00"/>
	<line x1="864.90" y1="1042.64" x2="874.14" y2="1040.81" style="stroke:#A0A0A0;stroke-width:10.00"/>
	<line x1="899.18" y1="1035.71" x2="949.16" y2="1025.58" style="stroke:#A0A0A0;stroke-width:10.00"/>
	<line x1="973.79" y1="1019.04" x2="1022.66" y2="1004.46" style="stroke:#A0A0A0;stroke-width:10.00"/>
	<line x1="1047.14" y1="997.20" x2="1048.89" y2="996.64" style="stroke:#A0A0A0;stroke-width:10.00"/>
	<line x1="1048.89" y1="996.64" x2="1082.22" y2="960.53" style="stroke:#A0A0A0;stroke-width:10.00"/>
	<line x1="1099.52" y1="941.72" x2="1134.11" y2="904.25" style="stroke:#A0A0A0;stroke-width:10.00"/>
	<line x1="1156.12" y1="894.05" x2="1206.34" y2="884.88" style="stroke:#A0A0A0;stroke-width:10.00"/>
	<line x1="1231.45" y1="880.25" x2="1232.89" y2="880.02" style="stroke:#A0A0A0;stroke-width:10.00"/>
	<line x1="1232.89" y1="880.02" x2="1281.60" y2="871.25" style="stroke:#A0A0A0;stroke-width:10.00"/>
	<line x1="1306.71" y1="866.70" x2="1324.81" y2="863.43" style="stroke:#A0A0A0;stroke-width:10.00"/>
	<line x1="1324.81" y1="863.43" x2="1353.51" y2="847.73" style="stroke:#A0A0A0;stroke-width:10.00"/>
	<line x1="1376.31" y1="836.49" x2="1416.81" y2="822.46" style="stroke:#A0A0A0;stroke-width:10.00"/>
	<line x1="1416.81" y1="822.46" x2="1424.62" y2="820.07" style="stroke:#A0A0A0;stroke-width:10.00"/>
	<line x1="1449.01" y1="812.65" x2="1462.81" y2="808.43" style="stroke:#A0A0A0;stroke-width:10.00"/>
	<line x1="1462.81" y1="808.43" x2="1494.45" y2="790.01" style="stroke:#A0A0A0;stroke-width:10.00"/>
	<line x1="1516.86" y1="777.90" x2="1554.80" y2="759.80" style="stroke:#A0A0A0;stroke-width:10.00"/>
	<line x1="1554.80" y1="759.80" x2="1563.41" y2="757.17" style="stroke:#A0A0A0;stroke-width:10.00"/>
	<line x1="1587.73" y1="749.52" x2="1600.80" y2="745.45" style="stroke:#A0A0A0;stroke-width:10.00"/>
	<line x1="1600.80" y1="745.45" x2="1638.11" y2="746.41" style="stroke:#A0A0A0;stroke-width:10.00"/>
	<line x1="1663.62" y1="747.04" x2="1692.80" y2="747.84" style="stroke:#A0A0A0;stroke-width:10.00"/>
	<line x1="1692.80" y1="747.84" x2="1714.49" y2="750.47" style="stroke:#A0A0A0;stroke-width:10.00"/>
	<line x1="1739.84" y1="753.58" x2="1784.80" y2="759.64" style="stroke:#A0A0A0;stroke-width:10.00"/>
	<line x1="1784.80" y1="759.64" x2="1789.50" y2="756.45" style="stroke:#A0A0A0;stroke-width:10.00"/>
	<line x1="1810.55" y1="742.10" x2="1830.80" y2="728.31" style="stroke:#A0A0A0;stroke-width:10.00"/>
	<line x1="1830.80" y1="728.31" x2="1855.03" y2="717.63" style="stroke:#A0A0A0;stroke-width:10.00"/>
	<line x1="1878.47" y1="707.74" x2="1922.80" y2="700.25" style="stroke:#A0A0A0;stroke-width:10.00"/>
	<line x1="1922.80" y1="700.25" x2="1928.78" y2="699.05" style="stroke:#A0A0A0;stroke-width:10.00"/>
	<line x1="1953.81" y1="694.03" x2="1968.80" y2="691.00" style="stroke:#A0A0A0;stroke-width:10.00"/>
	<line x1="1968.80" y1="691.00" x2="2002.60" y2="679.44" style="stroke:#A0A0A0;stroke-width:10.00"/>
	<line x1="2026.20" y1="669.96" x2="2060.79" y2="653.85" style="stroke:#A0A0A0;stroke-width:10.00"/>
	<line x1="2060.79" y1="653.85" x2="2073.63" y2="653.14" style="stroke:#A0A0A0;stroke-width:10.00"/>
	<line x1="2099.14" y1="651.86" x2="2106.79" y2="651.46" style="stroke:#A0A0A0;stroke-width:10.00"/>
	<line x1="2106.79" y1="651.46" x2="2149.13" y2="642.29" style="stroke:#A0A0A0;stroke-width:10.00"/>
	<line x1="2174.32" y1="638.23" x2="2198.79" y2="634.56" style="stroke:#A0A0A0;stroke-width:10.00"/>
	<line x1="2198.79" y1="634.56" x2="2224.30" y2="628.18" style="stroke:#A0A0A0;stroke-width:10.00"/>
	<line x1="394.86" y1="1865.82" x2="359.38" y2="1865.82" style="stroke:#000000;stroke-width:4.00"/>
	<text x="341.69" y="1883.33" style="font-family:'Helvetica';font-size:49.99px;fill:#000000" text-anchor="end">0</text>
	<line x1="394.86" y1="1715.63" x2="359.38" y2="1715.63" style="stroke:#000000;stroke-width:4.00"/>
	<text x="341.69" y="1733.14" style="font-family:'Helvetica';font-size:49.99px;fill:#000000" text-anchor="end">10</text>
	<line x1="394.86" y1="1565.52" x2="359.38" y2="1565.52" style="stroke:#000000;stroke-width:4.00"/>
	<text x="341.69" y="1583.03" style="font-family:'Helvetica';font-size:49.99px;fill:#000000" text-anchor="end">20</text>
	<line x1="394.86" y1="1415.41" x2="359.38" y2="1415.41" style="stroke:#000000;stroke-width:4.00"/>
	<text x="341.69" y="1432.92" style="font-family:'Helvetica';font-size:49.99px;fill:#000000" text-anchor="end">30</text>
	<line x1="394.86" y1="1265.22" x2="359.38" y2="1265.22" style="stroke:#000000;stroke-width:4.00"/>
	<text x="341.69" y="1282.73" style="font-family:'Helvetica';font-size:49.99px;fill:#000000" text-anchor="end">40</text>
	<line x1="394.86" y1="1115.11" x2="359.38" y2="1115.11" style="stroke:#000000;stroke-width:4.00"/>
	<text x="341.69" y="1132.62" style="font-family:'Helvetica';font-size:49.99px;fill:#000000" text-anchor="end">50</text>
	<line x1="394.86" y1="964.92" x2="359.38" y2="964.92" style="stroke:#000000;stroke-width:4.00"/>
	<text x="341.69" y="982.43" style="font-family:'Helvetica';font-size:49.99px;fill:#000000" text-anchor="end">60</text>
	<line x1="394.86" y1="814.81" x2="359.38" y2="814.81" style="stroke:#000000;stroke-width:4.00"/>
	<text x="341.69" y="832.32" style="font-family:'Helvetica';font-size:49.99px;fill:#000000" text-anchor="end">70</text>
	<line x1="394.86" y1="664.62" x2="359.38" y2="664.62" style="stroke:#000000;stroke-width:4.00"/>
	<text x="341.69" y="682.13" style="font-family:'Helvetica';font-size:49.99px;fill:#000000" text-anchor="end">80</text>
	<line x1="394.86" y1="514.50" x2="359.38" y2="514.50" style="stroke:#000000;stroke-width:4.00"/>
	<text x="341.69" y="532.02" style="font-family:'Helvetica';font-size:49.99px;fill:#000000" text-anchor="end">90</text>
	<line x1="394.86" y1="364.31" x2="359.38" y2="364.31" style="stroke:#000000;stroke-width:4.00"/>
	<text x="341.69" y="381.83" style="font-family:'Helvetica';font-size:49.99px;fill:#000000" text-anchor="end">100</text>
	<line x1="394.86" y1="1865.82" x2="394.86" y2="364.31" style="stroke:#000000;stroke-width:4.00"/>
	<text x="136.21" y="1076.84" style="font-family:'Helvetica';font-size:60.03px;fill:#000000" transform="rotate(-90 136.21,1076.84)" text-anchor="middle">Employment</text>
	<line x1="450.98" y1="1921.94" x2="450.98" y2="1957.33" style="stroke:#000000;stroke-width:4.00"/>
	<text x="450.98" y="2009.98" style="font-family:'Helvetica';font-size:49.99px;fill:#000000" text-anchor="middle">1976</text>
	<line x1="680.98" y1="1921.94" x2="680.98" y2="1957.33" style="stroke:#000000;stroke-width:4.00"/>
	<text x="680.98" y="2009.98" style="font-family:'Helvetica';font-size:49.99px;fill:#000000" text-anchor="middle">1981</text>
	<line x1="910.89" y1="1921.94" x2="910.89" y2="1957.33" style="stroke:#000000;stroke-width:4.00"/>
	<text x="910.89" y="2009.98" style="font-family:'Helvetica';font-size:49.99px;fill:#000000" text-anchor="middle">1986</text>
	<line x1="1140.89" y1="1921.94" x2="1140.89" y2="1957.33" style="stroke:#000000;stroke-width:4.00"/>
	<text x="1140.89" y="2009.98" style="font-family:'Helvetica';font-size:49.99px;fill:#000000" text-anchor="middle">1991</text>
	<line x1="1370.89" y1="1921.94" x2="1370.89" y2="1957.33" style="stroke:#000000;stroke-width:4.00"/>
	<text x="1370.89" y="2009.98" style="font-family:'Helvetica';font-size:49.99px;fill:#000000" text-anchor="middle">1996</text>
	<line x1="1600.88" y1="1921.94" x2="1600.88" y2="1957.33" style="stroke:#000000;stroke-width:4.00"/>
	<text x="1600.88" y="2009.98" style="font-family:'Helvetica';font-size:49.99px;fill:#000000" text-anchor="middle">2001</text>
	<line x1="1830.88" y1="1921.94" x2="1830.88" y2="1957.33" style="stroke:#000000;stroke-width:4.00"/>
	<text x="1830.88" y="2009.98" style="font-family:'Helvetica';font-size:49.99px;fill:#000000" text-anchor="middle">2006</text>
	<line x1="2060.79" y1="1921.94" x2="2060.79" y2="1957.33" style="stroke:#000000;stroke-width:4.00"/>
	<text x="2060.79" y="2009.98" style="font-family:'Helvetica';font-size:49.99px;fill:#000000" text-anchor="middle">2011</text>
	<line x1="2290.79" y1="1921.94" x2="2290.79" y2="1957.33" style="stroke:#000000;stroke-width:4.00"/>
	<text x="2290.79" y="2009.98" style="font-family:'Helvetica';font-size:49.99px;fill:#000000" text-anchor="middle">2016</text>
	<line x1="450.98" y1="1921.94" x2="2290.79" y2="1921.94" style="stroke:#000000;stroke-width:4.00"/>
	<text x="1332.62" y="2152.37" style="font-family:'Helvetica';font-size:60.03px;fill:#000000" text-anchor="middle">Year</text>
	<text x="145.41" y="2396.65" style="font-family:'Helvetica';font-size:60.03px;fill:#000000">Arr. cohort: </text>
	<text x="536.36" y="2396.65" style="font-family:'Helvetica';font-size:60.03px;fill:#000000">1964-73</text>
	<text x="845.12" y="2396.65" style="font-family:'Helvetica';font-size:60.03px;fill:#000000">1974-83</text>
	<text x="1153.89" y="2396.65" style="font-family:'Helvetica';font-size:60.03px;fill:#000000">1984-93</text>
	<text x="1462.65" y="2396.65" style="font-family:'Helvetica';font-size:60.03px;fill:#000000">1994-03</text>
	<text x="1771.41" y="2396.65" style="font-family:'Helvetica';font-size:60.03px;fill:#000000">2004-10</text>
	<text x="2080.17" y="2396.65" style="font-family:'Helvetica';font-size:60.03px;fill:#000000">German</text>
	<line x1="536.36" y1="2301.32" x2="737.26" y2="2301.32" style="stroke:#E69F00;stroke-width:10.00"/>
	<line x1="845.12" y1="2301.32" x2="1046.02" y2="2301.32" style="stroke:#56B4E9;stroke-width:10.00"/>
	<line x1="1153.89" y1="2301.32" x2="1354.78" y2="2301.32" style="stroke:#009E73;stroke-width:10.00"/>
	<line x1="1462.65" y1="2301.32" x2="1663.54" y2="2301.32" style="stroke:#D55E00;stroke-width:10.00"/>
	<line x1="1771.41" y1="2301.32" x2="1972.30" y2="2301.32" style="stroke:#CC79A7;stroke-width:10.00"/>
	<line x1="2080.17" y1="2301.32" x2="2131.19" y2="2301.32" style="stroke:#A0A0A0;stroke-width:10.00"/>
	<line x1="2156.70" y1="2301.32" x2="2207.72" y2="2301.32" style="stroke:#A0A0A0;stroke-width:10.00"/>
	<line x1="2233.23" y1="2301.32" x2="2278.03" y2="2301.32" style="stroke:#A0A0A0;stroke-width:10.00"/>
	<text x="1370.89" y="239.12" style="font-family:'Helvetica';font-size:60.03px;fill:#000000" text-anchor="middle">Percent</text>
	<text x="1370.89" y="154.88" style="font-family:'Helvetica';font-size:90.01px;fill:#000000" text-anchor="middle">Employment, Women</text>
</svg>
