<?xml version="1.0" encoding="UTF-8" standalone="no"?>
<!-- This is a Stata 15.1 generated SVG file (http://www.stata.com) -->

<svg version="1.1" width="3.54in" height="3.54in" viewBox="0 0 2551 2551" xmlns="http://www.w3.org/2000/svg" xmlns:xlink="http://www.w3.org/1999/xlink">
	<desc>Stata Graph - Graph</desc>
	<rect x="0" y="0" width="2551" height="2551" style="fill:#FFFFFF;stroke:none"/>
	<rect x="0.00" y="0.08" width="2551.00" height="2550.92" style="fill:#FFFFFF"/>
	<rect x="2.55" y="2.63" width="2545.90" height="2545.82" style="fill:none;stroke:#FFFFFF;stroke-width:5.10"/>
	<line x1="394.86" y1="1904.40" x2="2346.91" y2="1904.40" style="stroke:#E8E8E8;stroke-width:4.00"/>
	<line x1="394.86" y1="1739.30" x2="2346.91" y2="1739.30" style="stroke:#E8E8E8;stroke-width:4.00"/>
	<line x1="394.86" y1="1574.21" x2="2346.91" y2="1574.21" style="stroke:#E8E8E8;stroke-width:4.00"/>
	<line x1="394.86" y1="1409.11" x2="2346.91" y2="1409.11" style="stroke:#E8E8E8;stroke-width:4.00"/>
	<line x1="394.86" y1="1243.93" x2="2346.91" y2="1243.93" style="stroke:#E8E8E8;stroke-width:4.00"/>
	<line x1="394.86" y1="1078.83" x2="2346.91" y2="1078.83" style="stroke:#E8E8E8;stroke-width:4.00"/>
	<line x1="394.86" y1="913.74" x2="2346.91" y2="913.74" style="stroke:#E8E8E8;stroke-width:4.00"/>
	<line x1="394.86" y1="748.64" x2="2346.91" y2="748.64" style="stroke:#E8E8E8;stroke-width:4.00"/>
	<line x1="394.86" y1="583.54" x2="2346.91" y2="583.54" style="stroke:#E8E8E8;stroke-width:4.00"/>
	<line x1="394.86" y1="418.44" x2="2346.91" y2="418.44" style="stroke:#E8E8E8;stroke-width:4.00"/>
	<line x1="394.86" y1="253.35" x2="2346.91" y2="253.35" style="stroke:#E8E8E8;stroke-width:4.00"/>
	<line x1="450.98" y1="1960.52" x2="450.98" y2="197.22" style="stroke:#E8E8E8;stroke-width:4.00"/>
	<line x1="747.71" y1="1960.52" x2="747.71" y2="197.22" style="stroke:#E8E8E8;stroke-width:4.00"/>
	<line x1="1044.43" y1="1960.52" x2="1044.43" y2="197.22" style="stroke:#E8E8E8;stroke-width:4.00"/>
	<line x1="1341.23" y1="1960.52" x2="1341.23" y2="197.22" style="stroke:#E8E8E8;stroke-width:4.00"/>
	<line x1="1637.95" y1="1960.52" x2="1637.95" y2="197.22" style="stroke:#E8E8E8;stroke-width:4.00"/>
	<line x1="1934.68" y1="1960.52" x2="1934.68" y2="197.22" style="stroke:#E8E8E8;stroke-width:4.00"/>
	<line x1="2231.48" y1="1960.52" x2="2231.48" y2="197.22" style="stroke:#E8E8E8;stroke-width:4.00"/>
	<line x1="1163.13" y1="385.44" x2="1222.45" y2="380.10" stroke-linecap="round" style="stroke:#E69F00;stroke-width:10.00"/>
	<line x1="1222.45" y1="380.10" x2="1281.84" y2="397.16" stroke-linecap="round" style="stroke:#E69F00;stroke-width:10.00"/>
	<line x1="1281.84" y1="397.16" x2="1341.15" y2="389.27" stroke-linecap="round" style="stroke:#E69F00;stroke-width:10.00"/>
	<line x1="1341.15" y1="389.27" x2="1400.54" y2="409.99" stroke-linecap="round" style="stroke:#E69F00;stroke-width:10.00"/>
	<line x1="1400.54" y1="409.99" x2="1459.86" y2="406.33" stroke-linecap="round" style="stroke:#E69F00;stroke-width:10.00"/>
	<line x1="1459.86" y1="406.33" x2="1519.25" y2="411.51" stroke-linecap="round" style="stroke:#E69F00;stroke-width:10.00"/>
	<line x1="1519.25" y1="411.51" x2="1578.56" y2="445.31" stroke-linecap="round" style="stroke:#E69F00;stroke-width:10.00"/>
	<line x1="1578.56" y1="445.31" x2="1637.95" y2="417.33" stroke-linecap="round" style="stroke:#E69F00;stroke-width:10.00"/>
	<line x1="1637.95" y1="417.33" x2="1697.27" y2="431.76" stroke-linecap="round" style="stroke:#E69F00;stroke-width:10.00"/>
	<line x1="1697.27" y1="431.76" x2="1756.58" y2="502.07" stroke-linecap="round" style="stroke:#E69F00;stroke-width:10.00"/>
	<line x1="1756.58" y1="502.07" x2="1815.97" y2="549.66" stroke-linecap="round" style="stroke:#E69F00;stroke-width:10.00"/>
	<line x1="1815.97" y1="549.66" x2="1875.28" y2="546.63" stroke-linecap="round" style="stroke:#E69F00;stroke-width:10.00"/>
	<line x1="1875.28" y1="546.63" x2="1934.68" y2="580.91" stroke-linecap="round" style="stroke:#E69F00;stroke-width:10.00"/>
	<line x1="1934.68" y1="580.91" x2="1993.99" y2="654.73" stroke-linecap="round" style="stroke:#E69F00;stroke-width:10.00"/>
	<line x1="1993.99" y1="654.73" x2="2053.38" y2="649.23" stroke-linecap="round" style="stroke:#E69F00;stroke-width:10.00"/>
	<line x1="2053.38" y1="649.23" x2="2112.69" y2="627.79" stroke-linecap="round" style="stroke:#E69F00;stroke-width:10.00"/>
	<line x1="2112.69" y1="627.79" x2="2172.08" y2="602.20" stroke-linecap="round" style="stroke:#E69F00;stroke-width:10.00"/>
	<line x1="2172.08" y1="602.20" x2="2231.40" y2="614.31" stroke-linecap="round" style="stroke:#E69F00;stroke-width:10.00"/>
	<line x1="569.61" y1="675.06" x2="629.00" y2="684.62" stroke-linecap="round" style="stroke:#56B4E9;stroke-width:10.00"/>
	<line x1="629.00" y1="684.62" x2="688.31" y2="652.98" stroke-linecap="round" style="stroke:#56B4E9;stroke-width:10.00"/>
	<line x1="688.31" y1="652.98" x2="747.71" y2="670.67" stroke-linecap="round" style="stroke:#56B4E9;stroke-width:10.00"/>
	<line x1="747.71" y1="670.67" x2="807.02" y2="604.03" stroke-linecap="round" style="stroke:#56B4E9;stroke-width:10.00"/>
	<line x1="807.02" y1="604.03" x2="866.41" y2="588.32" stroke-linecap="round" style="stroke:#56B4E9;stroke-width:10.00"/>
	<line x1="866.41" y1="588.32" x2="925.72" y2="544.00" stroke-linecap="round" style="stroke:#56B4E9;stroke-width:10.00"/>
	<line x1="925.72" y1="544.00" x2="985.04" y2="524.55" stroke-linecap="round" style="stroke:#56B4E9;stroke-width:10.00"/>
	<line x1="985.04" y1="524.55" x2="1044.43" y2="506.29" stroke-linecap="round" style="stroke:#56B4E9;stroke-width:10.00"/>
	<line x1="1044.43" y1="506.29" x2="1103.74" y2="510.68" stroke-linecap="round" style="stroke:#56B4E9;stroke-width:10.00"/>
	<line x1="1103.74" y1="510.68" x2="1163.13" y2="483.26" stroke-linecap="round" style="stroke:#56B4E9;stroke-width:10.00"/>
	<line x1="1163.13" y1="483.26" x2="1222.45" y2="541.69" stroke-linecap="round" style="stroke:#56B4E9;stroke-width:10.00"/>
	<line x1="1222.45" y1="541.69" x2="1281.84" y2="512.19" stroke-linecap="round" style="stroke:#56B4E9;stroke-width:10.00"/>
	<line x1="1281.84" y1="512.19" x2="1341.15" y2="503.11" stroke-linecap="round" style="stroke:#56B4E9;stroke-width:10.00"/>
	<line x1="1341.15" y1="503.11" x2="1400.54" y2="550.06" stroke-linecap="round" style="stroke:#56B4E9;stroke-width:10.00"/>
	<line x1="1400.54" y1="550.06" x2="1459.86" y2="533.40" stroke-linecap="round" style="stroke:#56B4E9;stroke-width:10.00"/>
	<line x1="1459.86" y1="533.40" x2="1519.25" y2="535.95" stroke-linecap="round" style="stroke:#56B4E9;stroke-width:10.00"/>
	<line x1="1519.25" y1="535.95" x2="1578.56" y2="549.10" stroke-linecap="round" style="stroke:#56B4E9;stroke-width:10.00"/>
	<line x1="1578.56" y1="549.10" x2="1637.95" y2="569.59" stroke-linecap="round" style="stroke:#56B4E9;stroke-width:10.00"/>
	<line x1="1637.95" y1="569.59" x2="1697.27" y2="587.05" stroke-linecap="round" style="stroke:#56B4E9;stroke-width:10.00"/>
	<line x1="1697.27" y1="587.05" x2="1756.58" y2="565.76" stroke-linecap="round" style="stroke:#56B4E9;stroke-width:10.00"/>
	<line x1="1756.58" y1="565.76" x2="1815.97" y2="523.27" stroke-linecap="round" style="stroke:#56B4E9;stroke-width:10.00"/>
	<line x1="1815.97" y1="523.27" x2="1875.28" y2="554.05" stroke-linecap="round" style="stroke:#56B4E9;stroke-width:10.00"/>
	<line x1="1875.28" y1="554.05" x2="1934.68" y2="607.62" stroke-linecap="round" style="stroke:#56B4E9;stroke-width:10.00"/>
	<line x1="1934.68" y1="607.62" x2="1993.99" y2="574.37" stroke-linecap="round" style="stroke:#56B4E9;stroke-width:10.00"/>
	<line x1="1993.99" y1="574.37" x2="2053.38" y2="573.97" stroke-linecap="round" style="stroke:#56B4E9;stroke-width:10.00"/>
	<line x1="2053.38" y1="573.97" x2="2112.69" y2="668.76" stroke-linecap="round" style="stroke:#56B4E9;stroke-width:10.00"/>
	<line x1="2112.69" y1="668.76" x2="2172.08" y2="672.43" stroke-linecap="round" style="stroke:#56B4E9;stroke-width:10.00"/>
	<line x1="2172.08" y1="672.43" x2="2231.40" y2="765.06" stroke-linecap="round" style="stroke:#56B4E9;stroke-width:10.00"/>
	<line x1="510.30" y1="1048.38" x2="569.61" y2="867.50" stroke-linecap="round" style="stroke:#009E73;stroke-width:10.00"/>
	<line x1="569.61" y1="867.50" x2="629.00" y2="863.83" stroke-linecap="round" style="stroke:#009E73;stroke-width:10.00"/>
	<line x1="629.00" y1="863.83" x2="688.31" y2="819.27" stroke-linecap="round" style="stroke:#009E73;stroke-width:10.00"/>
	<line x1="688.31" y1="819.27" x2="747.71" y2="779.65" stroke-linecap="round" style="stroke:#009E73;stroke-width:10.00"/>
	<line x1="747.71" y1="779.65" x2="807.02" y2="732.62" stroke-linecap="round" style="stroke:#009E73;stroke-width:10.00"/>
	<line x1="807.02" y1="732.62" x2="866.41" y2="665.17" stroke-linecap="round" style="stroke:#009E73;stroke-width:10.00"/>
	<line x1="866.41" y1="665.17" x2="925.72" y2="640.38" stroke-linecap="round" style="stroke:#009E73;stroke-width:10.00"/>
	<line x1="925.72" y1="640.38" x2="985.04" y2="635.36" stroke-linecap="round" style="stroke:#009E73;stroke-width:10.00"/>
	<line x1="985.04" y1="635.36" x2="1044.43" y2="605.15" stroke-linecap="round" style="stroke:#009E73;stroke-width:10.00"/>
	<line x1="1044.43" y1="605.15" x2="1103.74" y2="599.33" stroke-linecap="round" style="stroke:#009E73;stroke-width:10.00"/>
	<line x1="1103.74" y1="599.33" x2="1163.13" y2="604.51" stroke-linecap="round" style="stroke:#009E73;stroke-width:10.00"/>
	<line x1="1163.13" y1="604.51" x2="1222.45" y2="610.96" stroke-linecap="round" style="stroke:#009E73;stroke-width:10.00"/>
	<line x1="1222.45" y1="610.96" x2="1281.84" y2="604.19" stroke-linecap="round" style="stroke:#009E73;stroke-width:10.00"/>
	<line x1="1281.84" y1="604.19" x2="1341.15" y2="609.77" stroke-linecap="round" style="stroke:#009E73;stroke-width:10.00"/>
	<line x1="1341.15" y1="609.77" x2="1400.54" y2="617.66" stroke-linecap="round" style="stroke:#009E73;stroke-width:10.00"/>
	<line x1="1400.54" y1="617.66" x2="1459.86" y2="584.58" stroke-linecap="round" style="stroke:#009E73;stroke-width:10.00"/>
	<line x1="1459.86" y1="584.58" x2="1519.25" y2="584.82" stroke-linecap="round" style="stroke:#009E73;stroke-width:10.00"/>
	<line x1="1519.25" y1="584.82" x2="1578.56" y2="589.12" stroke-linecap="round" style="stroke:#009E73;stroke-width:10.00"/>
	<line x1="1578.56" y1="589.12" x2="1637.95" y2="633.29" stroke-linecap="round" style="stroke:#009E73;stroke-width:10.00"/>
	<line x1="1637.95" y1="633.29" x2="1697.27" y2="572.70" stroke-linecap="round" style="stroke:#009E73;stroke-width:10.00"/>
	<line x1="1697.27" y1="572.70" x2="1756.58" y2="573.66" stroke-linecap="round" style="stroke:#009E73;stroke-width:10.00"/>
	<line x1="510.30" y1="1046.23" x2="569.61" y2="948.97" stroke-linecap="round" style="stroke:#D55E00;stroke-width:10.00"/>
	<line x1="569.61" y1="948.97" x2="629.00" y2="857.69" stroke-linecap="round" style="stroke:#D55E00;stroke-width:10.00"/>
	<line x1="629.00" y1="857.69" x2="688.31" y2="803.25" stroke-linecap="round" style="stroke:#D55E00;stroke-width:10.00"/>
	<line x1="688.31" y1="803.25" x2="747.71" y2="731.66" stroke-linecap="round" style="stroke:#D55E00;stroke-width:10.00"/>
	<line x1="747.71" y1="731.66" x2="807.02" y2="714.92" stroke-linecap="round" style="stroke:#D55E00;stroke-width:10.00"/>
	<line x1="807.02" y1="714.92" x2="866.41" y2="690.20" stroke-linecap="round" style="stroke:#D55E00;stroke-width:10.00"/>
	<line x1="866.41" y1="690.20" x2="925.72" y2="664.46" stroke-linecap="round" style="stroke:#D55E00;stroke-width:10.00"/>
	<line x1="925.72" y1="664.46" x2="985.04" y2="646.28" stroke-linecap="round" style="stroke:#D55E00;stroke-width:10.00"/>
	<line x1="985.04" y1="646.28" x2="1044.43" y2="615.67" stroke-linecap="round" style="stroke:#D55E00;stroke-width:10.00"/>
	<line x1="1044.43" y1="615.67" x2="1103.74" y2="582.90" stroke-linecap="round" style="stroke:#D55E00;stroke-width:10.00"/>
	<line x1="1103.74" y1="582.90" x2="1163.13" y2="561.78" stroke-linecap="round" style="stroke:#D55E00;stroke-width:10.00"/>
	<line x1="510.30" y1="859.85" x2="569.61" y2="750.07" stroke-linecap="round" style="stroke:#CC79A7;stroke-width:10.00"/>
	<line x1="569.61" y1="750.07" x2="629.00" y2="669.16" stroke-linecap="round" style="stroke:#CC79A7;stroke-width:10.00"/>
	<line x1="629.00" y1="669.16" x2="688.31" y2="609.85" stroke-linecap="round" style="stroke:#CC79A7;stroke-width:10.00"/>
	<line x1="688.31" y1="609.85" x2="747.71" y2="600.04" stroke-linecap="round" style="stroke:#CC79A7;stroke-width:10.00"/>
	<line x1="394.86" y1="1904.40" x2="359.38" y2="1904.40" style="stroke:#000000;stroke-width:4.00"/>
	<text x="341.69" y="1921.92" style="font-family:'Helvetica';font-size:49.99px;fill:#000000" text-anchor="end">0</text>
	<line x1="394.86" y1="1739.30" x2="359.38" y2="1739.30" style="stroke:#000000;stroke-width:4.00"/>
	<text x="341.69" y="1756.82" style="font-family:'Helvetica';font-size:49.99px;fill:#000000" text-anchor="end">10</text>
	<line x1="394.86" y1="1574.21" x2="359.38" y2="1574.21" style="stroke:#000000;stroke-width:4.00"/>
	<text x="341.69" y="1591.72" style="font-family:'Helvetica';font-size:49.99px;fill:#000000" text-anchor="end">20</text>
	<line x1="394.86" y1="1409.11" x2="359.38" y2="1409.11" style="stroke:#000000;stroke-width:4.00"/>
	<text x="341.69" y="1426.62" style="font-family:'Helvetica';font-size:49.99px;fill:#000000" text-anchor="end">30</text>
	<line x1="394.86" y1="1243.93" x2="359.38" y2="1243.93" style="stroke:#000000;stroke-width:4.00"/>
	<text x="341.69" y="1261.45" style="font-family:'Helvetica';font-size:49.99px;fill:#000000" text-anchor="end">40</text>
	<line x1="394.86" y1="1078.83" x2="359.38" y2="1078.83" style="stroke:#000000;stroke-width:4.00"/>
	<text x="341.69" y="1096.35" style="font-family:'Helvetica';font-size:49.99px;fill:#000000" text-anchor="end">50</text>
	<line x1="394.86" y1="913.74" x2="359.38" y2="913.74" style="stroke:#000000;stroke-width:4.00"/>
	<text x="341.69" y="931.25" style="font-family:'Helvetica';font-size:49.99px;fill:#000000" text-anchor="end">60</text>
	<line x1="394.86" y1="748.64" x2="359.38" y2="748.64" style="stroke:#000000;stroke-width:4.00"/>
	<text x="341.69" y="766.15" style="font-family:'Helvetica';font-size:49.99px;fill:#000000" text-anchor="end">70</text>
	<line x1="394.86" y1="583.54" x2="359.38" y2="583.54" style="stroke:#000000;stroke-width:4.00"/>
	<text x="341.69" y="601.06" style="font-family:'Helvetica';font-size:49.99px;fill:#000000" text-anchor="end">80</text>
	<line x1="394.86" y1="418.44" x2="359.38" y2="418.44" style="stroke:#000000;stroke-width:4.00"/>
	<text x="341.69" y="435.96" style="font-family:'Helvetica';font-size:49.99px;fill:#000000" text-anchor="end">90</text>
	<line x1="394.86" y1="253.35" x2="359.38" y2="253.35" style="stroke:#000000;stroke-width:4.00"/>
	<text x="341.69" y="270.86" style="font-family:'Helvetica';font-size:49.99px;fill:#000000" text-anchor="end">100</text>
	<line x1="394.86" y1="1904.40" x2="394.86" y2="253.35" style="stroke:#000000;stroke-width:4.00"/>
	<text x="136.21" y="1040.57" style="font-family:'Helvetica';font-size:60.03px;fill:#000000" transform="rotate(-90 136.21,1040.57)" text-anchor="middle">Employment rate (in %)</text>
	<line x1="450.98" y1="1960.52" x2="450.98" y2="1995.92" style="stroke:#000000;stroke-width:4.00"/>
	<text x="450.98" y="2048.56" style="font-family:'Helvetica';font-size:49.99px;fill:#000000" text-anchor="middle">0</text>
	<line x1="747.71" y1="1960.52" x2="747.71" y2="1995.92" style="stroke:#000000;stroke-width:4.00"/>
	<text x="747.71" y="2048.56" style="font-family:'Helvetica';font-size:49.99px;fill:#000000" text-anchor="middle">5</text>
	<line x1="1044.43" y1="1960.52" x2="1044.43" y2="1995.92" style="stroke:#000000;stroke-width:4.00"/>
	<text x="1044.43" y="2048.56" style="font-family:'Helvetica';font-size:49.99px;fill:#000000" text-anchor="middle">10</text>
	<line x1="1341.23" y1="1960.52" x2="1341.23" y2="1995.92" style="stroke:#000000;stroke-width:4.00"/>
	<text x="1341.23" y="2048.56" style="font-family:'Helvetica';font-size:49.99px;fill:#000000" text-anchor="middle">15</text>
	<line x1="1637.95" y1="1960.52" x2="1637.95" y2="1995.92" style="stroke:#000000;stroke-width:4.00"/>
	<text x="1637.95" y="2048.56" style="font-family:'Helvetica';font-size:49.99px;fill:#000000" text-anchor="middle">20</text>
	<line x1="1934.68" y1="1960.52" x2="1934.68" y2="1995.92" style="stroke:#000000;stroke-width:4.00"/>
	<text x="1934.68" y="2048.56" style="font-family:'Helvetica';font-size:49.99px;fill:#000000" text-anchor="middle">25</text>
	<line x1="2231.48" y1="1960.52" x2="2231.48" y2="1995.92" style="stroke:#000000;stroke-width:4.00"/>
	<text x="2231.48" y="2048.56" style="font-family:'Helvetica';font-size:49.99px;fill:#000000" text-anchor="middle">30</text>
	<line x1="450.98" y1="1960.52" x2="2290.79" y2="1960.52" style="stroke:#000000;stroke-width:4.00"/>
	<text x="1332.62" y="2190.96" style="font-family:'Helvetica';font-size:60.03px;fill:#000000" text-anchor="middle">Duration of stay</text>
	<text x="161.52" y="2396.65" style="font-family:'Helvetica';font-size:60.03px;fill:#000000">Arr. cohort: </text>
	<text x="610.98" y="2396.65" style="font-family:'Helvetica';font-size:60.03px;fill:#000000">1964-73</text>
	<text x="965.98" y="2396.65" style="font-family:'Helvetica';font-size:60.03px;fill:#000000">1974-83</text>
	<text x="1320.98" y="2396.65" style="font-family:'Helvetica';font-size:60.03px;fill:#000000">1984-93</text>
	<text x="1675.98" y="2396.65" style="font-family:'Helvetica';font-size:60.03px;fill:#000000">1994-03</text>
	<text x="2030.98" y="2396.65" style="font-family:'Helvetica';font-size:60.03px;fill:#000000">2004-10</text>
	<line x1="610.98" y1="2320.61" x2="831.01" y2="2320.61" style="stroke:#E69F00;stroke-width:10.00"/>
	<line x1="965.98" y1="2320.61" x2="1185.93" y2="2320.61" style="stroke:#56B4E9;stroke-width:10.00"/>
	<line x1="1320.98" y1="2320.61" x2="1540.93" y2="2320.61" style="stroke:#009E73;stroke-width:10.00"/>
	<line x1="1675.98" y1="2320.61" x2="1895.93" y2="2320.61" style="stroke:#D55E00;stroke-width:10.00"/>
	<line x1="2030.98" y1="2320.61" x2="2250.93" y2="2320.61" style="stroke:#CC79A7;stroke-width:10.00"/>
	<text x="1370.89" y="154.88" style="font-family:'Helvetica';font-size:90.01px;fill:#000000" text-anchor="middle">Men</text>
</svg>
