<?xml version="1.0" encoding="UTF-8" standalone="no"?>
<!-- This is a Stata 15.1 generated SVG file (http://www.stata.com) -->

<svg version="1.1" width="3.54in" height="3.54in" viewBox="0 0 2551 2551" xmlns="http://www.w3.org/2000/svg" xmlns:xlink="http://www.w3.org/1999/xlink">
	<desc>Stata Graph - Graph</desc>
	<rect x="0" y="0" width="2551" height="2551" style="fill:#FFFFFF;stroke:none"/>
	<rect x="0.00" y="0.08" width="2551.00" height="2550.92" style="fill:#FFFFFF"/>
	<rect x="2.55" y="2.63" width="2545.90" height="2545.82" style="fill:none;stroke:#FFFFFF;stroke-width:5.10"/>
	<line x1="351.09" y1="1904.40" x2="2346.91" y2="1904.40" style="stroke:#E8E8E8;stroke-width:4.00"/>
	<line x1="351.09" y1="1750.38" x2="2346.91" y2="1750.38" style="stroke:#E8E8E8;stroke-width:4.00"/>
	<line x1="351.09" y1="1596.37" x2="2346.91" y2="1596.37" style="stroke:#E8E8E8;stroke-width:4.00"/>
	<line x1="351.09" y1="1442.35" x2="2346.91" y2="1442.35" style="stroke:#E8E8E8;stroke-width:4.00"/>
	<line x1="351.09" y1="1288.33" x2="2346.91" y2="1288.33" style="stroke:#E8E8E8;stroke-width:4.00"/>
	<line x1="351.09" y1="1134.40" x2="2346.91" y2="1134.40" style="stroke:#E8E8E8;stroke-width:4.00"/>
	<line x1="351.09" y1="980.38" x2="2346.91" y2="980.38" style="stroke:#E8E8E8;stroke-width:4.00"/>
	<line x1="351.09" y1="826.36" x2="2346.91" y2="826.36" style="stroke:#E8E8E8;stroke-width:4.00"/>
	<line x1="351.09" y1="672.35" x2="2346.91" y2="672.35" style="stroke:#E8E8E8;stroke-width:4.00"/>
	<line x1="351.09" y1="518.33" x2="2346.91" y2="518.33" style="stroke:#E8E8E8;stroke-width:4.00"/>
	<line x1="351.09" y1="364.31" x2="2346.91" y2="364.31" style="stroke:#E8E8E8;stroke-width:4.00"/>
	<line x1="407.22" y1="1960.52" x2="407.22" y2="308.19" style="stroke:#E8E8E8;stroke-width:4.00"/>
	<line x1="642.63" y1="1960.52" x2="642.63" y2="308.19" style="stroke:#E8E8E8;stroke-width:4.00"/>
	<line x1="878.13" y1="1960.52" x2="878.13" y2="308.19" style="stroke:#E8E8E8;stroke-width:4.00"/>
	<line x1="1113.55" y1="1960.52" x2="1113.55" y2="308.19" style="stroke:#E8E8E8;stroke-width:4.00"/>
	<line x1="1349.04" y1="1960.52" x2="1349.04" y2="308.19" style="stroke:#E8E8E8;stroke-width:4.00"/>
	<line x1="1584.46" y1="1960.52" x2="1584.46" y2="308.19" style="stroke:#E8E8E8;stroke-width:4.00"/>
	<line x1="1819.88" y1="1960.52" x2="1819.88" y2="308.19" style="stroke:#E8E8E8;stroke-width:4.00"/>
	<line x1="2055.37" y1="1960.52" x2="2055.37" y2="308.19" style="stroke:#E8E8E8;stroke-width:4.00"/>
	<line x1="2290.79" y1="1960.52" x2="2290.79" y2="308.19" style="stroke:#E8E8E8;stroke-width:4.00"/>
	<line x1="407.22" y1="1718.58" x2="501.37" y2="1705.42" stroke-linecap="round" style="stroke:#E69F00;stroke-width:10.00"/>
	<line x1="501.37" y1="1705.42" x2="595.52" y2="1709.33" stroke-linecap="round" style="stroke:#E69F00;stroke-width:10.00"/>
	<line x1="595.52" y1="1709.33" x2="689.75" y2="1636.47" stroke-linecap="round" style="stroke:#E69F00;stroke-width:10.00"/>
	<line x1="689.75" y1="1636.47" x2="831.01" y2="1657.51" stroke-linecap="round" style="stroke:#E69F00;stroke-width:10.00"/>
	<line x1="831.01" y1="1657.51" x2="925.17" y2="1652.73" stroke-linecap="round" style="stroke:#E69F00;stroke-width:10.00"/>
	<line x1="925.17" y1="1652.73" x2="1019.32" y2="1632.32" stroke-linecap="round" style="stroke:#E69F00;stroke-width:10.00"/>
	<line x1="1019.32" y1="1632.32" x2="1113.55" y2="1618.13" stroke-linecap="round" style="stroke:#E69F00;stroke-width:10.00"/>
	<line x1="1113.55" y1="1618.13" x2="1207.70" y2="1545.59" stroke-linecap="round" style="stroke:#E69F00;stroke-width:10.00"/>
	<line x1="1207.70" y1="1545.59" x2="1301.85" y2="1544.23" stroke-linecap="round" style="stroke:#E69F00;stroke-width:10.00"/>
	<line x1="1301.85" y1="1544.23" x2="1348.96" y2="1550.85" stroke-linecap="round" style="stroke:#E69F00;stroke-width:10.00"/>
	<line x1="1348.96" y1="1550.85" x2="1396.08" y2="1516.65" stroke-linecap="round" style="stroke:#E69F00;stroke-width:10.00"/>
	<line x1="1396.08" y1="1516.65" x2="1443.11" y2="1519.12" stroke-linecap="round" style="stroke:#E69F00;stroke-width:10.00"/>
	<line x1="1443.11" y1="1519.12" x2="1490.23" y2="1497.92" stroke-linecap="round" style="stroke:#E69F00;stroke-width:10.00"/>
	<line x1="1490.23" y1="1497.92" x2="1537.34" y2="1580.58" stroke-linecap="round" style="stroke:#E69F00;stroke-width:10.00"/>
	<line x1="1537.34" y1="1580.58" x2="1584.38" y2="1516.73" stroke-linecap="round" style="stroke:#E69F00;stroke-width:10.00"/>
	<line x1="1584.38" y1="1516.73" x2="1631.50" y2="1523.35" stroke-linecap="round" style="stroke:#E69F00;stroke-width:10.00"/>
	<line x1="1631.50" y1="1523.35" x2="1678.61" y2="1545.83" stroke-linecap="round" style="stroke:#E69F00;stroke-width:10.00"/>
	<line x1="831.01" y1="1599.56" x2="925.17" y2="1564.56" stroke-linecap="round" style="stroke:#56B4E9;stroke-width:10.00"/>
	<line x1="925.17" y1="1564.56" x2="1019.32" y2="1477.35" stroke-linecap="round" style="stroke:#56B4E9;stroke-width:10.00"/>
	<line x1="1019.32" y1="1477.35" x2="1113.55" y2="1504.61" stroke-linecap="round" style="stroke:#56B4E9;stroke-width:10.00"/>
	<line x1="1113.55" y1="1504.61" x2="1207.70" y2="1453.83" stroke-linecap="round" style="stroke:#56B4E9;stroke-width:10.00"/>
	<line x1="1207.70" y1="1453.83" x2="1301.85" y2="1421.15" stroke-linecap="round" style="stroke:#56B4E9;stroke-width:10.00"/>
	<line x1="1301.85" y1="1421.15" x2="1348.96" y2="1445.38" stroke-linecap="round" style="stroke:#56B4E9;stroke-width:10.00"/>
	<line x1="1348.96" y1="1445.38" x2="1396.08" y2="1419.63" stroke-linecap="round" style="stroke:#56B4E9;stroke-width:10.00"/>
	<line x1="1396.08" y1="1419.63" x2="1443.11" y2="1471.37" stroke-linecap="round" style="stroke:#56B4E9;stroke-width:10.00"/>
	<line x1="1443.11" y1="1471.37" x2="1490.23" y2="1395.32" stroke-linecap="round" style="stroke:#56B4E9;stroke-width:10.00"/>
	<line x1="1490.23" y1="1395.32" x2="1537.34" y2="1438.52" stroke-linecap="round" style="stroke:#56B4E9;stroke-width:10.00"/>
	<line x1="1537.34" y1="1438.52" x2="1584.38" y2="1455.82" stroke-linecap="round" style="stroke:#56B4E9;stroke-width:10.00"/>
	<line x1="1584.38" y1="1455.82" x2="1631.50" y2="1367.02" stroke-linecap="round" style="stroke:#56B4E9;stroke-width:10.00"/>
	<line x1="1631.50" y1="1367.02" x2="1678.61" y2="1377.54" stroke-linecap="round" style="stroke:#56B4E9;stroke-width:10.00"/>
	<line x1="1678.61" y1="1377.54" x2="1725.65" y2="1402.25" stroke-linecap="round" style="stroke:#56B4E9;stroke-width:10.00"/>
	<line x1="1725.65" y1="1402.25" x2="1772.76" y2="1403.45" stroke-linecap="round" style="stroke:#56B4E9;stroke-width:10.00"/>
	<line x1="1772.76" y1="1403.45" x2="1819.88" y2="1386.31" stroke-linecap="round" style="stroke:#56B4E9;stroke-width:10.00"/>
	<line x1="1819.88" y1="1386.31" x2="1866.99" y2="1413.65" stroke-linecap="round" style="stroke:#56B4E9;stroke-width:10.00"/>
	<line x1="1866.99" y1="1413.65" x2="1914.03" y2="1497.28" stroke-linecap="round" style="stroke:#56B4E9;stroke-width:10.00"/>
	<line x1="1914.03" y1="1497.28" x2="1961.14" y2="1312.09" stroke-linecap="round" style="stroke:#56B4E9;stroke-width:10.00"/>
	<line x1="1961.14" y1="1312.09" x2="2008.26" y2="1333.22" stroke-linecap="round" style="stroke:#56B4E9;stroke-width:10.00"/>
	<line x1="2008.26" y1="1333.22" x2="2055.29" y2="1398.59" stroke-linecap="round" style="stroke:#56B4E9;stroke-width:10.00"/>
	<line x1="2055.29" y1="1398.59" x2="2102.41" y2="1387.27" stroke-linecap="round" style="stroke:#56B4E9;stroke-width:10.00"/>
	<line x1="1301.85" y1="1509.39" x2="1348.96" y2="1489.39" stroke-linecap="round" style="stroke:#009E73;stroke-width:10.00"/>
	<line x1="1348.96" y1="1489.39" x2="1396.08" y2="1465.15" stroke-linecap="round" style="stroke:#009E73;stroke-width:10.00"/>
	<line x1="1396.08" y1="1465.15" x2="1443.11" y2="1466.35" stroke-linecap="round" style="stroke:#009E73;stroke-width:10.00"/>
	<line x1="1443.11" y1="1466.35" x2="1490.23" y2="1437.65" stroke-linecap="round" style="stroke:#009E73;stroke-width:10.00"/>
	<line x1="1490.23" y1="1437.65" x2="1537.34" y2="1527.81" stroke-linecap="round" style="stroke:#009E73;stroke-width:10.00"/>
	<line x1="1537.34" y1="1527.81" x2="1584.38" y2="1441.32" stroke-linecap="round" style="stroke:#009E73;stroke-width:10.00"/>
	<line x1="1584.38" y1="1441.32" x2="1631.50" y2="1421.70" stroke-linecap="round" style="stroke:#009E73;stroke-width:10.00"/>
	<line x1="1631.50" y1="1421.70" x2="1678.61" y2="1430.71" stroke-linecap="round" style="stroke:#009E73;stroke-width:10.00"/>
	<line x1="1678.61" y1="1430.71" x2="1725.65" y2="1426.49" stroke-linecap="round" style="stroke:#009E73;stroke-width:10.00"/>
	<line x1="1725.65" y1="1426.49" x2="1772.76" y2="1365.58" stroke-linecap="round" style="stroke:#009E73;stroke-width:10.00"/>
	<line x1="1772.76" y1="1365.58" x2="1819.88" y2="1402.81" stroke-linecap="round" style="stroke:#009E73;stroke-width:10.00"/>
	<line x1="1819.88" y1="1402.81" x2="1866.99" y2="1338.16" stroke-linecap="round" style="stroke:#009E73;stroke-width:10.00"/>
	<line x1="1866.99" y1="1338.16" x2="1914.03" y2="1356.02" stroke-linecap="round" style="stroke:#009E73;stroke-width:10.00"/>
	<line x1="1914.03" y1="1356.02" x2="1961.14" y2="1287.38" stroke-linecap="round" style="stroke:#009E73;stroke-width:10.00"/>
	<line x1="1961.14" y1="1287.38" x2="2008.26" y2="1313.37" stroke-linecap="round" style="stroke:#009E73;stroke-width:10.00"/>
	<line x1="2008.26" y1="1313.37" x2="2055.29" y2="1324.61" stroke-linecap="round" style="stroke:#009E73;stroke-width:10.00"/>
	<line x1="2055.29" y1="1324.61" x2="2102.41" y2="1302.68" stroke-linecap="round" style="stroke:#009E73;stroke-width:10.00"/>
	<line x1="2102.41" y1="1302.68" x2="2149.52" y2="1243.53" stroke-linecap="round" style="stroke:#009E73;stroke-width:10.00"/>
	<line x1="2149.52" y1="1243.53" x2="2196.56" y2="1274.86" stroke-linecap="round" style="stroke:#009E73;stroke-width:10.00"/>
	<line x1="2196.56" y1="1274.86" x2="2243.67" y2="1324.53" stroke-linecap="round" style="stroke:#009E73;stroke-width:10.00"/>
	<line x1="1725.65" y1="1440.84" x2="1772.76" y2="1401.06" stroke-linecap="round" style="stroke:#D55E00;stroke-width:10.00"/>
	<line x1="1772.76" y1="1401.06" x2="1819.88" y2="1409.67" stroke-linecap="round" style="stroke:#D55E00;stroke-width:10.00"/>
	<line x1="1819.88" y1="1409.67" x2="1866.99" y2="1345.25" stroke-linecap="round" style="stroke:#D55E00;stroke-width:10.00"/>
	<line x1="1866.99" y1="1345.25" x2="1914.03" y2="1394.84" stroke-linecap="round" style="stroke:#D55E00;stroke-width:10.00"/>
	<line x1="1914.03" y1="1394.84" x2="1961.14" y2="1358.89" stroke-linecap="round" style="stroke:#D55E00;stroke-width:10.00"/>
	<line x1="1961.14" y1="1358.89" x2="2008.26" y2="1338.64" stroke-linecap="round" style="stroke:#D55E00;stroke-width:10.00"/>
	<line x1="2008.26" y1="1338.64" x2="2055.29" y2="1314.80" stroke-linecap="round" style="stroke:#D55E00;stroke-width:10.00"/>
	<line x1="2055.29" y1="1314.80" x2="2102.41" y2="1299.34" stroke-linecap="round" style="stroke:#D55E00;stroke-width:10.00"/>
	<line x1="2102.41" y1="1299.34" x2="2149.52" y2="1312.57" stroke-linecap="round" style="stroke:#D55E00;stroke-width:10.00"/>
	<line x1="2149.52" y1="1312.57" x2="2196.56" y2="1292.00" stroke-linecap="round" style="stroke:#D55E00;stroke-width:10.00"/>
	<line x1="2196.56" y1="1292.00" x2="2243.67" y2="1300.93" stroke-linecap="round" style="stroke:#D55E00;stroke-width:10.00"/>
	<line x1="2055.29" y1="1423.46" x2="2102.41" y2="1391.73" stroke-linecap="round" style="stroke:#CC79A7;stroke-width:10.00"/>
	<line x1="2102.41" y1="1391.73" x2="2149.52" y2="1392.37" stroke-linecap="round" style="stroke:#CC79A7;stroke-width:10.00"/>
	<line x1="2149.52" y1="1392.37" x2="2196.56" y2="1364.31" stroke-linecap="round" style="stroke:#CC79A7;stroke-width:10.00"/>
	<line x1="2196.56" y1="1364.31" x2="2243.67" y2="1397.63" stroke-linecap="round" style="stroke:#CC79A7;stroke-width:10.00"/>
	<line x1="407.22" y1="1390.85" x2="458.16" y2="1393.48" style="stroke:#A0A0A0;stroke-width:10.00"/>
	<line x1="483.67" y1="1394.84" x2="501.37" y2="1395.80" style="stroke:#A0A0A0;stroke-width:10.00"/>
	<line x1="501.37" y1="1395.80" x2="534.53" y2="1393.48" style="stroke:#A0A0A0;stroke-width:10.00"/>
	<line x1="559.96" y1="1391.65" x2="595.52" y2="1389.18" style="stroke:#A0A0A0;stroke-width:10.00"/>
	<line x1="595.52" y1="1389.18" x2="610.66" y2="1386.31" style="stroke:#A0A0A0;stroke-width:10.00"/>
	<line x1="635.70" y1="1381.53" x2="685.84" y2="1372.04" style="stroke:#A0A0A0;stroke-width:10.00"/>
	<line x1="711.19" y1="1373.63" x2="761.90" y2="1379.29" style="stroke:#A0A0A0;stroke-width:10.00"/>
	<line x1="787.25" y1="1382.16" x2="831.01" y2="1387.03" style="stroke:#A0A0A0;stroke-width:10.00"/>
	<line x1="831.01" y1="1387.03" x2="837.95" y2="1387.50" style="stroke:#A0A0A0;stroke-width:10.00"/>
	<line x1="863.46" y1="1389.26" x2="914.32" y2="1392.77" style="stroke:#A0A0A0;stroke-width:10.00"/>
	<line x1="939.75" y1="1391.89" x2="990.46" y2="1386.15" style="stroke:#A0A0A0;stroke-width:10.00"/>
	<line x1="1015.81" y1="1383.36" x2="1019.32" y2="1382.96" style="stroke:#A0A0A0;stroke-width:10.00"/>
	<line x1="1019.32" y1="1382.96" x2="1066.75" y2="1383.20" style="stroke:#A0A0A0;stroke-width:10.00"/>
	<line x1="1092.26" y1="1383.36" x2="1113.55" y2="1383.52" style="stroke:#A0A0A0;stroke-width:10.00"/>
	<line x1="1113.55" y1="1383.52" x2="1143.28" y2="1382.24" style="stroke:#A0A0A0;stroke-width:10.00"/>
	<line x1="1168.79" y1="1381.13" x2="1207.70" y2="1379.45" style="stroke:#A0A0A0;stroke-width:10.00"/>
	<line x1="1207.70" y1="1379.45" x2="1219.73" y2="1379.85" style="stroke:#A0A0A0;stroke-width:10.00"/>
	<line x1="1245.25" y1="1380.65" x2="1296.27" y2="1382.24" style="stroke:#A0A0A0;stroke-width:10.00"/>
	<line x1="1321.30" y1="1386.63" x2="1348.96" y2="1392.61" style="stroke:#A0A0A0;stroke-width:10.00"/>
	<line x1="1348.96" y1="1392.61" x2="1371.52" y2="1389.90" style="stroke:#A0A0A0;stroke-width:10.00"/>
	<line x1="1396.88" y1="1386.87" x2="1443.11" y2="1382.56" style="stroke:#A0A0A0;stroke-width:10.00"/>
	<line x1="1443.11" y1="1382.56" x2="1447.66" y2="1381.92" style="stroke:#A0A0A0;stroke-width:10.00"/>
	<line x1="1472.93" y1="1378.26" x2="1490.23" y2="1375.79" style="stroke:#A0A0A0;stroke-width:10.00"/>
	<line x1="1490.23" y1="1375.79" x2="1523.71" y2="1374.11" style="stroke:#A0A0A0;stroke-width:10.00"/>
	<line x1="1549.14" y1="1372.20" x2="1584.38" y2="1368.69" style="stroke:#A0A0A0;stroke-width:10.00"/>
	<line x1="1584.38" y1="1368.69" x2="1599.85" y2="1366.54" style="stroke:#A0A0A0;stroke-width:10.00"/>
	<line x1="1625.12" y1="1362.95" x2="1631.50" y2="1362.07" style="stroke:#A0A0A0;stroke-width:10.00"/>
	<line x1="1631.50" y1="1362.07" x2="1674.15" y2="1349.16" style="stroke:#A0A0A0;stroke-width:10.00"/>
	<line x1="1699.50" y1="1348.44" x2="1725.65" y2="1349.32" style="stroke:#A0A0A0;stroke-width:10.00"/>
	<line x1="1725.65" y1="1349.32" x2="1749.48" y2="1342.07" style="stroke:#A0A0A0;stroke-width:10.00"/>
	<line x1="1773.88" y1="1335.29" x2="1819.88" y2="1345.81" style="stroke:#A0A0A0;stroke-width:10.00"/>
	<line x1="1819.88" y1="1345.81" x2="1823.70" y2="1345.57" style="stroke:#A0A0A0;stroke-width:10.00"/>
	<line x1="1849.13" y1="1343.58" x2="1866.99" y2="1342.22" style="stroke:#A0A0A0;stroke-width:10.00"/>
	<line x1="1866.99" y1="1342.22" x2="1899.92" y2="1338.40" style="stroke:#A0A0A0;stroke-width:10.00"/>
	<line x1="1924.31" y1="1332.02" x2="1961.14" y2="1315.12" style="stroke:#A0A0A0;stroke-width:10.00"/>
	<line x1="1961.14" y1="1315.12" x2="1971.67" y2="1314.96" style="stroke:#A0A0A0;stroke-width:10.00"/>
	<line x1="1997.18" y1="1314.56" x2="2008.26" y2="1314.40" style="stroke:#A0A0A0;stroke-width:10.00"/>
	<line x1="2008.26" y1="1314.40" x2="2048.12" y2="1315.92" style="stroke:#A0A0A0;stroke-width:10.00"/>
	<line x1="2073.07" y1="1311.61" x2="2102.41" y2="1304.12" style="stroke:#A0A0A0;stroke-width:10.00"/>
	<line x1="2102.41" y1="1304.12" x2="2122.58" y2="1299.34" style="stroke:#A0A0A0;stroke-width:10.00"/>
	<line x1="2147.45" y1="1293.44" x2="2149.52" y2="1292.96" style="stroke:#A0A0A0;stroke-width:10.00"/>
	<line x1="2149.52" y1="1292.96" x2="2196.56" y2="1292.72" style="stroke:#A0A0A0;stroke-width:10.00"/>
	<line x1="2196.56" y1="1292.72" x2="2198.39" y2="1292.96" style="stroke:#A0A0A0;stroke-width:10.00"/>
	<line x1="2223.74" y1="1295.91" x2="2243.67" y2="1298.22" style="stroke:#A0A0A0;stroke-width:10.00"/>
	<line x1="351.09" y1="1904.40" x2="315.70" y2="1904.40" style="stroke:#000000;stroke-width:4.00"/>
	<text x="297.92" y="1921.92" style="font-family:'Helvetica';font-size:49.99px;fill:#000000" text-anchor="end">0</text>
	<line x1="351.09" y1="1750.38" x2="315.70" y2="1750.38" style="stroke:#000000;stroke-width:4.00"/>
	<text x="297.92" y="1767.90" style="font-family:'Helvetica';font-size:49.99px;fill:#000000" text-anchor="end">.1</text>
	<line x1="351.09" y1="1596.37" x2="315.70" y2="1596.37" style="stroke:#000000;stroke-width:4.00"/>
	<text x="297.92" y="1613.88" style="font-family:'Helvetica';font-size:49.99px;fill:#000000" text-anchor="end">.2</text>
	<line x1="351.09" y1="1442.35" x2="315.70" y2="1442.35" style="stroke:#000000;stroke-width:4.00"/>
	<text x="297.92" y="1459.87" style="font-family:'Helvetica';font-size:49.99px;fill:#000000" text-anchor="end">.3</text>
	<line x1="351.09" y1="1288.33" x2="315.70" y2="1288.33" style="stroke:#000000;stroke-width:4.00"/>
	<text x="297.92" y="1305.85" style="font-family:'Helvetica';font-size:49.99px;fill:#000000" text-anchor="end">.4</text>
	<line x1="351.09" y1="1134.40" x2="315.70" y2="1134.40" style="stroke:#000000;stroke-width:4.00"/>
	<text x="297.92" y="1151.91" style="font-family:'Helvetica';font-size:49.99px;fill:#000000" text-anchor="end">.5</text>
	<line x1="351.09" y1="980.38" x2="315.70" y2="980.38" style="stroke:#000000;stroke-width:4.00"/>
	<text x="297.92" y="997.90" style="font-family:'Helvetica';font-size:49.99px;fill:#000000" text-anchor="end">.6</text>
	<line x1="351.09" y1="826.36" x2="315.70" y2="826.36" style="stroke:#000000;stroke-width:4.00"/>
	<text x="297.92" y="843.88" style="font-family:'Helvetica';font-size:49.99px;fill:#000000" text-anchor="end">.7</text>
	<line x1="351.09" y1="672.35" x2="315.70" y2="672.35" style="stroke:#000000;stroke-width:4.00"/>
	<text x="297.92" y="689.86" style="font-family:'Helvetica';font-size:49.99px;fill:#000000" text-anchor="end">.8</text>
	<line x1="351.09" y1="518.33" x2="315.70" y2="518.33" style="stroke:#000000;stroke-width:4.00"/>
	<text x="297.92" y="535.85" style="font-family:'Helvetica';font-size:49.99px;fill:#000000" text-anchor="end">.9</text>
	<line x1="351.09" y1="364.31" x2="315.70" y2="364.31" style="stroke:#000000;stroke-width:4.00"/>
	<text x="297.92" y="381.83" style="font-family:'Helvetica';font-size:49.99px;fill:#000000" text-anchor="end">1</text>
	<line x1="351.09" y1="1904.40" x2="351.09" y2="364.31" style="stroke:#000000;stroke-width:4.00"/>
	<text x="136.21" y="1096.13" style="font-family:'Helvetica';font-size:60.03px;fill:#000000" transform="rotate(-90 136.21,1096.13)" text-anchor="middle">Part-time employment</text>
	<line x1="407.22" y1="1960.52" x2="407.22" y2="1995.92" style="stroke:#000000;stroke-width:4.00"/>
	<text x="407.22" y="2048.56" style="font-family:'Helvetica';font-size:49.99px;fill:#000000" text-anchor="middle">1976</text>
	<line x1="642.63" y1="1960.52" x2="642.63" y2="1995.92" style="stroke:#000000;stroke-width:4.00"/>
	<text x="642.63" y="2048.56" style="font-family:'Helvetica';font-size:49.99px;fill:#000000" text-anchor="middle">1981</text>
	<line x1="878.13" y1="1960.52" x2="878.13" y2="1995.92" style="stroke:#000000;stroke-width:4.00"/>
	<text x="878.13" y="2048.56" style="font-family:'Helvetica';font-size:49.99px;fill:#000000" text-anchor="middle">1986</text>
	<line x1="1113.55" y1="1960.52" x2="1113.55" y2="1995.92" style="stroke:#000000;stroke-width:4.00"/>
	<text x="1113.55" y="2048.56" style="font-family:'Helvetica';font-size:49.99px;fill:#000000" text-anchor="middle">1991</text>
	<line x1="1349.04" y1="1960.52" x2="1349.04" y2="1995.92" style="stroke:#000000;stroke-width:4.00"/>
	<text x="1349.04" y="2048.56" style="font-family:'Helvetica';font-size:49.99px;fill:#000000" text-anchor="middle">1996</text>
	<line x1="1584.46" y1="1960.52" x2="1584.46" y2="1995.92" style="stroke:#000000;stroke-width:4.00"/>
	<text x="1584.46" y="2048.56" style="font-family:'Helvetica';font-size:49.99px;fill:#000000" text-anchor="middle">2001</text>
	<line x1="1819.88" y1="1960.52" x2="1819.88" y2="1995.92" style="stroke:#000000;stroke-width:4.00"/>
	<text x="1819.88" y="2048.56" style="font-family:'Helvetica';font-size:49.99px;fill:#000000" text-anchor="middle">2006</text>
	<line x1="2055.37" y1="1960.52" x2="2055.37" y2="1995.92" style="stroke:#000000;stroke-width:4.00"/>
	<text x="2055.37" y="2048.56" style="font-family:'Helvetica';font-size:49.99px;fill:#000000" text-anchor="middle">2011</text>
	<line x1="2290.79" y1="1960.52" x2="2290.79" y2="1995.92" style="stroke:#000000;stroke-width:4.00"/>
	<text x="2290.79" y="2048.56" style="font-family:'Helvetica';font-size:49.99px;fill:#000000" text-anchor="middle">2016</text>
	<line x1="407.22" y1="1960.52" x2="2290.79" y2="1960.52" style="stroke:#000000;stroke-width:4.00"/>
	<text x="1310.78" y="2190.96" style="font-family:'Helvetica';font-size:60.03px;fill:#000000" text-anchor="middle">Year</text>
	<text x="145.41" y="2396.65" style="font-family:'Helvetica';font-size:60.03px;fill:#000000">Arr. cohort: </text>
	<text x="536.36" y="2396.65" style="font-family:'Helvetica';font-size:60.03px;fill:#000000">1964-73</text>
	<text x="845.12" y="2396.65" style="font-family:'Helvetica';font-size:60.03px;fill:#000000">1974-83</text>
	<text x="1153.89" y="2396.65" style="font-family:'Helvetica';font-size:60.03px;fill:#000000">1984-93</text>
	<text x="1462.65" y="2396.65" style="font-family:'Helvetica';font-size:60.03px;fill:#000000">1994-03</text>
	<text x="1771.41" y="2396.65" style="font-family:'Helvetica';font-size:60.03px;fill:#000000">2004-10</text>
	<text x="2080.17" y="2396.65" style="font-family:'Helvetica';font-size:60.03px;fill:#000000">German</text>
	<line x1="536.36" y1="2320.61" x2="737.26" y2="2320.61" style="stroke:#E69F00;stroke-width:10.00"/>
	<line x1="845.12" y1="2320.61" x2="1046.02" y2="2320.61" style="stroke:#56B4E9;stroke-width:10.00"/>
	<line x1="1153.89" y1="2320.61" x2="1354.78" y2="2320.61" style="stroke:#009E73;stroke-width:10.00"/>
	<line x1="1462.65" y1="2320.61" x2="1663.54" y2="2320.61" style="stroke:#D55E00;stroke-width:10.00"/>
	<line x1="1771.41" y1="2320.61" x2="1972.30" y2="2320.61" style="stroke:#CC79A7;stroke-width:10.00"/>
	<line x1="2080.17" y1="2320.61" x2="2131.19" y2="2320.61" style="stroke:#A0A0A0;stroke-width:10.00"/>
	<line x1="2156.70" y1="2320.61" x2="2207.72" y2="2320.61" style="stroke:#A0A0A0;stroke-width:10.00"/>
	<line x1="2233.23" y1="2320.61" x2="2278.03" y2="2320.61" style="stroke:#A0A0A0;stroke-width:10.00"/>
	<text x="1349.04" y="239.12" style="font-family:'Helvetica';font-size:60.03px;fill:#000000" text-anchor="middle">Shares</text>
	<text x="1349.04" y="154.88" style="font-family:'Helvetica';font-size:90.01px;fill:#000000" text-anchor="middle">Part-time employment, Women</text>
</svg>
