<?xml version="1.0" encoding="UTF-8" standalone="no"?>
<!-- This is a Stata 15.1 generated SVG file (http://www.stata.com) -->

<svg version="1.1" width="3.54in" height="3.54in" viewBox="0 0 2551 2551" xmlns="http://www.w3.org/2000/svg" xmlns:xlink="http://www.w3.org/1999/xlink">
	<desc>Stata Graph - Graph</desc>
	<rect x="0" y="0" width="2551" height="2551" style="fill:#FFFFFF;stroke:none"/>
	<rect x="0.00" y="0.08" width="2551.00" height="2550.92" style="fill:#FFFFFF"/>
	<rect x="2.55" y="2.63" width="2545.90" height="2545.82" style="fill:none;stroke:#FFFFFF;stroke-width:5.10"/>
	<line x1="365.68" y1="1904.40" x2="2346.91" y2="1904.40" style="stroke:#E8E8E8;stroke-width:4.00"/>
	<line x1="365.68" y1="1619.17" x2="2346.91" y2="1619.17" style="stroke:#E8E8E8;stroke-width:4.00"/>
	<line x1="365.68" y1="1334.01" x2="2346.91" y2="1334.01" style="stroke:#E8E8E8;stroke-width:4.00"/>
	<line x1="365.68" y1="1048.78" x2="2346.91" y2="1048.78" style="stroke:#E8E8E8;stroke-width:4.00"/>
	<line x1="365.68" y1="763.63" x2="2346.91" y2="763.63" style="stroke:#E8E8E8;stroke-width:4.00"/>
	<line x1="365.68" y1="478.39" x2="2346.91" y2="478.39" style="stroke:#E8E8E8;stroke-width:4.00"/>
	<line x1="421.81" y1="1960.52" x2="421.81" y2="308.19" style="stroke:#E8E8E8;stroke-width:4.00"/>
	<line x1="655.39" y1="1960.52" x2="655.39" y2="308.19" style="stroke:#E8E8E8;stroke-width:4.00"/>
	<line x1="889.05" y1="1960.52" x2="889.05" y2="308.19" style="stroke:#E8E8E8;stroke-width:4.00"/>
	<line x1="1122.71" y1="1960.52" x2="1122.71" y2="308.19" style="stroke:#E8E8E8;stroke-width:4.00"/>
	<line x1="1356.30" y1="1960.52" x2="1356.30" y2="308.19" style="stroke:#E8E8E8;stroke-width:4.00"/>
	<line x1="1589.96" y1="1960.52" x2="1589.96" y2="308.19" style="stroke:#E8E8E8;stroke-width:4.00"/>
	<line x1="1823.54" y1="1960.52" x2="1823.54" y2="308.19" style="stroke:#E8E8E8;stroke-width:4.00"/>
	<line x1="2057.21" y1="1960.52" x2="2057.21" y2="308.19" style="stroke:#E8E8E8;stroke-width:4.00"/>
	<line x1="2290.79" y1="1960.52" x2="2290.79" y2="308.19" style="stroke:#E8E8E8;stroke-width:4.00"/>
	<line x1="421.73" y1="1448.49" x2="515.24" y2="1430.15" stroke-linecap="round" style="stroke:#E69F00;stroke-width:10.00"/>
	<line x1="515.24" y1="1430.15" x2="608.67" y2="1461.48" stroke-linecap="round" style="stroke:#E69F00;stroke-width:10.00"/>
	<line x1="608.67" y1="1461.48" x2="702.10" y2="1445.70" stroke-linecap="round" style="stroke:#E69F00;stroke-width:10.00"/>
	<line x1="702.10" y1="1445.70" x2="842.25" y2="1419.55" stroke-linecap="round" style="stroke:#E69F00;stroke-width:10.00"/>
	<line x1="842.25" y1="1419.55" x2="935.77" y2="1446.18" stroke-linecap="round" style="stroke:#E69F00;stroke-width:10.00"/>
	<line x1="935.77" y1="1446.18" x2="1029.20" y2="1392.61" stroke-linecap="round" style="stroke:#E69F00;stroke-width:10.00"/>
	<line x1="1029.20" y1="1392.61" x2="1122.63" y2="1435.89" stroke-linecap="round" style="stroke:#E69F00;stroke-width:10.00"/>
	<line x1="1122.63" y1="1435.89" x2="1216.07" y2="1394.76" stroke-linecap="round" style="stroke:#E69F00;stroke-width:10.00"/>
	<line x1="1216.07" y1="1394.76" x2="1309.50" y2="1394.28" stroke-linecap="round" style="stroke:#E69F00;stroke-width:10.00"/>
	<line x1="1309.50" y1="1394.28" x2="1356.30" y2="1394.76" stroke-linecap="round" style="stroke:#E69F00;stroke-width:10.00"/>
	<line x1="1356.30" y1="1394.76" x2="1403.01" y2="1390.06" stroke-linecap="round" style="stroke:#E69F00;stroke-width:10.00"/>
	<line x1="1403.01" y1="1390.06" x2="1449.73" y2="1412.86" stroke-linecap="round" style="stroke:#E69F00;stroke-width:10.00"/>
	<line x1="1449.73" y1="1412.86" x2="1496.45" y2="1423.78" stroke-linecap="round" style="stroke:#E69F00;stroke-width:10.00"/>
	<line x1="1496.45" y1="1423.78" x2="1543.16" y2="1409.99" stroke-linecap="round" style="stroke:#E69F00;stroke-width:10.00"/>
	<line x1="1543.16" y1="1409.99" x2="1589.88" y2="1322.93" stroke-linecap="round" style="stroke:#E69F00;stroke-width:10.00"/>
	<line x1="1589.88" y1="1322.93" x2="1636.60" y2="1440.20" stroke-linecap="round" style="stroke:#E69F00;stroke-width:10.00"/>
	<line x1="1636.60" y1="1440.20" x2="1683.31" y2="1316.79" stroke-linecap="round" style="stroke:#E69F00;stroke-width:10.00"/>
	<line x1="842.25" y1="1063.53" x2="935.77" y2="1167.24" stroke-linecap="round" style="stroke:#56B4E9;stroke-width:10.00"/>
	<line x1="935.77" y1="1167.24" x2="1029.20" y2="1200.88" stroke-linecap="round" style="stroke:#56B4E9;stroke-width:10.00"/>
	<line x1="1029.20" y1="1200.88" x2="1122.63" y2="1272.95" stroke-linecap="round" style="stroke:#56B4E9;stroke-width:10.00"/>
	<line x1="1122.63" y1="1272.95" x2="1216.07" y2="1317.59" stroke-linecap="round" style="stroke:#56B4E9;stroke-width:10.00"/>
	<line x1="1216.07" y1="1317.59" x2="1309.50" y2="1226.23" stroke-linecap="round" style="stroke:#56B4E9;stroke-width:10.00"/>
	<line x1="1309.50" y1="1226.23" x2="1356.30" y2="1271.91" stroke-linecap="round" style="stroke:#56B4E9;stroke-width:10.00"/>
	<line x1="1356.30" y1="1271.91" x2="1403.01" y2="1280.04" stroke-linecap="round" style="stroke:#56B4E9;stroke-width:10.00"/>
	<line x1="1403.01" y1="1280.04" x2="1449.73" y2="1322.53" stroke-linecap="round" style="stroke:#56B4E9;stroke-width:10.00"/>
	<line x1="1449.73" y1="1322.53" x2="1496.45" y2="1334.01" stroke-linecap="round" style="stroke:#56B4E9;stroke-width:10.00"/>
	<line x1="1496.45" y1="1334.01" x2="1543.16" y2="1248.32" stroke-linecap="round" style="stroke:#56B4E9;stroke-width:10.00"/>
	<line x1="1543.16" y1="1248.32" x2="1589.88" y2="1345.33" stroke-linecap="round" style="stroke:#56B4E9;stroke-width:10.00"/>
	<line x1="1589.88" y1="1345.33" x2="1636.60" y2="1313.77" stroke-linecap="round" style="stroke:#56B4E9;stroke-width:10.00"/>
	<line x1="1636.60" y1="1313.77" x2="1683.31" y2="1294.47" stroke-linecap="round" style="stroke:#56B4E9;stroke-width:10.00"/>
	<line x1="1683.31" y1="1294.47" x2="1730.03" y2="1304.28" stroke-linecap="round" style="stroke:#56B4E9;stroke-width:10.00"/>
	<line x1="1730.03" y1="1304.28" x2="1776.75" y2="1230.22" stroke-linecap="round" style="stroke:#56B4E9;stroke-width:10.00"/>
	<line x1="1776.75" y1="1230.22" x2="1823.54" y2="1269.84" stroke-linecap="round" style="stroke:#56B4E9;stroke-width:10.00"/>
	<line x1="1823.54" y1="1269.84" x2="1870.26" y2="1179.44" stroke-linecap="round" style="stroke:#56B4E9;stroke-width:10.00"/>
	<line x1="1870.26" y1="1179.44" x2="1916.98" y2="1238.27" stroke-linecap="round" style="stroke:#56B4E9;stroke-width:10.00"/>
	<line x1="1916.98" y1="1238.27" x2="1963.69" y2="1264.10" stroke-linecap="round" style="stroke:#56B4E9;stroke-width:10.00"/>
	<line x1="1963.69" y1="1264.10" x2="2010.41" y2="1195.62" stroke-linecap="round" style="stroke:#56B4E9;stroke-width:10.00"/>
	<line x1="2010.41" y1="1195.62" x2="2057.13" y2="1277.09" stroke-linecap="round" style="stroke:#56B4E9;stroke-width:10.00"/>
	<line x1="2057.13" y1="1277.09" x2="2103.84" y2="1334.41" stroke-linecap="round" style="stroke:#56B4E9;stroke-width:10.00"/>
	<line x1="2103.84" y1="1334.41" x2="2150.56" y2="1346.13" stroke-linecap="round" style="stroke:#56B4E9;stroke-width:10.00"/>
	<line x1="1309.50" y1="1188.45" x2="1356.30" y2="1266.97" stroke-linecap="round" style="stroke:#009E73;stroke-width:10.00"/>
	<line x1="1356.30" y1="1266.97" x2="1403.01" y2="1223.52" stroke-linecap="round" style="stroke:#009E73;stroke-width:10.00"/>
	<line x1="1403.01" y1="1223.52" x2="1449.73" y2="1256.45" stroke-linecap="round" style="stroke:#009E73;stroke-width:10.00"/>
	<line x1="1449.73" y1="1256.45" x2="1496.45" y2="1248.32" stroke-linecap="round" style="stroke:#009E73;stroke-width:10.00"/>
	<line x1="1496.45" y1="1248.32" x2="1543.16" y2="1261.15" stroke-linecap="round" style="stroke:#009E73;stroke-width:10.00"/>
	<line x1="1543.16" y1="1261.15" x2="1589.88" y2="1274.62" stroke-linecap="round" style="stroke:#009E73;stroke-width:10.00"/>
	<line x1="1589.88" y1="1274.62" x2="1636.60" y2="1314.32" stroke-linecap="round" style="stroke:#009E73;stroke-width:10.00"/>
	<line x1="1636.60" y1="1314.32" x2="1683.31" y2="1249.35" stroke-linecap="round" style="stroke:#009E73;stroke-width:10.00"/>
	<line x1="1683.31" y1="1249.35" x2="1730.03" y2="1296.63" stroke-linecap="round" style="stroke:#009E73;stroke-width:10.00"/>
	<line x1="1730.03" y1="1296.63" x2="1776.75" y2="1286.42" stroke-linecap="round" style="stroke:#009E73;stroke-width:10.00"/>
	<line x1="1776.75" y1="1286.42" x2="1823.54" y2="1275.90" stroke-linecap="round" style="stroke:#009E73;stroke-width:10.00"/>
	<line x1="1823.54" y1="1275.90" x2="1870.26" y2="1271.27" stroke-linecap="round" style="stroke:#009E73;stroke-width:10.00"/>
	<line x1="1870.26" y1="1271.27" x2="1916.98" y2="1297.02" stroke-linecap="round" style="stroke:#009E73;stroke-width:10.00"/>
	<line x1="1916.98" y1="1297.02" x2="1963.69" y2="1276.22" stroke-linecap="round" style="stroke:#009E73;stroke-width:10.00"/>
	<line x1="1963.69" y1="1276.22" x2="2010.41" y2="1266.01" stroke-linecap="round" style="stroke:#009E73;stroke-width:10.00"/>
	<line x1="2010.41" y1="1266.01" x2="2057.13" y2="1339.91" stroke-linecap="round" style="stroke:#009E73;stroke-width:10.00"/>
	<line x1="2057.13" y1="1339.91" x2="2103.84" y2="1285.94" stroke-linecap="round" style="stroke:#009E73;stroke-width:10.00"/>
	<line x1="2103.84" y1="1285.94" x2="2150.56" y2="1339.04" stroke-linecap="round" style="stroke:#009E73;stroke-width:10.00"/>
	<line x1="2150.56" y1="1339.04" x2="2197.28" y2="1341.91" stroke-linecap="round" style="stroke:#009E73;stroke-width:10.00"/>
	<line x1="2197.28" y1="1341.91" x2="2243.99" y2="1403.29" stroke-linecap="round" style="stroke:#009E73;stroke-width:10.00"/>
	<line x1="1730.03" y1="1186.85" x2="1776.75" y2="1086.01" stroke-linecap="round" style="stroke:#D55E00;stroke-width:10.00"/>
	<line x1="1776.75" y1="1086.01" x2="1823.54" y2="1128.34" stroke-linecap="round" style="stroke:#D55E00;stroke-width:10.00"/>
	<line x1="1823.54" y1="1128.34" x2="1870.26" y2="1128.42" stroke-linecap="round" style="stroke:#D55E00;stroke-width:10.00"/>
	<line x1="1870.26" y1="1128.42" x2="1916.98" y2="1147.15" stroke-linecap="round" style="stroke:#D55E00;stroke-width:10.00"/>
	<line x1="1916.98" y1="1147.15" x2="1963.69" y2="1133.36" stroke-linecap="round" style="stroke:#D55E00;stroke-width:10.00"/>
	<line x1="1963.69" y1="1133.36" x2="2010.41" y2="1108.89" stroke-linecap="round" style="stroke:#D55E00;stroke-width:10.00"/>
	<line x1="2010.41" y1="1108.89" x2="2057.13" y2="1140.30" stroke-linecap="round" style="stroke:#D55E00;stroke-width:10.00"/>
	<line x1="2057.13" y1="1140.30" x2="2103.84" y2="1165.33" stroke-linecap="round" style="stroke:#D55E00;stroke-width:10.00"/>
	<line x1="2103.84" y1="1165.33" x2="2150.56" y2="1209.81" stroke-linecap="round" style="stroke:#D55E00;stroke-width:10.00"/>
	<line x1="2150.56" y1="1209.81" x2="2197.28" y2="1189.08" stroke-linecap="round" style="stroke:#D55E00;stroke-width:10.00"/>
	<line x1="2197.28" y1="1189.08" x2="2243.99" y2="1266.89" stroke-linecap="round" style="stroke:#D55E00;stroke-width:10.00"/>
	<line x1="2057.13" y1="937.09" x2="2103.84" y2="899.47" stroke-linecap="round" style="stroke:#CC79A7;stroke-width:10.00"/>
	<line x1="2103.84" y1="899.47" x2="2150.56" y2="918.68" stroke-linecap="round" style="stroke:#CC79A7;stroke-width:10.00"/>
	<line x1="2150.56" y1="918.68" x2="2197.28" y2="964.04" stroke-linecap="round" style="stroke:#CC79A7;stroke-width:10.00"/>
	<line x1="2197.28" y1="964.04" x2="2243.99" y2="1021.28" stroke-linecap="round" style="stroke:#CC79A7;stroke-width:10.00"/>
	<line x1="421.73" y1="1098.92" x2="470.36" y2="1083.46" style="stroke:#A0A0A0;stroke-width:10.00"/>
	<line x1="494.67" y1="1075.72" x2="515.24" y2="1069.19" style="stroke:#A0A0A0;stroke-width:10.00"/>
	<line x1="515.24" y1="1069.19" x2="543.86" y2="1062.57" style="stroke:#A0A0A0;stroke-width:10.00"/>
	<line x1="568.73" y1="1056.75" x2="608.67" y2="1047.50" style="stroke:#A0A0A0;stroke-width:10.00"/>
	<line x1="608.67" y1="1047.50" x2="618.08" y2="1044.16" style="stroke:#A0A0A0;stroke-width:10.00"/>
	<line x1="642.15" y1="1035.63" x2="690.23" y2="1018.41" style="stroke:#A0A0A0;stroke-width:10.00"/>
	<line x1="714.06" y1="1009.40" x2="761.26" y2="990.19" style="stroke:#A0A0A0;stroke-width:10.00"/>
	<line x1="784.94" y1="980.54" x2="832.13" y2="961.33" style="stroke:#A0A0A0;stroke-width:10.00"/>
	<line x1="856.21" y1="952.88" x2="904.92" y2="937.57" style="stroke:#A0A0A0;stroke-width:10.00"/>
	<line x1="929.23" y1="929.92" x2="935.77" y2="927.85" style="stroke:#A0A0A0;stroke-width:10.00"/>
	<line x1="935.77" y1="927.85" x2="979.38" y2="920.67" style="stroke:#A0A0A0;stroke-width:10.00"/>
	<line x1="1004.49" y1="916.45" x2="1029.20" y2="912.38" style="stroke:#A0A0A0;stroke-width:10.00"/>
	<line x1="1029.20" y1="912.38" x2="1055.19" y2="912.54" style="stroke:#A0A0A0;stroke-width:10.00"/>
	<line x1="1080.70" y1="912.62" x2="1122.63" y2="912.86" style="stroke:#A0A0A0;stroke-width:10.00"/>
	<line x1="1122.63" y1="912.86" x2="1129.17" y2="906.56" style="stroke:#A0A0A0;stroke-width:10.00"/>
	<line x1="1147.51" y1="888.78" x2="1184.10" y2="853.31" style="stroke:#A0A0A0;stroke-width:10.00"/>
	<line x1="1202.44" y1="835.53" x2="1216.07" y2="822.38" style="stroke:#A0A0A0;stroke-width:10.00"/>
	<line x1="1216.07" y1="822.38" x2="1245.56" y2="809.70" style="stroke:#A0A0A0;stroke-width:10.00"/>
	<line x1="1269.00" y1="799.66" x2="1309.50" y2="782.28" style="stroke:#A0A0A0;stroke-width:10.00"/>
	<line x1="1309.50" y1="782.28" x2="1316.44" y2="782.36" style="stroke:#A0A0A0;stroke-width:10.00"/>
	<line x1="1341.95" y1="782.60" x2="1356.30" y2="782.68" style="stroke:#A0A0A0;stroke-width:10.00"/>
	<line x1="1356.30" y1="782.68" x2="1392.41" y2="776.46" style="stroke:#A0A0A0;stroke-width:10.00"/>
	<line x1="1417.68" y1="773.35" x2="1449.73" y2="770.56" style="stroke:#A0A0A0;stroke-width:10.00"/>
	<line x1="1449.73" y1="770.56" x2="1468.54" y2="771.84" style="stroke:#A0A0A0;stroke-width:10.00"/>
	<line x1="1493.98" y1="773.67" x2="1496.45" y2="773.83" style="stroke:#A0A0A0;stroke-width:10.00"/>
	<line x1="1496.45" y1="773.83" x2="1543.16" y2="779.09" style="stroke:#A0A0A0;stroke-width:10.00"/>
	<line x1="1543.16" y1="779.09" x2="1544.68" y2="779.01" style="stroke:#A0A0A0;stroke-width:10.00"/>
	<line x1="1570.19" y1="777.42" x2="1589.88" y2="776.22" style="stroke:#A0A0A0;stroke-width:10.00"/>
	<line x1="1589.88" y1="776.22" x2="1619.94" y2="767.77" style="stroke:#A0A0A0;stroke-width:10.00"/>
	<line x1="1644.89" y1="762.83" x2="1683.31" y2="761.63" style="stroke:#A0A0A0;stroke-width:10.00"/>
	<line x1="1683.31" y1="761.63" x2="1695.35" y2="758.05" style="stroke:#A0A0A0;stroke-width:10.00"/>
	<line x1="1719.83" y1="750.87" x2="1730.03" y2="747.84" style="stroke:#A0A0A0;stroke-width:10.00"/>
	<line x1="1730.03" y1="747.84" x2="1770.37" y2="749.28" style="stroke:#A0A0A0;stroke-width:10.00"/>
	<line x1="1795.88" y1="748.48" x2="1823.54" y2="747.04" style="stroke:#A0A0A0;stroke-width:10.00"/>
	<line x1="1823.54" y1="747.04" x2="1846.42" y2="742.74" style="stroke:#A0A0A0;stroke-width:10.00"/>
	<line x1="1871.54" y1="738.28" x2="1916.98" y2="735.17" style="stroke:#A0A0A0;stroke-width:10.00"/>
	<line x1="1916.98" y1="735.17" x2="1922.16" y2="733.49" style="stroke:#A0A0A0;stroke-width:10.00"/>
	<line x1="1946.47" y1="725.68" x2="1963.69" y2="720.18" style="stroke:#A0A0A0;stroke-width:10.00"/>
	<line x1="1963.69" y1="720.18" x2="1996.14" y2="714.76" style="stroke:#A0A0A0;stroke-width:10.00"/>
	<line x1="2021.09" y1="709.58" x2="2057.13" y2="700.41" style="stroke:#A0A0A0;stroke-width:10.00"/>
	<line x1="2057.13" y1="700.41" x2="2070.60" y2="697.06" style="stroke:#A0A0A0;stroke-width:10.00"/>
	<line x1="2095.39" y1="690.92" x2="2103.84" y2="688.77" style="stroke:#A0A0A0;stroke-width:10.00"/>
	<line x1="2103.84" y1="688.77" x2="2145.14" y2="679.44" style="stroke:#A0A0A0;stroke-width:10.00"/>
	<line x1="2169.85" y1="673.15" x2="2197.28" y2="665.89" style="stroke:#A0A0A0;stroke-width:10.00"/>
	<line x1="2197.28" y1="665.89" x2="2218.32" y2="657.60" style="stroke:#A0A0A0;stroke-width:10.00"/>
	<line x1="2242.08" y1="648.19" x2="2243.99" y2="647.40" style="stroke:#A0A0A0;stroke-width:10.00"/>
	<line x1="365.68" y1="1904.40" x2="330.29" y2="1904.40" style="stroke:#000000;stroke-width:4.00"/>
	<text x="312.51" y="1921.92" style="font-family:'Helvetica';font-size:49.99px;fill:#000000" text-anchor="end">25</text>
	<line x1="365.68" y1="1619.17" x2="330.29" y2="1619.17" style="stroke:#000000;stroke-width:4.00"/>
	<text x="312.51" y="1636.68" style="font-family:'Helvetica';font-size:49.99px;fill:#000000" text-anchor="end">30</text>
	<line x1="365.68" y1="1334.01" x2="330.29" y2="1334.01" style="stroke:#000000;stroke-width:4.00"/>
	<text x="312.51" y="1351.53" style="font-family:'Helvetica';font-size:49.99px;fill:#000000" text-anchor="end">35</text>
	<line x1="365.68" y1="1048.78" x2="330.29" y2="1048.78" style="stroke:#000000;stroke-width:4.00"/>
	<text x="312.51" y="1066.29" style="font-family:'Helvetica';font-size:49.99px;fill:#000000" text-anchor="end">40</text>
	<line x1="365.68" y1="763.63" x2="330.29" y2="763.63" style="stroke:#000000;stroke-width:4.00"/>
	<text x="312.51" y="781.14" style="font-family:'Helvetica';font-size:49.99px;fill:#000000" text-anchor="end">45</text>
	<line x1="365.68" y1="478.39" x2="330.29" y2="478.39" style="stroke:#000000;stroke-width:4.00"/>
	<text x="312.51" y="495.91" style="font-family:'Helvetica';font-size:49.99px;fill:#000000" text-anchor="end">50</text>
	<line x1="365.68" y1="1904.40" x2="365.68" y2="364.31" style="stroke:#000000;stroke-width:4.00"/>
	<text x="136.21" y="1096.13" style="font-family:'Helvetica';font-size:60.03px;fill:#000000" transform="rotate(-90 136.21,1096.13)" text-anchor="middle">ISEI-88, employed only</text>
	<line x1="421.81" y1="1960.52" x2="421.81" y2="1995.92" style="stroke:#000000;stroke-width:4.00"/>
	<text x="421.81" y="2048.56" style="font-family:'Helvetica';font-size:49.99px;fill:#000000" text-anchor="middle">1976</text>
	<line x1="655.39" y1="1960.52" x2="655.39" y2="1995.92" style="stroke:#000000;stroke-width:4.00"/>
	<text x="655.39" y="2048.56" style="font-family:'Helvetica';font-size:49.99px;fill:#000000" text-anchor="middle">1981</text>
	<line x1="889.05" y1="1960.52" x2="889.05" y2="1995.92" style="stroke:#000000;stroke-width:4.00"/>
	<text x="889.05" y="2048.56" style="font-family:'Helvetica';font-size:49.99px;fill:#000000" text-anchor="middle">1986</text>
	<line x1="1122.71" y1="1960.52" x2="1122.71" y2="1995.92" style="stroke:#000000;stroke-width:4.00"/>
	<text x="1122.71" y="2048.56" style="font-family:'Helvetica';font-size:49.99px;fill:#000000" text-anchor="middle">1991</text>
	<line x1="1356.30" y1="1960.52" x2="1356.30" y2="1995.92" style="stroke:#000000;stroke-width:4.00"/>
	<text x="1356.30" y="2048.56" style="font-family:'Helvetica';font-size:49.99px;fill:#000000" text-anchor="middle">1996</text>
	<line x1="1589.96" y1="1960.52" x2="1589.96" y2="1995.92" style="stroke:#000000;stroke-width:4.00"/>
	<text x="1589.96" y="2048.56" style="font-family:'Helvetica';font-size:49.99px;fill:#000000" text-anchor="middle">2001</text>
	<line x1="1823.54" y1="1960.52" x2="1823.54" y2="1995.92" style="stroke:#000000;stroke-width:4.00"/>
	<text x="1823.54" y="2048.56" style="font-family:'Helvetica';font-size:49.99px;fill:#000000" text-anchor="middle">2006</text>
	<line x1="2057.21" y1="1960.52" x2="2057.21" y2="1995.92" style="stroke:#000000;stroke-width:4.00"/>
	<text x="2057.21" y="2048.56" style="font-family:'Helvetica';font-size:49.99px;fill:#000000" text-anchor="middle">2011</text>
	<line x1="2290.79" y1="1960.52" x2="2290.79" y2="1995.92" style="stroke:#000000;stroke-width:4.00"/>
	<text x="2290.79" y="2048.56" style="font-family:'Helvetica';font-size:49.99px;fill:#000000" text-anchor="middle">2016</text>
	<line x1="421.81" y1="1960.52" x2="2290.79" y2="1960.52" style="stroke:#000000;stroke-width:4.00"/>
	<text x="1318.03" y="2190.96" style="font-family:'Helvetica';font-size:60.03px;fill:#000000" text-anchor="middle">Year</text>
	<text x="145.41" y="2396.65" style="font-family:'Helvetica';font-size:60.03px;fill:#000000">Arr. cohort: </text>
	<text x="536.36" y="2396.65" style="font-family:'Helvetica';font-size:60.03px;fill:#000000">1964-73</text>
	<text x="845.12" y="2396.65" style="font-family:'Helvetica';font-size:60.03px;fill:#000000">1974-83</text>
	<text x="1153.89" y="2396.65" style="font-family:'Helvetica';font-size:60.03px;fill:#000000">1984-93</text>
	<text x="1462.65" y="2396.65" style="font-family:'Helvetica';font-size:60.03px;fill:#000000">1994-03</text>
	<text x="1771.41" y="2396.65" style="font-family:'Helvetica';font-size:60.03px;fill:#000000">2004-10</text>
	<text x="2080.17" y="2396.65" style="font-family:'Helvetica';font-size:60.03px;fill:#000000">German</text>
	<line x1="536.36" y1="2320.61" x2="737.26" y2="2320.61" style="stroke:#E69F00;stroke-width:10.00"/>
	<line x1="845.12" y1="2320.61" x2="1046.02" y2="2320.61" style="stroke:#56B4E9;stroke-width:10.00"/>
	<line x1="1153.89" y1="2320.61" x2="1354.78" y2="2320.61" style="stroke:#009E73;stroke-width:10.00"/>
	<line x1="1462.65" y1="2320.61" x2="1663.54" y2="2320.61" style="stroke:#D55E00;stroke-width:10.00"/>
	<line x1="1771.41" y1="2320.61" x2="1972.30" y2="2320.61" style="stroke:#CC79A7;stroke-width:10.00"/>
	<line x1="2080.17" y1="2320.61" x2="2131.19" y2="2320.61" style="stroke:#A0A0A0;stroke-width:10.00"/>
	<line x1="2156.70" y1="2320.61" x2="2207.72" y2="2320.61" style="stroke:#A0A0A0;stroke-width:10.00"/>
	<line x1="2233.23" y1="2320.61" x2="2278.03" y2="2320.61" style="stroke:#A0A0A0;stroke-width:10.00"/>
	<text x="1356.30" y="239.12" style="font-family:'Helvetica';font-size:60.03px;fill:#000000" text-anchor="middle">Means</text>
	<text x="1356.30" y="154.88" style="font-family:'Helvetica';font-size:90.01px;fill:#000000" text-anchor="middle">ISEI-88, employed only, Women</text>
</svg>
