<?xml version="1.0" encoding="UTF-8" standalone="no"?>
<!-- This is a Stata 15.1 generated SVG file (http://www.stata.com) -->

<svg version="1.1" width="3.54in" height="3.54in" viewBox="0 0 2551 2551" xmlns="http://www.w3.org/2000/svg" xmlns:xlink="http://www.w3.org/1999/xlink">
	<desc>Stata Graph - Graph</desc>
	<rect x="0" y="0" width="2551" height="2551" style="fill:#FFFFFF;stroke:none"/>
	<rect x="0.00" y="0.08" width="2551.00" height="2550.92" style="fill:#FFFFFF"/>
	<rect x="2.55" y="2.63" width="2545.90" height="2545.82" style="fill:none;stroke:#FFFFFF;stroke-width:5.10"/>
	<line x1="365.68" y1="1865.82" x2="2346.91" y2="1865.82" style="stroke:#E8E8E8;stroke-width:4.00"/>
	<line x1="365.68" y1="1587.76" x2="2346.91" y2="1587.76" style="stroke:#E8E8E8;stroke-width:4.00"/>
	<line x1="365.68" y1="1309.70" x2="2346.91" y2="1309.70" style="stroke:#E8E8E8;stroke-width:4.00"/>
	<line x1="365.68" y1="1031.64" x2="2346.91" y2="1031.64" style="stroke:#E8E8E8;stroke-width:4.00"/>
	<line x1="365.68" y1="753.58" x2="2346.91" y2="753.58" style="stroke:#E8E8E8;stroke-width:4.00"/>
	<line x1="365.68" y1="475.52" x2="2346.91" y2="475.52" style="stroke:#E8E8E8;stroke-width:4.00"/>
	<line x1="421.81" y1="1921.94" x2="421.81" y2="308.19" style="stroke:#E8E8E8;stroke-width:4.00"/>
	<line x1="655.39" y1="1921.94" x2="655.39" y2="308.19" style="stroke:#E8E8E8;stroke-width:4.00"/>
	<line x1="889.05" y1="1921.94" x2="889.05" y2="308.19" style="stroke:#E8E8E8;stroke-width:4.00"/>
	<line x1="1122.71" y1="1921.94" x2="1122.71" y2="308.19" style="stroke:#E8E8E8;stroke-width:4.00"/>
	<line x1="1356.30" y1="1921.94" x2="1356.30" y2="308.19" style="stroke:#E8E8E8;stroke-width:4.00"/>
	<line x1="1589.96" y1="1921.94" x2="1589.96" y2="308.19" style="stroke:#E8E8E8;stroke-width:4.00"/>
	<line x1="1823.54" y1="1921.94" x2="1823.54" y2="308.19" style="stroke:#E8E8E8;stroke-width:4.00"/>
	<line x1="2057.21" y1="1921.94" x2="2057.21" y2="308.19" style="stroke:#E8E8E8;stroke-width:4.00"/>
	<line x1="2290.79" y1="1921.94" x2="2290.79" y2="308.19" style="stroke:#E8E8E8;stroke-width:4.00"/>
	<line x1="421.73" y1="1361.68" x2="515.24" y2="1375.07" stroke-linecap="round" style="stroke:#E69F00;stroke-width:10.00"/>
	<line x1="515.24" y1="1375.07" x2="608.67" y2="1408.95" stroke-linecap="round" style="stroke:#E69F00;stroke-width:10.00"/>
	<line x1="608.67" y1="1408.95" x2="702.10" y2="1363.83" stroke-linecap="round" style="stroke:#E69F00;stroke-width:10.00"/>
	<line x1="702.10" y1="1363.83" x2="842.25" y2="1390.85" stroke-linecap="round" style="stroke:#E69F00;stroke-width:10.00"/>
	<line x1="842.25" y1="1390.85" x2="935.77" y2="1359.05" stroke-linecap="round" style="stroke:#E69F00;stroke-width:10.00"/>
	<line x1="935.77" y1="1359.05" x2="1029.20" y2="1391.41" stroke-linecap="round" style="stroke:#E69F00;stroke-width:10.00"/>
	<line x1="1029.20" y1="1391.41" x2="1122.63" y2="1385.91" stroke-linecap="round" style="stroke:#E69F00;stroke-width:10.00"/>
	<line x1="1122.63" y1="1385.91" x2="1216.07" y2="1395.72" stroke-linecap="round" style="stroke:#E69F00;stroke-width:10.00"/>
	<line x1="1216.07" y1="1395.72" x2="1309.50" y2="1343.82" stroke-linecap="round" style="stroke:#E69F00;stroke-width:10.00"/>
	<line x1="1309.50" y1="1343.82" x2="1356.30" y2="1380.81" stroke-linecap="round" style="stroke:#E69F00;stroke-width:10.00"/>
	<line x1="1356.30" y1="1380.81" x2="1403.01" y2="1354.34" stroke-linecap="round" style="stroke:#E69F00;stroke-width:10.00"/>
	<line x1="1403.01" y1="1354.34" x2="1449.73" y2="1373.63" stroke-linecap="round" style="stroke:#E69F00;stroke-width:10.00"/>
	<line x1="1449.73" y1="1373.63" x2="1496.45" y2="1360.56" stroke-linecap="round" style="stroke:#E69F00;stroke-width:10.00"/>
	<line x1="1496.45" y1="1360.56" x2="1543.16" y2="1333.93" stroke-linecap="round" style="stroke:#E69F00;stroke-width:10.00"/>
	<line x1="1543.16" y1="1333.93" x2="1589.88" y2="1357.85" stroke-linecap="round" style="stroke:#E69F00;stroke-width:10.00"/>
	<line x1="1589.88" y1="1357.85" x2="1636.60" y2="1347.01" stroke-linecap="round" style="stroke:#E69F00;stroke-width:10.00"/>
	<line x1="1636.60" y1="1347.01" x2="1683.31" y2="1272.95" stroke-linecap="round" style="stroke:#E69F00;stroke-width:10.00"/>
	<line x1="842.25" y1="1056.83" x2="935.77" y2="1172.10" stroke-linecap="round" style="stroke:#56B4E9;stroke-width:10.00"/>
	<line x1="935.77" y1="1172.10" x2="1029.20" y2="1130.97" stroke-linecap="round" style="stroke:#56B4E9;stroke-width:10.00"/>
	<line x1="1029.20" y1="1130.97" x2="1122.63" y2="1066.80" stroke-linecap="round" style="stroke:#56B4E9;stroke-width:10.00"/>
	<line x1="1122.63" y1="1066.80" x2="1216.07" y2="1163.81" stroke-linecap="round" style="stroke:#56B4E9;stroke-width:10.00"/>
	<line x1="1216.07" y1="1163.81" x2="1309.50" y2="1134.16" stroke-linecap="round" style="stroke:#56B4E9;stroke-width:10.00"/>
	<line x1="1309.50" y1="1134.16" x2="1356.30" y2="1184.38" stroke-linecap="round" style="stroke:#56B4E9;stroke-width:10.00"/>
	<line x1="1356.30" y1="1184.38" x2="1403.01" y2="1187.41" stroke-linecap="round" style="stroke:#56B4E9;stroke-width:10.00"/>
	<line x1="1403.01" y1="1187.41" x2="1449.73" y2="1172.58" stroke-linecap="round" style="stroke:#56B4E9;stroke-width:10.00"/>
	<line x1="1449.73" y1="1172.58" x2="1496.45" y2="1101.87" stroke-linecap="round" style="stroke:#56B4E9;stroke-width:10.00"/>
	<line x1="1496.45" y1="1101.87" x2="1543.16" y2="1150.26" stroke-linecap="round" style="stroke:#56B4E9;stroke-width:10.00"/>
	<line x1="1543.16" y1="1150.26" x2="1589.88" y2="1132.48" stroke-linecap="round" style="stroke:#56B4E9;stroke-width:10.00"/>
	<line x1="1589.88" y1="1132.48" x2="1636.60" y2="1073.81" stroke-linecap="round" style="stroke:#56B4E9;stroke-width:10.00"/>
	<line x1="1636.60" y1="1073.81" x2="1683.31" y2="1111.12" stroke-linecap="round" style="stroke:#56B4E9;stroke-width:10.00"/>
	<line x1="1683.31" y1="1111.12" x2="1730.03" y2="1161.34" stroke-linecap="round" style="stroke:#56B4E9;stroke-width:10.00"/>
	<line x1="1730.03" y1="1161.34" x2="1776.75" y2="1056.11" stroke-linecap="round" style="stroke:#56B4E9;stroke-width:10.00"/>
	<line x1="1776.75" y1="1056.11" x2="1823.54" y2="1126.27" stroke-linecap="round" style="stroke:#56B4E9;stroke-width:10.00"/>
	<line x1="1823.54" y1="1126.27" x2="1870.26" y2="1085.29" stroke-linecap="round" style="stroke:#56B4E9;stroke-width:10.00"/>
	<line x1="1870.26" y1="1085.29" x2="1916.98" y2="1096.05" stroke-linecap="round" style="stroke:#56B4E9;stroke-width:10.00"/>
	<line x1="1916.98" y1="1096.05" x2="1963.69" y2="1145.40" stroke-linecap="round" style="stroke:#56B4E9;stroke-width:10.00"/>
	<line x1="1963.69" y1="1145.40" x2="2010.41" y2="1147.07" stroke-linecap="round" style="stroke:#56B4E9;stroke-width:10.00"/>
	<line x1="2010.41" y1="1147.07" x2="2057.13" y2="1097.73" stroke-linecap="round" style="stroke:#56B4E9;stroke-width:10.00"/>
	<line x1="2057.13" y1="1097.73" x2="2103.84" y2="1055.48" stroke-linecap="round" style="stroke:#56B4E9;stroke-width:10.00"/>
	<line x1="2103.84" y1="1055.48" x2="2150.56" y2="993.14" stroke-linecap="round" style="stroke:#56B4E9;stroke-width:10.00"/>
	<line x1="1309.50" y1="1174.10" x2="1356.30" y2="1266.89" stroke-linecap="round" style="stroke:#009E73;stroke-width:10.00"/>
	<line x1="1356.30" y1="1266.89" x2="1403.01" y2="1260.75" stroke-linecap="round" style="stroke:#009E73;stroke-width:10.00"/>
	<line x1="1403.01" y1="1260.75" x2="1449.73" y2="1238.51" stroke-linecap="round" style="stroke:#009E73;stroke-width:10.00"/>
	<line x1="1449.73" y1="1238.51" x2="1496.45" y2="1251.27" stroke-linecap="round" style="stroke:#009E73;stroke-width:10.00"/>
	<line x1="1496.45" y1="1251.27" x2="1543.16" y2="1234.13" stroke-linecap="round" style="stroke:#009E73;stroke-width:10.00"/>
	<line x1="1543.16" y1="1234.13" x2="1589.88" y2="1244.41" stroke-linecap="round" style="stroke:#009E73;stroke-width:10.00"/>
	<line x1="1589.88" y1="1244.41" x2="1636.60" y2="1262.82" stroke-linecap="round" style="stroke:#009E73;stroke-width:10.00"/>
	<line x1="1636.60" y1="1262.82" x2="1683.31" y2="1259.72" stroke-linecap="round" style="stroke:#009E73;stroke-width:10.00"/>
	<line x1="1683.31" y1="1259.72" x2="1730.03" y2="1221.05" stroke-linecap="round" style="stroke:#009E73;stroke-width:10.00"/>
	<line x1="1730.03" y1="1221.05" x2="1776.75" y2="1112.24" stroke-linecap="round" style="stroke:#009E73;stroke-width:10.00"/>
	<line x1="1776.75" y1="1112.24" x2="1823.54" y2="1190.76" stroke-linecap="round" style="stroke:#009E73;stroke-width:10.00"/>
	<line x1="1823.54" y1="1190.76" x2="1870.26" y2="1193.07" stroke-linecap="round" style="stroke:#009E73;stroke-width:10.00"/>
	<line x1="1870.26" y1="1193.07" x2="1916.98" y2="1223.84" stroke-linecap="round" style="stroke:#009E73;stroke-width:10.00"/>
	<line x1="1916.98" y1="1223.84" x2="1963.69" y2="1202.00" stroke-linecap="round" style="stroke:#009E73;stroke-width:10.00"/>
	<line x1="1963.69" y1="1202.00" x2="2010.41" y2="1254.77" stroke-linecap="round" style="stroke:#009E73;stroke-width:10.00"/>
	<line x1="2010.41" y1="1254.77" x2="2057.13" y2="1233.01" stroke-linecap="round" style="stroke:#009E73;stroke-width:10.00"/>
	<line x1="2057.13" y1="1233.01" x2="2103.84" y2="1213.16" stroke-linecap="round" style="stroke:#009E73;stroke-width:10.00"/>
	<line x1="2103.84" y1="1213.16" x2="2150.56" y2="1222.81" stroke-linecap="round" style="stroke:#009E73;stroke-width:10.00"/>
	<line x1="2150.56" y1="1222.81" x2="2197.28" y2="1216.03" stroke-linecap="round" style="stroke:#009E73;stroke-width:10.00"/>
	<line x1="2197.28" y1="1216.03" x2="2243.99" y2="1217.70" stroke-linecap="round" style="stroke:#009E73;stroke-width:10.00"/>
	<line x1="1730.03" y1="1065.92" x2="1776.75" y2="989.15" stroke-linecap="round" style="stroke:#D55E00;stroke-width:10.00"/>
	<line x1="1776.75" y1="989.15" x2="1823.54" y2="1030.68" stroke-linecap="round" style="stroke:#D55E00;stroke-width:10.00"/>
	<line x1="1823.54" y1="1030.68" x2="1870.26" y2="1091.91" stroke-linecap="round" style="stroke:#D55E00;stroke-width:10.00"/>
	<line x1="1870.26" y1="1091.91" x2="1916.98" y2="1075.17" stroke-linecap="round" style="stroke:#D55E00;stroke-width:10.00"/>
	<line x1="1916.98" y1="1075.17" x2="1963.69" y2="1069.83" stroke-linecap="round" style="stroke:#D55E00;stroke-width:10.00"/>
	<line x1="1963.69" y1="1069.83" x2="2010.41" y2="1055.00" stroke-linecap="round" style="stroke:#D55E00;stroke-width:10.00"/>
	<line x1="2010.41" y1="1055.00" x2="2057.13" y2="1076.36" stroke-linecap="round" style="stroke:#D55E00;stroke-width:10.00"/>
	<line x1="2057.13" y1="1076.36" x2="2103.84" y2="1056.59" stroke-linecap="round" style="stroke:#D55E00;stroke-width:10.00"/>
	<line x1="2103.84" y1="1056.59" x2="2150.56" y2="1073.65" stroke-linecap="round" style="stroke:#D55E00;stroke-width:10.00"/>
	<line x1="2150.56" y1="1073.65" x2="2197.28" y2="1058.43" stroke-linecap="round" style="stroke:#D55E00;stroke-width:10.00"/>
	<line x1="2197.28" y1="1058.43" x2="2243.99" y2="1088.72" stroke-linecap="round" style="stroke:#D55E00;stroke-width:10.00"/>
	<line x1="2057.13" y1="844.78" x2="2103.84" y2="840.79" stroke-linecap="round" style="stroke:#CC79A7;stroke-width:10.00"/>
	<line x1="2103.84" y1="840.79" x2="2150.56" y2="896.20" stroke-linecap="round" style="stroke:#CC79A7;stroke-width:10.00"/>
	<line x1="2150.56" y1="896.20" x2="2197.28" y2="924.82" stroke-linecap="round" style="stroke:#CC79A7;stroke-width:10.00"/>
	<line x1="2197.28" y1="924.82" x2="2243.99" y2="917.48" stroke-linecap="round" style="stroke:#CC79A7;stroke-width:10.00"/>
	<line x1="421.73" y1="911.42" x2="472.43" y2="916.93" style="stroke:#A0A0A0;stroke-width:10.00"/>
	<line x1="497.78" y1="919.64" x2="515.24" y2="921.55" style="stroke:#A0A0A0;stroke-width:10.00"/>
	<line x1="515.24" y1="921.55" x2="548.56" y2="919.00" style="stroke:#A0A0A0;stroke-width:10.00"/>
	<line x1="573.99" y1="917.08" x2="608.67" y2="914.53" style="stroke:#A0A0A0;stroke-width:10.00"/>
	<line x1="608.67" y1="914.53" x2="623.66" y2="908.08" style="stroke:#A0A0A0;stroke-width:10.00"/>
	<line x1="647.10" y1="898.03" x2="693.97" y2="877.94" style="stroke:#A0A0A0;stroke-width:10.00"/>
	<line x1="718.05" y1="869.65" x2="766.92" y2="854.98" style="stroke:#A0A0A0;stroke-width:10.00"/>
	<line x1="791.39" y1="847.73" x2="840.26" y2="833.06" style="stroke:#A0A0A0;stroke-width:10.00"/>
	<line x1="865.37" y1="828.68" x2="915.68" y2="820.31" style="stroke:#A0A0A0;stroke-width:10.00"/>
	<line x1="940.87" y1="816.16" x2="991.25" y2="808.11" style="stroke:#A0A0A0;stroke-width:10.00"/>
	<line x1="1016.45" y1="804.04" x2="1029.20" y2="802.05" style="stroke:#A0A0A0;stroke-width:10.00"/>
	<line x1="1029.20" y1="802.05" x2="1066.99" y2="806.83" style="stroke:#A0A0A0;stroke-width:10.00"/>
	<line x1="1092.26" y1="810.10" x2="1122.63" y2="813.93" style="stroke:#A0A0A0;stroke-width:10.00"/>
	<line x1="1122.63" y1="813.93" x2="1140.97" y2="804.84" style="stroke:#A0A0A0;stroke-width:10.00"/>
	<line x1="1163.85" y1="793.52" x2="1209.61" y2="770.96" style="stroke:#A0A0A0;stroke-width:10.00"/>
	<line x1="1233.93" y1="763.79" x2="1283.75" y2="752.70" style="stroke:#A0A0A0;stroke-width:10.00"/>
	<line x1="1308.70" y1="747.20" x2="1309.50" y2="746.96" style="stroke:#A0A0A0;stroke-width:10.00"/>
	<line x1="1309.50" y1="746.96" x2="1356.30" y2="747.52" style="stroke:#A0A0A0;stroke-width:10.00"/>
	<line x1="1356.30" y1="747.52" x2="1359.57" y2="746.81" style="stroke:#A0A0A0;stroke-width:10.00"/>
	<line x1="1384.52" y1="741.30" x2="1403.01" y2="737.16" style="stroke:#A0A0A0;stroke-width:10.00"/>
	<line x1="1403.01" y1="737.16" x2="1434.98" y2="735.17" style="stroke:#A0A0A0;stroke-width:10.00"/>
	<line x1="1460.41" y1="735.49" x2="1496.45" y2="739.63" style="stroke:#A0A0A0;stroke-width:10.00"/>
	<line x1="1496.45" y1="739.63" x2="1511.20" y2="739.63" style="stroke:#A0A0A0;stroke-width:10.00"/>
	<line x1="1536.71" y1="739.63" x2="1543.16" y2="739.63" style="stroke:#A0A0A0;stroke-width:10.00"/>
	<line x1="1543.16" y1="739.63" x2="1587.09" y2="732.38" style="stroke:#A0A0A0;stroke-width:10.00"/>
	<line x1="1612.20" y1="727.51" x2="1636.60" y2="722.73" style="stroke:#A0A0A0;stroke-width:10.00"/>
	<line x1="1636.60" y1="722.73" x2="1662.27" y2="717.95" style="stroke:#A0A0A0;stroke-width:10.00"/>
	<line x1="1687.38" y1="714.04" x2="1730.03" y2="714.52" style="stroke:#A0A0A0;stroke-width:10.00"/>
	<line x1="1730.03" y1="714.52" x2="1737.44" y2="710.61" style="stroke:#A0A0A0;stroke-width:10.00"/>
	<line x1="1760.09" y1="698.81" x2="1776.75" y2="690.13" style="stroke:#A0A0A0;stroke-width:10.00"/>
	<line x1="1776.75" y1="690.13" x2="1808.95" y2="691.48" style="stroke:#A0A0A0;stroke-width:10.00"/>
	<line x1="1834.39" y1="692.92" x2="1870.26" y2="695.39" style="stroke:#A0A0A0;stroke-width:10.00"/>
	<line x1="1870.26" y1="695.39" x2="1885.25" y2="694.03" style="stroke:#A0A0A0;stroke-width:10.00"/>
	<line x1="1910.76" y1="691.80" x2="1916.98" y2="691.24" style="stroke:#A0A0A0;stroke-width:10.00"/>
	<line x1="1916.98" y1="691.24" x2="1958.43" y2="674.34" style="stroke:#A0A0A0;stroke-width:10.00"/>
	<line x1="1983.31" y1="669.80" x2="2010.41" y2="666.53" style="stroke:#A0A0A0;stroke-width:10.00"/>
	<line x1="2010.41" y1="666.53" x2="2032.33" y2="657.52" style="stroke:#A0A0A0;stroke-width:10.00"/>
	<line x1="2055.93" y1="647.79" x2="2057.13" y2="647.32" style="stroke:#A0A0A0;stroke-width:10.00"/>
	<line x1="2057.13" y1="647.32" x2="2103.84" y2="633.92" style="stroke:#A0A0A0;stroke-width:10.00"/>
	<line x1="2103.84" y1="633.92" x2="2104.96" y2="633.68" style="stroke:#A0A0A0;stroke-width:10.00"/>
	<line x1="2130.15" y1="629.54" x2="2150.56" y2="626.19" style="stroke:#A0A0A0;stroke-width:10.00"/>
	<line x1="2150.56" y1="626.19" x2="2180.85" y2="624.12" style="stroke:#A0A0A0;stroke-width:10.00"/>
	<line x1="2205.73" y1="619.81" x2="2243.99" y2="605.38" style="stroke:#A0A0A0;stroke-width:10.00"/>
	<line x1="365.68" y1="1865.82" x2="330.29" y2="1865.82" style="stroke:#000000;stroke-width:4.00"/>
	<text x="312.51" y="1883.33" style="font-family:'Helvetica';font-size:49.99px;fill:#000000" text-anchor="end">25</text>
	<line x1="365.68" y1="1587.76" x2="330.29" y2="1587.76" style="stroke:#000000;stroke-width:4.00"/>
	<text x="312.51" y="1605.27" style="font-family:'Helvetica';font-size:49.99px;fill:#000000" text-anchor="end">30</text>
	<line x1="365.68" y1="1309.70" x2="330.29" y2="1309.70" style="stroke:#000000;stroke-width:4.00"/>
	<text x="312.51" y="1327.21" style="font-family:'Helvetica';font-size:49.99px;fill:#000000" text-anchor="end">35</text>
	<line x1="365.68" y1="1031.64" x2="330.29" y2="1031.64" style="stroke:#000000;stroke-width:4.00"/>
	<text x="312.51" y="1049.15" style="font-family:'Helvetica';font-size:49.99px;fill:#000000" text-anchor="end">40</text>
	<line x1="365.68" y1="753.58" x2="330.29" y2="753.58" style="stroke:#000000;stroke-width:4.00"/>
	<text x="312.51" y="771.10" style="font-family:'Helvetica';font-size:49.99px;fill:#000000" text-anchor="end">45</text>
	<line x1="365.68" y1="475.52" x2="330.29" y2="475.52" style="stroke:#000000;stroke-width:4.00"/>
	<text x="312.51" y="493.04" style="font-family:'Helvetica';font-size:49.99px;fill:#000000" text-anchor="end">50</text>
	<line x1="365.68" y1="1865.82" x2="365.68" y2="364.31" style="stroke:#000000;stroke-width:4.00"/>
	<text x="136.21" y="1076.84" style="font-family:'Helvetica';font-size:60.03px;fill:#000000" transform="rotate(-90 136.21,1076.84)" text-anchor="middle">ISEI-88, employed only</text>
	<line x1="421.81" y1="1921.94" x2="421.81" y2="1957.33" style="stroke:#000000;stroke-width:4.00"/>
	<text x="421.81" y="2009.98" style="font-family:'Helvetica';font-size:49.99px;fill:#000000" text-anchor="middle">1976</text>
	<line x1="655.39" y1="1921.94" x2="655.39" y2="1957.33" style="stroke:#000000;stroke-width:4.00"/>
	<text x="655.39" y="2009.98" style="font-family:'Helvetica';font-size:49.99px;fill:#000000" text-anchor="middle">1981</text>
	<line x1="889.05" y1="1921.94" x2="889.05" y2="1957.33" style="stroke:#000000;stroke-width:4.00"/>
	<text x="889.05" y="2009.98" style="font-family:'Helvetica';font-size:49.99px;fill:#000000" text-anchor="middle">1986</text>
	<line x1="1122.71" y1="1921.94" x2="1122.71" y2="1957.33" style="stroke:#000000;stroke-width:4.00"/>
	<text x="1122.71" y="2009.98" style="font-family:'Helvetica';font-size:49.99px;fill:#000000" text-anchor="middle">1991</text>
	<line x1="1356.30" y1="1921.94" x2="1356.30" y2="1957.33" style="stroke:#000000;stroke-width:4.00"/>
	<text x="1356.30" y="2009.98" style="font-family:'Helvetica';font-size:49.99px;fill:#000000" text-anchor="middle">1996</text>
	<line x1="1589.96" y1="1921.94" x2="1589.96" y2="1957.33" style="stroke:#000000;stroke-width:4.00"/>
	<text x="1589.96" y="2009.98" style="font-family:'Helvetica';font-size:49.99px;fill:#000000" text-anchor="middle">2001</text>
	<line x1="1823.54" y1="1921.94" x2="1823.54" y2="1957.33" style="stroke:#000000;stroke-width:4.00"/>
	<text x="1823.54" y="2009.98" style="font-family:'Helvetica';font-size:49.99px;fill:#000000" text-anchor="middle">2006</text>
	<line x1="2057.21" y1="1921.94" x2="2057.21" y2="1957.33" style="stroke:#000000;stroke-width:4.00"/>
	<text x="2057.21" y="2009.98" style="font-family:'Helvetica';font-size:49.99px;fill:#000000" text-anchor="middle">2011</text>
	<line x1="2290.79" y1="1921.94" x2="2290.79" y2="1957.33" style="stroke:#000000;stroke-width:4.00"/>
	<text x="2290.79" y="2009.98" style="font-family:'Helvetica';font-size:49.99px;fill:#000000" text-anchor="middle">2016</text>
	<line x1="421.81" y1="1921.94" x2="2290.79" y2="1921.94" style="stroke:#000000;stroke-width:4.00"/>
	<text x="1318.03" y="2152.37" style="font-family:'Helvetica';font-size:60.03px;fill:#000000" text-anchor="middle">Year</text>
	<text x="145.41" y="2396.65" style="font-family:'Helvetica';font-size:60.03px;fill:#000000">Arr. cohort: </text>
	<text x="536.36" y="2396.65" style="font-family:'Helvetica';font-size:60.03px;fill:#000000">1964-73</text>
	<text x="845.12" y="2396.65" style="font-family:'Helvetica';font-size:60.03px;fill:#000000">1974-83</text>
	<text x="1153.89" y="2396.65" style="font-family:'Helvetica';font-size:60.03px;fill:#000000">1984-93</text>
	<text x="1462.65" y="2396.65" style="font-family:'Helvetica';font-size:60.03px;fill:#000000">1994-03</text>
	<text x="1771.41" y="2396.65" style="font-family:'Helvetica';font-size:60.03px;fill:#000000">2004-10</text>
	<text x="2080.17" y="2396.65" style="font-family:'Helvetica';font-size:60.03px;fill:#000000">German</text>
	<line x1="536.36" y1="2301.32" x2="737.26" y2="2301.32" style="stroke:#E69F00;stroke-width:10.00"/>
	<line x1="845.12" y1="2301.32" x2="1046.02" y2="2301.32" style="stroke:#56B4E9;stroke-width:10.00"/>
	<line x1="1153.89" y1="2301.32" x2="1354.78" y2="2301.32" style="stroke:#009E73;stroke-width:10.00"/>
	<line x1="1462.65" y1="2301.32" x2="1663.54" y2="2301.32" style="stroke:#D55E00;stroke-width:10.00"/>
	<line x1="1771.41" y1="2301.32" x2="1972.30" y2="2301.32" style="stroke:#CC79A7;stroke-width:10.00"/>
	<line x1="2080.17" y1="2301.32" x2="2131.19" y2="2301.32" style="stroke:#A0A0A0;stroke-width:10.00"/>
	<line x1="2156.70" y1="2301.32" x2="2207.72" y2="2301.32" style="stroke:#A0A0A0;stroke-width:10.00"/>
	<line x1="2233.23" y1="2301.32" x2="2278.03" y2="2301.32" style="stroke:#A0A0A0;stroke-width:10.00"/>
	<text x="1356.30" y="239.12" style="font-family:'Helvetica';font-size:60.03px;fill:#000000" text-anchor="middle">Means</text>
	<text x="1356.30" y="154.88" style="font-family:'Helvetica';font-size:90.01px;fill:#000000" text-anchor="middle">ISEI-88, employed only, Men</text>
</svg>
