<?xml version="1.0" encoding="UTF-8" standalone="no"?>
<!-- This is a Stata 15.1 generated SVG file (http://www.stata.com) -->

<svg version="1.1" width="3.54in" height="3.54in" viewBox="0 0 2551 2551" xmlns="http://www.w3.org/2000/svg" xmlns:xlink="http://www.w3.org/1999/xlink">
	<desc>Stata Graph - Graph</desc>
	<rect x="0" y="0" width="2551" height="2551" style="fill:#FFFFFF;stroke:none"/>
	<rect x="0.00" y="0.08" width="2551.00" height="2550.92" style="fill:#FFFFFF"/>
	<rect x="2.55" y="2.63" width="2545.90" height="2545.82" style="fill:none;stroke:#FFFFFF;stroke-width:5.10"/>
	<line x1="365.68" y1="1865.82" x2="2346.91" y2="1865.82" style="stroke:#E8E8E8;stroke-width:4.00"/>
	<line x1="365.68" y1="1587.76" x2="2346.91" y2="1587.76" style="stroke:#E8E8E8;stroke-width:4.00"/>
	<line x1="365.68" y1="1309.70" x2="2346.91" y2="1309.70" style="stroke:#E8E8E8;stroke-width:4.00"/>
	<line x1="365.68" y1="1031.64" x2="2346.91" y2="1031.64" style="stroke:#E8E8E8;stroke-width:4.00"/>
	<line x1="365.68" y1="753.58" x2="2346.91" y2="753.58" style="stroke:#E8E8E8;stroke-width:4.00"/>
	<line x1="365.68" y1="475.52" x2="2346.91" y2="475.52" style="stroke:#E8E8E8;stroke-width:4.00"/>
	<line x1="421.81" y1="1921.94" x2="421.81" y2="308.19" style="stroke:#E8E8E8;stroke-width:4.00"/>
	<line x1="655.39" y1="1921.94" x2="655.39" y2="308.19" style="stroke:#E8E8E8;stroke-width:4.00"/>
	<line x1="889.05" y1="1921.94" x2="889.05" y2="308.19" style="stroke:#E8E8E8;stroke-width:4.00"/>
	<line x1="1122.71" y1="1921.94" x2="1122.71" y2="308.19" style="stroke:#E8E8E8;stroke-width:4.00"/>
	<line x1="1356.30" y1="1921.94" x2="1356.30" y2="308.19" style="stroke:#E8E8E8;stroke-width:4.00"/>
	<line x1="1589.96" y1="1921.94" x2="1589.96" y2="308.19" style="stroke:#E8E8E8;stroke-width:4.00"/>
	<line x1="1823.54" y1="1921.94" x2="1823.54" y2="308.19" style="stroke:#E8E8E8;stroke-width:4.00"/>
	<line x1="2057.21" y1="1921.94" x2="2057.21" y2="308.19" style="stroke:#E8E8E8;stroke-width:4.00"/>
	<line x1="2290.79" y1="1921.94" x2="2290.79" y2="308.19" style="stroke:#E8E8E8;stroke-width:4.00"/>
	<line x1="421.73" y1="1421.39" x2="515.24" y2="1403.45" stroke-linecap="round" style="stroke:#E69F00;stroke-width:10.00"/>
	<line x1="515.24" y1="1403.45" x2="608.67" y2="1433.98" stroke-linecap="round" style="stroke:#E69F00;stroke-width:10.00"/>
	<line x1="608.67" y1="1433.98" x2="702.10" y2="1418.60" stroke-linecap="round" style="stroke:#E69F00;stroke-width:10.00"/>
	<line x1="702.10" y1="1418.60" x2="842.25" y2="1393.16" stroke-linecap="round" style="stroke:#E69F00;stroke-width:10.00"/>
	<line x1="842.25" y1="1393.16" x2="935.77" y2="1419.07" stroke-linecap="round" style="stroke:#E69F00;stroke-width:10.00"/>
	<line x1="935.77" y1="1419.07" x2="1029.20" y2="1366.86" stroke-linecap="round" style="stroke:#E69F00;stroke-width:10.00"/>
	<line x1="1029.20" y1="1366.86" x2="1122.63" y2="1399.86" stroke-linecap="round" style="stroke:#E69F00;stroke-width:10.00"/>
	<line x1="1122.63" y1="1399.86" x2="1216.07" y2="1365.26" stroke-linecap="round" style="stroke:#E69F00;stroke-width:10.00"/>
	<line x1="1216.07" y1="1365.26" x2="1309.50" y2="1363.51" stroke-linecap="round" style="stroke:#E69F00;stroke-width:10.00"/>
	<line x1="1309.50" y1="1363.51" x2="1356.30" y2="1368.37" stroke-linecap="round" style="stroke:#E69F00;stroke-width:10.00"/>
	<line x1="1356.30" y1="1368.37" x2="1403.01" y2="1359.68" stroke-linecap="round" style="stroke:#E69F00;stroke-width:10.00"/>
	<line x1="1403.01" y1="1359.68" x2="1449.73" y2="1383.20" stroke-linecap="round" style="stroke:#E69F00;stroke-width:10.00"/>
	<line x1="1449.73" y1="1383.20" x2="1496.45" y2="1398.67" stroke-linecap="round" style="stroke:#E69F00;stroke-width:10.00"/>
	<line x1="1496.45" y1="1398.67" x2="1543.16" y2="1383.76" stroke-linecap="round" style="stroke:#E69F00;stroke-width:10.00"/>
	<line x1="1543.16" y1="1383.76" x2="1589.88" y2="1298.94" stroke-linecap="round" style="stroke:#E69F00;stroke-width:10.00"/>
	<line x1="1589.88" y1="1298.94" x2="1636.60" y2="1410.62" stroke-linecap="round" style="stroke:#E69F00;stroke-width:10.00"/>
	<line x1="1636.60" y1="1410.62" x2="1683.31" y2="1289.05" stroke-linecap="round" style="stroke:#E69F00;stroke-width:10.00"/>
	<line x1="842.25" y1="1045.99" x2="935.77" y2="1147.07" stroke-linecap="round" style="stroke:#56B4E9;stroke-width:10.00"/>
	<line x1="935.77" y1="1147.07" x2="1029.20" y2="1179.92" stroke-linecap="round" style="stroke:#56B4E9;stroke-width:10.00"/>
	<line x1="1029.20" y1="1179.92" x2="1122.63" y2="1226.87" stroke-linecap="round" style="stroke:#56B4E9;stroke-width:10.00"/>
	<line x1="1122.63" y1="1226.87" x2="1216.07" y2="1282.20" stroke-linecap="round" style="stroke:#56B4E9;stroke-width:10.00"/>
	<line x1="1216.07" y1="1282.20" x2="1309.50" y2="1195.22" stroke-linecap="round" style="stroke:#56B4E9;stroke-width:10.00"/>
	<line x1="1309.50" y1="1195.22" x2="1356.30" y2="1249.59" stroke-linecap="round" style="stroke:#56B4E9;stroke-width:10.00"/>
	<line x1="1356.30" y1="1249.59" x2="1403.01" y2="1248.32" stroke-linecap="round" style="stroke:#56B4E9;stroke-width:10.00"/>
	<line x1="1403.01" y1="1248.32" x2="1449.73" y2="1295.19" stroke-linecap="round" style="stroke:#56B4E9;stroke-width:10.00"/>
	<line x1="1449.73" y1="1295.19" x2="1496.45" y2="1296.39" stroke-linecap="round" style="stroke:#56B4E9;stroke-width:10.00"/>
	<line x1="1496.45" y1="1296.39" x2="1543.16" y2="1226.39" stroke-linecap="round" style="stroke:#56B4E9;stroke-width:10.00"/>
	<line x1="1543.16" y1="1226.39" x2="1589.88" y2="1313.84" stroke-linecap="round" style="stroke:#56B4E9;stroke-width:10.00"/>
	<line x1="1589.88" y1="1313.84" x2="1636.60" y2="1285.07" stroke-linecap="round" style="stroke:#56B4E9;stroke-width:10.00"/>
	<line x1="1636.60" y1="1285.07" x2="1683.31" y2="1256.53" stroke-linecap="round" style="stroke:#56B4E9;stroke-width:10.00"/>
	<line x1="1683.31" y1="1256.53" x2="1730.03" y2="1273.19" stroke-linecap="round" style="stroke:#56B4E9;stroke-width:10.00"/>
	<line x1="1730.03" y1="1273.19" x2="1776.75" y2="1191.40" stroke-linecap="round" style="stroke:#56B4E9;stroke-width:10.00"/>
	<line x1="1776.75" y1="1191.40" x2="1823.54" y2="1264.50" stroke-linecap="round" style="stroke:#56B4E9;stroke-width:10.00"/>
	<line x1="1823.54" y1="1264.50" x2="1870.26" y2="1158.63" stroke-linecap="round" style="stroke:#56B4E9;stroke-width:10.00"/>
	<line x1="1870.26" y1="1158.63" x2="1916.98" y2="1218.26" stroke-linecap="round" style="stroke:#56B4E9;stroke-width:10.00"/>
	<line x1="1916.98" y1="1218.26" x2="1963.69" y2="1239.95" stroke-linecap="round" style="stroke:#56B4E9;stroke-width:10.00"/>
	<line x1="1963.69" y1="1239.95" x2="2010.41" y2="1176.33" stroke-linecap="round" style="stroke:#56B4E9;stroke-width:10.00"/>
	<line x1="2010.41" y1="1176.33" x2="2057.13" y2="1234.60" stroke-linecap="round" style="stroke:#56B4E9;stroke-width:10.00"/>
	<line x1="2057.13" y1="1234.60" x2="2103.84" y2="1307.63" stroke-linecap="round" style="stroke:#56B4E9;stroke-width:10.00"/>
	<line x1="2103.84" y1="1307.63" x2="2150.56" y2="1321.58" stroke-linecap="round" style="stroke:#56B4E9;stroke-width:10.00"/>
	<line x1="1309.50" y1="1154.73" x2="1356.30" y2="1232.77" stroke-linecap="round" style="stroke:#009E73;stroke-width:10.00"/>
	<line x1="1356.30" y1="1232.77" x2="1403.01" y2="1193.31" stroke-linecap="round" style="stroke:#009E73;stroke-width:10.00"/>
	<line x1="1403.01" y1="1193.31" x2="1449.73" y2="1226.95" stroke-linecap="round" style="stroke:#009E73;stroke-width:10.00"/>
	<line x1="1449.73" y1="1226.95" x2="1496.45" y2="1220.33" stroke-linecap="round" style="stroke:#009E73;stroke-width:10.00"/>
	<line x1="1496.45" y1="1220.33" x2="1543.16" y2="1235.64" stroke-linecap="round" style="stroke:#009E73;stroke-width:10.00"/>
	<line x1="1543.16" y1="1235.64" x2="1589.88" y2="1240.82" stroke-linecap="round" style="stroke:#009E73;stroke-width:10.00"/>
	<line x1="1589.88" y1="1240.82" x2="1636.60" y2="1277.25" stroke-linecap="round" style="stroke:#009E73;stroke-width:10.00"/>
	<line x1="1636.60" y1="1277.25" x2="1683.31" y2="1214.52" stroke-linecap="round" style="stroke:#009E73;stroke-width:10.00"/>
	<line x1="1683.31" y1="1214.52" x2="1730.03" y2="1272.07" stroke-linecap="round" style="stroke:#009E73;stroke-width:10.00"/>
	<line x1="1730.03" y1="1272.07" x2="1776.75" y2="1250.23" stroke-linecap="round" style="stroke:#009E73;stroke-width:10.00"/>
	<line x1="1776.75" y1="1250.23" x2="1823.54" y2="1244.49" stroke-linecap="round" style="stroke:#009E73;stroke-width:10.00"/>
	<line x1="1823.54" y1="1244.49" x2="1870.26" y2="1247.52" stroke-linecap="round" style="stroke:#009E73;stroke-width:10.00"/>
	<line x1="1870.26" y1="1247.52" x2="1916.98" y2="1249.35" stroke-linecap="round" style="stroke:#009E73;stroke-width:10.00"/>
	<line x1="1916.98" y1="1249.35" x2="1963.69" y2="1235.40" stroke-linecap="round" style="stroke:#009E73;stroke-width:10.00"/>
	<line x1="1963.69" y1="1235.40" x2="2010.41" y2="1226.39" stroke-linecap="round" style="stroke:#009E73;stroke-width:10.00"/>
	<line x1="2010.41" y1="1226.39" x2="2057.13" y2="1292.64" stroke-linecap="round" style="stroke:#009E73;stroke-width:10.00"/>
	<line x1="2057.13" y1="1292.64" x2="2103.84" y2="1244.01" stroke-linecap="round" style="stroke:#009E73;stroke-width:10.00"/>
	<line x1="2103.84" y1="1244.01" x2="2150.56" y2="1305.39" stroke-linecap="round" style="stroke:#009E73;stroke-width:10.00"/>
	<line x1="2150.56" y1="1305.39" x2="2197.28" y2="1315.04" stroke-linecap="round" style="stroke:#009E73;stroke-width:10.00"/>
	<line x1="2197.28" y1="1315.04" x2="2243.99" y2="1366.86" stroke-linecap="round" style="stroke:#009E73;stroke-width:10.00"/>
	<line x1="1730.03" y1="1153.37" x2="1776.75" y2="1054.68" stroke-linecap="round" style="stroke:#D55E00;stroke-width:10.00"/>
	<line x1="1776.75" y1="1054.68" x2="1823.54" y2="1082.74" stroke-linecap="round" style="stroke:#D55E00;stroke-width:10.00"/>
	<line x1="1823.54" y1="1082.74" x2="1823.54" y2="1082.74" stroke-linecap="round" style="stroke:#D55E00;stroke-width:10.00"/>
	<line x1="1823.54" y1="1082.74" x2="1870.26" y2="1077.64" stroke-linecap="round" style="stroke:#D55E00;stroke-width:10.00"/>
	<line x1="1870.26" y1="1077.64" x2="1870.26" y2="1077.64" stroke-linecap="round" style="stroke:#D55E00;stroke-width:10.00"/>
	<line x1="1870.26" y1="1077.64" x2="1916.98" y2="1115.27" stroke-linecap="round" style="stroke:#D55E00;stroke-width:10.00"/>
	<line x1="1916.98" y1="1115.27" x2="1963.69" y2="1098.05" stroke-linecap="round" style="stroke:#D55E00;stroke-width:10.00"/>
	<line x1="1963.69" y1="1098.05" x2="1963.69" y2="1098.05" stroke-linecap="round" style="stroke:#D55E00;stroke-width:10.00"/>
	<line x1="1963.69" y1="1098.05" x2="2010.41" y2="1073.65" stroke-linecap="round" style="stroke:#D55E00;stroke-width:10.00"/>
	<line x1="2010.41" y1="1073.65" x2="2057.13" y2="1091.11" stroke-linecap="round" style="stroke:#D55E00;stroke-width:10.00"/>
	<line x1="2057.13" y1="1091.11" x2="2057.13" y2="1091.11" stroke-linecap="round" style="stroke:#D55E00;stroke-width:10.00"/>
	<line x1="2057.13" y1="1091.11" x2="2103.84" y2="1138.14" stroke-linecap="round" style="stroke:#D55E00;stroke-width:10.00"/>
	<line x1="2103.84" y1="1138.14" x2="2103.84" y2="1138.14" stroke-linecap="round" style="stroke:#D55E00;stroke-width:10.00"/>
	<line x1="2103.84" y1="1138.14" x2="2150.56" y2="1170.03" stroke-linecap="round" style="stroke:#D55E00;stroke-width:10.00"/>
	<line x1="2150.56" y1="1170.03" x2="2150.56" y2="1170.03" stroke-linecap="round" style="stroke:#D55E00;stroke-width:10.00"/>
	<line x1="2150.56" y1="1170.03" x2="2197.28" y2="1155.84" stroke-linecap="round" style="stroke:#D55E00;stroke-width:10.00"/>
	<line x1="2197.28" y1="1155.84" x2="2243.99" y2="1230.38" stroke-linecap="round" style="stroke:#D55E00;stroke-width:10.00"/>
	<line x1="2243.99" y1="1230.38" x2="2243.99" y2="1230.38" stroke-linecap="round" style="stroke:#D55E00;stroke-width:10.00"/>
	<line x1="2057.13" y1="877.46" x2="2057.13" y2="877.46" stroke-linecap="round" style="stroke:#CC79A7;stroke-width:10.00"/>
	<line x1="2057.13" y1="877.46" x2="2103.84" y2="860.48" stroke-linecap="round" style="stroke:#CC79A7;stroke-width:10.00"/>
	<line x1="2103.84" y1="860.48" x2="2150.56" y2="887.03" stroke-linecap="round" style="stroke:#CC79A7;stroke-width:10.00"/>
	<line x1="2150.56" y1="887.03" x2="2197.28" y2="933.03" stroke-linecap="round" style="stroke:#CC79A7;stroke-width:10.00"/>
	<line x1="2197.28" y1="933.03" x2="2197.28" y2="933.03" stroke-linecap="round" style="stroke:#CC79A7;stroke-width:10.00"/>
	<line x1="2197.28" y1="933.03" x2="2243.99" y2="981.42" stroke-linecap="round" style="stroke:#CC79A7;stroke-width:10.00"/>
	<line x1="421.73" y1="1080.51" x2="470.44" y2="1065.36" style="stroke:#A0A0A0;stroke-width:10.00"/>
	<line x1="494.83" y1="1057.79" x2="515.24" y2="1051.49" style="stroke:#A0A0A0;stroke-width:10.00"/>
	<line x1="515.24" y1="1051.49" x2="544.18" y2="1044.95" style="stroke:#A0A0A0;stroke-width:10.00"/>
	<line x1="569.05" y1="1039.29" x2="608.67" y2="1030.36" style="stroke:#A0A0A0;stroke-width:10.00"/>
	<line x1="608.67" y1="1030.36" x2="618.48" y2="1026.94" style="stroke:#A0A0A0;stroke-width:10.00"/>
	<line x1="642.63" y1="1018.57" x2="690.78" y2="1001.83" style="stroke:#A0A0A0;stroke-width:10.00"/>
	<line x1="714.70" y1="992.90" x2="762.14" y2="974.16" style="stroke:#A0A0A0;stroke-width:10.00"/>
	<line x1="785.81" y1="964.76" x2="833.25" y2="946.02" style="stroke:#A0A0A0;stroke-width:10.00"/>
	<line x1="857.40" y1="937.81" x2="906.19" y2="922.82" style="stroke:#A0A0A0;stroke-width:10.00"/>
	<line x1="930.59" y1="915.33" x2="935.77" y2="913.74" style="stroke:#A0A0A0;stroke-width:10.00"/>
	<line x1="935.77" y1="913.74" x2="980.73" y2="906.48" style="stroke:#A0A0A0;stroke-width:10.00"/>
	<line x1="1005.92" y1="902.42" x2="1029.20" y2="898.67" style="stroke:#A0A0A0;stroke-width:10.00"/>
	<line x1="1029.20" y1="898.67" x2="1056.63" y2="898.75" style="stroke:#A0A0A0;stroke-width:10.00"/>
	<line x1="1082.14" y1="898.91" x2="1122.63" y2="899.07" style="stroke:#A0A0A0;stroke-width:10.00"/>
	<line x1="1122.63" y1="899.07" x2="1130.29" y2="891.81" style="stroke:#A0A0A0;stroke-width:10.00"/>
	<line x1="1148.86" y1="874.28" x2="1186.01" y2="839.28" style="stroke:#A0A0A0;stroke-width:10.00"/>
	<line x1="1204.51" y1="821.74" x2="1216.07" y2="810.90" style="stroke:#A0A0A0;stroke-width:10.00"/>
	<line x1="1216.07" y1="810.90" x2="1248.51" y2="797.35" style="stroke:#A0A0A0;stroke-width:10.00"/>
	<line x1="1272.03" y1="787.46" x2="1309.50" y2="771.76" style="stroke:#A0A0A0;stroke-width:10.00"/>
	<line x1="1309.50" y1="771.76" x2="1319.94" y2="771.92" style="stroke:#A0A0A0;stroke-width:10.00"/>
	<line x1="1345.46" y1="772.16" x2="1356.30" y2="772.24" style="stroke:#A0A0A0;stroke-width:10.00"/>
	<line x1="1356.30" y1="772.24" x2="1395.92" y2="765.54" style="stroke:#A0A0A0;stroke-width:10.00"/>
	<line x1="1421.19" y1="762.75" x2="1449.73" y2="760.36" style="stroke:#A0A0A0;stroke-width:10.00"/>
	<line x1="1449.73" y1="760.36" x2="1472.05" y2="761.87" style="stroke:#A0A0A0;stroke-width:10.00"/>
	<line x1="1497.56" y1="763.63" x2="1543.16" y2="768.73" style="stroke:#A0A0A0;stroke-width:10.00"/>
	<line x1="1543.16" y1="768.73" x2="1548.35" y2="768.41" style="stroke:#A0A0A0;stroke-width:10.00"/>
	<line x1="1573.78" y1="766.89" x2="1589.88" y2="765.94" style="stroke:#A0A0A0;stroke-width:10.00"/>
	<line x1="1589.88" y1="765.94" x2="1623.52" y2="756.77" style="stroke:#A0A0A0;stroke-width:10.00"/>
	<line x1="1648.56" y1="752.78" x2="1683.31" y2="751.67" style="stroke:#A0A0A0;stroke-width:10.00"/>
	<line x1="1683.31" y1="751.67" x2="1698.94" y2="747.20" style="stroke:#A0A0A0;stroke-width:10.00"/>
	<line x1="1723.49" y1="740.11" x2="1730.03" y2="738.28" style="stroke:#A0A0A0;stroke-width:10.00"/>
	<line x1="1730.03" y1="738.28" x2="1774.20" y2="739.79" style="stroke:#A0A0A0;stroke-width:10.00"/>
	<line x1="1799.63" y1="738.67" x2="1823.54" y2="737.48" style="stroke:#A0A0A0;stroke-width:10.00"/>
	<line x1="1823.54" y1="737.48" x2="1850.17" y2="732.62" style="stroke:#A0A0A0;stroke-width:10.00"/>
	<line x1="1875.36" y1="728.63" x2="1916.98" y2="725.92" style="stroke:#A0A0A0;stroke-width:10.00"/>
	<line x1="1916.98" y1="725.92" x2="1925.91" y2="723.13" style="stroke:#A0A0A0;stroke-width:10.00"/>
	<line x1="1950.22" y1="715.56" x2="1963.69" y2="711.33" style="stroke:#A0A0A0;stroke-width:10.00"/>
	<line x1="1963.69" y1="711.33" x2="2000.13" y2="705.35" style="stroke:#A0A0A0;stroke-width:10.00"/>
	<line x1="2025.08" y1="700.01" x2="2057.13" y2="691.96" style="stroke:#A0A0A0;stroke-width:10.00"/>
	<line x1="2057.13" y1="691.96" x2="2074.59" y2="687.73" style="stroke:#A0A0A0;stroke-width:10.00"/>
	<line x1="2099.38" y1="681.75" x2="2103.84" y2="680.72" style="stroke:#A0A0A0;stroke-width:10.00"/>
	<line x1="2103.84" y1="680.72" x2="2149.20" y2="670.67" style="stroke:#A0A0A0;stroke-width:10.00"/>
	<line x1="2173.92" y1="664.38" x2="2197.28" y2="658.32" style="stroke:#A0A0A0;stroke-width:10.00"/>
	<line x1="2197.28" y1="658.32" x2="2222.31" y2="648.67" style="stroke:#A0A0A0;stroke-width:10.00"/>
	<line x1="1122.63" y1="810.82" x2="1140.01" y2="800.14" style="stroke:#A0A0A0;stroke-width:10.00"/>
	<line x1="1157.39" y1="789.45" x2="1159.55" y2="788.18" style="stroke:#A0A0A0;stroke-width:10.00"/>
	<line x1="1177.00" y1="777.50" x2="1194.38" y2="766.81" style="stroke:#A0A0A0;stroke-width:10.00"/>
	<line x1="1211.76" y1="756.21" x2="1214.00" y2="754.86" style="stroke:#A0A0A0;stroke-width:10.00"/>
	<line x1="1234.01" y1="754.54" x2="1254.33" y2="755.65" style="stroke:#A0A0A0;stroke-width:10.00"/>
	<line x1="1274.74" y1="756.85" x2="1277.29" y2="757.01" style="stroke:#A0A0A0;stroke-width:10.00"/>
	<line x1="1297.62" y1="758.05" x2="1309.50" y2="758.76" style="stroke:#A0A0A0;stroke-width:10.00"/>
	<line x1="1309.50" y1="758.76" x2="1317.87" y2="760.28" style="stroke:#A0A0A0;stroke-width:10.00"/>
	<line x1="1337.96" y1="763.94" x2="1340.51" y2="764.42" style="stroke:#A0A0A0;stroke-width:10.00"/>
	<line x1="1360.60" y1="767.21" x2="1381.01" y2="766.89" style="stroke:#A0A0A0;stroke-width:10.00"/>
	<line x1="1401.42" y1="766.50" x2="1403.01" y2="766.50" style="stroke:#A0A0A0;stroke-width:10.00"/>
	<line x1="1403.01" y1="766.50" x2="1403.97" y2="766.26" style="stroke:#A0A0A0;stroke-width:10.00"/>
	<line x1="1423.90" y1="762.03" x2="1443.91" y2="757.73" style="stroke:#A0A0A0;stroke-width:10.00"/>
	<line x1="1463.92" y1="753.66" x2="1466.39" y2="753.18" style="stroke:#A0A0A0;stroke-width:10.00"/>
	<line x1="1486.40" y1="749.28" x2="1496.45" y2="747.28" style="stroke:#A0A0A0;stroke-width:10.00"/>
	<line x1="1496.45" y1="747.28" x2="1506.09" y2="750.55" style="stroke:#A0A0A0;stroke-width:10.00"/>
	<line x1="1525.47" y1="757.09" x2="1527.94" y2="757.89" style="stroke:#A0A0A0;stroke-width:10.00"/>
	<line x1="1547.47" y1="762.99" x2="1567.88" y2="763.23" style="stroke:#A0A0A0;stroke-width:10.00"/>
	<line x1="1588.29" y1="763.47" x2="1589.88" y2="763.47" style="stroke:#A0A0A0;stroke-width:10.00"/>
	<line x1="1589.88" y1="763.47" x2="1590.76" y2="763.07" style="stroke:#A0A0A0;stroke-width:10.00"/>
	<line x1="1609.41" y1="754.78" x2="1628.07" y2="746.49" style="stroke:#A0A0A0;stroke-width:10.00"/>
	<line x1="1647.68" y1="742.82" x2="1650.23" y2="742.90" style="stroke:#A0A0A0;stroke-width:10.00"/>
	<line x1="1670.64" y1="743.22" x2="1683.31" y2="743.46" style="stroke:#A0A0A0;stroke-width:10.00"/>
	<line x1="1683.31" y1="743.46" x2="1690.97" y2="744.17" style="stroke:#A0A0A0;stroke-width:10.00"/>
	<line x1="1711.30" y1="746.09" x2="1713.85" y2="746.33" style="stroke:#A0A0A0;stroke-width:10.00"/>
	<line x1="1734.18" y1="747.44" x2="1754.51" y2="745.77" style="stroke:#A0A0A0;stroke-width:10.00"/>
	<line x1="1774.83" y1="744.02" x2="1776.75" y2="743.86" style="stroke:#A0A0A0;stroke-width:10.00"/>
	<line x1="1776.75" y1="743.86" x2="1777.39" y2="743.78" style="stroke:#A0A0A0;stroke-width:10.00"/>
	<line x1="1797.63" y1="741.22" x2="1817.88" y2="738.75" style="stroke:#A0A0A0;stroke-width:10.00"/>
	<line x1="1836.46" y1="745.05" x2="1838.69" y2="746.33" style="stroke:#A0A0A0;stroke-width:10.00"/>
	<line x1="1856.63" y1="756.05" x2="1870.26" y2="763.55" style="stroke:#A0A0A0;stroke-width:10.00"/>
	<line x1="1870.26" y1="763.55" x2="1874.96" y2="762.19" style="stroke:#A0A0A0;stroke-width:10.00"/>
	<line x1="1894.50" y1="756.37" x2="1896.97" y2="755.57" style="stroke:#A0A0A0;stroke-width:10.00"/>
	<line x1="1916.50" y1="749.83" x2="1916.98" y2="749.68" style="stroke:#A0A0A0;stroke-width:10.00"/>
	<line x1="1916.98" y1="749.68" x2="1936.51" y2="746.01" style="stroke:#A0A0A0;stroke-width:10.00"/>
	<line x1="1956.60" y1="742.34" x2="1959.15" y2="741.86" style="stroke:#A0A0A0;stroke-width:10.00"/>
	<line x1="1978.68" y1="736.04" x2="1998.05" y2="729.59" style="stroke:#A0A0A0;stroke-width:10.00"/>
	<line x1="2017.51" y1="727.67" x2="2019.90" y2="728.39" style="stroke:#A0A0A0;stroke-width:10.00"/>
	<line x1="2039.43" y1="734.45" x2="2057.13" y2="739.87" style="stroke:#A0A0A0;stroke-width:10.00"/>
	<line x1="2057.13" y1="739.87" x2="2058.96" y2="739.55" style="stroke:#A0A0A0;stroke-width:10.00"/>
	<line x1="2078.97" y1="735.56" x2="2081.52" y2="735.01" style="stroke:#A0A0A0;stroke-width:10.00"/>
	<line x1="2101.53" y1="731.10" x2="2103.84" y2="730.62" style="stroke:#A0A0A0;stroke-width:10.00"/>
	<line x1="2103.84" y1="730.62" x2="2119.63" y2="721.93" style="stroke:#A0A0A0;stroke-width:10.00"/>
	<line x1="2137.57" y1="712.13" x2="2139.80" y2="710.93" style="stroke:#A0A0A0;stroke-width:10.00"/>
	<line x1="2158.61" y1="704.55" x2="2179.02" y2="703.76" style="stroke:#A0A0A0;stroke-width:10.00"/>
	<line x1="2199.35" y1="702.64" x2="2201.90" y2="702.24" style="stroke:#A0A0A0;stroke-width:10.00"/>
	<line x1="2222.07" y1="699.13" x2="2242.24" y2="696.10" style="stroke:#A0A0A0;stroke-width:10.00"/>
	<line x1="365.68" y1="1865.82" x2="330.29" y2="1865.82" style="stroke:#000000;stroke-width:4.00"/>
	<text x="312.51" y="1883.33" style="font-family:'Helvetica';font-size:49.99px;fill:#000000" text-anchor="end">25</text>
	<line x1="365.68" y1="1587.76" x2="330.29" y2="1587.76" style="stroke:#000000;stroke-width:4.00"/>
	<text x="312.51" y="1605.27" style="font-family:'Helvetica';font-size:49.99px;fill:#000000" text-anchor="end">30</text>
	<line x1="365.68" y1="1309.70" x2="330.29" y2="1309.70" style="stroke:#000000;stroke-width:4.00"/>
	<text x="312.51" y="1327.21" style="font-family:'Helvetica';font-size:49.99px;fill:#000000" text-anchor="end">35</text>
	<line x1="365.68" y1="1031.64" x2="330.29" y2="1031.64" style="stroke:#000000;stroke-width:4.00"/>
	<text x="312.51" y="1049.15" style="font-family:'Helvetica';font-size:49.99px;fill:#000000" text-anchor="end">40</text>
	<line x1="365.68" y1="753.58" x2="330.29" y2="753.58" style="stroke:#000000;stroke-width:4.00"/>
	<text x="312.51" y="771.10" style="font-family:'Helvetica';font-size:49.99px;fill:#000000" text-anchor="end">45</text>
	<line x1="365.68" y1="475.52" x2="330.29" y2="475.52" style="stroke:#000000;stroke-width:4.00"/>
	<text x="312.51" y="493.04" style="font-family:'Helvetica';font-size:49.99px;fill:#000000" text-anchor="end">50</text>
	<line x1="365.68" y1="1865.82" x2="365.68" y2="364.31" style="stroke:#000000;stroke-width:4.00"/>
	<text x="136.21" y="1076.84" style="font-family:'Helvetica';font-size:60.03px;fill:#000000" transform="rotate(-90 136.21,1076.84)" text-anchor="middle">ISEI-88, employed only</text>
	<line x1="421.81" y1="1921.94" x2="421.81" y2="1957.33" style="stroke:#000000;stroke-width:4.00"/>
	<text x="421.81" y="2009.98" style="font-family:'Helvetica';font-size:49.99px;fill:#000000" text-anchor="middle">1976</text>
	<line x1="655.39" y1="1921.94" x2="655.39" y2="1957.33" style="stroke:#000000;stroke-width:4.00"/>
	<text x="655.39" y="2009.98" style="font-family:'Helvetica';font-size:49.99px;fill:#000000" text-anchor="middle">1981</text>
	<line x1="889.05" y1="1921.94" x2="889.05" y2="1957.33" style="stroke:#000000;stroke-width:4.00"/>
	<text x="889.05" y="2009.98" style="font-family:'Helvetica';font-size:49.99px;fill:#000000" text-anchor="middle">1986</text>
	<line x1="1122.71" y1="1921.94" x2="1122.71" y2="1957.33" style="stroke:#000000;stroke-width:4.00"/>
	<text x="1122.71" y="2009.98" style="font-family:'Helvetica';font-size:49.99px;fill:#000000" text-anchor="middle">1991</text>
	<line x1="1356.30" y1="1921.94" x2="1356.30" y2="1957.33" style="stroke:#000000;stroke-width:4.00"/>
	<text x="1356.30" y="2009.98" style="font-family:'Helvetica';font-size:49.99px;fill:#000000" text-anchor="middle">1996</text>
	<line x1="1589.96" y1="1921.94" x2="1589.96" y2="1957.33" style="stroke:#000000;stroke-width:4.00"/>
	<text x="1589.96" y="2009.98" style="font-family:'Helvetica';font-size:49.99px;fill:#000000" text-anchor="middle">2001</text>
	<line x1="1823.54" y1="1921.94" x2="1823.54" y2="1957.33" style="stroke:#000000;stroke-width:4.00"/>
	<text x="1823.54" y="2009.98" style="font-family:'Helvetica';font-size:49.99px;fill:#000000" text-anchor="middle">2006</text>
	<line x1="2057.21" y1="1921.94" x2="2057.21" y2="1957.33" style="stroke:#000000;stroke-width:4.00"/>
	<text x="2057.21" y="2009.98" style="font-family:'Helvetica';font-size:49.99px;fill:#000000" text-anchor="middle">2011</text>
	<line x1="2290.79" y1="1921.94" x2="2290.79" y2="1957.33" style="stroke:#000000;stroke-width:4.00"/>
	<text x="2290.79" y="2009.98" style="font-family:'Helvetica';font-size:49.99px;fill:#000000" text-anchor="middle">2016</text>
	<line x1="421.81" y1="1921.94" x2="2290.79" y2="1921.94" style="stroke:#000000;stroke-width:4.00"/>
	<text x="1318.03" y="2152.37" style="font-family:'Helvetica';font-size:60.03px;fill:#000000" text-anchor="middle">Year</text>
	<text x="145.41" y="2396.65" style="font-family:'Helvetica';font-size:60.03px;fill:#000000">Arr. cohort: </text>
	<text x="487.81" y="2396.65" style="font-family:'Helvetica';font-size:60.03px;fill:#000000">1964-73</text>
	<text x="758.23" y="2396.65" style="font-family:'Helvetica';font-size:60.03px;fill:#000000">1974-83</text>
	<text x="1028.72" y="2396.65" style="font-family:'Helvetica';font-size:60.03px;fill:#000000">1984-93</text>
	<text x="1299.14" y="2396.65" style="font-family:'Helvetica';font-size:60.03px;fill:#000000">1994-03</text>
	<text x="1569.55" y="2396.65" style="font-family:'Helvetica';font-size:60.03px;fill:#000000">2004-10</text>
	<text x="1840.05" y="2396.65" style="font-family:'Helvetica';font-size:60.03px;fill:#000000">West G.</text>
	<text x="2110.46" y="2396.65" style="font-family:'Helvetica';font-size:60.03px;fill:#000000">East G.</text>
	<line x1="487.81" y1="2301.32" x2="663.76" y2="2301.32" style="stroke:#E69F00;stroke-width:10.00"/>
	<line x1="758.23" y1="2301.32" x2="934.25" y2="2301.32" style="stroke:#56B4E9;stroke-width:10.00"/>
	<line x1="1028.72" y1="2301.32" x2="1204.67" y2="2301.32" style="stroke:#009E73;stroke-width:10.00"/>
	<line x1="1299.14" y1="2301.32" x2="1475.08" y2="2301.32" style="stroke:#D55E00;stroke-width:10.00"/>
	<line x1="1569.55" y1="2301.32" x2="1745.58" y2="2301.32" style="stroke:#CC79A7;stroke-width:10.00"/>
	<line x1="1840.05" y1="2301.32" x2="1891.07" y2="2301.32" style="stroke:#A0A0A0;stroke-width:10.00"/>
	<line x1="1916.58" y1="2301.32" x2="1967.60" y2="2301.32" style="stroke:#A0A0A0;stroke-width:10.00"/>
	<line x1="1993.11" y1="2301.32" x2="2015.99" y2="2301.32" style="stroke:#A0A0A0;stroke-width:10.00"/>
	<line x1="2110.46" y1="2301.32" x2="2130.87" y2="2301.32" style="stroke:#A0A0A0;stroke-width:10.00"/>
	<line x1="2151.28" y1="2301.32" x2="2153.83" y2="2301.32" style="stroke:#A0A0A0;stroke-width:10.00"/>
	<line x1="2174.24" y1="2301.32" x2="2194.65" y2="2301.32" style="stroke:#A0A0A0;stroke-width:10.00"/>
	<line x1="2215.05" y1="2301.32" x2="2217.61" y2="2301.32" style="stroke:#A0A0A0;stroke-width:10.00"/>
	<line x1="2238.01" y1="2301.32" x2="2258.42" y2="2301.32" style="stroke:#A0A0A0;stroke-width:10.00"/>
	<text x="1356.30" y="239.12" style="font-family:'Helvetica';font-size:60.03px;fill:#000000" text-anchor="middle">Means, including East Germany</text>
	<text x="1356.30" y="154.88" style="font-family:'Helvetica';font-size:90.01px;fill:#000000" text-anchor="middle">ISEI-88, employed only, Women</text>
</svg>
