<?xml version="1.0" encoding="UTF-8" standalone="no"?>
<!-- This is a Stata 15.1 generated SVG file (http://www.stata.com) -->

<svg version="1.1" width="3.54in" height="3.54in" viewBox="0 0 2551 2551" xmlns="http://www.w3.org/2000/svg" xmlns:xlink="http://www.w3.org/1999/xlink">
	<desc>Stata Graph - Graph</desc>
	<rect x="0" y="0" width="2551" height="2551" style="fill:#FFFFFF;stroke:none"/>
	<rect x="0.00" y="0.08" width="2551.00" height="2550.92" style="fill:#FFFFFF"/>
	<rect x="2.55" y="2.63" width="2545.90" height="2545.82" style="fill:none;stroke:#FFFFFF;stroke-width:5.10"/>
	<line x1="365.68" y1="1904.40" x2="2346.91" y2="1904.40" style="stroke:#E8E8E8;stroke-width:4.00"/>
	<line x1="365.68" y1="1619.17" x2="2346.91" y2="1619.17" style="stroke:#E8E8E8;stroke-width:4.00"/>
	<line x1="365.68" y1="1334.01" x2="2346.91" y2="1334.01" style="stroke:#E8E8E8;stroke-width:4.00"/>
	<line x1="365.68" y1="1048.78" x2="2346.91" y2="1048.78" style="stroke:#E8E8E8;stroke-width:4.00"/>
	<line x1="365.68" y1="763.63" x2="2346.91" y2="763.63" style="stroke:#E8E8E8;stroke-width:4.00"/>
	<line x1="365.68" y1="478.39" x2="2346.91" y2="478.39" style="stroke:#E8E8E8;stroke-width:4.00"/>
	<line x1="421.81" y1="1960.52" x2="421.81" y2="308.19" style="stroke:#E8E8E8;stroke-width:4.00"/>
	<line x1="655.39" y1="1960.52" x2="655.39" y2="308.19" style="stroke:#E8E8E8;stroke-width:4.00"/>
	<line x1="889.05" y1="1960.52" x2="889.05" y2="308.19" style="stroke:#E8E8E8;stroke-width:4.00"/>
	<line x1="1122.71" y1="1960.52" x2="1122.71" y2="308.19" style="stroke:#E8E8E8;stroke-width:4.00"/>
	<line x1="1356.30" y1="1960.52" x2="1356.30" y2="308.19" style="stroke:#E8E8E8;stroke-width:4.00"/>
	<line x1="1589.96" y1="1960.52" x2="1589.96" y2="308.19" style="stroke:#E8E8E8;stroke-width:4.00"/>
	<line x1="1823.54" y1="1960.52" x2="1823.54" y2="308.19" style="stroke:#E8E8E8;stroke-width:4.00"/>
	<line x1="2057.21" y1="1960.52" x2="2057.21" y2="308.19" style="stroke:#E8E8E8;stroke-width:4.00"/>
	<line x1="2290.79" y1="1960.52" x2="2290.79" y2="308.19" style="stroke:#E8E8E8;stroke-width:4.00"/>
	<line x1="421.73" y1="1387.27" x2="515.24" y2="1400.98" stroke-linecap="round" style="stroke:#E69F00;stroke-width:10.00"/>
	<line x1="515.24" y1="1400.98" x2="608.67" y2="1435.81" stroke-linecap="round" style="stroke:#E69F00;stroke-width:10.00"/>
	<line x1="608.67" y1="1435.81" x2="702.10" y2="1389.58" stroke-linecap="round" style="stroke:#E69F00;stroke-width:10.00"/>
	<line x1="702.10" y1="1389.58" x2="842.25" y2="1417.24" stroke-linecap="round" style="stroke:#E69F00;stroke-width:10.00"/>
	<line x1="842.25" y1="1417.24" x2="935.77" y2="1384.63" stroke-linecap="round" style="stroke:#E69F00;stroke-width:10.00"/>
	<line x1="935.77" y1="1384.63" x2="1029.20" y2="1417.80" stroke-linecap="round" style="stroke:#E69F00;stroke-width:10.00"/>
	<line x1="1029.20" y1="1417.80" x2="1122.63" y2="1412.14" stroke-linecap="round" style="stroke:#E69F00;stroke-width:10.00"/>
	<line x1="1122.63" y1="1412.14" x2="1216.07" y2="1422.18" stroke-linecap="round" style="stroke:#E69F00;stroke-width:10.00"/>
	<line x1="1216.07" y1="1422.18" x2="1309.50" y2="1369.01" stroke-linecap="round" style="stroke:#E69F00;stroke-width:10.00"/>
	<line x1="1309.50" y1="1369.01" x2="1356.30" y2="1406.88" stroke-linecap="round" style="stroke:#E69F00;stroke-width:10.00"/>
	<line x1="1356.30" y1="1406.88" x2="1403.01" y2="1379.85" stroke-linecap="round" style="stroke:#E69F00;stroke-width:10.00"/>
	<line x1="1403.01" y1="1379.85" x2="1449.73" y2="1399.62" stroke-linecap="round" style="stroke:#E69F00;stroke-width:10.00"/>
	<line x1="1449.73" y1="1399.62" x2="1496.45" y2="1386.15" stroke-linecap="round" style="stroke:#E69F00;stroke-width:10.00"/>
	<line x1="1496.45" y1="1386.15" x2="1543.16" y2="1358.89" stroke-linecap="round" style="stroke:#E69F00;stroke-width:10.00"/>
	<line x1="1543.16" y1="1358.89" x2="1589.88" y2="1383.36" stroke-linecap="round" style="stroke:#E69F00;stroke-width:10.00"/>
	<line x1="1589.88" y1="1383.36" x2="1636.60" y2="1372.28" stroke-linecap="round" style="stroke:#E69F00;stroke-width:10.00"/>
	<line x1="1636.60" y1="1372.28" x2="1683.31" y2="1296.31" stroke-linecap="round" style="stroke:#E69F00;stroke-width:10.00"/>
	<line x1="842.25" y1="1074.61" x2="935.77" y2="1192.83" stroke-linecap="round" style="stroke:#56B4E9;stroke-width:10.00"/>
	<line x1="935.77" y1="1192.83" x2="1029.20" y2="1150.66" stroke-linecap="round" style="stroke:#56B4E9;stroke-width:10.00"/>
	<line x1="1029.20" y1="1150.66" x2="1122.63" y2="1084.81" stroke-linecap="round" style="stroke:#56B4E9;stroke-width:10.00"/>
	<line x1="1122.63" y1="1084.81" x2="1216.07" y2="1184.38" stroke-linecap="round" style="stroke:#56B4E9;stroke-width:10.00"/>
	<line x1="1216.07" y1="1184.38" x2="1309.50" y2="1153.93" stroke-linecap="round" style="stroke:#56B4E9;stroke-width:10.00"/>
	<line x1="1309.50" y1="1153.93" x2="1356.30" y2="1205.43" stroke-linecap="round" style="stroke:#56B4E9;stroke-width:10.00"/>
	<line x1="1356.30" y1="1205.43" x2="1403.01" y2="1208.54" stroke-linecap="round" style="stroke:#56B4E9;stroke-width:10.00"/>
	<line x1="1403.01" y1="1208.54" x2="1449.73" y2="1193.31" stroke-linecap="round" style="stroke:#56B4E9;stroke-width:10.00"/>
	<line x1="1449.73" y1="1193.31" x2="1496.45" y2="1120.77" stroke-linecap="round" style="stroke:#56B4E9;stroke-width:10.00"/>
	<line x1="1496.45" y1="1120.77" x2="1543.16" y2="1170.43" stroke-linecap="round" style="stroke:#56B4E9;stroke-width:10.00"/>
	<line x1="1543.16" y1="1170.43" x2="1589.88" y2="1152.18" stroke-linecap="round" style="stroke:#56B4E9;stroke-width:10.00"/>
	<line x1="1589.88" y1="1152.18" x2="1636.60" y2="1091.99" stroke-linecap="round" style="stroke:#56B4E9;stroke-width:10.00"/>
	<line x1="1636.60" y1="1091.99" x2="1683.31" y2="1130.25" stroke-linecap="round" style="stroke:#56B4E9;stroke-width:10.00"/>
	<line x1="1683.31" y1="1130.25" x2="1730.03" y2="1181.83" stroke-linecap="round" style="stroke:#56B4E9;stroke-width:10.00"/>
	<line x1="1730.03" y1="1181.83" x2="1776.75" y2="1073.89" stroke-linecap="round" style="stroke:#56B4E9;stroke-width:10.00"/>
	<line x1="1776.75" y1="1073.89" x2="1823.54" y2="1145.88" stroke-linecap="round" style="stroke:#56B4E9;stroke-width:10.00"/>
	<line x1="1823.54" y1="1145.88" x2="1870.26" y2="1103.79" stroke-linecap="round" style="stroke:#56B4E9;stroke-width:10.00"/>
	<line x1="1870.26" y1="1103.79" x2="1916.98" y2="1114.87" stroke-linecap="round" style="stroke:#56B4E9;stroke-width:10.00"/>
	<line x1="1916.98" y1="1114.87" x2="1963.69" y2="1165.49" stroke-linecap="round" style="stroke:#56B4E9;stroke-width:10.00"/>
	<line x1="1963.69" y1="1165.49" x2="2010.41" y2="1167.16" stroke-linecap="round" style="stroke:#56B4E9;stroke-width:10.00"/>
	<line x1="2010.41" y1="1167.16" x2="2057.13" y2="1116.54" stroke-linecap="round" style="stroke:#56B4E9;stroke-width:10.00"/>
	<line x1="2057.13" y1="1116.54" x2="2103.84" y2="1073.25" stroke-linecap="round" style="stroke:#56B4E9;stroke-width:10.00"/>
	<line x1="2103.84" y1="1073.25" x2="2150.56" y2="1009.32" stroke-linecap="round" style="stroke:#56B4E9;stroke-width:10.00"/>
	<line x1="1309.50" y1="1194.90" x2="1356.30" y2="1290.09" stroke-linecap="round" style="stroke:#009E73;stroke-width:10.00"/>
	<line x1="1356.30" y1="1290.09" x2="1403.01" y2="1283.79" stroke-linecap="round" style="stroke:#009E73;stroke-width:10.00"/>
	<line x1="1403.01" y1="1283.79" x2="1449.73" y2="1260.99" stroke-linecap="round" style="stroke:#009E73;stroke-width:10.00"/>
	<line x1="1449.73" y1="1260.99" x2="1496.45" y2="1274.07" stroke-linecap="round" style="stroke:#009E73;stroke-width:10.00"/>
	<line x1="1496.45" y1="1274.07" x2="1543.16" y2="1256.53" stroke-linecap="round" style="stroke:#009E73;stroke-width:10.00"/>
	<line x1="1543.16" y1="1256.53" x2="1589.88" y2="1267.05" stroke-linecap="round" style="stroke:#009E73;stroke-width:10.00"/>
	<line x1="1589.88" y1="1267.05" x2="1636.60" y2="1285.94" stroke-linecap="round" style="stroke:#009E73;stroke-width:10.00"/>
	<line x1="1636.60" y1="1285.94" x2="1683.31" y2="1282.67" stroke-linecap="round" style="stroke:#009E73;stroke-width:10.00"/>
	<line x1="1683.31" y1="1282.67" x2="1730.03" y2="1243.05" stroke-linecap="round" style="stroke:#009E73;stroke-width:10.00"/>
	<line x1="1730.03" y1="1243.05" x2="1776.75" y2="1131.45" stroke-linecap="round" style="stroke:#009E73;stroke-width:10.00"/>
	<line x1="1776.75" y1="1131.45" x2="1823.54" y2="1211.96" stroke-linecap="round" style="stroke:#009E73;stroke-width:10.00"/>
	<line x1="1823.54" y1="1211.96" x2="1870.26" y2="1214.36" stroke-linecap="round" style="stroke:#009E73;stroke-width:10.00"/>
	<line x1="1870.26" y1="1214.36" x2="1916.98" y2="1245.92" stroke-linecap="round" style="stroke:#009E73;stroke-width:10.00"/>
	<line x1="1916.98" y1="1245.92" x2="1963.69" y2="1223.52" stroke-linecap="round" style="stroke:#009E73;stroke-width:10.00"/>
	<line x1="1963.69" y1="1223.52" x2="2010.41" y2="1277.65" stroke-linecap="round" style="stroke:#009E73;stroke-width:10.00"/>
	<line x1="2010.41" y1="1277.65" x2="2057.13" y2="1255.33" stroke-linecap="round" style="stroke:#009E73;stroke-width:10.00"/>
	<line x1="2057.13" y1="1255.33" x2="2103.84" y2="1234.92" stroke-linecap="round" style="stroke:#009E73;stroke-width:10.00"/>
	<line x1="2103.84" y1="1234.92" x2="2150.56" y2="1244.89" stroke-linecap="round" style="stroke:#009E73;stroke-width:10.00"/>
	<line x1="2150.56" y1="1244.89" x2="2197.28" y2="1237.87" stroke-linecap="round" style="stroke:#009E73;stroke-width:10.00"/>
	<line x1="2197.28" y1="1237.87" x2="2243.99" y2="1239.63" stroke-linecap="round" style="stroke:#009E73;stroke-width:10.00"/>
	<line x1="1730.03" y1="1083.94" x2="1776.75" y2="1005.17" stroke-linecap="round" style="stroke:#D55E00;stroke-width:10.00"/>
	<line x1="1776.75" y1="1005.17" x2="1823.54" y2="1047.82" stroke-linecap="round" style="stroke:#D55E00;stroke-width:10.00"/>
	<line x1="1823.54" y1="1047.82" x2="1870.26" y2="1110.56" stroke-linecap="round" style="stroke:#D55E00;stroke-width:10.00"/>
	<line x1="1870.26" y1="1110.56" x2="1916.98" y2="1093.42" stroke-linecap="round" style="stroke:#D55E00;stroke-width:10.00"/>
	<line x1="1916.98" y1="1093.42" x2="1963.69" y2="1088.00" stroke-linecap="round" style="stroke:#D55E00;stroke-width:10.00"/>
	<line x1="1963.69" y1="1088.00" x2="2010.41" y2="1072.78" stroke-linecap="round" style="stroke:#D55E00;stroke-width:10.00"/>
	<line x1="2010.41" y1="1072.78" x2="2057.13" y2="1094.62" stroke-linecap="round" style="stroke:#D55E00;stroke-width:10.00"/>
	<line x1="2057.13" y1="1094.62" x2="2103.84" y2="1074.37" stroke-linecap="round" style="stroke:#D55E00;stroke-width:10.00"/>
	<line x1="2103.84" y1="1074.37" x2="2150.56" y2="1091.83" stroke-linecap="round" style="stroke:#D55E00;stroke-width:10.00"/>
	<line x1="2150.56" y1="1091.83" x2="2197.28" y2="1076.20" stroke-linecap="round" style="stroke:#D55E00;stroke-width:10.00"/>
	<line x1="2197.28" y1="1076.20" x2="2243.99" y2="1107.37" stroke-linecap="round" style="stroke:#D55E00;stroke-width:10.00"/>
	<line x1="2057.13" y1="857.14" x2="2103.84" y2="852.99" stroke-linecap="round" style="stroke:#CC79A7;stroke-width:10.00"/>
	<line x1="2103.84" y1="852.99" x2="2150.56" y2="909.91" stroke-linecap="round" style="stroke:#CC79A7;stroke-width:10.00"/>
	<line x1="2150.56" y1="909.91" x2="2197.28" y2="939.25" stroke-linecap="round" style="stroke:#CC79A7;stroke-width:10.00"/>
	<line x1="2197.28" y1="939.25" x2="2243.99" y2="931.67" stroke-linecap="round" style="stroke:#CC79A7;stroke-width:10.00"/>
	<line x1="421.73" y1="925.45" x2="472.43" y2="931.12" style="stroke:#A0A0A0;stroke-width:10.00"/>
	<line x1="497.78" y1="933.91" x2="515.24" y2="935.90" style="stroke:#A0A0A0;stroke-width:10.00"/>
	<line x1="515.24" y1="935.90" x2="548.56" y2="933.35" style="stroke:#A0A0A0;stroke-width:10.00"/>
	<line x1="573.99" y1="931.35" x2="608.67" y2="928.72" style="stroke:#A0A0A0;stroke-width:10.00"/>
	<line x1="608.67" y1="928.72" x2="623.58" y2="922.19" style="stroke:#A0A0A0;stroke-width:10.00"/>
	<line x1="646.94" y1="911.90" x2="693.57" y2="891.26" style="stroke:#A0A0A0;stroke-width:10.00"/>
	<line x1="717.57" y1="882.73" x2="766.36" y2="867.82" style="stroke:#A0A0A0;stroke-width:10.00"/>
	<line x1="790.75" y1="860.32" x2="839.54" y2="845.34" style="stroke:#A0A0A0;stroke-width:10.00"/>
	<line x1="864.66" y1="840.71" x2="914.96" y2="832.18" style="stroke:#A0A0A0;stroke-width:10.00"/>
	<line x1="940.07" y1="827.88" x2="990.46" y2="819.67" style="stroke:#A0A0A0;stroke-width:10.00"/>
	<line x1="1015.65" y1="815.52" x2="1029.20" y2="813.29" style="stroke:#A0A0A0;stroke-width:10.00"/>
	<line x1="1029.20" y1="813.29" x2="1066.19" y2="818.15" style="stroke:#A0A0A0;stroke-width:10.00"/>
	<line x1="1091.46" y1="821.42" x2="1122.63" y2="825.49" style="stroke:#A0A0A0;stroke-width:10.00"/>
	<line x1="1122.63" y1="825.49" x2="1140.09" y2="816.64" style="stroke:#A0A0A0;stroke-width:10.00"/>
	<line x1="1162.89" y1="805.08" x2="1208.41" y2="782.04" style="stroke:#A0A0A0;stroke-width:10.00"/>
	<line x1="1232.49" y1="774.39" x2="1282.24" y2="762.99" style="stroke:#A0A0A0;stroke-width:10.00"/>
	<line x1="1307.11" y1="757.33" x2="1309.50" y2="756.77" style="stroke:#A0A0A0;stroke-width:10.00"/>
	<line x1="1309.50" y1="756.77" x2="1356.30" y2="757.33" style="stroke:#A0A0A0;stroke-width:10.00"/>
	<line x1="1356.30" y1="757.33" x2="1358.05" y2="756.93" style="stroke:#A0A0A0;stroke-width:10.00"/>
	<line x1="1382.92" y1="751.27" x2="1403.01" y2="746.73" style="stroke:#A0A0A0;stroke-width:10.00"/>
	<line x1="1403.01" y1="746.73" x2="1433.39" y2="744.89" style="stroke:#A0A0A0;stroke-width:10.00"/>
	<line x1="1458.82" y1="744.89" x2="1496.45" y2="749.28" style="stroke:#A0A0A0;stroke-width:10.00"/>
	<line x1="1496.45" y1="749.28" x2="1509.60" y2="749.28" style="stroke:#A0A0A0;stroke-width:10.00"/>
	<line x1="1535.11" y1="749.28" x2="1543.16" y2="749.28" style="stroke:#A0A0A0;stroke-width:10.00"/>
	<line x1="1543.16" y1="749.28" x2="1585.50" y2="742.18" style="stroke:#A0A0A0;stroke-width:10.00"/>
	<line x1="1610.53" y1="737.24" x2="1636.60" y2="731.98" style="stroke:#A0A0A0;stroke-width:10.00"/>
	<line x1="1636.60" y1="731.98" x2="1660.59" y2="727.35" style="stroke:#A0A0A0;stroke-width:10.00"/>
	<line x1="1685.71" y1="722.97" x2="1730.03" y2="723.53" style="stroke:#A0A0A0;stroke-width:10.00"/>
	<line x1="1730.03" y1="723.53" x2="1735.93" y2="720.42" style="stroke:#A0A0A0;stroke-width:10.00"/>
	<line x1="1758.41" y1="708.38" x2="1776.75" y2="698.50" style="stroke:#A0A0A0;stroke-width:10.00"/>
	<line x1="1776.75" y1="698.50" x2="1806.88" y2="699.85" style="stroke:#A0A0A0;stroke-width:10.00"/>
	<line x1="1832.39" y1="701.21" x2="1870.26" y2="703.92" style="stroke:#A0A0A0;stroke-width:10.00"/>
	<line x1="1870.26" y1="703.92" x2="1883.25" y2="702.72" style="stroke:#A0A0A0;stroke-width:10.00"/>
	<line x1="1908.69" y1="700.33" x2="1916.98" y2="699.61" style="stroke:#A0A0A0;stroke-width:10.00"/>
	<line x1="1916.98" y1="699.61" x2="1956.36" y2="683.19" style="stroke:#A0A0A0;stroke-width:10.00"/>
	<line x1="1981.15" y1="677.93" x2="2010.41" y2="674.34" style="stroke:#A0A0A0;stroke-width:10.00"/>
	<line x1="2010.41" y1="674.34" x2="2030.26" y2="665.97" style="stroke:#A0A0A0;stroke-width:10.00"/>
	<line x1="2053.70" y1="656.01" x2="2057.13" y2="654.57" style="stroke:#A0A0A0;stroke-width:10.00"/>
	<line x1="2057.13" y1="654.57" x2="2102.49" y2="641.26" style="stroke:#A0A0A0;stroke-width:10.00"/>
	<line x1="2127.60" y1="636.79" x2="2150.56" y2="632.89" style="stroke:#A0A0A0;stroke-width:10.00"/>
	<line x1="2150.56" y1="632.89" x2="2178.22" y2="630.97" style="stroke:#A0A0A0;stroke-width:10.00"/>
	<line x1="2203.26" y1="627.31" x2="2243.99" y2="611.60" style="stroke:#A0A0A0;stroke-width:10.00"/>
	<line x1="365.68" y1="1904.40" x2="330.29" y2="1904.40" style="stroke:#000000;stroke-width:4.00"/>
	<text x="312.51" y="1921.92" style="font-family:'Helvetica';font-size:49.99px;fill:#000000" text-anchor="end">25</text>
	<line x1="365.68" y1="1619.17" x2="330.29" y2="1619.17" style="stroke:#000000;stroke-width:4.00"/>
	<text x="312.51" y="1636.68" style="font-family:'Helvetica';font-size:49.99px;fill:#000000" text-anchor="end">30</text>
	<line x1="365.68" y1="1334.01" x2="330.29" y2="1334.01" style="stroke:#000000;stroke-width:4.00"/>
	<text x="312.51" y="1351.53" style="font-family:'Helvetica';font-size:49.99px;fill:#000000" text-anchor="end">35</text>
	<line x1="365.68" y1="1048.78" x2="330.29" y2="1048.78" style="stroke:#000000;stroke-width:4.00"/>
	<text x="312.51" y="1066.29" style="font-family:'Helvetica';font-size:49.99px;fill:#000000" text-anchor="end">40</text>
	<line x1="365.68" y1="763.63" x2="330.29" y2="763.63" style="stroke:#000000;stroke-width:4.00"/>
	<text x="312.51" y="781.14" style="font-family:'Helvetica';font-size:49.99px;fill:#000000" text-anchor="end">45</text>
	<line x1="365.68" y1="478.39" x2="330.29" y2="478.39" style="stroke:#000000;stroke-width:4.00"/>
	<text x="312.51" y="495.91" style="font-family:'Helvetica';font-size:49.99px;fill:#000000" text-anchor="end">50</text>
	<line x1="365.68" y1="1904.40" x2="365.68" y2="364.31" style="stroke:#000000;stroke-width:4.00"/>
	<text x="136.21" y="1096.13" style="font-family:'Helvetica';font-size:60.03px;fill:#000000" transform="rotate(-90 136.21,1096.13)" text-anchor="middle">ISEI-88, employed only</text>
	<line x1="421.81" y1="1960.52" x2="421.81" y2="1995.92" style="stroke:#000000;stroke-width:4.00"/>
	<text x="421.81" y="2048.56" style="font-family:'Helvetica';font-size:49.99px;fill:#000000" text-anchor="middle">1976</text>
	<line x1="655.39" y1="1960.52" x2="655.39" y2="1995.92" style="stroke:#000000;stroke-width:4.00"/>
	<text x="655.39" y="2048.56" style="font-family:'Helvetica';font-size:49.99px;fill:#000000" text-anchor="middle">1981</text>
	<line x1="889.05" y1="1960.52" x2="889.05" y2="1995.92" style="stroke:#000000;stroke-width:4.00"/>
	<text x="889.05" y="2048.56" style="font-family:'Helvetica';font-size:49.99px;fill:#000000" text-anchor="middle">1986</text>
	<line x1="1122.71" y1="1960.52" x2="1122.71" y2="1995.92" style="stroke:#000000;stroke-width:4.00"/>
	<text x="1122.71" y="2048.56" style="font-family:'Helvetica';font-size:49.99px;fill:#000000" text-anchor="middle">1991</text>
	<line x1="1356.30" y1="1960.52" x2="1356.30" y2="1995.92" style="stroke:#000000;stroke-width:4.00"/>
	<text x="1356.30" y="2048.56" style="font-family:'Helvetica';font-size:49.99px;fill:#000000" text-anchor="middle">1996</text>
	<line x1="1589.96" y1="1960.52" x2="1589.96" y2="1995.92" style="stroke:#000000;stroke-width:4.00"/>
	<text x="1589.96" y="2048.56" style="font-family:'Helvetica';font-size:49.99px;fill:#000000" text-anchor="middle">2001</text>
	<line x1="1823.54" y1="1960.52" x2="1823.54" y2="1995.92" style="stroke:#000000;stroke-width:4.00"/>
	<text x="1823.54" y="2048.56" style="font-family:'Helvetica';font-size:49.99px;fill:#000000" text-anchor="middle">2006</text>
	<line x1="2057.21" y1="1960.52" x2="2057.21" y2="1995.92" style="stroke:#000000;stroke-width:4.00"/>
	<text x="2057.21" y="2048.56" style="font-family:'Helvetica';font-size:49.99px;fill:#000000" text-anchor="middle">2011</text>
	<line x1="2290.79" y1="1960.52" x2="2290.79" y2="1995.92" style="stroke:#000000;stroke-width:4.00"/>
	<text x="2290.79" y="2048.56" style="font-family:'Helvetica';font-size:49.99px;fill:#000000" text-anchor="middle">2016</text>
	<line x1="421.81" y1="1960.52" x2="2290.79" y2="1960.52" style="stroke:#000000;stroke-width:4.00"/>
	<text x="1318.03" y="2190.96" style="font-family:'Helvetica';font-size:60.03px;fill:#000000" text-anchor="middle">Year</text>
	<text x="145.41" y="2396.65" style="font-family:'Helvetica';font-size:60.03px;fill:#000000">Arr. cohort: </text>
	<text x="536.36" y="2396.65" style="font-family:'Helvetica';font-size:60.03px;fill:#000000">1964-73</text>
	<text x="845.12" y="2396.65" style="font-family:'Helvetica';font-size:60.03px;fill:#000000">1974-83</text>
	<text x="1153.89" y="2396.65" style="font-family:'Helvetica';font-size:60.03px;fill:#000000">1984-93</text>
	<text x="1462.65" y="2396.65" style="font-family:'Helvetica';font-size:60.03px;fill:#000000">1994-03</text>
	<text x="1771.41" y="2396.65" style="font-family:'Helvetica';font-size:60.03px;fill:#000000">2004-10</text>
	<text x="2080.17" y="2396.65" style="font-family:'Helvetica';font-size:60.03px;fill:#000000">German</text>
	<line x1="536.36" y1="2320.61" x2="737.26" y2="2320.61" style="stroke:#E69F00;stroke-width:10.00"/>
	<line x1="845.12" y1="2320.61" x2="1046.02" y2="2320.61" style="stroke:#56B4E9;stroke-width:10.00"/>
	<line x1="1153.89" y1="2320.61" x2="1354.78" y2="2320.61" style="stroke:#009E73;stroke-width:10.00"/>
	<line x1="1462.65" y1="2320.61" x2="1663.54" y2="2320.61" style="stroke:#D55E00;stroke-width:10.00"/>
	<line x1="1771.41" y1="2320.61" x2="1972.30" y2="2320.61" style="stroke:#CC79A7;stroke-width:10.00"/>
	<line x1="2080.17" y1="2320.61" x2="2131.19" y2="2320.61" style="stroke:#A0A0A0;stroke-width:10.00"/>
	<line x1="2156.70" y1="2320.61" x2="2207.72" y2="2320.61" style="stroke:#A0A0A0;stroke-width:10.00"/>
	<line x1="2233.23" y1="2320.61" x2="2278.03" y2="2320.61" style="stroke:#A0A0A0;stroke-width:10.00"/>
	<text x="1356.30" y="239.12" style="font-family:'Helvetica';font-size:60.03px;fill:#000000" text-anchor="middle">Means</text>
	<text x="1356.30" y="154.88" style="font-family:'Helvetica';font-size:90.01px;fill:#000000" text-anchor="middle">ISEI-88, employed only, Men</text>
</svg>
