<?xml version="1.0" encoding="UTF-8" standalone="no"?>
<!-- This is a Stata 15.1 generated SVG file (http://www.stata.com) -->

<svg version="1.1" width="3.54in" height="3.54in" viewBox="0 0 2551 2551" xmlns="http://www.w3.org/2000/svg" xmlns:xlink="http://www.w3.org/1999/xlink">
	<desc>Stata Graph - Graph</desc>
	<rect x="0" y="0" width="2551" height="2551" style="fill:#FFFFFF;stroke:none"/>
	<rect x="0.00" y="0.08" width="2551.00" height="2550.92" style="fill:#FFFFFF"/>
	<rect x="2.55" y="2.63" width="2545.90" height="2545.82" style="fill:none;stroke:#FFFFFF;stroke-width:5.10"/>
	<line x1="365.68" y1="1865.82" x2="2346.91" y2="1865.82" style="stroke:#E8E8E8;stroke-width:4.00"/>
	<line x1="365.68" y1="1587.76" x2="2346.91" y2="1587.76" style="stroke:#E8E8E8;stroke-width:4.00"/>
	<line x1="365.68" y1="1309.70" x2="2346.91" y2="1309.70" style="stroke:#E8E8E8;stroke-width:4.00"/>
	<line x1="365.68" y1="1031.64" x2="2346.91" y2="1031.64" style="stroke:#E8E8E8;stroke-width:4.00"/>
	<line x1="365.68" y1="753.58" x2="2346.91" y2="753.58" style="stroke:#E8E8E8;stroke-width:4.00"/>
	<line x1="365.68" y1="475.52" x2="2346.91" y2="475.52" style="stroke:#E8E8E8;stroke-width:4.00"/>
	<line x1="421.81" y1="1921.94" x2="421.81" y2="308.19" style="stroke:#E8E8E8;stroke-width:4.00"/>
	<line x1="723.23" y1="1921.94" x2="723.23" y2="308.19" style="stroke:#E8E8E8;stroke-width:4.00"/>
	<line x1="1024.74" y1="1921.94" x2="1024.74" y2="308.19" style="stroke:#E8E8E8;stroke-width:4.00"/>
	<line x1="1326.16" y1="1921.94" x2="1326.16" y2="308.19" style="stroke:#E8E8E8;stroke-width:4.00"/>
	<line x1="1627.59" y1="1921.94" x2="1627.59" y2="308.19" style="stroke:#E8E8E8;stroke-width:4.00"/>
	<line x1="1929.09" y1="1921.94" x2="1929.09" y2="308.19" style="stroke:#E8E8E8;stroke-width:4.00"/>
	<line x1="2230.52" y1="1921.94" x2="2230.52" y2="308.19" style="stroke:#E8E8E8;stroke-width:4.00"/>
	<line x1="1145.28" y1="1387.35" x2="1205.54" y2="1386.15" stroke-linecap="round" style="stroke:#E69F00;stroke-width:10.00"/>
	<line x1="1205.54" y1="1386.15" x2="1265.81" y2="1417.00" stroke-linecap="round" style="stroke:#E69F00;stroke-width:10.00"/>
	<line x1="1265.81" y1="1417.00" x2="1326.08" y2="1393.24" stroke-linecap="round" style="stroke:#E69F00;stroke-width:10.00"/>
	<line x1="1326.08" y1="1393.24" x2="1386.43" y2="1437.25" stroke-linecap="round" style="stroke:#E69F00;stroke-width:10.00"/>
	<line x1="1386.43" y1="1437.25" x2="1446.70" y2="1376.82" stroke-linecap="round" style="stroke:#E69F00;stroke-width:10.00"/>
	<line x1="1446.70" y1="1376.82" x2="1506.97" y2="1408.79" stroke-linecap="round" style="stroke:#E69F00;stroke-width:10.00"/>
	<line x1="1506.97" y1="1408.79" x2="1567.24" y2="1379.45" stroke-linecap="round" style="stroke:#E69F00;stroke-width:10.00"/>
	<line x1="1567.24" y1="1379.45" x2="1627.59" y2="1427.60" stroke-linecap="round" style="stroke:#E69F00;stroke-width:10.00"/>
	<line x1="1627.59" y1="1427.60" x2="1687.86" y2="1336.88" stroke-linecap="round" style="stroke:#E69F00;stroke-width:10.00"/>
	<line x1="1687.86" y1="1336.88" x2="1748.13" y2="1386.95" stroke-linecap="round" style="stroke:#E69F00;stroke-width:10.00"/>
	<line x1="1748.13" y1="1386.95" x2="1808.48" y2="1322.06" stroke-linecap="round" style="stroke:#E69F00;stroke-width:10.00"/>
	<line x1="1808.48" y1="1322.06" x2="1868.75" y2="1373.55" stroke-linecap="round" style="stroke:#E69F00;stroke-width:10.00"/>
	<line x1="1868.75" y1="1373.55" x2="1929.01" y2="1391.25" stroke-linecap="round" style="stroke:#E69F00;stroke-width:10.00"/>
	<line x1="1929.01" y1="1391.25" x2="1989.28" y2="1411.58" stroke-linecap="round" style="stroke:#E69F00;stroke-width:10.00"/>
	<line x1="1989.28" y1="1411.58" x2="2049.63" y2="1371.48" stroke-linecap="round" style="stroke:#E69F00;stroke-width:10.00"/>
	<line x1="2049.63" y1="1371.48" x2="2109.90" y2="1379.37" stroke-linecap="round" style="stroke:#E69F00;stroke-width:10.00"/>
	<line x1="2109.90" y1="1379.37" x2="2170.17" y2="1360.32" stroke-linecap="round" style="stroke:#E69F00;stroke-width:10.00"/>
	<line x1="2170.17" y1="1360.32" x2="2230.44" y2="1388.94" stroke-linecap="round" style="stroke:#E69F00;stroke-width:10.00"/>
	<line x1="542.34" y1="973.61" x2="602.61" y2="961.01" stroke-linecap="round" style="stroke:#56B4E9;stroke-width:10.00"/>
	<line x1="602.61" y1="961.01" x2="662.96" y2="1017.85" stroke-linecap="round" style="stroke:#56B4E9;stroke-width:10.00"/>
	<line x1="662.96" y1="1017.85" x2="723.23" y2="1089.99" stroke-linecap="round" style="stroke:#56B4E9;stroke-width:10.00"/>
	<line x1="723.23" y1="1089.99" x2="783.50" y2="1127.54" stroke-linecap="round" style="stroke:#56B4E9;stroke-width:10.00"/>
	<line x1="783.50" y1="1127.54" x2="843.77" y2="1095.42" stroke-linecap="round" style="stroke:#56B4E9;stroke-width:10.00"/>
	<line x1="843.77" y1="1095.42" x2="904.12" y2="1261.55" stroke-linecap="round" style="stroke:#56B4E9;stroke-width:10.00"/>
	<line x1="904.12" y1="1261.55" x2="964.39" y2="1122.92" stroke-linecap="round" style="stroke:#56B4E9;stroke-width:10.00"/>
	<line x1="964.39" y1="1122.92" x2="1024.66" y2="996.56" stroke-linecap="round" style="stroke:#56B4E9;stroke-width:10.00"/>
	<line x1="1024.66" y1="996.56" x2="1084.93" y2="1241.06" stroke-linecap="round" style="stroke:#56B4E9;stroke-width:10.00"/>
	<line x1="1084.93" y1="1241.06" x2="1145.28" y2="1187.41" stroke-linecap="round" style="stroke:#56B4E9;stroke-width:10.00"/>
	<line x1="1145.28" y1="1187.41" x2="1205.54" y2="1167.88" stroke-linecap="round" style="stroke:#56B4E9;stroke-width:10.00"/>
	<line x1="1205.54" y1="1167.88" x2="1265.81" y2="1179.04" stroke-linecap="round" style="stroke:#56B4E9;stroke-width:10.00"/>
	<line x1="1265.81" y1="1179.04" x2="1326.08" y2="1274.14" stroke-linecap="round" style="stroke:#56B4E9;stroke-width:10.00"/>
	<line x1="1326.08" y1="1274.14" x2="1386.43" y2="1240.90" stroke-linecap="round" style="stroke:#56B4E9;stroke-width:10.00"/>
	<line x1="1386.43" y1="1240.90" x2="1446.70" y2="1210.05" stroke-linecap="round" style="stroke:#56B4E9;stroke-width:10.00"/>
	<line x1="1446.70" y1="1210.05" x2="1506.97" y2="1240.74" stroke-linecap="round" style="stroke:#56B4E9;stroke-width:10.00"/>
	<line x1="1506.97" y1="1240.74" x2="1567.24" y2="1276.38" stroke-linecap="round" style="stroke:#56B4E9;stroke-width:10.00"/>
	<line x1="1567.24" y1="1276.38" x2="1627.59" y2="1210.93" stroke-linecap="round" style="stroke:#56B4E9;stroke-width:10.00"/>
	<line x1="1627.59" y1="1210.93" x2="1687.86" y2="1330.75" stroke-linecap="round" style="stroke:#56B4E9;stroke-width:10.00"/>
	<line x1="1687.86" y1="1330.75" x2="1748.13" y2="1281.24" stroke-linecap="round" style="stroke:#56B4E9;stroke-width:10.00"/>
	<line x1="1748.13" y1="1281.24" x2="1808.48" y2="1336.48" stroke-linecap="round" style="stroke:#56B4E9;stroke-width:10.00"/>
	<line x1="1808.48" y1="1336.48" x2="1868.75" y2="1292.00" stroke-linecap="round" style="stroke:#56B4E9;stroke-width:10.00"/>
	<line x1="1868.75" y1="1292.00" x2="1929.01" y2="1317.99" stroke-linecap="round" style="stroke:#56B4E9;stroke-width:10.00"/>
	<line x1="1929.01" y1="1317.99" x2="1989.28" y2="1226.71" stroke-linecap="round" style="stroke:#56B4E9;stroke-width:10.00"/>
	<line x1="1989.28" y1="1226.71" x2="2049.63" y2="1235.16" stroke-linecap="round" style="stroke:#56B4E9;stroke-width:10.00"/>
	<line x1="2049.63" y1="1235.16" x2="2109.90" y2="1196.02" stroke-linecap="round" style="stroke:#56B4E9;stroke-width:10.00"/>
	<line x1="2109.90" y1="1196.02" x2="2170.17" y2="1101.08" stroke-linecap="round" style="stroke:#56B4E9;stroke-width:10.00"/>
	<line x1="2170.17" y1="1101.08" x2="2230.44" y2="1238.19" stroke-linecap="round" style="stroke:#56B4E9;stroke-width:10.00"/>
	<line x1="482.07" y1="1016.81" x2="542.34" y2="1149.86" stroke-linecap="round" style="stroke:#009E73;stroke-width:10.00"/>
	<line x1="542.34" y1="1149.86" x2="602.61" y2="1172.10" stroke-linecap="round" style="stroke:#009E73;stroke-width:10.00"/>
	<line x1="602.61" y1="1172.10" x2="662.96" y2="1160.55" stroke-linecap="round" style="stroke:#009E73;stroke-width:10.00"/>
	<line x1="662.96" y1="1160.55" x2="723.23" y2="1166.76" stroke-linecap="round" style="stroke:#009E73;stroke-width:10.00"/>
	<line x1="723.23" y1="1166.76" x2="783.50" y2="1166.60" stroke-linecap="round" style="stroke:#009E73;stroke-width:10.00"/>
	<line x1="783.50" y1="1166.60" x2="843.77" y2="1194.11" stroke-linecap="round" style="stroke:#009E73;stroke-width:10.00"/>
	<line x1="843.77" y1="1194.11" x2="904.12" y2="1273.11" stroke-linecap="round" style="stroke:#009E73;stroke-width:10.00"/>
	<line x1="904.12" y1="1273.11" x2="964.39" y2="1247.12" stroke-linecap="round" style="stroke:#009E73;stroke-width:10.00"/>
	<line x1="964.39" y1="1247.12" x2="1024.66" y2="1210.29" stroke-linecap="round" style="stroke:#009E73;stroke-width:10.00"/>
	<line x1="1024.66" y1="1210.29" x2="1084.93" y2="1259.16" stroke-linecap="round" style="stroke:#009E73;stroke-width:10.00"/>
	<line x1="1084.93" y1="1259.16" x2="1145.28" y2="1181.03" stroke-linecap="round" style="stroke:#009E73;stroke-width:10.00"/>
	<line x1="1145.28" y1="1181.03" x2="1205.54" y2="1259.32" stroke-linecap="round" style="stroke:#009E73;stroke-width:10.00"/>
	<line x1="1205.54" y1="1259.32" x2="1265.81" y2="1252.22" stroke-linecap="round" style="stroke:#009E73;stroke-width:10.00"/>
	<line x1="1265.81" y1="1252.22" x2="1326.08" y2="1281.64" stroke-linecap="round" style="stroke:#009E73;stroke-width:10.00"/>
	<line x1="1326.08" y1="1281.64" x2="1386.43" y2="1257.96" stroke-linecap="round" style="stroke:#009E73;stroke-width:10.00"/>
	<line x1="1386.43" y1="1257.96" x2="1446.70" y2="1236.60" stroke-linecap="round" style="stroke:#009E73;stroke-width:10.00"/>
	<line x1="1446.70" y1="1236.60" x2="1506.97" y2="1235.40" stroke-linecap="round" style="stroke:#009E73;stroke-width:10.00"/>
	<line x1="1506.97" y1="1235.40" x2="1567.24" y2="1242.50" stroke-linecap="round" style="stroke:#009E73;stroke-width:10.00"/>
	<line x1="1567.24" y1="1242.50" x2="1627.59" y2="1285.86" stroke-linecap="round" style="stroke:#009E73;stroke-width:10.00"/>
	<line x1="1627.59" y1="1285.86" x2="1687.86" y2="1258.52" stroke-linecap="round" style="stroke:#009E73;stroke-width:10.00"/>
	<line x1="1687.86" y1="1258.52" x2="1748.13" y2="1281.32" stroke-linecap="round" style="stroke:#009E73;stroke-width:10.00"/>
	<line x1="482.07" y1="883.20" x2="542.34" y2="987.64" stroke-linecap="round" style="stroke:#D55E00;stroke-width:10.00"/>
	<line x1="542.34" y1="987.64" x2="602.61" y2="1021.52" stroke-linecap="round" style="stroke:#D55E00;stroke-width:10.00"/>
	<line x1="602.61" y1="1021.52" x2="662.96" y2="1070.54" stroke-linecap="round" style="stroke:#D55E00;stroke-width:10.00"/>
	<line x1="662.96" y1="1070.54" x2="723.23" y2="1130.41" stroke-linecap="round" style="stroke:#D55E00;stroke-width:10.00"/>
	<line x1="723.23" y1="1130.41" x2="783.50" y2="1115.66" stroke-linecap="round" style="stroke:#D55E00;stroke-width:10.00"/>
	<line x1="783.50" y1="1115.66" x2="843.77" y2="1104.50" stroke-linecap="round" style="stroke:#D55E00;stroke-width:10.00"/>
	<line x1="843.77" y1="1104.50" x2="904.12" y2="1082.34" stroke-linecap="round" style="stroke:#D55E00;stroke-width:10.00"/>
	<line x1="904.12" y1="1082.34" x2="964.39" y2="1078.59" stroke-linecap="round" style="stroke:#D55E00;stroke-width:10.00"/>
	<line x1="964.39" y1="1078.59" x2="1024.66" y2="1055.64" stroke-linecap="round" style="stroke:#D55E00;stroke-width:10.00"/>
	<line x1="1024.66" y1="1055.64" x2="1084.93" y2="1098.60" stroke-linecap="round" style="stroke:#D55E00;stroke-width:10.00"/>
	<line x1="1084.93" y1="1098.60" x2="1145.28" y2="1123.72" stroke-linecap="round" style="stroke:#D55E00;stroke-width:10.00"/>
	<line x1="482.07" y1="582.82" x2="542.34" y2="760.76" stroke-linecap="round" style="stroke:#CC79A7;stroke-width:10.00"/>
	<line x1="542.34" y1="760.76" x2="602.61" y2="791.77" stroke-linecap="round" style="stroke:#CC79A7;stroke-width:10.00"/>
	<line x1="602.61" y1="791.77" x2="662.96" y2="833.54" stroke-linecap="round" style="stroke:#CC79A7;stroke-width:10.00"/>
	<line x1="662.96" y1="833.54" x2="723.23" y2="933.51" stroke-linecap="round" style="stroke:#CC79A7;stroke-width:10.00"/>
	<line x1="365.68" y1="1865.82" x2="330.29" y2="1865.82" style="stroke:#000000;stroke-width:4.00"/>
	<text x="312.51" y="1883.33" style="font-family:'Helvetica';font-size:49.99px;fill:#000000" text-anchor="end">25</text>
	<line x1="365.68" y1="1587.76" x2="330.29" y2="1587.76" style="stroke:#000000;stroke-width:4.00"/>
	<text x="312.51" y="1605.27" style="font-family:'Helvetica';font-size:49.99px;fill:#000000" text-anchor="end">30</text>
	<line x1="365.68" y1="1309.70" x2="330.29" y2="1309.70" style="stroke:#000000;stroke-width:4.00"/>
	<text x="312.51" y="1327.21" style="font-family:'Helvetica';font-size:49.99px;fill:#000000" text-anchor="end">35</text>
	<line x1="365.68" y1="1031.64" x2="330.29" y2="1031.64" style="stroke:#000000;stroke-width:4.00"/>
	<text x="312.51" y="1049.15" style="font-family:'Helvetica';font-size:49.99px;fill:#000000" text-anchor="end">40</text>
	<line x1="365.68" y1="753.58" x2="330.29" y2="753.58" style="stroke:#000000;stroke-width:4.00"/>
	<text x="312.51" y="771.10" style="font-family:'Helvetica';font-size:49.99px;fill:#000000" text-anchor="end">45</text>
	<line x1="365.68" y1="475.52" x2="330.29" y2="475.52" style="stroke:#000000;stroke-width:4.00"/>
	<text x="312.51" y="493.04" style="font-family:'Helvetica';font-size:49.99px;fill:#000000" text-anchor="end">50</text>
	<line x1="365.68" y1="1865.82" x2="365.68" y2="364.31" style="stroke:#000000;stroke-width:4.00"/>
	<text x="136.21" y="1076.84" style="font-family:'Helvetica';font-size:60.03px;fill:#000000" transform="rotate(-90 136.21,1076.84)" text-anchor="middle">ISEI-88, employed only</text>
	<line x1="421.81" y1="1921.94" x2="421.81" y2="1957.33" style="stroke:#000000;stroke-width:4.00"/>
	<text x="421.81" y="2009.98" style="font-family:'Helvetica';font-size:49.99px;fill:#000000" text-anchor="middle">0</text>
	<line x1="723.23" y1="1921.94" x2="723.23" y2="1957.33" style="stroke:#000000;stroke-width:4.00"/>
	<text x="723.23" y="2009.98" style="font-family:'Helvetica';font-size:49.99px;fill:#000000" text-anchor="middle">5</text>
	<line x1="1024.74" y1="1921.94" x2="1024.74" y2="1957.33" style="stroke:#000000;stroke-width:4.00"/>
	<text x="1024.74" y="2009.98" style="font-family:'Helvetica';font-size:49.99px;fill:#000000" text-anchor="middle">10</text>
	<line x1="1326.16" y1="1921.94" x2="1326.16" y2="1957.33" style="stroke:#000000;stroke-width:4.00"/>
	<text x="1326.16" y="2009.98" style="font-family:'Helvetica';font-size:49.99px;fill:#000000" text-anchor="middle">15</text>
	<line x1="1627.59" y1="1921.94" x2="1627.59" y2="1957.33" style="stroke:#000000;stroke-width:4.00"/>
	<text x="1627.59" y="2009.98" style="font-family:'Helvetica';font-size:49.99px;fill:#000000" text-anchor="middle">20</text>
	<line x1="1929.09" y1="1921.94" x2="1929.09" y2="1957.33" style="stroke:#000000;stroke-width:4.00"/>
	<text x="1929.09" y="2009.98" style="font-family:'Helvetica';font-size:49.99px;fill:#000000" text-anchor="middle">25</text>
	<line x1="2230.52" y1="1921.94" x2="2230.52" y2="1957.33" style="stroke:#000000;stroke-width:4.00"/>
	<text x="2230.52" y="2009.98" style="font-family:'Helvetica';font-size:49.99px;fill:#000000" text-anchor="middle">30</text>
	<line x1="421.81" y1="1921.94" x2="2290.79" y2="1921.94" style="stroke:#000000;stroke-width:4.00"/>
	<text x="1318.03" y="2152.37" style="font-family:'Helvetica';font-size:60.03px;fill:#000000" text-anchor="middle">Duration of stay</text>
	<text x="161.52" y="2396.65" style="font-family:'Helvetica';font-size:60.03px;fill:#000000">Arr. cohort: </text>
	<text x="610.98" y="2396.65" style="font-family:'Helvetica';font-size:60.03px;fill:#000000">1964-73</text>
	<text x="965.98" y="2396.65" style="font-family:'Helvetica';font-size:60.03px;fill:#000000">1974-83</text>
	<text x="1320.98" y="2396.65" style="font-family:'Helvetica';font-size:60.03px;fill:#000000">1984-93</text>
	<text x="1675.98" y="2396.65" style="font-family:'Helvetica';font-size:60.03px;fill:#000000">1994-03</text>
	<text x="2030.98" y="2396.65" style="font-family:'Helvetica';font-size:60.03px;fill:#000000">2004-10</text>
	<line x1="610.98" y1="2301.32" x2="831.01" y2="2301.32" style="stroke:#E69F00;stroke-width:10.00"/>
	<line x1="965.98" y1="2301.32" x2="1185.93" y2="2301.32" style="stroke:#56B4E9;stroke-width:10.00"/>
	<line x1="1320.98" y1="2301.32" x2="1540.93" y2="2301.32" style="stroke:#009E73;stroke-width:10.00"/>
	<line x1="1675.98" y1="2301.32" x2="1895.93" y2="2301.32" style="stroke:#D55E00;stroke-width:10.00"/>
	<line x1="2030.98" y1="2301.32" x2="2250.93" y2="2301.32" style="stroke:#CC79A7;stroke-width:10.00"/>
	<text x="1356.30" y="239.12" style="font-family:'Helvetica';font-size:60.03px;fill:#000000" text-anchor="middle">Means, including East Germany</text>
	<text x="1356.30" y="154.88" style="font-family:'Helvetica';font-size:90.01px;fill:#000000" text-anchor="middle">ISEI-88, employed only, Women</text>
</svg>
