<?xml version="1.0" encoding="UTF-8" standalone="no"?>
<!-- This is a Stata 15.1 generated SVG file (http://www.stata.com) -->

<svg version="1.1" width="3.54in" height="3.54in" viewBox="0 0 2551 2551" xmlns="http://www.w3.org/2000/svg" xmlns:xlink="http://www.w3.org/1999/xlink">
	<desc>Stata Graph - Graph</desc>
	<rect x="0" y="0" width="2551" height="2551" style="fill:#FFFFFF;stroke:none"/>
	<rect x="0.00" y="0.08" width="2551.00" height="2550.92" style="fill:#FFFFFF"/>
	<rect x="2.55" y="2.63" width="2545.90" height="2545.82" style="fill:none;stroke:#FFFFFF;stroke-width:5.10"/>
	<line x1="365.68" y1="1865.82" x2="2346.91" y2="1865.82" style="stroke:#E8E8E8;stroke-width:4.00"/>
	<line x1="365.68" y1="1587.76" x2="2346.91" y2="1587.76" style="stroke:#E8E8E8;stroke-width:4.00"/>
	<line x1="365.68" y1="1309.70" x2="2346.91" y2="1309.70" style="stroke:#E8E8E8;stroke-width:4.00"/>
	<line x1="365.68" y1="1031.64" x2="2346.91" y2="1031.64" style="stroke:#E8E8E8;stroke-width:4.00"/>
	<line x1="365.68" y1="753.58" x2="2346.91" y2="753.58" style="stroke:#E8E8E8;stroke-width:4.00"/>
	<line x1="365.68" y1="475.52" x2="2346.91" y2="475.52" style="stroke:#E8E8E8;stroke-width:4.00"/>
	<line x1="421.81" y1="1921.94" x2="421.81" y2="308.19" style="stroke:#E8E8E8;stroke-width:4.00"/>
	<line x1="655.39" y1="1921.94" x2="655.39" y2="308.19" style="stroke:#E8E8E8;stroke-width:4.00"/>
	<line x1="889.05" y1="1921.94" x2="889.05" y2="308.19" style="stroke:#E8E8E8;stroke-width:4.00"/>
	<line x1="1122.71" y1="1921.94" x2="1122.71" y2="308.19" style="stroke:#E8E8E8;stroke-width:4.00"/>
	<line x1="1356.30" y1="1921.94" x2="1356.30" y2="308.19" style="stroke:#E8E8E8;stroke-width:4.00"/>
	<line x1="1589.96" y1="1921.94" x2="1589.96" y2="308.19" style="stroke:#E8E8E8;stroke-width:4.00"/>
	<line x1="1823.54" y1="1921.94" x2="1823.54" y2="308.19" style="stroke:#E8E8E8;stroke-width:4.00"/>
	<line x1="2057.21" y1="1921.94" x2="2057.21" y2="308.19" style="stroke:#E8E8E8;stroke-width:4.00"/>
	<line x1="2290.79" y1="1921.94" x2="2290.79" y2="308.19" style="stroke:#E8E8E8;stroke-width:4.00"/>
	<line x1="421.73" y1="1421.39" x2="515.24" y2="1403.45" stroke-linecap="round" style="stroke:#E69F00;stroke-width:10.00"/>
	<line x1="515.24" y1="1403.45" x2="608.67" y2="1433.98" stroke-linecap="round" style="stroke:#E69F00;stroke-width:10.00"/>
	<line x1="608.67" y1="1433.98" x2="702.10" y2="1418.60" stroke-linecap="round" style="stroke:#E69F00;stroke-width:10.00"/>
	<line x1="702.10" y1="1418.60" x2="842.25" y2="1393.16" stroke-linecap="round" style="stroke:#E69F00;stroke-width:10.00"/>
	<line x1="842.25" y1="1393.16" x2="935.77" y2="1419.07" stroke-linecap="round" style="stroke:#E69F00;stroke-width:10.00"/>
	<line x1="935.77" y1="1419.07" x2="1029.20" y2="1366.86" stroke-linecap="round" style="stroke:#E69F00;stroke-width:10.00"/>
	<line x1="1029.20" y1="1366.86" x2="1122.63" y2="1409.03" stroke-linecap="round" style="stroke:#E69F00;stroke-width:10.00"/>
	<line x1="1122.63" y1="1409.03" x2="1216.07" y2="1368.93" stroke-linecap="round" style="stroke:#E69F00;stroke-width:10.00"/>
	<line x1="1216.07" y1="1368.93" x2="1309.50" y2="1368.45" stroke-linecap="round" style="stroke:#E69F00;stroke-width:10.00"/>
	<line x1="1309.50" y1="1368.45" x2="1356.30" y2="1369.01" stroke-linecap="round" style="stroke:#E69F00;stroke-width:10.00"/>
	<line x1="1356.30" y1="1369.01" x2="1403.01" y2="1364.31" stroke-linecap="round" style="stroke:#E69F00;stroke-width:10.00"/>
	<line x1="1403.01" y1="1364.31" x2="1449.73" y2="1386.55" stroke-linecap="round" style="stroke:#E69F00;stroke-width:10.00"/>
	<line x1="1449.73" y1="1386.55" x2="1496.45" y2="1397.23" stroke-linecap="round" style="stroke:#E69F00;stroke-width:10.00"/>
	<line x1="1496.45" y1="1397.23" x2="1543.16" y2="1383.84" stroke-linecap="round" style="stroke:#E69F00;stroke-width:10.00"/>
	<line x1="1543.16" y1="1383.84" x2="1589.88" y2="1298.94" stroke-linecap="round" style="stroke:#E69F00;stroke-width:10.00"/>
	<line x1="1589.88" y1="1298.94" x2="1636.60" y2="1413.25" stroke-linecap="round" style="stroke:#E69F00;stroke-width:10.00"/>
	<line x1="1636.60" y1="1413.25" x2="1683.31" y2="1292.96" stroke-linecap="round" style="stroke:#E69F00;stroke-width:10.00"/>
	<line x1="842.25" y1="1045.99" x2="935.77" y2="1147.07" stroke-linecap="round" style="stroke:#56B4E9;stroke-width:10.00"/>
	<line x1="935.77" y1="1147.07" x2="1029.20" y2="1179.92" stroke-linecap="round" style="stroke:#56B4E9;stroke-width:10.00"/>
	<line x1="1029.20" y1="1179.92" x2="1122.63" y2="1250.23" stroke-linecap="round" style="stroke:#56B4E9;stroke-width:10.00"/>
	<line x1="1122.63" y1="1250.23" x2="1216.07" y2="1293.68" stroke-linecap="round" style="stroke:#56B4E9;stroke-width:10.00"/>
	<line x1="1216.07" y1="1293.68" x2="1309.50" y2="1204.63" stroke-linecap="round" style="stroke:#56B4E9;stroke-width:10.00"/>
	<line x1="1309.50" y1="1204.63" x2="1356.30" y2="1249.11" stroke-linecap="round" style="stroke:#56B4E9;stroke-width:10.00"/>
	<line x1="1356.30" y1="1249.11" x2="1403.01" y2="1257.08" stroke-linecap="round" style="stroke:#56B4E9;stroke-width:10.00"/>
	<line x1="1403.01" y1="1257.08" x2="1449.73" y2="1298.54" stroke-linecap="round" style="stroke:#56B4E9;stroke-width:10.00"/>
	<line x1="1449.73" y1="1298.54" x2="1496.45" y2="1309.70" stroke-linecap="round" style="stroke:#56B4E9;stroke-width:10.00"/>
	<line x1="1496.45" y1="1309.70" x2="1543.16" y2="1226.15" stroke-linecap="round" style="stroke:#56B4E9;stroke-width:10.00"/>
	<line x1="1543.16" y1="1226.15" x2="1589.88" y2="1320.78" stroke-linecap="round" style="stroke:#56B4E9;stroke-width:10.00"/>
	<line x1="1589.88" y1="1320.78" x2="1636.60" y2="1290.01" stroke-linecap="round" style="stroke:#56B4E9;stroke-width:10.00"/>
	<line x1="1636.60" y1="1290.01" x2="1683.31" y2="1271.12" stroke-linecap="round" style="stroke:#56B4E9;stroke-width:10.00"/>
	<line x1="1683.31" y1="1271.12" x2="1730.03" y2="1280.68" stroke-linecap="round" style="stroke:#56B4E9;stroke-width:10.00"/>
	<line x1="1730.03" y1="1280.68" x2="1776.75" y2="1208.54" stroke-linecap="round" style="stroke:#56B4E9;stroke-width:10.00"/>
	<line x1="1776.75" y1="1208.54" x2="1823.54" y2="1247.20" stroke-linecap="round" style="stroke:#56B4E9;stroke-width:10.00"/>
	<line x1="1823.54" y1="1247.20" x2="1870.26" y2="1159.03" stroke-linecap="round" style="stroke:#56B4E9;stroke-width:10.00"/>
	<line x1="1870.26" y1="1159.03" x2="1916.98" y2="1216.35" stroke-linecap="round" style="stroke:#56B4E9;stroke-width:10.00"/>
	<line x1="1916.98" y1="1216.35" x2="1963.69" y2="1241.54" stroke-linecap="round" style="stroke:#56B4E9;stroke-width:10.00"/>
	<line x1="1963.69" y1="1241.54" x2="2010.41" y2="1174.82" stroke-linecap="round" style="stroke:#56B4E9;stroke-width:10.00"/>
	<line x1="2010.41" y1="1174.82" x2="2057.13" y2="1254.22" stroke-linecap="round" style="stroke:#56B4E9;stroke-width:10.00"/>
	<line x1="2057.13" y1="1254.22" x2="2103.84" y2="1310.10" stroke-linecap="round" style="stroke:#56B4E9;stroke-width:10.00"/>
	<line x1="2103.84" y1="1310.10" x2="2150.56" y2="1321.58" stroke-linecap="round" style="stroke:#56B4E9;stroke-width:10.00"/>
	<line x1="1309.50" y1="1167.80" x2="1356.30" y2="1244.33" stroke-linecap="round" style="stroke:#009E73;stroke-width:10.00"/>
	<line x1="1356.30" y1="1244.33" x2="1403.01" y2="1202.00" stroke-linecap="round" style="stroke:#009E73;stroke-width:10.00"/>
	<line x1="1403.01" y1="1202.00" x2="1449.73" y2="1234.05" stroke-linecap="round" style="stroke:#009E73;stroke-width:10.00"/>
	<line x1="1449.73" y1="1234.05" x2="1496.45" y2="1226.23" stroke-linecap="round" style="stroke:#009E73;stroke-width:10.00"/>
	<line x1="1496.45" y1="1226.23" x2="1543.16" y2="1238.67" stroke-linecap="round" style="stroke:#009E73;stroke-width:10.00"/>
	<line x1="1543.16" y1="1238.67" x2="1589.88" y2="1251.82" stroke-linecap="round" style="stroke:#009E73;stroke-width:10.00"/>
	<line x1="1589.88" y1="1251.82" x2="1636.60" y2="1290.49" stroke-linecap="round" style="stroke:#009E73;stroke-width:10.00"/>
	<line x1="1636.60" y1="1290.49" x2="1683.31" y2="1227.19" stroke-linecap="round" style="stroke:#009E73;stroke-width:10.00"/>
	<line x1="1683.31" y1="1227.19" x2="1730.03" y2="1273.27" stroke-linecap="round" style="stroke:#009E73;stroke-width:10.00"/>
	<line x1="1730.03" y1="1273.27" x2="1776.75" y2="1263.30" stroke-linecap="round" style="stroke:#009E73;stroke-width:10.00"/>
	<line x1="1776.75" y1="1263.30" x2="1823.54" y2="1253.10" stroke-linecap="round" style="stroke:#009E73;stroke-width:10.00"/>
	<line x1="1823.54" y1="1253.10" x2="1870.26" y2="1248.56" stroke-linecap="round" style="stroke:#009E73;stroke-width:10.00"/>
	<line x1="1870.26" y1="1248.56" x2="1916.98" y2="1273.67" stroke-linecap="round" style="stroke:#009E73;stroke-width:10.00"/>
	<line x1="1916.98" y1="1273.67" x2="1963.69" y2="1253.34" stroke-linecap="round" style="stroke:#009E73;stroke-width:10.00"/>
	<line x1="1963.69" y1="1253.34" x2="2010.41" y2="1243.45" stroke-linecap="round" style="stroke:#009E73;stroke-width:10.00"/>
	<line x1="2010.41" y1="1243.45" x2="2057.13" y2="1315.44" stroke-linecap="round" style="stroke:#009E73;stroke-width:10.00"/>
	<line x1="2057.13" y1="1315.44" x2="2103.84" y2="1262.90" stroke-linecap="round" style="stroke:#009E73;stroke-width:10.00"/>
	<line x1="2103.84" y1="1262.90" x2="2150.56" y2="1314.56" stroke-linecap="round" style="stroke:#009E73;stroke-width:10.00"/>
	<line x1="2150.56" y1="1314.56" x2="2197.28" y2="1317.35" stroke-linecap="round" style="stroke:#009E73;stroke-width:10.00"/>
	<line x1="2197.28" y1="1317.35" x2="2243.99" y2="1377.22" stroke-linecap="round" style="stroke:#009E73;stroke-width:10.00"/>
	<line x1="1730.03" y1="1166.29" x2="1776.75" y2="1067.91" stroke-linecap="round" style="stroke:#D55E00;stroke-width:10.00"/>
	<line x1="1776.75" y1="1067.91" x2="1823.54" y2="1109.21" stroke-linecap="round" style="stroke:#D55E00;stroke-width:10.00"/>
	<line x1="1823.54" y1="1109.21" x2="1870.26" y2="1109.29" stroke-linecap="round" style="stroke:#D55E00;stroke-width:10.00"/>
	<line x1="1870.26" y1="1109.29" x2="1916.98" y2="1127.54" stroke-linecap="round" style="stroke:#D55E00;stroke-width:10.00"/>
	<line x1="1916.98" y1="1127.54" x2="1963.69" y2="1114.07" stroke-linecap="round" style="stroke:#D55E00;stroke-width:10.00"/>
	<line x1="1963.69" y1="1114.07" x2="2010.41" y2="1090.23" stroke-linecap="round" style="stroke:#D55E00;stroke-width:10.00"/>
	<line x1="2010.41" y1="1090.23" x2="2057.13" y2="1120.85" stroke-linecap="round" style="stroke:#D55E00;stroke-width:10.00"/>
	<line x1="2057.13" y1="1120.85" x2="2103.84" y2="1145.32" stroke-linecap="round" style="stroke:#D55E00;stroke-width:10.00"/>
	<line x1="2103.84" y1="1145.32" x2="2150.56" y2="1188.61" stroke-linecap="round" style="stroke:#D55E00;stroke-width:10.00"/>
	<line x1="2150.56" y1="1188.61" x2="2197.28" y2="1168.44" stroke-linecap="round" style="stroke:#D55E00;stroke-width:10.00"/>
	<line x1="2197.28" y1="1168.44" x2="2243.99" y2="1244.33" stroke-linecap="round" style="stroke:#D55E00;stroke-width:10.00"/>
	<line x1="2057.13" y1="922.74" x2="2103.84" y2="886.07" stroke-linecap="round" style="stroke:#CC79A7;stroke-width:10.00"/>
	<line x1="2103.84" y1="886.07" x2="2150.56" y2="904.73" stroke-linecap="round" style="stroke:#CC79A7;stroke-width:10.00"/>
	<line x1="2150.56" y1="904.73" x2="2197.28" y2="949.05" stroke-linecap="round" style="stroke:#CC79A7;stroke-width:10.00"/>
	<line x1="2197.28" y1="949.05" x2="2243.99" y2="1004.85" stroke-linecap="round" style="stroke:#CC79A7;stroke-width:10.00"/>
	<line x1="421.73" y1="1080.51" x2="470.44" y2="1065.36" style="stroke:#A0A0A0;stroke-width:10.00"/>
	<line x1="494.83" y1="1057.79" x2="515.24" y2="1051.49" style="stroke:#A0A0A0;stroke-width:10.00"/>
	<line x1="515.24" y1="1051.49" x2="544.18" y2="1044.95" style="stroke:#A0A0A0;stroke-width:10.00"/>
	<line x1="569.05" y1="1039.29" x2="608.67" y2="1030.36" style="stroke:#A0A0A0;stroke-width:10.00"/>
	<line x1="608.67" y1="1030.36" x2="618.48" y2="1026.94" style="stroke:#A0A0A0;stroke-width:10.00"/>
	<line x1="642.63" y1="1018.57" x2="690.78" y2="1001.83" style="stroke:#A0A0A0;stroke-width:10.00"/>
	<line x1="714.70" y1="992.90" x2="762.14" y2="974.16" style="stroke:#A0A0A0;stroke-width:10.00"/>
	<line x1="785.81" y1="964.76" x2="833.25" y2="946.02" style="stroke:#A0A0A0;stroke-width:10.00"/>
	<line x1="857.40" y1="937.81" x2="906.19" y2="922.82" style="stroke:#A0A0A0;stroke-width:10.00"/>
	<line x1="930.59" y1="915.33" x2="935.77" y2="913.74" style="stroke:#A0A0A0;stroke-width:10.00"/>
	<line x1="935.77" y1="913.74" x2="980.73" y2="906.48" style="stroke:#A0A0A0;stroke-width:10.00"/>
	<line x1="1005.92" y1="902.42" x2="1029.20" y2="898.67" style="stroke:#A0A0A0;stroke-width:10.00"/>
	<line x1="1029.20" y1="898.67" x2="1056.63" y2="898.75" style="stroke:#A0A0A0;stroke-width:10.00"/>
	<line x1="1082.14" y1="898.91" x2="1122.63" y2="899.07" style="stroke:#A0A0A0;stroke-width:10.00"/>
	<line x1="1122.63" y1="899.07" x2="1130.29" y2="891.81" style="stroke:#A0A0A0;stroke-width:10.00"/>
	<line x1="1148.86" y1="874.28" x2="1186.01" y2="839.28" style="stroke:#A0A0A0;stroke-width:10.00"/>
	<line x1="1204.51" y1="821.74" x2="1216.07" y2="810.90" style="stroke:#A0A0A0;stroke-width:10.00"/>
	<line x1="1216.07" y1="810.90" x2="1248.51" y2="797.35" style="stroke:#A0A0A0;stroke-width:10.00"/>
	<line x1="1272.03" y1="787.46" x2="1309.50" y2="771.76" style="stroke:#A0A0A0;stroke-width:10.00"/>
	<line x1="1309.50" y1="771.76" x2="1319.94" y2="771.92" style="stroke:#A0A0A0;stroke-width:10.00"/>
	<line x1="1345.46" y1="772.16" x2="1356.30" y2="772.24" style="stroke:#A0A0A0;stroke-width:10.00"/>
	<line x1="1356.30" y1="772.24" x2="1395.92" y2="765.54" style="stroke:#A0A0A0;stroke-width:10.00"/>
	<line x1="1421.19" y1="762.75" x2="1449.73" y2="760.36" style="stroke:#A0A0A0;stroke-width:10.00"/>
	<line x1="1449.73" y1="760.36" x2="1472.05" y2="761.87" style="stroke:#A0A0A0;stroke-width:10.00"/>
	<line x1="1497.56" y1="763.63" x2="1543.16" y2="768.73" style="stroke:#A0A0A0;stroke-width:10.00"/>
	<line x1="1543.16" y1="768.73" x2="1548.35" y2="768.41" style="stroke:#A0A0A0;stroke-width:10.00"/>
	<line x1="1573.78" y1="766.89" x2="1589.88" y2="765.94" style="stroke:#A0A0A0;stroke-width:10.00"/>
	<line x1="1589.88" y1="765.94" x2="1623.52" y2="756.77" style="stroke:#A0A0A0;stroke-width:10.00"/>
	<line x1="1648.56" y1="752.78" x2="1683.31" y2="751.67" style="stroke:#A0A0A0;stroke-width:10.00"/>
	<line x1="1683.31" y1="751.67" x2="1698.94" y2="747.20" style="stroke:#A0A0A0;stroke-width:10.00"/>
	<line x1="1723.49" y1="740.11" x2="1730.03" y2="738.28" style="stroke:#A0A0A0;stroke-width:10.00"/>
	<line x1="1730.03" y1="738.28" x2="1774.20" y2="739.79" style="stroke:#A0A0A0;stroke-width:10.00"/>
	<line x1="1799.63" y1="738.67" x2="1823.54" y2="737.48" style="stroke:#A0A0A0;stroke-width:10.00"/>
	<line x1="1823.54" y1="737.48" x2="1850.17" y2="732.62" style="stroke:#A0A0A0;stroke-width:10.00"/>
	<line x1="1875.36" y1="728.63" x2="1916.98" y2="725.92" style="stroke:#A0A0A0;stroke-width:10.00"/>
	<line x1="1916.98" y1="725.92" x2="1925.91" y2="723.13" style="stroke:#A0A0A0;stroke-width:10.00"/>
	<line x1="1950.22" y1="715.56" x2="1963.69" y2="711.33" style="stroke:#A0A0A0;stroke-width:10.00"/>
	<line x1="1963.69" y1="711.33" x2="2000.13" y2="705.35" style="stroke:#A0A0A0;stroke-width:10.00"/>
	<line x1="2025.08" y1="700.01" x2="2057.13" y2="691.96" style="stroke:#A0A0A0;stroke-width:10.00"/>
	<line x1="2057.13" y1="691.96" x2="2074.59" y2="687.73" style="stroke:#A0A0A0;stroke-width:10.00"/>
	<line x1="2099.38" y1="681.75" x2="2103.84" y2="680.72" style="stroke:#A0A0A0;stroke-width:10.00"/>
	<line x1="2103.84" y1="680.72" x2="2149.20" y2="670.67" style="stroke:#A0A0A0;stroke-width:10.00"/>
	<line x1="2173.92" y1="664.38" x2="2197.28" y2="658.32" style="stroke:#A0A0A0;stroke-width:10.00"/>
	<line x1="2197.28" y1="658.32" x2="2222.31" y2="648.67" style="stroke:#A0A0A0;stroke-width:10.00"/>
	<line x1="365.68" y1="1865.82" x2="330.29" y2="1865.82" style="stroke:#000000;stroke-width:4.00"/>
	<text x="312.51" y="1883.33" style="font-family:'Helvetica';font-size:49.99px;fill:#000000" text-anchor="end">25</text>
	<line x1="365.68" y1="1587.76" x2="330.29" y2="1587.76" style="stroke:#000000;stroke-width:4.00"/>
	<text x="312.51" y="1605.27" style="font-family:'Helvetica';font-size:49.99px;fill:#000000" text-anchor="end">30</text>
	<line x1="365.68" y1="1309.70" x2="330.29" y2="1309.70" style="stroke:#000000;stroke-width:4.00"/>
	<text x="312.51" y="1327.21" style="font-family:'Helvetica';font-size:49.99px;fill:#000000" text-anchor="end">35</text>
	<line x1="365.68" y1="1031.64" x2="330.29" y2="1031.64" style="stroke:#000000;stroke-width:4.00"/>
	<text x="312.51" y="1049.15" style="font-family:'Helvetica';font-size:49.99px;fill:#000000" text-anchor="end">40</text>
	<line x1="365.68" y1="753.58" x2="330.29" y2="753.58" style="stroke:#000000;stroke-width:4.00"/>
	<text x="312.51" y="771.10" style="font-family:'Helvetica';font-size:49.99px;fill:#000000" text-anchor="end">45</text>
	<line x1="365.68" y1="475.52" x2="330.29" y2="475.52" style="stroke:#000000;stroke-width:4.00"/>
	<text x="312.51" y="493.04" style="font-family:'Helvetica';font-size:49.99px;fill:#000000" text-anchor="end">50</text>
	<line x1="365.68" y1="1865.82" x2="365.68" y2="364.31" style="stroke:#000000;stroke-width:4.00"/>
	<text x="136.21" y="1076.84" style="font-family:'Helvetica';font-size:60.03px;fill:#000000" transform="rotate(-90 136.21,1076.84)" text-anchor="middle">ISEI-88, employed only</text>
	<line x1="421.81" y1="1921.94" x2="421.81" y2="1957.33" style="stroke:#000000;stroke-width:4.00"/>
	<text x="421.81" y="2009.98" style="font-family:'Helvetica';font-size:49.99px;fill:#000000" text-anchor="middle">1976</text>
	<line x1="655.39" y1="1921.94" x2="655.39" y2="1957.33" style="stroke:#000000;stroke-width:4.00"/>
	<text x="655.39" y="2009.98" style="font-family:'Helvetica';font-size:49.99px;fill:#000000" text-anchor="middle">1981</text>
	<line x1="889.05" y1="1921.94" x2="889.05" y2="1957.33" style="stroke:#000000;stroke-width:4.00"/>
	<text x="889.05" y="2009.98" style="font-family:'Helvetica';font-size:49.99px;fill:#000000" text-anchor="middle">1986</text>
	<line x1="1122.71" y1="1921.94" x2="1122.71" y2="1957.33" style="stroke:#000000;stroke-width:4.00"/>
	<text x="1122.71" y="2009.98" style="font-family:'Helvetica';font-size:49.99px;fill:#000000" text-anchor="middle">1991</text>
	<line x1="1356.30" y1="1921.94" x2="1356.30" y2="1957.33" style="stroke:#000000;stroke-width:4.00"/>
	<text x="1356.30" y="2009.98" style="font-family:'Helvetica';font-size:49.99px;fill:#000000" text-anchor="middle">1996</text>
	<line x1="1589.96" y1="1921.94" x2="1589.96" y2="1957.33" style="stroke:#000000;stroke-width:4.00"/>
	<text x="1589.96" y="2009.98" style="font-family:'Helvetica';font-size:49.99px;fill:#000000" text-anchor="middle">2001</text>
	<line x1="1823.54" y1="1921.94" x2="1823.54" y2="1957.33" style="stroke:#000000;stroke-width:4.00"/>
	<text x="1823.54" y="2009.98" style="font-family:'Helvetica';font-size:49.99px;fill:#000000" text-anchor="middle">2006</text>
	<line x1="2057.21" y1="1921.94" x2="2057.21" y2="1957.33" style="stroke:#000000;stroke-width:4.00"/>
	<text x="2057.21" y="2009.98" style="font-family:'Helvetica';font-size:49.99px;fill:#000000" text-anchor="middle">2011</text>
	<line x1="2290.79" y1="1921.94" x2="2290.79" y2="1957.33" style="stroke:#000000;stroke-width:4.00"/>
	<text x="2290.79" y="2009.98" style="font-family:'Helvetica';font-size:49.99px;fill:#000000" text-anchor="middle">2016</text>
	<line x1="421.81" y1="1921.94" x2="2290.79" y2="1921.94" style="stroke:#000000;stroke-width:4.00"/>
	<text x="1318.03" y="2152.37" style="font-family:'Helvetica';font-size:60.03px;fill:#000000" text-anchor="middle">Year</text>
	<text x="145.41" y="2396.65" style="font-family:'Helvetica';font-size:60.03px;fill:#000000">Arr. cohort: </text>
	<text x="536.36" y="2396.65" style="font-family:'Helvetica';font-size:60.03px;fill:#000000">1964-73</text>
	<text x="845.12" y="2396.65" style="font-family:'Helvetica';font-size:60.03px;fill:#000000">1974-83</text>
	<text x="1153.89" y="2396.65" style="font-family:'Helvetica';font-size:60.03px;fill:#000000">1984-93</text>
	<text x="1462.65" y="2396.65" style="font-family:'Helvetica';font-size:60.03px;fill:#000000">1994-03</text>
	<text x="1771.41" y="2396.65" style="font-family:'Helvetica';font-size:60.03px;fill:#000000">2004-10</text>
	<text x="2080.17" y="2396.65" style="font-family:'Helvetica';font-size:60.03px;fill:#000000">German</text>
	<line x1="536.36" y1="2301.32" x2="737.26" y2="2301.32" style="stroke:#E69F00;stroke-width:10.00"/>
	<line x1="845.12" y1="2301.32" x2="1046.02" y2="2301.32" style="stroke:#56B4E9;stroke-width:10.00"/>
	<line x1="1153.89" y1="2301.32" x2="1354.78" y2="2301.32" style="stroke:#009E73;stroke-width:10.00"/>
	<line x1="1462.65" y1="2301.32" x2="1663.54" y2="2301.32" style="stroke:#D55E00;stroke-width:10.00"/>
	<line x1="1771.41" y1="2301.32" x2="1972.30" y2="2301.32" style="stroke:#CC79A7;stroke-width:10.00"/>
	<line x1="2080.17" y1="2301.32" x2="2131.19" y2="2301.32" style="stroke:#A0A0A0;stroke-width:10.00"/>
	<line x1="2156.70" y1="2301.32" x2="2207.72" y2="2301.32" style="stroke:#A0A0A0;stroke-width:10.00"/>
	<line x1="2233.23" y1="2301.32" x2="2278.03" y2="2301.32" style="stroke:#A0A0A0;stroke-width:10.00"/>
	<text x="1356.30" y="239.12" style="font-family:'Helvetica';font-size:60.03px;fill:#000000" text-anchor="middle">Means</text>
	<text x="1356.30" y="154.88" style="font-family:'Helvetica';font-size:90.01px;fill:#000000" text-anchor="middle">ISEI-88, employed only, Women</text>
</svg>
