<?xml version="1.0" encoding="UTF-8" standalone="no"?>
<!-- This is a Stata 15.1 generated SVG file (http://www.stata.com) -->

<svg version="1.1" width="3.54in" height="3.54in" viewBox="0 0 2551 2551" xmlns="http://www.w3.org/2000/svg" xmlns:xlink="http://www.w3.org/1999/xlink">
	<desc>Stata Graph - Graph</desc>
	<rect x="0" y="0" width="2551" height="2551" style="fill:#FFFFFF;stroke:none"/>
	<rect x="0.00" y="0.08" width="2551.00" height="2550.92" style="fill:#FFFFFF"/>
	<rect x="2.55" y="2.63" width="2545.90" height="2545.82" style="fill:none;stroke:#FFFFFF;stroke-width:5.10"/>
	<line x1="365.68" y1="1865.82" x2="2346.91" y2="1865.82" style="stroke:#E8E8E8;stroke-width:4.00"/>
	<line x1="365.68" y1="1567.19" x2="2346.91" y2="1567.19" style="stroke:#E8E8E8;stroke-width:4.00"/>
	<line x1="365.68" y1="1268.56" x2="2346.91" y2="1268.56" style="stroke:#E8E8E8;stroke-width:4.00"/>
	<line x1="365.68" y1="970.02" x2="2346.91" y2="970.02" style="stroke:#E8E8E8;stroke-width:4.00"/>
	<line x1="365.68" y1="671.39" x2="2346.91" y2="671.39" style="stroke:#E8E8E8;stroke-width:4.00"/>
	<line x1="365.68" y1="372.76" x2="2346.91" y2="372.76" style="stroke:#E8E8E8;stroke-width:4.00"/>
	<line x1="421.81" y1="1921.94" x2="421.81" y2="197.22" style="stroke:#E8E8E8;stroke-width:4.00"/>
	<line x1="613.45" y1="1921.94" x2="613.45" y2="197.22" style="stroke:#E8E8E8;stroke-width:4.00"/>
	<line x1="853.10" y1="1921.94" x2="853.10" y2="197.22" style="stroke:#E8E8E8;stroke-width:4.00"/>
	<line x1="1092.74" y1="1921.94" x2="1092.74" y2="197.22" style="stroke:#E8E8E8;stroke-width:4.00"/>
	<line x1="1332.30" y1="1921.94" x2="1332.30" y2="197.22" style="stroke:#E8E8E8;stroke-width:4.00"/>
	<line x1="1571.94" y1="1921.94" x2="1571.94" y2="197.22" style="stroke:#E8E8E8;stroke-width:4.00"/>
	<line x1="1811.59" y1="1921.94" x2="1811.59" y2="197.22" style="stroke:#E8E8E8;stroke-width:4.00"/>
	<line x1="2051.15" y1="1921.94" x2="2051.15" y2="197.22" style="stroke:#E8E8E8;stroke-width:4.00"/>
	<line x1="2290.79" y1="1921.94" x2="2290.79" y2="197.22" style="stroke:#E8E8E8;stroke-width:4.00"/>
	<line x1="421.73" y1="1324.37" x2="517.63" y2="1338.72" stroke-linecap="round" style="stroke:#E69F00;stroke-width:10.00"/>
	<line x1="517.63" y1="1338.72" x2="613.45" y2="1375.15" stroke-linecap="round" style="stroke:#E69F00;stroke-width:10.00"/>
	<line x1="613.45" y1="1375.15" x2="709.28" y2="1326.76" stroke-linecap="round" style="stroke:#E69F00;stroke-width:10.00"/>
	<line x1="709.28" y1="1326.76" x2="853.10" y2="1355.70" stroke-linecap="round" style="stroke:#E69F00;stroke-width:10.00"/>
	<line x1="853.10" y1="1355.70" x2="948.92" y2="1321.58" stroke-linecap="round" style="stroke:#E69F00;stroke-width:10.00"/>
	<line x1="948.92" y1="1321.58" x2="1044.75" y2="1356.33" stroke-linecap="round" style="stroke:#E69F00;stroke-width:10.00"/>
	<line x1="1044.75" y1="1356.33" x2="1140.57" y2="1350.44" stroke-linecap="round" style="stroke:#E69F00;stroke-width:10.00"/>
	<line x1="1140.57" y1="1350.44" x2="1236.48" y2="1360.96" stroke-linecap="round" style="stroke:#E69F00;stroke-width:10.00"/>
	<line x1="1236.48" y1="1360.96" x2="1332.30" y2="1305.24" stroke-linecap="round" style="stroke:#E69F00;stroke-width:10.00"/>
	<line x1="1332.30" y1="1305.24" x2="1380.21" y2="1344.94" stroke-linecap="round" style="stroke:#E69F00;stroke-width:10.00"/>
	<line x1="1380.21" y1="1344.94" x2="1428.13" y2="1316.56" stroke-linecap="round" style="stroke:#E69F00;stroke-width:10.00"/>
	<line x1="1428.13" y1="1316.56" x2="1476.04" y2="1337.28" stroke-linecap="round" style="stroke:#E69F00;stroke-width:10.00"/>
	<line x1="1476.04" y1="1337.28" x2="1523.95" y2="1323.17" stroke-linecap="round" style="stroke:#E69F00;stroke-width:10.00"/>
	<line x1="1523.95" y1="1323.17" x2="1571.94" y2="1294.63" stroke-linecap="round" style="stroke:#E69F00;stroke-width:10.00"/>
	<line x1="1571.94" y1="1294.63" x2="1619.86" y2="1320.30" stroke-linecap="round" style="stroke:#E69F00;stroke-width:10.00"/>
	<line x1="1619.86" y1="1320.30" x2="1667.77" y2="1308.66" stroke-linecap="round" style="stroke:#E69F00;stroke-width:10.00"/>
	<line x1="1667.77" y1="1308.66" x2="1715.68" y2="1229.10" stroke-linecap="round" style="stroke:#E69F00;stroke-width:10.00"/>
	<line x1="853.10" y1="996.96" x2="948.92" y2="1120.85" stroke-linecap="round" style="stroke:#56B4E9;stroke-width:10.00"/>
	<line x1="948.92" y1="1120.85" x2="1044.75" y2="1076.68" stroke-linecap="round" style="stroke:#56B4E9;stroke-width:10.00"/>
	<line x1="1044.75" y1="1076.68" x2="1140.57" y2="1007.72" stroke-linecap="round" style="stroke:#56B4E9;stroke-width:10.00"/>
	<line x1="1140.57" y1="1007.72" x2="1236.48" y2="1111.92" stroke-linecap="round" style="stroke:#56B4E9;stroke-width:10.00"/>
	<line x1="1236.48" y1="1111.92" x2="1332.30" y2="1080.03" stroke-linecap="round" style="stroke:#56B4E9;stroke-width:10.00"/>
	<line x1="1332.30" y1="1080.03" x2="1380.21" y2="1134.00" stroke-linecap="round" style="stroke:#56B4E9;stroke-width:10.00"/>
	<line x1="1380.21" y1="1134.00" x2="1428.13" y2="1137.19" stroke-linecap="round" style="stroke:#56B4E9;stroke-width:10.00"/>
	<line x1="1428.13" y1="1137.19" x2="1476.04" y2="1121.32" stroke-linecap="round" style="stroke:#56B4E9;stroke-width:10.00"/>
	<line x1="1476.04" y1="1121.32" x2="1523.95" y2="1045.35" stroke-linecap="round" style="stroke:#56B4E9;stroke-width:10.00"/>
	<line x1="1523.95" y1="1045.35" x2="1571.94" y2="1097.33" stroke-linecap="round" style="stroke:#56B4E9;stroke-width:10.00"/>
	<line x1="1571.94" y1="1097.33" x2="1619.86" y2="1078.20" stroke-linecap="round" style="stroke:#56B4E9;stroke-width:10.00"/>
	<line x1="1619.86" y1="1078.20" x2="1667.77" y2="1015.22" stroke-linecap="round" style="stroke:#56B4E9;stroke-width:10.00"/>
	<line x1="1667.77" y1="1015.22" x2="1715.68" y2="1055.32" stroke-linecap="round" style="stroke:#56B4E9;stroke-width:10.00"/>
	<line x1="1715.68" y1="1055.32" x2="1763.59" y2="1109.29" stroke-linecap="round" style="stroke:#56B4E9;stroke-width:10.00"/>
	<line x1="1763.59" y1="1109.29" x2="1811.51" y2="996.25" stroke-linecap="round" style="stroke:#56B4E9;stroke-width:10.00"/>
	<line x1="1811.51" y1="996.25" x2="1859.42" y2="1071.58" stroke-linecap="round" style="stroke:#56B4E9;stroke-width:10.00"/>
	<line x1="1859.42" y1="1071.58" x2="1907.41" y2="1027.57" stroke-linecap="round" style="stroke:#56B4E9;stroke-width:10.00"/>
	<line x1="1907.41" y1="1027.57" x2="1955.32" y2="1039.13" stroke-linecap="round" style="stroke:#56B4E9;stroke-width:10.00"/>
	<line x1="1955.32" y1="1039.13" x2="2003.24" y2="1092.15" stroke-linecap="round" style="stroke:#56B4E9;stroke-width:10.00"/>
	<line x1="2003.24" y1="1092.15" x2="2051.15" y2="1093.90" stroke-linecap="round" style="stroke:#56B4E9;stroke-width:10.00"/>
	<line x1="2051.15" y1="1093.90" x2="2099.06" y2="1040.97" stroke-linecap="round" style="stroke:#56B4E9;stroke-width:10.00"/>
	<line x1="2099.06" y1="1040.97" x2="2146.97" y2="995.61" stroke-linecap="round" style="stroke:#56B4E9;stroke-width:10.00"/>
	<line x1="2146.97" y1="995.61" x2="2194.89" y2="928.64" stroke-linecap="round" style="stroke:#56B4E9;stroke-width:10.00"/>
	<line x1="1332.30" y1="1122.92" x2="1380.21" y2="1222.65" stroke-linecap="round" style="stroke:#009E73;stroke-width:10.00"/>
	<line x1="1380.21" y1="1222.65" x2="1428.13" y2="1216.03" stroke-linecap="round" style="stroke:#009E73;stroke-width:10.00"/>
	<line x1="1428.13" y1="1216.03" x2="1476.04" y2="1192.11" stroke-linecap="round" style="stroke:#009E73;stroke-width:10.00"/>
	<line x1="1476.04" y1="1192.11" x2="1523.95" y2="1205.83" stroke-linecap="round" style="stroke:#009E73;stroke-width:10.00"/>
	<line x1="1523.95" y1="1205.83" x2="1571.94" y2="1187.49" stroke-linecap="round" style="stroke:#009E73;stroke-width:10.00"/>
	<line x1="1571.94" y1="1187.49" x2="1619.86" y2="1198.49" stroke-linecap="round" style="stroke:#009E73;stroke-width:10.00"/>
	<line x1="1619.86" y1="1198.49" x2="1667.77" y2="1218.26" stroke-linecap="round" style="stroke:#009E73;stroke-width:10.00"/>
	<line x1="1667.77" y1="1218.26" x2="1715.68" y2="1214.91" stroke-linecap="round" style="stroke:#009E73;stroke-width:10.00"/>
	<line x1="1715.68" y1="1214.91" x2="1763.59" y2="1173.38" stroke-linecap="round" style="stroke:#009E73;stroke-width:10.00"/>
	<line x1="1763.59" y1="1173.38" x2="1811.51" y2="1056.51" stroke-linecap="round" style="stroke:#009E73;stroke-width:10.00"/>
	<line x1="1811.51" y1="1056.51" x2="1859.42" y2="1140.86" stroke-linecap="round" style="stroke:#009E73;stroke-width:10.00"/>
	<line x1="1859.42" y1="1140.86" x2="1907.41" y2="1143.33" stroke-linecap="round" style="stroke:#009E73;stroke-width:10.00"/>
	<line x1="1907.41" y1="1143.33" x2="1955.32" y2="1176.33" stroke-linecap="round" style="stroke:#009E73;stroke-width:10.00"/>
	<line x1="1955.32" y1="1176.33" x2="2003.24" y2="1152.89" stroke-linecap="round" style="stroke:#009E73;stroke-width:10.00"/>
	<line x1="2003.24" y1="1152.89" x2="2051.15" y2="1209.57" stroke-linecap="round" style="stroke:#009E73;stroke-width:10.00"/>
	<line x1="2051.15" y1="1209.57" x2="2099.06" y2="1186.21" stroke-linecap="round" style="stroke:#009E73;stroke-width:10.00"/>
	<line x1="2099.06" y1="1186.21" x2="2146.97" y2="1164.85" stroke-linecap="round" style="stroke:#009E73;stroke-width:10.00"/>
	<line x1="2146.97" y1="1164.85" x2="2194.89" y2="1175.29" stroke-linecap="round" style="stroke:#009E73;stroke-width:10.00"/>
	<line x1="2194.89" y1="1175.29" x2="2242.80" y2="1167.96" stroke-linecap="round" style="stroke:#009E73;stroke-width:10.00"/>
	<line x1="2242.80" y1="1167.96" x2="2290.79" y2="1169.79" stroke-linecap="round" style="stroke:#009E73;stroke-width:10.00"/>
	<line x1="1763.59" y1="1006.77" x2="1811.51" y2="924.34" stroke-linecap="round" style="stroke:#D55E00;stroke-width:10.00"/>
	<line x1="1811.51" y1="924.34" x2="1859.42" y2="968.98" stroke-linecap="round" style="stroke:#D55E00;stroke-width:10.00"/>
	<line x1="1859.42" y1="968.98" x2="1907.41" y2="1034.67" stroke-linecap="round" style="stroke:#D55E00;stroke-width:10.00"/>
	<line x1="1907.41" y1="1034.67" x2="1955.32" y2="1016.73" stroke-linecap="round" style="stroke:#D55E00;stroke-width:10.00"/>
	<line x1="1955.32" y1="1016.73" x2="2003.24" y2="1010.99" stroke-linecap="round" style="stroke:#D55E00;stroke-width:10.00"/>
	<line x1="2003.24" y1="1010.99" x2="2051.15" y2="995.05" stroke-linecap="round" style="stroke:#D55E00;stroke-width:10.00"/>
	<line x1="2051.15" y1="995.05" x2="2099.06" y2="1018.01" stroke-linecap="round" style="stroke:#D55E00;stroke-width:10.00"/>
	<line x1="2099.06" y1="1018.01" x2="2146.97" y2="996.72" stroke-linecap="round" style="stroke:#D55E00;stroke-width:10.00"/>
	<line x1="2146.97" y1="996.72" x2="2194.89" y2="1015.06" stroke-linecap="round" style="stroke:#D55E00;stroke-width:10.00"/>
	<line x1="2194.89" y1="1015.06" x2="2242.80" y2="998.72" stroke-linecap="round" style="stroke:#D55E00;stroke-width:10.00"/>
	<line x1="2242.80" y1="998.72" x2="2290.79" y2="1031.32" stroke-linecap="round" style="stroke:#D55E00;stroke-width:10.00"/>
	<line x1="2099.06" y1="769.29" x2="2146.97" y2="764.98" stroke-linecap="round" style="stroke:#CC79A7;stroke-width:10.00"/>
	<line x1="2146.97" y1="764.98" x2="2194.89" y2="824.53" stroke-linecap="round" style="stroke:#CC79A7;stroke-width:10.00"/>
	<line x1="2194.89" y1="824.53" x2="2242.80" y2="855.30" stroke-linecap="round" style="stroke:#CC79A7;stroke-width:10.00"/>
	<line x1="2242.80" y1="855.30" x2="2290.79" y2="847.33" stroke-linecap="round" style="stroke:#CC79A7;stroke-width:10.00"/>
	<line x1="421.73" y1="840.87" x2="472.43" y2="846.61" style="stroke:#A0A0A0;stroke-width:10.00"/>
	<line x1="497.78" y1="849.48" x2="517.63" y2="851.72" style="stroke:#A0A0A0;stroke-width:10.00"/>
	<line x1="517.63" y1="851.72" x2="548.56" y2="849.32" style="stroke:#A0A0A0;stroke-width:10.00"/>
	<line x1="573.99" y1="847.25" x2="613.45" y2="844.22" style="stroke:#A0A0A0;stroke-width:10.00"/>
	<line x1="613.45" y1="844.22" x2="623.90" y2="839.52" style="stroke:#A0A0A0;stroke-width:10.00"/>
	<line x1="647.18" y1="829.08" x2="693.73" y2="808.19" style="stroke:#A0A0A0;stroke-width:10.00"/>
	<line x1="717.33" y1="798.62" x2="766.04" y2="783.40" style="stroke:#A0A0A0;stroke-width:10.00"/>
	<line x1="790.36" y1="775.74" x2="839.07" y2="760.52" style="stroke:#A0A0A0;stroke-width:10.00"/>
	<line x1="863.70" y1="754.30" x2="914.00" y2="745.45" style="stroke:#A0A0A0;stroke-width:10.00"/>
	<line x1="939.12" y1="741.07" x2="948.92" y2="739.39" style="stroke:#A0A0A0;stroke-width:10.00"/>
	<line x1="948.92" y1="739.39" x2="989.50" y2="732.62" style="stroke:#A0A0A0;stroke-width:10.00"/>
	<line x1="1014.61" y1="728.39" x2="1044.75" y2="723.37" style="stroke:#A0A0A0;stroke-width:10.00"/>
	<line x1="1044.75" y1="723.37" x2="1065.00" y2="726.08" style="stroke:#A0A0A0;stroke-width:10.00"/>
	<line x1="1090.27" y1="729.51" x2="1140.57" y2="736.20" style="stroke:#A0A0A0;stroke-width:10.00"/>
	<line x1="1140.57" y1="736.20" x2="1140.81" y2="736.04" style="stroke:#A0A0A0;stroke-width:10.00"/>
	<line x1="1163.45" y1="724.32" x2="1208.81" y2="700.89" style="stroke:#A0A0A0;stroke-width:10.00"/>
	<line x1="1231.53" y1="689.17" x2="1236.48" y2="686.62" style="stroke:#A0A0A0;stroke-width:10.00"/>
	<line x1="1236.48" y1="686.62" x2="1280.72" y2="676.25" style="stroke:#A0A0A0;stroke-width:10.00"/>
	<line x1="1305.59" y1="670.43" x2="1332.30" y2="664.22" style="stroke:#A0A0A0;stroke-width:10.00"/>
	<line x1="1332.30" y1="664.22" x2="1355.90" y2="664.54" style="stroke:#A0A0A0;stroke-width:10.00"/>
	<line x1="1381.33" y1="664.62" x2="1428.13" y2="653.69" style="stroke:#A0A0A0;stroke-width:10.00"/>
	<line x1="1428.13" y1="653.69" x2="1431.16" y2="653.45" style="stroke:#A0A0A0;stroke-width:10.00"/>
	<line x1="1456.59" y1="651.86" x2="1476.04" y2="650.66" style="stroke:#A0A0A0;stroke-width:10.00"/>
	<line x1="1476.04" y1="650.66" x2="1507.37" y2="654.41" style="stroke:#A0A0A0;stroke-width:10.00"/>
	<line x1="1532.72" y1="656.40" x2="1571.94" y2="656.32" style="stroke:#A0A0A0;stroke-width:10.00"/>
	<line x1="1571.94" y1="656.32" x2="1583.58" y2="654.33" style="stroke:#A0A0A0;stroke-width:10.00"/>
	<line x1="1608.77" y1="650.03" x2="1619.86" y2="648.11" style="stroke:#A0A0A0;stroke-width:10.00"/>
	<line x1="1619.86" y1="648.11" x2="1658.76" y2="640.06" style="stroke:#A0A0A0;stroke-width:10.00"/>
	<line x1="1683.79" y1="635.12" x2="1715.68" y2="628.82" style="stroke:#A0A0A0;stroke-width:10.00"/>
	<line x1="1715.68" y1="628.82" x2="1734.18" y2="629.06" style="stroke:#A0A0A0;stroke-width:10.00"/>
	<line x1="1759.69" y1="629.38" x2="1763.59" y2="629.38" style="stroke:#A0A0A0;stroke-width:10.00"/>
	<line x1="1763.59" y1="629.38" x2="1804.97" y2="606.82" style="stroke:#A0A0A0;stroke-width:10.00"/>
	<line x1="1829.52" y1="604.03" x2="1859.42" y2="605.38" style="stroke:#A0A0A0;stroke-width:10.00"/>
	<line x1="1859.42" y1="605.38" x2="1880.46" y2="606.90" style="stroke:#A0A0A0;stroke-width:10.00"/>
	<line x1="1905.90" y1="608.73" x2="1907.41" y2="608.81" style="stroke:#A0A0A0;stroke-width:10.00"/>
	<line x1="1907.41" y1="608.81" x2="1955.32" y2="604.35" style="stroke:#A0A0A0;stroke-width:10.00"/>
	<line x1="1955.32" y1="604.35" x2="1956.68" y2="603.79" style="stroke:#A0A0A0;stroke-width:10.00"/>
	<line x1="1980.12" y1="593.82" x2="2003.24" y2="583.94" style="stroke:#A0A0A0;stroke-width:10.00"/>
	<line x1="2003.24" y1="583.94" x2="2028.91" y2="580.67" style="stroke:#A0A0A0;stroke-width:10.00"/>
	<line x1="2054.02" y1="576.61" x2="2099.06" y2="557.15" style="stroke:#A0A0A0;stroke-width:10.00"/>
	<line x1="2099.06" y1="557.15" x2="2100.89" y2="556.60" style="stroke:#A0A0A0;stroke-width:10.00"/>
	<line x1="2125.37" y1="549.34" x2="2146.97" y2="542.88" style="stroke:#A0A0A0;stroke-width:10.00"/>
	<line x1="2146.97" y1="542.88" x2="2175.03" y2="538.02" style="stroke:#A0A0A0;stroke-width:10.00"/>
	<line x1="2200.23" y1="534.12" x2="2242.80" y2="531.09" style="stroke:#A0A0A0;stroke-width:10.00"/>
	<line x1="2242.80" y1="531.09" x2="2250.53" y2="528.06" style="stroke:#A0A0A0;stroke-width:10.00"/>
	<line x1="2274.29" y1="518.65" x2="2290.79" y2="512.19" style="stroke:#A0A0A0;stroke-width:10.00"/>
	<line x1="365.68" y1="1865.82" x2="330.29" y2="1865.82" style="stroke:#000000;stroke-width:4.00"/>
	<text x="312.51" y="1883.33" style="font-family:'Helvetica';font-size:49.99px;fill:#000000" text-anchor="end">25</text>
	<line x1="365.68" y1="1567.19" x2="330.29" y2="1567.19" style="stroke:#000000;stroke-width:4.00"/>
	<text x="312.51" y="1584.71" style="font-family:'Helvetica';font-size:49.99px;fill:#000000" text-anchor="end">30</text>
	<line x1="365.68" y1="1268.56" x2="330.29" y2="1268.56" style="stroke:#000000;stroke-width:4.00"/>
	<text x="312.51" y="1286.08" style="font-family:'Helvetica';font-size:49.99px;fill:#000000" text-anchor="end">35</text>
	<line x1="365.68" y1="970.02" x2="330.29" y2="970.02" style="stroke:#000000;stroke-width:4.00"/>
	<text x="312.51" y="987.53" style="font-family:'Helvetica';font-size:49.99px;fill:#000000" text-anchor="end">40</text>
	<line x1="365.68" y1="671.39" x2="330.29" y2="671.39" style="stroke:#000000;stroke-width:4.00"/>
	<text x="312.51" y="688.91" style="font-family:'Helvetica';font-size:49.99px;fill:#000000" text-anchor="end">45</text>
	<line x1="365.68" y1="372.76" x2="330.29" y2="372.76" style="stroke:#000000;stroke-width:4.00"/>
	<text x="312.51" y="390.28" style="font-family:'Helvetica';font-size:49.99px;fill:#000000" text-anchor="end">50</text>
	<line x1="365.68" y1="1865.82" x2="365.68" y2="253.35" style="stroke:#000000;stroke-width:4.00"/>
	<text x="136.21" y="1021.28" style="font-family:'Helvetica';font-size:60.03px;fill:#000000" transform="rotate(-90 136.21,1021.28)" text-anchor="middle">ISEI-88 (employed only)</text>
	<line x1="421.81" y1="1921.94" x2="421.81" y2="1957.33" style="stroke:#000000;stroke-width:4.00"/>
	<text x="421.81" y="2009.98" style="font-family:'Helvetica';font-size:49.99px;fill:#000000" text-anchor="middle">1976</text>
	<line x1="613.45" y1="1921.94" x2="613.45" y2="1957.33" style="stroke:#000000;stroke-width:4.00"/>
	<text x="613.45" y="2009.98" style="font-family:'Helvetica';font-size:49.99px;fill:#000000" text-anchor="middle">1980</text>
	<line x1="853.10" y1="1921.94" x2="853.10" y2="1957.33" style="stroke:#000000;stroke-width:4.00"/>
	<text x="853.10" y="2009.98" style="font-family:'Helvetica';font-size:49.99px;fill:#000000" text-anchor="middle">1985</text>
	<line x1="1092.74" y1="1921.94" x2="1092.74" y2="1957.33" style="stroke:#000000;stroke-width:4.00"/>
	<text x="1092.74" y="2009.98" style="font-family:'Helvetica';font-size:49.99px;fill:#000000" text-anchor="middle">1990</text>
	<line x1="1332.30" y1="1921.94" x2="1332.30" y2="1957.33" style="stroke:#000000;stroke-width:4.00"/>
	<text x="1332.30" y="2009.98" style="font-family:'Helvetica';font-size:49.99px;fill:#000000" text-anchor="middle">1995</text>
	<line x1="1571.94" y1="1921.94" x2="1571.94" y2="1957.33" style="stroke:#000000;stroke-width:4.00"/>
	<text x="1571.94" y="2009.98" style="font-family:'Helvetica';font-size:49.99px;fill:#000000" text-anchor="middle">2000</text>
	<line x1="1811.59" y1="1921.94" x2="1811.59" y2="1957.33" style="stroke:#000000;stroke-width:4.00"/>
	<text x="1811.59" y="2009.98" style="font-family:'Helvetica';font-size:49.99px;fill:#000000" text-anchor="middle">2005</text>
	<line x1="2051.15" y1="1921.94" x2="2051.15" y2="1957.33" style="stroke:#000000;stroke-width:4.00"/>
	<text x="2051.15" y="2009.98" style="font-family:'Helvetica';font-size:49.99px;fill:#000000" text-anchor="middle">2010</text>
	<line x1="2290.79" y1="1921.94" x2="2290.79" y2="1957.33" style="stroke:#000000;stroke-width:4.00"/>
	<text x="2290.79" y="2009.98" style="font-family:'Helvetica';font-size:49.99px;fill:#000000" text-anchor="middle">2015</text>
	<line x1="421.81" y1="1921.94" x2="2290.79" y2="1921.94" style="stroke:#000000;stroke-width:4.00"/>
	<text x="1318.03" y="2152.37" style="font-family:'Helvetica';font-size:60.03px;fill:#000000" text-anchor="middle">Year</text>
	<text x="145.41" y="2396.65" style="font-family:'Helvetica';font-size:60.03px;fill:#000000">Arr. cohort: </text>
	<text x="536.36" y="2396.65" style="font-family:'Helvetica';font-size:60.03px;fill:#000000">1964-73</text>
	<text x="845.12" y="2396.65" style="font-family:'Helvetica';font-size:60.03px;fill:#000000">1974-83</text>
	<text x="1153.89" y="2396.65" style="font-family:'Helvetica';font-size:60.03px;fill:#000000">1984-93</text>
	<text x="1462.65" y="2396.65" style="font-family:'Helvetica';font-size:60.03px;fill:#000000">1994-03</text>
	<text x="1771.41" y="2396.65" style="font-family:'Helvetica';font-size:60.03px;fill:#000000">2004-10</text>
	<text x="2080.17" y="2396.65" style="font-family:'Helvetica';font-size:60.03px;fill:#000000">German</text>
	<line x1="536.36" y1="2301.32" x2="737.26" y2="2301.32" style="stroke:#E69F00;stroke-width:10.00"/>
	<line x1="845.12" y1="2301.32" x2="1046.02" y2="2301.32" style="stroke:#56B4E9;stroke-width:10.00"/>
	<line x1="1153.89" y1="2301.32" x2="1354.78" y2="2301.32" style="stroke:#009E73;stroke-width:10.00"/>
	<line x1="1462.65" y1="2301.32" x2="1663.54" y2="2301.32" style="stroke:#D55E00;stroke-width:10.00"/>
	<line x1="1771.41" y1="2301.32" x2="1972.30" y2="2301.32" style="stroke:#CC79A7;stroke-width:10.00"/>
	<line x1="2080.17" y1="2301.32" x2="2131.19" y2="2301.32" style="stroke:#A0A0A0;stroke-width:10.00"/>
	<line x1="2156.70" y1="2301.32" x2="2207.72" y2="2301.32" style="stroke:#A0A0A0;stroke-width:10.00"/>
	<line x1="2233.23" y1="2301.32" x2="2278.03" y2="2301.32" style="stroke:#A0A0A0;stroke-width:10.00"/>
	<text x="1356.30" y="154.88" style="font-family:'Helvetica';font-size:90.01px;fill:#000000" text-anchor="middle">Men</text>
</svg>
