<?xml version="1.0" encoding="UTF-8" standalone="no"?>
<!-- This is a Stata 15.1 generated SVG file (http://www.stata.com) -->

<svg version="1.1" width="3.54in" height="3.54in" viewBox="0 0 2551 2551" xmlns="http://www.w3.org/2000/svg" xmlns:xlink="http://www.w3.org/1999/xlink">
	<desc>Stata Graph - Graph</desc>
	<rect x="0" y="0" width="2551" height="2551" style="fill:#FFFFFF;stroke:none"/>
	<rect x="0.00" y="0.08" width="2551.00" height="2550.92" style="fill:#FFFFFF"/>
	<rect x="2.55" y="2.63" width="2545.90" height="2545.82" style="fill:none;stroke:#FFFFFF;stroke-width:5.10"/>
	<line x1="365.68" y1="1865.82" x2="2346.91" y2="1865.82" style="stroke:#E8E8E8;stroke-width:4.00"/>
	<line x1="365.68" y1="1567.19" x2="2346.91" y2="1567.19" style="stroke:#E8E8E8;stroke-width:4.00"/>
	<line x1="365.68" y1="1268.56" x2="2346.91" y2="1268.56" style="stroke:#E8E8E8;stroke-width:4.00"/>
	<line x1="365.68" y1="970.02" x2="2346.91" y2="970.02" style="stroke:#E8E8E8;stroke-width:4.00"/>
	<line x1="365.68" y1="671.39" x2="2346.91" y2="671.39" style="stroke:#E8E8E8;stroke-width:4.00"/>
	<line x1="365.68" y1="372.76" x2="2346.91" y2="372.76" style="stroke:#E8E8E8;stroke-width:4.00"/>
	<line x1="421.81" y1="1921.94" x2="421.81" y2="197.22" style="stroke:#E8E8E8;stroke-width:4.00"/>
	<line x1="613.45" y1="1921.94" x2="613.45" y2="197.22" style="stroke:#E8E8E8;stroke-width:4.00"/>
	<line x1="853.10" y1="1921.94" x2="853.10" y2="197.22" style="stroke:#E8E8E8;stroke-width:4.00"/>
	<line x1="1092.74" y1="1921.94" x2="1092.74" y2="197.22" style="stroke:#E8E8E8;stroke-width:4.00"/>
	<line x1="1332.30" y1="1921.94" x2="1332.30" y2="197.22" style="stroke:#E8E8E8;stroke-width:4.00"/>
	<line x1="1571.94" y1="1921.94" x2="1571.94" y2="197.22" style="stroke:#E8E8E8;stroke-width:4.00"/>
	<line x1="1811.59" y1="1921.94" x2="1811.59" y2="197.22" style="stroke:#E8E8E8;stroke-width:4.00"/>
	<line x1="2051.15" y1="1921.94" x2="2051.15" y2="197.22" style="stroke:#E8E8E8;stroke-width:4.00"/>
	<line x1="2290.79" y1="1921.94" x2="2290.79" y2="197.22" style="stroke:#E8E8E8;stroke-width:4.00"/>
	<line x1="421.73" y1="1388.54" x2="517.63" y2="1369.25" stroke-linecap="round" style="stroke:#E69F00;stroke-width:10.00"/>
	<line x1="517.63" y1="1369.25" x2="613.45" y2="1402.01" stroke-linecap="round" style="stroke:#E69F00;stroke-width:10.00"/>
	<line x1="613.45" y1="1402.01" x2="709.28" y2="1385.59" stroke-linecap="round" style="stroke:#E69F00;stroke-width:10.00"/>
	<line x1="709.28" y1="1385.59" x2="853.10" y2="1358.17" stroke-linecap="round" style="stroke:#E69F00;stroke-width:10.00"/>
	<line x1="853.10" y1="1358.17" x2="948.92" y2="1386.07" stroke-linecap="round" style="stroke:#E69F00;stroke-width:10.00"/>
	<line x1="948.92" y1="1386.07" x2="1044.75" y2="1329.95" stroke-linecap="round" style="stroke:#E69F00;stroke-width:10.00"/>
	<line x1="1044.75" y1="1329.95" x2="1140.57" y2="1375.23" stroke-linecap="round" style="stroke:#E69F00;stroke-width:10.00"/>
	<line x1="1140.57" y1="1375.23" x2="1236.48" y2="1332.18" stroke-linecap="round" style="stroke:#E69F00;stroke-width:10.00"/>
	<line x1="1236.48" y1="1332.18" x2="1332.30" y2="1331.70" stroke-linecap="round" style="stroke:#E69F00;stroke-width:10.00"/>
	<line x1="1332.30" y1="1331.70" x2="1380.21" y2="1332.26" stroke-linecap="round" style="stroke:#E69F00;stroke-width:10.00"/>
	<line x1="1380.21" y1="1332.26" x2="1428.13" y2="1327.24" stroke-linecap="round" style="stroke:#E69F00;stroke-width:10.00"/>
	<line x1="1428.13" y1="1327.24" x2="1476.04" y2="1351.15" stroke-linecap="round" style="stroke:#E69F00;stroke-width:10.00"/>
	<line x1="1476.04" y1="1351.15" x2="1523.95" y2="1362.63" stroke-linecap="round" style="stroke:#E69F00;stroke-width:10.00"/>
	<line x1="1523.95" y1="1362.63" x2="1571.94" y2="1348.20" stroke-linecap="round" style="stroke:#E69F00;stroke-width:10.00"/>
	<line x1="1571.94" y1="1348.20" x2="1619.86" y2="1257.01" stroke-linecap="round" style="stroke:#E69F00;stroke-width:10.00"/>
	<line x1="1619.86" y1="1257.01" x2="1667.77" y2="1379.77" stroke-linecap="round" style="stroke:#E69F00;stroke-width:10.00"/>
	<line x1="1667.77" y1="1379.77" x2="1715.68" y2="1250.55" stroke-linecap="round" style="stroke:#E69F00;stroke-width:10.00"/>
	<line x1="853.10" y1="985.40" x2="948.92" y2="1093.98" stroke-linecap="round" style="stroke:#56B4E9;stroke-width:10.00"/>
	<line x1="948.92" y1="1093.98" x2="1044.75" y2="1129.22" stroke-linecap="round" style="stroke:#56B4E9;stroke-width:10.00"/>
	<line x1="1044.75" y1="1129.22" x2="1140.57" y2="1204.71" stroke-linecap="round" style="stroke:#56B4E9;stroke-width:10.00"/>
	<line x1="1140.57" y1="1204.71" x2="1236.48" y2="1251.42" stroke-linecap="round" style="stroke:#56B4E9;stroke-width:10.00"/>
	<line x1="1236.48" y1="1251.42" x2="1332.30" y2="1155.76" stroke-linecap="round" style="stroke:#56B4E9;stroke-width:10.00"/>
	<line x1="1332.30" y1="1155.76" x2="1380.21" y2="1203.51" stroke-linecap="round" style="stroke:#56B4E9;stroke-width:10.00"/>
	<line x1="1380.21" y1="1203.51" x2="1428.13" y2="1212.12" stroke-linecap="round" style="stroke:#56B4E9;stroke-width:10.00"/>
	<line x1="1428.13" y1="1212.12" x2="1476.04" y2="1256.61" stroke-linecap="round" style="stroke:#56B4E9;stroke-width:10.00"/>
	<line x1="1476.04" y1="1256.61" x2="1523.95" y2="1268.56" stroke-linecap="round" style="stroke:#56B4E9;stroke-width:10.00"/>
	<line x1="1523.95" y1="1268.56" x2="1571.94" y2="1178.88" stroke-linecap="round" style="stroke:#56B4E9;stroke-width:10.00"/>
	<line x1="1571.94" y1="1178.88" x2="1619.86" y2="1280.44" stroke-linecap="round" style="stroke:#56B4E9;stroke-width:10.00"/>
	<line x1="1619.86" y1="1280.44" x2="1667.77" y2="1247.44" stroke-linecap="round" style="stroke:#56B4E9;stroke-width:10.00"/>
	<line x1="1667.77" y1="1247.44" x2="1715.68" y2="1227.19" stroke-linecap="round" style="stroke:#56B4E9;stroke-width:10.00"/>
	<line x1="1715.68" y1="1227.19" x2="1763.59" y2="1237.47" stroke-linecap="round" style="stroke:#56B4E9;stroke-width:10.00"/>
	<line x1="1763.59" y1="1237.47" x2="1811.51" y2="1159.91" stroke-linecap="round" style="stroke:#56B4E9;stroke-width:10.00"/>
	<line x1="1811.51" y1="1159.91" x2="1859.42" y2="1201.44" stroke-linecap="round" style="stroke:#56B4E9;stroke-width:10.00"/>
	<line x1="1859.42" y1="1201.44" x2="1907.41" y2="1106.82" stroke-linecap="round" style="stroke:#56B4E9;stroke-width:10.00"/>
	<line x1="1907.41" y1="1106.82" x2="1955.32" y2="1168.36" stroke-linecap="round" style="stroke:#56B4E9;stroke-width:10.00"/>
	<line x1="1955.32" y1="1168.36" x2="2003.24" y2="1195.38" stroke-linecap="round" style="stroke:#56B4E9;stroke-width:10.00"/>
	<line x1="2003.24" y1="1195.38" x2="2051.15" y2="1123.72" stroke-linecap="round" style="stroke:#56B4E9;stroke-width:10.00"/>
	<line x1="2051.15" y1="1123.72" x2="2099.06" y2="1209.01" stroke-linecap="round" style="stroke:#56B4E9;stroke-width:10.00"/>
	<line x1="2099.06" y1="1209.01" x2="2146.97" y2="1268.96" stroke-linecap="round" style="stroke:#56B4E9;stroke-width:10.00"/>
	<line x1="1332.30" y1="1116.22" x2="1380.21" y2="1198.41" stroke-linecap="round" style="stroke:#009E73;stroke-width:10.00"/>
	<line x1="1380.21" y1="1198.41" x2="1428.13" y2="1152.89" stroke-linecap="round" style="stroke:#009E73;stroke-width:10.00"/>
	<line x1="1428.13" y1="1152.89" x2="1476.04" y2="1187.33" stroke-linecap="round" style="stroke:#009E73;stroke-width:10.00"/>
	<line x1="1476.04" y1="1187.33" x2="1523.95" y2="1178.88" stroke-linecap="round" style="stroke:#009E73;stroke-width:10.00"/>
	<line x1="1523.95" y1="1178.88" x2="1571.94" y2="1192.35" stroke-linecap="round" style="stroke:#009E73;stroke-width:10.00"/>
	<line x1="1571.94" y1="1192.35" x2="1619.86" y2="1206.46" stroke-linecap="round" style="stroke:#009E73;stroke-width:10.00"/>
	<line x1="1619.86" y1="1206.46" x2="1667.77" y2="1248.00" stroke-linecap="round" style="stroke:#009E73;stroke-width:10.00"/>
	<line x1="1667.77" y1="1248.00" x2="1715.68" y2="1180.00" stroke-linecap="round" style="stroke:#009E73;stroke-width:10.00"/>
	<line x1="1715.68" y1="1180.00" x2="1763.59" y2="1229.42" stroke-linecap="round" style="stroke:#009E73;stroke-width:10.00"/>
	<line x1="1763.59" y1="1229.42" x2="1811.51" y2="1218.82" stroke-linecap="round" style="stroke:#009E73;stroke-width:10.00"/>
	<line x1="1811.51" y1="1218.82" x2="1859.42" y2="1207.74" stroke-linecap="round" style="stroke:#009E73;stroke-width:10.00"/>
	<line x1="1859.42" y1="1207.74" x2="1907.41" y2="1202.88" stroke-linecap="round" style="stroke:#009E73;stroke-width:10.00"/>
	<line x1="1907.41" y1="1202.88" x2="1955.32" y2="1229.90" stroke-linecap="round" style="stroke:#009E73;stroke-width:10.00"/>
	<line x1="1955.32" y1="1229.90" x2="2003.24" y2="1208.06" stroke-linecap="round" style="stroke:#009E73;stroke-width:10.00"/>
	<line x1="2003.24" y1="1208.06" x2="2051.15" y2="1197.46" stroke-linecap="round" style="stroke:#009E73;stroke-width:10.00"/>
	<line x1="2051.15" y1="1197.46" x2="2099.06" y2="1274.78" stroke-linecap="round" style="stroke:#009E73;stroke-width:10.00"/>
	<line x1="2099.06" y1="1274.78" x2="2146.97" y2="1218.26" stroke-linecap="round" style="stroke:#009E73;stroke-width:10.00"/>
	<line x1="2146.97" y1="1218.26" x2="2194.89" y2="1273.83" stroke-linecap="round" style="stroke:#009E73;stroke-width:10.00"/>
	<line x1="2194.89" y1="1273.83" x2="2242.80" y2="1276.86" stroke-linecap="round" style="stroke:#009E73;stroke-width:10.00"/>
	<line x1="2242.80" y1="1276.86" x2="2290.79" y2="1341.11" stroke-linecap="round" style="stroke:#009E73;stroke-width:10.00"/>
	<line x1="1763.59" y1="1114.55" x2="1811.51" y2="1008.92" stroke-linecap="round" style="stroke:#D55E00;stroke-width:10.00"/>
	<line x1="1811.51" y1="1008.92" x2="1859.42" y2="1053.24" stroke-linecap="round" style="stroke:#D55E00;stroke-width:10.00"/>
	<line x1="1859.42" y1="1053.24" x2="1907.41" y2="1053.32" stroke-linecap="round" style="stroke:#D55E00;stroke-width:10.00"/>
	<line x1="1907.41" y1="1053.32" x2="1955.32" y2="1072.93" stroke-linecap="round" style="stroke:#D55E00;stroke-width:10.00"/>
	<line x1="1955.32" y1="1072.93" x2="2003.24" y2="1058.51" stroke-linecap="round" style="stroke:#D55E00;stroke-width:10.00"/>
	<line x1="2003.24" y1="1058.51" x2="2051.15" y2="1032.92" stroke-linecap="round" style="stroke:#D55E00;stroke-width:10.00"/>
	<line x1="2051.15" y1="1032.92" x2="2099.06" y2="1065.76" stroke-linecap="round" style="stroke:#D55E00;stroke-width:10.00"/>
	<line x1="2099.06" y1="1065.76" x2="2146.97" y2="1091.99" stroke-linecap="round" style="stroke:#D55E00;stroke-width:10.00"/>
	<line x1="2146.97" y1="1091.99" x2="2194.89" y2="1138.54" stroke-linecap="round" style="stroke:#D55E00;stroke-width:10.00"/>
	<line x1="2194.89" y1="1138.54" x2="2242.80" y2="1116.86" stroke-linecap="round" style="stroke:#D55E00;stroke-width:10.00"/>
	<line x1="2242.80" y1="1116.86" x2="2290.79" y2="1198.33" stroke-linecap="round" style="stroke:#D55E00;stroke-width:10.00"/>
	<line x1="2099.06" y1="852.99" x2="2146.97" y2="813.61" stroke-linecap="round" style="stroke:#CC79A7;stroke-width:10.00"/>
	<line x1="2146.97" y1="813.61" x2="2194.89" y2="833.70" stroke-linecap="round" style="stroke:#CC79A7;stroke-width:10.00"/>
	<line x1="2194.89" y1="833.70" x2="2242.80" y2="881.21" stroke-linecap="round" style="stroke:#CC79A7;stroke-width:10.00"/>
	<line x1="2242.80" y1="881.21" x2="2290.79" y2="941.16" stroke-linecap="round" style="stroke:#CC79A7;stroke-width:10.00"/>
	<line x1="421.73" y1="1022.47" x2="470.20" y2="1006.69" style="stroke:#A0A0A0;stroke-width:10.00"/>
	<line x1="494.51" y1="998.80" x2="517.63" y2="991.30" style="stroke:#A0A0A0;stroke-width:10.00"/>
	<line x1="517.63" y1="991.30" x2="543.62" y2="985.16" style="stroke:#A0A0A0;stroke-width:10.00"/>
	<line x1="568.49" y1="979.27" x2="613.45" y2="968.58" style="stroke:#A0A0A0;stroke-width:10.00"/>
	<line x1="613.45" y1="968.58" x2="617.92" y2="966.91" style="stroke:#A0A0A0;stroke-width:10.00"/>
	<line x1="641.92" y1="958.22" x2="689.91" y2="940.84" style="stroke:#A0A0A0;stroke-width:10.00"/>
	<line x1="713.82" y1="931.91" x2="760.94" y2="912.38" style="stroke:#A0A0A0;stroke-width:10.00"/>
	<line x1="784.54" y1="902.58" x2="831.65" y2="883.04" style="stroke:#A0A0A0;stroke-width:10.00"/>
	<line x1="855.25" y1="873.48" x2="903.80" y2="857.85" style="stroke:#A0A0A0;stroke-width:10.00"/>
	<line x1="928.11" y1="850.04" x2="948.92" y2="843.34" style="stroke:#A0A0A0;stroke-width:10.00"/>
	<line x1="948.92" y1="843.34" x2="977.70" y2="838.48" style="stroke:#A0A0A0;stroke-width:10.00"/>
	<line x1="1002.81" y1="834.26" x2="1044.75" y2="827.16" style="stroke:#A0A0A0;stroke-width:10.00"/>
	<line x1="1044.75" y1="827.16" x2="1053.28" y2="827.16" style="stroke:#A0A0A0;stroke-width:10.00"/>
	<line x1="1078.79" y1="827.32" x2="1129.81" y2="827.56" style="stroke:#A0A0A0;stroke-width:10.00"/>
	<line x1="1151.02" y1="817.28" x2="1187.37" y2="781.40" style="stroke:#A0A0A0;stroke-width:10.00"/>
	<line x1="1205.46" y1="763.47" x2="1236.48" y2="732.85" style="stroke:#A0A0A0;stroke-width:10.00"/>
	<line x1="1236.48" y1="732.85" x2="1243.33" y2="729.83" style="stroke:#A0A0A0;stroke-width:10.00"/>
	<line x1="1266.69" y1="719.62" x2="1313.41" y2="699.13" style="stroke:#A0A0A0;stroke-width:10.00"/>
	<line x1="1337.16" y1="691.00" x2="1380.21" y2="691.40" style="stroke:#A0A0A0;stroke-width:10.00"/>
	<line x1="1380.21" y1="691.40" x2="1388.11" y2="689.97" style="stroke:#A0A0A0;stroke-width:10.00"/>
	<line x1="1413.22" y1="685.50" x2="1428.13" y2="682.87" style="stroke:#A0A0A0;stroke-width:10.00"/>
	<line x1="1428.13" y1="682.87" x2="1463.84" y2="679.68" style="stroke:#A0A0A0;stroke-width:10.00"/>
	<line x1="1489.27" y1="679.60" x2="1523.95" y2="682.07" style="stroke:#A0A0A0;stroke-width:10.00"/>
	<line x1="1523.95" y1="682.07" x2="1540.13" y2="683.91" style="stroke:#A0A0A0;stroke-width:10.00"/>
	<line x1="1565.49" y1="686.86" x2="1571.94" y2="687.57" style="stroke:#A0A0A0;stroke-width:10.00"/>
	<line x1="1571.94" y1="687.57" x2="1616.35" y2="684.78" style="stroke:#A0A0A0;stroke-width:10.00"/>
	<line x1="1641.06" y1="678.57" x2="1667.77" y2="670.91" style="stroke:#A0A0A0;stroke-width:10.00"/>
	<line x1="1667.77" y1="670.91" x2="1691.05" y2="670.12" style="stroke:#A0A0A0;stroke-width:10.00"/>
	<line x1="1716.48" y1="669.00" x2="1763.59" y2="654.89" style="stroke:#A0A0A0;stroke-width:10.00"/>
	<line x1="1763.59" y1="654.89" x2="1765.43" y2="654.97" style="stroke:#A0A0A0;stroke-width:10.00"/>
	<line x1="1790.86" y1="655.85" x2="1811.51" y2="656.56" style="stroke:#A0A0A0;stroke-width:10.00"/>
	<line x1="1811.51" y1="656.56" x2="1841.88" y2="654.97" style="stroke:#A0A0A0;stroke-width:10.00"/>
	<line x1="1867.23" y1="652.58" x2="1907.41" y2="644.92" style="stroke:#A0A0A0;stroke-width:10.00"/>
	<line x1="1907.41" y1="644.92" x2="1917.46" y2="644.29" style="stroke:#A0A0A0;stroke-width:10.00"/>
	<line x1="1942.97" y1="642.53" x2="1955.32" y2="641.66" style="stroke:#A0A0A0;stroke-width:10.00"/>
	<line x1="1955.32" y1="641.66" x2="1991.99" y2="629.62" style="stroke:#A0A0A0;stroke-width:10.00"/>
	<line x1="2016.71" y1="623.64" x2="2051.15" y2="617.74" style="stroke:#A0A0A0;stroke-width:10.00"/>
	<line x1="2051.15" y1="617.74" x2="2066.69" y2="613.67" style="stroke:#A0A0A0;stroke-width:10.00"/>
	<line x1="2091.41" y1="607.22" x2="2099.06" y2="605.22" style="stroke:#A0A0A0;stroke-width:10.00"/>
	<line x1="2099.06" y1="605.22" x2="2140.83" y2="594.54" style="stroke:#A0A0A0;stroke-width:10.00"/>
	<line x1="2165.71" y1="588.72" x2="2194.89" y2="581.95" style="stroke:#A0A0A0;stroke-width:10.00"/>
	<line x1="2194.89" y1="581.95" x2="2215.13" y2="576.53" style="stroke:#A0A0A0;stroke-width:10.00"/>
	<line x1="2239.85" y1="569.83" x2="2242.80" y2="569.03" style="stroke:#A0A0A0;stroke-width:10.00"/>
	<line x1="2242.80" y1="569.03" x2="2287.20" y2="551.10" style="stroke:#A0A0A0;stroke-width:10.00"/>
	<line x1="365.68" y1="1865.82" x2="330.29" y2="1865.82" style="stroke:#000000;stroke-width:4.00"/>
	<text x="312.51" y="1883.33" style="font-family:'Helvetica';font-size:49.99px;fill:#000000" text-anchor="end">25</text>
	<line x1="365.68" y1="1567.19" x2="330.29" y2="1567.19" style="stroke:#000000;stroke-width:4.00"/>
	<text x="312.51" y="1584.71" style="font-family:'Helvetica';font-size:49.99px;fill:#000000" text-anchor="end">30</text>
	<line x1="365.68" y1="1268.56" x2="330.29" y2="1268.56" style="stroke:#000000;stroke-width:4.00"/>
	<text x="312.51" y="1286.08" style="font-family:'Helvetica';font-size:49.99px;fill:#000000" text-anchor="end">35</text>
	<line x1="365.68" y1="970.02" x2="330.29" y2="970.02" style="stroke:#000000;stroke-width:4.00"/>
	<text x="312.51" y="987.53" style="font-family:'Helvetica';font-size:49.99px;fill:#000000" text-anchor="end">40</text>
	<line x1="365.68" y1="671.39" x2="330.29" y2="671.39" style="stroke:#000000;stroke-width:4.00"/>
	<text x="312.51" y="688.91" style="font-family:'Helvetica';font-size:49.99px;fill:#000000" text-anchor="end">45</text>
	<line x1="365.68" y1="372.76" x2="330.29" y2="372.76" style="stroke:#000000;stroke-width:4.00"/>
	<text x="312.51" y="390.28" style="font-family:'Helvetica';font-size:49.99px;fill:#000000" text-anchor="end">50</text>
	<line x1="365.68" y1="1865.82" x2="365.68" y2="253.35" style="stroke:#000000;stroke-width:4.00"/>
	<text x="136.21" y="1021.28" style="font-family:'Helvetica';font-size:60.03px;fill:#000000" transform="rotate(-90 136.21,1021.28)" text-anchor="middle">ISEI-88 (employed only)</text>
	<line x1="421.81" y1="1921.94" x2="421.81" y2="1957.33" style="stroke:#000000;stroke-width:4.00"/>
	<text x="421.81" y="2009.98" style="font-family:'Helvetica';font-size:49.99px;fill:#000000" text-anchor="middle">1976</text>
	<line x1="613.45" y1="1921.94" x2="613.45" y2="1957.33" style="stroke:#000000;stroke-width:4.00"/>
	<text x="613.45" y="2009.98" style="font-family:'Helvetica';font-size:49.99px;fill:#000000" text-anchor="middle">1980</text>
	<line x1="853.10" y1="1921.94" x2="853.10" y2="1957.33" style="stroke:#000000;stroke-width:4.00"/>
	<text x="853.10" y="2009.98" style="font-family:'Helvetica';font-size:49.99px;fill:#000000" text-anchor="middle">1985</text>
	<line x1="1092.74" y1="1921.94" x2="1092.74" y2="1957.33" style="stroke:#000000;stroke-width:4.00"/>
	<text x="1092.74" y="2009.98" style="font-family:'Helvetica';font-size:49.99px;fill:#000000" text-anchor="middle">1990</text>
	<line x1="1332.30" y1="1921.94" x2="1332.30" y2="1957.33" style="stroke:#000000;stroke-width:4.00"/>
	<text x="1332.30" y="2009.98" style="font-family:'Helvetica';font-size:49.99px;fill:#000000" text-anchor="middle">1995</text>
	<line x1="1571.94" y1="1921.94" x2="1571.94" y2="1957.33" style="stroke:#000000;stroke-width:4.00"/>
	<text x="1571.94" y="2009.98" style="font-family:'Helvetica';font-size:49.99px;fill:#000000" text-anchor="middle">2000</text>
	<line x1="1811.59" y1="1921.94" x2="1811.59" y2="1957.33" style="stroke:#000000;stroke-width:4.00"/>
	<text x="1811.59" y="2009.98" style="font-family:'Helvetica';font-size:49.99px;fill:#000000" text-anchor="middle">2005</text>
	<line x1="2051.15" y1="1921.94" x2="2051.15" y2="1957.33" style="stroke:#000000;stroke-width:4.00"/>
	<text x="2051.15" y="2009.98" style="font-family:'Helvetica';font-size:49.99px;fill:#000000" text-anchor="middle">2010</text>
	<line x1="2290.79" y1="1921.94" x2="2290.79" y2="1957.33" style="stroke:#000000;stroke-width:4.00"/>
	<text x="2290.79" y="2009.98" style="font-family:'Helvetica';font-size:49.99px;fill:#000000" text-anchor="middle">2015</text>
	<line x1="421.81" y1="1921.94" x2="2290.79" y2="1921.94" style="stroke:#000000;stroke-width:4.00"/>
	<text x="1318.03" y="2152.37" style="font-family:'Helvetica';font-size:60.03px;fill:#000000" text-anchor="middle">Year</text>
	<text x="145.41" y="2396.65" style="font-family:'Helvetica';font-size:60.03px;fill:#000000">Arr. cohort: </text>
	<text x="536.36" y="2396.65" style="font-family:'Helvetica';font-size:60.03px;fill:#000000">1964-73</text>
	<text x="845.12" y="2396.65" style="font-family:'Helvetica';font-size:60.03px;fill:#000000">1974-83</text>
	<text x="1153.89" y="2396.65" style="font-family:'Helvetica';font-size:60.03px;fill:#000000">1984-93</text>
	<text x="1462.65" y="2396.65" style="font-family:'Helvetica';font-size:60.03px;fill:#000000">1994-03</text>
	<text x="1771.41" y="2396.65" style="font-family:'Helvetica';font-size:60.03px;fill:#000000">2004-10</text>
	<text x="2080.17" y="2396.65" style="font-family:'Helvetica';font-size:60.03px;fill:#000000">German</text>
	<line x1="536.36" y1="2301.32" x2="737.26" y2="2301.32" style="stroke:#E69F00;stroke-width:10.00"/>
	<line x1="845.12" y1="2301.32" x2="1046.02" y2="2301.32" style="stroke:#56B4E9;stroke-width:10.00"/>
	<line x1="1153.89" y1="2301.32" x2="1354.78" y2="2301.32" style="stroke:#009E73;stroke-width:10.00"/>
	<line x1="1462.65" y1="2301.32" x2="1663.54" y2="2301.32" style="stroke:#D55E00;stroke-width:10.00"/>
	<line x1="1771.41" y1="2301.32" x2="1972.30" y2="2301.32" style="stroke:#CC79A7;stroke-width:10.00"/>
	<line x1="2080.17" y1="2301.32" x2="2131.19" y2="2301.32" style="stroke:#A0A0A0;stroke-width:10.00"/>
	<line x1="2156.70" y1="2301.32" x2="2207.72" y2="2301.32" style="stroke:#A0A0A0;stroke-width:10.00"/>
	<line x1="2233.23" y1="2301.32" x2="2278.03" y2="2301.32" style="stroke:#A0A0A0;stroke-width:10.00"/>
	<text x="1356.30" y="154.88" style="font-family:'Helvetica';font-size:90.01px;fill:#000000" text-anchor="middle">Women</text>
</svg>
