<?xml version="1.0" encoding="UTF-8" standalone="no"?>
<!-- This is a Stata 15.1 generated SVG file (http://www.stata.com) -->

<svg version="1.1" width="3.54in" height="3.54in" viewBox="0 0 2551 2551" xmlns="http://www.w3.org/2000/svg" xmlns:xlink="http://www.w3.org/1999/xlink">
	<desc>Stata Graph - Graph</desc>
	<rect x="0" y="0" width="2551" height="2551" style="fill:#FFFFFF;stroke:none"/>
	<rect x="0.00" y="0.08" width="2551.00" height="2550.92" style="fill:#FFFFFF"/>
	<rect x="2.55" y="2.63" width="2545.90" height="2545.82" style="fill:none;stroke:#FFFFFF;stroke-width:5.10"/>
	<line x1="365.68" y1="1865.82" x2="2346.91" y2="1865.82" style="stroke:#E8E8E8;stroke-width:4.00"/>
	<line x1="365.68" y1="1587.76" x2="2346.91" y2="1587.76" style="stroke:#E8E8E8;stroke-width:4.00"/>
	<line x1="365.68" y1="1309.70" x2="2346.91" y2="1309.70" style="stroke:#E8E8E8;stroke-width:4.00"/>
	<line x1="365.68" y1="1031.64" x2="2346.91" y2="1031.64" style="stroke:#E8E8E8;stroke-width:4.00"/>
	<line x1="365.68" y1="753.58" x2="2346.91" y2="753.58" style="stroke:#E8E8E8;stroke-width:4.00"/>
	<line x1="365.68" y1="475.52" x2="2346.91" y2="475.52" style="stroke:#E8E8E8;stroke-width:4.00"/>
	<line x1="421.81" y1="1921.94" x2="421.81" y2="308.19" style="stroke:#E8E8E8;stroke-width:4.00"/>
	<line x1="655.39" y1="1921.94" x2="655.39" y2="308.19" style="stroke:#E8E8E8;stroke-width:4.00"/>
	<line x1="889.05" y1="1921.94" x2="889.05" y2="308.19" style="stroke:#E8E8E8;stroke-width:4.00"/>
	<line x1="1122.71" y1="1921.94" x2="1122.71" y2="308.19" style="stroke:#E8E8E8;stroke-width:4.00"/>
	<line x1="1356.30" y1="1921.94" x2="1356.30" y2="308.19" style="stroke:#E8E8E8;stroke-width:4.00"/>
	<line x1="1589.96" y1="1921.94" x2="1589.96" y2="308.19" style="stroke:#E8E8E8;stroke-width:4.00"/>
	<line x1="1823.54" y1="1921.94" x2="1823.54" y2="308.19" style="stroke:#E8E8E8;stroke-width:4.00"/>
	<line x1="2057.21" y1="1921.94" x2="2057.21" y2="308.19" style="stroke:#E8E8E8;stroke-width:4.00"/>
	<line x1="2290.79" y1="1921.94" x2="2290.79" y2="308.19" style="stroke:#E8E8E8;stroke-width:4.00"/>
	<line x1="421.73" y1="1361.68" x2="515.24" y2="1375.07" stroke-linecap="round" style="stroke:#E69F00;stroke-width:10.00"/>
	<line x1="515.24" y1="1375.07" x2="608.67" y2="1408.95" stroke-linecap="round" style="stroke:#E69F00;stroke-width:10.00"/>
	<line x1="608.67" y1="1408.95" x2="702.10" y2="1363.83" stroke-linecap="round" style="stroke:#E69F00;stroke-width:10.00"/>
	<line x1="702.10" y1="1363.83" x2="842.25" y2="1390.85" stroke-linecap="round" style="stroke:#E69F00;stroke-width:10.00"/>
	<line x1="842.25" y1="1390.85" x2="935.77" y2="1359.05" stroke-linecap="round" style="stroke:#E69F00;stroke-width:10.00"/>
	<line x1="935.77" y1="1359.05" x2="1029.20" y2="1391.41" stroke-linecap="round" style="stroke:#E69F00;stroke-width:10.00"/>
	<line x1="1029.20" y1="1391.41" x2="1122.63" y2="1379.29" stroke-linecap="round" style="stroke:#E69F00;stroke-width:10.00"/>
	<line x1="1122.63" y1="1379.29" x2="1216.07" y2="1392.93" stroke-linecap="round" style="stroke:#E69F00;stroke-width:10.00"/>
	<line x1="1216.07" y1="1392.93" x2="1309.50" y2="1341.83" stroke-linecap="round" style="stroke:#E69F00;stroke-width:10.00"/>
	<line x1="1309.50" y1="1341.83" x2="1356.30" y2="1379.93" stroke-linecap="round" style="stroke:#E69F00;stroke-width:10.00"/>
	<line x1="1356.30" y1="1379.93" x2="1403.01" y2="1352.19" stroke-linecap="round" style="stroke:#E69F00;stroke-width:10.00"/>
	<line x1="1403.01" y1="1352.19" x2="1449.73" y2="1371.64" stroke-linecap="round" style="stroke:#E69F00;stroke-width:10.00"/>
	<line x1="1449.73" y1="1371.64" x2="1496.45" y2="1362.23" stroke-linecap="round" style="stroke:#E69F00;stroke-width:10.00"/>
	<line x1="1496.45" y1="1362.23" x2="1543.16" y2="1332.18" stroke-linecap="round" style="stroke:#E69F00;stroke-width:10.00"/>
	<line x1="1543.16" y1="1332.18" x2="1589.88" y2="1354.90" stroke-linecap="round" style="stroke:#E69F00;stroke-width:10.00"/>
	<line x1="1589.88" y1="1354.90" x2="1636.60" y2="1346.93" stroke-linecap="round" style="stroke:#E69F00;stroke-width:10.00"/>
	<line x1="1636.60" y1="1346.93" x2="1683.31" y2="1271.75" stroke-linecap="round" style="stroke:#E69F00;stroke-width:10.00"/>
	<line x1="842.25" y1="1056.83" x2="935.77" y2="1172.10" stroke-linecap="round" style="stroke:#56B4E9;stroke-width:10.00"/>
	<line x1="935.77" y1="1172.10" x2="1029.20" y2="1130.97" stroke-linecap="round" style="stroke:#56B4E9;stroke-width:10.00"/>
	<line x1="1029.20" y1="1130.97" x2="1122.63" y2="1066.96" stroke-linecap="round" style="stroke:#56B4E9;stroke-width:10.00"/>
	<line x1="1122.63" y1="1066.96" x2="1216.07" y2="1167.40" stroke-linecap="round" style="stroke:#56B4E9;stroke-width:10.00"/>
	<line x1="1216.07" y1="1167.40" x2="1309.50" y2="1141.09" stroke-linecap="round" style="stroke:#56B4E9;stroke-width:10.00"/>
	<line x1="1309.50" y1="1141.09" x2="1356.30" y2="1182.15" stroke-linecap="round" style="stroke:#56B4E9;stroke-width:10.00"/>
	<line x1="1356.30" y1="1182.15" x2="1403.01" y2="1184.22" stroke-linecap="round" style="stroke:#56B4E9;stroke-width:10.00"/>
	<line x1="1403.01" y1="1184.22" x2="1449.73" y2="1165.89" stroke-linecap="round" style="stroke:#56B4E9;stroke-width:10.00"/>
	<line x1="1449.73" y1="1165.89" x2="1496.45" y2="1100.20" stroke-linecap="round" style="stroke:#56B4E9;stroke-width:10.00"/>
	<line x1="1496.45" y1="1100.20" x2="1543.16" y2="1147.39" stroke-linecap="round" style="stroke:#56B4E9;stroke-width:10.00"/>
	<line x1="1543.16" y1="1147.39" x2="1589.88" y2="1132.72" stroke-linecap="round" style="stroke:#56B4E9;stroke-width:10.00"/>
	<line x1="1589.88" y1="1132.72" x2="1636.60" y2="1079.47" stroke-linecap="round" style="stroke:#56B4E9;stroke-width:10.00"/>
	<line x1="1636.60" y1="1079.47" x2="1683.31" y2="1112.00" stroke-linecap="round" style="stroke:#56B4E9;stroke-width:10.00"/>
	<line x1="1683.31" y1="1112.00" x2="1730.03" y2="1168.12" stroke-linecap="round" style="stroke:#56B4E9;stroke-width:10.00"/>
	<line x1="1730.03" y1="1168.12" x2="1776.75" y2="1049.42" stroke-linecap="round" style="stroke:#56B4E9;stroke-width:10.00"/>
	<line x1="1776.75" y1="1049.42" x2="1823.54" y2="1118.85" stroke-linecap="round" style="stroke:#56B4E9;stroke-width:10.00"/>
	<line x1="1823.54" y1="1118.85" x2="1870.26" y2="1096.77" stroke-linecap="round" style="stroke:#56B4E9;stroke-width:10.00"/>
	<line x1="1870.26" y1="1096.77" x2="1916.98" y2="1079.23" stroke-linecap="round" style="stroke:#56B4E9;stroke-width:10.00"/>
	<line x1="1916.98" y1="1079.23" x2="1963.69" y2="1149.15" stroke-linecap="round" style="stroke:#56B4E9;stroke-width:10.00"/>
	<line x1="1963.69" y1="1149.15" x2="2010.41" y2="1144.28" stroke-linecap="round" style="stroke:#56B4E9;stroke-width:10.00"/>
	<line x1="2010.41" y1="1144.28" x2="2057.13" y2="1095.73" stroke-linecap="round" style="stroke:#56B4E9;stroke-width:10.00"/>
	<line x1="2057.13" y1="1095.73" x2="2103.84" y2="1023.67" stroke-linecap="round" style="stroke:#56B4E9;stroke-width:10.00"/>
	<line x1="2103.84" y1="1023.67" x2="2150.56" y2="999.75" stroke-linecap="round" style="stroke:#56B4E9;stroke-width:10.00"/>
	<line x1="1309.50" y1="1144.04" x2="1309.50" y2="1144.04" stroke-linecap="round" style="stroke:#009E73;stroke-width:10.00"/>
	<line x1="1309.50" y1="1144.04" x2="1356.30" y2="1255.89" stroke-linecap="round" style="stroke:#009E73;stroke-width:10.00"/>
	<line x1="1356.30" y1="1255.89" x2="1403.01" y2="1245.37" stroke-linecap="round" style="stroke:#009E73;stroke-width:10.00"/>
	<line x1="1403.01" y1="1245.37" x2="1449.73" y2="1226.23" stroke-linecap="round" style="stroke:#009E73;stroke-width:10.00"/>
	<line x1="1449.73" y1="1226.23" x2="1496.45" y2="1242.50" stroke-linecap="round" style="stroke:#009E73;stroke-width:10.00"/>
	<line x1="1496.45" y1="1242.50" x2="1543.16" y2="1226.71" stroke-linecap="round" style="stroke:#009E73;stroke-width:10.00"/>
	<line x1="1543.16" y1="1226.71" x2="1589.88" y2="1237.47" stroke-linecap="round" style="stroke:#009E73;stroke-width:10.00"/>
	<line x1="1589.88" y1="1237.47" x2="1636.60" y2="1251.35" stroke-linecap="round" style="stroke:#009E73;stroke-width:10.00"/>
	<line x1="1636.60" y1="1251.35" x2="1683.31" y2="1257.32" stroke-linecap="round" style="stroke:#009E73;stroke-width:10.00"/>
	<line x1="1683.31" y1="1257.32" x2="1730.03" y2="1206.94" stroke-linecap="round" style="stroke:#009E73;stroke-width:10.00"/>
	<line x1="1730.03" y1="1206.94" x2="1776.75" y2="1110.48" stroke-linecap="round" style="stroke:#009E73;stroke-width:10.00"/>
	<line x1="1776.75" y1="1110.48" x2="1776.75" y2="1110.48" stroke-linecap="round" style="stroke:#009E73;stroke-width:10.00"/>
	<line x1="1776.75" y1="1110.48" x2="1823.54" y2="1184.46" stroke-linecap="round" style="stroke:#009E73;stroke-width:10.00"/>
	<line x1="1823.54" y1="1184.46" x2="1870.26" y2="1191.72" stroke-linecap="round" style="stroke:#009E73;stroke-width:10.00"/>
	<line x1="1870.26" y1="1191.72" x2="1870.26" y2="1191.72" stroke-linecap="round" style="stroke:#009E73;stroke-width:10.00"/>
	<line x1="1870.26" y1="1191.72" x2="1916.98" y2="1214.91" stroke-linecap="round" style="stroke:#009E73;stroke-width:10.00"/>
	<line x1="1916.98" y1="1214.91" x2="1963.69" y2="1193.71" stroke-linecap="round" style="stroke:#009E73;stroke-width:10.00"/>
	<line x1="1963.69" y1="1193.71" x2="2010.41" y2="1247.60" stroke-linecap="round" style="stroke:#009E73;stroke-width:10.00"/>
	<line x1="2010.41" y1="1247.60" x2="2057.13" y2="1222.65" stroke-linecap="round" style="stroke:#009E73;stroke-width:10.00"/>
	<line x1="2057.13" y1="1222.65" x2="2103.84" y2="1207.90" stroke-linecap="round" style="stroke:#009E73;stroke-width:10.00"/>
	<line x1="2103.84" y1="1207.90" x2="2150.56" y2="1222.09" stroke-linecap="round" style="stroke:#009E73;stroke-width:10.00"/>
	<line x1="2150.56" y1="1222.09" x2="2197.28" y2="1211.41" stroke-linecap="round" style="stroke:#009E73;stroke-width:10.00"/>
	<line x1="2197.28" y1="1211.41" x2="2243.99" y2="1199.77" stroke-linecap="round" style="stroke:#009E73;stroke-width:10.00"/>
	<line x1="1730.03" y1="1057.15" x2="1776.75" y2="961.49" stroke-linecap="round" style="stroke:#D55E00;stroke-width:10.00"/>
	<line x1="1776.75" y1="961.49" x2="1776.75" y2="961.49" stroke-linecap="round" style="stroke:#D55E00;stroke-width:10.00"/>
	<line x1="1776.75" y1="961.49" x2="1823.54" y2="1013.07" stroke-linecap="round" style="stroke:#D55E00;stroke-width:10.00"/>
	<line x1="1823.54" y1="1013.07" x2="1823.54" y2="1013.07" stroke-linecap="round" style="stroke:#D55E00;stroke-width:10.00"/>
	<line x1="1823.54" y1="1013.07" x2="1870.26" y2="1089.99" stroke-linecap="round" style="stroke:#D55E00;stroke-width:10.00"/>
	<line x1="1870.26" y1="1089.99" x2="1870.26" y2="1089.99" stroke-linecap="round" style="stroke:#D55E00;stroke-width:10.00"/>
	<line x1="1870.26" y1="1089.99" x2="1916.98" y2="1047.27" stroke-linecap="round" style="stroke:#D55E00;stroke-width:10.00"/>
	<line x1="1916.98" y1="1047.27" x2="1916.98" y2="1047.27" stroke-linecap="round" style="stroke:#D55E00;stroke-width:10.00"/>
	<line x1="1916.98" y1="1047.27" x2="1963.69" y2="1057.39" stroke-linecap="round" style="stroke:#D55E00;stroke-width:10.00"/>
	<line x1="1963.69" y1="1057.39" x2="1963.69" y2="1057.39" stroke-linecap="round" style="stroke:#D55E00;stroke-width:10.00"/>
	<line x1="1963.69" y1="1057.39" x2="2010.41" y2="1049.98" stroke-linecap="round" style="stroke:#D55E00;stroke-width:10.00"/>
	<line x1="2010.41" y1="1049.98" x2="2010.41" y2="1049.98" stroke-linecap="round" style="stroke:#D55E00;stroke-width:10.00"/>
	<line x1="2010.41" y1="1049.98" x2="2057.13" y2="1074.45" stroke-linecap="round" style="stroke:#D55E00;stroke-width:10.00"/>
	<line x1="2057.13" y1="1074.45" x2="2057.13" y2="1074.45" stroke-linecap="round" style="stroke:#D55E00;stroke-width:10.00"/>
	<line x1="2057.13" y1="1074.45" x2="2103.84" y2="1041.76" stroke-linecap="round" style="stroke:#D55E00;stroke-width:10.00"/>
	<line x1="2103.84" y1="1041.76" x2="2103.84" y2="1041.76" stroke-linecap="round" style="stroke:#D55E00;stroke-width:10.00"/>
	<line x1="2103.84" y1="1041.76" x2="2150.56" y2="1061.46" stroke-linecap="round" style="stroke:#D55E00;stroke-width:10.00"/>
	<line x1="2150.56" y1="1061.46" x2="2197.28" y2="1055.95" stroke-linecap="round" style="stroke:#D55E00;stroke-width:10.00"/>
	<line x1="2197.28" y1="1055.95" x2="2243.99" y2="1080.35" stroke-linecap="round" style="stroke:#D55E00;stroke-width:10.00"/>
	<line x1="2243.99" y1="1080.35" x2="2243.99" y2="1080.35" stroke-linecap="round" style="stroke:#D55E00;stroke-width:10.00"/>
	<line x1="2057.13" y1="824.21" x2="2057.13" y2="824.21" stroke-linecap="round" style="stroke:#CC79A7;stroke-width:10.00"/>
	<line x1="2057.13" y1="824.21" x2="2103.84" y2="832.02" stroke-linecap="round" style="stroke:#CC79A7;stroke-width:10.00"/>
	<line x1="2103.84" y1="832.02" x2="2150.56" y2="874.67" stroke-linecap="round" style="stroke:#CC79A7;stroke-width:10.00"/>
	<line x1="2150.56" y1="874.67" x2="2150.56" y2="874.67" stroke-linecap="round" style="stroke:#CC79A7;stroke-width:10.00"/>
	<line x1="2150.56" y1="874.67" x2="2197.28" y2="916.37" stroke-linecap="round" style="stroke:#CC79A7;stroke-width:10.00"/>
	<line x1="2197.28" y1="916.37" x2="2197.28" y2="916.37" stroke-linecap="round" style="stroke:#CC79A7;stroke-width:10.00"/>
	<line x1="2197.28" y1="916.37" x2="2243.99" y2="914.61" stroke-linecap="round" style="stroke:#CC79A7;stroke-width:10.00"/>
	<line x1="2243.99" y1="914.61" x2="2243.99" y2="914.61" stroke-linecap="round" style="stroke:#CC79A7;stroke-width:10.00"/>
	<line x1="421.73" y1="911.42" x2="472.43" y2="916.93" style="stroke:#A0A0A0;stroke-width:10.00"/>
	<line x1="497.78" y1="919.64" x2="515.24" y2="921.55" style="stroke:#A0A0A0;stroke-width:10.00"/>
	<line x1="515.24" y1="921.55" x2="548.56" y2="919.00" style="stroke:#A0A0A0;stroke-width:10.00"/>
	<line x1="573.99" y1="917.08" x2="608.67" y2="914.53" style="stroke:#A0A0A0;stroke-width:10.00"/>
	<line x1="608.67" y1="914.53" x2="623.66" y2="908.08" style="stroke:#A0A0A0;stroke-width:10.00"/>
	<line x1="647.10" y1="898.03" x2="693.97" y2="877.94" style="stroke:#A0A0A0;stroke-width:10.00"/>
	<line x1="718.05" y1="869.65" x2="766.92" y2="854.98" style="stroke:#A0A0A0;stroke-width:10.00"/>
	<line x1="791.39" y1="847.73" x2="840.26" y2="833.06" style="stroke:#A0A0A0;stroke-width:10.00"/>
	<line x1="865.37" y1="828.68" x2="915.68" y2="820.31" style="stroke:#A0A0A0;stroke-width:10.00"/>
	<line x1="940.87" y1="816.16" x2="991.25" y2="808.11" style="stroke:#A0A0A0;stroke-width:10.00"/>
	<line x1="1016.45" y1="804.04" x2="1029.20" y2="802.05" style="stroke:#A0A0A0;stroke-width:10.00"/>
	<line x1="1029.20" y1="802.05" x2="1066.99" y2="806.83" style="stroke:#A0A0A0;stroke-width:10.00"/>
	<line x1="1092.26" y1="810.10" x2="1122.63" y2="813.93" style="stroke:#A0A0A0;stroke-width:10.00"/>
	<line x1="1122.63" y1="813.93" x2="1140.97" y2="804.84" style="stroke:#A0A0A0;stroke-width:10.00"/>
	<line x1="1163.85" y1="793.52" x2="1209.61" y2="770.96" style="stroke:#A0A0A0;stroke-width:10.00"/>
	<line x1="1233.93" y1="763.79" x2="1283.75" y2="752.70" style="stroke:#A0A0A0;stroke-width:10.00"/>
	<line x1="1308.70" y1="747.20" x2="1309.50" y2="746.96" style="stroke:#A0A0A0;stroke-width:10.00"/>
	<line x1="1309.50" y1="746.96" x2="1356.30" y2="747.52" style="stroke:#A0A0A0;stroke-width:10.00"/>
	<line x1="1356.30" y1="747.52" x2="1359.57" y2="746.81" style="stroke:#A0A0A0;stroke-width:10.00"/>
	<line x1="1384.52" y1="741.30" x2="1403.01" y2="737.16" style="stroke:#A0A0A0;stroke-width:10.00"/>
	<line x1="1403.01" y1="737.16" x2="1434.98" y2="735.17" style="stroke:#A0A0A0;stroke-width:10.00"/>
	<line x1="1460.41" y1="735.49" x2="1496.45" y2="739.63" style="stroke:#A0A0A0;stroke-width:10.00"/>
	<line x1="1496.45" y1="739.63" x2="1511.20" y2="739.63" style="stroke:#A0A0A0;stroke-width:10.00"/>
	<line x1="1536.71" y1="739.63" x2="1543.16" y2="739.63" style="stroke:#A0A0A0;stroke-width:10.00"/>
	<line x1="1543.16" y1="739.63" x2="1587.09" y2="732.38" style="stroke:#A0A0A0;stroke-width:10.00"/>
	<line x1="1612.20" y1="727.51" x2="1636.60" y2="722.73" style="stroke:#A0A0A0;stroke-width:10.00"/>
	<line x1="1636.60" y1="722.73" x2="1662.27" y2="717.95" style="stroke:#A0A0A0;stroke-width:10.00"/>
	<line x1="1687.38" y1="714.04" x2="1730.03" y2="714.52" style="stroke:#A0A0A0;stroke-width:10.00"/>
	<line x1="1730.03" y1="714.52" x2="1737.44" y2="710.61" style="stroke:#A0A0A0;stroke-width:10.00"/>
	<line x1="1760.09" y1="698.81" x2="1776.75" y2="690.13" style="stroke:#A0A0A0;stroke-width:10.00"/>
	<line x1="1776.75" y1="690.13" x2="1808.95" y2="691.48" style="stroke:#A0A0A0;stroke-width:10.00"/>
	<line x1="1834.39" y1="692.92" x2="1870.26" y2="695.39" style="stroke:#A0A0A0;stroke-width:10.00"/>
	<line x1="1870.26" y1="695.39" x2="1885.25" y2="694.03" style="stroke:#A0A0A0;stroke-width:10.00"/>
	<line x1="1910.76" y1="691.80" x2="1916.98" y2="691.24" style="stroke:#A0A0A0;stroke-width:10.00"/>
	<line x1="1916.98" y1="691.24" x2="1958.43" y2="674.34" style="stroke:#A0A0A0;stroke-width:10.00"/>
	<line x1="1983.31" y1="669.80" x2="2010.41" y2="666.53" style="stroke:#A0A0A0;stroke-width:10.00"/>
	<line x1="2010.41" y1="666.53" x2="2032.33" y2="657.52" style="stroke:#A0A0A0;stroke-width:10.00"/>
	<line x1="2055.93" y1="647.79" x2="2057.13" y2="647.32" style="stroke:#A0A0A0;stroke-width:10.00"/>
	<line x1="2057.13" y1="647.32" x2="2103.84" y2="633.92" style="stroke:#A0A0A0;stroke-width:10.00"/>
	<line x1="2103.84" y1="633.92" x2="2104.96" y2="633.68" style="stroke:#A0A0A0;stroke-width:10.00"/>
	<line x1="2130.15" y1="629.54" x2="2150.56" y2="626.19" style="stroke:#A0A0A0;stroke-width:10.00"/>
	<line x1="2150.56" y1="626.19" x2="2180.85" y2="624.12" style="stroke:#A0A0A0;stroke-width:10.00"/>
	<line x1="2205.73" y1="619.81" x2="2243.99" y2="605.38" style="stroke:#A0A0A0;stroke-width:10.00"/>
	<line x1="1122.63" y1="926.89" x2="1139.77" y2="937.97" style="stroke:#A0A0A0;stroke-width:10.00"/>
	<line x1="1156.83" y1="949.05" x2="1158.99" y2="950.49" style="stroke:#A0A0A0;stroke-width:10.00"/>
	<line x1="1176.13" y1="961.57" x2="1193.27" y2="972.73" style="stroke:#A0A0A0;stroke-width:10.00"/>
	<line x1="1210.33" y1="983.81" x2="1212.48" y2="985.16" style="stroke:#A0A0A0;stroke-width:10.00"/>
	<line x1="1232.01" y1="990.19" x2="1252.10" y2="993.61" style="stroke:#A0A0A0;stroke-width:10.00"/>
	<line x1="1272.27" y1="996.96" x2="1274.74" y2="997.44" style="stroke:#A0A0A0;stroke-width:10.00"/>
	<line x1="1294.91" y1="1000.71" x2="1309.50" y2="1003.18" style="stroke:#A0A0A0;stroke-width:10.00"/>
	<line x1="1309.50" y1="1003.18" x2="1313.73" y2="1006.85" style="stroke:#A0A0A0;stroke-width:10.00"/>
	<line x1="1329.11" y1="1020.32" x2="1331.03" y2="1021.99" style="stroke:#A0A0A0;stroke-width:10.00"/>
	<line x1="1346.41" y1="1035.39" x2="1356.30" y2="1044.08" style="stroke:#A0A0A0;stroke-width:10.00"/>
	<line x1="1356.30" y1="1044.08" x2="1362.83" y2="1040.81" style="stroke:#A0A0A0;stroke-width:10.00"/>
	<line x1="1381.09" y1="1031.80" x2="1383.32" y2="1030.60" style="stroke:#A0A0A0;stroke-width:10.00"/>
	<line x1="1401.66" y1="1021.52" x2="1403.01" y2="1020.88" style="stroke:#A0A0A0;stroke-width:10.00"/>
	<line x1="1403.01" y1="1020.88" x2="1421.43" y2="1016.97" style="stroke:#A0A0A0;stroke-width:10.00"/>
	<line x1="1441.44" y1="1012.67" x2="1443.91" y2="1012.11" style="stroke:#A0A0A0;stroke-width:10.00"/>
	<line x1="1464.00" y1="1008.20" x2="1484.01" y2="1004.46" style="stroke:#A0A0A0;stroke-width:10.00"/>
	<line x1="1504.26" y1="1001.91" x2="1506.81" y2="1001.83" style="stroke:#A0A0A0;stroke-width:10.00"/>
	<line x1="1527.14" y1="1001.19" x2="1543.16" y2="1000.63" style="stroke:#A0A0A0;stroke-width:10.00"/>
	<line x1="1543.16" y1="1000.63" x2="1547.07" y2="998.64" style="stroke:#A0A0A0;stroke-width:10.00"/>
	<line x1="1565.25" y1="989.31" x2="1567.48" y2="988.11" style="stroke:#A0A0A0;stroke-width:10.00"/>
	<line x1="1585.66" y1="978.71" x2="1589.88" y2="976.55" style="stroke:#A0A0A0;stroke-width:10.00"/>
	<line x1="1589.88" y1="976.55" x2="1605.43" y2="974.80" style="stroke:#A0A0A0;stroke-width:10.00"/>
	<line x1="1625.68" y1="972.49" x2="1628.23" y2="972.17" style="stroke:#A0A0A0;stroke-width:10.00"/>
	<line x1="1648.32" y1="968.50" x2="1668.17" y2="963.88" style="stroke:#A0A0A0;stroke-width:10.00"/>
	<line x1="1688.02" y1="959.18" x2="1690.49" y2="958.54" style="stroke:#A0A0A0;stroke-width:10.00"/>
	<line x1="1710.26" y1="953.68" x2="1730.03" y2="948.73" style="stroke:#A0A0A0;stroke-width:10.00"/>
	<line x1="1730.03" y1="948.73" x2="1730.11" y2="948.73" style="stroke:#A0A0A0;stroke-width:10.00"/>
	<line x1="1748.05" y1="939.01" x2="1750.28" y2="937.81" style="stroke:#A0A0A0;stroke-width:10.00"/>
	<line x1="1768.30" y1="928.25" x2="1776.75" y2="923.70" style="stroke:#A0A0A0;stroke-width:10.00"/>
	<line x1="1776.75" y1="923.70" x2="1786.31" y2="928.80" style="stroke:#A0A0A0;stroke-width:10.00"/>
	<line x1="1804.33" y1="938.45" x2="1806.56" y2="939.64" style="stroke:#A0A0A0;stroke-width:10.00"/>
	<line x1="1824.66" y1="948.89" x2="1844.91" y2="951.76" style="stroke:#A0A0A0;stroke-width:10.00"/>
	<line x1="1865.08" y1="954.63" x2="1867.63" y2="954.95" style="stroke:#A0A0A0;stroke-width:10.00"/>
	<line x1="1887.64" y1="959.18" x2="1907.49" y2="963.72" style="stroke:#A0A0A0;stroke-width:10.00"/>
	<line x1="1926.86" y1="961.73" x2="1929.25" y2="960.77" style="stroke:#A0A0A0;stroke-width:10.00"/>
	<line x1="1948.15" y1="953.04" x2="1963.69" y2="946.66" style="stroke:#A0A0A0;stroke-width:10.00"/>
	<line x1="1963.69" y1="946.66" x2="1967.20" y2="947.06" style="stroke:#A0A0A0;stroke-width:10.00"/>
	<line x1="1987.53" y1="949.29" x2="1990.08" y2="949.53" style="stroke:#A0A0A0;stroke-width:10.00"/>
	<line x1="2010.33" y1="951.84" x2="2010.41" y2="951.84" style="stroke:#A0A0A0;stroke-width:10.00"/>
	<line x1="2010.41" y1="951.84" x2="2030.10" y2="946.58" style="stroke:#A0A0A0;stroke-width:10.00"/>
	<line x1="2049.79" y1="941.40" x2="2052.26" y2="940.76" style="stroke:#A0A0A0;stroke-width:10.00"/>
	<line x1="2071.80" y1="934.70" x2="2091.25" y2="928.48" style="stroke:#A0A0A0;stroke-width:10.00"/>
	<line x1="2109.42" y1="919.87" x2="2111.42" y2="918.36" style="stroke:#A0A0A0;stroke-width:10.00"/>
	<line x1="2127.44" y1="905.61" x2="2143.39" y2="892.93" style="stroke:#A0A0A0;stroke-width:10.00"/>
	<line x1="2161.80" y1="887.67" x2="2164.35" y2="887.75" style="stroke:#A0A0A0;stroke-width:10.00"/>
	<line x1="2184.68" y1="888.62" x2="2197.28" y2="889.18" style="stroke:#A0A0A0;stroke-width:10.00"/>
	<line x1="2197.28" y1="889.18" x2="2204.61" y2="886.39" style="stroke:#A0A0A0;stroke-width:10.00"/>
	<line x1="2223.66" y1="879.06" x2="2226.06" y2="878.18" style="stroke:#A0A0A0;stroke-width:10.00"/>
	<line x1="365.68" y1="1865.82" x2="330.29" y2="1865.82" style="stroke:#000000;stroke-width:4.00"/>
	<text x="312.51" y="1883.33" style="font-family:'Helvetica';font-size:49.99px;fill:#000000" text-anchor="end">25</text>
	<line x1="365.68" y1="1587.76" x2="330.29" y2="1587.76" style="stroke:#000000;stroke-width:4.00"/>
	<text x="312.51" y="1605.27" style="font-family:'Helvetica';font-size:49.99px;fill:#000000" text-anchor="end">30</text>
	<line x1="365.68" y1="1309.70" x2="330.29" y2="1309.70" style="stroke:#000000;stroke-width:4.00"/>
	<text x="312.51" y="1327.21" style="font-family:'Helvetica';font-size:49.99px;fill:#000000" text-anchor="end">35</text>
	<line x1="365.68" y1="1031.64" x2="330.29" y2="1031.64" style="stroke:#000000;stroke-width:4.00"/>
	<text x="312.51" y="1049.15" style="font-family:'Helvetica';font-size:49.99px;fill:#000000" text-anchor="end">40</text>
	<line x1="365.68" y1="753.58" x2="330.29" y2="753.58" style="stroke:#000000;stroke-width:4.00"/>
	<text x="312.51" y="771.10" style="font-family:'Helvetica';font-size:49.99px;fill:#000000" text-anchor="end">45</text>
	<line x1="365.68" y1="475.52" x2="330.29" y2="475.52" style="stroke:#000000;stroke-width:4.00"/>
	<text x="312.51" y="493.04" style="font-family:'Helvetica';font-size:49.99px;fill:#000000" text-anchor="end">50</text>
	<line x1="365.68" y1="1865.82" x2="365.68" y2="364.31" style="stroke:#000000;stroke-width:4.00"/>
	<text x="136.21" y="1076.84" style="font-family:'Helvetica';font-size:60.03px;fill:#000000" transform="rotate(-90 136.21,1076.84)" text-anchor="middle">ISEI-88, employed only</text>
	<line x1="421.81" y1="1921.94" x2="421.81" y2="1957.33" style="stroke:#000000;stroke-width:4.00"/>
	<text x="421.81" y="2009.98" style="font-family:'Helvetica';font-size:49.99px;fill:#000000" text-anchor="middle">1976</text>
	<line x1="655.39" y1="1921.94" x2="655.39" y2="1957.33" style="stroke:#000000;stroke-width:4.00"/>
	<text x="655.39" y="2009.98" style="font-family:'Helvetica';font-size:49.99px;fill:#000000" text-anchor="middle">1981</text>
	<line x1="889.05" y1="1921.94" x2="889.05" y2="1957.33" style="stroke:#000000;stroke-width:4.00"/>
	<text x="889.05" y="2009.98" style="font-family:'Helvetica';font-size:49.99px;fill:#000000" text-anchor="middle">1986</text>
	<line x1="1122.71" y1="1921.94" x2="1122.71" y2="1957.33" style="stroke:#000000;stroke-width:4.00"/>
	<text x="1122.71" y="2009.98" style="font-family:'Helvetica';font-size:49.99px;fill:#000000" text-anchor="middle">1991</text>
	<line x1="1356.30" y1="1921.94" x2="1356.30" y2="1957.33" style="stroke:#000000;stroke-width:4.00"/>
	<text x="1356.30" y="2009.98" style="font-family:'Helvetica';font-size:49.99px;fill:#000000" text-anchor="middle">1996</text>
	<line x1="1589.96" y1="1921.94" x2="1589.96" y2="1957.33" style="stroke:#000000;stroke-width:4.00"/>
	<text x="1589.96" y="2009.98" style="font-family:'Helvetica';font-size:49.99px;fill:#000000" text-anchor="middle">2001</text>
	<line x1="1823.54" y1="1921.94" x2="1823.54" y2="1957.33" style="stroke:#000000;stroke-width:4.00"/>
	<text x="1823.54" y="2009.98" style="font-family:'Helvetica';font-size:49.99px;fill:#000000" text-anchor="middle">2006</text>
	<line x1="2057.21" y1="1921.94" x2="2057.21" y2="1957.33" style="stroke:#000000;stroke-width:4.00"/>
	<text x="2057.21" y="2009.98" style="font-family:'Helvetica';font-size:49.99px;fill:#000000" text-anchor="middle">2011</text>
	<line x1="2290.79" y1="1921.94" x2="2290.79" y2="1957.33" style="stroke:#000000;stroke-width:4.00"/>
	<text x="2290.79" y="2009.98" style="font-family:'Helvetica';font-size:49.99px;fill:#000000" text-anchor="middle">2016</text>
	<line x1="421.81" y1="1921.94" x2="2290.79" y2="1921.94" style="stroke:#000000;stroke-width:4.00"/>
	<text x="1318.03" y="2152.37" style="font-family:'Helvetica';font-size:60.03px;fill:#000000" text-anchor="middle">Year</text>
	<text x="145.41" y="2396.65" style="font-family:'Helvetica';font-size:60.03px;fill:#000000">Arr. cohort: </text>
	<text x="487.81" y="2396.65" style="font-family:'Helvetica';font-size:60.03px;fill:#000000">1964-73</text>
	<text x="758.23" y="2396.65" style="font-family:'Helvetica';font-size:60.03px;fill:#000000">1974-83</text>
	<text x="1028.72" y="2396.65" style="font-family:'Helvetica';font-size:60.03px;fill:#000000">1984-93</text>
	<text x="1299.14" y="2396.65" style="font-family:'Helvetica';font-size:60.03px;fill:#000000">1994-03</text>
	<text x="1569.55" y="2396.65" style="font-family:'Helvetica';font-size:60.03px;fill:#000000">2004-10</text>
	<text x="1840.05" y="2396.65" style="font-family:'Helvetica';font-size:60.03px;fill:#000000">West G.</text>
	<text x="2110.46" y="2396.65" style="font-family:'Helvetica';font-size:60.03px;fill:#000000">East G.</text>
	<line x1="487.81" y1="2301.32" x2="663.76" y2="2301.32" style="stroke:#E69F00;stroke-width:10.00"/>
	<line x1="758.23" y1="2301.32" x2="934.25" y2="2301.32" style="stroke:#56B4E9;stroke-width:10.00"/>
	<line x1="1028.72" y1="2301.32" x2="1204.67" y2="2301.32" style="stroke:#009E73;stroke-width:10.00"/>
	<line x1="1299.14" y1="2301.32" x2="1475.08" y2="2301.32" style="stroke:#D55E00;stroke-width:10.00"/>
	<line x1="1569.55" y1="2301.32" x2="1745.58" y2="2301.32" style="stroke:#CC79A7;stroke-width:10.00"/>
	<line x1="1840.05" y1="2301.32" x2="1891.07" y2="2301.32" style="stroke:#A0A0A0;stroke-width:10.00"/>
	<line x1="1916.58" y1="2301.32" x2="1967.60" y2="2301.32" style="stroke:#A0A0A0;stroke-width:10.00"/>
	<line x1="1993.11" y1="2301.32" x2="2015.99" y2="2301.32" style="stroke:#A0A0A0;stroke-width:10.00"/>
	<line x1="2110.46" y1="2301.32" x2="2130.87" y2="2301.32" style="stroke:#A0A0A0;stroke-width:10.00"/>
	<line x1="2151.28" y1="2301.32" x2="2153.83" y2="2301.32" style="stroke:#A0A0A0;stroke-width:10.00"/>
	<line x1="2174.24" y1="2301.32" x2="2194.65" y2="2301.32" style="stroke:#A0A0A0;stroke-width:10.00"/>
	<line x1="2215.05" y1="2301.32" x2="2217.61" y2="2301.32" style="stroke:#A0A0A0;stroke-width:10.00"/>
	<line x1="2238.01" y1="2301.32" x2="2258.42" y2="2301.32" style="stroke:#A0A0A0;stroke-width:10.00"/>
	<text x="1356.30" y="239.12" style="font-family:'Helvetica';font-size:60.03px;fill:#000000" text-anchor="middle">Means, including East Germany</text>
	<text x="1356.30" y="154.88" style="font-family:'Helvetica';font-size:90.01px;fill:#000000" text-anchor="middle">ISEI-88, employed only, Men</text>
</svg>
