<?xml version="1.0" encoding="UTF-8" standalone="no"?>
<!-- This is a Stata 15.1 generated SVG file (http://www.stata.com) -->

<svg version="1.1" width="3.54in" height="3.54in" viewBox="0 0 2551 2551" xmlns="http://www.w3.org/2000/svg" xmlns:xlink="http://www.w3.org/1999/xlink">
	<desc>Stata Graph - Graph</desc>
	<rect x="0" y="0" width="2551" height="2551" style="fill:#FFFFFF;stroke:none"/>
	<rect x="0.00" y="0.08" width="2551.00" height="2550.92" style="fill:#FFFFFF"/>
	<rect x="2.55" y="2.63" width="2545.90" height="2545.82" style="fill:none;stroke:#FFFFFF;stroke-width:5.10"/>
	<line x1="365.68" y1="1717.22" x2="2346.91" y2="1717.22" style="stroke:#E8E8E8;stroke-width:4.00"/>
	<line x1="365.68" y1="1446.18" x2="2346.91" y2="1446.18" style="stroke:#E8E8E8;stroke-width:4.00"/>
	<line x1="365.68" y1="1175.05" x2="2346.91" y2="1175.05" style="stroke:#E8E8E8;stroke-width:4.00"/>
	<line x1="365.68" y1="903.93" x2="2346.91" y2="903.93" style="stroke:#E8E8E8;stroke-width:4.00"/>
	<line x1="365.68" y1="632.89" x2="2346.91" y2="632.89" style="stroke:#E8E8E8;stroke-width:4.00"/>
	<line x1="365.68" y1="361.76" x2="2346.91" y2="361.76" style="stroke:#E8E8E8;stroke-width:4.00"/>
	<line x1="421.81" y1="1773.34" x2="421.81" y2="197.22" style="stroke:#E8E8E8;stroke-width:4.00"/>
	<line x1="889.05" y1="1773.34" x2="889.05" y2="197.22" style="stroke:#E8E8E8;stroke-width:4.00"/>
	<line x1="1356.30" y1="1773.34" x2="1356.30" y2="197.22" style="stroke:#E8E8E8;stroke-width:4.00"/>
	<line x1="1823.54" y1="1773.34" x2="1823.54" y2="197.22" style="stroke:#E8E8E8;stroke-width:4.00"/>
	<line x1="2290.79" y1="1773.34" x2="2290.79" y2="197.22" style="stroke:#E8E8E8;stroke-width:4.00"/>
	<line x1="421.73" y1="1028.13" x2="655.39" y2="1084.02" stroke-linecap="round" style="stroke:#56B4E9;stroke-width:10.00"/>
	<line x1="655.39" y1="1084.02" x2="889.05" y2="1108.57" stroke-linecap="round" style="stroke:#56B4E9;stroke-width:10.00"/>
	<line x1="889.05" y1="1108.57" x2="1122.63" y2="1043.52" stroke-linecap="round" style="stroke:#56B4E9;stroke-width:10.00"/>
	<line x1="1122.63" y1="1043.52" x2="1356.30" y2="1121.01" stroke-linecap="round" style="stroke:#56B4E9;stroke-width:10.00"/>
	<line x1="1356.30" y1="1121.01" x2="1589.88" y2="1175.45" stroke-linecap="round" style="stroke:#56B4E9;stroke-width:10.00"/>
	<line x1="421.73" y1="848.61" x2="421.73" y2="848.61" style="stroke:#56B4E9;stroke-width:10.00"/>
	<line x1="421.73" y1="848.61" x2="421.73" y2="848.61" style="stroke:#56B4E9;stroke-width:10.00"/>
	<line x1="421.73" y1="848.61" x2="421.73" y2="848.61" style="stroke:#56B4E9;stroke-width:10.00"/>
	<line x1="421.73" y1="848.61" x2="440.78" y2="855.86" style="stroke:#56B4E9;stroke-width:10.00"/>
	<line x1="457.44" y1="862.24" x2="476.57" y2="869.49" style="stroke:#56B4E9;stroke-width:10.00"/>
	<line x1="493.24" y1="875.87" x2="512.29" y2="883.12" style="stroke:#56B4E9;stroke-width:10.00"/>
	<line x1="528.95" y1="889.50" x2="548.08" y2="896.76" style="stroke:#56B4E9;stroke-width:10.00"/>
	<line x1="564.75" y1="903.05" x2="583.80" y2="910.39" style="stroke:#56B4E9;stroke-width:10.00"/>
	<line x1="600.46" y1="916.69" x2="619.59" y2="923.94" style="stroke:#56B4E9;stroke-width:10.00"/>
	<line x1="636.26" y1="930.32" x2="655.31" y2="937.57" style="stroke:#56B4E9;stroke-width:10.00"/>
	<line x1="673.17" y1="938.69" x2="693.50" y2="939.96" style="stroke:#56B4E9;stroke-width:10.00"/>
	<line x1="711.35" y1="941.08" x2="731.68" y2="942.36" style="stroke:#56B4E9;stroke-width:10.00"/>
	<line x1="749.54" y1="943.47" x2="769.87" y2="944.75" style="stroke:#56B4E9;stroke-width:10.00"/>
	<line x1="787.73" y1="945.86" x2="808.05" y2="947.14" style="stroke:#56B4E9;stroke-width:10.00"/>
	<line x1="825.91" y1="948.25" x2="846.24" y2="949.53" style="stroke:#56B4E9;stroke-width:10.00"/>
	<line x1="864.10" y1="950.65" x2="884.43" y2="951.92" style="stroke:#56B4E9;stroke-width:10.00"/>
	<line x1="901.89" y1="948.81" x2="921.58" y2="943.55" style="stroke:#56B4E9;stroke-width:10.00"/>
	<line x1="938.80" y1="938.93" x2="958.57" y2="933.67" style="stroke:#56B4E9;stroke-width:10.00"/>
	<line x1="975.79" y1="929.12" x2="995.48" y2="923.86" style="stroke:#56B4E9;stroke-width:10.00"/>
	<line x1="1012.78" y1="919.24" x2="1032.47" y2="913.98" style="stroke:#56B4E9;stroke-width:10.00"/>
	<line x1="1049.77" y1="909.43" x2="1069.46" y2="904.17" style="stroke:#56B4E9;stroke-width:10.00"/>
	<line x1="1086.68" y1="899.55" x2="1106.37" y2="894.28" style="stroke:#56B4E9;stroke-width:10.00"/>
	<line x1="1123.51" y1="890.38" x2="1141.45" y2="900.18" style="stroke:#56B4E9;stroke-width:10.00"/>
	<line x1="1157.15" y1="908.71" x2="1175.09" y2="918.44" style="stroke:#56B4E9;stroke-width:10.00"/>
	<line x1="1190.72" y1="927.05" x2="1208.65" y2="936.78" style="stroke:#56B4E9;stroke-width:10.00"/>
	<line x1="1224.36" y1="945.38" x2="1242.30" y2="955.11" style="stroke:#56B4E9;stroke-width:10.00"/>
	<line x1="1257.92" y1="963.72" x2="1275.86" y2="973.45" style="stroke:#56B4E9;stroke-width:10.00"/>
	<line x1="1291.48" y1="982.06" x2="1309.42" y2="991.78" style="stroke:#56B4E9;stroke-width:10.00"/>
	<line x1="1325.13" y1="1000.31" x2="1343.06" y2="1010.12" style="stroke:#56B4E9;stroke-width:10.00"/>
	<line x1="1359.09" y1="1017.13" x2="1379.50" y2="1015.62" style="stroke:#56B4E9;stroke-width:10.00"/>
	<line x1="1397.27" y1="1014.26" x2="1417.68" y2="1012.75" style="stroke:#56B4E9;stroke-width:10.00"/>
	<line x1="1435.46" y1="1011.47" x2="1455.87" y2="1009.96" style="stroke:#56B4E9;stroke-width:10.00"/>
	<line x1="1473.65" y1="1008.60" x2="1494.06" y2="1007.09" style="stroke:#56B4E9;stroke-width:10.00"/>
	<line x1="1511.83" y1="1005.73" x2="1532.24" y2="1004.30" style="stroke:#56B4E9;stroke-width:10.00"/>
	<line x1="1550.02" y1="1002.94" x2="1570.35" y2="1001.43" style="stroke:#56B4E9;stroke-width:10.00"/>
	<line x1="1588.21" y1="1000.07" x2="1589.88" y2="999.99" style="stroke:#56B4E9;stroke-width:10.00"/>
	<line x1="1589.88" y1="999.99" x2="1589.88" y2="999.99" style="stroke:#56B4E9;stroke-width:10.00"/>
	<line x1="1589.88" y1="999.99" x2="1589.88" y2="999.99" style="stroke:#56B4E9;stroke-width:10.00"/>
	<line x1="1589.88" y1="999.99" x2="1589.88" y2="999.99" style="stroke:#56B4E9;stroke-width:10.00"/>
	<line x1="1589.88" y1="999.99" x2="1608.46" y2="997.92" style="stroke:#56B4E9;stroke-width:10.00"/>
	<line x1="1626.23" y1="995.93" x2="1646.48" y2="993.61" style="stroke:#56B4E9;stroke-width:10.00"/>
	<line x1="1664.26" y1="991.62" x2="1684.51" y2="989.39" style="stroke:#56B4E9;stroke-width:10.00"/>
	<line x1="1702.29" y1="987.32" x2="1722.54" y2="985.00" style="stroke:#56B4E9;stroke-width:10.00"/>
	<line x1="1740.31" y1="983.01" x2="1760.56" y2="980.78" style="stroke:#56B4E9;stroke-width:10.00"/>
	<line x1="1778.34" y1="978.79" x2="1798.59" y2="976.47" style="stroke:#56B4E9;stroke-width:10.00"/>
	<line x1="1816.37" y1="974.48" x2="1823.54" y2="973.61" style="stroke:#56B4E9;stroke-width:10.00"/>
	<line x1="1823.54" y1="973.61" x2="1823.54" y2="973.61" style="stroke:#56B4E9;stroke-width:10.00"/>
	<line x1="1823.54" y1="973.61" x2="1823.54" y2="973.61" style="stroke:#56B4E9;stroke-width:10.00"/>
	<line x1="1823.54" y1="973.61" x2="1823.54" y2="973.61" style="stroke:#56B4E9;stroke-width:10.00"/>
	<line x1="421.73" y1="1115.42" x2="655.39" y2="1139.90" stroke-linecap="round" style="stroke:#009E73;stroke-width:10.00"/>
	<line x1="655.39" y1="1139.90" x2="889.05" y2="1120.13" stroke-linecap="round" style="stroke:#009E73;stroke-width:10.00"/>
	<line x1="889.05" y1="1120.13" x2="1122.63" y2="1110.40" stroke-linecap="round" style="stroke:#009E73;stroke-width:10.00"/>
	<line x1="1122.63" y1="1110.40" x2="1356.30" y2="1180.71" stroke-linecap="round" style="stroke:#009E73;stroke-width:10.00"/>
	<line x1="1356.30" y1="1180.71" x2="1589.88" y2="1129.38" stroke-linecap="round" style="stroke:#009E73;stroke-width:10.00"/>
	<line x1="1589.88" y1="1129.38" x2="1823.54" y2="1179.84" stroke-linecap="round" style="stroke:#009E73;stroke-width:10.00"/>
	<line x1="1823.54" y1="1179.84" x2="2057.13" y2="1182.55" stroke-linecap="round" style="stroke:#009E73;stroke-width:10.00"/>
	<line x1="2057.13" y1="1182.55" x2="2290.79" y2="1240.90" stroke-linecap="round" style="stroke:#009E73;stroke-width:10.00"/>
	<line x1="421.73" y1="1064.72" x2="421.73" y2="1064.72" style="stroke:#009E73;stroke-width:10.00"/>
	<line x1="421.73" y1="1064.72" x2="421.73" y2="1064.72" style="stroke:#009E73;stroke-width:10.00"/>
	<line x1="421.73" y1="1064.72" x2="421.73" y2="1064.72" style="stroke:#009E73;stroke-width:10.00"/>
	<line x1="421.73" y1="1064.72" x2="442.05" y2="1065.76" style="stroke:#009E73;stroke-width:10.00"/>
	<line x1="459.91" y1="1066.56" x2="480.24" y2="1067.59" style="stroke:#009E73;stroke-width:10.00"/>
	<line x1="498.10" y1="1068.47" x2="518.43" y2="1069.51" style="stroke:#009E73;stroke-width:10.00"/>
	<line x1="536.28" y1="1070.38" x2="556.61" y2="1071.34" style="stroke:#009E73;stroke-width:10.00"/>
	<line x1="574.47" y1="1072.22" x2="594.80" y2="1073.25" style="stroke:#009E73;stroke-width:10.00"/>
	<line x1="612.66" y1="1074.05" x2="633.07" y2="1075.09" style="stroke:#009E73;stroke-width:10.00"/>
	<line x1="650.84" y1="1075.96" x2="655.39" y2="1076.20" style="stroke:#009E73;stroke-width:10.00"/>
	<line x1="655.39" y1="1076.20" x2="655.39" y2="1076.20" style="stroke:#009E73;stroke-width:10.00"/>
	<line x1="655.39" y1="1076.20" x2="655.39" y2="1076.20" style="stroke:#009E73;stroke-width:10.00"/>
	<line x1="655.39" y1="1076.20" x2="655.39" y2="1076.20" style="stroke:#009E73;stroke-width:10.00"/>
	<line x1="655.39" y1="1076.20" x2="671.09" y2="1073.65" style="stroke:#009E73;stroke-width:10.00"/>
	<line x1="688.71" y1="1070.78" x2="708.88" y2="1067.51" style="stroke:#009E73;stroke-width:10.00"/>
	<line x1="726.50" y1="1064.64" x2="746.59" y2="1061.30" style="stroke:#009E73;stroke-width:10.00"/>
	<line x1="764.21" y1="1058.51" x2="784.38" y2="1055.16" style="stroke:#009E73;stroke-width:10.00"/>
	<line x1="802.00" y1="1052.29" x2="822.09" y2="1048.94" style="stroke:#009E73;stroke-width:10.00"/>
	<line x1="839.70" y1="1046.07" x2="859.87" y2="1042.80" style="stroke:#009E73;stroke-width:10.00"/>
	<line x1="877.49" y1="1039.93" x2="889.05" y2="1038.02" style="stroke:#009E73;stroke-width:10.00"/>
	<line x1="889.05" y1="1038.02" x2="889.05" y2="1038.02" style="stroke:#009E73;stroke-width:10.00"/>
	<line x1="889.05" y1="1038.02" x2="889.05" y2="1038.02" style="stroke:#009E73;stroke-width:10.00"/>
	<line x1="889.05" y1="1038.02" x2="889.05" y2="1038.02" style="stroke:#009E73;stroke-width:10.00"/>
	<line x1="889.05" y1="1038.02" x2="897.74" y2="1038.50" style="stroke:#009E73;stroke-width:10.00"/>
	<line x1="915.60" y1="1039.53" x2="935.93" y2="1040.73" style="stroke:#009E73;stroke-width:10.00"/>
	<line x1="953.78" y1="1041.76" x2="974.11" y2="1042.96" style="stroke:#009E73;stroke-width:10.00"/>
	<line x1="991.97" y1="1043.92" x2="1012.30" y2="1045.11" style="stroke:#009E73;stroke-width:10.00"/>
	<line x1="1030.16" y1="1046.15" x2="1050.49" y2="1047.34" style="stroke:#009E73;stroke-width:10.00"/>
	<line x1="1068.34" y1="1048.38" x2="1088.67" y2="1049.50" style="stroke:#009E73;stroke-width:10.00"/>
	<line x1="1106.53" y1="1050.53" x2="1122.63" y2="1051.41" style="stroke:#009E73;stroke-width:10.00"/>
	<line x1="1122.63" y1="1051.41" x2="1122.63" y2="1051.41" style="stroke:#009E73;stroke-width:10.00"/>
	<line x1="1122.63" y1="1051.41" x2="1122.63" y2="1051.41" style="stroke:#009E73;stroke-width:10.00"/>
	<line x1="1122.63" y1="1051.41" x2="1122.63" y2="1051.41" style="stroke:#009E73;stroke-width:10.00"/>
	<line x1="1122.63" y1="1051.41" x2="1126.86" y2="1051.97" style="stroke:#009E73;stroke-width:10.00"/>
	<line x1="1144.56" y1="1054.20" x2="1164.81" y2="1056.75" style="stroke:#009E73;stroke-width:10.00"/>
	<line x1="1182.51" y1="1058.98" x2="1202.75" y2="1061.61" style="stroke:#009E73;stroke-width:10.00"/>
	<line x1="1220.45" y1="1063.85" x2="1240.70" y2="1066.40" style="stroke:#009E73;stroke-width:10.00"/>
	<line x1="1258.40" y1="1068.71" x2="1278.65" y2="1071.26" style="stroke:#009E73;stroke-width:10.00"/>
	<line x1="1296.35" y1="1073.49" x2="1316.60" y2="1076.12" style="stroke:#009E73;stroke-width:10.00"/>
	<line x1="1334.29" y1="1078.36" x2="1354.54" y2="1080.91" style="stroke:#009E73;stroke-width:10.00"/>
	<line x1="1372.32" y1="1079.07" x2="1392.57" y2="1076.44" style="stroke:#009E73;stroke-width:10.00"/>
	<line x1="1410.27" y1="1074.13" x2="1430.52" y2="1071.50" style="stroke:#009E73;stroke-width:10.00"/>
	<line x1="1448.22" y1="1069.19" x2="1468.47" y2="1066.48" style="stroke:#009E73;stroke-width:10.00"/>
	<line x1="1486.16" y1="1064.17" x2="1506.41" y2="1061.53" style="stroke:#009E73;stroke-width:10.00"/>
	<line x1="1524.11" y1="1059.22" x2="1544.36" y2="1056.59" style="stroke:#009E73;stroke-width:10.00"/>
	<line x1="1562.06" y1="1054.28" x2="1582.31" y2="1051.57" style="stroke:#009E73;stroke-width:10.00"/>
	<line x1="1600.01" y1="1051.25" x2="1620.41" y2="1052.69" style="stroke:#009E73;stroke-width:10.00"/>
	<line x1="1638.19" y1="1053.88" x2="1658.60" y2="1055.24" style="stroke:#009E73;stroke-width:10.00"/>
	<line x1="1676.38" y1="1056.43" x2="1696.79" y2="1057.79" style="stroke:#009E73;stroke-width:10.00"/>
	<line x1="1714.56" y1="1058.98" x2="1734.97" y2="1060.42" style="stroke:#009E73;stroke-width:10.00"/>
	<line x1="1752.75" y1="1061.53" x2="1773.16" y2="1062.97" style="stroke:#009E73;stroke-width:10.00"/>
	<line x1="1790.94" y1="1064.09" x2="1811.35" y2="1065.52" style="stroke:#009E73;stroke-width:10.00"/>
	<line x1="1829.12" y1="1066.64" x2="1849.53" y2="1067.83" style="stroke:#009E73;stroke-width:10.00"/>
	<line x1="1867.39" y1="1068.87" x2="1887.72" y2="1069.99" style="stroke:#009E73;stroke-width:10.00"/>
	<line x1="1905.58" y1="1071.02" x2="1925.91" y2="1072.22" style="stroke:#009E73;stroke-width:10.00"/>
	<line x1="1943.76" y1="1073.25" x2="1964.09" y2="1074.37" style="stroke:#009E73;stroke-width:10.00"/>
	<line x1="1981.95" y1="1075.41" x2="2002.28" y2="1076.60" style="stroke:#009E73;stroke-width:10.00"/>
	<line x1="2020.14" y1="1077.64" x2="2040.47" y2="1078.75" style="stroke:#009E73;stroke-width:10.00"/>
	<line x1="2058.32" y1="1079.71" x2="2078.73" y2="1080.03" style="stroke:#009E73;stroke-width:10.00"/>
	<line x1="2096.59" y1="1080.27" x2="2117.00" y2="1080.59" style="stroke:#009E73;stroke-width:10.00"/>
	<line x1="2134.86" y1="1080.91" x2="2155.26" y2="1081.23" style="stroke:#009E73;stroke-width:10.00"/>
	<line x1="2173.12" y1="1081.46" x2="2193.53" y2="1081.78" style="stroke:#009E73;stroke-width:10.00"/>
	<line x1="2211.39" y1="1082.02" x2="2231.80" y2="1082.34" style="stroke:#009E73;stroke-width:10.00"/>
	<line x1="2249.65" y1="1082.66" x2="2270.06" y2="1082.98" style="stroke:#009E73;stroke-width:10.00"/>
	<line x1="2287.92" y1="1083.30" x2="2290.79" y2="1083.30" style="stroke:#009E73;stroke-width:10.00"/>
	<line x1="2290.79" y1="1083.30" x2="2290.79" y2="1083.30" style="stroke:#009E73;stroke-width:10.00"/>
	<line x1="2290.79" y1="1083.30" x2="2290.79" y2="1083.30" style="stroke:#009E73;stroke-width:10.00"/>
	<line x1="2290.79" y1="1083.30" x2="2290.79" y2="1083.30" style="stroke:#009E73;stroke-width:10.00"/>
	<line x1="421.73" y1="979.66" x2="655.39" y2="997.44" stroke-linecap="round" style="stroke:#D55E00;stroke-width:10.00"/>
	<line x1="655.39" y1="997.44" x2="889.05" y2="984.29" stroke-linecap="round" style="stroke:#D55E00;stroke-width:10.00"/>
	<line x1="889.05" y1="984.29" x2="1122.63" y2="961.09" stroke-linecap="round" style="stroke:#D55E00;stroke-width:10.00"/>
	<line x1="1122.63" y1="961.09" x2="1356.30" y2="990.90" stroke-linecap="round" style="stroke:#D55E00;stroke-width:10.00"/>
	<line x1="1356.30" y1="990.90" x2="1589.88" y2="1014.74" stroke-linecap="round" style="stroke:#D55E00;stroke-width:10.00"/>
	<line x1="1589.88" y1="1014.74" x2="1823.54" y2="1056.99" stroke-linecap="round" style="stroke:#D55E00;stroke-width:10.00"/>
	<line x1="1823.54" y1="1056.99" x2="2057.13" y2="1037.30" stroke-linecap="round" style="stroke:#D55E00;stroke-width:10.00"/>
	<line x1="2057.13" y1="1037.30" x2="2290.79" y2="1111.28" stroke-linecap="round" style="stroke:#D55E00;stroke-width:10.00"/>
	<line x1="421.73" y1="1059.62" x2="421.73" y2="1059.62" style="stroke:#D55E00;stroke-width:10.00"/>
	<line x1="421.73" y1="1059.62" x2="421.73" y2="1059.62" style="stroke:#D55E00;stroke-width:10.00"/>
	<line x1="421.73" y1="1059.62" x2="421.73" y2="1059.62" style="stroke:#D55E00;stroke-width:10.00"/>
	<line x1="421.73" y1="1059.62" x2="442.13" y2="1059.06" style="stroke:#D55E00;stroke-width:10.00"/>
	<line x1="459.99" y1="1058.66" x2="480.40" y2="1058.19" style="stroke:#D55E00;stroke-width:10.00"/>
	<line x1="498.26" y1="1057.71" x2="518.67" y2="1057.15" style="stroke:#D55E00;stroke-width:10.00"/>
	<line x1="536.52" y1="1056.75" x2="556.93" y2="1056.19" style="stroke:#D55E00;stroke-width:10.00"/>
	<line x1="574.79" y1="1055.80" x2="595.20" y2="1055.24" style="stroke:#D55E00;stroke-width:10.00"/>
	<line x1="613.06" y1="1054.76" x2="633.46" y2="1054.28" style="stroke:#D55E00;stroke-width:10.00"/>
	<line x1="651.32" y1="1053.80" x2="655.39" y2="1053.72" style="stroke:#D55E00;stroke-width:10.00"/>
	<line x1="655.39" y1="1053.72" x2="655.39" y2="1053.72" style="stroke:#D55E00;stroke-width:10.00"/>
	<line x1="655.39" y1="1053.72" x2="655.39" y2="1053.72" style="stroke:#D55E00;stroke-width:10.00"/>
	<line x1="655.39" y1="1053.72" x2="655.39" y2="1053.72" style="stroke:#D55E00;stroke-width:10.00"/>
	<line x1="655.39" y1="1053.72" x2="671.49" y2="1051.01" style="stroke:#D55E00;stroke-width:10.00"/>
	<line x1="689.11" y1="1048.14" x2="709.20" y2="1044.79" style="stroke:#D55E00;stroke-width:10.00"/>
	<line x1="726.90" y1="1041.84" x2="746.99" y2="1038.50" style="stroke:#D55E00;stroke-width:10.00"/>
	<line x1="764.61" y1="1035.55" x2="784.78" y2="1032.20" style="stroke:#D55E00;stroke-width:10.00"/>
	<line x1="802.39" y1="1029.25" x2="822.48" y2="1025.90" style="stroke:#D55E00;stroke-width:10.00"/>
	<line x1="840.10" y1="1022.95" x2="860.27" y2="1019.60" style="stroke:#D55E00;stroke-width:10.00"/>
	<line x1="877.89" y1="1016.65" x2="889.05" y2="1014.82" style="stroke:#D55E00;stroke-width:10.00"/>
	<line x1="889.05" y1="1014.82" x2="889.05" y2="1014.82" style="stroke:#D55E00;stroke-width:10.00"/>
	<line x1="889.05" y1="1014.82" x2="889.05" y2="1014.82" style="stroke:#D55E00;stroke-width:10.00"/>
	<line x1="889.05" y1="1014.82" x2="889.05" y2="1014.82" style="stroke:#D55E00;stroke-width:10.00"/>
	<line x1="889.05" y1="1014.82" x2="898.14" y2="1014.66" style="stroke:#D55E00;stroke-width:10.00"/>
	<line x1="916.00" y1="1014.18" x2="936.41" y2="1013.70" style="stroke:#D55E00;stroke-width:10.00"/>
	<line x1="954.26" y1="1013.31" x2="974.67" y2="1012.83" style="stroke:#D55E00;stroke-width:10.00"/>
	<line x1="992.53" y1="1012.43" x2="1012.94" y2="1011.95" style="stroke:#D55E00;stroke-width:10.00"/>
	<line x1="1030.80" y1="1011.47" x2="1051.20" y2="1010.99" style="stroke:#D55E00;stroke-width:10.00"/>
	<line x1="1069.06" y1="1010.59" x2="1089.47" y2="1010.12" style="stroke:#D55E00;stroke-width:10.00"/>
	<line x1="1107.33" y1="1009.72" x2="1122.63" y2="1009.32" style="stroke:#D55E00;stroke-width:10.00"/>
	<line x1="1122.63" y1="1009.32" x2="1122.63" y2="1009.32" style="stroke:#D55E00;stroke-width:10.00"/>
	<line x1="1122.63" y1="1009.32" x2="1122.63" y2="1009.32" style="stroke:#D55E00;stroke-width:10.00"/>
	<line x1="1122.63" y1="1009.32" x2="1122.63" y2="1009.32" style="stroke:#D55E00;stroke-width:10.00"/>
	<line x1="1122.63" y1="1009.32" x2="1127.58" y2="1010.51" style="stroke:#D55E00;stroke-width:10.00"/>
	<line x1="1144.96" y1="1014.82" x2="1164.73" y2="1019.68" style="stroke:#D55E00;stroke-width:10.00"/>
	<line x1="1182.11" y1="1023.91" x2="1201.88" y2="1028.77" style="stroke:#D55E00;stroke-width:10.00"/>
	<line x1="1219.26" y1="1033.08" x2="1239.11" y2="1037.94" style="stroke:#D55E00;stroke-width:10.00"/>
	<line x1="1256.41" y1="1042.16" x2="1276.26" y2="1047.03" style="stroke:#D55E00;stroke-width:10.00"/>
	<line x1="1293.56" y1="1051.25" x2="1313.41" y2="1056.11" style="stroke:#D55E00;stroke-width:10.00"/>
	<line x1="1330.79" y1="1060.42" x2="1350.56" y2="1065.28" style="stroke:#D55E00;stroke-width:10.00"/>
	<line x1="1368.26" y1="1065.60" x2="1388.58" y2="1063.77" style="stroke:#D55E00;stroke-width:10.00"/>
	<line x1="1406.36" y1="1062.09" x2="1426.69" y2="1060.18" style="stroke:#D55E00;stroke-width:10.00"/>
	<line x1="1444.47" y1="1058.59" x2="1464.80" y2="1056.67" style="stroke:#D55E00;stroke-width:10.00"/>
	<line x1="1482.58" y1="1055.00" x2="1502.90" y2="1053.16" style="stroke:#D55E00;stroke-width:10.00"/>
	<line x1="1520.68" y1="1051.49" x2="1541.01" y2="1049.66" style="stroke:#D55E00;stroke-width:10.00"/>
	<line x1="1558.79" y1="1048.06" x2="1579.12" y2="1046.15" style="stroke:#D55E00;stroke-width:10.00"/>
	<line x1="1596.98" y1="1045.59" x2="1617.30" y2="1046.63" style="stroke:#D55E00;stroke-width:10.00"/>
	<line x1="1635.16" y1="1047.58" x2="1655.49" y2="1048.62" style="stroke:#D55E00;stroke-width:10.00"/>
	<line x1="1673.35" y1="1049.58" x2="1693.68" y2="1050.69" style="stroke:#D55E00;stroke-width:10.00"/>
	<line x1="1711.54" y1="1051.65" x2="1731.86" y2="1052.69" style="stroke:#D55E00;stroke-width:10.00"/>
	<line x1="1749.72" y1="1053.64" x2="1770.05" y2="1054.76" style="stroke:#D55E00;stroke-width:10.00"/>
	<line x1="1787.91" y1="1055.72" x2="1808.24" y2="1056.75" style="stroke:#D55E00;stroke-width:10.00"/>
	<line x1="1826.09" y1="1057.39" x2="1846.42" y2="1056.03" style="stroke:#D55E00;stroke-width:10.00"/>
	<line x1="1864.28" y1="1054.84" x2="1884.61" y2="1053.48" style="stroke:#D55E00;stroke-width:10.00"/>
	<line x1="1902.47" y1="1052.21" x2="1922.80" y2="1050.85" style="stroke:#D55E00;stroke-width:10.00"/>
	<line x1="1940.65" y1="1049.66" x2="1960.98" y2="1048.30" style="stroke:#D55E00;stroke-width:10.00"/>
	<line x1="1978.84" y1="1047.03" x2="1999.17" y2="1045.67" style="stroke:#D55E00;stroke-width:10.00"/>
	<line x1="2017.03" y1="1044.40" x2="2037.36" y2="1043.04" style="stroke:#D55E00;stroke-width:10.00"/>
	<line x1="2055.21" y1="1041.76" x2="2057.13" y2="1041.68" style="stroke:#D55E00;stroke-width:10.00"/>
	<line x1="2057.13" y1="1041.68" x2="2057.13" y2="1041.68" style="stroke:#D55E00;stroke-width:10.00"/>
	<line x1="2057.13" y1="1041.68" x2="2057.13" y2="1041.68" style="stroke:#D55E00;stroke-width:10.00"/>
	<line x1="2057.13" y1="1041.68" x2="2057.13" y2="1041.68" style="stroke:#D55E00;stroke-width:10.00"/>
	<line x1="2057.13" y1="1041.68" x2="2075.62" y2="1041.13" style="stroke:#D55E00;stroke-width:10.00"/>
	<line x1="2093.48" y1="1040.65" x2="2113.89" y2="1040.01" style="stroke:#D55E00;stroke-width:10.00"/>
	<line x1="2131.75" y1="1039.53" x2="2152.15" y2="1038.89" style="stroke:#D55E00;stroke-width:10.00"/>
	<line x1="2170.01" y1="1038.42" x2="2190.42" y2="1037.86" style="stroke:#D55E00;stroke-width:10.00"/>
	<line x1="2208.28" y1="1037.30" x2="2228.69" y2="1036.66" style="stroke:#D55E00;stroke-width:10.00"/>
	<line x1="2246.54" y1="1036.10" x2="2266.95" y2="1035.55" style="stroke:#D55E00;stroke-width:10.00"/>
	<line x1="2284.81" y1="1035.07" x2="2290.79" y2="1034.83" style="stroke:#D55E00;stroke-width:10.00"/>
	<line x1="2290.79" y1="1034.83" x2="2290.79" y2="1034.83" style="stroke:#D55E00;stroke-width:10.00"/>
	<line x1="2290.79" y1="1034.83" x2="2290.79" y2="1034.83" style="stroke:#D55E00;stroke-width:10.00"/>
	<line x1="2290.79" y1="1034.83" x2="2290.79" y2="1034.83" style="stroke:#D55E00;stroke-width:10.00"/>
	<line x1="1356.30" y1="797.75" x2="1589.88" y2="762.03" stroke-linecap="round" style="stroke:#CC79A7;stroke-width:10.00"/>
	<line x1="1589.88" y1="762.03" x2="1823.54" y2="780.21" stroke-linecap="round" style="stroke:#CC79A7;stroke-width:10.00"/>
	<line x1="1823.54" y1="780.21" x2="2057.13" y2="823.41" stroke-linecap="round" style="stroke:#CC79A7;stroke-width:10.00"/>
	<line x1="2057.13" y1="823.41" x2="2290.79" y2="877.78" stroke-linecap="round" style="stroke:#CC79A7;stroke-width:10.00"/>
	<line x1="1356.30" y1="823.41" x2="1356.30" y2="823.41" style="stroke:#CC79A7;stroke-width:10.00"/>
	<line x1="1356.30" y1="823.41" x2="1356.30" y2="823.41" style="stroke:#CC79A7;stroke-width:10.00"/>
	<line x1="1356.30" y1="823.41" x2="1356.30" y2="823.41" style="stroke:#CC79A7;stroke-width:10.00"/>
	<line x1="1356.30" y1="823.41" x2="1376.23" y2="819.11" style="stroke:#CC79A7;stroke-width:10.00"/>
	<line x1="1393.69" y1="815.44" x2="1413.62" y2="811.14" style="stroke:#CC79A7;stroke-width:10.00"/>
	<line x1="1431.16" y1="807.39" x2="1451.09" y2="803.17" style="stroke:#CC79A7;stroke-width:10.00"/>
	<line x1="1468.54" y1="799.42" x2="1488.48" y2="795.11" style="stroke:#CC79A7;stroke-width:10.00"/>
	<line x1="1505.93" y1="791.37" x2="1525.86" y2="787.06" style="stroke:#CC79A7;stroke-width:10.00"/>
	<line x1="1543.32" y1="783.32" x2="1563.25" y2="779.09" style="stroke:#CC79A7;stroke-width:10.00"/>
	<line x1="1580.71" y1="775.34" x2="1589.88" y2="773.35" style="stroke:#CC79A7;stroke-width:10.00"/>
	<line x1="1589.88" y1="773.35" x2="1589.88" y2="773.35" style="stroke:#CC79A7;stroke-width:10.00"/>
	<line x1="1589.88" y1="773.35" x2="1589.88" y2="773.35" style="stroke:#CC79A7;stroke-width:10.00"/>
	<line x1="1589.88" y1="773.35" x2="1589.88" y2="773.35" style="stroke:#CC79A7;stroke-width:10.00"/>
	<line x1="1589.88" y1="773.35" x2="1600.88" y2="774.07" style="stroke:#CC79A7;stroke-width:10.00"/>
	<line x1="1618.74" y1="775.26" x2="1639.07" y2="776.54" style="stroke:#CC79A7;stroke-width:10.00"/>
	<line x1="1656.93" y1="777.74" x2="1677.26" y2="779.09" style="stroke:#CC79A7;stroke-width:10.00"/>
	<line x1="1695.11" y1="780.21" x2="1715.44" y2="781.56" style="stroke:#CC79A7;stroke-width:10.00"/>
	<line x1="1733.30" y1="782.76" x2="1753.63" y2="784.03" style="stroke:#CC79A7;stroke-width:10.00"/>
	<line x1="1771.49" y1="785.23" x2="1791.81" y2="786.51" style="stroke:#CC79A7;stroke-width:10.00"/>
	<line x1="1809.67" y1="787.70" x2="1823.54" y2="788.58" style="stroke:#CC79A7;stroke-width:10.00"/>
	<line x1="1823.54" y1="788.58" x2="1823.54" y2="788.58" style="stroke:#CC79A7;stroke-width:10.00"/>
	<line x1="1823.54" y1="788.58" x2="1823.54" y2="788.58" style="stroke:#CC79A7;stroke-width:10.00"/>
	<line x1="1823.54" y1="788.58" x2="1823.54" y2="788.58" style="stroke:#CC79A7;stroke-width:10.00"/>
	<line x1="1823.54" y1="788.58" x2="1830.00" y2="789.14" style="stroke:#CC79A7;stroke-width:10.00"/>
	<line x1="1847.78" y1="790.81" x2="1868.11" y2="792.64" style="stroke:#CC79A7;stroke-width:10.00"/>
	<line x1="1885.89" y1="794.24" x2="1906.21" y2="796.07" style="stroke:#CC79A7;stroke-width:10.00"/>
	<line x1="1923.99" y1="797.75" x2="1944.32" y2="799.58" style="stroke:#CC79A7;stroke-width:10.00"/>
	<line x1="1962.10" y1="801.17" x2="1982.43" y2="803.09" style="stroke:#CC79A7;stroke-width:10.00"/>
	<line x1="2000.21" y1="804.68" x2="2020.53" y2="806.51" style="stroke:#CC79A7;stroke-width:10.00"/>
	<line x1="2038.31" y1="808.19" x2="2057.13" y2="809.94" style="stroke:#CC79A7;stroke-width:10.00"/>
	<line x1="2057.13" y1="809.94" x2="2057.13" y2="809.94" style="stroke:#CC79A7;stroke-width:10.00"/>
	<line x1="2057.13" y1="809.94" x2="2057.13" y2="809.94" style="stroke:#CC79A7;stroke-width:10.00"/>
	<line x1="2057.13" y1="809.94" x2="2057.13" y2="809.94" style="stroke:#CC79A7;stroke-width:10.00"/>
	<line x1="2057.13" y1="809.94" x2="2058.64" y2="810.26" style="stroke:#CC79A7;stroke-width:10.00"/>
	<line x1="2076.10" y1="813.93" x2="2096.03" y2="818.15" style="stroke:#CC79A7;stroke-width:10.00"/>
	<line x1="2113.49" y1="821.90" x2="2133.50" y2="826.13" style="stroke:#CC79A7;stroke-width:10.00"/>
	<line x1="2150.96" y1="829.87" x2="2170.97" y2="834.10" style="stroke:#CC79A7;stroke-width:10.00"/>
	<line x1="2188.43" y1="837.76" x2="2208.36" y2="841.99" style="stroke:#CC79A7;stroke-width:10.00"/>
	<line x1="2225.82" y1="845.74" x2="2245.83" y2="849.96" style="stroke:#CC79A7;stroke-width:10.00"/>
	<line x1="2263.29" y1="853.71" x2="2283.22" y2="857.93" style="stroke:#CC79A7;stroke-width:10.00"/>
	<line x1="421.73" y1="577.48" x2="421.73" y2="577.48" style="stroke:#A0A0A0;stroke-width:10.00"/>
	<line x1="421.73" y1="577.48" x2="421.73" y2="577.48" style="stroke:#A0A0A0;stroke-width:10.00"/>
	<line x1="421.73" y1="577.48" x2="472.75" y2="576.77" style="stroke:#A0A0A0;stroke-width:10.00"/>
	<line x1="498.26" y1="576.53" x2="549.28" y2="575.81" style="stroke:#A0A0A0;stroke-width:10.00"/>
	<line x1="574.79" y1="575.49" x2="625.81" y2="574.85" style="stroke:#A0A0A0;stroke-width:10.00"/>
	<line x1="651.32" y1="574.45" x2="655.39" y2="574.45" style="stroke:#A0A0A0;stroke-width:10.00"/>
	<line x1="655.39" y1="574.45" x2="655.39" y2="574.45" style="stroke:#A0A0A0;stroke-width:10.00"/>
	<line x1="655.39" y1="574.45" x2="655.39" y2="574.45" style="stroke:#A0A0A0;stroke-width:10.00"/>
	<line x1="655.39" y1="574.45" x2="702.26" y2="572.22" style="stroke:#A0A0A0;stroke-width:10.00"/>
	<line x1="727.78" y1="571.03" x2="778.72" y2="568.55" style="stroke:#A0A0A0;stroke-width:10.00"/>
	<line x1="804.15" y1="567.28" x2="855.17" y2="564.89" style="stroke:#A0A0A0;stroke-width:10.00"/>
	<line x1="880.60" y1="563.61" x2="889.05" y2="563.21" style="stroke:#A0A0A0;stroke-width:10.00"/>
	<line x1="889.05" y1="563.21" x2="889.05" y2="563.21" style="stroke:#A0A0A0;stroke-width:10.00"/>
	<line x1="889.05" y1="563.21" x2="889.05" y2="563.21" style="stroke:#A0A0A0;stroke-width:10.00"/>
	<line x1="889.05" y1="563.21" x2="931.62" y2="561.86" style="stroke:#A0A0A0;stroke-width:10.00"/>
	<line x1="957.13" y1="561.06" x2="1008.08" y2="559.47" style="stroke:#A0A0A0;stroke-width:10.00"/>
	<line x1="1033.59" y1="558.67" x2="1084.61" y2="556.99" style="stroke:#A0A0A0;stroke-width:10.00"/>
	<line x1="1110.12" y1="556.20" x2="1122.63" y2="555.80" style="stroke:#A0A0A0;stroke-width:10.00"/>
	<line x1="1122.63" y1="555.80" x2="1122.63" y2="555.80" style="stroke:#A0A0A0;stroke-width:10.00"/>
	<line x1="1122.63" y1="555.80" x2="1122.63" y2="555.80" style="stroke:#A0A0A0;stroke-width:10.00"/>
	<line x1="1122.63" y1="555.80" x2="1161.06" y2="553.25" style="stroke:#A0A0A0;stroke-width:10.00"/>
	<line x1="1186.49" y1="551.57" x2="1237.43" y2="548.23" style="stroke:#A0A0A0;stroke-width:10.00"/>
	<line x1="1262.86" y1="546.47" x2="1313.81" y2="543.12" style="stroke:#A0A0A0;stroke-width:10.00"/>
	<line x1="1339.32" y1="541.37" x2="1356.30" y2="540.25" style="stroke:#A0A0A0;stroke-width:10.00"/>
	<line x1="1356.30" y1="540.25" x2="1356.30" y2="540.25" style="stroke:#A0A0A0;stroke-width:10.00"/>
	<line x1="1356.30" y1="540.25" x2="1356.30" y2="540.25" style="stroke:#A0A0A0;stroke-width:10.00"/>
	<line x1="1356.30" y1="540.25" x2="1390.26" y2="539.06" style="stroke:#A0A0A0;stroke-width:10.00"/>
	<line x1="1415.77" y1="538.18" x2="1466.71" y2="536.35" style="stroke:#A0A0A0;stroke-width:10.00"/>
	<line x1="1492.22" y1="535.47" x2="1543.24" y2="533.72" style="stroke:#A0A0A0;stroke-width:10.00"/>
	<line x1="1568.67" y1="532.84" x2="1589.88" y2="532.04" style="stroke:#A0A0A0;stroke-width:10.00"/>
	<line x1="1589.88" y1="532.04" x2="1589.88" y2="532.04" style="stroke:#A0A0A0;stroke-width:10.00"/>
	<line x1="1589.88" y1="532.04" x2="1589.88" y2="532.04" style="stroke:#A0A0A0;stroke-width:10.00"/>
	<line x1="1589.88" y1="532.04" x2="1619.70" y2="530.77" style="stroke:#A0A0A0;stroke-width:10.00"/>
	<line x1="1645.13" y1="529.73" x2="1696.15" y2="527.58" style="stroke:#A0A0A0;stroke-width:10.00"/>
	<line x1="1721.58" y1="526.46" x2="1772.60" y2="524.23" style="stroke:#A0A0A0;stroke-width:10.00"/>
	<line x1="1798.11" y1="523.11" x2="1823.54" y2="522.08" style="stroke:#A0A0A0;stroke-width:10.00"/>
	<line x1="1823.54" y1="522.08" x2="1823.54" y2="522.08" style="stroke:#A0A0A0;stroke-width:10.00"/>
	<line x1="1823.54" y1="522.08" x2="1823.54" y2="522.08" style="stroke:#A0A0A0;stroke-width:10.00"/>
	<line x1="1823.54" y1="522.08" x2="1849.05" y2="520.88" style="stroke:#A0A0A0;stroke-width:10.00"/>
	<line x1="1874.49" y1="519.69" x2="1925.51" y2="517.22" style="stroke:#A0A0A0;stroke-width:10.00"/>
	<line x1="1950.94" y1="516.02" x2="2001.96" y2="513.63" style="stroke:#A0A0A0;stroke-width:10.00"/>
	<line x1="2027.39" y1="512.43" x2="2057.13" y2="511.00" style="stroke:#A0A0A0;stroke-width:10.00"/>
	<line x1="2057.13" y1="511.00" x2="2057.13" y2="511.00" style="stroke:#A0A0A0;stroke-width:10.00"/>
	<line x1="2057.13" y1="511.00" x2="2057.13" y2="511.00" style="stroke:#A0A0A0;stroke-width:10.00"/>
	<line x1="2057.13" y1="511.00" x2="2078.33" y2="509.64" style="stroke:#A0A0A0;stroke-width:10.00"/>
	<line x1="2103.84" y1="507.97" x2="2154.71" y2="504.70" style="stroke:#A0A0A0;stroke-width:10.00"/>
	<line x1="2180.22" y1="503.03" x2="2231.08" y2="499.84" style="stroke:#A0A0A0;stroke-width:10.00"/>
	<line x1="2256.59" y1="498.16" x2="2290.79" y2="496.01" style="stroke:#A0A0A0;stroke-width:10.00"/>
	<line x1="2290.79" y1="496.01" x2="2290.79" y2="496.01" style="stroke:#A0A0A0;stroke-width:10.00"/>
	<line x1="2290.79" y1="496.01" x2="2290.79" y2="496.01" style="stroke:#A0A0A0;stroke-width:10.00"/>
	<line x1="365.68" y1="1717.22" x2="330.29" y2="1717.22" style="stroke:#000000;stroke-width:4.00"/>
	<text x="312.51" y="1734.74" style="font-family:'Helvetica';font-size:49.99px;fill:#000000" text-anchor="end">25</text>
	<line x1="365.68" y1="1446.18" x2="330.29" y2="1446.18" style="stroke:#000000;stroke-width:4.00"/>
	<text x="312.51" y="1463.69" style="font-family:'Helvetica';font-size:49.99px;fill:#000000" text-anchor="end">30</text>
	<line x1="365.68" y1="1175.05" x2="330.29" y2="1175.05" style="stroke:#000000;stroke-width:4.00"/>
	<text x="312.51" y="1192.57" style="font-family:'Helvetica';font-size:49.99px;fill:#000000" text-anchor="end">35</text>
	<line x1="365.68" y1="903.93" x2="330.29" y2="903.93" style="stroke:#000000;stroke-width:4.00"/>
	<text x="312.51" y="921.45" style="font-family:'Helvetica';font-size:49.99px;fill:#000000" text-anchor="end">40</text>
	<line x1="365.68" y1="632.89" x2="330.29" y2="632.89" style="stroke:#000000;stroke-width:4.00"/>
	<text x="312.51" y="650.40" style="font-family:'Helvetica';font-size:49.99px;fill:#000000" text-anchor="end">45</text>
	<line x1="365.68" y1="361.76" x2="330.29" y2="361.76" style="stroke:#000000;stroke-width:4.00"/>
	<text x="312.51" y="379.28" style="font-family:'Helvetica';font-size:49.99px;fill:#000000" text-anchor="end">50</text>
	<line x1="365.68" y1="1717.22" x2="365.68" y2="253.35" style="stroke:#000000;stroke-width:4.00"/>
	<text x="136.21" y="947.06" style="font-family:'Helvetica';font-size:60.03px;fill:#000000" transform="rotate(-90 136.21,947.06)" text-anchor="middle">ISEI-88 (employed only)</text>
	<line x1="421.81" y1="1773.34" x2="421.81" y2="1808.82" style="stroke:#000000;stroke-width:4.00"/>
	<text x="421.81" y="1861.46" style="font-family:'Helvetica';font-size:49.99px;fill:#000000" text-anchor="middle">2007</text>
	<line x1="889.05" y1="1773.34" x2="889.05" y2="1808.82" style="stroke:#000000;stroke-width:4.00"/>
	<text x="889.05" y="1861.46" style="font-family:'Helvetica';font-size:49.99px;fill:#000000" text-anchor="middle">2009</text>
	<line x1="1356.30" y1="1773.34" x2="1356.30" y2="1808.82" style="stroke:#000000;stroke-width:4.00"/>
	<text x="1356.30" y="1861.46" style="font-family:'Helvetica';font-size:49.99px;fill:#000000" text-anchor="middle">2011</text>
	<line x1="1823.54" y1="1773.34" x2="1823.54" y2="1808.82" style="stroke:#000000;stroke-width:4.00"/>
	<text x="1823.54" y="1861.46" style="font-family:'Helvetica';font-size:49.99px;fill:#000000" text-anchor="middle">2013</text>
	<line x1="2290.79" y1="1773.34" x2="2290.79" y2="1808.82" style="stroke:#000000;stroke-width:4.00"/>
	<text x="2290.79" y="1861.46" style="font-family:'Helvetica';font-size:49.99px;fill:#000000" text-anchor="middle">2015</text>
	<line x1="421.81" y1="1773.34" x2="2290.79" y2="1773.34" style="stroke:#000000;stroke-width:4.00"/>
	<text x="1318.03" y="2003.86" style="font-family:'Helvetica';font-size:60.03px;fill:#000000" text-anchor="middle">Year</text>
	<text x="145.41" y="2248.05" style="font-family:'Helvetica';font-size:60.03px;fill:#000000">Arr. cohort: </text>
	<text x="536.36" y="2248.05" style="font-family:'Helvetica';font-size:60.03px;fill:#000000">1964-73</text>
	<text x="845.12" y="2248.05" style="font-family:'Helvetica';font-size:60.03px;fill:#000000">1974-83</text>
	<text x="1153.89" y="2248.05" style="font-family:'Helvetica';font-size:60.03px;fill:#000000">1984-93</text>
	<text x="1462.65" y="2248.05" style="font-family:'Helvetica';font-size:60.03px;fill:#000000">1994-03</text>
	<text x="1771.41" y="2248.05" style="font-family:'Helvetica';font-size:60.03px;fill:#000000">2004-10</text>
	<text x="2080.17" y="2248.05" style="font-family:'Helvetica';font-size:60.03px;fill:#000000">German</text>
	<text x="536.36" y="2396.65" style="font-family:'Helvetica';font-size:60.03px;fill:#000000">incl. nat.</text>
	<text x="845.12" y="2396.65" style="font-family:'Helvetica';font-size:60.03px;fill:#000000">incl. nat.</text>
	<text x="1153.89" y="2396.65" style="font-family:'Helvetica';font-size:60.03px;fill:#000000">incl. nat.</text>
	<text x="1462.65" y="2396.65" style="font-family:'Helvetica';font-size:60.03px;fill:#000000">incl. nat.</text>
	<text x="1771.41" y="2396.65" style="font-family:'Helvetica';font-size:60.03px;fill:#000000">incl. nat.</text>
	<line x1="536.36" y1="2152.73" x2="737.26" y2="2152.73" style="stroke:#E69F00;stroke-width:10.00"/>
	<line x1="845.12" y1="2152.73" x2="1046.02" y2="2152.73" style="stroke:#56B4E9;stroke-width:10.00"/>
	<line x1="1153.89" y1="2152.73" x2="1354.78" y2="2152.73" style="stroke:#009E73;stroke-width:10.00"/>
	<line x1="1462.65" y1="2152.73" x2="1663.54" y2="2152.73" style="stroke:#D55E00;stroke-width:10.00"/>
	<line x1="1771.41" y1="2152.73" x2="1972.30" y2="2152.73" style="stroke:#CC79A7;stroke-width:10.00"/>
	<line x1="2080.17" y1="2152.73" x2="2131.19" y2="2152.73" style="stroke:#A0A0A0;stroke-width:10.00"/>
	<line x1="2156.70" y1="2152.73" x2="2207.72" y2="2152.73" style="stroke:#A0A0A0;stroke-width:10.00"/>
	<line x1="2233.23" y1="2152.73" x2="2278.03" y2="2152.73" style="stroke:#A0A0A0;stroke-width:10.00"/>
	<line x1="536.36" y1="2301.32" x2="556.77" y2="2301.32" style="stroke:#E69F00;stroke-width:10.00"/>
	<line x1="574.63" y1="2301.32" x2="595.04" y2="2301.32" style="stroke:#E69F00;stroke-width:10.00"/>
	<line x1="612.90" y1="2301.32" x2="633.31" y2="2301.32" style="stroke:#E69F00;stroke-width:10.00"/>
	<line x1="651.16" y1="2301.32" x2="671.57" y2="2301.32" style="stroke:#E69F00;stroke-width:10.00"/>
	<line x1="689.43" y1="2301.32" x2="709.84" y2="2301.32" style="stroke:#E69F00;stroke-width:10.00"/>
	<line x1="727.70" y1="2301.32" x2="737.26" y2="2301.32" style="stroke:#E69F00;stroke-width:10.00"/>
	<line x1="845.12" y1="2301.32" x2="865.53" y2="2301.32" style="stroke:#56B4E9;stroke-width:10.00"/>
	<line x1="883.39" y1="2301.32" x2="903.80" y2="2301.32" style="stroke:#56B4E9;stroke-width:10.00"/>
	<line x1="921.66" y1="2301.32" x2="942.07" y2="2301.32" style="stroke:#56B4E9;stroke-width:10.00"/>
	<line x1="959.92" y1="2301.32" x2="980.33" y2="2301.32" style="stroke:#56B4E9;stroke-width:10.00"/>
	<line x1="998.19" y1="2301.32" x2="1018.60" y2="2301.32" style="stroke:#56B4E9;stroke-width:10.00"/>
	<line x1="1036.46" y1="2301.32" x2="1046.02" y2="2301.32" style="stroke:#56B4E9;stroke-width:10.00"/>
	<line x1="1153.89" y1="2301.32" x2="1174.29" y2="2301.32" style="stroke:#009E73;stroke-width:10.00"/>
	<line x1="1192.15" y1="2301.32" x2="1212.56" y2="2301.32" style="stroke:#009E73;stroke-width:10.00"/>
	<line x1="1230.42" y1="2301.32" x2="1250.83" y2="2301.32" style="stroke:#009E73;stroke-width:10.00"/>
	<line x1="1268.68" y1="2301.32" x2="1289.09" y2="2301.32" style="stroke:#009E73;stroke-width:10.00"/>
	<line x1="1306.95" y1="2301.32" x2="1327.36" y2="2301.32" style="stroke:#009E73;stroke-width:10.00"/>
	<line x1="1345.22" y1="2301.32" x2="1354.78" y2="2301.32" style="stroke:#009E73;stroke-width:10.00"/>
	<line x1="1462.65" y1="2301.32" x2="1483.05" y2="2301.32" style="stroke:#D55E00;stroke-width:10.00"/>
	<line x1="1500.91" y1="2301.32" x2="1521.32" y2="2301.32" style="stroke:#D55E00;stroke-width:10.00"/>
	<line x1="1539.18" y1="2301.32" x2="1559.59" y2="2301.32" style="stroke:#D55E00;stroke-width:10.00"/>
	<line x1="1577.44" y1="2301.32" x2="1597.85" y2="2301.32" style="stroke:#D55E00;stroke-width:10.00"/>
	<line x1="1615.71" y1="2301.32" x2="1636.12" y2="2301.32" style="stroke:#D55E00;stroke-width:10.00"/>
	<line x1="1653.98" y1="2301.32" x2="1663.54" y2="2301.32" style="stroke:#D55E00;stroke-width:10.00"/>
	<line x1="1771.41" y1="2301.32" x2="1791.81" y2="2301.32" style="stroke:#CC79A7;stroke-width:10.00"/>
	<line x1="1809.67" y1="2301.32" x2="1830.08" y2="2301.32" style="stroke:#CC79A7;stroke-width:10.00"/>
	<line x1="1847.94" y1="2301.32" x2="1868.35" y2="2301.32" style="stroke:#CC79A7;stroke-width:10.00"/>
	<line x1="1886.20" y1="2301.32" x2="1906.61" y2="2301.32" style="stroke:#CC79A7;stroke-width:10.00"/>
	<line x1="1924.47" y1="2301.32" x2="1944.88" y2="2301.32" style="stroke:#CC79A7;stroke-width:10.00"/>
	<line x1="1962.74" y1="2301.32" x2="1972.30" y2="2301.32" style="stroke:#CC79A7;stroke-width:10.00"/>
	<text x="1356.30" y="154.88" style="font-family:'Helvetica';font-size:90.01px;fill:#000000" text-anchor="middle">Women</text>
</svg>
