<?xml version="1.0" encoding="UTF-8" standalone="no"?>
<!-- This is a Stata 15.1 generated SVG file (http://www.stata.com) -->

<svg version="1.1" width="3.54in" height="3.54in" viewBox="0 0 2551 2551" xmlns="http://www.w3.org/2000/svg" xmlns:xlink="http://www.w3.org/1999/xlink">
	<desc>Stata Graph - Graph</desc>
	<rect x="0" y="0" width="2551" height="2551" style="fill:#FFFFFF;stroke:none"/>
	<rect x="0.00" y="0.08" width="2551.00" height="2550.92" style="fill:#FFFFFF"/>
	<rect x="2.55" y="2.63" width="2545.90" height="2545.82" style="fill:none;stroke:#FFFFFF;stroke-width:5.10"/>
	<line x1="365.68" y1="1717.22" x2="2346.91" y2="1717.22" style="stroke:#E8E8E8;stroke-width:4.00"/>
	<line x1="365.68" y1="1466.67" x2="2346.91" y2="1466.67" style="stroke:#E8E8E8;stroke-width:4.00"/>
	<line x1="365.68" y1="1216.19" x2="2346.91" y2="1216.19" style="stroke:#E8E8E8;stroke-width:4.00"/>
	<line x1="365.68" y1="965.63" x2="2346.91" y2="965.63" style="stroke:#E8E8E8;stroke-width:4.00"/>
	<line x1="365.68" y1="715.08" x2="2346.91" y2="715.08" style="stroke:#E8E8E8;stroke-width:4.00"/>
	<line x1="365.68" y1="464.52" x2="2346.91" y2="464.52" style="stroke:#E8E8E8;stroke-width:4.00"/>
	<line x1="421.81" y1="1773.34" x2="421.81" y2="308.19" style="stroke:#E8E8E8;stroke-width:4.00"/>
	<line x1="889.05" y1="1773.34" x2="889.05" y2="308.19" style="stroke:#E8E8E8;stroke-width:4.00"/>
	<line x1="1356.30" y1="1773.34" x2="1356.30" y2="308.19" style="stroke:#E8E8E8;stroke-width:4.00"/>
	<line x1="1823.54" y1="1773.34" x2="1823.54" y2="308.19" style="stroke:#E8E8E8;stroke-width:4.00"/>
	<line x1="2290.79" y1="1773.34" x2="2290.79" y2="308.19" style="stroke:#E8E8E8;stroke-width:4.00"/>
	<line x1="421.73" y1="1013.94" x2="655.39" y2="1023.67" stroke-linecap="round" style="stroke:#56B4E9;stroke-width:10.00"/>
	<line x1="655.39" y1="1023.67" x2="889.05" y2="1068.15" stroke-linecap="round" style="stroke:#56B4E9;stroke-width:10.00"/>
	<line x1="889.05" y1="1068.15" x2="1122.63" y2="1069.59" stroke-linecap="round" style="stroke:#56B4E9;stroke-width:10.00"/>
	<line x1="1122.63" y1="1069.59" x2="1356.30" y2="1025.18" stroke-linecap="round" style="stroke:#56B4E9;stroke-width:10.00"/>
	<line x1="1356.30" y1="1025.18" x2="1589.88" y2="987.08" stroke-linecap="round" style="stroke:#56B4E9;stroke-width:10.00"/>
	<line x1="1589.88" y1="987.08" x2="1823.54" y2="930.96" stroke-linecap="round" style="stroke:#56B4E9;stroke-width:10.00"/>
	<line x1="421.73" y1="886.95" x2="421.73" y2="886.95" style="stroke:#56B4E9;stroke-width:10.00"/>
	<line x1="421.73" y1="886.95" x2="421.73" y2="886.95" style="stroke:#56B4E9;stroke-width:10.00"/>
	<line x1="421.73" y1="886.95" x2="421.73" y2="886.95" style="stroke:#56B4E9;stroke-width:10.00"/>
	<line x1="421.73" y1="886.95" x2="441.97" y2="889.26" style="stroke:#56B4E9;stroke-width:10.00"/>
	<line x1="459.75" y1="891.26" x2="480.00" y2="893.57" style="stroke:#56B4E9;stroke-width:10.00"/>
	<line x1="497.78" y1="895.56" x2="518.03" y2="897.87" style="stroke:#56B4E9;stroke-width:10.00"/>
	<line x1="535.81" y1="899.87" x2="556.14" y2="902.18" style="stroke:#56B4E9;stroke-width:10.00"/>
	<line x1="573.83" y1="904.17" x2="594.16" y2="906.48" style="stroke:#56B4E9;stroke-width:10.00"/>
	<line x1="611.86" y1="908.47" x2="632.19" y2="910.79" style="stroke:#56B4E9;stroke-width:10.00"/>
	<line x1="649.89" y1="912.78" x2="655.39" y2="913.42" style="stroke:#56B4E9;stroke-width:10.00"/>
	<line x1="655.39" y1="913.42" x2="655.39" y2="913.42" style="stroke:#56B4E9;stroke-width:10.00"/>
	<line x1="655.39" y1="913.42" x2="655.39" y2="913.42" style="stroke:#56B4E9;stroke-width:10.00"/>
	<line x1="655.39" y1="913.42" x2="655.39" y2="913.42" style="stroke:#56B4E9;stroke-width:10.00"/>
	<line x1="655.39" y1="913.42" x2="670.22" y2="912.46" style="stroke:#56B4E9;stroke-width:10.00"/>
	<line x1="688.07" y1="911.19" x2="708.40" y2="909.83" style="stroke:#56B4E9;stroke-width:10.00"/>
	<line x1="726.26" y1="908.63" x2="746.59" y2="907.28" style="stroke:#56B4E9;stroke-width:10.00"/>
	<line x1="764.45" y1="906.08" x2="784.78" y2="904.73" style="stroke:#56B4E9;stroke-width:10.00"/>
	<line x1="802.63" y1="903.53" x2="822.96" y2="902.18" style="stroke:#56B4E9;stroke-width:10.00"/>
	<line x1="840.82" y1="900.98" x2="861.15" y2="899.63" style="stroke:#56B4E9;stroke-width:10.00"/>
	<line x1="879.01" y1="898.35" x2="889.05" y2="897.71" style="stroke:#56B4E9;stroke-width:10.00"/>
	<line x1="889.05" y1="897.71" x2="889.05" y2="897.71" style="stroke:#56B4E9;stroke-width:10.00"/>
	<line x1="889.05" y1="897.71" x2="889.05" y2="897.71" style="stroke:#56B4E9;stroke-width:10.00"/>
	<line x1="889.05" y1="897.71" x2="889.05" y2="897.71" style="stroke:#56B4E9;stroke-width:10.00"/>
	<line x1="889.05" y1="897.71" x2="899.34" y2="896.92" style="stroke:#56B4E9;stroke-width:10.00"/>
	<line x1="917.11" y1="895.56" x2="937.44" y2="893.97" style="stroke:#56B4E9;stroke-width:10.00"/>
	<line x1="955.30" y1="892.61" x2="975.63" y2="891.02" style="stroke:#56B4E9;stroke-width:10.00"/>
	<line x1="993.41" y1="889.66" x2="1013.74" y2="888.07" style="stroke:#56B4E9;stroke-width:10.00"/>
	<line x1="1031.59" y1="886.71" x2="1051.92" y2="885.12" style="stroke:#56B4E9;stroke-width:10.00"/>
	<line x1="1069.70" y1="883.68" x2="1090.03" y2="882.09" style="stroke:#56B4E9;stroke-width:10.00"/>
	<line x1="1107.81" y1="880.73" x2="1122.63" y2="879.54" style="stroke:#56B4E9;stroke-width:10.00"/>
	<line x1="1122.63" y1="879.54" x2="1122.63" y2="879.54" style="stroke:#56B4E9;stroke-width:10.00"/>
	<line x1="1122.63" y1="879.54" x2="1122.63" y2="879.54" style="stroke:#56B4E9;stroke-width:10.00"/>
	<line x1="1122.63" y1="879.54" x2="1122.63" y2="879.54" style="stroke:#56B4E9;stroke-width:10.00"/>
	<line x1="1122.63" y1="879.54" x2="1127.98" y2="880.81" style="stroke:#56B4E9;stroke-width:10.00"/>
	<line x1="1145.43" y1="884.80" x2="1165.29" y2="889.34" style="stroke:#56B4E9;stroke-width:10.00"/>
	<line x1="1182.66" y1="893.33" x2="1202.59" y2="897.95" style="stroke:#56B4E9;stroke-width:10.00"/>
	<line x1="1219.97" y1="901.94" x2="1239.82" y2="906.48" style="stroke:#56B4E9;stroke-width:10.00"/>
	<line x1="1257.28" y1="910.55" x2="1277.13" y2="915.09" style="stroke:#56B4E9;stroke-width:10.00"/>
	<line x1="1294.51" y1="919.08" x2="1314.44" y2="923.62" style="stroke:#56B4E9;stroke-width:10.00"/>
	<line x1="1331.82" y1="927.69" x2="1351.75" y2="932.23" style="stroke:#56B4E9;stroke-width:10.00"/>
	<line x1="1369.37" y1="931.43" x2="1389.54" y2="928.56" style="stroke:#56B4E9;stroke-width:10.00"/>
	<line x1="1407.24" y1="926.01" x2="1427.41" y2="923.14" style="stroke:#56B4E9;stroke-width:10.00"/>
	<line x1="1445.11" y1="920.67" x2="1465.28" y2="917.72" style="stroke:#56B4E9;stroke-width:10.00"/>
	<line x1="1482.97" y1="915.25" x2="1503.14" y2="912.30" style="stroke:#56B4E9;stroke-width:10.00"/>
	<line x1="1520.84" y1="909.83" x2="1541.09" y2="906.96" style="stroke:#56B4E9;stroke-width:10.00"/>
	<line x1="1558.71" y1="904.41" x2="1578.96" y2="901.54" style="stroke:#56B4E9;stroke-width:10.00"/>
	<line x1="1596.66" y1="898.91" x2="1616.83" y2="895.72" style="stroke:#56B4E9;stroke-width:10.00"/>
	<line x1="1634.44" y1="893.01" x2="1654.61" y2="889.90" style="stroke:#56B4E9;stroke-width:10.00"/>
	<line x1="1672.31" y1="887.11" x2="1692.48" y2="883.92" style="stroke:#56B4E9;stroke-width:10.00"/>
	<line x1="1710.10" y1="881.21" x2="1730.27" y2="878.02" style="stroke:#56B4E9;stroke-width:10.00"/>
	<line x1="1747.89" y1="875.23" x2="1768.06" y2="872.12" style="stroke:#56B4E9;stroke-width:10.00"/>
	<line x1="1785.76" y1="869.33" x2="1805.93" y2="866.14" style="stroke:#56B4E9;stroke-width:10.00"/>
	<line x1="421.73" y1="1111.04" x2="655.39" y2="1138.78" stroke-linecap="round" style="stroke:#009E73;stroke-width:10.00"/>
	<line x1="655.39" y1="1138.78" x2="889.05" y2="1119.09" stroke-linecap="round" style="stroke:#009E73;stroke-width:10.00"/>
	<line x1="889.05" y1="1119.09" x2="1122.63" y2="1166.60" stroke-linecap="round" style="stroke:#009E73;stroke-width:10.00"/>
	<line x1="1122.63" y1="1166.60" x2="1356.30" y2="1147.07" stroke-linecap="round" style="stroke:#009E73;stroke-width:10.00"/>
	<line x1="1356.30" y1="1147.07" x2="1589.88" y2="1129.14" stroke-linecap="round" style="stroke:#009E73;stroke-width:10.00"/>
	<line x1="1589.88" y1="1129.14" x2="1823.54" y2="1137.91" stroke-linecap="round" style="stroke:#009E73;stroke-width:10.00"/>
	<line x1="1823.54" y1="1137.91" x2="2057.13" y2="1131.77" stroke-linecap="round" style="stroke:#009E73;stroke-width:10.00"/>
	<line x1="2057.13" y1="1131.77" x2="2290.79" y2="1133.28" stroke-linecap="round" style="stroke:#009E73;stroke-width:10.00"/>
	<line x1="421.73" y1="1103.63" x2="421.73" y2="1103.63" style="stroke:#009E73;stroke-width:10.00"/>
	<line x1="421.73" y1="1103.63" x2="421.73" y2="1103.63" style="stroke:#009E73;stroke-width:10.00"/>
	<line x1="421.73" y1="1103.63" x2="421.73" y2="1103.63" style="stroke:#009E73;stroke-width:10.00"/>
	<line x1="421.73" y1="1103.63" x2="442.13" y2="1103.87" style="stroke:#009E73;stroke-width:10.00"/>
	<line x1="459.99" y1="1104.10" x2="480.40" y2="1104.34" style="stroke:#009E73;stroke-width:10.00"/>
	<line x1="498.26" y1="1104.50" x2="518.67" y2="1104.74" style="stroke:#009E73;stroke-width:10.00"/>
	<line x1="536.52" y1="1104.90" x2="556.93" y2="1105.14" style="stroke:#009E73;stroke-width:10.00"/>
	<line x1="574.79" y1="1105.38" x2="595.20" y2="1105.62" style="stroke:#009E73;stroke-width:10.00"/>
	<line x1="613.06" y1="1105.78" x2="633.46" y2="1106.02" style="stroke:#009E73;stroke-width:10.00"/>
	<line x1="651.32" y1="1106.26" x2="655.39" y2="1106.26" style="stroke:#009E73;stroke-width:10.00"/>
	<line x1="655.39" y1="1106.26" x2="655.39" y2="1106.26" style="stroke:#009E73;stroke-width:10.00"/>
	<line x1="655.39" y1="1106.26" x2="655.39" y2="1106.26" style="stroke:#009E73;stroke-width:10.00"/>
	<line x1="655.39" y1="1106.26" x2="655.39" y2="1106.26" style="stroke:#009E73;stroke-width:10.00"/>
	<line x1="655.39" y1="1106.26" x2="671.65" y2="1104.98" style="stroke:#009E73;stroke-width:10.00"/>
	<line x1="689.51" y1="1103.63" x2="709.84" y2="1102.03" style="stroke:#009E73;stroke-width:10.00"/>
	<line x1="727.62" y1="1100.68" x2="747.94" y2="1099.16" style="stroke:#009E73;stroke-width:10.00"/>
	<line x1="765.80" y1="1097.73" x2="786.13" y2="1096.21" style="stroke:#009E73;stroke-width:10.00"/>
	<line x1="803.99" y1="1094.78" x2="824.32" y2="1093.26" style="stroke:#009E73;stroke-width:10.00"/>
	<line x1="842.18" y1="1091.83" x2="862.50" y2="1090.31" style="stroke:#009E73;stroke-width:10.00"/>
	<line x1="880.28" y1="1088.96" x2="889.05" y2="1088.24" style="stroke:#009E73;stroke-width:10.00"/>
	<line x1="889.05" y1="1088.24" x2="889.05" y2="1088.24" style="stroke:#009E73;stroke-width:10.00"/>
	<line x1="889.05" y1="1088.24" x2="889.05" y2="1088.24" style="stroke:#009E73;stroke-width:10.00"/>
	<line x1="889.05" y1="1088.24" x2="889.05" y2="1088.24" style="stroke:#009E73;stroke-width:10.00"/>
	<line x1="889.05" y1="1088.24" x2="900.61" y2="1089.04" style="stroke:#009E73;stroke-width:10.00"/>
	<line x1="918.47" y1="1090.15" x2="938.80" y2="1091.43" style="stroke:#009E73;stroke-width:10.00"/>
	<line x1="956.65" y1="1092.55" x2="977.06" y2="1093.90" style="stroke:#009E73;stroke-width:10.00"/>
	<line x1="994.84" y1="1095.02" x2="1015.25" y2="1096.29" style="stroke:#009E73;stroke-width:10.00"/>
	<line x1="1033.03" y1="1097.41" x2="1053.44" y2="1098.76" style="stroke:#009E73;stroke-width:10.00"/>
	<line x1="1071.21" y1="1099.88" x2="1091.62" y2="1101.23" style="stroke:#009E73;stroke-width:10.00"/>
	<line x1="1109.40" y1="1102.35" x2="1122.63" y2="1103.23" style="stroke:#009E73;stroke-width:10.00"/>
	<line x1="1122.63" y1="1103.23" x2="1122.63" y2="1103.23" style="stroke:#009E73;stroke-width:10.00"/>
	<line x1="1122.63" y1="1103.23" x2="1122.63" y2="1103.23" style="stroke:#009E73;stroke-width:10.00"/>
	<line x1="1122.63" y1="1103.23" x2="1122.63" y2="1103.23" style="stroke:#009E73;stroke-width:10.00"/>
	<line x1="1122.63" y1="1103.23" x2="1129.81" y2="1103.23" style="stroke:#009E73;stroke-width:10.00"/>
	<line x1="1147.67" y1="1103.39" x2="1168.08" y2="1103.55" style="stroke:#009E73;stroke-width:10.00"/>
	<line x1="1185.93" y1="1103.71" x2="1206.34" y2="1103.87" style="stroke:#009E73;stroke-width:10.00"/>
	<line x1="1224.20" y1="1103.95" x2="1244.61" y2="1104.10" style="stroke:#009E73;stroke-width:10.00"/>
	<line x1="1262.47" y1="1104.26" x2="1282.87" y2="1104.42" style="stroke:#009E73;stroke-width:10.00"/>
	<line x1="1300.73" y1="1104.58" x2="1321.14" y2="1104.66" style="stroke:#009E73;stroke-width:10.00"/>
	<line x1="1339.00" y1="1104.82" x2="1356.30" y2="1104.98" style="stroke:#009E73;stroke-width:10.00"/>
	<line x1="1356.30" y1="1104.98" x2="1356.30" y2="1104.98" style="stroke:#009E73;stroke-width:10.00"/>
	<line x1="1356.30" y1="1104.98" x2="1356.30" y2="1104.98" style="stroke:#009E73;stroke-width:10.00"/>
	<line x1="1356.30" y1="1104.98" x2="1356.30" y2="1104.98" style="stroke:#009E73;stroke-width:10.00"/>
	<line x1="1356.30" y1="1104.98" x2="1359.41" y2="1104.74" style="stroke:#009E73;stroke-width:10.00"/>
	<line x1="1377.18" y1="1103.39" x2="1397.59" y2="1101.87" style="stroke:#009E73;stroke-width:10.00"/>
	<line x1="1415.37" y1="1100.52" x2="1435.70" y2="1099.00" style="stroke:#009E73;stroke-width:10.00"/>
	<line x1="1453.56" y1="1097.65" x2="1473.89" y2="1096.13" style="stroke:#009E73;stroke-width:10.00"/>
	<line x1="1491.74" y1="1094.78" x2="1512.07" y2="1093.26" style="stroke:#009E73;stroke-width:10.00"/>
	<line x1="1529.93" y1="1091.91" x2="1550.26" y2="1090.39" style="stroke:#009E73;stroke-width:10.00"/>
	<line x1="1568.12" y1="1089.12" x2="1588.45" y2="1087.52" style="stroke:#009E73;stroke-width:10.00"/>
	<line x1="1606.30" y1="1087.28" x2="1626.71" y2="1087.20" style="stroke:#009E73;stroke-width:10.00"/>
	<line x1="1644.57" y1="1087.04" x2="1664.98" y2="1086.97" style="stroke:#009E73;stroke-width:10.00"/>
	<line x1="1682.84" y1="1086.81" x2="1703.24" y2="1086.73" style="stroke:#009E73;stroke-width:10.00"/>
	<line x1="1721.10" y1="1086.65" x2="1741.51" y2="1086.49" style="stroke:#009E73;stroke-width:10.00"/>
	<line x1="1759.37" y1="1086.41" x2="1779.78" y2="1086.25" style="stroke:#009E73;stroke-width:10.00"/>
	<line x1="1797.63" y1="1086.17" x2="1818.04" y2="1086.01" style="stroke:#009E73;stroke-width:10.00"/>
	<line x1="1835.82" y1="1084.89" x2="1856.15" y2="1083.14" style="stroke:#009E73;stroke-width:10.00"/>
	<line x1="1873.93" y1="1081.62" x2="1894.26" y2="1079.87" style="stroke:#009E73;stroke-width:10.00"/>
	<line x1="1912.03" y1="1078.36" x2="1932.36" y2="1076.60" style="stroke:#009E73;stroke-width:10.00"/>
	<line x1="1950.14" y1="1075.09" x2="1970.47" y2="1073.41" style="stroke:#009E73;stroke-width:10.00"/>
	<line x1="1988.25" y1="1071.82" x2="2008.58" y2="1070.06" style="stroke:#009E73;stroke-width:10.00"/>
	<line x1="2026.35" y1="1068.55" x2="2046.68" y2="1066.80" style="stroke:#009E73;stroke-width:10.00"/>
	<line x1="2064.54" y1="1065.68" x2="2084.95" y2="1064.96" style="stroke:#009E73;stroke-width:10.00"/>
	<line x1="2102.81" y1="1064.40" x2="2123.22" y2="1063.69" style="stroke:#009E73;stroke-width:10.00"/>
	<line x1="2141.07" y1="1063.13" x2="2161.48" y2="1062.41" style="stroke:#009E73;stroke-width:10.00"/>
	<line x1="2179.34" y1="1061.77" x2="2199.75" y2="1061.14" style="stroke:#009E73;stroke-width:10.00"/>
	<line x1="2217.61" y1="1060.50" x2="2238.01" y2="1059.78" style="stroke:#009E73;stroke-width:10.00"/>
	<line x1="2255.87" y1="1059.22" x2="2276.20" y2="1058.51" style="stroke:#009E73;stroke-width:10.00"/>
	<line x1="421.73" y1="1019.92" x2="655.39" y2="1004.85" stroke-linecap="round" style="stroke:#D55E00;stroke-width:10.00"/>
	<line x1="655.39" y1="1004.85" x2="889.05" y2="1000.07" stroke-linecap="round" style="stroke:#D55E00;stroke-width:10.00"/>
	<line x1="889.05" y1="1000.07" x2="1122.63" y2="986.68" stroke-linecap="round" style="stroke:#D55E00;stroke-width:10.00"/>
	<line x1="1122.63" y1="986.68" x2="1356.30" y2="1005.89" stroke-linecap="round" style="stroke:#D55E00;stroke-width:10.00"/>
	<line x1="1356.30" y1="1005.89" x2="1589.88" y2="988.11" stroke-linecap="round" style="stroke:#D55E00;stroke-width:10.00"/>
	<line x1="1589.88" y1="988.11" x2="1823.54" y2="1003.42" stroke-linecap="round" style="stroke:#D55E00;stroke-width:10.00"/>
	<line x1="1823.54" y1="1003.42" x2="2057.13" y2="989.71" stroke-linecap="round" style="stroke:#D55E00;stroke-width:10.00"/>
	<line x1="2057.13" y1="989.71" x2="2290.79" y2="1017.05" stroke-linecap="round" style="stroke:#D55E00;stroke-width:10.00"/>
	<line x1="421.73" y1="1082.26" x2="421.73" y2="1082.26" style="stroke:#D55E00;stroke-width:10.00"/>
	<line x1="421.73" y1="1082.26" x2="421.73" y2="1082.26" style="stroke:#D55E00;stroke-width:10.00"/>
	<line x1="421.73" y1="1082.26" x2="421.73" y2="1082.26" style="stroke:#D55E00;stroke-width:10.00"/>
	<line x1="421.73" y1="1082.26" x2="442.13" y2="1081.38" style="stroke:#D55E00;stroke-width:10.00"/>
	<line x1="459.99" y1="1080.67" x2="480.40" y2="1079.79" style="stroke:#D55E00;stroke-width:10.00"/>
	<line x1="498.26" y1="1079.07" x2="518.59" y2="1078.20" style="stroke:#D55E00;stroke-width:10.00"/>
	<line x1="536.44" y1="1077.40" x2="556.85" y2="1076.52" style="stroke:#D55E00;stroke-width:10.00"/>
	<line x1="574.71" y1="1075.80" x2="595.04" y2="1074.93" style="stroke:#D55E00;stroke-width:10.00"/>
	<line x1="612.90" y1="1074.13" x2="633.31" y2="1073.33" style="stroke:#D55E00;stroke-width:10.00"/>
	<line x1="651.16" y1="1072.54" x2="655.39" y2="1072.38" style="stroke:#D55E00;stroke-width:10.00"/>
	<line x1="655.39" y1="1072.38" x2="655.39" y2="1072.38" style="stroke:#D55E00;stroke-width:10.00"/>
	<line x1="655.39" y1="1072.38" x2="655.39" y2="1072.38" style="stroke:#D55E00;stroke-width:10.00"/>
	<line x1="655.39" y1="1072.38" x2="655.39" y2="1072.38" style="stroke:#D55E00;stroke-width:10.00"/>
	<line x1="655.39" y1="1072.38" x2="671.49" y2="1070.94" style="stroke:#D55E00;stroke-width:10.00"/>
	<line x1="689.27" y1="1069.35" x2="709.60" y2="1067.51" style="stroke:#D55E00;stroke-width:10.00"/>
	<line x1="727.38" y1="1066.00" x2="747.71" y2="1064.17" style="stroke:#D55E00;stroke-width:10.00"/>
	<line x1="765.48" y1="1062.57" x2="785.81" y2="1060.82" style="stroke:#D55E00;stroke-width:10.00"/>
	<line x1="803.59" y1="1059.22" x2="823.92" y2="1057.39" style="stroke:#D55E00;stroke-width:10.00"/>
	<line x1="841.70" y1="1055.80" x2="862.03" y2="1053.96" style="stroke:#D55E00;stroke-width:10.00"/>
	<line x1="879.80" y1="1052.37" x2="889.05" y2="1051.57" style="stroke:#D55E00;stroke-width:10.00"/>
	<line x1="889.05" y1="1051.57" x2="889.05" y2="1051.57" style="stroke:#D55E00;stroke-width:10.00"/>
	<line x1="889.05" y1="1051.57" x2="889.05" y2="1051.57" style="stroke:#D55E00;stroke-width:10.00"/>
	<line x1="889.05" y1="1051.57" x2="889.05" y2="1051.57" style="stroke:#D55E00;stroke-width:10.00"/>
	<line x1="889.05" y1="1051.57" x2="900.13" y2="1050.29" style="stroke:#D55E00;stroke-width:10.00"/>
	<line x1="917.83" y1="1048.14" x2="938.08" y2="1045.75" style="stroke:#D55E00;stroke-width:10.00"/>
	<line x1="955.86" y1="1043.60" x2="976.11" y2="1041.21" style="stroke:#D55E00;stroke-width:10.00"/>
	<line x1="993.80" y1="1039.05" x2="1014.05" y2="1036.66" style="stroke:#D55E00;stroke-width:10.00"/>
	<line x1="1031.83" y1="1034.51" x2="1052.08" y2="1032.12" style="stroke:#D55E00;stroke-width:10.00"/>
	<line x1="1069.78" y1="1030.05" x2="1090.11" y2="1027.65" style="stroke:#D55E00;stroke-width:10.00"/>
	<line x1="1107.81" y1="1025.50" x2="1122.63" y2="1023.75" style="stroke:#D55E00;stroke-width:10.00"/>
	<line x1="1122.63" y1="1023.75" x2="1122.63" y2="1023.75" style="stroke:#D55E00;stroke-width:10.00"/>
	<line x1="1122.63" y1="1023.75" x2="1122.63" y2="1023.75" style="stroke:#D55E00;stroke-width:10.00"/>
	<line x1="1122.63" y1="1023.75" x2="1122.63" y2="1023.75" style="stroke:#D55E00;stroke-width:10.00"/>
	<line x1="1122.63" y1="1023.75" x2="1127.98" y2="1025.10" style="stroke:#D55E00;stroke-width:10.00"/>
	<line x1="1145.28" y1="1029.41" x2="1165.13" y2="1034.35" style="stroke:#D55E00;stroke-width:10.00"/>
	<line x1="1182.43" y1="1038.66" x2="1202.20" y2="1043.60" style="stroke:#D55E00;stroke-width:10.00"/>
	<line x1="1219.50" y1="1047.90" x2="1239.35" y2="1052.85" style="stroke:#D55E00;stroke-width:10.00"/>
	<line x1="1256.65" y1="1057.15" x2="1276.50" y2="1062.09" style="stroke:#D55E00;stroke-width:10.00"/>
	<line x1="1293.80" y1="1066.40" x2="1313.57" y2="1071.42" style="stroke:#D55E00;stroke-width:10.00"/>
	<line x1="1330.87" y1="1075.72" x2="1350.64" y2="1080.67" style="stroke:#D55E00;stroke-width:10.00"/>
	<line x1="1368.02" y1="1079.39" x2="1387.95" y2="1074.93" style="stroke:#D55E00;stroke-width:10.00"/>
	<line x1="1405.41" y1="1070.94" x2="1425.26" y2="1066.40" style="stroke:#D55E00;stroke-width:10.00"/>
	<line x1="1442.72" y1="1062.49" x2="1462.57" y2="1057.95" style="stroke:#D55E00;stroke-width:10.00"/>
	<line x1="1480.02" y1="1053.96" x2="1499.96" y2="1049.50" style="stroke:#D55E00;stroke-width:10.00"/>
	<line x1="1517.33" y1="1045.51" x2="1537.26" y2="1040.97" style="stroke:#D55E00;stroke-width:10.00"/>
	<line x1="1554.64" y1="1037.06" x2="1574.57" y2="1032.52" style="stroke:#D55E00;stroke-width:10.00"/>
	<line x1="1592.03" y1="1029.01" x2="1612.44" y2="1028.37" style="stroke:#D55E00;stroke-width:10.00"/>
	<line x1="1630.30" y1="1027.81" x2="1650.71" y2="1027.26" style="stroke:#D55E00;stroke-width:10.00"/>
	<line x1="1668.57" y1="1026.70" x2="1688.97" y2="1026.06" style="stroke:#D55E00;stroke-width:10.00"/>
	<line x1="1706.83" y1="1025.50" x2="1727.24" y2="1024.94" style="stroke:#D55E00;stroke-width:10.00"/>
	<line x1="1745.10" y1="1024.39" x2="1765.51" y2="1023.83" style="stroke:#D55E00;stroke-width:10.00"/>
	<line x1="1783.36" y1="1023.27" x2="1803.77" y2="1022.71" style="stroke:#D55E00;stroke-width:10.00"/>
	<line x1="1821.63" y1="1022.15" x2="1823.54" y2="1022.07" style="stroke:#D55E00;stroke-width:10.00"/>
	<line x1="1823.54" y1="1022.07" x2="1823.54" y2="1022.07" style="stroke:#D55E00;stroke-width:10.00"/>
	<line x1="1823.54" y1="1022.07" x2="1823.54" y2="1022.07" style="stroke:#D55E00;stroke-width:10.00"/>
	<line x1="1823.54" y1="1022.07" x2="1823.54" y2="1022.07" style="stroke:#D55E00;stroke-width:10.00"/>
	<line x1="1823.54" y1="1022.07" x2="1842.04" y2="1021.44" style="stroke:#D55E00;stroke-width:10.00"/>
	<line x1="1859.90" y1="1020.80" x2="1880.31" y2="1020.16" style="stroke:#D55E00;stroke-width:10.00"/>
	<line x1="1898.16" y1="1019.52" x2="1918.57" y2="1018.81" style="stroke:#D55E00;stroke-width:10.00"/>
	<line x1="1936.43" y1="1018.17" x2="1956.84" y2="1017.45" style="stroke:#D55E00;stroke-width:10.00"/>
	<line x1="1974.70" y1="1016.81" x2="1995.10" y2="1016.10" style="stroke:#D55E00;stroke-width:10.00"/>
	<line x1="2012.96" y1="1015.46" x2="2033.37" y2="1014.82" style="stroke:#D55E00;stroke-width:10.00"/>
	<line x1="2051.23" y1="1014.18" x2="2057.13" y2="1014.02" style="stroke:#D55E00;stroke-width:10.00"/>
	<line x1="2057.13" y1="1014.02" x2="2057.13" y2="1014.02" style="stroke:#D55E00;stroke-width:10.00"/>
	<line x1="2057.13" y1="1014.02" x2="2057.13" y2="1014.02" style="stroke:#D55E00;stroke-width:10.00"/>
	<line x1="2057.13" y1="1014.02" x2="2057.13" y2="1014.02" style="stroke:#D55E00;stroke-width:10.00"/>
	<line x1="2057.13" y1="1014.02" x2="2071.64" y2="1013.38" style="stroke:#D55E00;stroke-width:10.00"/>
	<line x1="2089.49" y1="1012.67" x2="2109.90" y2="1011.87" style="stroke:#D55E00;stroke-width:10.00"/>
	<line x1="2127.76" y1="1011.07" x2="2148.09" y2="1010.28" style="stroke:#D55E00;stroke-width:10.00"/>
	<line x1="2165.95" y1="1009.56" x2="2186.36" y2="1008.68" style="stroke:#D55E00;stroke-width:10.00"/>
	<line x1="2204.21" y1="1007.96" x2="2224.62" y2="1007.17" style="stroke:#D55E00;stroke-width:10.00"/>
	<line x1="2242.48" y1="1006.37" x2="2262.89" y2="1005.49" style="stroke:#D55E00;stroke-width:10.00"/>
	<line x1="2280.74" y1="1004.78" x2="2290.79" y2="1004.38" style="stroke:#D55E00;stroke-width:10.00"/>
	<line x1="2290.79" y1="1004.38" x2="2290.79" y2="1004.38" style="stroke:#D55E00;stroke-width:10.00"/>
	<line x1="2290.79" y1="1004.38" x2="2290.79" y2="1004.38" style="stroke:#D55E00;stroke-width:10.00"/>
	<line x1="2290.79" y1="1004.38" x2="2290.79" y2="1004.38" style="stroke:#D55E00;stroke-width:10.00"/>
	<line x1="1356.30" y1="797.27" x2="1589.88" y2="793.68" stroke-linecap="round" style="stroke:#CC79A7;stroke-width:10.00"/>
	<line x1="1589.88" y1="793.68" x2="1823.54" y2="843.58" stroke-linecap="round" style="stroke:#CC79A7;stroke-width:10.00"/>
	<line x1="1823.54" y1="843.58" x2="2057.13" y2="869.41" stroke-linecap="round" style="stroke:#CC79A7;stroke-width:10.00"/>
	<line x1="2057.13" y1="869.41" x2="2290.79" y2="862.72" stroke-linecap="round" style="stroke:#CC79A7;stroke-width:10.00"/>
	<line x1="1356.30" y1="815.68" x2="1356.30" y2="815.68" style="stroke:#CC79A7;stroke-width:10.00"/>
	<line x1="1356.30" y1="815.68" x2="1356.30" y2="815.68" style="stroke:#CC79A7;stroke-width:10.00"/>
	<line x1="1356.30" y1="815.68" x2="1356.30" y2="815.68" style="stroke:#CC79A7;stroke-width:10.00"/>
	<line x1="1356.30" y1="815.68" x2="1376.63" y2="813.93" style="stroke:#CC79A7;stroke-width:10.00"/>
	<line x1="1394.40" y1="812.49" x2="1414.73" y2="810.82" style="stroke:#CC79A7;stroke-width:10.00"/>
	<line x1="1432.51" y1="809.30" x2="1452.84" y2="807.55" style="stroke:#CC79A7;stroke-width:10.00"/>
	<line x1="1470.62" y1="806.12" x2="1490.95" y2="804.36" style="stroke:#CC79A7;stroke-width:10.00"/>
	<line x1="1508.72" y1="802.93" x2="1529.05" y2="801.17" style="stroke:#CC79A7;stroke-width:10.00"/>
	<line x1="1546.91" y1="799.66" x2="1567.24" y2="797.98" style="stroke:#CC79A7;stroke-width:10.00"/>
	<line x1="1585.02" y1="796.47" x2="1589.88" y2="796.07" style="stroke:#CC79A7;stroke-width:10.00"/>
	<line x1="1589.88" y1="796.07" x2="1589.88" y2="796.07" style="stroke:#CC79A7;stroke-width:10.00"/>
	<line x1="1589.88" y1="796.07" x2="1589.88" y2="796.07" style="stroke:#CC79A7;stroke-width:10.00"/>
	<line x1="1589.88" y1="796.07" x2="1589.88" y2="796.07" style="stroke:#CC79A7;stroke-width:10.00"/>
	<line x1="1589.88" y1="796.07" x2="1605.19" y2="798.86" style="stroke:#CC79A7;stroke-width:10.00"/>
	<line x1="1622.73" y1="802.05" x2="1642.90" y2="805.72" style="stroke:#CC79A7;stroke-width:10.00"/>
	<line x1="1660.43" y1="808.91" x2="1680.52" y2="812.57" style="stroke:#CC79A7;stroke-width:10.00"/>
	<line x1="1698.14" y1="815.84" x2="1718.23" y2="819.43" style="stroke:#CC79A7;stroke-width:10.00"/>
	<line x1="1735.77" y1="822.70" x2="1755.86" y2="826.36" style="stroke:#CC79A7;stroke-width:10.00"/>
	<line x1="1773.48" y1="829.55" x2="1793.57" y2="833.22" style="stroke:#CC79A7;stroke-width:10.00"/>
	<line x1="1811.11" y1="836.41" x2="1823.54" y2="838.64" style="stroke:#CC79A7;stroke-width:10.00"/>
	<line x1="1823.54" y1="838.64" x2="1823.54" y2="838.64" style="stroke:#CC79A7;stroke-width:10.00"/>
	<line x1="1823.54" y1="838.64" x2="1823.54" y2="838.64" style="stroke:#CC79A7;stroke-width:10.00"/>
	<line x1="1823.54" y1="838.64" x2="1823.54" y2="838.64" style="stroke:#CC79A7;stroke-width:10.00"/>
	<line x1="1823.54" y1="838.64" x2="1831.28" y2="839.44" style="stroke:#CC79A7;stroke-width:10.00"/>
	<line x1="1849.05" y1="841.27" x2="1869.38" y2="843.34" style="stroke:#CC79A7;stroke-width:10.00"/>
	<line x1="1887.16" y1="845.18" x2="1907.41" y2="847.25" style="stroke:#CC79A7;stroke-width:10.00"/>
	<line x1="1925.19" y1="849.08" x2="1945.52" y2="851.16" style="stroke:#CC79A7;stroke-width:10.00"/>
	<line x1="1963.30" y1="852.99" x2="1983.54" y2="855.06" style="stroke:#CC79A7;stroke-width:10.00"/>
	<line x1="2001.32" y1="856.90" x2="2021.65" y2="858.97" style="stroke:#CC79A7;stroke-width:10.00"/>
	<line x1="2039.35" y1="860.80" x2="2057.13" y2="862.64" style="stroke:#CC79A7;stroke-width:10.00"/>
	<line x1="2057.13" y1="862.64" x2="2057.13" y2="862.64" style="stroke:#CC79A7;stroke-width:10.00"/>
	<line x1="2057.13" y1="862.64" x2="2057.13" y2="862.64" style="stroke:#CC79A7;stroke-width:10.00"/>
	<line x1="2057.13" y1="862.64" x2="2057.13" y2="862.64" style="stroke:#CC79A7;stroke-width:10.00"/>
	<line x1="2057.13" y1="862.64" x2="2059.68" y2="862.48" style="stroke:#CC79A7;stroke-width:10.00"/>
	<line x1="2077.54" y1="861.76" x2="2097.94" y2="860.96" style="stroke:#CC79A7;stroke-width:10.00"/>
	<line x1="2115.80" y1="860.17" x2="2136.21" y2="859.37" style="stroke:#CC79A7;stroke-width:10.00"/>
	<line x1="2154.07" y1="858.65" x2="2174.48" y2="857.77" style="stroke:#CC79A7;stroke-width:10.00"/>
	<line x1="2192.33" y1="857.06" x2="2212.74" y2="856.26" style="stroke:#CC79A7;stroke-width:10.00"/>
	<line x1="2230.60" y1="855.46" x2="2251.01" y2="854.66" style="stroke:#CC79A7;stroke-width:10.00"/>
	<line x1="2268.87" y1="853.95" x2="2289.28" y2="853.15" style="stroke:#CC79A7;stroke-width:10.00"/>
	<line x1="421.73" y1="632.33" x2="421.73" y2="632.33" style="stroke:#A0A0A0;stroke-width:10.00"/>
	<line x1="421.73" y1="632.33" x2="421.73" y2="632.33" style="stroke:#A0A0A0;stroke-width:10.00"/>
	<line x1="421.73" y1="632.33" x2="472.75" y2="631.53" style="stroke:#A0A0A0;stroke-width:10.00"/>
	<line x1="498.26" y1="631.13" x2="549.28" y2="630.42" style="stroke:#A0A0A0;stroke-width:10.00"/>
	<line x1="574.79" y1="630.02" x2="625.81" y2="629.22" style="stroke:#A0A0A0;stroke-width:10.00"/>
	<line x1="651.32" y1="628.90" x2="655.39" y2="628.82" style="stroke:#A0A0A0;stroke-width:10.00"/>
	<line x1="655.39" y1="628.82" x2="655.39" y2="628.82" style="stroke:#A0A0A0;stroke-width:10.00"/>
	<line x1="655.39" y1="628.82" x2="655.39" y2="628.82" style="stroke:#A0A0A0;stroke-width:10.00"/>
	<line x1="655.39" y1="628.82" x2="702.26" y2="625.87" style="stroke:#A0A0A0;stroke-width:10.00"/>
	<line x1="727.70" y1="624.28" x2="778.64" y2="621.01" style="stroke:#A0A0A0;stroke-width:10.00"/>
	<line x1="804.07" y1="619.41" x2="855.01" y2="616.23" style="stroke:#A0A0A0;stroke-width:10.00"/>
	<line x1="880.52" y1="614.63" x2="889.05" y2="614.07" style="stroke:#A0A0A0;stroke-width:10.00"/>
	<line x1="889.05" y1="614.07" x2="889.05" y2="614.07" style="stroke:#A0A0A0;stroke-width:10.00"/>
	<line x1="889.05" y1="614.07" x2="889.05" y2="614.07" style="stroke:#A0A0A0;stroke-width:10.00"/>
	<line x1="889.05" y1="614.07" x2="931.54" y2="613.44" style="stroke:#A0A0A0;stroke-width:10.00"/>
	<line x1="957.05" y1="612.96" x2="1008.08" y2="612.16" style="stroke:#A0A0A0;stroke-width:10.00"/>
	<line x1="1033.59" y1="611.76" x2="1084.61" y2="610.96" style="stroke:#A0A0A0;stroke-width:10.00"/>
	<line x1="1110.12" y1="610.49" x2="1122.63" y2="610.33" style="stroke:#A0A0A0;stroke-width:10.00"/>
	<line x1="1122.63" y1="610.33" x2="1122.63" y2="610.33" style="stroke:#A0A0A0;stroke-width:10.00"/>
	<line x1="1122.63" y1="610.33" x2="1122.63" y2="610.33" style="stroke:#A0A0A0;stroke-width:10.00"/>
	<line x1="1122.63" y1="610.33" x2="1160.98" y2="606.82" style="stroke:#A0A0A0;stroke-width:10.00"/>
	<line x1="1186.33" y1="604.51" x2="1237.19" y2="599.88" style="stroke:#A0A0A0;stroke-width:10.00"/>
	<line x1="1262.63" y1="597.57" x2="1313.41" y2="592.87" style="stroke:#A0A0A0;stroke-width:10.00"/>
	<line x1="1338.84" y1="590.56" x2="1356.30" y2="588.96" style="stroke:#A0A0A0;stroke-width:10.00"/>
	<line x1="1356.30" y1="588.96" x2="1356.30" y2="588.96" style="stroke:#A0A0A0;stroke-width:10.00"/>
	<line x1="1356.30" y1="588.96" x2="1356.30" y2="588.96" style="stroke:#A0A0A0;stroke-width:10.00"/>
	<line x1="1356.30" y1="588.96" x2="1389.70" y2="587.77" style="stroke:#A0A0A0;stroke-width:10.00"/>
	<line x1="1415.21" y1="586.89" x2="1466.23" y2="585.06" style="stroke:#A0A0A0;stroke-width:10.00"/>
	<line x1="1491.74" y1="584.18" x2="1542.69" y2="582.35" style="stroke:#A0A0A0;stroke-width:10.00"/>
	<line x1="1568.20" y1="581.47" x2="1589.88" y2="580.67" style="stroke:#A0A0A0;stroke-width:10.00"/>
	<line x1="1589.88" y1="580.67" x2="1589.88" y2="580.67" style="stroke:#A0A0A0;stroke-width:10.00"/>
	<line x1="1589.88" y1="580.67" x2="1589.88" y2="580.67" style="stroke:#A0A0A0;stroke-width:10.00"/>
	<line x1="1589.88" y1="580.67" x2="1619.22" y2="580.11" style="stroke:#A0A0A0;stroke-width:10.00"/>
	<line x1="1644.73" y1="579.56" x2="1695.75" y2="578.60" style="stroke:#A0A0A0;stroke-width:10.00"/>
	<line x1="1721.26" y1="578.04" x2="1772.28" y2="577.00" style="stroke:#A0A0A0;stroke-width:10.00"/>
	<line x1="1797.79" y1="576.53" x2="1823.54" y2="575.97" style="stroke:#A0A0A0;stroke-width:10.00"/>
	<line x1="1823.54" y1="575.97" x2="1823.54" y2="575.97" style="stroke:#A0A0A0;stroke-width:10.00"/>
	<line x1="1823.54" y1="575.97" x2="1823.54" y2="575.97" style="stroke:#A0A0A0;stroke-width:10.00"/>
	<line x1="1823.54" y1="575.97" x2="1848.82" y2="575.89" style="stroke:#A0A0A0;stroke-width:10.00"/>
	<line x1="1874.33" y1="575.73" x2="1925.35" y2="575.49" style="stroke:#A0A0A0;stroke-width:10.00"/>
	<line x1="1950.86" y1="575.33" x2="2001.88" y2="575.09" style="stroke:#A0A0A0;stroke-width:10.00"/>
	<line x1="2027.39" y1="574.93" x2="2057.13" y2="574.77" style="stroke:#A0A0A0;stroke-width:10.00"/>
	<line x1="2057.13" y1="574.77" x2="2057.13" y2="574.77" style="stroke:#A0A0A0;stroke-width:10.00"/>
	<line x1="2057.13" y1="574.77" x2="2057.13" y2="574.77" style="stroke:#A0A0A0;stroke-width:10.00"/>
	<line x1="2057.13" y1="574.77" x2="2078.33" y2="573.42" style="stroke:#A0A0A0;stroke-width:10.00"/>
	<line x1="2103.84" y1="571.82" x2="2154.79" y2="568.63" style="stroke:#A0A0A0;stroke-width:10.00"/>
	<line x1="2180.22" y1="567.04" x2="2231.16" y2="563.85" style="stroke:#A0A0A0;stroke-width:10.00"/>
	<line x1="2256.67" y1="562.26" x2="2290.79" y2="560.10" style="stroke:#A0A0A0;stroke-width:10.00"/>
	<line x1="2290.79" y1="560.10" x2="2290.79" y2="560.10" style="stroke:#A0A0A0;stroke-width:10.00"/>
	<line x1="2290.79" y1="560.10" x2="2290.79" y2="560.10" style="stroke:#A0A0A0;stroke-width:10.00"/>
	<line x1="365.68" y1="1717.22" x2="330.29" y2="1717.22" style="stroke:#000000;stroke-width:4.00"/>
	<text x="312.51" y="1734.74" style="font-family:'Helvetica';font-size:49.99px;fill:#000000" text-anchor="end">25</text>
	<line x1="365.68" y1="1466.67" x2="330.29" y2="1466.67" style="stroke:#000000;stroke-width:4.00"/>
	<text x="312.51" y="1484.18" style="font-family:'Helvetica';font-size:49.99px;fill:#000000" text-anchor="end">30</text>
	<line x1="365.68" y1="1216.19" x2="330.29" y2="1216.19" style="stroke:#000000;stroke-width:4.00"/>
	<text x="312.51" y="1233.70" style="font-family:'Helvetica';font-size:49.99px;fill:#000000" text-anchor="end">35</text>
	<line x1="365.68" y1="965.63" x2="330.29" y2="965.63" style="stroke:#000000;stroke-width:4.00"/>
	<text x="312.51" y="983.15" style="font-family:'Helvetica';font-size:49.99px;fill:#000000" text-anchor="end">40</text>
	<line x1="365.68" y1="715.08" x2="330.29" y2="715.08" style="stroke:#000000;stroke-width:4.00"/>
	<text x="312.51" y="732.59" style="font-family:'Helvetica';font-size:49.99px;fill:#000000" text-anchor="end">45</text>
	<line x1="365.68" y1="464.52" x2="330.29" y2="464.52" style="stroke:#000000;stroke-width:4.00"/>
	<text x="312.51" y="482.04" style="font-family:'Helvetica';font-size:49.99px;fill:#000000" text-anchor="end">50</text>
	<line x1="365.68" y1="1717.22" x2="365.68" y2="364.31" style="stroke:#000000;stroke-width:4.00"/>
	<text x="136.21" y="1002.54" style="font-family:'Helvetica';font-size:60.03px;fill:#000000" transform="rotate(-90 136.21,1002.54)" text-anchor="middle">ISEI-88, employed only</text>
	<line x1="421.81" y1="1773.34" x2="421.81" y2="1808.82" style="stroke:#000000;stroke-width:4.00"/>
	<text x="421.81" y="1861.46" style="font-family:'Helvetica';font-size:49.99px;fill:#000000" text-anchor="middle">2007</text>
	<line x1="889.05" y1="1773.34" x2="889.05" y2="1808.82" style="stroke:#000000;stroke-width:4.00"/>
	<text x="889.05" y="1861.46" style="font-family:'Helvetica';font-size:49.99px;fill:#000000" text-anchor="middle">2009</text>
	<line x1="1356.30" y1="1773.34" x2="1356.30" y2="1808.82" style="stroke:#000000;stroke-width:4.00"/>
	<text x="1356.30" y="1861.46" style="font-family:'Helvetica';font-size:49.99px;fill:#000000" text-anchor="middle">2011</text>
	<line x1="1823.54" y1="1773.34" x2="1823.54" y2="1808.82" style="stroke:#000000;stroke-width:4.00"/>
	<text x="1823.54" y="1861.46" style="font-family:'Helvetica';font-size:49.99px;fill:#000000" text-anchor="middle">2013</text>
	<line x1="2290.79" y1="1773.34" x2="2290.79" y2="1808.82" style="stroke:#000000;stroke-width:4.00"/>
	<text x="2290.79" y="1861.46" style="font-family:'Helvetica';font-size:49.99px;fill:#000000" text-anchor="middle">2015</text>
	<line x1="421.81" y1="1773.34" x2="2290.79" y2="1773.34" style="stroke:#000000;stroke-width:4.00"/>
	<text x="1318.03" y="2003.86" style="font-family:'Helvetica';font-size:60.03px;fill:#000000" text-anchor="middle">Year</text>
	<text x="145.41" y="2248.05" style="font-family:'Helvetica';font-size:60.03px;fill:#000000">Arr. cohort: </text>
	<text x="536.36" y="2248.05" style="font-family:'Helvetica';font-size:60.03px;fill:#000000">1964-73</text>
	<text x="845.12" y="2248.05" style="font-family:'Helvetica';font-size:60.03px;fill:#000000">1974-83</text>
	<text x="1153.89" y="2248.05" style="font-family:'Helvetica';font-size:60.03px;fill:#000000">1984-93</text>
	<text x="1462.65" y="2248.05" style="font-family:'Helvetica';font-size:60.03px;fill:#000000">1994-03</text>
	<text x="1771.41" y="2248.05" style="font-family:'Helvetica';font-size:60.03px;fill:#000000">2004-10</text>
	<text x="2080.17" y="2248.05" style="font-family:'Helvetica';font-size:60.03px;fill:#000000">German</text>
	<text x="536.36" y="2396.65" style="font-family:'Helvetica';font-size:60.03px;fill:#000000">incl. nat.</text>
	<text x="845.12" y="2396.65" style="font-family:'Helvetica';font-size:60.03px;fill:#000000">incl. nat.</text>
	<text x="1153.89" y="2396.65" style="font-family:'Helvetica';font-size:60.03px;fill:#000000">incl. nat.</text>
	<text x="1462.65" y="2396.65" style="font-family:'Helvetica';font-size:60.03px;fill:#000000">incl. nat.</text>
	<text x="1771.41" y="2396.65" style="font-family:'Helvetica';font-size:60.03px;fill:#000000">incl. nat.</text>
	<line x1="536.36" y1="2152.73" x2="737.26" y2="2152.73" style="stroke:#E69F00;stroke-width:10.00"/>
	<line x1="845.12" y1="2152.73" x2="1046.02" y2="2152.73" style="stroke:#56B4E9;stroke-width:10.00"/>
	<line x1="1153.89" y1="2152.73" x2="1354.78" y2="2152.73" style="stroke:#009E73;stroke-width:10.00"/>
	<line x1="1462.65" y1="2152.73" x2="1663.54" y2="2152.73" style="stroke:#D55E00;stroke-width:10.00"/>
	<line x1="1771.41" y1="2152.73" x2="1972.30" y2="2152.73" style="stroke:#CC79A7;stroke-width:10.00"/>
	<line x1="2080.17" y1="2152.73" x2="2131.19" y2="2152.73" style="stroke:#A0A0A0;stroke-width:10.00"/>
	<line x1="2156.70" y1="2152.73" x2="2207.72" y2="2152.73" style="stroke:#A0A0A0;stroke-width:10.00"/>
	<line x1="2233.23" y1="2152.73" x2="2278.03" y2="2152.73" style="stroke:#A0A0A0;stroke-width:10.00"/>
	<line x1="536.36" y1="2301.32" x2="556.77" y2="2301.32" style="stroke:#E69F00;stroke-width:10.00"/>
	<line x1="574.63" y1="2301.32" x2="595.04" y2="2301.32" style="stroke:#E69F00;stroke-width:10.00"/>
	<line x1="612.90" y1="2301.32" x2="633.31" y2="2301.32" style="stroke:#E69F00;stroke-width:10.00"/>
	<line x1="651.16" y1="2301.32" x2="671.57" y2="2301.32" style="stroke:#E69F00;stroke-width:10.00"/>
	<line x1="689.43" y1="2301.32" x2="709.84" y2="2301.32" style="stroke:#E69F00;stroke-width:10.00"/>
	<line x1="727.70" y1="2301.32" x2="737.26" y2="2301.32" style="stroke:#E69F00;stroke-width:10.00"/>
	<line x1="845.12" y1="2301.32" x2="865.53" y2="2301.32" style="stroke:#56B4E9;stroke-width:10.00"/>
	<line x1="883.39" y1="2301.32" x2="903.80" y2="2301.32" style="stroke:#56B4E9;stroke-width:10.00"/>
	<line x1="921.66" y1="2301.32" x2="942.07" y2="2301.32" style="stroke:#56B4E9;stroke-width:10.00"/>
	<line x1="959.92" y1="2301.32" x2="980.33" y2="2301.32" style="stroke:#56B4E9;stroke-width:10.00"/>
	<line x1="998.19" y1="2301.32" x2="1018.60" y2="2301.32" style="stroke:#56B4E9;stroke-width:10.00"/>
	<line x1="1036.46" y1="2301.32" x2="1046.02" y2="2301.32" style="stroke:#56B4E9;stroke-width:10.00"/>
	<line x1="1153.89" y1="2301.32" x2="1174.29" y2="2301.32" style="stroke:#009E73;stroke-width:10.00"/>
	<line x1="1192.15" y1="2301.32" x2="1212.56" y2="2301.32" style="stroke:#009E73;stroke-width:10.00"/>
	<line x1="1230.42" y1="2301.32" x2="1250.83" y2="2301.32" style="stroke:#009E73;stroke-width:10.00"/>
	<line x1="1268.68" y1="2301.32" x2="1289.09" y2="2301.32" style="stroke:#009E73;stroke-width:10.00"/>
	<line x1="1306.95" y1="2301.32" x2="1327.36" y2="2301.32" style="stroke:#009E73;stroke-width:10.00"/>
	<line x1="1345.22" y1="2301.32" x2="1354.78" y2="2301.32" style="stroke:#009E73;stroke-width:10.00"/>
	<line x1="1462.65" y1="2301.32" x2="1483.05" y2="2301.32" style="stroke:#D55E00;stroke-width:10.00"/>
	<line x1="1500.91" y1="2301.32" x2="1521.32" y2="2301.32" style="stroke:#D55E00;stroke-width:10.00"/>
	<line x1="1539.18" y1="2301.32" x2="1559.59" y2="2301.32" style="stroke:#D55E00;stroke-width:10.00"/>
	<line x1="1577.44" y1="2301.32" x2="1597.85" y2="2301.32" style="stroke:#D55E00;stroke-width:10.00"/>
	<line x1="1615.71" y1="2301.32" x2="1636.12" y2="2301.32" style="stroke:#D55E00;stroke-width:10.00"/>
	<line x1="1653.98" y1="2301.32" x2="1663.54" y2="2301.32" style="stroke:#D55E00;stroke-width:10.00"/>
	<line x1="1771.41" y1="2301.32" x2="1791.81" y2="2301.32" style="stroke:#CC79A7;stroke-width:10.00"/>
	<line x1="1809.67" y1="2301.32" x2="1830.08" y2="2301.32" style="stroke:#CC79A7;stroke-width:10.00"/>
	<line x1="1847.94" y1="2301.32" x2="1868.35" y2="2301.32" style="stroke:#CC79A7;stroke-width:10.00"/>
	<line x1="1886.20" y1="2301.32" x2="1906.61" y2="2301.32" style="stroke:#CC79A7;stroke-width:10.00"/>
	<line x1="1924.47" y1="2301.32" x2="1944.88" y2="2301.32" style="stroke:#CC79A7;stroke-width:10.00"/>
	<line x1="1962.74" y1="2301.32" x2="1972.30" y2="2301.32" style="stroke:#CC79A7;stroke-width:10.00"/>
	<text x="1356.30" y="239.12" style="font-family:'Helvetica';font-size:60.03px;fill:#000000" text-anchor="middle">Means</text>
	<text x="1356.30" y="154.88" style="font-family:'Helvetica';font-size:90.01px;fill:#000000" text-anchor="middle">ISEI-88, employed only, Men</text>
</svg>
