<?xml version="1.0" encoding="UTF-8" standalone="no"?>
<!-- This is a Stata 15.1 generated SVG file (http://www.stata.com) -->

<svg version="1.1" width="3.54in" height="3.54in" viewBox="0 0 2551 2551" xmlns="http://www.w3.org/2000/svg" xmlns:xlink="http://www.w3.org/1999/xlink">
	<desc>Stata Graph - Graph</desc>
	<rect x="0" y="0" width="2551" height="2551" style="fill:#FFFFFF;stroke:none"/>
	<rect x="0.00" y="0.08" width="2551.00" height="2550.92" style="fill:#FFFFFF"/>
	<rect x="2.55" y="2.63" width="2545.90" height="2545.82" style="fill:none;stroke:#FFFFFF;stroke-width:5.10"/>
	<line x1="394.86" y1="1717.22" x2="2346.91" y2="1717.22" style="stroke:#E8E8E8;stroke-width:4.00"/>
	<line x1="394.86" y1="1570.86" x2="2346.91" y2="1570.86" style="stroke:#E8E8E8;stroke-width:4.00"/>
	<line x1="394.86" y1="1424.49" x2="2346.91" y2="1424.49" style="stroke:#E8E8E8;stroke-width:4.00"/>
	<line x1="394.86" y1="1278.05" x2="2346.91" y2="1278.05" style="stroke:#E8E8E8;stroke-width:4.00"/>
	<line x1="394.86" y1="1131.69" x2="2346.91" y2="1131.69" style="stroke:#E8E8E8;stroke-width:4.00"/>
	<line x1="394.86" y1="985.32" x2="2346.91" y2="985.32" style="stroke:#E8E8E8;stroke-width:4.00"/>
	<line x1="394.86" y1="838.88" x2="2346.91" y2="838.88" style="stroke:#E8E8E8;stroke-width:4.00"/>
	<line x1="394.86" y1="692.52" x2="2346.91" y2="692.52" style="stroke:#E8E8E8;stroke-width:4.00"/>
	<line x1="394.86" y1="546.07" x2="2346.91" y2="546.07" style="stroke:#E8E8E8;stroke-width:4.00"/>
	<line x1="394.86" y1="399.71" x2="2346.91" y2="399.71" style="stroke:#E8E8E8;stroke-width:4.00"/>
	<line x1="394.86" y1="253.35" x2="2346.91" y2="253.35" style="stroke:#E8E8E8;stroke-width:4.00"/>
	<line x1="450.98" y1="1773.34" x2="450.98" y2="197.22" style="stroke:#E8E8E8;stroke-width:4.00"/>
	<line x1="910.89" y1="1773.34" x2="910.89" y2="197.22" style="stroke:#E8E8E8;stroke-width:4.00"/>
	<line x1="1370.89" y1="1773.34" x2="1370.89" y2="197.22" style="stroke:#E8E8E8;stroke-width:4.00"/>
	<line x1="1830.88" y1="1773.34" x2="1830.88" y2="197.22" style="stroke:#E8E8E8;stroke-width:4.00"/>
	<line x1="2290.79" y1="1773.34" x2="2290.79" y2="197.22" style="stroke:#E8E8E8;stroke-width:4.00"/>
	<line x1="450.90" y1="881.29" x2="680.90" y2="893.25" stroke-linecap="round" style="stroke:#56B4E9;stroke-width:10.00"/>
	<line x1="680.90" y1="893.25" x2="910.89" y2="834.81" stroke-linecap="round" style="stroke:#56B4E9;stroke-width:10.00"/>
	<line x1="910.89" y1="834.81" x2="1140.89" y2="765.54" stroke-linecap="round" style="stroke:#56B4E9;stroke-width:10.00"/>
	<line x1="1140.89" y1="765.54" x2="1370.81" y2="804.20" stroke-linecap="round" style="stroke:#56B4E9;stroke-width:10.00"/>
	<line x1="1370.81" y1="804.20" x2="1600.80" y2="835.93" stroke-linecap="round" style="stroke:#56B4E9;stroke-width:10.00"/>
	<line x1="1600.80" y1="835.93" x2="1830.80" y2="853.79" stroke-linecap="round" style="stroke:#56B4E9;stroke-width:10.00"/>
	<line x1="450.90" y1="784.03" x2="450.90" y2="784.03" style="stroke:#56B4E9;stroke-width:10.00"/>
	<line x1="450.90" y1="784.03" x2="450.90" y2="784.03" style="stroke:#56B4E9;stroke-width:10.00"/>
	<line x1="450.90" y1="784.03" x2="450.90" y2="784.03" style="stroke:#56B4E9;stroke-width:10.00"/>
	<line x1="450.90" y1="784.03" x2="471.31" y2="783.95" style="stroke:#56B4E9;stroke-width:10.00"/>
	<line x1="489.17" y1="783.95" x2="509.58" y2="783.87" style="stroke:#56B4E9;stroke-width:10.00"/>
	<line x1="527.44" y1="783.87" x2="547.84" y2="783.79" style="stroke:#56B4E9;stroke-width:10.00"/>
	<line x1="565.70" y1="783.79" x2="586.11" y2="783.72" style="stroke:#56B4E9;stroke-width:10.00"/>
	<line x1="603.97" y1="783.72" x2="624.38" y2="783.64" style="stroke:#56B4E9;stroke-width:10.00"/>
	<line x1="642.23" y1="783.64" x2="662.64" y2="783.56" style="stroke:#56B4E9;stroke-width:10.00"/>
	<line x1="680.50" y1="783.56" x2="680.90" y2="783.56" style="stroke:#56B4E9;stroke-width:10.00"/>
	<line x1="680.90" y1="783.56" x2="680.90" y2="783.56" style="stroke:#56B4E9;stroke-width:10.00"/>
	<line x1="680.90" y1="783.56" x2="680.90" y2="783.56" style="stroke:#56B4E9;stroke-width:10.00"/>
	<line x1="680.90" y1="783.56" x2="680.90" y2="783.56" style="stroke:#56B4E9;stroke-width:10.00"/>
	<line x1="680.90" y1="783.56" x2="700.91" y2="782.36" style="stroke:#56B4E9;stroke-width:10.00"/>
	<line x1="718.69" y1="781.24" x2="739.10" y2="780.05" style="stroke:#56B4E9;stroke-width:10.00"/>
	<line x1="756.87" y1="779.01" x2="777.28" y2="777.82" style="stroke:#56B4E9;stroke-width:10.00"/>
	<line x1="795.06" y1="776.70" x2="815.47" y2="775.50" style="stroke:#56B4E9;stroke-width:10.00"/>
	<line x1="833.25" y1="774.39" x2="853.66" y2="773.19" style="stroke:#56B4E9;stroke-width:10.00"/>
	<line x1="871.43" y1="772.08" x2="891.84" y2="770.88" style="stroke:#56B4E9;stroke-width:10.00"/>
	<line x1="909.62" y1="769.76" x2="910.89" y2="769.68" style="stroke:#56B4E9;stroke-width:10.00"/>
	<line x1="910.89" y1="769.68" x2="910.89" y2="769.68" style="stroke:#56B4E9;stroke-width:10.00"/>
	<line x1="910.89" y1="769.68" x2="910.89" y2="769.68" style="stroke:#56B4E9;stroke-width:10.00"/>
	<line x1="910.89" y1="769.68" x2="910.89" y2="769.68" style="stroke:#56B4E9;stroke-width:10.00"/>
	<line x1="910.89" y1="769.68" x2="929.39" y2="764.66" style="stroke:#56B4E9;stroke-width:10.00"/>
	<line x1="946.61" y1="759.96" x2="966.30" y2="754.62" style="stroke:#56B4E9;stroke-width:10.00"/>
	<line x1="983.52" y1="749.91" x2="1003.21" y2="744.57" style="stroke:#56B4E9;stroke-width:10.00"/>
	<line x1="1020.43" y1="739.87" x2="1040.20" y2="734.53" style="stroke:#56B4E9;stroke-width:10.00"/>
	<line x1="1057.42" y1="729.83" x2="1077.11" y2="724.48" style="stroke:#56B4E9;stroke-width:10.00"/>
	<line x1="1094.33" y1="719.78" x2="1114.02" y2="714.36" style="stroke:#56B4E9;stroke-width:10.00"/>
	<line x1="1131.24" y1="709.74" x2="1140.89" y2="707.11" style="stroke:#56B4E9;stroke-width:10.00"/>
	<line x1="1140.89" y1="707.11" x2="1140.89" y2="707.11" style="stroke:#56B4E9;stroke-width:10.00"/>
	<line x1="1140.89" y1="707.11" x2="1140.89" y2="707.11" style="stroke:#56B4E9;stroke-width:10.00"/>
	<line x1="1140.89" y1="707.11" x2="1140.89" y2="707.11" style="stroke:#56B4E9;stroke-width:10.00"/>
	<line x1="1140.89" y1="707.11" x2="1151.25" y2="707.90" style="stroke:#56B4E9;stroke-width:10.00"/>
	<line x1="1169.11" y1="709.26" x2="1189.44" y2="710.85" style="stroke:#56B4E9;stroke-width:10.00"/>
	<line x1="1207.22" y1="712.21" x2="1227.63" y2="713.72" style="stroke:#56B4E9;stroke-width:10.00"/>
	<line x1="1245.41" y1="715.08" x2="1265.81" y2="716.67" style="stroke:#56B4E9;stroke-width:10.00"/>
	<line x1="1283.59" y1="718.03" x2="1304.00" y2="719.54" style="stroke:#56B4E9;stroke-width:10.00"/>
	<line x1="1321.78" y1="720.90" x2="1342.11" y2="722.41" style="stroke:#56B4E9;stroke-width:10.00"/>
	<line x1="1359.96" y1="723.85" x2="1370.81" y2="724.64" style="stroke:#56B4E9;stroke-width:10.00"/>
	<line x1="1370.81" y1="724.64" x2="1370.81" y2="724.64" style="stroke:#56B4E9;stroke-width:10.00"/>
	<line x1="1370.81" y1="724.64" x2="1370.81" y2="724.64" style="stroke:#56B4E9;stroke-width:10.00"/>
	<line x1="1370.81" y1="724.64" x2="1370.81" y2="724.64" style="stroke:#56B4E9;stroke-width:10.00"/>
	<line x1="1370.81" y1="724.64" x2="1380.29" y2="725.60" style="stroke:#56B4E9;stroke-width:10.00"/>
	<line x1="1398.07" y1="727.43" x2="1418.40" y2="729.59" style="stroke:#56B4E9;stroke-width:10.00"/>
	<line x1="1436.18" y1="731.42" x2="1456.43" y2="733.57" style="stroke:#56B4E9;stroke-width:10.00"/>
	<line x1="1474.21" y1="735.41" x2="1494.53" y2="737.48" style="stroke:#56B4E9;stroke-width:10.00"/>
	<line x1="1512.23" y1="739.39" x2="1532.56" y2="741.54" style="stroke:#56B4E9;stroke-width:10.00"/>
	<line x1="1550.26" y1="743.38" x2="1570.59" y2="745.53" style="stroke:#56B4E9;stroke-width:10.00"/>
	<line x1="1588.37" y1="747.44" x2="1600.80" y2="748.72" style="stroke:#56B4E9;stroke-width:10.00"/>
	<line x1="1600.80" y1="748.72" x2="1600.80" y2="748.72" style="stroke:#56B4E9;stroke-width:10.00"/>
	<line x1="1600.80" y1="748.72" x2="1600.80" y2="748.72" style="stroke:#56B4E9;stroke-width:10.00"/>
	<line x1="1600.80" y1="748.72" x2="1600.80" y2="748.72" style="stroke:#56B4E9;stroke-width:10.00"/>
	<line x1="1600.80" y1="748.72" x2="1608.69" y2="748.16" style="stroke:#56B4E9;stroke-width:10.00"/>
	<line x1="1626.47" y1="746.96" x2="1646.88" y2="745.53" style="stroke:#56B4E9;stroke-width:10.00"/>
	<line x1="1664.66" y1="744.33" x2="1685.07" y2="742.90" style="stroke:#56B4E9;stroke-width:10.00"/>
	<line x1="1702.85" y1="741.62" x2="1723.25" y2="740.19" style="stroke:#56B4E9;stroke-width:10.00"/>
	<line x1="1741.03" y1="738.99" x2="1761.44" y2="737.56" style="stroke:#56B4E9;stroke-width:10.00"/>
	<line x1="1779.22" y1="736.36" x2="1799.63" y2="734.93" style="stroke:#56B4E9;stroke-width:10.00"/>
	<line x1="1817.41" y1="733.73" x2="1830.80" y2="732.77" style="stroke:#56B4E9;stroke-width:10.00"/>
	<line x1="1830.80" y1="732.77" x2="1830.80" y2="732.77" style="stroke:#56B4E9;stroke-width:10.00"/>
	<line x1="1830.80" y1="732.77" x2="1830.80" y2="732.77" style="stroke:#56B4E9;stroke-width:10.00"/>
	<line x1="1830.80" y1="732.77" x2="1830.80" y2="732.77" style="stroke:#56B4E9;stroke-width:10.00"/>
	<line x1="450.90" y1="863.59" x2="680.90" y2="841.19" stroke-linecap="round" style="stroke:#009E73;stroke-width:10.00"/>
	<line x1="680.90" y1="841.19" x2="910.89" y2="865.67" stroke-linecap="round" style="stroke:#009E73;stroke-width:10.00"/>
	<line x1="910.89" y1="865.67" x2="1140.89" y2="841.59" stroke-linecap="round" style="stroke:#009E73;stroke-width:10.00"/>
	<line x1="1140.89" y1="841.59" x2="1370.81" y2="840.55" stroke-linecap="round" style="stroke:#009E73;stroke-width:10.00"/>
	<line x1="1370.81" y1="840.55" x2="1600.80" y2="783.48" stroke-linecap="round" style="stroke:#009E73;stroke-width:10.00"/>
	<line x1="1600.80" y1="783.48" x2="1830.80" y2="821.74" stroke-linecap="round" style="stroke:#009E73;stroke-width:10.00"/>
	<line x1="1830.80" y1="821.74" x2="2060.79" y2="786.98" stroke-linecap="round" style="stroke:#009E73;stroke-width:10.00"/>
	<line x1="2060.79" y1="786.98" x2="2290.79" y2="816.24" stroke-linecap="round" style="stroke:#009E73;stroke-width:10.00"/>
	<line x1="450.90" y1="706.71" x2="450.90" y2="706.71" style="stroke:#009E73;stroke-width:10.00"/>
	<line x1="450.90" y1="706.71" x2="450.90" y2="706.71" style="stroke:#009E73;stroke-width:10.00"/>
	<line x1="450.90" y1="706.71" x2="450.90" y2="706.71" style="stroke:#009E73;stroke-width:10.00"/>
	<line x1="450.90" y1="706.71" x2="471.31" y2="705.59" style="stroke:#009E73;stroke-width:10.00"/>
	<line x1="489.09" y1="704.55" x2="509.50" y2="703.44" style="stroke:#009E73;stroke-width:10.00"/>
	<line x1="527.28" y1="702.48" x2="547.68" y2="701.37" style="stroke:#009E73;stroke-width:10.00"/>
	<line x1="565.46" y1="700.33" x2="585.87" y2="699.21" style="stroke:#009E73;stroke-width:10.00"/>
	<line x1="603.65" y1="698.18" x2="624.06" y2="697.06" style="stroke:#009E73;stroke-width:10.00"/>
	<line x1="641.84" y1="696.10" x2="662.24" y2="694.91" style="stroke:#009E73;stroke-width:10.00"/>
	<line x1="680.02" y1="693.87" x2="680.90" y2="693.87" style="stroke:#009E73;stroke-width:10.00"/>
	<line x1="680.90" y1="693.87" x2="680.90" y2="693.87" style="stroke:#009E73;stroke-width:10.00"/>
	<line x1="680.90" y1="693.87" x2="680.90" y2="693.87" style="stroke:#009E73;stroke-width:10.00"/>
	<line x1="680.90" y1="693.87" x2="680.90" y2="693.87" style="stroke:#009E73;stroke-width:10.00"/>
	<line x1="680.90" y1="693.87" x2="700.35" y2="695.47" style="stroke:#009E73;stroke-width:10.00"/>
	<line x1="718.13" y1="696.90" x2="738.46" y2="698.58" style="stroke:#009E73;stroke-width:10.00"/>
	<line x1="756.24" y1="700.01" x2="776.56" y2="701.60" style="stroke:#009E73;stroke-width:10.00"/>
	<line x1="794.42" y1="703.12" x2="814.75" y2="704.71" style="stroke:#009E73;stroke-width:10.00"/>
	<line x1="832.53" y1="706.23" x2="852.86" y2="707.82" style="stroke:#009E73;stroke-width:10.00"/>
	<line x1="870.64" y1="709.26" x2="890.96" y2="710.93" style="stroke:#009E73;stroke-width:10.00"/>
	<line x1="908.74" y1="712.45" x2="910.89" y2="712.61" style="stroke:#009E73;stroke-width:10.00"/>
	<line x1="910.89" y1="712.61" x2="910.89" y2="712.61" style="stroke:#009E73;stroke-width:10.00"/>
	<line x1="910.89" y1="712.61" x2="910.89" y2="712.61" style="stroke:#009E73;stroke-width:10.00"/>
	<line x1="910.89" y1="712.61" x2="910.89" y2="712.61" style="stroke:#009E73;stroke-width:10.00"/>
	<line x1="910.89" y1="712.61" x2="929.15" y2="712.21" style="stroke:#009E73;stroke-width:10.00"/>
	<line x1="947.01" y1="711.81" x2="967.42" y2="711.41" style="stroke:#009E73;stroke-width:10.00"/>
	<line x1="985.27" y1="711.01" x2="1005.68" y2="710.53" style="stroke:#009E73;stroke-width:10.00"/>
	<line x1="1023.54" y1="710.13" x2="1043.95" y2="709.74" style="stroke:#009E73;stroke-width:10.00"/>
	<line x1="1061.81" y1="709.34" x2="1082.22" y2="708.94" style="stroke:#009E73;stroke-width:10.00"/>
	<line x1="1100.07" y1="708.62" x2="1120.48" y2="708.14" style="stroke:#009E73;stroke-width:10.00"/>
	<line x1="1138.34" y1="707.74" x2="1140.89" y2="707.74" style="stroke:#009E73;stroke-width:10.00"/>
	<line x1="1140.89" y1="707.74" x2="1140.89" y2="707.74" style="stroke:#009E73;stroke-width:10.00"/>
	<line x1="1140.89" y1="707.74" x2="1140.89" y2="707.74" style="stroke:#009E73;stroke-width:10.00"/>
	<line x1="1140.89" y1="707.74" x2="1140.89" y2="707.74" style="stroke:#009E73;stroke-width:10.00"/>
	<line x1="1140.89" y1="707.74" x2="1158.67" y2="706.23" style="stroke:#009E73;stroke-width:10.00"/>
	<line x1="1176.45" y1="704.71" x2="1196.78" y2="703.04" style="stroke:#009E73;stroke-width:10.00"/>
	<line x1="1214.55" y1="701.53" x2="1234.88" y2="699.85" style="stroke:#009E73;stroke-width:10.00"/>
	<line x1="1252.66" y1="698.42" x2="1272.99" y2="696.66" style="stroke:#009E73;stroke-width:10.00"/>
	<line x1="1290.85" y1="695.15" x2="1311.18" y2="693.47" style="stroke:#009E73;stroke-width:10.00"/>
	<line x1="1328.95" y1="691.96" x2="1349.28" y2="690.28" style="stroke:#009E73;stroke-width:10.00"/>
	<line x1="1367.06" y1="688.77" x2="1370.81" y2="688.45" style="stroke:#009E73;stroke-width:10.00"/>
	<line x1="1370.81" y1="688.45" x2="1370.81" y2="688.45" style="stroke:#009E73;stroke-width:10.00"/>
	<line x1="1370.81" y1="688.45" x2="1370.81" y2="688.45" style="stroke:#009E73;stroke-width:10.00"/>
	<line x1="1370.81" y1="688.45" x2="1370.81" y2="688.45" style="stroke:#009E73;stroke-width:10.00"/>
	<line x1="1370.81" y1="688.45" x2="1387.15" y2="685.26" style="stroke:#009E73;stroke-width:10.00"/>
	<line x1="1404.69" y1="681.75" x2="1424.70" y2="677.85" style="stroke:#009E73;stroke-width:10.00"/>
	<line x1="1442.16" y1="674.34" x2="1462.17" y2="670.43" style="stroke:#009E73;stroke-width:10.00"/>
	<line x1="1479.71" y1="666.93" x2="1499.72" y2="663.02" style="stroke:#009E73;stroke-width:10.00"/>
	<line x1="1517.25" y1="659.51" x2="1537.26" y2="655.61" style="stroke:#009E73;stroke-width:10.00"/>
	<line x1="1554.80" y1="652.18" x2="1574.81" y2="648.19" style="stroke:#009E73;stroke-width:10.00"/>
	<line x1="1592.27" y1="644.77" x2="1600.80" y2="643.09" style="stroke:#009E73;stroke-width:10.00"/>
	<line x1="1600.80" y1="643.09" x2="1600.80" y2="643.09" style="stroke:#009E73;stroke-width:10.00"/>
	<line x1="1600.80" y1="643.09" x2="1600.80" y2="643.09" style="stroke:#009E73;stroke-width:10.00"/>
	<line x1="1600.80" y1="643.09" x2="1600.80" y2="643.09" style="stroke:#009E73;stroke-width:10.00"/>
	<line x1="1600.80" y1="643.09" x2="1612.52" y2="643.73" style="stroke:#009E73;stroke-width:10.00"/>
	<line x1="1630.38" y1="644.77" x2="1650.71" y2="645.88" style="stroke:#009E73;stroke-width:10.00"/>
	<line x1="1668.57" y1="646.92" x2="1688.89" y2="648.03" style="stroke:#009E73;stroke-width:10.00"/>
	<line x1="1706.75" y1="649.07" x2="1727.08" y2="650.19" style="stroke:#009E73;stroke-width:10.00"/>
	<line x1="1744.94" y1="651.14" x2="1765.35" y2="652.34" style="stroke:#009E73;stroke-width:10.00"/>
	<line x1="1783.13" y1="653.30" x2="1803.53" y2="654.49" style="stroke:#009E73;stroke-width:10.00"/>
	<line x1="1821.31" y1="655.45" x2="1830.80" y2="656.01" style="stroke:#009E73;stroke-width:10.00"/>
	<line x1="1830.80" y1="656.01" x2="1830.80" y2="656.01" style="stroke:#009E73;stroke-width:10.00"/>
	<line x1="1830.80" y1="656.01" x2="1830.80" y2="656.01" style="stroke:#009E73;stroke-width:10.00"/>
	<line x1="1830.80" y1="656.01" x2="1830.80" y2="656.01" style="stroke:#009E73;stroke-width:10.00"/>
	<line x1="1830.80" y1="656.01" x2="1841.72" y2="656.01" style="stroke:#009E73;stroke-width:10.00"/>
	<line x1="1859.58" y1="656.09" x2="1879.99" y2="656.09" style="stroke:#009E73;stroke-width:10.00"/>
	<line x1="1897.84" y1="656.17" x2="1918.25" y2="656.24" style="stroke:#009E73;stroke-width:10.00"/>
	<line x1="1936.11" y1="656.24" x2="1956.52" y2="656.32" style="stroke:#009E73;stroke-width:10.00"/>
	<line x1="1974.38" y1="656.32" x2="1994.78" y2="656.40" style="stroke:#009E73;stroke-width:10.00"/>
	<line x1="2012.64" y1="656.48" x2="2033.05" y2="656.56" style="stroke:#009E73;stroke-width:10.00"/>
	<line x1="2050.91" y1="656.56" x2="2060.79" y2="656.64" style="stroke:#009E73;stroke-width:10.00"/>
	<line x1="2060.79" y1="656.64" x2="2060.79" y2="656.64" style="stroke:#009E73;stroke-width:10.00"/>
	<line x1="2060.79" y1="656.64" x2="2060.79" y2="656.64" style="stroke:#009E73;stroke-width:10.00"/>
	<line x1="2060.79" y1="656.64" x2="2060.79" y2="656.64" style="stroke:#009E73;stroke-width:10.00"/>
	<line x1="2060.79" y1="656.64" x2="2071.32" y2="656.88" style="stroke:#009E73;stroke-width:10.00"/>
	<line x1="2089.17" y1="657.28" x2="2109.58" y2="657.76" style="stroke:#009E73;stroke-width:10.00"/>
	<line x1="2127.44" y1="658.16" x2="2147.85" y2="658.56" style="stroke:#009E73;stroke-width:10.00"/>
	<line x1="2165.71" y1="658.96" x2="2186.12" y2="659.43" style="stroke:#009E73;stroke-width:10.00"/>
	<line x1="2203.97" y1="659.91" x2="2224.38" y2="660.39" style="stroke:#009E73;stroke-width:10.00"/>
	<line x1="2242.24" y1="660.71" x2="2262.65" y2="661.19" style="stroke:#009E73;stroke-width:10.00"/>
	<line x1="2280.51" y1="661.67" x2="2290.79" y2="661.90" style="stroke:#009E73;stroke-width:10.00"/>
	<line x1="2290.79" y1="661.90" x2="2290.79" y2="661.90" style="stroke:#009E73;stroke-width:10.00"/>
	<line x1="2290.79" y1="661.90" x2="2290.79" y2="661.90" style="stroke:#009E73;stroke-width:10.00"/>
	<line x1="2290.79" y1="661.90" x2="2290.79" y2="661.90" style="stroke:#009E73;stroke-width:10.00"/>
	<line x1="450.90" y1="1026.70" x2="680.90" y2="1002.62" stroke-linecap="round" style="stroke:#D55E00;stroke-width:10.00"/>
	<line x1="680.90" y1="1002.62" x2="910.89" y2="946.74" stroke-linecap="round" style="stroke:#D55E00;stroke-width:10.00"/>
	<line x1="910.89" y1="946.74" x2="1140.89" y2="935.66" stroke-linecap="round" style="stroke:#D55E00;stroke-width:10.00"/>
	<line x1="1140.89" y1="935.66" x2="1370.81" y2="890.70" stroke-linecap="round" style="stroke:#D55E00;stroke-width:10.00"/>
	<line x1="1370.81" y1="890.70" x2="1600.80" y2="853.95" stroke-linecap="round" style="stroke:#D55E00;stroke-width:10.00"/>
	<line x1="1600.80" y1="853.95" x2="1830.80" y2="841.51" stroke-linecap="round" style="stroke:#D55E00;stroke-width:10.00"/>
	<line x1="1830.80" y1="841.51" x2="2060.79" y2="842.63" stroke-linecap="round" style="stroke:#D55E00;stroke-width:10.00"/>
	<line x1="2060.79" y1="842.63" x2="2290.79" y2="803.57" stroke-linecap="round" style="stroke:#D55E00;stroke-width:10.00"/>
	<line x1="450.90" y1="896.92" x2="450.90" y2="896.92" style="stroke:#D55E00;stroke-width:10.00"/>
	<line x1="450.90" y1="896.92" x2="450.90" y2="896.92" style="stroke:#D55E00;stroke-width:10.00"/>
	<line x1="450.90" y1="896.92" x2="450.90" y2="896.92" style="stroke:#D55E00;stroke-width:10.00"/>
	<line x1="450.90" y1="896.92" x2="471.31" y2="896.04" style="stroke:#D55E00;stroke-width:10.00"/>
	<line x1="489.17" y1="895.24" x2="509.50" y2="894.36" style="stroke:#D55E00;stroke-width:10.00"/>
	<line x1="527.36" y1="893.57" x2="547.76" y2="892.69" style="stroke:#D55E00;stroke-width:10.00"/>
	<line x1="565.62" y1="891.89" x2="585.95" y2="890.94" style="stroke:#D55E00;stroke-width:10.00"/>
	<line x1="603.81" y1="890.22" x2="624.22" y2="889.26" style="stroke:#D55E00;stroke-width:10.00"/>
	<line x1="642.07" y1="888.47" x2="662.40" y2="887.59" style="stroke:#D55E00;stroke-width:10.00"/>
	<line x1="680.26" y1="886.79" x2="680.90" y2="886.71" style="stroke:#D55E00;stroke-width:10.00"/>
	<line x1="680.90" y1="886.71" x2="680.90" y2="886.71" style="stroke:#D55E00;stroke-width:10.00"/>
	<line x1="680.90" y1="886.71" x2="680.90" y2="886.71" style="stroke:#D55E00;stroke-width:10.00"/>
	<line x1="680.90" y1="886.71" x2="680.90" y2="886.71" style="stroke:#D55E00;stroke-width:10.00"/>
	<line x1="680.90" y1="886.71" x2="700.35" y2="883.28" style="stroke:#D55E00;stroke-width:10.00"/>
	<line x1="717.97" y1="880.17" x2="738.06" y2="876.67" style="stroke:#D55E00;stroke-width:10.00"/>
	<line x1="755.60" y1="873.56" x2="775.69" y2="870.05" style="stroke:#D55E00;stroke-width:10.00"/>
	<line x1="793.31" y1="866.94" x2="813.40" y2="863.43" style="stroke:#D55E00;stroke-width:10.00"/>
	<line x1="831.01" y1="860.32" x2="851.10" y2="856.82" style="stroke:#D55E00;stroke-width:10.00"/>
	<line x1="868.64" y1="853.71" x2="888.73" y2="850.12" style="stroke:#D55E00;stroke-width:10.00"/>
	<line x1="906.35" y1="847.09" x2="910.89" y2="846.29" style="stroke:#D55E00;stroke-width:10.00"/>
	<line x1="910.89" y1="846.29" x2="910.89" y2="846.29" style="stroke:#D55E00;stroke-width:10.00"/>
	<line x1="910.89" y1="846.29" x2="910.89" y2="846.29" style="stroke:#D55E00;stroke-width:10.00"/>
	<line x1="910.89" y1="846.29" x2="910.89" y2="846.29" style="stroke:#D55E00;stroke-width:10.00"/>
	<line x1="910.89" y1="846.29" x2="926.60" y2="844.30" style="stroke:#D55E00;stroke-width:10.00"/>
	<line x1="944.30" y1="841.91" x2="964.55" y2="839.28" style="stroke:#D55E00;stroke-width:10.00"/>
	<line x1="982.25" y1="836.97" x2="1002.49" y2="834.26" style="stroke:#D55E00;stroke-width:10.00"/>
	<line x1="1020.19" y1="831.94" x2="1040.44" y2="829.31" style="stroke:#D55E00;stroke-width:10.00"/>
	<line x1="1058.14" y1="827.00" x2="1078.39" y2="824.29" style="stroke:#D55E00;stroke-width:10.00"/>
	<line x1="1096.09" y1="821.98" x2="1116.34" y2="819.35" style="stroke:#D55E00;stroke-width:10.00"/>
	<line x1="1134.03" y1="817.04" x2="1140.89" y2="816.16" style="stroke:#D55E00;stroke-width:10.00"/>
	<line x1="1140.89" y1="816.16" x2="1140.89" y2="816.16" style="stroke:#D55E00;stroke-width:10.00"/>
	<line x1="1140.89" y1="816.16" x2="1140.89" y2="816.16" style="stroke:#D55E00;stroke-width:10.00"/>
	<line x1="1140.89" y1="816.16" x2="1140.89" y2="816.16" style="stroke:#D55E00;stroke-width:10.00"/>
	<line x1="1140.89" y1="816.16" x2="1154.20" y2="814.49" style="stroke:#D55E00;stroke-width:10.00"/>
	<line x1="1171.90" y1="812.25" x2="1192.15" y2="809.70" style="stroke:#D55E00;stroke-width:10.00"/>
	<line x1="1209.85" y1="807.47" x2="1230.10" y2="804.92" style="stroke:#D55E00;stroke-width:10.00"/>
	<line x1="1247.80" y1="802.69" x2="1268.05" y2="800.14" style="stroke:#D55E00;stroke-width:10.00"/>
	<line x1="1285.82" y1="797.98" x2="1306.07" y2="795.43" style="stroke:#D55E00;stroke-width:10.00"/>
	<line x1="1323.77" y1="793.20" x2="1344.02" y2="790.65" style="stroke:#D55E00;stroke-width:10.00"/>
	<line x1="1361.80" y1="788.42" x2="1370.81" y2="787.30" style="stroke:#D55E00;stroke-width:10.00"/>
	<line x1="1370.81" y1="787.30" x2="1370.81" y2="787.30" style="stroke:#D55E00;stroke-width:10.00"/>
	<line x1="1370.81" y1="787.30" x2="1370.81" y2="787.30" style="stroke:#D55E00;stroke-width:10.00"/>
	<line x1="1370.81" y1="787.30" x2="1370.81" y2="787.30" style="stroke:#D55E00;stroke-width:10.00"/>
	<line x1="1370.81" y1="787.30" x2="1381.97" y2="785.71" style="stroke:#D55E00;stroke-width:10.00"/>
	<line x1="1399.67" y1="783.16" x2="1419.84" y2="780.29" style="stroke:#D55E00;stroke-width:10.00"/>
	<line x1="1437.53" y1="777.82" x2="1457.70" y2="774.95" style="stroke:#D55E00;stroke-width:10.00"/>
	<line x1="1475.40" y1="772.39" x2="1495.57" y2="769.53" style="stroke:#D55E00;stroke-width:10.00"/>
	<line x1="1513.27" y1="766.97" x2="1533.44" y2="764.10" style="stroke:#D55E00;stroke-width:10.00"/>
	<line x1="1551.14" y1="761.55" x2="1571.39" y2="758.68" style="stroke:#D55E00;stroke-width:10.00"/>
	<line x1="1589.08" y1="756.13" x2="1600.80" y2="754.46" style="stroke:#D55E00;stroke-width:10.00"/>
	<line x1="1600.80" y1="754.46" x2="1600.80" y2="754.46" style="stroke:#D55E00;stroke-width:10.00"/>
	<line x1="1600.80" y1="754.46" x2="1600.80" y2="754.46" style="stroke:#D55E00;stroke-width:10.00"/>
	<line x1="1600.80" y1="754.46" x2="1600.80" y2="754.46" style="stroke:#D55E00;stroke-width:10.00"/>
	<line x1="1600.80" y1="754.46" x2="1609.33" y2="754.06" style="stroke:#D55E00;stroke-width:10.00"/>
	<line x1="1627.19" y1="753.26" x2="1647.60" y2="752.39" style="stroke:#D55E00;stroke-width:10.00"/>
	<line x1="1665.46" y1="751.59" x2="1685.87" y2="750.63" style="stroke:#D55E00;stroke-width:10.00"/>
	<line x1="1703.72" y1="749.83" x2="1724.13" y2="748.96" style="stroke:#D55E00;stroke-width:10.00"/>
	<line x1="1741.91" y1="748.08" x2="1762.32" y2="747.20" style="stroke:#D55E00;stroke-width:10.00"/>
	<line x1="1780.18" y1="746.41" x2="1800.58" y2="745.45" style="stroke:#D55E00;stroke-width:10.00"/>
	<line x1="1818.36" y1="744.65" x2="1830.80" y2="744.09" style="stroke:#D55E00;stroke-width:10.00"/>
	<line x1="1830.80" y1="744.09" x2="1830.80" y2="744.09" style="stroke:#D55E00;stroke-width:10.00"/>
	<line x1="1830.80" y1="744.09" x2="1830.80" y2="744.09" style="stroke:#D55E00;stroke-width:10.00"/>
	<line x1="1830.80" y1="744.09" x2="1830.80" y2="744.09" style="stroke:#D55E00;stroke-width:10.00"/>
	<line x1="1830.80" y1="744.09" x2="1838.77" y2="743.46" style="stroke:#D55E00;stroke-width:10.00"/>
	<line x1="1856.55" y1="742.10" x2="1876.88" y2="740.43" style="stroke:#D55E00;stroke-width:10.00"/>
	<line x1="1894.73" y1="739.07" x2="1915.06" y2="737.40" style="stroke:#D55E00;stroke-width:10.00"/>
	<line x1="1932.84" y1="735.96" x2="1953.17" y2="734.37" style="stroke:#D55E00;stroke-width:10.00"/>
	<line x1="1971.03" y1="732.93" x2="1991.36" y2="731.34" style="stroke:#D55E00;stroke-width:10.00"/>
	<line x1="2009.13" y1="729.90" x2="2029.46" y2="728.23" style="stroke:#D55E00;stroke-width:10.00"/>
	<line x1="2047.24" y1="726.88" x2="2060.79" y2="725.76" style="stroke:#D55E00;stroke-width:10.00"/>
	<line x1="2060.79" y1="725.76" x2="2060.79" y2="725.76" style="stroke:#D55E00;stroke-width:10.00"/>
	<line x1="2060.79" y1="725.76" x2="2060.79" y2="725.76" style="stroke:#D55E00;stroke-width:10.00"/>
	<line x1="2060.79" y1="725.76" x2="2060.79" y2="725.76" style="stroke:#D55E00;stroke-width:10.00"/>
	<line x1="2060.79" y1="725.76" x2="2067.57" y2="725.04" style="stroke:#D55E00;stroke-width:10.00"/>
	<line x1="2085.35" y1="723.21" x2="2105.60" y2="721.14" style="stroke:#D55E00;stroke-width:10.00"/>
	<line x1="2123.38" y1="719.30" x2="2143.70" y2="717.15" style="stroke:#D55E00;stroke-width:10.00"/>
	<line x1="2161.48" y1="715.32" x2="2181.73" y2="713.24" style="stroke:#D55E00;stroke-width:10.00"/>
	<line x1="2199.51" y1="711.41" x2="2219.84" y2="709.34" style="stroke:#D55E00;stroke-width:10.00"/>
	<line x1="2237.54" y1="707.50" x2="2257.86" y2="705.43" style="stroke:#D55E00;stroke-width:10.00"/>
	<line x1="2275.64" y1="703.60" x2="2290.79" y2="702.00" style="stroke:#D55E00;stroke-width:10.00"/>
	<line x1="2290.79" y1="702.00" x2="2290.79" y2="702.00" style="stroke:#D55E00;stroke-width:10.00"/>
	<line x1="2290.79" y1="702.00" x2="2290.79" y2="702.00" style="stroke:#D55E00;stroke-width:10.00"/>
	<line x1="2290.79" y1="702.00" x2="2290.79" y2="702.00" style="stroke:#D55E00;stroke-width:10.00"/>
	<line x1="1370.81" y1="990.74" x2="1600.80" y2="988.75" stroke-linecap="round" style="stroke:#CC79A7;stroke-width:10.00"/>
	<line x1="1600.80" y1="988.75" x2="1830.80" y2="931.35" stroke-linecap="round" style="stroke:#CC79A7;stroke-width:10.00"/>
	<line x1="1830.80" y1="931.35" x2="2060.79" y2="924.02" stroke-linecap="round" style="stroke:#CC79A7;stroke-width:10.00"/>
	<line x1="2060.79" y1="924.02" x2="2290.79" y2="943.55" stroke-linecap="round" style="stroke:#CC79A7;stroke-width:10.00"/>
	<line x1="1370.81" y1="974.88" x2="1370.81" y2="974.88" style="stroke:#CC79A7;stroke-width:10.00"/>
	<line x1="1370.81" y1="974.88" x2="1370.81" y2="974.88" style="stroke:#CC79A7;stroke-width:10.00"/>
	<line x1="1370.81" y1="974.88" x2="1370.81" y2="974.88" style="stroke:#CC79A7;stroke-width:10.00"/>
	<line x1="1370.81" y1="974.88" x2="1391.22" y2="975.52" style="stroke:#CC79A7;stroke-width:10.00"/>
	<line x1="1409.07" y1="976.16" x2="1429.48" y2="976.79" style="stroke:#CC79A7;stroke-width:10.00"/>
	<line x1="1447.34" y1="977.35" x2="1467.75" y2="978.07" style="stroke:#CC79A7;stroke-width:10.00"/>
	<line x1="1485.61" y1="978.63" x2="1506.01" y2="979.34" style="stroke:#CC79A7;stroke-width:10.00"/>
	<line x1="1523.87" y1="979.90" x2="1544.28" y2="980.54" style="stroke:#CC79A7;stroke-width:10.00"/>
	<line x1="1562.14" y1="981.18" x2="1582.55" y2="981.82" style="stroke:#CC79A7;stroke-width:10.00"/>
	<line x1="1600.40" y1="982.37" x2="1600.80" y2="982.37" style="stroke:#CC79A7;stroke-width:10.00"/>
	<line x1="1600.80" y1="982.37" x2="1600.80" y2="982.37" style="stroke:#CC79A7;stroke-width:10.00"/>
	<line x1="1600.80" y1="982.37" x2="1600.80" y2="982.37" style="stroke:#CC79A7;stroke-width:10.00"/>
	<line x1="1600.80" y1="982.37" x2="1600.80" y2="982.37" style="stroke:#CC79A7;stroke-width:10.00"/>
	<line x1="1600.80" y1="982.37" x2="1620.10" y2="977.11" style="stroke:#CC79A7;stroke-width:10.00"/>
	<line x1="1637.31" y1="972.41" x2="1657.01" y2="966.99" style="stroke:#CC79A7;stroke-width:10.00"/>
	<line x1="1674.23" y1="962.36" x2="1693.92" y2="956.94" style="stroke:#CC79A7;stroke-width:10.00"/>
	<line x1="1711.22" y1="952.32" x2="1730.91" y2="946.90" style="stroke:#CC79A7;stroke-width:10.00"/>
	<line x1="1748.13" y1="942.28" x2="1767.82" y2="936.85" style="stroke:#CC79A7;stroke-width:10.00"/>
	<line x1="1785.04" y1="932.15" x2="1804.73" y2="926.81" style="stroke:#CC79A7;stroke-width:10.00"/>
	<line x1="1821.95" y1="922.11" x2="1830.80" y2="919.72" style="stroke:#CC79A7;stroke-width:10.00"/>
	<line x1="1830.80" y1="919.72" x2="1830.80" y2="919.72" style="stroke:#CC79A7;stroke-width:10.00"/>
	<line x1="1830.80" y1="919.72" x2="1830.80" y2="919.72" style="stroke:#CC79A7;stroke-width:10.00"/>
	<line x1="1830.80" y1="919.72" x2="1830.80" y2="919.72" style="stroke:#CC79A7;stroke-width:10.00"/>
	<line x1="1830.80" y1="919.72" x2="1842.04" y2="918.76" style="stroke:#CC79A7;stroke-width:10.00"/>
	<line x1="1859.82" y1="917.24" x2="1880.15" y2="915.57" style="stroke:#CC79A7;stroke-width:10.00"/>
	<line x1="1897.92" y1="913.98" x2="1918.25" y2="912.30" style="stroke:#CC79A7;stroke-width:10.00"/>
	<line x1="1936.03" y1="910.71" x2="1956.36" y2="909.03" style="stroke:#CC79A7;stroke-width:10.00"/>
	<line x1="1974.14" y1="907.52" x2="1994.47" y2="905.76" style="stroke:#CC79A7;stroke-width:10.00"/>
	<line x1="2012.24" y1="904.25" x2="2032.57" y2="902.50" style="stroke:#CC79A7;stroke-width:10.00"/>
	<line x1="2050.35" y1="900.98" x2="2060.79" y2="900.10" style="stroke:#CC79A7;stroke-width:10.00"/>
	<line x1="2060.79" y1="900.10" x2="2060.79" y2="900.10" style="stroke:#CC79A7;stroke-width:10.00"/>
	<line x1="2060.79" y1="900.10" x2="2060.79" y2="900.10" style="stroke:#CC79A7;stroke-width:10.00"/>
	<line x1="2060.79" y1="900.10" x2="2060.79" y2="900.10" style="stroke:#CC79A7;stroke-width:10.00"/>
	<line x1="2060.79" y1="900.10" x2="2070.76" y2="900.34" style="stroke:#CC79A7;stroke-width:10.00"/>
	<line x1="2088.62" y1="900.82" x2="2109.03" y2="901.30" style="stroke:#CC79A7;stroke-width:10.00"/>
	<line x1="2126.88" y1="901.78" x2="2147.29" y2="902.26" style="stroke:#CC79A7;stroke-width:10.00"/>
	<line x1="2165.15" y1="902.74" x2="2185.56" y2="903.21" style="stroke:#CC79A7;stroke-width:10.00"/>
	<line x1="2203.42" y1="903.69" x2="2223.82" y2="904.25" style="stroke:#CC79A7;stroke-width:10.00"/>
	<line x1="2241.68" y1="904.65" x2="2262.09" y2="905.21" style="stroke:#CC79A7;stroke-width:10.00"/>
	<line x1="2279.95" y1="905.61" x2="2290.79" y2="905.92" style="stroke:#CC79A7;stroke-width:10.00"/>
	<line x1="2290.79" y1="905.92" x2="2290.79" y2="905.92" style="stroke:#CC79A7;stroke-width:10.00"/>
	<line x1="2290.79" y1="905.92" x2="2290.79" y2="905.92" style="stroke:#CC79A7;stroke-width:10.00"/>
	<line x1="2290.79" y1="905.92" x2="2290.79" y2="905.92" style="stroke:#CC79A7;stroke-width:10.00"/>
	<line x1="450.90" y1="580.75" x2="450.90" y2="580.75" style="stroke:#A0A0A0;stroke-width:10.00"/>
	<line x1="450.90" y1="580.75" x2="450.90" y2="580.75" style="stroke:#A0A0A0;stroke-width:10.00"/>
	<line x1="450.90" y1="580.75" x2="501.92" y2="579.00" style="stroke:#A0A0A0;stroke-width:10.00"/>
	<line x1="527.44" y1="578.12" x2="578.38" y2="576.37" style="stroke:#A0A0A0;stroke-width:10.00"/>
	<line x1="603.89" y1="575.49" x2="654.91" y2="573.82" style="stroke:#A0A0A0;stroke-width:10.00"/>
	<line x1="680.42" y1="572.86" x2="680.90" y2="572.86" style="stroke:#A0A0A0;stroke-width:10.00"/>
	<line x1="680.90" y1="572.86" x2="680.90" y2="572.86" style="stroke:#A0A0A0;stroke-width:10.00"/>
	<line x1="680.90" y1="572.86" x2="680.90" y2="572.86" style="stroke:#A0A0A0;stroke-width:10.00"/>
	<line x1="680.90" y1="572.86" x2="731.36" y2="570.79" style="stroke:#A0A0A0;stroke-width:10.00"/>
	<line x1="756.87" y1="569.67" x2="807.82" y2="567.60" style="stroke:#A0A0A0;stroke-width:10.00"/>
	<line x1="833.33" y1="566.48" x2="884.35" y2="564.41" style="stroke:#A0A0A0;stroke-width:10.00"/>
	<line x1="909.78" y1="563.37" x2="910.89" y2="563.29" style="stroke:#A0A0A0;stroke-width:10.00"/>
	<line x1="910.89" y1="563.29" x2="910.89" y2="563.29" style="stroke:#A0A0A0;stroke-width:10.00"/>
	<line x1="910.89" y1="563.29" x2="910.89" y2="563.29" style="stroke:#A0A0A0;stroke-width:10.00"/>
	<line x1="910.89" y1="563.29" x2="960.72" y2="560.10" style="stroke:#A0A0A0;stroke-width:10.00"/>
	<line x1="986.15" y1="558.51" x2="1037.09" y2="555.24" style="stroke:#A0A0A0;stroke-width:10.00"/>
	<line x1="1062.52" y1="553.57" x2="1113.47" y2="550.30" style="stroke:#A0A0A0;stroke-width:10.00"/>
	<line x1="1138.90" y1="548.62" x2="1140.89" y2="548.54" style="stroke:#A0A0A0;stroke-width:10.00"/>
	<line x1="1140.89" y1="548.54" x2="1140.89" y2="548.54" style="stroke:#A0A0A0;stroke-width:10.00"/>
	<line x1="1140.89" y1="548.54" x2="1140.89" y2="548.54" style="stroke:#A0A0A0;stroke-width:10.00"/>
	<line x1="1140.89" y1="548.54" x2="1189.76" y2="544.24" style="stroke:#A0A0A0;stroke-width:10.00"/>
	<line x1="1215.11" y1="542.01" x2="1265.97" y2="537.46" style="stroke:#A0A0A0;stroke-width:10.00"/>
	<line x1="1291.40" y1="535.23" x2="1342.19" y2="530.69" style="stroke:#A0A0A0;stroke-width:10.00"/>
	<line x1="1367.62" y1="528.46" x2="1370.81" y2="528.22" style="stroke:#A0A0A0;stroke-width:10.00"/>
	<line x1="1370.81" y1="528.22" x2="1370.81" y2="528.22" style="stroke:#A0A0A0;stroke-width:10.00"/>
	<line x1="1370.81" y1="528.22" x2="1370.81" y2="528.22" style="stroke:#A0A0A0;stroke-width:10.00"/>
	<line x1="1370.81" y1="528.22" x2="1418.64" y2="527.90" style="stroke:#A0A0A0;stroke-width:10.00"/>
	<line x1="1444.15" y1="527.74" x2="1495.17" y2="527.42" style="stroke:#A0A0A0;stroke-width:10.00"/>
	<line x1="1520.68" y1="527.26" x2="1571.70" y2="526.94" style="stroke:#A0A0A0;stroke-width:10.00"/>
	<line x1="1597.22" y1="526.78" x2="1600.80" y2="526.78" style="stroke:#A0A0A0;stroke-width:10.00"/>
	<line x1="1600.80" y1="526.78" x2="1600.80" y2="526.78" style="stroke:#A0A0A0;stroke-width:10.00"/>
	<line x1="1600.80" y1="526.78" x2="1600.80" y2="526.78" style="stroke:#A0A0A0;stroke-width:10.00"/>
	<line x1="1600.80" y1="526.78" x2="1648.16" y2="524.79" style="stroke:#A0A0A0;stroke-width:10.00"/>
	<line x1="1673.67" y1="523.67" x2="1724.61" y2="521.52" style="stroke:#A0A0A0;stroke-width:10.00"/>
	<line x1="1750.12" y1="520.48" x2="1801.14" y2="518.33" style="stroke:#A0A0A0;stroke-width:10.00"/>
	<line x1="1826.57" y1="517.29" x2="1830.80" y2="517.06" style="stroke:#A0A0A0;stroke-width:10.00"/>
	<line x1="1830.80" y1="517.06" x2="1830.80" y2="517.06" style="stroke:#A0A0A0;stroke-width:10.00"/>
	<line x1="1830.80" y1="517.06" x2="1830.80" y2="517.06" style="stroke:#A0A0A0;stroke-width:10.00"/>
	<line x1="1830.80" y1="517.06" x2="1877.59" y2="515.70" style="stroke:#A0A0A0;stroke-width:10.00"/>
	<line x1="1903.11" y1="514.98" x2="1954.13" y2="513.55" style="stroke:#A0A0A0;stroke-width:10.00"/>
	<line x1="1979.64" y1="512.83" x2="2030.66" y2="511.40" style="stroke:#A0A0A0;stroke-width:10.00"/>
	<line x1="2056.17" y1="510.60" x2="2060.79" y2="510.52" style="stroke:#A0A0A0;stroke-width:10.00"/>
	<line x1="2060.79" y1="510.52" x2="2060.79" y2="510.52" style="stroke:#A0A0A0;stroke-width:10.00"/>
	<line x1="2060.79" y1="510.52" x2="2060.79" y2="510.52" style="stroke:#A0A0A0;stroke-width:10.00"/>
	<line x1="2060.79" y1="510.52" x2="2107.11" y2="508.21" style="stroke:#A0A0A0;stroke-width:10.00"/>
	<line x1="2132.62" y1="506.93" x2="2183.56" y2="504.38" style="stroke:#A0A0A0;stroke-width:10.00"/>
	<line x1="2209.00" y1="503.03" x2="2259.94" y2="500.47" style="stroke:#A0A0A0;stroke-width:10.00"/>
	<line x1="2285.45" y1="499.28" x2="2290.79" y2="498.96" style="stroke:#A0A0A0;stroke-width:10.00"/>
	<line x1="2290.79" y1="498.96" x2="2290.79" y2="498.96" style="stroke:#A0A0A0;stroke-width:10.00"/>
	<line x1="2290.79" y1="498.96" x2="2290.79" y2="498.96" style="stroke:#A0A0A0;stroke-width:10.00"/>
	<line x1="394.86" y1="1717.22" x2="359.38" y2="1717.22" style="stroke:#000000;stroke-width:4.00"/>
	<text x="341.69" y="1734.74" style="font-family:'Helvetica';font-size:49.99px;fill:#000000" text-anchor="end">0</text>
	<line x1="394.86" y1="1570.86" x2="359.38" y2="1570.86" style="stroke:#000000;stroke-width:4.00"/>
	<text x="341.69" y="1588.37" style="font-family:'Helvetica';font-size:49.99px;fill:#000000" text-anchor="end">10</text>
	<line x1="394.86" y1="1424.49" x2="359.38" y2="1424.49" style="stroke:#000000;stroke-width:4.00"/>
	<text x="341.69" y="1442.01" style="font-family:'Helvetica';font-size:49.99px;fill:#000000" text-anchor="end">20</text>
	<line x1="394.86" y1="1278.05" x2="359.38" y2="1278.05" style="stroke:#000000;stroke-width:4.00"/>
	<text x="341.69" y="1295.57" style="font-family:'Helvetica';font-size:49.99px;fill:#000000" text-anchor="end">30</text>
	<line x1="394.86" y1="1131.69" x2="359.38" y2="1131.69" style="stroke:#000000;stroke-width:4.00"/>
	<text x="341.69" y="1149.20" style="font-family:'Helvetica';font-size:49.99px;fill:#000000" text-anchor="end">40</text>
	<line x1="394.86" y1="985.32" x2="359.38" y2="985.32" style="stroke:#000000;stroke-width:4.00"/>
	<text x="341.69" y="1002.84" style="font-family:'Helvetica';font-size:49.99px;fill:#000000" text-anchor="end">50</text>
	<line x1="394.86" y1="838.88" x2="359.38" y2="838.88" style="stroke:#000000;stroke-width:4.00"/>
	<text x="341.69" y="856.39" style="font-family:'Helvetica';font-size:49.99px;fill:#000000" text-anchor="end">60</text>
	<line x1="394.86" y1="692.52" x2="359.38" y2="692.52" style="stroke:#000000;stroke-width:4.00"/>
	<text x="341.69" y="710.03" style="font-family:'Helvetica';font-size:49.99px;fill:#000000" text-anchor="end">70</text>
	<line x1="394.86" y1="546.07" x2="359.38" y2="546.07" style="stroke:#000000;stroke-width:4.00"/>
	<text x="341.69" y="563.59" style="font-family:'Helvetica';font-size:49.99px;fill:#000000" text-anchor="end">80</text>
	<line x1="394.86" y1="399.71" x2="359.38" y2="399.71" style="stroke:#000000;stroke-width:4.00"/>
	<text x="341.69" y="417.22" style="font-family:'Helvetica';font-size:49.99px;fill:#000000" text-anchor="end">90</text>
	<line x1="394.86" y1="253.35" x2="359.38" y2="253.35" style="stroke:#000000;stroke-width:4.00"/>
	<text x="341.69" y="270.86" style="font-family:'Helvetica';font-size:49.99px;fill:#000000" text-anchor="end">100</text>
	<line x1="394.86" y1="1717.22" x2="394.86" y2="253.35" style="stroke:#000000;stroke-width:4.00"/>
	<text x="136.21" y="947.06" style="font-family:'Helvetica';font-size:60.03px;fill:#000000" transform="rotate(-90 136.21,947.06)" text-anchor="middle">Employment rate (in %)</text>
	<line x1="450.98" y1="1773.34" x2="450.98" y2="1808.82" style="stroke:#000000;stroke-width:4.00"/>
	<text x="450.98" y="1861.46" style="font-family:'Helvetica';font-size:49.99px;fill:#000000" text-anchor="middle">2007</text>
	<line x1="910.89" y1="1773.34" x2="910.89" y2="1808.82" style="stroke:#000000;stroke-width:4.00"/>
	<text x="910.89" y="1861.46" style="font-family:'Helvetica';font-size:49.99px;fill:#000000" text-anchor="middle">2009</text>
	<line x1="1370.89" y1="1773.34" x2="1370.89" y2="1808.82" style="stroke:#000000;stroke-width:4.00"/>
	<text x="1370.89" y="1861.46" style="font-family:'Helvetica';font-size:49.99px;fill:#000000" text-anchor="middle">2011</text>
	<line x1="1830.88" y1="1773.34" x2="1830.88" y2="1808.82" style="stroke:#000000;stroke-width:4.00"/>
	<text x="1830.88" y="1861.46" style="font-family:'Helvetica';font-size:49.99px;fill:#000000" text-anchor="middle">2013</text>
	<line x1="2290.79" y1="1773.34" x2="2290.79" y2="1808.82" style="stroke:#000000;stroke-width:4.00"/>
	<text x="2290.79" y="1861.46" style="font-family:'Helvetica';font-size:49.99px;fill:#000000" text-anchor="middle">2015</text>
	<line x1="450.98" y1="1773.34" x2="2290.79" y2="1773.34" style="stroke:#000000;stroke-width:4.00"/>
	<text x="1332.62" y="2003.86" style="font-family:'Helvetica';font-size:60.03px;fill:#000000" text-anchor="middle">Year</text>
	<text x="145.41" y="2248.05" style="font-family:'Helvetica';font-size:60.03px;fill:#000000">Arr. cohort: </text>
	<text x="536.36" y="2248.05" style="font-family:'Helvetica';font-size:60.03px;fill:#000000">1964-73</text>
	<text x="845.12" y="2248.05" style="font-family:'Helvetica';font-size:60.03px;fill:#000000">1974-83</text>
	<text x="1153.89" y="2248.05" style="font-family:'Helvetica';font-size:60.03px;fill:#000000">1984-93</text>
	<text x="1462.65" y="2248.05" style="font-family:'Helvetica';font-size:60.03px;fill:#000000">1994-03</text>
	<text x="1771.41" y="2248.05" style="font-family:'Helvetica';font-size:60.03px;fill:#000000">2004-10</text>
	<text x="2080.17" y="2248.05" style="font-family:'Helvetica';font-size:60.03px;fill:#000000">German</text>
	<text x="536.36" y="2396.65" style="font-family:'Helvetica';font-size:60.03px;fill:#000000">incl. nat.</text>
	<text x="845.12" y="2396.65" style="font-family:'Helvetica';font-size:60.03px;fill:#000000">incl. nat.</text>
	<text x="1153.89" y="2396.65" style="font-family:'Helvetica';font-size:60.03px;fill:#000000">incl. nat.</text>
	<text x="1462.65" y="2396.65" style="font-family:'Helvetica';font-size:60.03px;fill:#000000">incl. nat.</text>
	<text x="1771.41" y="2396.65" style="font-family:'Helvetica';font-size:60.03px;fill:#000000">incl. nat.</text>
	<line x1="536.36" y1="2152.73" x2="737.26" y2="2152.73" style="stroke:#E69F00;stroke-width:10.00"/>
	<line x1="845.12" y1="2152.73" x2="1046.02" y2="2152.73" style="stroke:#56B4E9;stroke-width:10.00"/>
	<line x1="1153.89" y1="2152.73" x2="1354.78" y2="2152.73" style="stroke:#009E73;stroke-width:10.00"/>
	<line x1="1462.65" y1="2152.73" x2="1663.54" y2="2152.73" style="stroke:#D55E00;stroke-width:10.00"/>
	<line x1="1771.41" y1="2152.73" x2="1972.30" y2="2152.73" style="stroke:#CC79A7;stroke-width:10.00"/>
	<line x1="2080.17" y1="2152.73" x2="2131.19" y2="2152.73" style="stroke:#A0A0A0;stroke-width:10.00"/>
	<line x1="2156.70" y1="2152.73" x2="2207.72" y2="2152.73" style="stroke:#A0A0A0;stroke-width:10.00"/>
	<line x1="2233.23" y1="2152.73" x2="2278.03" y2="2152.73" style="stroke:#A0A0A0;stroke-width:10.00"/>
	<line x1="536.36" y1="2301.32" x2="556.77" y2="2301.32" style="stroke:#E69F00;stroke-width:10.00"/>
	<line x1="574.63" y1="2301.32" x2="595.04" y2="2301.32" style="stroke:#E69F00;stroke-width:10.00"/>
	<line x1="612.90" y1="2301.32" x2="633.31" y2="2301.32" style="stroke:#E69F00;stroke-width:10.00"/>
	<line x1="651.16" y1="2301.32" x2="671.57" y2="2301.32" style="stroke:#E69F00;stroke-width:10.00"/>
	<line x1="689.43" y1="2301.32" x2="709.84" y2="2301.32" style="stroke:#E69F00;stroke-width:10.00"/>
	<line x1="727.70" y1="2301.32" x2="737.26" y2="2301.32" style="stroke:#E69F00;stroke-width:10.00"/>
	<line x1="845.12" y1="2301.32" x2="865.53" y2="2301.32" style="stroke:#56B4E9;stroke-width:10.00"/>
	<line x1="883.39" y1="2301.32" x2="903.80" y2="2301.32" style="stroke:#56B4E9;stroke-width:10.00"/>
	<line x1="921.66" y1="2301.32" x2="942.07" y2="2301.32" style="stroke:#56B4E9;stroke-width:10.00"/>
	<line x1="959.92" y1="2301.32" x2="980.33" y2="2301.32" style="stroke:#56B4E9;stroke-width:10.00"/>
	<line x1="998.19" y1="2301.32" x2="1018.60" y2="2301.32" style="stroke:#56B4E9;stroke-width:10.00"/>
	<line x1="1036.46" y1="2301.32" x2="1046.02" y2="2301.32" style="stroke:#56B4E9;stroke-width:10.00"/>
	<line x1="1153.89" y1="2301.32" x2="1174.29" y2="2301.32" style="stroke:#009E73;stroke-width:10.00"/>
	<line x1="1192.15" y1="2301.32" x2="1212.56" y2="2301.32" style="stroke:#009E73;stroke-width:10.00"/>
	<line x1="1230.42" y1="2301.32" x2="1250.83" y2="2301.32" style="stroke:#009E73;stroke-width:10.00"/>
	<line x1="1268.68" y1="2301.32" x2="1289.09" y2="2301.32" style="stroke:#009E73;stroke-width:10.00"/>
	<line x1="1306.95" y1="2301.32" x2="1327.36" y2="2301.32" style="stroke:#009E73;stroke-width:10.00"/>
	<line x1="1345.22" y1="2301.32" x2="1354.78" y2="2301.32" style="stroke:#009E73;stroke-width:10.00"/>
	<line x1="1462.65" y1="2301.32" x2="1483.05" y2="2301.32" style="stroke:#D55E00;stroke-width:10.00"/>
	<line x1="1500.91" y1="2301.32" x2="1521.32" y2="2301.32" style="stroke:#D55E00;stroke-width:10.00"/>
	<line x1="1539.18" y1="2301.32" x2="1559.59" y2="2301.32" style="stroke:#D55E00;stroke-width:10.00"/>
	<line x1="1577.44" y1="2301.32" x2="1597.85" y2="2301.32" style="stroke:#D55E00;stroke-width:10.00"/>
	<line x1="1615.71" y1="2301.32" x2="1636.12" y2="2301.32" style="stroke:#D55E00;stroke-width:10.00"/>
	<line x1="1653.98" y1="2301.32" x2="1663.54" y2="2301.32" style="stroke:#D55E00;stroke-width:10.00"/>
	<line x1="1771.41" y1="2301.32" x2="1791.81" y2="2301.32" style="stroke:#CC79A7;stroke-width:10.00"/>
	<line x1="1809.67" y1="2301.32" x2="1830.08" y2="2301.32" style="stroke:#CC79A7;stroke-width:10.00"/>
	<line x1="1847.94" y1="2301.32" x2="1868.35" y2="2301.32" style="stroke:#CC79A7;stroke-width:10.00"/>
	<line x1="1886.20" y1="2301.32" x2="1906.61" y2="2301.32" style="stroke:#CC79A7;stroke-width:10.00"/>
	<line x1="1924.47" y1="2301.32" x2="1944.88" y2="2301.32" style="stroke:#CC79A7;stroke-width:10.00"/>
	<line x1="1962.74" y1="2301.32" x2="1972.30" y2="2301.32" style="stroke:#CC79A7;stroke-width:10.00"/>
	<text x="1370.89" y="154.88" style="font-family:'Helvetica';font-size:90.01px;fill:#000000" text-anchor="middle">Women</text>
</svg>
