<?xml version="1.0" encoding="UTF-8" standalone="no"?>
<!-- This is a Stata 15.1 generated SVG file (http://www.stata.com) -->

<svg version="1.1" width="3.54in" height="3.54in" viewBox="0 0 2551 2551" xmlns="http://www.w3.org/2000/svg" xmlns:xlink="http://www.w3.org/1999/xlink">
	<desc>Stata Graph - Graph</desc>
	<rect x="0" y="0" width="2551" height="2551" style="fill:#FFFFFF;stroke:none"/>
	<rect x="0.00" y="0.08" width="2551.00" height="2550.92" style="fill:#FFFFFF"/>
	<rect x="2.55" y="2.63" width="2545.90" height="2545.82" style="fill:none;stroke:#FFFFFF;stroke-width:5.10"/>
	<line x1="394.86" y1="1717.22" x2="2346.91" y2="1717.22" style="stroke:#E8E8E8;stroke-width:4.00"/>
	<line x1="394.86" y1="1570.86" x2="2346.91" y2="1570.86" style="stroke:#E8E8E8;stroke-width:4.00"/>
	<line x1="394.86" y1="1424.49" x2="2346.91" y2="1424.49" style="stroke:#E8E8E8;stroke-width:4.00"/>
	<line x1="394.86" y1="1278.05" x2="2346.91" y2="1278.05" style="stroke:#E8E8E8;stroke-width:4.00"/>
	<line x1="394.86" y1="1131.69" x2="2346.91" y2="1131.69" style="stroke:#E8E8E8;stroke-width:4.00"/>
	<line x1="394.86" y1="985.32" x2="2346.91" y2="985.32" style="stroke:#E8E8E8;stroke-width:4.00"/>
	<line x1="394.86" y1="838.88" x2="2346.91" y2="838.88" style="stroke:#E8E8E8;stroke-width:4.00"/>
	<line x1="394.86" y1="692.52" x2="2346.91" y2="692.52" style="stroke:#E8E8E8;stroke-width:4.00"/>
	<line x1="394.86" y1="546.07" x2="2346.91" y2="546.07" style="stroke:#E8E8E8;stroke-width:4.00"/>
	<line x1="394.86" y1="399.71" x2="2346.91" y2="399.71" style="stroke:#E8E8E8;stroke-width:4.00"/>
	<line x1="394.86" y1="253.35" x2="2346.91" y2="253.35" style="stroke:#E8E8E8;stroke-width:4.00"/>
	<line x1="450.98" y1="1773.34" x2="450.98" y2="197.22" style="stroke:#E8E8E8;stroke-width:4.00"/>
	<line x1="910.89" y1="1773.34" x2="910.89" y2="197.22" style="stroke:#E8E8E8;stroke-width:4.00"/>
	<line x1="1370.89" y1="1773.34" x2="1370.89" y2="197.22" style="stroke:#E8E8E8;stroke-width:4.00"/>
	<line x1="1830.88" y1="1773.34" x2="1830.88" y2="197.22" style="stroke:#E8E8E8;stroke-width:4.00"/>
	<line x1="2290.79" y1="1773.34" x2="2290.79" y2="197.22" style="stroke:#E8E8E8;stroke-width:4.00"/>
	<line x1="450.90" y1="567.36" x2="680.90" y2="607.62" stroke-linecap="round" style="stroke:#56B4E9;stroke-width:10.00"/>
	<line x1="680.90" y1="607.62" x2="910.89" y2="590.56" stroke-linecap="round" style="stroke:#56B4E9;stroke-width:10.00"/>
	<line x1="910.89" y1="590.56" x2="1140.89" y2="603.87" stroke-linecap="round" style="stroke:#56B4E9;stroke-width:10.00"/>
	<line x1="1140.89" y1="603.87" x2="1370.81" y2="578.52" stroke-linecap="round" style="stroke:#56B4E9;stroke-width:10.00"/>
	<line x1="1370.81" y1="578.52" x2="1600.80" y2="619.33" stroke-linecap="round" style="stroke:#56B4E9;stroke-width:10.00"/>
	<line x1="1600.80" y1="619.33" x2="1830.80" y2="620.93" stroke-linecap="round" style="stroke:#56B4E9;stroke-width:10.00"/>
	<line x1="450.90" y1="523.43" x2="450.90" y2="523.43" style="stroke:#56B4E9;stroke-width:10.00"/>
	<line x1="450.90" y1="523.43" x2="450.90" y2="523.43" style="stroke:#56B4E9;stroke-width:10.00"/>
	<line x1="450.90" y1="523.43" x2="450.90" y2="523.43" style="stroke:#56B4E9;stroke-width:10.00"/>
	<line x1="450.90" y1="523.43" x2="471.31" y2="523.75" style="stroke:#56B4E9;stroke-width:10.00"/>
	<line x1="489.17" y1="523.99" x2="509.58" y2="524.31" style="stroke:#56B4E9;stroke-width:10.00"/>
	<line x1="527.44" y1="524.63" x2="547.84" y2="524.95" style="stroke:#56B4E9;stroke-width:10.00"/>
	<line x1="565.70" y1="525.19" x2="586.11" y2="525.51" style="stroke:#56B4E9;stroke-width:10.00"/>
	<line x1="603.97" y1="525.75" x2="624.38" y2="526.06" style="stroke:#56B4E9;stroke-width:10.00"/>
	<line x1="642.23" y1="526.38" x2="662.64" y2="526.70" style="stroke:#56B4E9;stroke-width:10.00"/>
	<line x1="680.50" y1="527.02" x2="680.90" y2="527.02" style="stroke:#56B4E9;stroke-width:10.00"/>
	<line x1="680.90" y1="527.02" x2="680.90" y2="527.02" style="stroke:#56B4E9;stroke-width:10.00"/>
	<line x1="680.90" y1="527.02" x2="680.90" y2="527.02" style="stroke:#56B4E9;stroke-width:10.00"/>
	<line x1="680.90" y1="527.02" x2="680.90" y2="527.02" style="stroke:#56B4E9;stroke-width:10.00"/>
	<line x1="680.90" y1="527.02" x2="700.91" y2="527.50" style="stroke:#56B4E9;stroke-width:10.00"/>
	<line x1="718.77" y1="527.90" x2="739.18" y2="528.30" style="stroke:#56B4E9;stroke-width:10.00"/>
	<line x1="757.03" y1="528.62" x2="777.44" y2="529.09" style="stroke:#56B4E9;stroke-width:10.00"/>
	<line x1="795.30" y1="529.41" x2="815.71" y2="529.89" style="stroke:#56B4E9;stroke-width:10.00"/>
	<line x1="833.57" y1="530.29" x2="853.97" y2="530.69" style="stroke:#56B4E9;stroke-width:10.00"/>
	<line x1="871.83" y1="531.01" x2="892.24" y2="531.48" style="stroke:#56B4E9;stroke-width:10.00"/>
	<line x1="910.10" y1="531.88" x2="910.89" y2="531.88" style="stroke:#56B4E9;stroke-width:10.00"/>
	<line x1="910.89" y1="531.88" x2="910.89" y2="531.88" style="stroke:#56B4E9;stroke-width:10.00"/>
	<line x1="910.89" y1="531.88" x2="910.89" y2="531.88" style="stroke:#56B4E9;stroke-width:10.00"/>
	<line x1="910.89" y1="531.88" x2="910.89" y2="531.88" style="stroke:#56B4E9;stroke-width:10.00"/>
	<line x1="910.89" y1="531.88" x2="930.51" y2="532.76" style="stroke:#56B4E9;stroke-width:10.00"/>
	<line x1="948.28" y1="533.56" x2="968.69" y2="534.51" style="stroke:#56B4E9;stroke-width:10.00"/>
	<line x1="986.47" y1="535.39" x2="1006.88" y2="536.35" style="stroke:#56B4E9;stroke-width:10.00"/>
	<line x1="1024.66" y1="537.14" x2="1045.07" y2="538.18" style="stroke:#56B4E9;stroke-width:10.00"/>
	<line x1="1062.84" y1="538.98" x2="1083.25" y2="539.94" style="stroke:#56B4E9;stroke-width:10.00"/>
	<line x1="1101.03" y1="540.81" x2="1121.44" y2="541.77" style="stroke:#56B4E9;stroke-width:10.00"/>
	<line x1="1139.22" y1="542.57" x2="1140.89" y2="542.65" style="stroke:#56B4E9;stroke-width:10.00"/>
	<line x1="1140.89" y1="542.65" x2="1140.89" y2="542.65" style="stroke:#56B4E9;stroke-width:10.00"/>
	<line x1="1140.89" y1="542.65" x2="1140.89" y2="542.65" style="stroke:#56B4E9;stroke-width:10.00"/>
	<line x1="1140.89" y1="542.65" x2="1140.89" y2="542.65" style="stroke:#56B4E9;stroke-width:10.00"/>
	<line x1="1140.89" y1="542.65" x2="1159.63" y2="541.45" style="stroke:#56B4E9;stroke-width:10.00"/>
	<line x1="1177.40" y1="540.41" x2="1197.81" y2="539.14" style="stroke:#56B4E9;stroke-width:10.00"/>
	<line x1="1215.59" y1="538.02" x2="1236.00" y2="536.75" style="stroke:#56B4E9;stroke-width:10.00"/>
	<line x1="1253.78" y1="535.71" x2="1274.18" y2="534.43" style="stroke:#56B4E9;stroke-width:10.00"/>
	<line x1="1291.96" y1="533.32" x2="1312.37" y2="532.04" style="stroke:#56B4E9;stroke-width:10.00"/>
	<line x1="1330.15" y1="530.93" x2="1350.56" y2="529.65" style="stroke:#56B4E9;stroke-width:10.00"/>
	<line x1="1368.34" y1="528.54" x2="1370.81" y2="528.38" style="stroke:#56B4E9;stroke-width:10.00"/>
	<line x1="1370.81" y1="528.38" x2="1370.81" y2="528.38" style="stroke:#56B4E9;stroke-width:10.00"/>
	<line x1="1370.81" y1="528.38" x2="1370.81" y2="528.38" style="stroke:#56B4E9;stroke-width:10.00"/>
	<line x1="1370.81" y1="528.38" x2="1370.81" y2="528.38" style="stroke:#56B4E9;stroke-width:10.00"/>
	<line x1="1370.81" y1="528.38" x2="1388.66" y2="529.89" style="stroke:#56B4E9;stroke-width:10.00"/>
	<line x1="1406.44" y1="531.41" x2="1426.77" y2="533.16" style="stroke:#56B4E9;stroke-width:10.00"/>
	<line x1="1444.55" y1="534.67" x2="1464.88" y2="536.43" style="stroke:#56B4E9;stroke-width:10.00"/>
	<line x1="1482.66" y1="537.94" x2="1502.98" y2="539.70" style="stroke:#56B4E9;stroke-width:10.00"/>
	<line x1="1520.76" y1="541.21" x2="1541.09" y2="542.96" style="stroke:#56B4E9;stroke-width:10.00"/>
	<line x1="1558.95" y1="544.40" x2="1579.28" y2="546.15" style="stroke:#56B4E9;stroke-width:10.00"/>
	<line x1="1597.06" y1="547.67" x2="1600.80" y2="547.99" style="stroke:#56B4E9;stroke-width:10.00"/>
	<line x1="1600.80" y1="547.99" x2="1600.80" y2="547.99" style="stroke:#56B4E9;stroke-width:10.00"/>
	<line x1="1600.80" y1="547.99" x2="1600.80" y2="547.99" style="stroke:#56B4E9;stroke-width:10.00"/>
	<line x1="1600.80" y1="547.99" x2="1600.80" y2="547.99" style="stroke:#56B4E9;stroke-width:10.00"/>
	<line x1="1600.80" y1="547.99" x2="1617.46" y2="548.46" style="stroke:#56B4E9;stroke-width:10.00"/>
	<line x1="1635.32" y1="548.86" x2="1655.73" y2="549.42" style="stroke:#56B4E9;stroke-width:10.00"/>
	<line x1="1673.59" y1="549.90" x2="1694.00" y2="550.46" style="stroke:#56B4E9;stroke-width:10.00"/>
	<line x1="1711.85" y1="550.94" x2="1732.26" y2="551.49" style="stroke:#56B4E9;stroke-width:10.00"/>
	<line x1="1750.12" y1="551.97" x2="1770.53" y2="552.53" style="stroke:#56B4E9;stroke-width:10.00"/>
	<line x1="1788.39" y1="553.01" x2="1808.80" y2="553.57" style="stroke:#56B4E9;stroke-width:10.00"/>
	<line x1="1826.65" y1="554.05" x2="1830.80" y2="554.20" style="stroke:#56B4E9;stroke-width:10.00"/>
	<line x1="1830.80" y1="554.20" x2="1830.80" y2="554.20" style="stroke:#56B4E9;stroke-width:10.00"/>
	<line x1="1830.80" y1="554.20" x2="1830.80" y2="554.20" style="stroke:#56B4E9;stroke-width:10.00"/>
	<line x1="1830.80" y1="554.20" x2="1830.80" y2="554.20" style="stroke:#56B4E9;stroke-width:10.00"/>
	<line x1="450.90" y1="577.08" x2="680.90" y2="554.60" stroke-linecap="round" style="stroke:#009E73;stroke-width:10.00"/>
	<line x1="680.90" y1="554.60" x2="910.89" y2="552.61" stroke-linecap="round" style="stroke:#009E73;stroke-width:10.00"/>
	<line x1="910.89" y1="552.61" x2="1140.89" y2="549.58" stroke-linecap="round" style="stroke:#009E73;stroke-width:10.00"/>
	<line x1="1140.89" y1="549.58" x2="1370.81" y2="528.38" stroke-linecap="round" style="stroke:#009E73;stroke-width:10.00"/>
	<line x1="1370.81" y1="528.38" x2="1600.80" y2="541.05" stroke-linecap="round" style="stroke:#009E73;stroke-width:10.00"/>
	<line x1="1600.80" y1="541.05" x2="1830.80" y2="526.78" stroke-linecap="round" style="stroke:#009E73;stroke-width:10.00"/>
	<line x1="1830.80" y1="526.78" x2="2060.79" y2="537.62" stroke-linecap="round" style="stroke:#009E73;stroke-width:10.00"/>
	<line x1="2060.79" y1="537.62" x2="2290.79" y2="543.28" stroke-linecap="round" style="stroke:#009E73;stroke-width:10.00"/>
	<line x1="450.90" y1="488.99" x2="450.90" y2="488.99" style="stroke:#009E73;stroke-width:10.00"/>
	<line x1="450.90" y1="488.99" x2="450.90" y2="488.99" style="stroke:#009E73;stroke-width:10.00"/>
	<line x1="450.90" y1="488.99" x2="450.90" y2="488.99" style="stroke:#009E73;stroke-width:10.00"/>
	<line x1="450.90" y1="488.99" x2="471.23" y2="487.40" style="stroke:#009E73;stroke-width:10.00"/>
	<line x1="489.09" y1="486.05" x2="509.42" y2="484.45" style="stroke:#009E73;stroke-width:10.00"/>
	<line x1="527.20" y1="483.02" x2="547.53" y2="481.42" style="stroke:#009E73;stroke-width:10.00"/>
	<line x1="565.38" y1="479.99" x2="585.71" y2="478.39" style="stroke:#009E73;stroke-width:10.00"/>
	<line x1="603.49" y1="477.04" x2="623.82" y2="475.44" style="stroke:#009E73;stroke-width:10.00"/>
	<line x1="641.68" y1="474.09" x2="662.01" y2="472.49" style="stroke:#009E73;stroke-width:10.00"/>
	<line x1="679.78" y1="471.06" x2="680.90" y2="470.98" style="stroke:#009E73;stroke-width:10.00"/>
	<line x1="680.90" y1="470.98" x2="680.90" y2="470.98" style="stroke:#009E73;stroke-width:10.00"/>
	<line x1="680.90" y1="470.98" x2="680.90" y2="470.98" style="stroke:#009E73;stroke-width:10.00"/>
	<line x1="680.90" y1="470.98" x2="680.90" y2="470.98" style="stroke:#009E73;stroke-width:10.00"/>
	<line x1="680.90" y1="470.98" x2="700.19" y2="472.33" style="stroke:#009E73;stroke-width:10.00"/>
	<line x1="717.97" y1="473.53" x2="738.38" y2="474.96" style="stroke:#009E73;stroke-width:10.00"/>
	<line x1="756.16" y1="476.16" x2="776.56" y2="477.60" style="stroke:#009E73;stroke-width:10.00"/>
	<line x1="794.34" y1="478.87" x2="814.75" y2="480.23" style="stroke:#009E73;stroke-width:10.00"/>
	<line x1="832.53" y1="481.50" x2="852.94" y2="482.86" style="stroke:#009E73;stroke-width:10.00"/>
	<line x1="870.72" y1="484.13" x2="891.12" y2="485.57" style="stroke:#009E73;stroke-width:10.00"/>
	<line x1="908.90" y1="486.84" x2="910.89" y2="486.92" style="stroke:#009E73;stroke-width:10.00"/>
	<line x1="910.89" y1="486.92" x2="910.89" y2="486.92" style="stroke:#009E73;stroke-width:10.00"/>
	<line x1="910.89" y1="486.92" x2="910.89" y2="486.92" style="stroke:#009E73;stroke-width:10.00"/>
	<line x1="910.89" y1="486.92" x2="910.89" y2="486.92" style="stroke:#009E73;stroke-width:10.00"/>
	<line x1="910.89" y1="486.92" x2="929.31" y2="487.80" style="stroke:#009E73;stroke-width:10.00"/>
	<line x1="947.09" y1="488.68" x2="967.50" y2="489.71" style="stroke:#009E73;stroke-width:10.00"/>
	<line x1="985.27" y1="490.51" x2="1005.68" y2="491.55" style="stroke:#009E73;stroke-width:10.00"/>
	<line x1="1023.46" y1="492.34" x2="1043.87" y2="493.38" style="stroke:#009E73;stroke-width:10.00"/>
	<line x1="1061.65" y1="494.26" x2="1082.06" y2="495.21" style="stroke:#009E73;stroke-width:10.00"/>
	<line x1="1099.83" y1="496.09" x2="1120.24" y2="497.05" style="stroke:#009E73;stroke-width:10.00"/>
	<line x1="1138.10" y1="497.84" x2="1140.89" y2="498.00" style="stroke:#009E73;stroke-width:10.00"/>
	<line x1="1140.89" y1="498.00" x2="1140.89" y2="498.00" style="stroke:#009E73;stroke-width:10.00"/>
	<line x1="1140.89" y1="498.00" x2="1140.89" y2="498.00" style="stroke:#009E73;stroke-width:10.00"/>
	<line x1="1140.89" y1="498.00" x2="1140.89" y2="498.00" style="stroke:#009E73;stroke-width:10.00"/>
	<line x1="1140.89" y1="498.00" x2="1158.35" y2="496.09" style="stroke:#009E73;stroke-width:10.00"/>
	<line x1="1176.13" y1="494.18" x2="1196.46" y2="492.02" style="stroke:#009E73;stroke-width:10.00"/>
	<line x1="1214.15" y1="490.03" x2="1234.48" y2="487.88" style="stroke:#009E73;stroke-width:10.00"/>
	<line x1="1252.18" y1="485.97" x2="1272.51" y2="483.73" style="stroke:#009E73;stroke-width:10.00"/>
	<line x1="1290.21" y1="481.82" x2="1310.54" y2="479.67" style="stroke:#009E73;stroke-width:10.00"/>
	<line x1="1328.24" y1="477.75" x2="1348.56" y2="475.60" style="stroke:#009E73;stroke-width:10.00"/>
	<line x1="1366.34" y1="473.69" x2="1370.81" y2="473.21" style="stroke:#009E73;stroke-width:10.00"/>
	<line x1="1370.81" y1="473.21" x2="1370.81" y2="473.21" style="stroke:#009E73;stroke-width:10.00"/>
	<line x1="1370.81" y1="473.21" x2="1370.81" y2="473.21" style="stroke:#009E73;stroke-width:10.00"/>
	<line x1="1370.81" y1="473.21" x2="1370.81" y2="473.21" style="stroke:#009E73;stroke-width:10.00"/>
	<line x1="1370.81" y1="473.21" x2="1386.67" y2="473.13" style="stroke:#009E73;stroke-width:10.00"/>
	<line x1="1404.53" y1="473.05" x2="1424.94" y2="472.97" style="stroke:#009E73;stroke-width:10.00"/>
	<line x1="1442.80" y1="472.89" x2="1463.20" y2="472.81" style="stroke:#009E73;stroke-width:10.00"/>
	<line x1="1481.06" y1="472.73" x2="1501.47" y2="472.65" style="stroke:#009E73;stroke-width:10.00"/>
	<line x1="1519.33" y1="472.57" x2="1539.74" y2="472.41" style="stroke:#009E73;stroke-width:10.00"/>
	<line x1="1557.59" y1="472.33" x2="1578.00" y2="472.25" style="stroke:#009E73;stroke-width:10.00"/>
	<line x1="1595.86" y1="472.17" x2="1600.80" y2="472.17" style="stroke:#009E73;stroke-width:10.00"/>
	<line x1="1600.80" y1="472.17" x2="1600.80" y2="472.17" style="stroke:#009E73;stroke-width:10.00"/>
	<line x1="1600.80" y1="472.17" x2="1600.80" y2="472.17" style="stroke:#009E73;stroke-width:10.00"/>
	<line x1="1600.80" y1="472.17" x2="1600.80" y2="472.17" style="stroke:#009E73;stroke-width:10.00"/>
	<line x1="1600.80" y1="472.17" x2="1616.27" y2="472.17" style="stroke:#009E73;stroke-width:10.00"/>
	<line x1="1634.13" y1="472.17" x2="1654.53" y2="472.17" style="stroke:#009E73;stroke-width:10.00"/>
	<line x1="1672.39" y1="472.17" x2="1692.80" y2="472.09" style="stroke:#009E73;stroke-width:10.00"/>
	<line x1="1710.66" y1="472.09" x2="1731.07" y2="472.09" style="stroke:#009E73;stroke-width:10.00"/>
	<line x1="1748.92" y1="472.09" x2="1769.33" y2="472.09" style="stroke:#009E73;stroke-width:10.00"/>
	<line x1="1787.19" y1="472.01" x2="1807.60" y2="472.01" style="stroke:#009E73;stroke-width:10.00"/>
	<line x1="1825.46" y1="472.01" x2="1830.80" y2="472.01" style="stroke:#009E73;stroke-width:10.00"/>
	<line x1="1830.80" y1="472.01" x2="1830.80" y2="472.01" style="stroke:#009E73;stroke-width:10.00"/>
	<line x1="1830.80" y1="472.01" x2="1830.80" y2="472.01" style="stroke:#009E73;stroke-width:10.00"/>
	<line x1="1830.80" y1="472.01" x2="1830.80" y2="472.01" style="stroke:#009E73;stroke-width:10.00"/>
	<line x1="1830.80" y1="472.01" x2="1845.87" y2="472.97" style="stroke:#009E73;stroke-width:10.00"/>
	<line x1="1863.64" y1="474.09" x2="1884.05" y2="475.28" style="stroke:#009E73;stroke-width:10.00"/>
	<line x1="1901.83" y1="476.40" x2="1922.24" y2="477.67" style="stroke:#009E73;stroke-width:10.00"/>
	<line x1="1940.02" y1="478.79" x2="1960.43" y2="479.99" style="stroke:#009E73;stroke-width:10.00"/>
	<line x1="1978.20" y1="481.10" x2="1998.61" y2="482.38" style="stroke:#009E73;stroke-width:10.00"/>
	<line x1="2016.39" y1="483.49" x2="2036.80" y2="484.69" style="stroke:#009E73;stroke-width:10.00"/>
	<line x1="2054.58" y1="485.73" x2="2060.79" y2="486.12" style="stroke:#009E73;stroke-width:10.00"/>
	<line x1="2060.79" y1="486.12" x2="2060.79" y2="486.12" style="stroke:#009E73;stroke-width:10.00"/>
	<line x1="2060.79" y1="486.12" x2="2060.79" y2="486.12" style="stroke:#009E73;stroke-width:10.00"/>
	<line x1="2060.79" y1="486.12" x2="2060.79" y2="486.12" style="stroke:#009E73;stroke-width:10.00"/>
	<line x1="2060.79" y1="486.12" x2="2074.98" y2="485.41" style="stroke:#009E73;stroke-width:10.00"/>
	<line x1="2092.84" y1="484.45" x2="2113.17" y2="483.41" style="stroke:#009E73;stroke-width:10.00"/>
	<line x1="2131.03" y1="482.46" x2="2151.36" y2="481.42" style="stroke:#009E73;stroke-width:10.00"/>
	<line x1="2169.21" y1="480.46" x2="2189.54" y2="479.43" style="stroke:#009E73;stroke-width:10.00"/>
	<line x1="2207.40" y1="478.47" x2="2227.73" y2="477.36" style="stroke:#009E73;stroke-width:10.00"/>
	<line x1="2245.59" y1="476.48" x2="2265.92" y2="475.36" style="stroke:#009E73;stroke-width:10.00"/>
	<line x1="2283.77" y1="474.49" x2="2290.79" y2="474.09" style="stroke:#009E73;stroke-width:10.00"/>
	<line x1="2290.79" y1="474.09" x2="2290.79" y2="474.09" style="stroke:#009E73;stroke-width:10.00"/>
	<line x1="2290.79" y1="474.09" x2="2290.79" y2="474.09" style="stroke:#009E73;stroke-width:10.00"/>
	<line x1="2290.79" y1="474.09" x2="2290.79" y2="474.09" style="stroke:#009E73;stroke-width:10.00"/>
	<line x1="450.90" y1="630.66" x2="680.90" y2="593.67" stroke-linecap="round" style="stroke:#D55E00;stroke-width:10.00"/>
	<line x1="680.90" y1="593.67" x2="910.89" y2="585.14" stroke-linecap="round" style="stroke:#D55E00;stroke-width:10.00"/>
	<line x1="910.89" y1="585.14" x2="1140.89" y2="579.00" stroke-linecap="round" style="stroke:#D55E00;stroke-width:10.00"/>
	<line x1="1140.89" y1="579.00" x2="1370.81" y2="508.53" stroke-linecap="round" style="stroke:#D55E00;stroke-width:10.00"/>
	<line x1="1370.81" y1="508.53" x2="1600.80" y2="476.64" stroke-linecap="round" style="stroke:#D55E00;stroke-width:10.00"/>
	<line x1="1600.80" y1="476.64" x2="1830.80" y2="496.57" stroke-linecap="round" style="stroke:#D55E00;stroke-width:10.00"/>
	<line x1="1830.80" y1="496.57" x2="2060.79" y2="508.05" stroke-linecap="round" style="stroke:#D55E00;stroke-width:10.00"/>
	<line x1="2060.79" y1="508.05" x2="2290.79" y2="463.17" stroke-linecap="round" style="stroke:#D55E00;stroke-width:10.00"/>
	<line x1="450.90" y1="566.16" x2="450.90" y2="566.16" style="stroke:#D55E00;stroke-width:10.00"/>
	<line x1="450.90" y1="566.16" x2="450.90" y2="566.16" style="stroke:#D55E00;stroke-width:10.00"/>
	<line x1="450.90" y1="566.16" x2="450.90" y2="566.16" style="stroke:#D55E00;stroke-width:10.00"/>
	<line x1="450.90" y1="566.16" x2="471.15" y2="563.53" style="stroke:#D55E00;stroke-width:10.00"/>
	<line x1="488.85" y1="561.22" x2="509.10" y2="558.59" style="stroke:#D55E00;stroke-width:10.00"/>
	<line x1="526.80" y1="556.28" x2="547.05" y2="553.65" style="stroke:#D55E00;stroke-width:10.00"/>
	<line x1="564.75" y1="551.33" x2="584.99" y2="548.70" style="stroke:#D55E00;stroke-width:10.00"/>
	<line x1="602.69" y1="546.39" x2="622.94" y2="543.76" style="stroke:#D55E00;stroke-width:10.00"/>
	<line x1="640.64" y1="541.45" x2="660.89" y2="538.82" style="stroke:#D55E00;stroke-width:10.00"/>
	<line x1="678.59" y1="536.59" x2="680.90" y2="536.27" style="stroke:#D55E00;stroke-width:10.00"/>
	<line x1="680.90" y1="536.27" x2="680.90" y2="536.27" style="stroke:#D55E00;stroke-width:10.00"/>
	<line x1="680.90" y1="536.27" x2="680.90" y2="536.27" style="stroke:#D55E00;stroke-width:10.00"/>
	<line x1="680.90" y1="536.27" x2="680.90" y2="536.27" style="stroke:#D55E00;stroke-width:10.00"/>
	<line x1="680.90" y1="536.27" x2="699.00" y2="536.43" style="stroke:#D55E00;stroke-width:10.00"/>
	<line x1="716.85" y1="536.67" x2="737.26" y2="536.91" style="stroke:#D55E00;stroke-width:10.00"/>
	<line x1="755.12" y1="537.07" x2="775.53" y2="537.30" style="stroke:#D55E00;stroke-width:10.00"/>
	<line x1="793.39" y1="537.54" x2="813.79" y2="537.78" style="stroke:#D55E00;stroke-width:10.00"/>
	<line x1="831.65" y1="538.02" x2="852.06" y2="538.26" style="stroke:#D55E00;stroke-width:10.00"/>
	<line x1="869.92" y1="538.42" x2="890.33" y2="538.66" style="stroke:#D55E00;stroke-width:10.00"/>
	<line x1="908.18" y1="538.90" x2="910.89" y2="538.98" style="stroke:#D55E00;stroke-width:10.00"/>
	<line x1="910.89" y1="538.98" x2="910.89" y2="538.98" style="stroke:#D55E00;stroke-width:10.00"/>
	<line x1="910.89" y1="538.98" x2="910.89" y2="538.98" style="stroke:#D55E00;stroke-width:10.00"/>
	<line x1="910.89" y1="538.98" x2="910.89" y2="538.98" style="stroke:#D55E00;stroke-width:10.00"/>
	<line x1="910.89" y1="538.98" x2="928.51" y2="537.70" style="stroke:#D55E00;stroke-width:10.00"/>
	<line x1="946.37" y1="536.35" x2="966.70" y2="534.91" style="stroke:#D55E00;stroke-width:10.00"/>
	<line x1="984.56" y1="533.56" x2="1004.89" y2="532.04" style="stroke:#D55E00;stroke-width:10.00"/>
	<line x1="1022.74" y1="530.69" x2="1043.07" y2="529.25" style="stroke:#D55E00;stroke-width:10.00"/>
	<line x1="1060.93" y1="527.90" x2="1081.26" y2="526.38" style="stroke:#D55E00;stroke-width:10.00"/>
	<line x1="1099.04" y1="525.11" x2="1119.45" y2="523.59" style="stroke:#D55E00;stroke-width:10.00"/>
	<line x1="1137.22" y1="522.32" x2="1140.89" y2="522.00" style="stroke:#D55E00;stroke-width:10.00"/>
	<line x1="1140.89" y1="522.00" x2="1140.89" y2="522.00" style="stroke:#D55E00;stroke-width:10.00"/>
	<line x1="1140.89" y1="522.00" x2="1140.89" y2="522.00" style="stroke:#D55E00;stroke-width:10.00"/>
	<line x1="1140.89" y1="522.00" x2="1140.89" y2="522.00" style="stroke:#D55E00;stroke-width:10.00"/>
	<line x1="1140.89" y1="522.00" x2="1157.07" y2="517.85" style="stroke:#D55E00;stroke-width:10.00"/>
	<line x1="1174.37" y1="513.39" x2="1194.14" y2="508.37" style="stroke:#D55E00;stroke-width:10.00"/>
	<line x1="1211.52" y1="503.90" x2="1231.29" y2="498.88" style="stroke:#D55E00;stroke-width:10.00"/>
	<line x1="1248.59" y1="494.42" x2="1268.36" y2="489.31" style="stroke:#D55E00;stroke-width:10.00"/>
	<line x1="1285.66" y1="484.85" x2="1305.44" y2="479.75" style="stroke:#D55E00;stroke-width:10.00"/>
	<line x1="1322.73" y1="475.36" x2="1342.51" y2="470.26" style="stroke:#D55E00;stroke-width:10.00"/>
	<line x1="1359.81" y1="465.80" x2="1370.81" y2="463.01" style="stroke:#D55E00;stroke-width:10.00"/>
	<line x1="1370.81" y1="463.01" x2="1370.81" y2="463.01" style="stroke:#D55E00;stroke-width:10.00"/>
	<line x1="1370.81" y1="463.01" x2="1370.81" y2="463.01" style="stroke:#D55E00;stroke-width:10.00"/>
	<line x1="1370.81" y1="463.01" x2="1370.81" y2="463.01" style="stroke:#D55E00;stroke-width:10.00"/>
	<line x1="1370.81" y1="463.01" x2="1379.89" y2="462.29" style="stroke:#D55E00;stroke-width:10.00"/>
	<line x1="1397.67" y1="460.93" x2="1418.00" y2="459.34" style="stroke:#D55E00;stroke-width:10.00"/>
	<line x1="1435.86" y1="457.98" x2="1456.19" y2="456.39" style="stroke:#D55E00;stroke-width:10.00"/>
	<line x1="1474.05" y1="455.03" x2="1494.37" y2="453.44" style="stroke:#D55E00;stroke-width:10.00"/>
	<line x1="1512.15" y1="452.09" x2="1532.48" y2="450.49" style="stroke:#D55E00;stroke-width:10.00"/>
	<line x1="1550.34" y1="449.14" x2="1570.67" y2="447.54" style="stroke:#D55E00;stroke-width:10.00"/>
	<line x1="1588.45" y1="446.19" x2="1600.80" y2="445.23" style="stroke:#D55E00;stroke-width:10.00"/>
	<line x1="1600.80" y1="445.23" x2="1600.80" y2="445.23" style="stroke:#D55E00;stroke-width:10.00"/>
	<line x1="1600.80" y1="445.23" x2="1600.80" y2="445.23" style="stroke:#D55E00;stroke-width:10.00"/>
	<line x1="1600.80" y1="445.23" x2="1600.80" y2="445.23" style="stroke:#D55E00;stroke-width:10.00"/>
	<line x1="1600.80" y1="445.23" x2="1608.77" y2="446.03" style="stroke:#D55E00;stroke-width:10.00"/>
	<line x1="1626.55" y1="447.62" x2="1646.88" y2="449.53" style="stroke:#D55E00;stroke-width:10.00"/>
	<line x1="1664.66" y1="451.21" x2="1684.99" y2="453.04" style="stroke:#D55E00;stroke-width:10.00"/>
	<line x1="1702.77" y1="454.72" x2="1723.09" y2="456.63" style="stroke:#D55E00;stroke-width:10.00"/>
	<line x1="1740.87" y1="458.22" x2="1761.20" y2="460.14" style="stroke:#D55E00;stroke-width:10.00"/>
	<line x1="1778.98" y1="461.73" x2="1799.31" y2="463.64" style="stroke:#D55E00;stroke-width:10.00"/>
	<line x1="1817.09" y1="465.24" x2="1830.80" y2="466.51" style="stroke:#D55E00;stroke-width:10.00"/>
	<line x1="1830.80" y1="466.51" x2="1830.80" y2="466.51" style="stroke:#D55E00;stroke-width:10.00"/>
	<line x1="1830.80" y1="466.51" x2="1830.80" y2="466.51" style="stroke:#D55E00;stroke-width:10.00"/>
	<line x1="1830.80" y1="466.51" x2="1830.80" y2="466.51" style="stroke:#D55E00;stroke-width:10.00"/>
	<line x1="1830.80" y1="466.51" x2="1837.49" y2="466.91" style="stroke:#D55E00;stroke-width:10.00"/>
	<line x1="1855.27" y1="468.11" x2="1875.68" y2="469.46" style="stroke:#D55E00;stroke-width:10.00"/>
	<line x1="1893.46" y1="470.66" x2="1913.87" y2="472.01" style="stroke:#D55E00;stroke-width:10.00"/>
	<line x1="1931.65" y1="473.21" x2="1952.05" y2="474.57" style="stroke:#D55E00;stroke-width:10.00"/>
	<line x1="1969.83" y1="475.76" x2="1990.24" y2="477.12" style="stroke:#D55E00;stroke-width:10.00"/>
	<line x1="2008.02" y1="478.31" x2="2028.43" y2="479.67" style="stroke:#D55E00;stroke-width:10.00"/>
	<line x1="2046.21" y1="480.86" x2="2060.79" y2="481.82" style="stroke:#D55E00;stroke-width:10.00"/>
	<line x1="2060.79" y1="481.82" x2="2060.79" y2="481.82" style="stroke:#D55E00;stroke-width:10.00"/>
	<line x1="2060.79" y1="481.82" x2="2060.79" y2="481.82" style="stroke:#D55E00;stroke-width:10.00"/>
	<line x1="2060.79" y1="481.82" x2="2060.79" y2="481.82" style="stroke:#D55E00;stroke-width:10.00"/>
	<line x1="2060.79" y1="481.82" x2="2066.53" y2="481.02" style="stroke:#D55E00;stroke-width:10.00"/>
	<line x1="2084.23" y1="478.63" x2="2104.48" y2="475.92" style="stroke:#D55E00;stroke-width:10.00"/>
	<line x1="2122.18" y1="473.53" x2="2142.43" y2="470.74" style="stroke:#D55E00;stroke-width:10.00"/>
	<line x1="2160.13" y1="468.35" x2="2180.30" y2="465.56" style="stroke:#D55E00;stroke-width:10.00"/>
	<line x1="2197.99" y1="463.17" x2="2218.24" y2="460.46" style="stroke:#D55E00;stroke-width:10.00"/>
	<line x1="2235.94" y1="457.98" x2="2256.11" y2="455.27" style="stroke:#D55E00;stroke-width:10.00"/>
	<line x1="2273.81" y1="452.80" x2="2290.79" y2="450.49" style="stroke:#D55E00;stroke-width:10.00"/>
	<line x1="2290.79" y1="450.49" x2="2290.79" y2="450.49" style="stroke:#D55E00;stroke-width:10.00"/>
	<line x1="2290.79" y1="450.49" x2="2290.79" y2="450.49" style="stroke:#D55E00;stroke-width:10.00"/>
	<line x1="2290.79" y1="450.49" x2="2290.79" y2="450.49" style="stroke:#D55E00;stroke-width:10.00"/>
	<line x1="1370.81" y1="526.70" x2="1600.80" y2="502.07" stroke-linecap="round" style="stroke:#CC79A7;stroke-width:10.00"/>
	<line x1="1600.80" y1="502.07" x2="1830.80" y2="530.93" stroke-linecap="round" style="stroke:#CC79A7;stroke-width:10.00"/>
	<line x1="1830.80" y1="530.93" x2="2060.79" y2="513.23" stroke-linecap="round" style="stroke:#CC79A7;stroke-width:10.00"/>
	<line x1="2060.79" y1="513.23" x2="2290.79" y2="492.18" stroke-linecap="round" style="stroke:#CC79A7;stroke-width:10.00"/>
	<line x1="1370.81" y1="523.11" x2="1370.81" y2="523.11" style="stroke:#CC79A7;stroke-width:10.00"/>
	<line x1="1370.81" y1="523.11" x2="1370.81" y2="523.11" style="stroke:#CC79A7;stroke-width:10.00"/>
	<line x1="1370.81" y1="523.11" x2="1370.81" y2="523.11" style="stroke:#CC79A7;stroke-width:10.00"/>
	<line x1="1370.81" y1="523.11" x2="1391.14" y2="521.84" style="stroke:#CC79A7;stroke-width:10.00"/>
	<line x1="1408.99" y1="520.64" x2="1429.32" y2="519.37" style="stroke:#CC79A7;stroke-width:10.00"/>
	<line x1="1447.18" y1="518.25" x2="1467.51" y2="516.98" style="stroke:#CC79A7;stroke-width:10.00"/>
	<line x1="1485.37" y1="515.78" x2="1505.70" y2="514.50" style="stroke:#CC79A7;stroke-width:10.00"/>
	<line x1="1523.55" y1="513.31" x2="1543.88" y2="512.03" style="stroke:#CC79A7;stroke-width:10.00"/>
	<line x1="1561.74" y1="510.92" x2="1582.07" y2="509.56" style="stroke:#CC79A7;stroke-width:10.00"/>
	<line x1="1599.93" y1="508.37" x2="1600.80" y2="508.37" style="stroke:#CC79A7;stroke-width:10.00"/>
	<line x1="1600.80" y1="508.37" x2="1600.80" y2="508.37" style="stroke:#CC79A7;stroke-width:10.00"/>
	<line x1="1600.80" y1="508.37" x2="1600.80" y2="508.37" style="stroke:#CC79A7;stroke-width:10.00"/>
	<line x1="1600.80" y1="508.37" x2="1600.80" y2="508.37" style="stroke:#CC79A7;stroke-width:10.00"/>
	<line x1="1600.80" y1="508.37" x2="1620.17" y2="510.60" style="stroke:#CC79A7;stroke-width:10.00"/>
	<line x1="1637.95" y1="512.67" x2="1658.20" y2="514.98" style="stroke:#CC79A7;stroke-width:10.00"/>
	<line x1="1675.98" y1="517.06" x2="1696.31" y2="519.37" style="stroke:#CC79A7;stroke-width:10.00"/>
	<line x1="1714.01" y1="521.36" x2="1734.34" y2="523.75" style="stroke:#CC79A7;stroke-width:10.00"/>
	<line x1="1752.03" y1="525.75" x2="1772.36" y2="528.06" style="stroke:#CC79A7;stroke-width:10.00"/>
	<line x1="1790.06" y1="530.13" x2="1810.39" y2="532.52" style="stroke:#CC79A7;stroke-width:10.00"/>
	<line x1="1828.09" y1="534.51" x2="1830.80" y2="534.83" style="stroke:#CC79A7;stroke-width:10.00"/>
	<line x1="1830.80" y1="534.83" x2="1830.80" y2="534.83" style="stroke:#CC79A7;stroke-width:10.00"/>
	<line x1="1830.80" y1="534.83" x2="1830.80" y2="534.83" style="stroke:#CC79A7;stroke-width:10.00"/>
	<line x1="1830.80" y1="534.83" x2="1830.80" y2="534.83" style="stroke:#CC79A7;stroke-width:10.00"/>
	<line x1="1830.80" y1="534.83" x2="1848.42" y2="532.92" style="stroke:#CC79A7;stroke-width:10.00"/>
	<line x1="1866.11" y1="530.93" x2="1886.44" y2="528.69" style="stroke:#CC79A7;stroke-width:10.00"/>
	<line x1="1904.14" y1="526.78" x2="1924.47" y2="524.55" style="stroke:#CC79A7;stroke-width:10.00"/>
	<line x1="1942.17" y1="522.56" x2="1962.50" y2="520.32" style="stroke:#CC79A7;stroke-width:10.00"/>
	<line x1="1980.20" y1="518.41" x2="2000.52" y2="516.18" style="stroke:#CC79A7;stroke-width:10.00"/>
	<line x1="2018.22" y1="514.27" x2="2038.55" y2="512.03" style="stroke:#CC79A7;stroke-width:10.00"/>
	<line x1="2056.33" y1="510.12" x2="2060.79" y2="509.56" style="stroke:#CC79A7;stroke-width:10.00"/>
	<line x1="2060.79" y1="509.56" x2="2060.79" y2="509.56" style="stroke:#CC79A7;stroke-width:10.00"/>
	<line x1="2060.79" y1="509.56" x2="2060.79" y2="509.56" style="stroke:#CC79A7;stroke-width:10.00"/>
	<line x1="2060.79" y1="509.56" x2="2060.79" y2="509.56" style="stroke:#CC79A7;stroke-width:10.00"/>
	<line x1="2060.79" y1="509.56" x2="2076.58" y2="508.13" style="stroke:#CC79A7;stroke-width:10.00"/>
	<line x1="2094.44" y1="506.45" x2="2114.77" y2="504.62" style="stroke:#CC79A7;stroke-width:10.00"/>
	<line x1="2132.54" y1="502.95" x2="2152.87" y2="501.03" style="stroke:#CC79A7;stroke-width:10.00"/>
	<line x1="2170.65" y1="499.44" x2="2190.98" y2="497.52" style="stroke:#CC79A7;stroke-width:10.00"/>
	<line x1="2208.76" y1="495.93" x2="2229.09" y2="494.10" style="stroke:#CC79A7;stroke-width:10.00"/>
	<line x1="2246.86" y1="492.42" x2="2267.19" y2="490.59" style="stroke:#CC79A7;stroke-width:10.00"/>
	<line x1="2284.97" y1="488.99" x2="2290.79" y2="488.44" style="stroke:#CC79A7;stroke-width:10.00"/>
	<line x1="2290.79" y1="488.44" x2="2290.79" y2="488.44" style="stroke:#CC79A7;stroke-width:10.00"/>
	<line x1="2290.79" y1="488.44" x2="2290.79" y2="488.44" style="stroke:#CC79A7;stroke-width:10.00"/>
	<line x1="2290.79" y1="488.44" x2="2290.79" y2="488.44" style="stroke:#CC79A7;stroke-width:10.00"/>
	<line x1="450.90" y1="406.01" x2="450.90" y2="406.01" style="stroke:#A0A0A0;stroke-width:10.00"/>
	<line x1="450.90" y1="406.01" x2="450.90" y2="406.01" style="stroke:#A0A0A0;stroke-width:10.00"/>
	<line x1="450.90" y1="406.01" x2="501.92" y2="404.89" style="stroke:#A0A0A0;stroke-width:10.00"/>
	<line x1="527.44" y1="404.33" x2="578.46" y2="403.14" style="stroke:#A0A0A0;stroke-width:10.00"/>
	<line x1="603.97" y1="402.66" x2="654.99" y2="401.46" style="stroke:#A0A0A0;stroke-width:10.00"/>
	<line x1="680.50" y1="400.91" x2="680.90" y2="400.91" style="stroke:#A0A0A0;stroke-width:10.00"/>
	<line x1="680.90" y1="400.91" x2="680.90" y2="400.91" style="stroke:#A0A0A0;stroke-width:10.00"/>
	<line x1="680.90" y1="400.91" x2="680.90" y2="400.91" style="stroke:#A0A0A0;stroke-width:10.00"/>
	<line x1="680.90" y1="400.91" x2="731.44" y2="403.70" style="stroke:#A0A0A0;stroke-width:10.00"/>
	<line x1="756.95" y1="405.13" x2="807.90" y2="407.92" style="stroke:#A0A0A0;stroke-width:10.00"/>
	<line x1="833.33" y1="409.28" x2="884.27" y2="412.15" style="stroke:#A0A0A0;stroke-width:10.00"/>
	<line x1="909.78" y1="413.50" x2="910.89" y2="413.58" style="stroke:#A0A0A0;stroke-width:10.00"/>
	<line x1="910.89" y1="413.58" x2="910.89" y2="413.58" style="stroke:#A0A0A0;stroke-width:10.00"/>
	<line x1="910.89" y1="413.58" x2="910.89" y2="413.58" style="stroke:#A0A0A0;stroke-width:10.00"/>
	<line x1="910.89" y1="413.58" x2="960.80" y2="413.42" style="stroke:#A0A0A0;stroke-width:10.00"/>
	<line x1="986.31" y1="413.34" x2="1037.33" y2="413.26" style="stroke:#A0A0A0;stroke-width:10.00"/>
	<line x1="1062.84" y1="413.18" x2="1113.87" y2="413.02" style="stroke:#A0A0A0;stroke-width:10.00"/>
	<line x1="1139.38" y1="412.94" x2="1140.89" y2="412.94" style="stroke:#A0A0A0;stroke-width:10.00"/>
	<line x1="1140.89" y1="412.94" x2="1140.89" y2="412.94" style="stroke:#A0A0A0;stroke-width:10.00"/>
	<line x1="1140.89" y1="412.94" x2="1140.89" y2="412.94" style="stroke:#A0A0A0;stroke-width:10.00"/>
	<line x1="1140.89" y1="412.94" x2="1190.32" y2="410.71" style="stroke:#A0A0A0;stroke-width:10.00"/>
	<line x1="1215.83" y1="409.52" x2="1266.77" y2="407.20" style="stroke:#A0A0A0;stroke-width:10.00"/>
	<line x1="1292.28" y1="406.01" x2="1343.22" y2="403.70" style="stroke:#A0A0A0;stroke-width:10.00"/>
	<line x1="1368.73" y1="402.50" x2="1370.81" y2="402.42" style="stroke:#A0A0A0;stroke-width:10.00"/>
	<line x1="1370.81" y1="402.42" x2="1370.81" y2="402.42" style="stroke:#A0A0A0;stroke-width:10.00"/>
	<line x1="1370.81" y1="402.42" x2="1370.81" y2="402.42" style="stroke:#A0A0A0;stroke-width:10.00"/>
	<line x1="1370.81" y1="402.42" x2="1419.68" y2="400.99" style="stroke:#A0A0A0;stroke-width:10.00"/>
	<line x1="1445.19" y1="400.27" x2="1496.21" y2="398.75" style="stroke:#A0A0A0;stroke-width:10.00"/>
	<line x1="1521.72" y1="397.96" x2="1572.66" y2="396.44" style="stroke:#A0A0A0;stroke-width:10.00"/>
	<line x1="1598.17" y1="395.72" x2="1600.80" y2="395.64" style="stroke:#A0A0A0;stroke-width:10.00"/>
	<line x1="1600.80" y1="395.64" x2="1600.80" y2="395.64" style="stroke:#A0A0A0;stroke-width:10.00"/>
	<line x1="1600.80" y1="395.64" x2="1600.80" y2="395.64" style="stroke:#A0A0A0;stroke-width:10.00"/>
	<line x1="1600.80" y1="395.64" x2="1649.19" y2="396.68" style="stroke:#A0A0A0;stroke-width:10.00"/>
	<line x1="1674.70" y1="397.24" x2="1725.73" y2="398.35" style="stroke:#A0A0A0;stroke-width:10.00"/>
	<line x1="1751.24" y1="398.99" x2="1802.26" y2="400.11" style="stroke:#A0A0A0;stroke-width:10.00"/>
	<line x1="1827.77" y1="400.67" x2="1830.80" y2="400.75" style="stroke:#A0A0A0;stroke-width:10.00"/>
	<line x1="1830.80" y1="400.75" x2="1830.80" y2="400.75" style="stroke:#A0A0A0;stroke-width:10.00"/>
	<line x1="1830.80" y1="400.75" x2="1830.80" y2="400.75" style="stroke:#A0A0A0;stroke-width:10.00"/>
	<line x1="1830.80" y1="400.75" x2="1878.79" y2="400.91" style="stroke:#A0A0A0;stroke-width:10.00"/>
	<line x1="1904.30" y1="401.07" x2="1955.32" y2="401.30" style="stroke:#A0A0A0;stroke-width:10.00"/>
	<line x1="1980.83" y1="401.38" x2="2031.86" y2="401.62" style="stroke:#A0A0A0;stroke-width:10.00"/>
	<line x1="2057.37" y1="401.78" x2="2060.79" y2="401.78" style="stroke:#A0A0A0;stroke-width:10.00"/>
	<line x1="2060.79" y1="401.78" x2="2060.79" y2="401.78" style="stroke:#A0A0A0;stroke-width:10.00"/>
	<line x1="2060.79" y1="401.78" x2="2060.79" y2="401.78" style="stroke:#A0A0A0;stroke-width:10.00"/>
	<line x1="2060.79" y1="401.78" x2="2108.39" y2="400.99" style="stroke:#A0A0A0;stroke-width:10.00"/>
	<line x1="2133.90" y1="400.59" x2="2184.92" y2="399.87" style="stroke:#A0A0A0;stroke-width:10.00"/>
	<line x1="2210.43" y1="399.47" x2="2261.45" y2="398.67" style="stroke:#A0A0A0;stroke-width:10.00"/>
	<line x1="2286.96" y1="398.27" x2="2290.79" y2="398.20" style="stroke:#A0A0A0;stroke-width:10.00"/>
	<line x1="2290.79" y1="398.20" x2="2290.79" y2="398.20" style="stroke:#A0A0A0;stroke-width:10.00"/>
	<line x1="2290.79" y1="398.20" x2="2290.79" y2="398.20" style="stroke:#A0A0A0;stroke-width:10.00"/>
	<line x1="394.86" y1="1717.22" x2="359.38" y2="1717.22" style="stroke:#000000;stroke-width:4.00"/>
	<text x="341.69" y="1734.74" style="font-family:'Helvetica';font-size:49.99px;fill:#000000" text-anchor="end">0</text>
	<line x1="394.86" y1="1570.86" x2="359.38" y2="1570.86" style="stroke:#000000;stroke-width:4.00"/>
	<text x="341.69" y="1588.37" style="font-family:'Helvetica';font-size:49.99px;fill:#000000" text-anchor="end">10</text>
	<line x1="394.86" y1="1424.49" x2="359.38" y2="1424.49" style="stroke:#000000;stroke-width:4.00"/>
	<text x="341.69" y="1442.01" style="font-family:'Helvetica';font-size:49.99px;fill:#000000" text-anchor="end">20</text>
	<line x1="394.86" y1="1278.05" x2="359.38" y2="1278.05" style="stroke:#000000;stroke-width:4.00"/>
	<text x="341.69" y="1295.57" style="font-family:'Helvetica';font-size:49.99px;fill:#000000" text-anchor="end">30</text>
	<line x1="394.86" y1="1131.69" x2="359.38" y2="1131.69" style="stroke:#000000;stroke-width:4.00"/>
	<text x="341.69" y="1149.20" style="font-family:'Helvetica';font-size:49.99px;fill:#000000" text-anchor="end">40</text>
	<line x1="394.86" y1="985.32" x2="359.38" y2="985.32" style="stroke:#000000;stroke-width:4.00"/>
	<text x="341.69" y="1002.84" style="font-family:'Helvetica';font-size:49.99px;fill:#000000" text-anchor="end">50</text>
	<line x1="394.86" y1="838.88" x2="359.38" y2="838.88" style="stroke:#000000;stroke-width:4.00"/>
	<text x="341.69" y="856.39" style="font-family:'Helvetica';font-size:49.99px;fill:#000000" text-anchor="end">60</text>
	<line x1="394.86" y1="692.52" x2="359.38" y2="692.52" style="stroke:#000000;stroke-width:4.00"/>
	<text x="341.69" y="710.03" style="font-family:'Helvetica';font-size:49.99px;fill:#000000" text-anchor="end">70</text>
	<line x1="394.86" y1="546.07" x2="359.38" y2="546.07" style="stroke:#000000;stroke-width:4.00"/>
	<text x="341.69" y="563.59" style="font-family:'Helvetica';font-size:49.99px;fill:#000000" text-anchor="end">80</text>
	<line x1="394.86" y1="399.71" x2="359.38" y2="399.71" style="stroke:#000000;stroke-width:4.00"/>
	<text x="341.69" y="417.22" style="font-family:'Helvetica';font-size:49.99px;fill:#000000" text-anchor="end">90</text>
	<line x1="394.86" y1="253.35" x2="359.38" y2="253.35" style="stroke:#000000;stroke-width:4.00"/>
	<text x="341.69" y="270.86" style="font-family:'Helvetica';font-size:49.99px;fill:#000000" text-anchor="end">100</text>
	<line x1="394.86" y1="1717.22" x2="394.86" y2="253.35" style="stroke:#000000;stroke-width:4.00"/>
	<text x="136.21" y="947.06" style="font-family:'Helvetica';font-size:60.03px;fill:#000000" transform="rotate(-90 136.21,947.06)" text-anchor="middle">Employment rate (in %)</text>
	<line x1="450.98" y1="1773.34" x2="450.98" y2="1808.82" style="stroke:#000000;stroke-width:4.00"/>
	<text x="450.98" y="1861.46" style="font-family:'Helvetica';font-size:49.99px;fill:#000000" text-anchor="middle">2007</text>
	<line x1="910.89" y1="1773.34" x2="910.89" y2="1808.82" style="stroke:#000000;stroke-width:4.00"/>
	<text x="910.89" y="1861.46" style="font-family:'Helvetica';font-size:49.99px;fill:#000000" text-anchor="middle">2009</text>
	<line x1="1370.89" y1="1773.34" x2="1370.89" y2="1808.82" style="stroke:#000000;stroke-width:4.00"/>
	<text x="1370.89" y="1861.46" style="font-family:'Helvetica';font-size:49.99px;fill:#000000" text-anchor="middle">2011</text>
	<line x1="1830.88" y1="1773.34" x2="1830.88" y2="1808.82" style="stroke:#000000;stroke-width:4.00"/>
	<text x="1830.88" y="1861.46" style="font-family:'Helvetica';font-size:49.99px;fill:#000000" text-anchor="middle">2013</text>
	<line x1="2290.79" y1="1773.34" x2="2290.79" y2="1808.82" style="stroke:#000000;stroke-width:4.00"/>
	<text x="2290.79" y="1861.46" style="font-family:'Helvetica';font-size:49.99px;fill:#000000" text-anchor="middle">2015</text>
	<line x1="450.98" y1="1773.34" x2="2290.79" y2="1773.34" style="stroke:#000000;stroke-width:4.00"/>
	<text x="1332.62" y="2003.86" style="font-family:'Helvetica';font-size:60.03px;fill:#000000" text-anchor="middle">Year</text>
	<text x="145.41" y="2248.05" style="font-family:'Helvetica';font-size:60.03px;fill:#000000">Arr. cohort: </text>
	<text x="536.36" y="2248.05" style="font-family:'Helvetica';font-size:60.03px;fill:#000000">1964-73</text>
	<text x="845.12" y="2248.05" style="font-family:'Helvetica';font-size:60.03px;fill:#000000">1974-83</text>
	<text x="1153.89" y="2248.05" style="font-family:'Helvetica';font-size:60.03px;fill:#000000">1984-93</text>
	<text x="1462.65" y="2248.05" style="font-family:'Helvetica';font-size:60.03px;fill:#000000">1994-03</text>
	<text x="1771.41" y="2248.05" style="font-family:'Helvetica';font-size:60.03px;fill:#000000">2004-10</text>
	<text x="2080.17" y="2248.05" style="font-family:'Helvetica';font-size:60.03px;fill:#000000">German</text>
	<text x="536.36" y="2396.65" style="font-family:'Helvetica';font-size:60.03px;fill:#000000">incl. nat.</text>
	<text x="845.12" y="2396.65" style="font-family:'Helvetica';font-size:60.03px;fill:#000000">incl. nat.</text>
	<text x="1153.89" y="2396.65" style="font-family:'Helvetica';font-size:60.03px;fill:#000000">incl. nat.</text>
	<text x="1462.65" y="2396.65" style="font-family:'Helvetica';font-size:60.03px;fill:#000000">incl. nat.</text>
	<text x="1771.41" y="2396.65" style="font-family:'Helvetica';font-size:60.03px;fill:#000000">incl. nat.</text>
	<line x1="536.36" y1="2152.73" x2="737.26" y2="2152.73" style="stroke:#E69F00;stroke-width:10.00"/>
	<line x1="845.12" y1="2152.73" x2="1046.02" y2="2152.73" style="stroke:#56B4E9;stroke-width:10.00"/>
	<line x1="1153.89" y1="2152.73" x2="1354.78" y2="2152.73" style="stroke:#009E73;stroke-width:10.00"/>
	<line x1="1462.65" y1="2152.73" x2="1663.54" y2="2152.73" style="stroke:#D55E00;stroke-width:10.00"/>
	<line x1="1771.41" y1="2152.73" x2="1972.30" y2="2152.73" style="stroke:#CC79A7;stroke-width:10.00"/>
	<line x1="2080.17" y1="2152.73" x2="2131.19" y2="2152.73" style="stroke:#A0A0A0;stroke-width:10.00"/>
	<line x1="2156.70" y1="2152.73" x2="2207.72" y2="2152.73" style="stroke:#A0A0A0;stroke-width:10.00"/>
	<line x1="2233.23" y1="2152.73" x2="2278.03" y2="2152.73" style="stroke:#A0A0A0;stroke-width:10.00"/>
	<line x1="536.36" y1="2301.32" x2="556.77" y2="2301.32" style="stroke:#E69F00;stroke-width:10.00"/>
	<line x1="574.63" y1="2301.32" x2="595.04" y2="2301.32" style="stroke:#E69F00;stroke-width:10.00"/>
	<line x1="612.90" y1="2301.32" x2="633.31" y2="2301.32" style="stroke:#E69F00;stroke-width:10.00"/>
	<line x1="651.16" y1="2301.32" x2="671.57" y2="2301.32" style="stroke:#E69F00;stroke-width:10.00"/>
	<line x1="689.43" y1="2301.32" x2="709.84" y2="2301.32" style="stroke:#E69F00;stroke-width:10.00"/>
	<line x1="727.70" y1="2301.32" x2="737.26" y2="2301.32" style="stroke:#E69F00;stroke-width:10.00"/>
	<line x1="845.12" y1="2301.32" x2="865.53" y2="2301.32" style="stroke:#56B4E9;stroke-width:10.00"/>
	<line x1="883.39" y1="2301.32" x2="903.80" y2="2301.32" style="stroke:#56B4E9;stroke-width:10.00"/>
	<line x1="921.66" y1="2301.32" x2="942.07" y2="2301.32" style="stroke:#56B4E9;stroke-width:10.00"/>
	<line x1="959.92" y1="2301.32" x2="980.33" y2="2301.32" style="stroke:#56B4E9;stroke-width:10.00"/>
	<line x1="998.19" y1="2301.32" x2="1018.60" y2="2301.32" style="stroke:#56B4E9;stroke-width:10.00"/>
	<line x1="1036.46" y1="2301.32" x2="1046.02" y2="2301.32" style="stroke:#56B4E9;stroke-width:10.00"/>
	<line x1="1153.89" y1="2301.32" x2="1174.29" y2="2301.32" style="stroke:#009E73;stroke-width:10.00"/>
	<line x1="1192.15" y1="2301.32" x2="1212.56" y2="2301.32" style="stroke:#009E73;stroke-width:10.00"/>
	<line x1="1230.42" y1="2301.32" x2="1250.83" y2="2301.32" style="stroke:#009E73;stroke-width:10.00"/>
	<line x1="1268.68" y1="2301.32" x2="1289.09" y2="2301.32" style="stroke:#009E73;stroke-width:10.00"/>
	<line x1="1306.95" y1="2301.32" x2="1327.36" y2="2301.32" style="stroke:#009E73;stroke-width:10.00"/>
	<line x1="1345.22" y1="2301.32" x2="1354.78" y2="2301.32" style="stroke:#009E73;stroke-width:10.00"/>
	<line x1="1462.65" y1="2301.32" x2="1483.05" y2="2301.32" style="stroke:#D55E00;stroke-width:10.00"/>
	<line x1="1500.91" y1="2301.32" x2="1521.32" y2="2301.32" style="stroke:#D55E00;stroke-width:10.00"/>
	<line x1="1539.18" y1="2301.32" x2="1559.59" y2="2301.32" style="stroke:#D55E00;stroke-width:10.00"/>
	<line x1="1577.44" y1="2301.32" x2="1597.85" y2="2301.32" style="stroke:#D55E00;stroke-width:10.00"/>
	<line x1="1615.71" y1="2301.32" x2="1636.12" y2="2301.32" style="stroke:#D55E00;stroke-width:10.00"/>
	<line x1="1653.98" y1="2301.32" x2="1663.54" y2="2301.32" style="stroke:#D55E00;stroke-width:10.00"/>
	<line x1="1771.41" y1="2301.32" x2="1791.81" y2="2301.32" style="stroke:#CC79A7;stroke-width:10.00"/>
	<line x1="1809.67" y1="2301.32" x2="1830.08" y2="2301.32" style="stroke:#CC79A7;stroke-width:10.00"/>
	<line x1="1847.94" y1="2301.32" x2="1868.35" y2="2301.32" style="stroke:#CC79A7;stroke-width:10.00"/>
	<line x1="1886.20" y1="2301.32" x2="1906.61" y2="2301.32" style="stroke:#CC79A7;stroke-width:10.00"/>
	<line x1="1924.47" y1="2301.32" x2="1944.88" y2="2301.32" style="stroke:#CC79A7;stroke-width:10.00"/>
	<line x1="1962.74" y1="2301.32" x2="1972.30" y2="2301.32" style="stroke:#CC79A7;stroke-width:10.00"/>
	<text x="1370.89" y="154.88" style="font-family:'Helvetica';font-size:90.01px;fill:#000000" text-anchor="middle">Men</text>
</svg>
