<?xml version="1.0" encoding="UTF-8" standalone="no"?>
<!-- This is a Stata 15.1 generated SVG file (http://www.stata.com) -->

<svg version="1.1" width="3.54in" height="3.54in" viewBox="0 0 2551 2551" xmlns="http://www.w3.org/2000/svg" xmlns:xlink="http://www.w3.org/1999/xlink">
	<desc>Stata Graph - Graph</desc>
	<rect x="0" y="0" width="2551" height="2551" style="fill:#FFFFFF;stroke:none"/>
	<rect x="0.00" y="0.08" width="2551.00" height="2550.92" style="fill:#FFFFFF"/>
	<rect x="2.55" y="2.63" width="2545.90" height="2545.82" style="fill:none;stroke:#FFFFFF;stroke-width:5.10"/>
	<line x1="365.68" y1="1717.22" x2="2346.91" y2="1717.22" style="stroke:#E8E8E8;stroke-width:4.00"/>
	<line x1="365.68" y1="1424.49" x2="2346.91" y2="1424.49" style="stroke:#E8E8E8;stroke-width:4.00"/>
	<line x1="365.68" y1="1131.69" x2="2346.91" y2="1131.69" style="stroke:#E8E8E8;stroke-width:4.00"/>
	<line x1="365.68" y1="838.88" x2="2346.91" y2="838.88" style="stroke:#E8E8E8;stroke-width:4.00"/>
	<line x1="365.68" y1="546.07" x2="2346.91" y2="546.07" style="stroke:#E8E8E8;stroke-width:4.00"/>
	<line x1="365.68" y1="253.35" x2="2346.91" y2="253.35" style="stroke:#E8E8E8;stroke-width:4.00"/>
	<line x1="421.81" y1="1773.34" x2="421.81" y2="197.22" style="stroke:#E8E8E8;stroke-width:4.00"/>
	<line x1="889.05" y1="1773.34" x2="889.05" y2="197.22" style="stroke:#E8E8E8;stroke-width:4.00"/>
	<line x1="1356.30" y1="1773.34" x2="1356.30" y2="197.22" style="stroke:#E8E8E8;stroke-width:4.00"/>
	<line x1="1823.54" y1="1773.34" x2="1823.54" y2="197.22" style="stroke:#E8E8E8;stroke-width:4.00"/>
	<line x1="2290.79" y1="1773.34" x2="2290.79" y2="197.22" style="stroke:#E8E8E8;stroke-width:4.00"/>
	<line x1="421.73" y1="1236.12" x2="655.39" y2="1156.80" stroke-linecap="round" style="stroke:#56B4E9;stroke-width:10.00"/>
	<line x1="655.39" y1="1156.80" x2="889.05" y2="1309.54" stroke-linecap="round" style="stroke:#56B4E9;stroke-width:10.00"/>
	<line x1="889.05" y1="1309.54" x2="1122.63" y2="1207.02" stroke-linecap="round" style="stroke:#56B4E9;stroke-width:10.00"/>
	<line x1="1122.63" y1="1207.02" x2="1356.30" y2="1240.34" stroke-linecap="round" style="stroke:#56B4E9;stroke-width:10.00"/>
	<line x1="1356.30" y1="1240.34" x2="1589.88" y2="1283.39" stroke-linecap="round" style="stroke:#56B4E9;stroke-width:10.00"/>
	<line x1="421.73" y1="1205.99" x2="421.73" y2="1205.99" style="stroke:#56B4E9;stroke-width:10.00"/>
	<line x1="421.73" y1="1205.99" x2="421.73" y2="1205.99" style="stroke:#56B4E9;stroke-width:10.00"/>
	<line x1="421.73" y1="1205.99" x2="421.73" y2="1205.99" style="stroke:#56B4E9;stroke-width:10.00"/>
	<line x1="421.73" y1="1205.99" x2="441.58" y2="1201.36" style="stroke:#56B4E9;stroke-width:10.00"/>
	<line x1="458.96" y1="1197.30" x2="478.81" y2="1192.67" style="stroke:#56B4E9;stroke-width:10.00"/>
	<line x1="496.19" y1="1188.69" x2="516.04" y2="1183.98" style="stroke:#56B4E9;stroke-width:10.00"/>
	<line x1="533.41" y1="1180.00" x2="553.35" y2="1175.37" style="stroke:#56B4E9;stroke-width:10.00"/>
	<line x1="570.72" y1="1171.31" x2="590.57" y2="1166.68" style="stroke:#56B4E9;stroke-width:10.00"/>
	<line x1="607.95" y1="1162.62" x2="627.80" y2="1157.99" style="stroke:#56B4E9;stroke-width:10.00"/>
	<line x1="645.26" y1="1153.93" x2="655.39" y2="1151.54" style="stroke:#56B4E9;stroke-width:10.00"/>
	<line x1="655.39" y1="1151.54" x2="655.39" y2="1151.54" style="stroke:#56B4E9;stroke-width:10.00"/>
	<line x1="655.39" y1="1151.54" x2="655.39" y2="1151.54" style="stroke:#56B4E9;stroke-width:10.00"/>
	<line x1="655.39" y1="1151.54" x2="655.39" y2="1151.54" style="stroke:#56B4E9;stroke-width:10.00"/>
	<line x1="655.39" y1="1151.54" x2="664.80" y2="1154.81" style="stroke:#56B4E9;stroke-width:10.00"/>
	<line x1="681.62" y1="1160.70" x2="700.91" y2="1167.48" style="stroke:#56B4E9;stroke-width:10.00"/>
	<line x1="717.73" y1="1173.38" x2="737.02" y2="1180.08" style="stroke:#56B4E9;stroke-width:10.00"/>
	<line x1="753.92" y1="1185.98" x2="773.14" y2="1192.75" style="stroke:#56B4E9;stroke-width:10.00"/>
	<line x1="790.04" y1="1198.65" x2="809.25" y2="1205.35" style="stroke:#56B4E9;stroke-width:10.00"/>
	<line x1="826.15" y1="1211.25" x2="845.36" y2="1218.02" style="stroke:#56B4E9;stroke-width:10.00"/>
	<line x1="862.26" y1="1223.92" x2="881.56" y2="1230.70" style="stroke:#56B4E9;stroke-width:10.00"/>
	<line x1="898.62" y1="1230.78" x2="918.31" y2="1225.52" style="stroke:#56B4E9;stroke-width:10.00"/>
	<line x1="935.61" y1="1220.89" x2="955.30" y2="1215.63" style="stroke:#56B4E9;stroke-width:10.00"/>
	<line x1="972.52" y1="1211.01" x2="992.29" y2="1205.75" style="stroke:#56B4E9;stroke-width:10.00"/>
	<line x1="1009.51" y1="1201.12" x2="1029.20" y2="1195.86" style="stroke:#56B4E9;stroke-width:10.00"/>
	<line x1="1046.42" y1="1191.24" x2="1066.19" y2="1185.98" style="stroke:#56B4E9;stroke-width:10.00"/>
	<line x1="1083.41" y1="1181.27" x2="1103.10" y2="1176.01" style="stroke:#56B4E9;stroke-width:10.00"/>
	<line x1="1120.32" y1="1171.39" x2="1122.63" y2="1170.83" style="stroke:#56B4E9;stroke-width:10.00"/>
	<line x1="1122.63" y1="1170.83" x2="1122.63" y2="1170.83" style="stroke:#56B4E9;stroke-width:10.00"/>
	<line x1="1122.63" y1="1170.83" x2="1122.63" y2="1170.83" style="stroke:#56B4E9;stroke-width:10.00"/>
	<line x1="1122.63" y1="1170.83" x2="1122.63" y2="1170.83" style="stroke:#56B4E9;stroke-width:10.00"/>
	<line x1="1122.63" y1="1170.83" x2="1140.17" y2="1175.05" style="stroke:#56B4E9;stroke-width:10.00"/>
	<line x1="1157.55" y1="1179.12" x2="1177.40" y2="1183.82" style="stroke:#56B4E9;stroke-width:10.00"/>
	<line x1="1194.78" y1="1187.97" x2="1214.63" y2="1192.75" style="stroke:#56B4E9;stroke-width:10.00"/>
	<line x1="1232.09" y1="1196.82" x2="1251.94" y2="1201.60" style="stroke:#56B4E9;stroke-width:10.00"/>
	<line x1="1269.32" y1="1205.75" x2="1289.17" y2="1210.45" style="stroke:#56B4E9;stroke-width:10.00"/>
	<line x1="1306.55" y1="1214.59" x2="1326.40" y2="1219.38" style="stroke:#56B4E9;stroke-width:10.00"/>
	<line x1="1343.78" y1="1223.52" x2="1356.30" y2="1226.47" style="stroke:#56B4E9;stroke-width:10.00"/>
	<line x1="1356.30" y1="1226.47" x2="1356.30" y2="1226.47" style="stroke:#56B4E9;stroke-width:10.00"/>
	<line x1="1356.30" y1="1226.47" x2="1356.30" y2="1226.47" style="stroke:#56B4E9;stroke-width:10.00"/>
	<line x1="1356.30" y1="1226.47" x2="1356.30" y2="1226.47" style="stroke:#56B4E9;stroke-width:10.00"/>
	<line x1="1356.30" y1="1226.47" x2="1363.79" y2="1225.36" style="stroke:#56B4E9;stroke-width:10.00"/>
	<line x1="1381.41" y1="1222.65" x2="1401.58" y2="1219.62" style="stroke:#56B4E9;stroke-width:10.00"/>
	<line x1="1419.28" y1="1216.91" x2="1439.45" y2="1213.88" style="stroke:#56B4E9;stroke-width:10.00"/>
	<line x1="1457.07" y1="1211.17" x2="1477.23" y2="1208.06" style="stroke:#56B4E9;stroke-width:10.00"/>
	<line x1="1494.93" y1="1205.35" x2="1515.10" y2="1202.32" style="stroke:#56B4E9;stroke-width:10.00"/>
	<line x1="1532.80" y1="1199.61" x2="1552.97" y2="1196.58" style="stroke:#56B4E9;stroke-width:10.00"/>
	<line x1="1570.59" y1="1193.87" x2="1589.88" y2="1190.92" style="stroke:#56B4E9;stroke-width:10.00"/>
	<line x1="1589.88" y1="1190.92" x2="1589.88" y2="1190.92" style="stroke:#56B4E9;stroke-width:10.00"/>
	<line x1="1589.88" y1="1190.92" x2="1589.88" y2="1190.92" style="stroke:#56B4E9;stroke-width:10.00"/>
	<line x1="1589.88" y1="1190.92" x2="1589.88" y2="1190.92" style="stroke:#56B4E9;stroke-width:10.00"/>
	<line x1="1589.88" y1="1190.92" x2="1590.68" y2="1191.32" style="stroke:#56B4E9;stroke-width:10.00"/>
	<line x1="1606.30" y1="1199.93" x2="1624.24" y2="1209.73" style="stroke:#56B4E9;stroke-width:10.00"/>
	<line x1="1639.87" y1="1218.34" x2="1657.80" y2="1228.23" style="stroke:#56B4E9;stroke-width:10.00"/>
	<line x1="1673.43" y1="1236.84" x2="1691.37" y2="1246.64" style="stroke:#56B4E9;stroke-width:10.00"/>
	<line x1="1706.99" y1="1255.25" x2="1724.85" y2="1265.14" style="stroke:#56B4E9;stroke-width:10.00"/>
	<line x1="1740.55" y1="1273.67" x2="1758.41" y2="1283.55" style="stroke:#56B4E9;stroke-width:10.00"/>
	<line x1="1774.12" y1="1292.16" x2="1791.97" y2="1301.97" style="stroke:#56B4E9;stroke-width:10.00"/>
	<line x1="1807.68" y1="1310.58" x2="1823.54" y2="1319.35" style="stroke:#56B4E9;stroke-width:10.00"/>
	<line x1="1823.54" y1="1319.35" x2="1823.54" y2="1319.35" style="stroke:#56B4E9;stroke-width:10.00"/>
	<line x1="1823.54" y1="1319.35" x2="1823.54" y2="1319.35" style="stroke:#56B4E9;stroke-width:10.00"/>
	<line x1="1823.54" y1="1319.35" x2="1823.54" y2="1319.35" style="stroke:#56B4E9;stroke-width:10.00"/>
	<line x1="421.73" y1="1361.60" x2="655.39" y2="1365.26" stroke-linecap="round" style="stroke:#009E73;stroke-width:10.00"/>
	<line x1="655.39" y1="1365.26" x2="889.05" y2="1421.23" stroke-linecap="round" style="stroke:#009E73;stroke-width:10.00"/>
	<line x1="889.05" y1="1421.23" x2="1122.63" y2="1365.98" stroke-linecap="round" style="stroke:#009E73;stroke-width:10.00"/>
	<line x1="1122.63" y1="1365.98" x2="1356.30" y2="1319.11" stroke-linecap="round" style="stroke:#009E73;stroke-width:10.00"/>
	<line x1="1356.30" y1="1319.11" x2="1589.88" y2="1338.40" stroke-linecap="round" style="stroke:#009E73;stroke-width:10.00"/>
	<line x1="1589.88" y1="1338.40" x2="1823.54" y2="1360.64" stroke-linecap="round" style="stroke:#009E73;stroke-width:10.00"/>
	<line x1="1823.54" y1="1360.64" x2="2057.13" y2="1311.13" stroke-linecap="round" style="stroke:#009E73;stroke-width:10.00"/>
	<line x1="2057.13" y1="1311.13" x2="2290.79" y2="1299.89" stroke-linecap="round" style="stroke:#009E73;stroke-width:10.00"/>
	<line x1="421.73" y1="1281.88" x2="421.73" y2="1281.88" style="stroke:#009E73;stroke-width:10.00"/>
	<line x1="421.73" y1="1281.88" x2="421.73" y2="1281.88" style="stroke:#009E73;stroke-width:10.00"/>
	<line x1="421.73" y1="1281.88" x2="421.73" y2="1281.88" style="stroke:#009E73;stroke-width:10.00"/>
	<line x1="421.73" y1="1281.88" x2="442.13" y2="1282.20" style="stroke:#009E73;stroke-width:10.00"/>
	<line x1="459.99" y1="1282.52" x2="480.40" y2="1282.91" style="stroke:#009E73;stroke-width:10.00"/>
	<line x1="498.26" y1="1283.15" x2="518.67" y2="1283.55" style="stroke:#009E73;stroke-width:10.00"/>
	<line x1="536.52" y1="1283.87" x2="556.93" y2="1284.19" style="stroke:#009E73;stroke-width:10.00"/>
	<line x1="574.79" y1="1284.51" x2="595.20" y2="1284.91" style="stroke:#009E73;stroke-width:10.00"/>
	<line x1="613.06" y1="1285.15" x2="633.46" y2="1285.54" style="stroke:#009E73;stroke-width:10.00"/>
	<line x1="651.32" y1="1285.78" x2="655.39" y2="1285.86" style="stroke:#009E73;stroke-width:10.00"/>
	<line x1="655.39" y1="1285.86" x2="655.39" y2="1285.86" style="stroke:#009E73;stroke-width:10.00"/>
	<line x1="655.39" y1="1285.86" x2="655.39" y2="1285.86" style="stroke:#009E73;stroke-width:10.00"/>
	<line x1="655.39" y1="1285.86" x2="655.39" y2="1285.86" style="stroke:#009E73;stroke-width:10.00"/>
	<line x1="655.39" y1="1285.86" x2="671.65" y2="1287.14" style="stroke:#009E73;stroke-width:10.00"/>
	<line x1="689.51" y1="1288.49" x2="709.84" y2="1290.09" style="stroke:#009E73;stroke-width:10.00"/>
	<line x1="727.62" y1="1291.44" x2="747.94" y2="1293.04" style="stroke:#009E73;stroke-width:10.00"/>
	<line x1="765.80" y1="1294.39" x2="786.13" y2="1295.99" style="stroke:#009E73;stroke-width:10.00"/>
	<line x1="803.91" y1="1297.34" x2="824.24" y2="1298.94" style="stroke:#009E73;stroke-width:10.00"/>
	<line x1="842.10" y1="1300.37" x2="862.42" y2="1301.97" style="stroke:#009E73;stroke-width:10.00"/>
	<line x1="880.20" y1="1303.32" x2="889.05" y2="1304.04" style="stroke:#009E73;stroke-width:10.00"/>
	<line x1="889.05" y1="1304.04" x2="889.05" y2="1304.04" style="stroke:#009E73;stroke-width:10.00"/>
	<line x1="889.05" y1="1304.04" x2="889.05" y2="1304.04" style="stroke:#009E73;stroke-width:10.00"/>
	<line x1="889.05" y1="1304.04" x2="889.05" y2="1304.04" style="stroke:#009E73;stroke-width:10.00"/>
	<line x1="889.05" y1="1304.04" x2="900.53" y2="1302.44" style="stroke:#009E73;stroke-width:10.00"/>
	<line x1="918.23" y1="1299.97" x2="938.40" y2="1297.18" style="stroke:#009E73;stroke-width:10.00"/>
	<line x1="956.10" y1="1294.71" x2="976.35" y2="1291.92" style="stroke:#009E73;stroke-width:10.00"/>
	<line x1="994.04" y1="1289.53" x2="1014.21" y2="1286.66" style="stroke:#009E73;stroke-width:10.00"/>
	<line x1="1031.91" y1="1284.19" x2="1052.16" y2="1281.40" style="stroke:#009E73;stroke-width:10.00"/>
	<line x1="1069.86" y1="1279.01" x2="1090.03" y2="1276.14" style="stroke:#009E73;stroke-width:10.00"/>
	<line x1="1107.73" y1="1273.75" x2="1122.63" y2="1271.67" style="stroke:#009E73;stroke-width:10.00"/>
	<line x1="1122.63" y1="1271.67" x2="1122.63" y2="1271.67" style="stroke:#009E73;stroke-width:10.00"/>
	<line x1="1122.63" y1="1271.67" x2="1122.63" y2="1271.67" style="stroke:#009E73;stroke-width:10.00"/>
	<line x1="1122.63" y1="1271.67" x2="1122.63" y2="1271.67" style="stroke:#009E73;stroke-width:10.00"/>
	<line x1="1122.63" y1="1271.67" x2="1127.98" y2="1271.67" style="stroke:#009E73;stroke-width:10.00"/>
	<line x1="1145.83" y1="1271.59" x2="1166.24" y2="1271.59" style="stroke:#009E73;stroke-width:10.00"/>
	<line x1="1184.10" y1="1271.51" x2="1204.51" y2="1271.51" style="stroke:#009E73;stroke-width:10.00"/>
	<line x1="1222.37" y1="1271.51" x2="1242.77" y2="1271.43" style="stroke:#009E73;stroke-width:10.00"/>
	<line x1="1260.63" y1="1271.43" x2="1281.04" y2="1271.43" style="stroke:#009E73;stroke-width:10.00"/>
	<line x1="1298.90" y1="1271.43" x2="1319.31" y2="1271.35" style="stroke:#009E73;stroke-width:10.00"/>
	<line x1="1337.16" y1="1271.35" x2="1356.30" y2="1271.35" style="stroke:#009E73;stroke-width:10.00"/>
	<line x1="1356.30" y1="1271.35" x2="1356.30" y2="1271.35" style="stroke:#009E73;stroke-width:10.00"/>
	<line x1="1356.30" y1="1271.35" x2="1356.30" y2="1271.35" style="stroke:#009E73;stroke-width:10.00"/>
	<line x1="1356.30" y1="1271.35" x2="1356.30" y2="1271.35" style="stroke:#009E73;stroke-width:10.00"/>
	<line x1="1356.30" y1="1271.35" x2="1357.57" y2="1271.27" style="stroke:#009E73;stroke-width:10.00"/>
	<line x1="1375.43" y1="1270.72" x2="1395.84" y2="1270.16" style="stroke:#009E73;stroke-width:10.00"/>
	<line x1="1413.70" y1="1269.60" x2="1434.11" y2="1268.96" style="stroke:#009E73;stroke-width:10.00"/>
	<line x1="1451.96" y1="1268.41" x2="1472.37" y2="1267.77" style="stroke:#009E73;stroke-width:10.00"/>
	<line x1="1490.23" y1="1267.21" x2="1510.64" y2="1266.57" style="stroke:#009E73;stroke-width:10.00"/>
	<line x1="1528.50" y1="1266.01" x2="1548.90" y2="1265.38" style="stroke:#009E73;stroke-width:10.00"/>
	<line x1="1566.76" y1="1264.90" x2="1587.17" y2="1264.18" style="stroke:#009E73;stroke-width:10.00"/>
	<line x1="1605.03" y1="1264.02" x2="1625.44" y2="1263.86" style="stroke:#009E73;stroke-width:10.00"/>
	<line x1="1643.29" y1="1263.78" x2="1663.70" y2="1263.62" style="stroke:#009E73;stroke-width:10.00"/>
	<line x1="1681.56" y1="1263.54" x2="1701.97" y2="1263.38" style="stroke:#009E73;stroke-width:10.00"/>
	<line x1="1719.83" y1="1263.30" x2="1740.23" y2="1263.14" style="stroke:#009E73;stroke-width:10.00"/>
	<line x1="1758.09" y1="1262.98" x2="1778.50" y2="1262.90" style="stroke:#009E73;stroke-width:10.00"/>
	<line x1="1796.36" y1="1262.74" x2="1816.77" y2="1262.67" style="stroke:#009E73;stroke-width:10.00"/>
	<line x1="1834.62" y1="1262.11" x2="1855.03" y2="1261.15" style="stroke:#009E73;stroke-width:10.00"/>
	<line x1="1872.81" y1="1260.27" x2="1893.22" y2="1259.40" style="stroke:#009E73;stroke-width:10.00"/>
	<line x1="1911.00" y1="1258.52" x2="1931.41" y2="1257.64" style="stroke:#009E73;stroke-width:10.00"/>
	<line x1="1949.18" y1="1256.77" x2="1969.59" y2="1255.81" style="stroke:#009E73;stroke-width:10.00"/>
	<line x1="1987.45" y1="1255.01" x2="2007.78" y2="1253.98" style="stroke:#009E73;stroke-width:10.00"/>
	<line x1="2025.64" y1="1253.18" x2="2046.05" y2="1252.22" style="stroke:#009E73;stroke-width:10.00"/>
	<line x1="2063.90" y1="1251.50" x2="2084.31" y2="1250.87" style="stroke:#009E73;stroke-width:10.00"/>
	<line x1="2102.17" y1="1250.31" x2="2122.58" y2="1249.67" style="stroke:#009E73;stroke-width:10.00"/>
	<line x1="2140.44" y1="1249.11" x2="2160.84" y2="1248.48" style="stroke:#009E73;stroke-width:10.00"/>
	<line x1="2178.70" y1="1247.92" x2="2199.11" y2="1247.36" style="stroke:#009E73;stroke-width:10.00"/>
	<line x1="2216.97" y1="1246.80" x2="2237.38" y2="1246.16" style="stroke:#009E73;stroke-width:10.00"/>
	<line x1="2255.23" y1="1245.61" x2="2275.64" y2="1244.97" style="stroke:#009E73;stroke-width:10.00"/>
	<line x1="421.73" y1="1403.53" x2="655.39" y2="1383.36" stroke-linecap="round" style="stroke:#D55E00;stroke-width:10.00"/>
	<line x1="655.39" y1="1383.36" x2="889.05" y2="1392.93" stroke-linecap="round" style="stroke:#D55E00;stroke-width:10.00"/>
	<line x1="889.05" y1="1392.93" x2="1122.63" y2="1370.84" stroke-linecap="round" style="stroke:#D55E00;stroke-width:10.00"/>
	<line x1="1122.63" y1="1370.84" x2="1356.30" y2="1381.61" stroke-linecap="round" style="stroke:#D55E00;stroke-width:10.00"/>
	<line x1="1356.30" y1="1381.61" x2="1589.88" y2="1396.43" stroke-linecap="round" style="stroke:#D55E00;stroke-width:10.00"/>
	<line x1="1589.88" y1="1396.43" x2="1823.54" y2="1395.72" stroke-linecap="round" style="stroke:#D55E00;stroke-width:10.00"/>
	<line x1="1823.54" y1="1395.72" x2="2057.13" y2="1377.14" stroke-linecap="round" style="stroke:#D55E00;stroke-width:10.00"/>
	<line x1="2057.13" y1="1377.14" x2="2290.79" y2="1388.22" stroke-linecap="round" style="stroke:#D55E00;stroke-width:10.00"/>
	<line x1="421.73" y1="1340.31" x2="421.73" y2="1340.31" style="stroke:#D55E00;stroke-width:10.00"/>
	<line x1="421.73" y1="1340.31" x2="421.73" y2="1340.31" style="stroke:#D55E00;stroke-width:10.00"/>
	<line x1="421.73" y1="1340.31" x2="421.73" y2="1340.31" style="stroke:#D55E00;stroke-width:10.00"/>
	<line x1="421.73" y1="1340.31" x2="442.13" y2="1340.39" style="stroke:#D55E00;stroke-width:10.00"/>
	<line x1="459.99" y1="1340.55" x2="480.40" y2="1340.63" style="stroke:#D55E00;stroke-width:10.00"/>
	<line x1="498.26" y1="1340.79" x2="518.67" y2="1340.87" style="stroke:#D55E00;stroke-width:10.00"/>
	<line x1="536.52" y1="1341.03" x2="556.93" y2="1341.11" style="stroke:#D55E00;stroke-width:10.00"/>
	<line x1="574.79" y1="1341.27" x2="595.20" y2="1341.35" style="stroke:#D55E00;stroke-width:10.00"/>
	<line x1="613.06" y1="1341.43" x2="633.46" y2="1341.59" style="stroke:#D55E00;stroke-width:10.00"/>
	<line x1="651.32" y1="1341.67" x2="655.39" y2="1341.67" style="stroke:#D55E00;stroke-width:10.00"/>
	<line x1="655.39" y1="1341.67" x2="655.39" y2="1341.67" style="stroke:#D55E00;stroke-width:10.00"/>
	<line x1="655.39" y1="1341.67" x2="655.39" y2="1341.67" style="stroke:#D55E00;stroke-width:10.00"/>
	<line x1="655.39" y1="1341.67" x2="655.39" y2="1341.67" style="stroke:#D55E00;stroke-width:10.00"/>
	<line x1="655.39" y1="1341.67" x2="671.65" y2="1343.18" style="stroke:#D55E00;stroke-width:10.00"/>
	<line x1="689.43" y1="1344.78" x2="709.76" y2="1346.69" style="stroke:#D55E00;stroke-width:10.00"/>
	<line x1="727.54" y1="1348.28" x2="747.86" y2="1350.12" style="stroke:#D55E00;stroke-width:10.00"/>
	<line x1="765.64" y1="1351.79" x2="785.97" y2="1353.62" style="stroke:#D55E00;stroke-width:10.00"/>
	<line x1="803.75" y1="1355.30" x2="824.08" y2="1357.13" style="stroke:#D55E00;stroke-width:10.00"/>
	<line x1="841.86" y1="1358.81" x2="862.19" y2="1360.64" style="stroke:#D55E00;stroke-width:10.00"/>
	<line x1="879.96" y1="1362.23" x2="889.05" y2="1363.11" style="stroke:#D55E00;stroke-width:10.00"/>
	<line x1="889.05" y1="1363.11" x2="889.05" y2="1363.11" style="stroke:#D55E00;stroke-width:10.00"/>
	<line x1="889.05" y1="1363.11" x2="889.05" y2="1363.11" style="stroke:#D55E00;stroke-width:10.00"/>
	<line x1="889.05" y1="1363.11" x2="889.05" y2="1363.11" style="stroke:#D55E00;stroke-width:10.00"/>
	<line x1="889.05" y1="1363.11" x2="900.29" y2="1361.68" style="stroke:#D55E00;stroke-width:10.00"/>
	<line x1="917.99" y1="1359.44" x2="938.24" y2="1356.89" style="stroke:#D55E00;stroke-width:10.00"/>
	<line x1="955.94" y1="1354.66" x2="976.19" y2="1352.11" style="stroke:#D55E00;stroke-width:10.00"/>
	<line x1="993.88" y1="1349.88" x2="1014.13" y2="1347.33" style="stroke:#D55E00;stroke-width:10.00"/>
	<line x1="1031.83" y1="1345.09" x2="1052.08" y2="1342.54" style="stroke:#D55E00;stroke-width:10.00"/>
	<line x1="1069.78" y1="1340.31" x2="1090.03" y2="1337.76" style="stroke:#D55E00;stroke-width:10.00"/>
	<line x1="1107.73" y1="1335.53" x2="1122.63" y2="1333.61" style="stroke:#D55E00;stroke-width:10.00"/>
	<line x1="1122.63" y1="1333.61" x2="1122.63" y2="1333.61" style="stroke:#D55E00;stroke-width:10.00"/>
	<line x1="1122.63" y1="1333.61" x2="1122.63" y2="1333.61" style="stroke:#D55E00;stroke-width:10.00"/>
	<line x1="1122.63" y1="1333.61" x2="1122.63" y2="1333.61" style="stroke:#D55E00;stroke-width:10.00"/>
	<line x1="1122.63" y1="1333.61" x2="1127.98" y2="1333.93" style="stroke:#D55E00;stroke-width:10.00"/>
	<line x1="1145.83" y1="1334.81" x2="1166.16" y2="1335.85" style="stroke:#D55E00;stroke-width:10.00"/>
	<line x1="1184.02" y1="1336.72" x2="1204.35" y2="1337.76" style="stroke:#D55E00;stroke-width:10.00"/>
	<line x1="1222.21" y1="1338.72" x2="1242.54" y2="1339.75" style="stroke:#D55E00;stroke-width:10.00"/>
	<line x1="1260.39" y1="1340.63" x2="1280.72" y2="1341.75" style="stroke:#D55E00;stroke-width:10.00"/>
	<line x1="1298.58" y1="1342.62" x2="1318.99" y2="1343.66" style="stroke:#D55E00;stroke-width:10.00"/>
	<line x1="1336.85" y1="1344.54" x2="1356.30" y2="1345.57" style="stroke:#D55E00;stroke-width:10.00"/>
	<line x1="1356.30" y1="1345.57" x2="1356.30" y2="1345.57" style="stroke:#D55E00;stroke-width:10.00"/>
	<line x1="1356.30" y1="1345.57" x2="1356.30" y2="1345.57" style="stroke:#D55E00;stroke-width:10.00"/>
	<line x1="1356.30" y1="1345.57" x2="1356.30" y2="1345.57" style="stroke:#D55E00;stroke-width:10.00"/>
	<line x1="1356.30" y1="1345.57" x2="1357.17" y2="1345.57" style="stroke:#D55E00;stroke-width:10.00"/>
	<line x1="1375.03" y1="1346.45" x2="1395.44" y2="1347.41" style="stroke:#D55E00;stroke-width:10.00"/>
	<line x1="1413.22" y1="1348.28" x2="1433.63" y2="1349.32" style="stroke:#D55E00;stroke-width:10.00"/>
	<line x1="1451.40" y1="1350.12" x2="1471.81" y2="1351.15" style="stroke:#D55E00;stroke-width:10.00"/>
	<line x1="1489.59" y1="1352.03" x2="1510.00" y2="1352.99" style="stroke:#D55E00;stroke-width:10.00"/>
	<line x1="1527.86" y1="1353.86" x2="1548.19" y2="1354.82" style="stroke:#D55E00;stroke-width:10.00"/>
	<line x1="1566.04" y1="1355.70" x2="1586.45" y2="1356.73" style="stroke:#D55E00;stroke-width:10.00"/>
	<line x1="1604.31" y1="1357.21" x2="1624.72" y2="1357.61" style="stroke:#D55E00;stroke-width:10.00"/>
	<line x1="1642.58" y1="1358.01" x2="1662.99" y2="1358.49" style="stroke:#D55E00;stroke-width:10.00"/>
	<line x1="1680.84" y1="1358.89" x2="1701.25" y2="1359.28" style="stroke:#D55E00;stroke-width:10.00"/>
	<line x1="1719.11" y1="1359.68" x2="1739.52" y2="1360.08" style="stroke:#D55E00;stroke-width:10.00"/>
	<line x1="1757.38" y1="1360.48" x2="1777.78" y2="1360.88" style="stroke:#D55E00;stroke-width:10.00"/>
	<line x1="1795.64" y1="1361.28" x2="1816.05" y2="1361.68" style="stroke:#D55E00;stroke-width:10.00"/>
	<line x1="1833.91" y1="1361.84" x2="1854.32" y2="1361.84" style="stroke:#D55E00;stroke-width:10.00"/>
	<line x1="1872.17" y1="1361.84" x2="1892.58" y2="1361.84" style="stroke:#D55E00;stroke-width:10.00"/>
	<line x1="1910.44" y1="1361.84" x2="1930.85" y2="1361.84" style="stroke:#D55E00;stroke-width:10.00"/>
	<line x1="1948.71" y1="1361.84" x2="1969.11" y2="1361.84" style="stroke:#D55E00;stroke-width:10.00"/>
	<line x1="1986.97" y1="1361.84" x2="2007.38" y2="1361.84" style="stroke:#D55E00;stroke-width:10.00"/>
	<line x1="2025.24" y1="1361.84" x2="2045.65" y2="1361.76" style="stroke:#D55E00;stroke-width:10.00"/>
	<line x1="2063.42" y1="1361.04" x2="2083.67" y2="1358.57" style="stroke:#D55E00;stroke-width:10.00"/>
	<line x1="2101.45" y1="1356.41" x2="2121.70" y2="1354.02" style="stroke:#D55E00;stroke-width:10.00"/>
	<line x1="2139.40" y1="1351.87" x2="2159.65" y2="1349.40" style="stroke:#D55E00;stroke-width:10.00"/>
	<line x1="2177.43" y1="1347.25" x2="2197.68" y2="1344.78" style="stroke:#D55E00;stroke-width:10.00"/>
	<line x1="2215.37" y1="1342.62" x2="2235.62" y2="1340.23" style="stroke:#D55E00;stroke-width:10.00"/>
	<line x1="2253.40" y1="1338.08" x2="2273.65" y2="1335.61" style="stroke:#D55E00;stroke-width:10.00"/>
	<line x1="1356.30" y1="1231.42" x2="1589.88" y2="1301.49" stroke-linecap="round" style="stroke:#CC79A7;stroke-width:10.00"/>
	<line x1="1589.88" y1="1301.49" x2="1823.54" y2="1241.70" stroke-linecap="round" style="stroke:#CC79A7;stroke-width:10.00"/>
	<line x1="1823.54" y1="1241.70" x2="2057.13" y2="1254.37" stroke-linecap="round" style="stroke:#CC79A7;stroke-width:10.00"/>
	<line x1="2057.13" y1="1254.37" x2="2290.79" y2="1275.02" stroke-linecap="round" style="stroke:#CC79A7;stroke-width:10.00"/>
	<line x1="1356.30" y1="1240.90" x2="1356.30" y2="1240.90" style="stroke:#CC79A7;stroke-width:10.00"/>
	<line x1="1356.30" y1="1240.90" x2="1356.30" y2="1240.90" style="stroke:#CC79A7;stroke-width:10.00"/>
	<line x1="1356.30" y1="1240.90" x2="1356.30" y2="1240.90" style="stroke:#CC79A7;stroke-width:10.00"/>
	<line x1="1356.30" y1="1240.90" x2="1375.99" y2="1246.16" style="stroke:#CC79A7;stroke-width:10.00"/>
	<line x1="1393.29" y1="1250.79" x2="1412.98" y2="1256.05" style="stroke:#CC79A7;stroke-width:10.00"/>
	<line x1="1430.28" y1="1260.67" x2="1449.97" y2="1265.93" style="stroke:#CC79A7;stroke-width:10.00"/>
	<line x1="1467.19" y1="1270.56" x2="1486.96" y2="1275.82" style="stroke:#CC79A7;stroke-width:10.00"/>
	<line x1="1504.18" y1="1280.44" x2="1523.87" y2="1285.70" style="stroke:#CC79A7;stroke-width:10.00"/>
	<line x1="1541.17" y1="1290.33" x2="1560.86" y2="1295.59" style="stroke:#CC79A7;stroke-width:10.00"/>
	<line x1="1578.16" y1="1300.21" x2="1589.88" y2="1303.32" style="stroke:#CC79A7;stroke-width:10.00"/>
	<line x1="1589.88" y1="1303.32" x2="1589.88" y2="1303.32" style="stroke:#CC79A7;stroke-width:10.00"/>
	<line x1="1589.88" y1="1303.32" x2="1589.88" y2="1303.32" style="stroke:#CC79A7;stroke-width:10.00"/>
	<line x1="1589.88" y1="1303.32" x2="1589.88" y2="1303.32" style="stroke:#CC79A7;stroke-width:10.00"/>
	<line x1="1589.88" y1="1303.32" x2="1597.77" y2="1300.93" style="stroke:#CC79A7;stroke-width:10.00"/>
	<line x1="1614.83" y1="1295.75" x2="1634.37" y2="1289.85" style="stroke:#CC79A7;stroke-width:10.00"/>
	<line x1="1651.43" y1="1284.67" x2="1670.96" y2="1278.69" style="stroke:#CC79A7;stroke-width:10.00"/>
	<line x1="1688.10" y1="1273.51" x2="1707.63" y2="1267.61" style="stroke:#CC79A7;stroke-width:10.00"/>
	<line x1="1724.69" y1="1262.43" x2="1744.22" y2="1256.53" style="stroke:#CC79A7;stroke-width:10.00"/>
	<line x1="1761.28" y1="1251.35" x2="1780.81" y2="1245.37" style="stroke:#CC79A7;stroke-width:10.00"/>
	<line x1="1797.95" y1="1240.18" x2="1817.48" y2="1234.29" style="stroke:#CC79A7;stroke-width:10.00"/>
	<line x1="1835.02" y1="1233.57" x2="1855.35" y2="1235.48" style="stroke:#CC79A7;stroke-width:10.00"/>
	<line x1="1873.13" y1="1237.23" x2="1893.46" y2="1239.23" style="stroke:#CC79A7;stroke-width:10.00"/>
	<line x1="1911.24" y1="1240.90" x2="1931.57" y2="1242.90" style="stroke:#CC79A7;stroke-width:10.00"/>
	<line x1="1949.34" y1="1244.57" x2="1969.67" y2="1246.56" style="stroke:#CC79A7;stroke-width:10.00"/>
	<line x1="1987.45" y1="1248.24" x2="2007.78" y2="1250.23" style="stroke:#CC79A7;stroke-width:10.00"/>
	<line x1="2025.56" y1="1251.90" x2="2045.89" y2="1253.90" style="stroke:#CC79A7;stroke-width:10.00"/>
	<line x1="2063.66" y1="1255.09" x2="2084.07" y2="1255.41" style="stroke:#CC79A7;stroke-width:10.00"/>
	<line x1="2101.93" y1="1255.73" x2="2122.34" y2="1256.05" style="stroke:#CC79A7;stroke-width:10.00"/>
	<line x1="2140.20" y1="1256.37" x2="2160.61" y2="1256.69" style="stroke:#CC79A7;stroke-width:10.00"/>
	<line x1="2178.46" y1="1257.01" x2="2198.87" y2="1257.32" style="stroke:#CC79A7;stroke-width:10.00"/>
	<line x1="2216.73" y1="1257.64" x2="2237.14" y2="1257.96" style="stroke:#CC79A7;stroke-width:10.00"/>
	<line x1="2255.00" y1="1258.20" x2="2275.40" y2="1258.60" style="stroke:#CC79A7;stroke-width:10.00"/>
	<line x1="421.73" y1="1156.08" x2="421.73" y2="1156.08" style="stroke:#A0A0A0;stroke-width:10.00"/>
	<line x1="421.73" y1="1156.08" x2="421.73" y2="1156.08" style="stroke:#A0A0A0;stroke-width:10.00"/>
	<line x1="421.73" y1="1156.08" x2="472.67" y2="1153.45" style="stroke:#A0A0A0;stroke-width:10.00"/>
	<line x1="498.10" y1="1152.10" x2="549.04" y2="1149.46" style="stroke:#A0A0A0;stroke-width:10.00"/>
	<line x1="574.55" y1="1148.11" x2="625.49" y2="1145.48" style="stroke:#A0A0A0;stroke-width:10.00"/>
	<line x1="650.92" y1="1144.20" x2="655.39" y2="1143.96" style="stroke:#A0A0A0;stroke-width:10.00"/>
	<line x1="655.39" y1="1143.96" x2="655.39" y2="1143.96" style="stroke:#A0A0A0;stroke-width:10.00"/>
	<line x1="655.39" y1="1143.96" x2="655.39" y2="1143.96" style="stroke:#A0A0A0;stroke-width:10.00"/>
	<line x1="655.39" y1="1143.96" x2="701.87" y2="1146.67" style="stroke:#A0A0A0;stroke-width:10.00"/>
	<line x1="727.38" y1="1148.11" x2="778.32" y2="1151.06" style="stroke:#A0A0A0;stroke-width:10.00"/>
	<line x1="803.75" y1="1152.57" x2="854.69" y2="1155.52" style="stroke:#A0A0A0;stroke-width:10.00"/>
	<line x1="880.20" y1="1157.04" x2="889.05" y2="1157.52" style="stroke:#A0A0A0;stroke-width:10.00"/>
	<line x1="889.05" y1="1157.52" x2="889.05" y2="1157.52" style="stroke:#A0A0A0;stroke-width:10.00"/>
	<line x1="889.05" y1="1157.52" x2="889.05" y2="1157.52" style="stroke:#A0A0A0;stroke-width:10.00"/>
	<line x1="889.05" y1="1157.52" x2="931.14" y2="1155.68" style="stroke:#A0A0A0;stroke-width:10.00"/>
	<line x1="956.65" y1="1154.65" x2="1007.68" y2="1152.41" style="stroke:#A0A0A0;stroke-width:10.00"/>
	<line x1="1033.11" y1="1151.30" x2="1084.13" y2="1149.15" style="stroke:#A0A0A0;stroke-width:10.00"/>
	<line x1="1109.56" y1="1148.03" x2="1122.63" y2="1147.47" style="stroke:#A0A0A0;stroke-width:10.00"/>
	<line x1="1122.63" y1="1147.47" x2="1122.63" y2="1147.47" style="stroke:#A0A0A0;stroke-width:10.00"/>
	<line x1="1122.63" y1="1147.47" x2="1122.63" y2="1147.47" style="stroke:#A0A0A0;stroke-width:10.00"/>
	<line x1="1122.63" y1="1147.47" x2="1160.50" y2="1144.36" style="stroke:#A0A0A0;stroke-width:10.00"/>
	<line x1="1185.93" y1="1142.29" x2="1236.80" y2="1138.14" style="stroke:#A0A0A0;stroke-width:10.00"/>
	<line x1="1262.23" y1="1136.07" x2="1313.09" y2="1131.93" style="stroke:#A0A0A0;stroke-width:10.00"/>
	<line x1="1338.52" y1="1129.85" x2="1356.30" y2="1128.42" style="stroke:#A0A0A0;stroke-width:10.00"/>
	<line x1="1356.30" y1="1128.42" x2="1356.30" y2="1128.42" style="stroke:#A0A0A0;stroke-width:10.00"/>
	<line x1="1356.30" y1="1128.42" x2="1356.30" y2="1128.42" style="stroke:#A0A0A0;stroke-width:10.00"/>
	<line x1="1356.30" y1="1128.42" x2="1389.46" y2="1128.18" style="stroke:#A0A0A0;stroke-width:10.00"/>
	<line x1="1414.97" y1="1128.10" x2="1465.99" y2="1127.78" style="stroke:#A0A0A0;stroke-width:10.00"/>
	<line x1="1491.50" y1="1127.62" x2="1542.53" y2="1127.38" style="stroke:#A0A0A0;stroke-width:10.00"/>
	<line x1="1568.04" y1="1127.30" x2="1589.88" y2="1127.14" style="stroke:#A0A0A0;stroke-width:10.00"/>
	<line x1="1589.88" y1="1127.14" x2="1589.88" y2="1127.14" style="stroke:#A0A0A0;stroke-width:10.00"/>
	<line x1="1589.88" y1="1127.14" x2="1589.88" y2="1127.14" style="stroke:#A0A0A0;stroke-width:10.00"/>
	<line x1="1589.88" y1="1127.14" x2="1619.06" y2="1126.98" style="stroke:#A0A0A0;stroke-width:10.00"/>
	<line x1="1644.57" y1="1126.82" x2="1695.59" y2="1126.43" style="stroke:#A0A0A0;stroke-width:10.00"/>
	<line x1="1721.10" y1="1126.27" x2="1772.12" y2="1125.87" style="stroke:#A0A0A0;stroke-width:10.00"/>
	<line x1="1797.63" y1="1125.71" x2="1823.54" y2="1125.55" style="stroke:#A0A0A0;stroke-width:10.00"/>
	<line x1="1823.54" y1="1125.55" x2="1823.54" y2="1125.55" style="stroke:#A0A0A0;stroke-width:10.00"/>
	<line x1="1823.54" y1="1125.55" x2="1823.54" y2="1125.55" style="stroke:#A0A0A0;stroke-width:10.00"/>
	<line x1="1823.54" y1="1125.55" x2="1848.58" y2="1123.95" style="stroke:#A0A0A0;stroke-width:10.00"/>
	<line x1="1874.09" y1="1122.36" x2="1924.95" y2="1119.09" style="stroke:#A0A0A0;stroke-width:10.00"/>
	<line x1="1950.46" y1="1117.50" x2="2001.32" y2="1114.23" style="stroke:#A0A0A0;stroke-width:10.00"/>
	<line x1="2026.83" y1="1112.63" x2="2057.13" y2="1110.72" style="stroke:#A0A0A0;stroke-width:10.00"/>
	<line x1="2057.13" y1="1110.72" x2="2057.13" y2="1110.72" style="stroke:#A0A0A0;stroke-width:10.00"/>
	<line x1="2057.13" y1="1110.72" x2="2057.13" y2="1110.72" style="stroke:#A0A0A0;stroke-width:10.00"/>
	<line x1="2057.13" y1="1110.72" x2="2077.69" y2="1109.68" style="stroke:#A0A0A0;stroke-width:10.00"/>
	<line x1="2103.21" y1="1108.41" x2="2154.15" y2="1105.86" style="stroke:#A0A0A0;stroke-width:10.00"/>
	<line x1="2179.58" y1="1104.58" x2="2230.52" y2="1102.03" style="stroke:#A0A0A0;stroke-width:10.00"/>
	<line x1="2256.03" y1="1100.84" x2="2290.79" y2="1099.08" style="stroke:#A0A0A0;stroke-width:10.00"/>
	<line x1="2290.79" y1="1099.08" x2="2290.79" y2="1099.08" style="stroke:#A0A0A0;stroke-width:10.00"/>
	<line x1="2290.79" y1="1099.08" x2="2290.79" y2="1099.08" style="stroke:#A0A0A0;stroke-width:10.00"/>
	<line x1="365.68" y1="1717.22" x2="330.29" y2="1717.22" style="stroke:#000000;stroke-width:4.00"/>
	<text x="312.51" y="1734.74" style="font-family:'Helvetica';font-size:49.99px;fill:#000000" text-anchor="end">20</text>
	<line x1="365.68" y1="1424.49" x2="330.29" y2="1424.49" style="stroke:#000000;stroke-width:4.00"/>
	<text x="312.51" y="1442.01" style="font-family:'Helvetica';font-size:49.99px;fill:#000000" text-anchor="end">25</text>
	<line x1="365.68" y1="1131.69" x2="330.29" y2="1131.69" style="stroke:#000000;stroke-width:4.00"/>
	<text x="312.51" y="1149.20" style="font-family:'Helvetica';font-size:49.99px;fill:#000000" text-anchor="end">30</text>
	<line x1="365.68" y1="838.88" x2="330.29" y2="838.88" style="stroke:#000000;stroke-width:4.00"/>
	<text x="312.51" y="856.39" style="font-family:'Helvetica';font-size:49.99px;fill:#000000" text-anchor="end">35</text>
	<line x1="365.68" y1="546.07" x2="330.29" y2="546.07" style="stroke:#000000;stroke-width:4.00"/>
	<text x="312.51" y="563.59" style="font-family:'Helvetica';font-size:49.99px;fill:#000000" text-anchor="end">40</text>
	<line x1="365.68" y1="253.35" x2="330.29" y2="253.35" style="stroke:#000000;stroke-width:4.00"/>
	<text x="312.51" y="270.86" style="font-family:'Helvetica';font-size:49.99px;fill:#000000" text-anchor="end">45</text>
	<line x1="365.68" y1="1717.22" x2="365.68" y2="253.35" style="stroke:#000000;stroke-width:4.00"/>
	<text x="136.21" y="947.06" style="font-family:'Helvetica';font-size:60.03px;fill:#000000" transform="rotate(-90 136.21,947.06)" text-anchor="middle">Weekly working hours (actual)</text>
	<line x1="421.81" y1="1773.34" x2="421.81" y2="1808.82" style="stroke:#000000;stroke-width:4.00"/>
	<text x="421.81" y="1861.46" style="font-family:'Helvetica';font-size:49.99px;fill:#000000" text-anchor="middle">2007</text>
	<line x1="889.05" y1="1773.34" x2="889.05" y2="1808.82" style="stroke:#000000;stroke-width:4.00"/>
	<text x="889.05" y="1861.46" style="font-family:'Helvetica';font-size:49.99px;fill:#000000" text-anchor="middle">2009</text>
	<line x1="1356.30" y1="1773.34" x2="1356.30" y2="1808.82" style="stroke:#000000;stroke-width:4.00"/>
	<text x="1356.30" y="1861.46" style="font-family:'Helvetica';font-size:49.99px;fill:#000000" text-anchor="middle">2011</text>
	<line x1="1823.54" y1="1773.34" x2="1823.54" y2="1808.82" style="stroke:#000000;stroke-width:4.00"/>
	<text x="1823.54" y="1861.46" style="font-family:'Helvetica';font-size:49.99px;fill:#000000" text-anchor="middle">2013</text>
	<line x1="2290.79" y1="1773.34" x2="2290.79" y2="1808.82" style="stroke:#000000;stroke-width:4.00"/>
	<text x="2290.79" y="1861.46" style="font-family:'Helvetica';font-size:49.99px;fill:#000000" text-anchor="middle">2015</text>
	<line x1="421.81" y1="1773.34" x2="2290.79" y2="1773.34" style="stroke:#000000;stroke-width:4.00"/>
	<text x="1318.03" y="2003.86" style="font-family:'Helvetica';font-size:60.03px;fill:#000000" text-anchor="middle">Year</text>
	<text x="145.41" y="2248.05" style="font-family:'Helvetica';font-size:60.03px;fill:#000000">Arr. cohort: </text>
	<text x="536.36" y="2248.05" style="font-family:'Helvetica';font-size:60.03px;fill:#000000">1964-73</text>
	<text x="845.12" y="2248.05" style="font-family:'Helvetica';font-size:60.03px;fill:#000000">1974-83</text>
	<text x="1153.89" y="2248.05" style="font-family:'Helvetica';font-size:60.03px;fill:#000000">1984-93</text>
	<text x="1462.65" y="2248.05" style="font-family:'Helvetica';font-size:60.03px;fill:#000000">1994-03</text>
	<text x="1771.41" y="2248.05" style="font-family:'Helvetica';font-size:60.03px;fill:#000000">2004-10</text>
	<text x="2080.17" y="2248.05" style="font-family:'Helvetica';font-size:60.03px;fill:#000000">German</text>
	<text x="536.36" y="2396.65" style="font-family:'Helvetica';font-size:60.03px;fill:#000000">incl. nat.</text>
	<text x="845.12" y="2396.65" style="font-family:'Helvetica';font-size:60.03px;fill:#000000">incl. nat.</text>
	<text x="1153.89" y="2396.65" style="font-family:'Helvetica';font-size:60.03px;fill:#000000">incl. nat.</text>
	<text x="1462.65" y="2396.65" style="font-family:'Helvetica';font-size:60.03px;fill:#000000">incl. nat.</text>
	<text x="1771.41" y="2396.65" style="font-family:'Helvetica';font-size:60.03px;fill:#000000">incl. nat.</text>
	<line x1="536.36" y1="2152.73" x2="737.26" y2="2152.73" style="stroke:#E69F00;stroke-width:10.00"/>
	<line x1="845.12" y1="2152.73" x2="1046.02" y2="2152.73" style="stroke:#56B4E9;stroke-width:10.00"/>
	<line x1="1153.89" y1="2152.73" x2="1354.78" y2="2152.73" style="stroke:#009E73;stroke-width:10.00"/>
	<line x1="1462.65" y1="2152.73" x2="1663.54" y2="2152.73" style="stroke:#D55E00;stroke-width:10.00"/>
	<line x1="1771.41" y1="2152.73" x2="1972.30" y2="2152.73" style="stroke:#CC79A7;stroke-width:10.00"/>
	<line x1="2080.17" y1="2152.73" x2="2131.19" y2="2152.73" style="stroke:#A0A0A0;stroke-width:10.00"/>
	<line x1="2156.70" y1="2152.73" x2="2207.72" y2="2152.73" style="stroke:#A0A0A0;stroke-width:10.00"/>
	<line x1="2233.23" y1="2152.73" x2="2278.03" y2="2152.73" style="stroke:#A0A0A0;stroke-width:10.00"/>
	<line x1="536.36" y1="2301.32" x2="556.77" y2="2301.32" style="stroke:#E69F00;stroke-width:10.00"/>
	<line x1="574.63" y1="2301.32" x2="595.04" y2="2301.32" style="stroke:#E69F00;stroke-width:10.00"/>
	<line x1="612.90" y1="2301.32" x2="633.31" y2="2301.32" style="stroke:#E69F00;stroke-width:10.00"/>
	<line x1="651.16" y1="2301.32" x2="671.57" y2="2301.32" style="stroke:#E69F00;stroke-width:10.00"/>
	<line x1="689.43" y1="2301.32" x2="709.84" y2="2301.32" style="stroke:#E69F00;stroke-width:10.00"/>
	<line x1="727.70" y1="2301.32" x2="737.26" y2="2301.32" style="stroke:#E69F00;stroke-width:10.00"/>
	<line x1="845.12" y1="2301.32" x2="865.53" y2="2301.32" style="stroke:#56B4E9;stroke-width:10.00"/>
	<line x1="883.39" y1="2301.32" x2="903.80" y2="2301.32" style="stroke:#56B4E9;stroke-width:10.00"/>
	<line x1="921.66" y1="2301.32" x2="942.07" y2="2301.32" style="stroke:#56B4E9;stroke-width:10.00"/>
	<line x1="959.92" y1="2301.32" x2="980.33" y2="2301.32" style="stroke:#56B4E9;stroke-width:10.00"/>
	<line x1="998.19" y1="2301.32" x2="1018.60" y2="2301.32" style="stroke:#56B4E9;stroke-width:10.00"/>
	<line x1="1036.46" y1="2301.32" x2="1046.02" y2="2301.32" style="stroke:#56B4E9;stroke-width:10.00"/>
	<line x1="1153.89" y1="2301.32" x2="1174.29" y2="2301.32" style="stroke:#009E73;stroke-width:10.00"/>
	<line x1="1192.15" y1="2301.32" x2="1212.56" y2="2301.32" style="stroke:#009E73;stroke-width:10.00"/>
	<line x1="1230.42" y1="2301.32" x2="1250.83" y2="2301.32" style="stroke:#009E73;stroke-width:10.00"/>
	<line x1="1268.68" y1="2301.32" x2="1289.09" y2="2301.32" style="stroke:#009E73;stroke-width:10.00"/>
	<line x1="1306.95" y1="2301.32" x2="1327.36" y2="2301.32" style="stroke:#009E73;stroke-width:10.00"/>
	<line x1="1345.22" y1="2301.32" x2="1354.78" y2="2301.32" style="stroke:#009E73;stroke-width:10.00"/>
	<line x1="1462.65" y1="2301.32" x2="1483.05" y2="2301.32" style="stroke:#D55E00;stroke-width:10.00"/>
	<line x1="1500.91" y1="2301.32" x2="1521.32" y2="2301.32" style="stroke:#D55E00;stroke-width:10.00"/>
	<line x1="1539.18" y1="2301.32" x2="1559.59" y2="2301.32" style="stroke:#D55E00;stroke-width:10.00"/>
	<line x1="1577.44" y1="2301.32" x2="1597.85" y2="2301.32" style="stroke:#D55E00;stroke-width:10.00"/>
	<line x1="1615.71" y1="2301.32" x2="1636.12" y2="2301.32" style="stroke:#D55E00;stroke-width:10.00"/>
	<line x1="1653.98" y1="2301.32" x2="1663.54" y2="2301.32" style="stroke:#D55E00;stroke-width:10.00"/>
	<line x1="1771.41" y1="2301.32" x2="1791.81" y2="2301.32" style="stroke:#CC79A7;stroke-width:10.00"/>
	<line x1="1809.67" y1="2301.32" x2="1830.08" y2="2301.32" style="stroke:#CC79A7;stroke-width:10.00"/>
	<line x1="1847.94" y1="2301.32" x2="1868.35" y2="2301.32" style="stroke:#CC79A7;stroke-width:10.00"/>
	<line x1="1886.20" y1="2301.32" x2="1906.61" y2="2301.32" style="stroke:#CC79A7;stroke-width:10.00"/>
	<line x1="1924.47" y1="2301.32" x2="1944.88" y2="2301.32" style="stroke:#CC79A7;stroke-width:10.00"/>
	<line x1="1962.74" y1="2301.32" x2="1972.30" y2="2301.32" style="stroke:#CC79A7;stroke-width:10.00"/>
	<text x="1356.30" y="154.88" style="font-family:'Helvetica';font-size:90.01px;fill:#000000" text-anchor="middle">Women</text>
</svg>
