<?xml version="1.0" encoding="UTF-8" standalone="no"?>
<!-- This is a Stata 15.1 generated SVG file (http://www.stata.com) -->

<svg version="1.1" width="3.54in" height="3.54in" viewBox="0 0 2551 2551" xmlns="http://www.w3.org/2000/svg" xmlns:xlink="http://www.w3.org/1999/xlink">
	<desc>Stata Graph - Graph</desc>
	<rect x="0" y="0" width="2551" height="2551" style="fill:#FFFFFF;stroke:none"/>
	<rect x="0.00" y="0.08" width="2551.00" height="2550.92" style="fill:#FFFFFF"/>
	<rect x="2.55" y="2.63" width="2545.90" height="2545.82" style="fill:none;stroke:#FFFFFF;stroke-width:5.10"/>
	<line x1="365.68" y1="1717.22" x2="2346.91" y2="1717.22" style="stroke:#E8E8E8;stroke-width:4.00"/>
	<line x1="365.68" y1="1466.67" x2="2346.91" y2="1466.67" style="stroke:#E8E8E8;stroke-width:4.00"/>
	<line x1="365.68" y1="1216.19" x2="2346.91" y2="1216.19" style="stroke:#E8E8E8;stroke-width:4.00"/>
	<line x1="365.68" y1="965.63" x2="2346.91" y2="965.63" style="stroke:#E8E8E8;stroke-width:4.00"/>
	<line x1="365.68" y1="715.08" x2="2346.91" y2="715.08" style="stroke:#E8E8E8;stroke-width:4.00"/>
	<line x1="365.68" y1="464.52" x2="2346.91" y2="464.52" style="stroke:#E8E8E8;stroke-width:4.00"/>
	<line x1="421.81" y1="1773.34" x2="421.81" y2="308.19" style="stroke:#E8E8E8;stroke-width:4.00"/>
	<line x1="889.05" y1="1773.34" x2="889.05" y2="308.19" style="stroke:#E8E8E8;stroke-width:4.00"/>
	<line x1="1356.30" y1="1773.34" x2="1356.30" y2="308.19" style="stroke:#E8E8E8;stroke-width:4.00"/>
	<line x1="1823.54" y1="1773.34" x2="1823.54" y2="308.19" style="stroke:#E8E8E8;stroke-width:4.00"/>
	<line x1="2290.79" y1="1773.34" x2="2290.79" y2="308.19" style="stroke:#E8E8E8;stroke-width:4.00"/>
	<line x1="421.73" y1="1080.43" x2="655.39" y2="1132.09" stroke-linecap="round" style="stroke:#56B4E9;stroke-width:10.00"/>
	<line x1="655.39" y1="1132.09" x2="889.05" y2="1154.73" stroke-linecap="round" style="stroke:#56B4E9;stroke-width:10.00"/>
	<line x1="889.05" y1="1154.73" x2="1122.63" y2="1094.62" stroke-linecap="round" style="stroke:#56B4E9;stroke-width:10.00"/>
	<line x1="1122.63" y1="1094.62" x2="1356.30" y2="1166.21" stroke-linecap="round" style="stroke:#56B4E9;stroke-width:10.00"/>
	<line x1="1356.30" y1="1166.21" x2="1589.88" y2="1216.51" stroke-linecap="round" style="stroke:#56B4E9;stroke-width:10.00"/>
	<line x1="1589.88" y1="1216.51" x2="1823.54" y2="1226.87" stroke-linecap="round" style="stroke:#56B4E9;stroke-width:10.00"/>
	<line x1="421.73" y1="933.43" x2="421.73" y2="933.43" style="stroke:#56B4E9;stroke-width:10.00"/>
	<line x1="421.73" y1="933.43" x2="421.73" y2="933.43" style="stroke:#56B4E9;stroke-width:10.00"/>
	<line x1="421.73" y1="933.43" x2="421.73" y2="933.43" style="stroke:#56B4E9;stroke-width:10.00"/>
	<line x1="421.73" y1="933.43" x2="441.10" y2="939.88" style="stroke:#56B4E9;stroke-width:10.00"/>
	<line x1="458.08" y1="945.46" x2="477.37" y2="951.92" style="stroke:#56B4E9;stroke-width:10.00"/>
	<line x1="494.35" y1="957.50" x2="513.72" y2="963.96" style="stroke:#56B4E9;stroke-width:10.00"/>
	<line x1="530.70" y1="969.54" x2="550.08" y2="976.00" style="stroke:#56B4E9;stroke-width:10.00"/>
	<line x1="566.98" y1="981.66" x2="586.35" y2="988.03" style="stroke:#56B4E9;stroke-width:10.00"/>
	<line x1="603.33" y1="993.69" x2="622.70" y2="1000.07" style="stroke:#56B4E9;stroke-width:10.00"/>
	<line x1="639.68" y1="1005.73" x2="655.39" y2="1010.99" style="stroke:#56B4E9;stroke-width:10.00"/>
	<line x1="655.39" y1="1010.99" x2="655.39" y2="1010.99" style="stroke:#56B4E9;stroke-width:10.00"/>
	<line x1="655.39" y1="1010.99" x2="655.39" y2="1010.99" style="stroke:#56B4E9;stroke-width:10.00"/>
	<line x1="655.39" y1="1010.99" x2="655.39" y2="1010.99" style="stroke:#56B4E9;stroke-width:10.00"/>
	<line x1="655.39" y1="1010.99" x2="659.21" y2="1011.23" style="stroke:#56B4E9;stroke-width:10.00"/>
	<line x1="677.07" y1="1012.43" x2="697.40" y2="1013.78" style="stroke:#56B4E9;stroke-width:10.00"/>
	<line x1="715.26" y1="1014.98" x2="735.59" y2="1016.33" style="stroke:#56B4E9;stroke-width:10.00"/>
	<line x1="753.45" y1="1017.53" x2="773.77" y2="1018.89" style="stroke:#56B4E9;stroke-width:10.00"/>
	<line x1="791.63" y1="1020.08" x2="811.96" y2="1021.44" style="stroke:#56B4E9;stroke-width:10.00"/>
	<line x1="829.82" y1="1022.63" x2="850.15" y2="1023.99" style="stroke:#56B4E9;stroke-width:10.00"/>
	<line x1="868.00" y1="1025.18" x2="888.33" y2="1026.54" style="stroke:#56B4E9;stroke-width:10.00"/>
	<line x1="905.71" y1="1022.47" x2="925.48" y2="1017.45" style="stroke:#56B4E9;stroke-width:10.00"/>
	<line x1="942.78" y1="1013.07" x2="962.55" y2="1008.12" style="stroke:#56B4E9;stroke-width:10.00"/>
	<line x1="979.85" y1="1003.82" x2="999.70" y2="998.88" style="stroke:#56B4E9;stroke-width:10.00"/>
	<line x1="1017.00" y1="994.49" x2="1036.77" y2="989.55" style="stroke:#56B4E9;stroke-width:10.00"/>
	<line x1="1054.07" y1="985.16" x2="1073.85" y2="980.22" style="stroke:#56B4E9;stroke-width:10.00"/>
	<line x1="1091.14" y1="975.92" x2="1110.92" y2="970.97" style="stroke:#56B4E9;stroke-width:10.00"/>
	<line x1="1127.90" y1="970.50" x2="1146.31" y2="979.19" style="stroke:#56B4E9;stroke-width:10.00"/>
	<line x1="1162.50" y1="986.84" x2="1180.91" y2="995.53" style="stroke:#56B4E9;stroke-width:10.00"/>
	<line x1="1197.01" y1="1003.10" x2="1215.51" y2="1011.87" style="stroke:#56B4E9;stroke-width:10.00"/>
	<line x1="1231.69" y1="1019.44" x2="1250.11" y2="1028.13" style="stroke:#56B4E9;stroke-width:10.00"/>
	<line x1="1266.29" y1="1035.79" x2="1284.71" y2="1044.48" style="stroke:#56B4E9;stroke-width:10.00"/>
	<line x1="1300.89" y1="1052.13" x2="1319.31" y2="1060.82" style="stroke:#56B4E9;stroke-width:10.00"/>
	<line x1="1335.41" y1="1068.47" x2="1353.91" y2="1077.16" style="stroke:#56B4E9;stroke-width:10.00"/>
	<line x1="1371.44" y1="1077.24" x2="1391.85" y2="1075.96" style="stroke:#56B4E9;stroke-width:10.00"/>
	<line x1="1409.63" y1="1074.77" x2="1430.04" y2="1073.41" style="stroke:#56B4E9;stroke-width:10.00"/>
	<line x1="1447.82" y1="1072.22" x2="1468.23" y2="1070.86" style="stroke:#56B4E9;stroke-width:10.00"/>
	<line x1="1486.00" y1="1069.67" x2="1506.41" y2="1068.31" style="stroke:#56B4E9;stroke-width:10.00"/>
	<line x1="1524.19" y1="1067.12" x2="1544.60" y2="1065.76" style="stroke:#56B4E9;stroke-width:10.00"/>
	<line x1="1562.38" y1="1064.56" x2="1582.79" y2="1063.21" style="stroke:#56B4E9;stroke-width:10.00"/>
	<line x1="1600.56" y1="1061.69" x2="1620.89" y2="1059.62" style="stroke:#56B4E9;stroke-width:10.00"/>
	<line x1="1638.67" y1="1057.87" x2="1658.92" y2="1055.87" style="stroke:#56B4E9;stroke-width:10.00"/>
	<line x1="1676.70" y1="1054.04" x2="1697.03" y2="1052.05" style="stroke:#56B4E9;stroke-width:10.00"/>
	<line x1="1714.80" y1="1050.29" x2="1735.05" y2="1048.22" style="stroke:#56B4E9;stroke-width:10.00"/>
	<line x1="1752.83" y1="1046.47" x2="1773.16" y2="1044.48" style="stroke:#56B4E9;stroke-width:10.00"/>
	<line x1="1790.94" y1="1042.72" x2="1811.27" y2="1040.65" style="stroke:#56B4E9;stroke-width:10.00"/>
	<line x1="421.73" y1="1161.02" x2="655.39" y2="1183.74" stroke-linecap="round" style="stroke:#009E73;stroke-width:10.00"/>
	<line x1="655.39" y1="1183.74" x2="889.05" y2="1165.41" stroke-linecap="round" style="stroke:#009E73;stroke-width:10.00"/>
	<line x1="889.05" y1="1165.41" x2="1122.63" y2="1156.48" stroke-linecap="round" style="stroke:#009E73;stroke-width:10.00"/>
	<line x1="1122.63" y1="1156.48" x2="1356.30" y2="1221.37" stroke-linecap="round" style="stroke:#009E73;stroke-width:10.00"/>
	<line x1="1356.30" y1="1221.37" x2="1589.88" y2="1173.94" stroke-linecap="round" style="stroke:#009E73;stroke-width:10.00"/>
	<line x1="1589.88" y1="1173.94" x2="1823.54" y2="1220.57" stroke-linecap="round" style="stroke:#009E73;stroke-width:10.00"/>
	<line x1="1823.54" y1="1220.57" x2="2057.13" y2="1223.12" stroke-linecap="round" style="stroke:#009E73;stroke-width:10.00"/>
	<line x1="2057.13" y1="1223.12" x2="2290.79" y2="1277.01" stroke-linecap="round" style="stroke:#009E73;stroke-width:10.00"/>
	<line x1="421.73" y1="1118.53" x2="421.73" y2="1118.53" style="stroke:#009E73;stroke-width:10.00"/>
	<line x1="421.73" y1="1118.53" x2="421.73" y2="1118.53" style="stroke:#009E73;stroke-width:10.00"/>
	<line x1="421.73" y1="1118.53" x2="421.73" y2="1118.53" style="stroke:#009E73;stroke-width:10.00"/>
	<line x1="421.73" y1="1118.53" x2="442.05" y2="1119.41" style="stroke:#009E73;stroke-width:10.00"/>
	<line x1="459.91" y1="1120.21" x2="480.32" y2="1121.08" style="stroke:#009E73;stroke-width:10.00"/>
	<line x1="498.18" y1="1121.88" x2="518.51" y2="1122.76" style="stroke:#009E73;stroke-width:10.00"/>
	<line x1="536.36" y1="1123.56" x2="556.77" y2="1124.51" style="stroke:#009E73;stroke-width:10.00"/>
	<line x1="574.63" y1="1125.23" x2="594.96" y2="1126.19" style="stroke:#009E73;stroke-width:10.00"/>
	<line x1="612.82" y1="1126.98" x2="633.23" y2="1127.86" style="stroke:#009E73;stroke-width:10.00"/>
	<line x1="651.08" y1="1128.58" x2="655.39" y2="1128.82" style="stroke:#009E73;stroke-width:10.00"/>
	<line x1="655.39" y1="1128.82" x2="655.39" y2="1128.82" style="stroke:#009E73;stroke-width:10.00"/>
	<line x1="655.39" y1="1128.82" x2="655.39" y2="1128.82" style="stroke:#009E73;stroke-width:10.00"/>
	<line x1="655.39" y1="1128.82" x2="655.39" y2="1128.82" style="stroke:#009E73;stroke-width:10.00"/>
	<line x1="655.39" y1="1128.82" x2="671.33" y2="1126.51" style="stroke:#009E73;stroke-width:10.00"/>
	<line x1="688.95" y1="1123.87" x2="709.20" y2="1120.93" style="stroke:#009E73;stroke-width:10.00"/>
	<line x1="726.82" y1="1118.37" x2="747.07" y2="1115.35" style="stroke:#009E73;stroke-width:10.00"/>
	<line x1="764.69" y1="1112.79" x2="784.86" y2="1109.84" style="stroke:#009E73;stroke-width:10.00"/>
	<line x1="802.55" y1="1107.21" x2="822.72" y2="1104.26" style="stroke:#009E73;stroke-width:10.00"/>
	<line x1="840.34" y1="1101.71" x2="860.59" y2="1098.76" style="stroke:#009E73;stroke-width:10.00"/>
	<line x1="878.21" y1="1096.13" x2="889.05" y2="1094.54" style="stroke:#009E73;stroke-width:10.00"/>
	<line x1="889.05" y1="1094.54" x2="889.05" y2="1094.54" style="stroke:#009E73;stroke-width:10.00"/>
	<line x1="889.05" y1="1094.54" x2="889.05" y2="1094.54" style="stroke:#009E73;stroke-width:10.00"/>
	<line x1="889.05" y1="1094.54" x2="889.05" y2="1094.54" style="stroke:#009E73;stroke-width:10.00"/>
	<line x1="889.05" y1="1094.54" x2="898.54" y2="1095.02" style="stroke:#009E73;stroke-width:10.00"/>
	<line x1="916.32" y1="1095.89" x2="936.72" y2="1096.93" style="stroke:#009E73;stroke-width:10.00"/>
	<line x1="954.50" y1="1097.81" x2="974.91" y2="1098.84" style="stroke:#009E73;stroke-width:10.00"/>
	<line x1="992.69" y1="1099.72" x2="1013.10" y2="1100.76" style="stroke:#009E73;stroke-width:10.00"/>
	<line x1="1030.88" y1="1101.71" x2="1051.28" y2="1102.67" style="stroke:#009E73;stroke-width:10.00"/>
	<line x1="1069.14" y1="1103.63" x2="1089.47" y2="1104.58" style="stroke:#009E73;stroke-width:10.00"/>
	<line x1="1107.33" y1="1105.54" x2="1122.63" y2="1106.26" style="stroke:#009E73;stroke-width:10.00"/>
	<line x1="1122.63" y1="1106.26" x2="1122.63" y2="1106.26" style="stroke:#009E73;stroke-width:10.00"/>
	<line x1="1122.63" y1="1106.26" x2="1122.63" y2="1106.26" style="stroke:#009E73;stroke-width:10.00"/>
	<line x1="1122.63" y1="1106.26" x2="1122.63" y2="1106.26" style="stroke:#009E73;stroke-width:10.00"/>
	<line x1="1122.63" y1="1106.26" x2="1127.66" y2="1106.89" style="stroke:#009E73;stroke-width:10.00"/>
	<line x1="1145.43" y1="1109.05" x2="1165.68" y2="1111.52" style="stroke:#009E73;stroke-width:10.00"/>
	<line x1="1183.46" y1="1113.75" x2="1203.71" y2="1116.22" style="stroke:#009E73;stroke-width:10.00"/>
	<line x1="1221.41" y1="1118.37" x2="1241.66" y2="1120.85" style="stroke:#009E73;stroke-width:10.00"/>
	<line x1="1259.44" y1="1123.08" x2="1279.69" y2="1125.55" style="stroke:#009E73;stroke-width:10.00"/>
	<line x1="1297.38" y1="1127.70" x2="1317.63" y2="1130.17" style="stroke:#009E73;stroke-width:10.00"/>
	<line x1="1335.41" y1="1132.40" x2="1355.66" y2="1134.88" style="stroke:#009E73;stroke-width:10.00"/>
	<line x1="1373.36" y1="1132.64" x2="1393.53" y2="1130.01" style="stroke:#009E73;stroke-width:10.00"/>
	<line x1="1411.23" y1="1127.62" x2="1431.47" y2="1124.91" style="stroke:#009E73;stroke-width:10.00"/>
	<line x1="1449.17" y1="1122.52" x2="1469.42" y2="1119.81" style="stroke:#009E73;stroke-width:10.00"/>
	<line x1="1487.12" y1="1117.42" x2="1507.29" y2="1114.71" style="stroke:#009E73;stroke-width:10.00"/>
	<line x1="1524.99" y1="1112.32" x2="1545.24" y2="1109.68" style="stroke:#009E73;stroke-width:10.00"/>
	<line x1="1562.93" y1="1107.21" x2="1583.10" y2="1104.58" style="stroke:#009E73;stroke-width:10.00"/>
	<line x1="1600.88" y1="1104.42" x2="1621.21" y2="1105.78" style="stroke:#009E73;stroke-width:10.00"/>
	<line x1="1639.07" y1="1106.97" x2="1659.40" y2="1108.33" style="stroke:#009E73;stroke-width:10.00"/>
	<line x1="1677.26" y1="1109.61" x2="1697.58" y2="1110.96" style="stroke:#009E73;stroke-width:10.00"/>
	<line x1="1715.44" y1="1112.16" x2="1735.77" y2="1113.59" style="stroke:#009E73;stroke-width:10.00"/>
	<line x1="1753.63" y1="1114.79" x2="1773.96" y2="1116.22" style="stroke:#009E73;stroke-width:10.00"/>
	<line x1="1791.81" y1="1117.42" x2="1812.14" y2="1118.77" style="stroke:#009E73;stroke-width:10.00"/>
	<line x1="1830.00" y1="1119.89" x2="1850.33" y2="1121.01" style="stroke:#009E73;stroke-width:10.00"/>
	<line x1="1868.19" y1="1121.96" x2="1888.52" y2="1123.00" style="stroke:#009E73;stroke-width:10.00"/>
	<line x1="1906.37" y1="1123.95" x2="1926.70" y2="1124.99" style="stroke:#009E73;stroke-width:10.00"/>
	<line x1="1944.56" y1="1125.95" x2="1964.89" y2="1126.98" style="stroke:#009E73;stroke-width:10.00"/>
	<line x1="1982.75" y1="1127.94" x2="2003.08" y2="1128.98" style="stroke:#009E73;stroke-width:10.00"/>
	<line x1="2020.93" y1="1129.93" x2="2041.26" y2="1131.05" style="stroke:#009E73;stroke-width:10.00"/>
	<line x1="2059.12" y1="1131.93" x2="2079.53" y2="1132.64" style="stroke:#009E73;stroke-width:10.00"/>
	<line x1="2097.39" y1="1133.20" x2="2117.79" y2="1133.84" style="stroke:#009E73;stroke-width:10.00"/>
	<line x1="2135.65" y1="1134.48" x2="2156.06" y2="1135.12" style="stroke:#009E73;stroke-width:10.00"/>
	<line x1="2173.92" y1="1135.67" x2="2194.33" y2="1136.39" style="stroke:#009E73;stroke-width:10.00"/>
	<line x1="2212.18" y1="1136.95" x2="2232.59" y2="1137.59" style="stroke:#009E73;stroke-width:10.00"/>
	<line x1="2250.45" y1="1138.14" x2="2270.78" y2="1138.78" style="stroke:#009E73;stroke-width:10.00"/>
	<line x1="2288.64" y1="1139.34" x2="2290.79" y2="1139.42" style="stroke:#009E73;stroke-width:10.00"/>
	<line x1="2290.79" y1="1139.42" x2="2290.79" y2="1139.42" style="stroke:#009E73;stroke-width:10.00"/>
	<line x1="2290.79" y1="1139.42" x2="2290.79" y2="1139.42" style="stroke:#009E73;stroke-width:10.00"/>
	<line x1="2290.79" y1="1139.42" x2="2290.79" y2="1139.42" style="stroke:#009E73;stroke-width:10.00"/>
	<line x1="421.73" y1="1035.63" x2="655.39" y2="1052.05" stroke-linecap="round" style="stroke:#D55E00;stroke-width:10.00"/>
	<line x1="655.39" y1="1052.05" x2="889.05" y2="1039.93" stroke-linecap="round" style="stroke:#D55E00;stroke-width:10.00"/>
	<line x1="889.05" y1="1039.93" x2="1122.63" y2="1018.41" stroke-linecap="round" style="stroke:#D55E00;stroke-width:10.00"/>
	<line x1="1122.63" y1="1018.41" x2="1356.30" y2="1045.99" stroke-linecap="round" style="stroke:#D55E00;stroke-width:10.00"/>
	<line x1="1356.30" y1="1045.99" x2="1589.88" y2="1067.99" stroke-linecap="round" style="stroke:#D55E00;stroke-width:10.00"/>
	<line x1="1589.88" y1="1067.99" x2="1823.54" y2="1107.05" stroke-linecap="round" style="stroke:#D55E00;stroke-width:10.00"/>
	<line x1="1823.54" y1="1107.05" x2="2057.13" y2="1088.88" stroke-linecap="round" style="stroke:#D55E00;stroke-width:10.00"/>
	<line x1="2057.13" y1="1088.88" x2="2290.79" y2="1157.20" stroke-linecap="round" style="stroke:#D55E00;stroke-width:10.00"/>
	<line x1="421.73" y1="1099.72" x2="421.73" y2="1099.72" style="stroke:#D55E00;stroke-width:10.00"/>
	<line x1="421.73" y1="1099.72" x2="421.73" y2="1099.72" style="stroke:#D55E00;stroke-width:10.00"/>
	<line x1="421.73" y1="1099.72" x2="421.73" y2="1099.72" style="stroke:#D55E00;stroke-width:10.00"/>
	<line x1="421.73" y1="1099.72" x2="442.13" y2="1099.56" style="stroke:#D55E00;stroke-width:10.00"/>
	<line x1="459.99" y1="1099.48" x2="480.40" y2="1099.32" style="stroke:#D55E00;stroke-width:10.00"/>
	<line x1="498.26" y1="1099.16" x2="518.67" y2="1099.00" style="stroke:#D55E00;stroke-width:10.00"/>
	<line x1="536.52" y1="1098.84" x2="556.93" y2="1098.68" style="stroke:#D55E00;stroke-width:10.00"/>
	<line x1="574.79" y1="1098.60" x2="595.20" y2="1098.44" style="stroke:#D55E00;stroke-width:10.00"/>
	<line x1="613.06" y1="1098.29" x2="633.46" y2="1098.13" style="stroke:#D55E00;stroke-width:10.00"/>
	<line x1="651.32" y1="1097.97" x2="655.39" y2="1097.97" style="stroke:#D55E00;stroke-width:10.00"/>
	<line x1="655.39" y1="1097.97" x2="655.39" y2="1097.97" style="stroke:#D55E00;stroke-width:10.00"/>
	<line x1="655.39" y1="1097.97" x2="655.39" y2="1097.97" style="stroke:#D55E00;stroke-width:10.00"/>
	<line x1="655.39" y1="1097.97" x2="655.39" y2="1097.97" style="stroke:#D55E00;stroke-width:10.00"/>
	<line x1="655.39" y1="1097.97" x2="671.57" y2="1095.65" style="stroke:#D55E00;stroke-width:10.00"/>
	<line x1="689.19" y1="1093.10" x2="709.44" y2="1090.23" style="stroke:#D55E00;stroke-width:10.00"/>
	<line x1="727.06" y1="1087.76" x2="747.31" y2="1084.89" style="stroke:#D55E00;stroke-width:10.00"/>
	<line x1="765.01" y1="1082.34" x2="785.17" y2="1079.47" style="stroke:#D55E00;stroke-width:10.00"/>
	<line x1="802.87" y1="1076.92" x2="823.04" y2="1074.05" style="stroke:#D55E00;stroke-width:10.00"/>
	<line x1="840.74" y1="1071.50" x2="860.91" y2="1068.63" style="stroke:#D55E00;stroke-width:10.00"/>
	<line x1="878.61" y1="1066.16" x2="889.05" y2="1064.64" style="stroke:#D55E00;stroke-width:10.00"/>
	<line x1="889.05" y1="1064.64" x2="889.05" y2="1064.64" style="stroke:#D55E00;stroke-width:10.00"/>
	<line x1="889.05" y1="1064.64" x2="889.05" y2="1064.64" style="stroke:#D55E00;stroke-width:10.00"/>
	<line x1="889.05" y1="1064.64" x2="889.05" y2="1064.64" style="stroke:#D55E00;stroke-width:10.00"/>
	<line x1="889.05" y1="1064.64" x2="898.94" y2="1064.33" style="stroke:#D55E00;stroke-width:10.00"/>
	<line x1="916.79" y1="1063.85" x2="937.20" y2="1063.29" style="stroke:#D55E00;stroke-width:10.00"/>
	<line x1="955.06" y1="1062.81" x2="975.47" y2="1062.25" style="stroke:#D55E00;stroke-width:10.00"/>
	<line x1="993.33" y1="1061.69" x2="1013.74" y2="1061.14" style="stroke:#D55E00;stroke-width:10.00"/>
	<line x1="1031.59" y1="1060.66" x2="1052.00" y2="1060.10" style="stroke:#D55E00;stroke-width:10.00"/>
	<line x1="1069.86" y1="1059.54" x2="1090.27" y2="1058.98" style="stroke:#D55E00;stroke-width:10.00"/>
	<line x1="1108.13" y1="1058.51" x2="1122.63" y2="1058.11" style="stroke:#D55E00;stroke-width:10.00"/>
	<line x1="1122.63" y1="1058.11" x2="1122.63" y2="1058.11" style="stroke:#D55E00;stroke-width:10.00"/>
	<line x1="1122.63" y1="1058.11" x2="1122.63" y2="1058.11" style="stroke:#D55E00;stroke-width:10.00"/>
	<line x1="1122.63" y1="1058.11" x2="1122.63" y2="1058.11" style="stroke:#D55E00;stroke-width:10.00"/>
	<line x1="1122.63" y1="1058.11" x2="1128.37" y2="1059.38" style="stroke:#D55E00;stroke-width:10.00"/>
	<line x1="1145.75" y1="1063.37" x2="1165.68" y2="1067.83" style="stroke:#D55E00;stroke-width:10.00"/>
	<line x1="1183.14" y1="1071.74" x2="1202.99" y2="1076.20" style="stroke:#D55E00;stroke-width:10.00"/>
	<line x1="1220.45" y1="1080.11" x2="1240.30" y2="1084.57" style="stroke:#D55E00;stroke-width:10.00"/>
	<line x1="1257.76" y1="1088.48" x2="1277.69" y2="1092.94" style="stroke:#D55E00;stroke-width:10.00"/>
	<line x1="1295.07" y1="1096.85" x2="1315.00" y2="1101.31" style="stroke:#D55E00;stroke-width:10.00"/>
	<line x1="1332.38" y1="1105.22" x2="1352.31" y2="1109.68" style="stroke:#D55E00;stroke-width:10.00"/>
	<line x1="1370.01" y1="1109.61" x2="1390.42" y2="1108.17" style="stroke:#D55E00;stroke-width:10.00"/>
	<line x1="1408.20" y1="1106.97" x2="1428.60" y2="1105.54" style="stroke:#D55E00;stroke-width:10.00"/>
	<line x1="1446.46" y1="1104.26" x2="1466.79" y2="1102.83" style="stroke:#D55E00;stroke-width:10.00"/>
	<line x1="1484.65" y1="1101.63" x2="1504.98" y2="1100.20" style="stroke:#D55E00;stroke-width:10.00"/>
	<line x1="1522.84" y1="1098.92" x2="1543.16" y2="1097.49" style="stroke:#D55E00;stroke-width:10.00"/>
	<line x1="1561.02" y1="1096.29" x2="1581.35" y2="1094.78" style="stroke:#D55E00;stroke-width:10.00"/>
	<line x1="1599.21" y1="1094.78" x2="1619.54" y2="1095.97" style="stroke:#D55E00;stroke-width:10.00"/>
	<line x1="1637.39" y1="1096.93" x2="1657.72" y2="1098.13" style="stroke:#D55E00;stroke-width:10.00"/>
	<line x1="1675.58" y1="1099.16" x2="1695.91" y2="1100.36" style="stroke:#D55E00;stroke-width:10.00"/>
	<line x1="1713.77" y1="1101.39" x2="1734.10" y2="1102.51" style="stroke:#D55E00;stroke-width:10.00"/>
	<line x1="1751.95" y1="1103.55" x2="1772.28" y2="1104.74" style="stroke:#D55E00;stroke-width:10.00"/>
	<line x1="1790.14" y1="1105.78" x2="1810.47" y2="1106.97" style="stroke:#D55E00;stroke-width:10.00"/>
	<line x1="1828.33" y1="1107.37" x2="1848.66" y2="1106.10" style="stroke:#D55E00;stroke-width:10.00"/>
	<line x1="1866.51" y1="1104.90" x2="1886.84" y2="1103.63" style="stroke:#D55E00;stroke-width:10.00"/>
	<line x1="1904.70" y1="1102.43" x2="1925.03" y2="1101.16" style="stroke:#D55E00;stroke-width:10.00"/>
	<line x1="1942.89" y1="1099.96" x2="1963.22" y2="1098.68" style="stroke:#D55E00;stroke-width:10.00"/>
	<line x1="1981.07" y1="1097.49" x2="2001.40" y2="1096.21" style="stroke:#D55E00;stroke-width:10.00"/>
	<line x1="2019.26" y1="1095.10" x2="2039.59" y2="1093.74" style="stroke:#D55E00;stroke-width:10.00"/>
	<line x1="2057.45" y1="1092.63" x2="2077.85" y2="1092.39" style="stroke:#D55E00;stroke-width:10.00"/>
	<line x1="2095.71" y1="1092.15" x2="2116.12" y2="1091.99" style="stroke:#D55E00;stroke-width:10.00"/>
	<line x1="2133.98" y1="1091.83" x2="2154.39" y2="1091.59" style="stroke:#D55E00;stroke-width:10.00"/>
	<line x1="2172.24" y1="1091.43" x2="2192.65" y2="1091.19" style="stroke:#D55E00;stroke-width:10.00"/>
	<line x1="2210.51" y1="1090.95" x2="2230.92" y2="1090.79" style="stroke:#D55E00;stroke-width:10.00"/>
	<line x1="2248.78" y1="1090.55" x2="2269.19" y2="1090.39" style="stroke:#D55E00;stroke-width:10.00"/>
	<line x1="2287.04" y1="1090.15" x2="2290.79" y2="1090.15" style="stroke:#D55E00;stroke-width:10.00"/>
	<line x1="2290.79" y1="1090.15" x2="2290.79" y2="1090.15" style="stroke:#D55E00;stroke-width:10.00"/>
	<line x1="2290.79" y1="1090.15" x2="2290.79" y2="1090.15" style="stroke:#D55E00;stroke-width:10.00"/>
	<line x1="2290.79" y1="1090.15" x2="2290.79" y2="1090.15" style="stroke:#D55E00;stroke-width:10.00"/>
	<line x1="1356.30" y1="867.50" x2="1589.88" y2="834.42" stroke-linecap="round" style="stroke:#CC79A7;stroke-width:10.00"/>
	<line x1="1589.88" y1="834.42" x2="1823.54" y2="851.32" stroke-linecap="round" style="stroke:#CC79A7;stroke-width:10.00"/>
	<line x1="1823.54" y1="851.32" x2="2057.13" y2="891.18" stroke-linecap="round" style="stroke:#CC79A7;stroke-width:10.00"/>
	<line x1="2057.13" y1="891.18" x2="2290.79" y2="941.48" stroke-linecap="round" style="stroke:#CC79A7;stroke-width:10.00"/>
	<line x1="1356.30" y1="887.27" x2="1356.30" y2="887.27" style="stroke:#CC79A7;stroke-width:10.00"/>
	<line x1="1356.30" y1="887.27" x2="1356.30" y2="887.27" style="stroke:#CC79A7;stroke-width:10.00"/>
	<line x1="1356.30" y1="887.27" x2="1356.30" y2="887.27" style="stroke:#CC79A7;stroke-width:10.00"/>
	<line x1="1356.30" y1="887.27" x2="1376.39" y2="883.52" style="stroke:#CC79A7;stroke-width:10.00"/>
	<line x1="1393.93" y1="880.17" x2="1413.94" y2="876.43" style="stroke:#CC79A7;stroke-width:10.00"/>
	<line x1="1431.47" y1="873.16" x2="1451.56" y2="869.41" style="stroke:#CC79A7;stroke-width:10.00"/>
	<line x1="1469.10" y1="866.14" x2="1489.19" y2="862.40" style="stroke:#CC79A7;stroke-width:10.00"/>
	<line x1="1506.73" y1="859.13" x2="1526.74" y2="855.38" style="stroke:#CC79A7;stroke-width:10.00"/>
	<line x1="1544.28" y1="852.11" x2="1564.37" y2="848.37" style="stroke:#CC79A7;stroke-width:10.00"/>
	<line x1="1581.91" y1="845.10" x2="1589.88" y2="843.58" style="stroke:#CC79A7;stroke-width:10.00"/>
	<line x1="1589.88" y1="843.58" x2="1589.88" y2="843.58" style="stroke:#CC79A7;stroke-width:10.00"/>
	<line x1="1589.88" y1="843.58" x2="1589.88" y2="843.58" style="stroke:#CC79A7;stroke-width:10.00"/>
	<line x1="1589.88" y1="843.58" x2="1589.88" y2="843.58" style="stroke:#CC79A7;stroke-width:10.00"/>
	<line x1="1589.88" y1="843.58" x2="1602.08" y2="844.38" style="stroke:#CC79A7;stroke-width:10.00"/>
	<line x1="1619.94" y1="845.58" x2="1640.34" y2="846.93" style="stroke:#CC79A7;stroke-width:10.00"/>
	<line x1="1658.12" y1="848.05" x2="1678.53" y2="849.40" style="stroke:#CC79A7;stroke-width:10.00"/>
	<line x1="1696.31" y1="850.60" x2="1716.72" y2="851.95" style="stroke:#CC79A7;stroke-width:10.00"/>
	<line x1="1734.50" y1="853.07" x2="1754.90" y2="854.43" style="stroke:#CC79A7;stroke-width:10.00"/>
	<line x1="1772.68" y1="855.62" x2="1793.09" y2="856.98" style="stroke:#CC79A7;stroke-width:10.00"/>
	<line x1="1810.87" y1="858.09" x2="1823.54" y2="858.89" style="stroke:#CC79A7;stroke-width:10.00"/>
	<line x1="1823.54" y1="858.89" x2="1823.54" y2="858.89" style="stroke:#CC79A7;stroke-width:10.00"/>
	<line x1="1823.54" y1="858.89" x2="1823.54" y2="858.89" style="stroke:#CC79A7;stroke-width:10.00"/>
	<line x1="1823.54" y1="858.89" x2="1823.54" y2="858.89" style="stroke:#CC79A7;stroke-width:10.00"/>
	<line x1="1823.54" y1="858.89" x2="1831.20" y2="859.61" style="stroke:#CC79A7;stroke-width:10.00"/>
	<line x1="1848.97" y1="861.20" x2="1869.30" y2="862.96" style="stroke:#CC79A7;stroke-width:10.00"/>
	<line x1="1887.08" y1="864.63" x2="1907.41" y2="866.38" style="stroke:#CC79A7;stroke-width:10.00"/>
	<line x1="1925.19" y1="867.98" x2="1945.52" y2="869.81" style="stroke:#CC79A7;stroke-width:10.00"/>
	<line x1="1963.30" y1="871.41" x2="1983.62" y2="873.16" style="stroke:#CC79A7;stroke-width:10.00"/>
	<line x1="2001.40" y1="874.83" x2="2021.73" y2="876.59" style="stroke:#CC79A7;stroke-width:10.00"/>
	<line x1="2039.51" y1="878.18" x2="2057.13" y2="879.78" style="stroke:#CC79A7;stroke-width:10.00"/>
	<line x1="2057.13" y1="879.78" x2="2057.13" y2="879.78" style="stroke:#CC79A7;stroke-width:10.00"/>
	<line x1="2057.13" y1="879.78" x2="2057.13" y2="879.78" style="stroke:#CC79A7;stroke-width:10.00"/>
	<line x1="2057.13" y1="879.78" x2="2057.13" y2="879.78" style="stroke:#CC79A7;stroke-width:10.00"/>
	<line x1="2057.13" y1="879.78" x2="2059.84" y2="880.33" style="stroke:#CC79A7;stroke-width:10.00"/>
	<line x1="2077.30" y1="883.76" x2="2097.31" y2="887.75" style="stroke:#CC79A7;stroke-width:10.00"/>
	<line x1="2114.85" y1="891.18" x2="2134.86" y2="895.16" style="stroke:#CC79A7;stroke-width:10.00"/>
	<line x1="2152.39" y1="898.59" x2="2172.40" y2="902.58" style="stroke:#CC79A7;stroke-width:10.00"/>
	<line x1="2189.86" y1="906.00" x2="2209.87" y2="909.99" style="stroke:#CC79A7;stroke-width:10.00"/>
	<line x1="2227.41" y1="913.42" x2="2247.42" y2="917.40" style="stroke:#CC79A7;stroke-width:10.00"/>
	<line x1="2264.96" y1="920.83" x2="2284.97" y2="924.82" style="stroke:#CC79A7;stroke-width:10.00"/>
	<line x1="421.73" y1="663.98" x2="421.73" y2="663.98" style="stroke:#A0A0A0;stroke-width:10.00"/>
	<line x1="421.73" y1="663.98" x2="421.73" y2="663.98" style="stroke:#A0A0A0;stroke-width:10.00"/>
	<line x1="421.73" y1="663.98" x2="472.75" y2="663.34" style="stroke:#A0A0A0;stroke-width:10.00"/>
	<line x1="498.26" y1="663.02" x2="549.28" y2="662.38" style="stroke:#A0A0A0;stroke-width:10.00"/>
	<line x1="574.79" y1="662.06" x2="625.81" y2="661.43" style="stroke:#A0A0A0;stroke-width:10.00"/>
	<line x1="651.32" y1="661.11" x2="655.39" y2="661.11" style="stroke:#A0A0A0;stroke-width:10.00"/>
	<line x1="655.39" y1="661.11" x2="655.39" y2="661.11" style="stroke:#A0A0A0;stroke-width:10.00"/>
	<line x1="655.39" y1="661.11" x2="655.39" y2="661.11" style="stroke:#A0A0A0;stroke-width:10.00"/>
	<line x1="655.39" y1="661.11" x2="702.26" y2="659.03" style="stroke:#A0A0A0;stroke-width:10.00"/>
	<line x1="727.78" y1="657.92" x2="778.72" y2="655.61" style="stroke:#A0A0A0;stroke-width:10.00"/>
	<line x1="804.23" y1="654.49" x2="855.17" y2="652.26" style="stroke:#A0A0A0;stroke-width:10.00"/>
	<line x1="880.68" y1="651.06" x2="889.05" y2="650.74" style="stroke:#A0A0A0;stroke-width:10.00"/>
	<line x1="889.05" y1="650.74" x2="889.05" y2="650.74" style="stroke:#A0A0A0;stroke-width:10.00"/>
	<line x1="889.05" y1="650.74" x2="889.05" y2="650.74" style="stroke:#A0A0A0;stroke-width:10.00"/>
	<line x1="889.05" y1="650.74" x2="931.62" y2="649.47" style="stroke:#A0A0A0;stroke-width:10.00"/>
	<line x1="957.13" y1="648.75" x2="1008.15" y2="647.24" style="stroke:#A0A0A0;stroke-width:10.00"/>
	<line x1="1033.67" y1="646.52" x2="1084.61" y2="645.00" style="stroke:#A0A0A0;stroke-width:10.00"/>
	<line x1="1110.12" y1="644.29" x2="1122.63" y2="643.89" style="stroke:#A0A0A0;stroke-width:10.00"/>
	<line x1="1122.63" y1="643.89" x2="1122.63" y2="643.89" style="stroke:#A0A0A0;stroke-width:10.00"/>
	<line x1="1122.63" y1="643.89" x2="1122.63" y2="643.89" style="stroke:#A0A0A0;stroke-width:10.00"/>
	<line x1="1122.63" y1="643.89" x2="1161.06" y2="641.50" style="stroke:#A0A0A0;stroke-width:10.00"/>
	<line x1="1186.57" y1="639.98" x2="1237.51" y2="636.79" style="stroke:#A0A0A0;stroke-width:10.00"/>
	<line x1="1262.94" y1="635.20" x2="1313.89" y2="632.17" style="stroke:#A0A0A0;stroke-width:10.00"/>
	<line x1="1339.40" y1="630.58" x2="1356.30" y2="629.54" style="stroke:#A0A0A0;stroke-width:10.00"/>
	<line x1="1356.30" y1="629.54" x2="1356.30" y2="629.54" style="stroke:#A0A0A0;stroke-width:10.00"/>
	<line x1="1356.30" y1="629.54" x2="1356.30" y2="629.54" style="stroke:#A0A0A0;stroke-width:10.00"/>
	<line x1="1356.30" y1="629.54" x2="1390.34" y2="628.42" style="stroke:#A0A0A0;stroke-width:10.00"/>
	<line x1="1415.85" y1="627.63" x2="1466.87" y2="625.95" style="stroke:#A0A0A0;stroke-width:10.00"/>
	<line x1="1492.38" y1="625.15" x2="1543.40" y2="623.48" style="stroke:#A0A0A0;stroke-width:10.00"/>
	<line x1="1568.83" y1="622.68" x2="1589.88" y2="621.97" style="stroke:#A0A0A0;stroke-width:10.00"/>
	<line x1="1589.88" y1="621.97" x2="1589.88" y2="621.97" style="stroke:#A0A0A0;stroke-width:10.00"/>
	<line x1="1589.88" y1="621.97" x2="1589.88" y2="621.97" style="stroke:#A0A0A0;stroke-width:10.00"/>
	<line x1="1589.88" y1="621.97" x2="1619.86" y2="620.77" style="stroke:#A0A0A0;stroke-width:10.00"/>
	<line x1="1645.29" y1="619.81" x2="1696.31" y2="617.74" style="stroke:#A0A0A0;stroke-width:10.00"/>
	<line x1="1721.74" y1="616.78" x2="1772.76" y2="614.71" style="stroke:#A0A0A0;stroke-width:10.00"/>
	<line x1="1798.19" y1="613.67" x2="1823.54" y2="612.72" style="stroke:#A0A0A0;stroke-width:10.00"/>
	<line x1="1823.54" y1="612.72" x2="1823.54" y2="612.72" style="stroke:#A0A0A0;stroke-width:10.00"/>
	<line x1="1823.54" y1="612.72" x2="1823.54" y2="612.72" style="stroke:#A0A0A0;stroke-width:10.00"/>
	<line x1="1823.54" y1="612.72" x2="1849.21" y2="611.60" style="stroke:#A0A0A0;stroke-width:10.00"/>
	<line x1="1874.64" y1="610.41" x2="1925.67" y2="608.17" style="stroke:#A0A0A0;stroke-width:10.00"/>
	<line x1="1951.10" y1="607.14" x2="2002.12" y2="604.83" style="stroke:#A0A0A0;stroke-width:10.00"/>
	<line x1="2027.63" y1="603.71" x2="2057.13" y2="602.43" style="stroke:#A0A0A0;stroke-width:10.00"/>
	<line x1="2057.13" y1="602.43" x2="2057.13" y2="602.43" style="stroke:#A0A0A0;stroke-width:10.00"/>
	<line x1="2057.13" y1="602.43" x2="2057.13" y2="602.43" style="stroke:#A0A0A0;stroke-width:10.00"/>
	<line x1="2057.13" y1="602.43" x2="2078.57" y2="601.16" style="stroke:#A0A0A0;stroke-width:10.00"/>
	<line x1="2104.00" y1="599.64" x2="2154.94" y2="596.62" style="stroke:#A0A0A0;stroke-width:10.00"/>
	<line x1="2180.46" y1="595.10" x2="2231.40" y2="592.07" style="stroke:#A0A0A0;stroke-width:10.00"/>
	<line x1="2256.83" y1="590.56" x2="2290.79" y2="588.56" style="stroke:#A0A0A0;stroke-width:10.00"/>
	<line x1="2290.79" y1="588.56" x2="2290.79" y2="588.56" style="stroke:#A0A0A0;stroke-width:10.00"/>
	<line x1="2290.79" y1="588.56" x2="2290.79" y2="588.56" style="stroke:#A0A0A0;stroke-width:10.00"/>
	<line x1="365.68" y1="1717.22" x2="330.29" y2="1717.22" style="stroke:#000000;stroke-width:4.00"/>
	<text x="312.51" y="1734.74" style="font-family:'Helvetica';font-size:49.99px;fill:#000000" text-anchor="end">25</text>
	<line x1="365.68" y1="1466.67" x2="330.29" y2="1466.67" style="stroke:#000000;stroke-width:4.00"/>
	<text x="312.51" y="1484.18" style="font-family:'Helvetica';font-size:49.99px;fill:#000000" text-anchor="end">30</text>
	<line x1="365.68" y1="1216.19" x2="330.29" y2="1216.19" style="stroke:#000000;stroke-width:4.00"/>
	<text x="312.51" y="1233.70" style="font-family:'Helvetica';font-size:49.99px;fill:#000000" text-anchor="end">35</text>
	<line x1="365.68" y1="965.63" x2="330.29" y2="965.63" style="stroke:#000000;stroke-width:4.00"/>
	<text x="312.51" y="983.15" style="font-family:'Helvetica';font-size:49.99px;fill:#000000" text-anchor="end">40</text>
	<line x1="365.68" y1="715.08" x2="330.29" y2="715.08" style="stroke:#000000;stroke-width:4.00"/>
	<text x="312.51" y="732.59" style="font-family:'Helvetica';font-size:49.99px;fill:#000000" text-anchor="end">45</text>
	<line x1="365.68" y1="464.52" x2="330.29" y2="464.52" style="stroke:#000000;stroke-width:4.00"/>
	<text x="312.51" y="482.04" style="font-family:'Helvetica';font-size:49.99px;fill:#000000" text-anchor="end">50</text>
	<line x1="365.68" y1="1717.22" x2="365.68" y2="364.31" style="stroke:#000000;stroke-width:4.00"/>
	<text x="136.21" y="1002.54" style="font-family:'Helvetica';font-size:60.03px;fill:#000000" transform="rotate(-90 136.21,1002.54)" text-anchor="middle">ISEI-88, employed only</text>
	<line x1="421.81" y1="1773.34" x2="421.81" y2="1808.82" style="stroke:#000000;stroke-width:4.00"/>
	<text x="421.81" y="1861.46" style="font-family:'Helvetica';font-size:49.99px;fill:#000000" text-anchor="middle">2007</text>
	<line x1="889.05" y1="1773.34" x2="889.05" y2="1808.82" style="stroke:#000000;stroke-width:4.00"/>
	<text x="889.05" y="1861.46" style="font-family:'Helvetica';font-size:49.99px;fill:#000000" text-anchor="middle">2009</text>
	<line x1="1356.30" y1="1773.34" x2="1356.30" y2="1808.82" style="stroke:#000000;stroke-width:4.00"/>
	<text x="1356.30" y="1861.46" style="font-family:'Helvetica';font-size:49.99px;fill:#000000" text-anchor="middle">2011</text>
	<line x1="1823.54" y1="1773.34" x2="1823.54" y2="1808.82" style="stroke:#000000;stroke-width:4.00"/>
	<text x="1823.54" y="1861.46" style="font-family:'Helvetica';font-size:49.99px;fill:#000000" text-anchor="middle">2013</text>
	<line x1="2290.79" y1="1773.34" x2="2290.79" y2="1808.82" style="stroke:#000000;stroke-width:4.00"/>
	<text x="2290.79" y="1861.46" style="font-family:'Helvetica';font-size:49.99px;fill:#000000" text-anchor="middle">2015</text>
	<line x1="421.81" y1="1773.34" x2="2290.79" y2="1773.34" style="stroke:#000000;stroke-width:4.00"/>
	<text x="1318.03" y="2003.86" style="font-family:'Helvetica';font-size:60.03px;fill:#000000" text-anchor="middle">Year</text>
	<text x="145.41" y="2248.05" style="font-family:'Helvetica';font-size:60.03px;fill:#000000">Arr. cohort: </text>
	<text x="536.36" y="2248.05" style="font-family:'Helvetica';font-size:60.03px;fill:#000000">1964-73</text>
	<text x="845.12" y="2248.05" style="font-family:'Helvetica';font-size:60.03px;fill:#000000">1974-83</text>
	<text x="1153.89" y="2248.05" style="font-family:'Helvetica';font-size:60.03px;fill:#000000">1984-93</text>
	<text x="1462.65" y="2248.05" style="font-family:'Helvetica';font-size:60.03px;fill:#000000">1994-03</text>
	<text x="1771.41" y="2248.05" style="font-family:'Helvetica';font-size:60.03px;fill:#000000">2004-10</text>
	<text x="2080.17" y="2248.05" style="font-family:'Helvetica';font-size:60.03px;fill:#000000">German</text>
	<text x="536.36" y="2396.65" style="font-family:'Helvetica';font-size:60.03px;fill:#000000">incl. nat.</text>
	<text x="845.12" y="2396.65" style="font-family:'Helvetica';font-size:60.03px;fill:#000000">incl. nat.</text>
	<text x="1153.89" y="2396.65" style="font-family:'Helvetica';font-size:60.03px;fill:#000000">incl. nat.</text>
	<text x="1462.65" y="2396.65" style="font-family:'Helvetica';font-size:60.03px;fill:#000000">incl. nat.</text>
	<text x="1771.41" y="2396.65" style="font-family:'Helvetica';font-size:60.03px;fill:#000000">incl. nat.</text>
	<line x1="536.36" y1="2152.73" x2="737.26" y2="2152.73" style="stroke:#E69F00;stroke-width:10.00"/>
	<line x1="845.12" y1="2152.73" x2="1046.02" y2="2152.73" style="stroke:#56B4E9;stroke-width:10.00"/>
	<line x1="1153.89" y1="2152.73" x2="1354.78" y2="2152.73" style="stroke:#009E73;stroke-width:10.00"/>
	<line x1="1462.65" y1="2152.73" x2="1663.54" y2="2152.73" style="stroke:#D55E00;stroke-width:10.00"/>
	<line x1="1771.41" y1="2152.73" x2="1972.30" y2="2152.73" style="stroke:#CC79A7;stroke-width:10.00"/>
	<line x1="2080.17" y1="2152.73" x2="2131.19" y2="2152.73" style="stroke:#A0A0A0;stroke-width:10.00"/>
	<line x1="2156.70" y1="2152.73" x2="2207.72" y2="2152.73" style="stroke:#A0A0A0;stroke-width:10.00"/>
	<line x1="2233.23" y1="2152.73" x2="2278.03" y2="2152.73" style="stroke:#A0A0A0;stroke-width:10.00"/>
	<line x1="536.36" y1="2301.32" x2="556.77" y2="2301.32" style="stroke:#E69F00;stroke-width:10.00"/>
	<line x1="574.63" y1="2301.32" x2="595.04" y2="2301.32" style="stroke:#E69F00;stroke-width:10.00"/>
	<line x1="612.90" y1="2301.32" x2="633.31" y2="2301.32" style="stroke:#E69F00;stroke-width:10.00"/>
	<line x1="651.16" y1="2301.32" x2="671.57" y2="2301.32" style="stroke:#E69F00;stroke-width:10.00"/>
	<line x1="689.43" y1="2301.32" x2="709.84" y2="2301.32" style="stroke:#E69F00;stroke-width:10.00"/>
	<line x1="727.70" y1="2301.32" x2="737.26" y2="2301.32" style="stroke:#E69F00;stroke-width:10.00"/>
	<line x1="845.12" y1="2301.32" x2="865.53" y2="2301.32" style="stroke:#56B4E9;stroke-width:10.00"/>
	<line x1="883.39" y1="2301.32" x2="903.80" y2="2301.32" style="stroke:#56B4E9;stroke-width:10.00"/>
	<line x1="921.66" y1="2301.32" x2="942.07" y2="2301.32" style="stroke:#56B4E9;stroke-width:10.00"/>
	<line x1="959.92" y1="2301.32" x2="980.33" y2="2301.32" style="stroke:#56B4E9;stroke-width:10.00"/>
	<line x1="998.19" y1="2301.32" x2="1018.60" y2="2301.32" style="stroke:#56B4E9;stroke-width:10.00"/>
	<line x1="1036.46" y1="2301.32" x2="1046.02" y2="2301.32" style="stroke:#56B4E9;stroke-width:10.00"/>
	<line x1="1153.89" y1="2301.32" x2="1174.29" y2="2301.32" style="stroke:#009E73;stroke-width:10.00"/>
	<line x1="1192.15" y1="2301.32" x2="1212.56" y2="2301.32" style="stroke:#009E73;stroke-width:10.00"/>
	<line x1="1230.42" y1="2301.32" x2="1250.83" y2="2301.32" style="stroke:#009E73;stroke-width:10.00"/>
	<line x1="1268.68" y1="2301.32" x2="1289.09" y2="2301.32" style="stroke:#009E73;stroke-width:10.00"/>
	<line x1="1306.95" y1="2301.32" x2="1327.36" y2="2301.32" style="stroke:#009E73;stroke-width:10.00"/>
	<line x1="1345.22" y1="2301.32" x2="1354.78" y2="2301.32" style="stroke:#009E73;stroke-width:10.00"/>
	<line x1="1462.65" y1="2301.32" x2="1483.05" y2="2301.32" style="stroke:#D55E00;stroke-width:10.00"/>
	<line x1="1500.91" y1="2301.32" x2="1521.32" y2="2301.32" style="stroke:#D55E00;stroke-width:10.00"/>
	<line x1="1539.18" y1="2301.32" x2="1559.59" y2="2301.32" style="stroke:#D55E00;stroke-width:10.00"/>
	<line x1="1577.44" y1="2301.32" x2="1597.85" y2="2301.32" style="stroke:#D55E00;stroke-width:10.00"/>
	<line x1="1615.71" y1="2301.32" x2="1636.12" y2="2301.32" style="stroke:#D55E00;stroke-width:10.00"/>
	<line x1="1653.98" y1="2301.32" x2="1663.54" y2="2301.32" style="stroke:#D55E00;stroke-width:10.00"/>
	<line x1="1771.41" y1="2301.32" x2="1791.81" y2="2301.32" style="stroke:#CC79A7;stroke-width:10.00"/>
	<line x1="1809.67" y1="2301.32" x2="1830.08" y2="2301.32" style="stroke:#CC79A7;stroke-width:10.00"/>
	<line x1="1847.94" y1="2301.32" x2="1868.35" y2="2301.32" style="stroke:#CC79A7;stroke-width:10.00"/>
	<line x1="1886.20" y1="2301.32" x2="1906.61" y2="2301.32" style="stroke:#CC79A7;stroke-width:10.00"/>
	<line x1="1924.47" y1="2301.32" x2="1944.88" y2="2301.32" style="stroke:#CC79A7;stroke-width:10.00"/>
	<line x1="1962.74" y1="2301.32" x2="1972.30" y2="2301.32" style="stroke:#CC79A7;stroke-width:10.00"/>
	<text x="1356.30" y="239.12" style="font-family:'Helvetica';font-size:60.03px;fill:#000000" text-anchor="middle">Means</text>
	<text x="1356.30" y="154.88" style="font-family:'Helvetica';font-size:90.01px;fill:#000000" text-anchor="middle">ISEI-88, employed only, Women</text>
</svg>
