<?xml version="1.0" encoding="UTF-8" standalone="no"?>
<!-- This is a Stata 15.1 generated SVG file (http://www.stata.com) -->

<svg version="1.1" width="3.54in" height="3.54in" viewBox="0 0 2551 2551" xmlns="http://www.w3.org/2000/svg" xmlns:xlink="http://www.w3.org/1999/xlink">
	<desc>Stata Graph - Graph</desc>
	<rect x="0" y="0" width="2551" height="2551" style="fill:#FFFFFF;stroke:none"/>
	<rect x="0.00" y="0.08" width="2551.00" height="2550.92" style="fill:#FFFFFF"/>
	<rect x="2.55" y="2.63" width="2545.90" height="2545.82" style="fill:none;stroke:#FFFFFF;stroke-width:5.10"/>
	<line x1="365.68" y1="1717.22" x2="2346.91" y2="1717.22" style="stroke:#E8E8E8;stroke-width:4.00"/>
	<line x1="365.68" y1="1446.66" x2="2346.91" y2="1446.66" style="stroke:#E8E8E8;stroke-width:4.00"/>
	<line x1="365.68" y1="1176.09" x2="2346.91" y2="1176.09" style="stroke:#E8E8E8;stroke-width:4.00"/>
	<line x1="365.68" y1="905.53" x2="2346.91" y2="905.53" style="stroke:#E8E8E8;stroke-width:4.00"/>
	<line x1="365.68" y1="634.96" x2="2346.91" y2="634.96" style="stroke:#E8E8E8;stroke-width:4.00"/>
	<line x1="365.68" y1="364.31" x2="2346.91" y2="364.31" style="stroke:#E8E8E8;stroke-width:4.00"/>
	<line x1="421.81" y1="1773.34" x2="421.81" y2="308.19" style="stroke:#E8E8E8;stroke-width:4.00"/>
	<line x1="889.05" y1="1773.34" x2="889.05" y2="308.19" style="stroke:#E8E8E8;stroke-width:4.00"/>
	<line x1="1356.30" y1="1773.34" x2="1356.30" y2="308.19" style="stroke:#E8E8E8;stroke-width:4.00"/>
	<line x1="1823.54" y1="1773.34" x2="1823.54" y2="308.19" style="stroke:#E8E8E8;stroke-width:4.00"/>
	<line x1="2290.79" y1="1773.34" x2="2290.79" y2="308.19" style="stroke:#E8E8E8;stroke-width:4.00"/>
	<line x1="421.73" y1="637.91" x2="655.39" y2="567.04" stroke-linecap="round" style="stroke:#56B4E9;stroke-width:10.00"/>
	<line x1="655.39" y1="567.04" x2="889.05" y2="650.82" stroke-linecap="round" style="stroke:#56B4E9;stroke-width:10.00"/>
	<line x1="889.05" y1="650.82" x2="1122.63" y2="601.88" stroke-linecap="round" style="stroke:#56B4E9;stroke-width:10.00"/>
	<line x1="1122.63" y1="601.88" x2="1356.30" y2="602.12" stroke-linecap="round" style="stroke:#56B4E9;stroke-width:10.00"/>
	<line x1="1356.30" y1="602.12" x2="1589.88" y2="619.18" stroke-linecap="round" style="stroke:#56B4E9;stroke-width:10.00"/>
	<line x1="1589.88" y1="619.18" x2="1823.54" y2="621.25" stroke-linecap="round" style="stroke:#56B4E9;stroke-width:10.00"/>
	<line x1="421.73" y1="597.33" x2="421.73" y2="597.33" style="stroke:#56B4E9;stroke-width:10.00"/>
	<line x1="421.73" y1="597.33" x2="421.73" y2="597.33" style="stroke:#56B4E9;stroke-width:10.00"/>
	<line x1="421.73" y1="597.33" x2="421.73" y2="597.33" style="stroke:#56B4E9;stroke-width:10.00"/>
	<line x1="421.73" y1="597.33" x2="441.97" y2="595.10" style="stroke:#56B4E9;stroke-width:10.00"/>
	<line x1="459.75" y1="593.11" x2="480.00" y2="590.88" style="stroke:#56B4E9;stroke-width:10.00"/>
	<line x1="497.78" y1="588.96" x2="518.03" y2="586.73" style="stroke:#56B4E9;stroke-width:10.00"/>
	<line x1="535.81" y1="584.74" x2="556.14" y2="582.50" style="stroke:#56B4E9;stroke-width:10.00"/>
	<line x1="573.83" y1="580.51" x2="594.16" y2="578.28" style="stroke:#56B4E9;stroke-width:10.00"/>
	<line x1="611.86" y1="576.29" x2="632.19" y2="573.97" style="stroke:#56B4E9;stroke-width:10.00"/>
	<line x1="649.89" y1="572.06" x2="655.39" y2="571.42" style="stroke:#56B4E9;stroke-width:10.00"/>
	<line x1="655.39" y1="571.42" x2="655.39" y2="571.42" style="stroke:#56B4E9;stroke-width:10.00"/>
	<line x1="655.39" y1="571.42" x2="655.39" y2="571.42" style="stroke:#56B4E9;stroke-width:10.00"/>
	<line x1="655.39" y1="571.42" x2="655.39" y2="571.42" style="stroke:#56B4E9;stroke-width:10.00"/>
	<line x1="655.39" y1="571.42" x2="669.66" y2="575.81" style="stroke:#56B4E9;stroke-width:10.00"/>
	<line x1="686.72" y1="580.99" x2="706.25" y2="586.97" style="stroke:#56B4E9;stroke-width:10.00"/>
	<line x1="723.31" y1="592.15" x2="742.76" y2="598.13" style="stroke:#56B4E9;stroke-width:10.00"/>
	<line x1="759.90" y1="603.39" x2="779.35" y2="609.37" style="stroke:#56B4E9;stroke-width:10.00"/>
	<line x1="796.42" y1="614.55" x2="815.95" y2="620.53" style="stroke:#56B4E9;stroke-width:10.00"/>
	<line x1="833.01" y1="625.71" x2="852.54" y2="631.69" style="stroke:#56B4E9;stroke-width:10.00"/>
	<line x1="869.68" y1="636.87" x2="889.05" y2="642.77" style="stroke:#56B4E9;stroke-width:10.00"/>
	<line x1="889.05" y1="642.77" x2="889.05" y2="642.77" style="stroke:#56B4E9;stroke-width:10.00"/>
	<line x1="889.05" y1="642.77" x2="889.05" y2="642.77" style="stroke:#56B4E9;stroke-width:10.00"/>
	<line x1="889.05" y1="642.77" x2="889.05" y2="642.77" style="stroke:#56B4E9;stroke-width:10.00"/>
	<line x1="889.05" y1="642.77" x2="889.13" y2="642.77" style="stroke:#56B4E9;stroke-width:10.00"/>
	<line x1="906.59" y1="638.87" x2="926.44" y2="634.40" style="stroke:#56B4E9;stroke-width:10.00"/>
	<line x1="943.90" y1="630.50" x2="963.83" y2="626.03" style="stroke:#56B4E9;stroke-width:10.00"/>
	<line x1="981.21" y1="622.20" x2="1001.14" y2="617.66" style="stroke:#56B4E9;stroke-width:10.00"/>
	<line x1="1018.52" y1="613.83" x2="1038.45" y2="609.37" style="stroke:#56B4E9;stroke-width:10.00"/>
	<line x1="1055.91" y1="605.46" x2="1075.84" y2="601.00" style="stroke:#56B4E9;stroke-width:10.00"/>
	<line x1="1093.22" y1="597.09" x2="1113.15" y2="592.63" style="stroke:#56B4E9;stroke-width:10.00"/>
	<line x1="1130.69" y1="591.51" x2="1151.02" y2="593.82" style="stroke:#56B4E9;stroke-width:10.00"/>
	<line x1="1168.71" y1="595.82" x2="1189.04" y2="598.13" style="stroke:#56B4E9;stroke-width:10.00"/>
	<line x1="1206.74" y1="600.20" x2="1227.07" y2="602.51" style="stroke:#56B4E9;stroke-width:10.00"/>
	<line x1="1244.85" y1="604.59" x2="1265.10" y2="606.90" style="stroke:#56B4E9;stroke-width:10.00"/>
	<line x1="1282.87" y1="608.89" x2="1303.12" y2="611.20" style="stroke:#56B4E9;stroke-width:10.00"/>
	<line x1="1320.90" y1="613.28" x2="1341.15" y2="615.59" style="stroke:#56B4E9;stroke-width:10.00"/>
	<line x1="1358.93" y1="617.18" x2="1379.26" y2="616.07" style="stroke:#56B4E9;stroke-width:10.00"/>
	<line x1="1397.11" y1="615.03" x2="1417.44" y2="613.91" style="stroke:#56B4E9;stroke-width:10.00"/>
	<line x1="1435.30" y1="612.96" x2="1455.63" y2="611.84" style="stroke:#56B4E9;stroke-width:10.00"/>
	<line x1="1473.49" y1="610.81" x2="1493.82" y2="609.69" style="stroke:#56B4E9;stroke-width:10.00"/>
	<line x1="1511.67" y1="608.73" x2="1532.00" y2="607.62" style="stroke:#56B4E9;stroke-width:10.00"/>
	<line x1="1549.86" y1="606.66" x2="1570.19" y2="605.54" style="stroke:#56B4E9;stroke-width:10.00"/>
	<line x1="1588.05" y1="604.59" x2="1589.88" y2="604.43" style="stroke:#56B4E9;stroke-width:10.00"/>
	<line x1="1589.88" y1="604.43" x2="1589.88" y2="604.43" style="stroke:#56B4E9;stroke-width:10.00"/>
	<line x1="1589.88" y1="604.43" x2="1589.88" y2="604.43" style="stroke:#56B4E9;stroke-width:10.00"/>
	<line x1="1589.88" y1="604.43" x2="1589.88" y2="604.43" style="stroke:#56B4E9;stroke-width:10.00"/>
	<line x1="1589.88" y1="604.43" x2="1608.22" y2="607.46" style="stroke:#56B4E9;stroke-width:10.00"/>
	<line x1="1625.83" y1="610.41" x2="1645.92" y2="613.75" style="stroke:#56B4E9;stroke-width:10.00"/>
	<line x1="1663.54" y1="616.70" x2="1683.71" y2="620.05" style="stroke:#56B4E9;stroke-width:10.00"/>
	<line x1="1701.33" y1="623.00" x2="1721.50" y2="626.35" style="stroke:#56B4E9;stroke-width:10.00"/>
	<line x1="1739.12" y1="629.30" x2="1759.21" y2="632.65" style="stroke:#56B4E9;stroke-width:10.00"/>
	<line x1="1776.83" y1="635.52" x2="1797.00" y2="638.87" style="stroke:#56B4E9;stroke-width:10.00"/>
	<line x1="1814.61" y1="641.82" x2="1823.54" y2="643.33" style="stroke:#56B4E9;stroke-width:10.00"/>
	<line x1="1823.54" y1="643.33" x2="1823.54" y2="643.33" style="stroke:#56B4E9;stroke-width:10.00"/>
	<line x1="1823.54" y1="643.33" x2="1823.54" y2="643.33" style="stroke:#56B4E9;stroke-width:10.00"/>
	<line x1="1823.54" y1="643.33" x2="1823.54" y2="643.33" style="stroke:#56B4E9;stroke-width:10.00"/>
	<line x1="421.73" y1="632.01" x2="655.39" y2="646.76" stroke-linecap="round" style="stroke:#009E73;stroke-width:10.00"/>
	<line x1="655.39" y1="646.76" x2="889.05" y2="723.61" stroke-linecap="round" style="stroke:#009E73;stroke-width:10.00"/>
	<line x1="889.05" y1="723.61" x2="1122.63" y2="659.75" stroke-linecap="round" style="stroke:#009E73;stroke-width:10.00"/>
	<line x1="1122.63" y1="659.75" x2="1356.30" y2="638.07" stroke-linecap="round" style="stroke:#009E73;stroke-width:10.00"/>
	<line x1="1356.30" y1="638.07" x2="1589.88" y2="666.69" stroke-linecap="round" style="stroke:#009E73;stroke-width:10.00"/>
	<line x1="1589.88" y1="666.69" x2="1823.54" y2="728.95" stroke-linecap="round" style="stroke:#009E73;stroke-width:10.00"/>
	<line x1="1823.54" y1="728.95" x2="2057.13" y2="712.29" stroke-linecap="round" style="stroke:#009E73;stroke-width:10.00"/>
	<line x1="2057.13" y1="712.29" x2="2290.79" y2="685.82" stroke-linecap="round" style="stroke:#009E73;stroke-width:10.00"/>
	<line x1="421.73" y1="633.76" x2="421.73" y2="633.76" style="stroke:#009E73;stroke-width:10.00"/>
	<line x1="421.73" y1="633.76" x2="421.73" y2="633.76" style="stroke:#009E73;stroke-width:10.00"/>
	<line x1="421.73" y1="633.76" x2="421.73" y2="633.76" style="stroke:#009E73;stroke-width:10.00"/>
	<line x1="421.73" y1="633.76" x2="442.13" y2="633.68" style="stroke:#009E73;stroke-width:10.00"/>
	<line x1="459.99" y1="633.68" x2="480.40" y2="633.60" style="stroke:#009E73;stroke-width:10.00"/>
	<line x1="498.26" y1="633.60" x2="518.67" y2="633.52" style="stroke:#009E73;stroke-width:10.00"/>
	<line x1="536.52" y1="633.45" x2="556.93" y2="633.37" style="stroke:#009E73;stroke-width:10.00"/>
	<line x1="574.79" y1="633.37" x2="595.20" y2="633.29" style="stroke:#009E73;stroke-width:10.00"/>
	<line x1="613.06" y1="633.21" x2="633.46" y2="633.21" style="stroke:#009E73;stroke-width:10.00"/>
	<line x1="651.32" y1="633.13" x2="655.39" y2="633.13" style="stroke:#009E73;stroke-width:10.00"/>
	<line x1="655.39" y1="633.13" x2="655.39" y2="633.13" style="stroke:#009E73;stroke-width:10.00"/>
	<line x1="655.39" y1="633.13" x2="655.39" y2="633.13" style="stroke:#009E73;stroke-width:10.00"/>
	<line x1="655.39" y1="633.13" x2="655.39" y2="633.13" style="stroke:#009E73;stroke-width:10.00"/>
	<line x1="655.39" y1="633.13" x2="670.62" y2="639.03" style="stroke:#009E73;stroke-width:10.00"/>
	<line x1="687.28" y1="645.48" x2="706.25" y2="652.98" style="stroke:#009E73;stroke-width:10.00"/>
	<line x1="722.91" y1="659.43" x2="741.89" y2="666.85" style="stroke:#009E73;stroke-width:10.00"/>
	<line x1="758.55" y1="673.30" x2="777.52" y2="680.72" style="stroke:#009E73;stroke-width:10.00"/>
	<line x1="794.18" y1="687.18" x2="813.16" y2="694.59" style="stroke:#009E73;stroke-width:10.00"/>
	<line x1="829.82" y1="701.13" x2="848.79" y2="708.54" style="stroke:#009E73;stroke-width:10.00"/>
	<line x1="865.45" y1="715.00" x2="884.51" y2="722.41" style="stroke:#009E73;stroke-width:10.00"/>
	<line x1="901.49" y1="720.66" x2="921.02" y2="714.92" style="stroke:#009E73;stroke-width:10.00"/>
	<line x1="938.24" y1="709.98" x2="957.77" y2="704.24" style="stroke:#009E73;stroke-width:10.00"/>
	<line x1="974.91" y1="699.29" x2="994.52" y2="693.63" style="stroke:#009E73;stroke-width:10.00"/>
	<line x1="1011.66" y1="688.61" x2="1031.27" y2="682.95" style="stroke:#009E73;stroke-width:10.00"/>
	<line x1="1048.49" y1="677.93" x2="1068.03" y2="672.27" style="stroke:#009E73;stroke-width:10.00"/>
	<line x1="1085.17" y1="667.33" x2="1104.78" y2="661.59" style="stroke:#009E73;stroke-width:10.00"/>
	<line x1="1122.00" y1="656.64" x2="1122.63" y2="656.48" style="stroke:#009E73;stroke-width:10.00"/>
	<line x1="1122.63" y1="656.48" x2="1122.63" y2="656.48" style="stroke:#009E73;stroke-width:10.00"/>
	<line x1="1122.63" y1="656.48" x2="1122.63" y2="656.48" style="stroke:#009E73;stroke-width:10.00"/>
	<line x1="1122.63" y1="656.48" x2="1122.63" y2="656.48" style="stroke:#009E73;stroke-width:10.00"/>
	<line x1="1122.63" y1="656.48" x2="1142.25" y2="654.97" style="stroke:#009E73;stroke-width:10.00"/>
	<line x1="1160.10" y1="653.61" x2="1180.43" y2="652.02" style="stroke:#009E73;stroke-width:10.00"/>
	<line x1="1198.21" y1="650.66" x2="1218.54" y2="649.07" style="stroke:#009E73;stroke-width:10.00"/>
	<line x1="1236.40" y1="647.71" x2="1256.73" y2="646.12" style="stroke:#009E73;stroke-width:10.00"/>
	<line x1="1274.50" y1="644.77" x2="1294.91" y2="643.17" style="stroke:#009E73;stroke-width:10.00"/>
	<line x1="1312.69" y1="641.90" x2="1333.10" y2="640.30" style="stroke:#009E73;stroke-width:10.00"/>
	<line x1="1350.88" y1="638.95" x2="1356.30" y2="638.55" style="stroke:#009E73;stroke-width:10.00"/>
	<line x1="1356.30" y1="638.55" x2="1356.30" y2="638.55" style="stroke:#009E73;stroke-width:10.00"/>
	<line x1="1356.30" y1="638.55" x2="1356.30" y2="638.55" style="stroke:#009E73;stroke-width:10.00"/>
	<line x1="1356.30" y1="638.55" x2="1356.30" y2="638.55" style="stroke:#009E73;stroke-width:10.00"/>
	<line x1="1356.30" y1="638.55" x2="1371.29" y2="639.03" style="stroke:#009E73;stroke-width:10.00"/>
	<line x1="1389.14" y1="639.66" x2="1409.55" y2="640.38" style="stroke:#009E73;stroke-width:10.00"/>
	<line x1="1427.41" y1="641.02" x2="1447.82" y2="641.74" style="stroke:#009E73;stroke-width:10.00"/>
	<line x1="1465.68" y1="642.37" x2="1486.08" y2="643.09" style="stroke:#009E73;stroke-width:10.00"/>
	<line x1="1503.94" y1="643.73" x2="1524.35" y2="644.45" style="stroke:#009E73;stroke-width:10.00"/>
	<line x1="1542.21" y1="645.08" x2="1562.62" y2="645.80" style="stroke:#009E73;stroke-width:10.00"/>
	<line x1="1580.47" y1="646.44" x2="1589.88" y2="646.76" style="stroke:#009E73;stroke-width:10.00"/>
	<line x1="1589.88" y1="646.76" x2="1589.88" y2="646.76" style="stroke:#009E73;stroke-width:10.00"/>
	<line x1="1589.88" y1="646.76" x2="1589.88" y2="646.76" style="stroke:#009E73;stroke-width:10.00"/>
	<line x1="1589.88" y1="646.76" x2="1589.88" y2="646.76" style="stroke:#009E73;stroke-width:10.00"/>
	<line x1="1589.88" y1="646.76" x2="1600.48" y2="649.47" style="stroke:#009E73;stroke-width:10.00"/>
	<line x1="1617.78" y1="653.85" x2="1637.63" y2="658.80" style="stroke:#009E73;stroke-width:10.00"/>
	<line x1="1654.93" y1="663.26" x2="1674.70" y2="668.20" style="stroke:#009E73;stroke-width:10.00"/>
	<line x1="1692.00" y1="672.59" x2="1711.77" y2="677.61" style="stroke:#009E73;stroke-width:10.00"/>
	<line x1="1729.07" y1="681.99" x2="1748.84" y2="686.94" style="stroke:#009E73;stroke-width:10.00"/>
	<line x1="1766.14" y1="691.32" x2="1785.92" y2="696.34" style="stroke:#009E73;stroke-width:10.00"/>
	<line x1="1803.29" y1="700.73" x2="1823.07" y2="705.75" style="stroke:#009E73;stroke-width:10.00"/>
	<line x1="1840.92" y1="705.19" x2="1861.33" y2="704.47" style="stroke:#009E73;stroke-width:10.00"/>
	<line x1="1879.19" y1="703.92" x2="1899.60" y2="703.12" style="stroke:#009E73;stroke-width:10.00"/>
	<line x1="1917.46" y1="702.48" x2="1937.86" y2="701.76" style="stroke:#009E73;stroke-width:10.00"/>
	<line x1="1955.72" y1="701.13" x2="1976.13" y2="700.41" style="stroke:#009E73;stroke-width:10.00"/>
	<line x1="1993.99" y1="699.77" x2="2014.40" y2="699.05" style="stroke:#009E73;stroke-width:10.00"/>
	<line x1="2032.25" y1="698.42" x2="2052.66" y2="697.70" style="stroke:#009E73;stroke-width:10.00"/>
	<line x1="2070.44" y1="696.18" x2="2090.69" y2="694.03" style="stroke:#009E73;stroke-width:10.00"/>
	<line x1="2108.47" y1="692.20" x2="2128.80" y2="690.05" style="stroke:#009E73;stroke-width:10.00"/>
	<line x1="2146.49" y1="688.21" x2="2166.82" y2="686.14" style="stroke:#009E73;stroke-width:10.00"/>
	<line x1="2184.60" y1="684.23" x2="2204.85" y2="682.07" style="stroke:#009E73;stroke-width:10.00"/>
	<line x1="2222.63" y1="680.24" x2="2242.96" y2="678.09" style="stroke:#009E73;stroke-width:10.00"/>
	<line x1="2260.66" y1="676.17" x2="2280.98" y2="674.10" style="stroke:#009E73;stroke-width:10.00"/>
	<line x1="421.73" y1="739.71" x2="655.39" y2="760.28" stroke-linecap="round" style="stroke:#D55E00;stroke-width:10.00"/>
	<line x1="655.39" y1="760.28" x2="889.05" y2="763.79" stroke-linecap="round" style="stroke:#D55E00;stroke-width:10.00"/>
	<line x1="889.05" y1="763.79" x2="1122.63" y2="732.85" stroke-linecap="round" style="stroke:#D55E00;stroke-width:10.00"/>
	<line x1="1122.63" y1="732.85" x2="1356.30" y2="729.51" stroke-linecap="round" style="stroke:#D55E00;stroke-width:10.00"/>
	<line x1="1356.30" y1="729.51" x2="1589.88" y2="733.97" stroke-linecap="round" style="stroke:#D55E00;stroke-width:10.00"/>
	<line x1="1589.88" y1="733.97" x2="1823.54" y2="722.65" stroke-linecap="round" style="stroke:#D55E00;stroke-width:10.00"/>
	<line x1="1823.54" y1="722.65" x2="2057.13" y2="726.80" stroke-linecap="round" style="stroke:#D55E00;stroke-width:10.00"/>
	<line x1="2057.13" y1="726.80" x2="2290.79" y2="725.84" stroke-linecap="round" style="stroke:#D55E00;stroke-width:10.00"/>
	<line x1="421.73" y1="694.03" x2="421.73" y2="694.03" style="stroke:#D55E00;stroke-width:10.00"/>
	<line x1="421.73" y1="694.03" x2="421.73" y2="694.03" style="stroke:#D55E00;stroke-width:10.00"/>
	<line x1="421.73" y1="694.03" x2="421.73" y2="694.03" style="stroke:#D55E00;stroke-width:10.00"/>
	<line x1="421.73" y1="694.03" x2="441.97" y2="696.02" style="stroke:#D55E00;stroke-width:10.00"/>
	<line x1="459.75" y1="697.78" x2="480.08" y2="699.77" style="stroke:#D55E00;stroke-width:10.00"/>
	<line x1="497.86" y1="701.53" x2="518.11" y2="703.60" style="stroke:#D55E00;stroke-width:10.00"/>
	<line x1="535.89" y1="705.35" x2="556.22" y2="707.34" style="stroke:#D55E00;stroke-width:10.00"/>
	<line x1="573.99" y1="709.18" x2="594.32" y2="711.17" style="stroke:#D55E00;stroke-width:10.00"/>
	<line x1="612.10" y1="712.92" x2="632.43" y2="714.92" style="stroke:#D55E00;stroke-width:10.00"/>
	<line x1="650.21" y1="716.75" x2="655.39" y2="717.23" style="stroke:#D55E00;stroke-width:10.00"/>
	<line x1="655.39" y1="717.23" x2="655.39" y2="717.23" style="stroke:#D55E00;stroke-width:10.00"/>
	<line x1="655.39" y1="717.23" x2="655.39" y2="717.23" style="stroke:#D55E00;stroke-width:10.00"/>
	<line x1="655.39" y1="717.23" x2="655.39" y2="717.23" style="stroke:#D55E00;stroke-width:10.00"/>
	<line x1="655.39" y1="717.23" x2="670.54" y2="718.43" style="stroke:#D55E00;stroke-width:10.00"/>
	<line x1="688.39" y1="719.86" x2="708.72" y2="721.53" style="stroke:#D55E00;stroke-width:10.00"/>
	<line x1="726.50" y1="722.89" x2="746.83" y2="724.56" style="stroke:#D55E00;stroke-width:10.00"/>
	<line x1="764.61" y1="726.00" x2="784.94" y2="727.59" style="stroke:#D55E00;stroke-width:10.00"/>
	<line x1="802.79" y1="729.03" x2="823.12" y2="730.62" style="stroke:#D55E00;stroke-width:10.00"/>
	<line x1="840.90" y1="732.06" x2="861.23" y2="733.73" style="stroke:#D55E00;stroke-width:10.00"/>
	<line x1="879.09" y1="735.09" x2="889.05" y2="735.96" style="stroke:#D55E00;stroke-width:10.00"/>
	<line x1="889.05" y1="735.96" x2="889.05" y2="735.96" style="stroke:#D55E00;stroke-width:10.00"/>
	<line x1="889.05" y1="735.96" x2="889.05" y2="735.96" style="stroke:#D55E00;stroke-width:10.00"/>
	<line x1="889.05" y1="735.96" x2="889.05" y2="735.96" style="stroke:#D55E00;stroke-width:10.00"/>
	<line x1="889.05" y1="735.96" x2="899.34" y2="734.37" style="stroke:#D55E00;stroke-width:10.00"/>
	<line x1="916.95" y1="731.74" x2="937.12" y2="728.63" style="stroke:#D55E00;stroke-width:10.00"/>
	<line x1="954.82" y1="726.00" x2="974.99" y2="722.89" style="stroke:#D55E00;stroke-width:10.00"/>
	<line x1="992.61" y1="720.26" x2="1012.78" y2="717.15" style="stroke:#D55E00;stroke-width:10.00"/>
	<line x1="1030.48" y1="714.52" x2="1050.65" y2="711.49" style="stroke:#D55E00;stroke-width:10.00"/>
	<line x1="1068.34" y1="708.78" x2="1088.51" y2="705.75" style="stroke:#D55E00;stroke-width:10.00"/>
	<line x1="1106.13" y1="703.04" x2="1122.63" y2="700.49" style="stroke:#D55E00;stroke-width:10.00"/>
	<line x1="1122.63" y1="700.49" x2="1122.63" y2="700.49" style="stroke:#D55E00;stroke-width:10.00"/>
	<line x1="1122.63" y1="700.49" x2="1122.63" y2="700.49" style="stroke:#D55E00;stroke-width:10.00"/>
	<line x1="1122.63" y1="700.49" x2="1122.63" y2="700.49" style="stroke:#D55E00;stroke-width:10.00"/>
	<line x1="1122.63" y1="700.49" x2="1126.38" y2="700.49" style="stroke:#D55E00;stroke-width:10.00"/>
	<line x1="1144.24" y1="700.49" x2="1164.65" y2="700.41" style="stroke:#D55E00;stroke-width:10.00"/>
	<line x1="1182.51" y1="700.33" x2="1202.91" y2="700.25" style="stroke:#D55E00;stroke-width:10.00"/>
	<line x1="1220.77" y1="700.25" x2="1241.18" y2="700.17" style="stroke:#D55E00;stroke-width:10.00"/>
	<line x1="1259.04" y1="700.09" x2="1279.45" y2="700.09" style="stroke:#D55E00;stroke-width:10.00"/>
	<line x1="1297.30" y1="700.01" x2="1317.71" y2="699.93" style="stroke:#D55E00;stroke-width:10.00"/>
	<line x1="1335.57" y1="699.93" x2="1355.98" y2="699.85" style="stroke:#D55E00;stroke-width:10.00"/>
	<line x1="1373.84" y1="699.77" x2="1394.24" y2="699.61" style="stroke:#D55E00;stroke-width:10.00"/>
	<line x1="1412.10" y1="699.53" x2="1432.51" y2="699.45" style="stroke:#D55E00;stroke-width:10.00"/>
	<line x1="1450.37" y1="699.37" x2="1470.78" y2="699.21" style="stroke:#D55E00;stroke-width:10.00"/>
	<line x1="1488.63" y1="699.13" x2="1509.04" y2="698.97" style="stroke:#D55E00;stroke-width:10.00"/>
	<line x1="1526.90" y1="698.97" x2="1547.31" y2="698.81" style="stroke:#D55E00;stroke-width:10.00"/>
	<line x1="1565.17" y1="698.73" x2="1585.58" y2="698.66" style="stroke:#D55E00;stroke-width:10.00"/>
	<line x1="1603.43" y1="699.05" x2="1623.84" y2="699.77" style="stroke:#D55E00;stroke-width:10.00"/>
	<line x1="1641.70" y1="700.41" x2="1662.11" y2="701.13" style="stroke:#D55E00;stroke-width:10.00"/>
	<line x1="1679.97" y1="701.76" x2="1700.37" y2="702.48" style="stroke:#D55E00;stroke-width:10.00"/>
	<line x1="1718.23" y1="703.12" x2="1738.64" y2="703.84" style="stroke:#D55E00;stroke-width:10.00"/>
	<line x1="1756.50" y1="704.47" x2="1776.91" y2="705.19" style="stroke:#D55E00;stroke-width:10.00"/>
	<line x1="1794.76" y1="705.83" x2="1815.17" y2="706.55" style="stroke:#D55E00;stroke-width:10.00"/>
	<line x1="1833.03" y1="706.63" x2="1853.44" y2="705.99" style="stroke:#D55E00;stroke-width:10.00"/>
	<line x1="1871.30" y1="705.51" x2="1891.71" y2="704.87" style="stroke:#D55E00;stroke-width:10.00"/>
	<line x1="1909.56" y1="704.39" x2="1929.97" y2="703.84" style="stroke:#D55E00;stroke-width:10.00"/>
	<line x1="1947.83" y1="703.28" x2="1968.24" y2="702.64" style="stroke:#D55E00;stroke-width:10.00"/>
	<line x1="1986.10" y1="702.08" x2="2006.50" y2="701.53" style="stroke:#D55E00;stroke-width:10.00"/>
	<line x1="2024.36" y1="700.97" x2="2044.77" y2="700.33" style="stroke:#D55E00;stroke-width:10.00"/>
	<line x1="2062.63" y1="699.93" x2="2083.04" y2="699.69" style="stroke:#D55E00;stroke-width:10.00"/>
	<line x1="2100.89" y1="699.45" x2="2121.30" y2="699.21" style="stroke:#D55E00;stroke-width:10.00"/>
	<line x1="2139.16" y1="699.05" x2="2159.57" y2="698.81" style="stroke:#D55E00;stroke-width:10.00"/>
	<line x1="2177.43" y1="698.66" x2="2197.83" y2="698.42" style="stroke:#D55E00;stroke-width:10.00"/>
	<line x1="2215.69" y1="698.26" x2="2236.10" y2="698.02" style="stroke:#D55E00;stroke-width:10.00"/>
	<line x1="2253.96" y1="697.86" x2="2274.37" y2="697.62" style="stroke:#D55E00;stroke-width:10.00"/>
	<line x1="1356.30" y1="724.01" x2="1589.88" y2="755.97" stroke-linecap="round" style="stroke:#CC79A7;stroke-width:10.00"/>
	<line x1="1589.88" y1="755.97" x2="1823.54" y2="744.09" stroke-linecap="round" style="stroke:#CC79A7;stroke-width:10.00"/>
	<line x1="1823.54" y1="744.09" x2="2057.13" y2="753.42" stroke-linecap="round" style="stroke:#CC79A7;stroke-width:10.00"/>
	<line x1="2057.13" y1="753.42" x2="2290.79" y2="762.03" stroke-linecap="round" style="stroke:#CC79A7;stroke-width:10.00"/>
	<line x1="1356.30" y1="726.64" x2="1356.30" y2="726.64" style="stroke:#CC79A7;stroke-width:10.00"/>
	<line x1="1356.30" y1="726.64" x2="1356.30" y2="726.64" style="stroke:#CC79A7;stroke-width:10.00"/>
	<line x1="1356.30" y1="726.64" x2="1356.30" y2="726.64" style="stroke:#CC79A7;stroke-width:10.00"/>
	<line x1="1356.30" y1="726.64" x2="1376.71" y2="728.15" style="stroke:#CC79A7;stroke-width:10.00"/>
	<line x1="1394.48" y1="729.51" x2="1414.89" y2="730.94" style="stroke:#CC79A7;stroke-width:10.00"/>
	<line x1="1432.67" y1="732.30" x2="1453.08" y2="733.81" style="stroke:#CC79A7;stroke-width:10.00"/>
	<line x1="1470.86" y1="735.09" x2="1491.27" y2="736.60" style="stroke:#CC79A7;stroke-width:10.00"/>
	<line x1="1509.04" y1="737.96" x2="1529.37" y2="739.47" style="stroke:#CC79A7;stroke-width:10.00"/>
	<line x1="1547.23" y1="740.83" x2="1567.56" y2="742.34" style="stroke:#CC79A7;stroke-width:10.00"/>
	<line x1="1585.34" y1="743.62" x2="1589.88" y2="743.94" style="stroke:#CC79A7;stroke-width:10.00"/>
	<line x1="1589.88" y1="743.94" x2="1589.88" y2="743.94" style="stroke:#CC79A7;stroke-width:10.00"/>
	<line x1="1589.88" y1="743.94" x2="1589.88" y2="743.94" style="stroke:#CC79A7;stroke-width:10.00"/>
	<line x1="1589.88" y1="743.94" x2="1589.88" y2="743.94" style="stroke:#CC79A7;stroke-width:10.00"/>
	<line x1="1589.88" y1="743.94" x2="1605.75" y2="743.70" style="stroke:#CC79A7;stroke-width:10.00"/>
	<line x1="1623.60" y1="743.38" x2="1644.01" y2="742.98" style="stroke:#CC79A7;stroke-width:10.00"/>
	<line x1="1661.87" y1="742.66" x2="1682.28" y2="742.34" style="stroke:#CC79A7;stroke-width:10.00"/>
	<line x1="1700.14" y1="742.02" x2="1720.54" y2="741.70" style="stroke:#CC79A7;stroke-width:10.00"/>
	<line x1="1738.40" y1="741.38" x2="1758.81" y2="740.99" style="stroke:#CC79A7;stroke-width:10.00"/>
	<line x1="1776.67" y1="740.67" x2="1797.08" y2="740.35" style="stroke:#CC79A7;stroke-width:10.00"/>
	<line x1="1814.93" y1="740.03" x2="1823.54" y2="739.87" style="stroke:#CC79A7;stroke-width:10.00"/>
	<line x1="1823.54" y1="739.87" x2="1823.54" y2="739.87" style="stroke:#CC79A7;stroke-width:10.00"/>
	<line x1="1823.54" y1="739.87" x2="1823.54" y2="739.87" style="stroke:#CC79A7;stroke-width:10.00"/>
	<line x1="1823.54" y1="739.87" x2="1823.54" y2="739.87" style="stroke:#CC79A7;stroke-width:10.00"/>
	<line x1="1823.54" y1="739.87" x2="1835.34" y2="740.03" style="stroke:#CC79A7;stroke-width:10.00"/>
	<line x1="1853.20" y1="740.27" x2="1873.61" y2="740.51" style="stroke:#CC79A7;stroke-width:10.00"/>
	<line x1="1891.47" y1="740.75" x2="1911.87" y2="741.07" style="stroke:#CC79A7;stroke-width:10.00"/>
	<line x1="1929.73" y1="741.30" x2="1950.14" y2="741.54" style="stroke:#CC79A7;stroke-width:10.00"/>
	<line x1="1968.00" y1="741.78" x2="1988.41" y2="742.10" style="stroke:#CC79A7;stroke-width:10.00"/>
	<line x1="2006.26" y1="742.34" x2="2026.67" y2="742.58" style="stroke:#CC79A7;stroke-width:10.00"/>
	<line x1="2044.53" y1="742.82" x2="2057.13" y2="742.98" style="stroke:#CC79A7;stroke-width:10.00"/>
	<line x1="2057.13" y1="742.98" x2="2057.13" y2="742.98" style="stroke:#CC79A7;stroke-width:10.00"/>
	<line x1="2057.13" y1="742.98" x2="2057.13" y2="742.98" style="stroke:#CC79A7;stroke-width:10.00"/>
	<line x1="2057.13" y1="742.98" x2="2057.13" y2="742.98" style="stroke:#CC79A7;stroke-width:10.00"/>
	<line x1="2057.13" y1="742.98" x2="2064.94" y2="743.06" style="stroke:#CC79A7;stroke-width:10.00"/>
	<line x1="2082.80" y1="743.22" x2="2103.21" y2="743.46" style="stroke:#CC79A7;stroke-width:10.00"/>
	<line x1="2121.06" y1="743.62" x2="2141.47" y2="743.78" style="stroke:#CC79A7;stroke-width:10.00"/>
	<line x1="2159.33" y1="744.02" x2="2179.74" y2="744.17" style="stroke:#CC79A7;stroke-width:10.00"/>
	<line x1="2197.60" y1="744.41" x2="2218.00" y2="744.57" style="stroke:#CC79A7;stroke-width:10.00"/>
	<line x1="2235.86" y1="744.73" x2="2256.27" y2="744.89" style="stroke:#CC79A7;stroke-width:10.00"/>
	<line x1="2274.13" y1="745.13" x2="2290.79" y2="745.29" style="stroke:#CC79A7;stroke-width:10.00"/>
	<line x1="2290.79" y1="745.29" x2="2290.79" y2="745.29" style="stroke:#CC79A7;stroke-width:10.00"/>
	<line x1="2290.79" y1="745.29" x2="2290.79" y2="745.29" style="stroke:#CC79A7;stroke-width:10.00"/>
	<line x1="2290.79" y1="745.29" x2="2290.79" y2="745.29" style="stroke:#CC79A7;stroke-width:10.00"/>
	<line x1="421.73" y1="517.14" x2="421.73" y2="517.14" style="stroke:#A0A0A0;stroke-width:10.00"/>
	<line x1="421.73" y1="517.14" x2="421.73" y2="517.14" style="stroke:#A0A0A0;stroke-width:10.00"/>
	<line x1="421.73" y1="517.14" x2="472.67" y2="518.97" style="stroke:#A0A0A0;stroke-width:10.00"/>
	<line x1="498.18" y1="519.93" x2="549.20" y2="521.76" style="stroke:#A0A0A0;stroke-width:10.00"/>
	<line x1="574.71" y1="522.72" x2="625.65" y2="524.55" style="stroke:#A0A0A0;stroke-width:10.00"/>
	<line x1="651.16" y1="525.51" x2="655.39" y2="525.67" style="stroke:#A0A0A0;stroke-width:10.00"/>
	<line x1="655.39" y1="525.67" x2="655.39" y2="525.67" style="stroke:#A0A0A0;stroke-width:10.00"/>
	<line x1="655.39" y1="525.67" x2="655.39" y2="525.67" style="stroke:#A0A0A0;stroke-width:10.00"/>
	<line x1="655.39" y1="525.67" x2="701.15" y2="535.39" style="stroke:#A0A0A0;stroke-width:10.00"/>
	<line x1="726.10" y1="540.73" x2="776.01" y2="551.26" style="stroke:#A0A0A0;stroke-width:10.00"/>
	<line x1="801.04" y1="556.60" x2="850.94" y2="567.20" style="stroke:#A0A0A0;stroke-width:10.00"/>
	<line x1="875.90" y1="572.54" x2="889.05" y2="575.33" style="stroke:#A0A0A0;stroke-width:10.00"/>
	<line x1="889.05" y1="575.33" x2="889.05" y2="575.33" style="stroke:#A0A0A0;stroke-width:10.00"/>
	<line x1="889.05" y1="575.33" x2="889.05" y2="575.33" style="stroke:#A0A0A0;stroke-width:10.00"/>
	<line x1="889.05" y1="575.33" x2="926.52" y2="572.70" style="stroke:#A0A0A0;stroke-width:10.00"/>
	<line x1="951.95" y1="570.95" x2="1002.81" y2="567.28" style="stroke:#A0A0A0;stroke-width:10.00"/>
	<line x1="1028.24" y1="565.52" x2="1079.19" y2="561.86" style="stroke:#A0A0A0;stroke-width:10.00"/>
	<line x1="1104.62" y1="560.10" x2="1122.63" y2="558.83" style="stroke:#A0A0A0;stroke-width:10.00"/>
	<line x1="1122.63" y1="558.83" x2="1122.63" y2="558.83" style="stroke:#A0A0A0;stroke-width:10.00"/>
	<line x1="1122.63" y1="558.83" x2="1122.63" y2="558.83" style="stroke:#A0A0A0;stroke-width:10.00"/>
	<line x1="1122.63" y1="558.83" x2="1155.64" y2="558.11" style="stroke:#A0A0A0;stroke-width:10.00"/>
	<line x1="1181.15" y1="557.47" x2="1232.17" y2="556.28" style="stroke:#A0A0A0;stroke-width:10.00"/>
	<line x1="1257.68" y1="555.72" x2="1308.62" y2="554.52" style="stroke:#A0A0A0;stroke-width:10.00"/>
	<line x1="1334.13" y1="553.89" x2="1356.30" y2="553.41" style="stroke:#A0A0A0;stroke-width:10.00"/>
	<line x1="1356.30" y1="553.41" x2="1356.30" y2="553.41" style="stroke:#A0A0A0;stroke-width:10.00"/>
	<line x1="1356.30" y1="553.41" x2="1356.30" y2="553.41" style="stroke:#A0A0A0;stroke-width:10.00"/>
	<line x1="1356.30" y1="553.41" x2="1385.16" y2="554.44" style="stroke:#A0A0A0;stroke-width:10.00"/>
	<line x1="1410.67" y1="555.40" x2="1461.69" y2="557.31" style="stroke:#A0A0A0;stroke-width:10.00"/>
	<line x1="1487.20" y1="558.27" x2="1538.14" y2="560.18" style="stroke:#A0A0A0;stroke-width:10.00"/>
	<line x1="1563.65" y1="561.14" x2="1589.88" y2="562.10" style="stroke:#A0A0A0;stroke-width:10.00"/>
	<line x1="1589.88" y1="562.10" x2="1589.88" y2="562.10" style="stroke:#A0A0A0;stroke-width:10.00"/>
	<line x1="1589.88" y1="562.10" x2="1589.88" y2="562.10" style="stroke:#A0A0A0;stroke-width:10.00"/>
	<line x1="1589.88" y1="562.10" x2="1614.67" y2="563.69" style="stroke:#A0A0A0;stroke-width:10.00"/>
	<line x1="1640.11" y1="565.37" x2="1691.05" y2="568.63" style="stroke:#A0A0A0;stroke-width:10.00"/>
	<line x1="1716.48" y1="570.31" x2="1767.42" y2="573.58" style="stroke:#A0A0A0;stroke-width:10.00"/>
	<line x1="1792.85" y1="575.17" x2="1823.54" y2="577.16" style="stroke:#A0A0A0;stroke-width:10.00"/>
	<line x1="1823.54" y1="577.16" x2="1823.54" y2="577.16" style="stroke:#A0A0A0;stroke-width:10.00"/>
	<line x1="1823.54" y1="577.16" x2="1823.54" y2="577.16" style="stroke:#A0A0A0;stroke-width:10.00"/>
	<line x1="1823.54" y1="577.16" x2="1843.79" y2="577.64" style="stroke:#A0A0A0;stroke-width:10.00"/>
	<line x1="1869.30" y1="578.28" x2="1920.33" y2="579.48" style="stroke:#A0A0A0;stroke-width:10.00"/>
	<line x1="1945.84" y1="580.11" x2="1996.86" y2="581.39" style="stroke:#A0A0A0;stroke-width:10.00"/>
	<line x1="2022.37" y1="581.95" x2="2057.13" y2="582.82" style="stroke:#A0A0A0;stroke-width:10.00"/>
	<line x1="2057.13" y1="582.82" x2="2057.13" y2="582.82" style="stroke:#A0A0A0;stroke-width:10.00"/>
	<line x1="2057.13" y1="582.82" x2="2057.13" y2="582.82" style="stroke:#A0A0A0;stroke-width:10.00"/>
	<line x1="2057.13" y1="582.82" x2="2073.39" y2="583.70" style="stroke:#A0A0A0;stroke-width:10.00"/>
	<line x1="2098.82" y1="585.14" x2="2149.76" y2="587.93" style="stroke:#A0A0A0;stroke-width:10.00"/>
	<line x1="2175.27" y1="589.36" x2="2226.22" y2="592.23" style="stroke:#A0A0A0;stroke-width:10.00"/>
	<line x1="2251.65" y1="593.67" x2="2290.79" y2="595.82" style="stroke:#A0A0A0;stroke-width:10.00"/>
	<line x1="2290.79" y1="595.82" x2="2290.79" y2="595.82" style="stroke:#A0A0A0;stroke-width:10.00"/>
	<line x1="2290.79" y1="595.82" x2="2290.79" y2="595.82" style="stroke:#A0A0A0;stroke-width:10.00"/>
	<line x1="365.68" y1="1717.22" x2="330.29" y2="1717.22" style="stroke:#000000;stroke-width:4.00"/>
	<text x="312.51" y="1734.74" style="font-family:'Helvetica';font-size:49.99px;fill:#000000" text-anchor="end">20</text>
	<line x1="365.68" y1="1446.66" x2="330.29" y2="1446.66" style="stroke:#000000;stroke-width:4.00"/>
	<text x="312.51" y="1464.17" style="font-family:'Helvetica';font-size:49.99px;fill:#000000" text-anchor="end">25</text>
	<line x1="365.68" y1="1176.09" x2="330.29" y2="1176.09" style="stroke:#000000;stroke-width:4.00"/>
	<text x="312.51" y="1193.60" style="font-family:'Helvetica';font-size:49.99px;fill:#000000" text-anchor="end">30</text>
	<line x1="365.68" y1="905.53" x2="330.29" y2="905.53" style="stroke:#000000;stroke-width:4.00"/>
	<text x="312.51" y="923.04" style="font-family:'Helvetica';font-size:49.99px;fill:#000000" text-anchor="end">35</text>
	<line x1="365.68" y1="634.96" x2="330.29" y2="634.96" style="stroke:#000000;stroke-width:4.00"/>
	<text x="312.51" y="652.47" style="font-family:'Helvetica';font-size:49.99px;fill:#000000" text-anchor="end">40</text>
	<line x1="365.68" y1="364.31" x2="330.29" y2="364.31" style="stroke:#000000;stroke-width:4.00"/>
	<text x="312.51" y="381.83" style="font-family:'Helvetica';font-size:49.99px;fill:#000000" text-anchor="end">45</text>
	<line x1="365.68" y1="1717.22" x2="365.68" y2="364.31" style="stroke:#000000;stroke-width:4.00"/>
	<text x="136.21" y="1002.54" style="font-family:'Helvetica';font-size:60.03px;fill:#000000" transform="rotate(-90 136.21,1002.54)" text-anchor="middle">Weekly working hours (actual)</text>
	<line x1="421.81" y1="1773.34" x2="421.81" y2="1808.82" style="stroke:#000000;stroke-width:4.00"/>
	<text x="421.81" y="1861.46" style="font-family:'Helvetica';font-size:49.99px;fill:#000000" text-anchor="middle">2007</text>
	<line x1="889.05" y1="1773.34" x2="889.05" y2="1808.82" style="stroke:#000000;stroke-width:4.00"/>
	<text x="889.05" y="1861.46" style="font-family:'Helvetica';font-size:49.99px;fill:#000000" text-anchor="middle">2009</text>
	<line x1="1356.30" y1="1773.34" x2="1356.30" y2="1808.82" style="stroke:#000000;stroke-width:4.00"/>
	<text x="1356.30" y="1861.46" style="font-family:'Helvetica';font-size:49.99px;fill:#000000" text-anchor="middle">2011</text>
	<line x1="1823.54" y1="1773.34" x2="1823.54" y2="1808.82" style="stroke:#000000;stroke-width:4.00"/>
	<text x="1823.54" y="1861.46" style="font-family:'Helvetica';font-size:49.99px;fill:#000000" text-anchor="middle">2013</text>
	<line x1="2290.79" y1="1773.34" x2="2290.79" y2="1808.82" style="stroke:#000000;stroke-width:4.00"/>
	<text x="2290.79" y="1861.46" style="font-family:'Helvetica';font-size:49.99px;fill:#000000" text-anchor="middle">2015</text>
	<line x1="421.81" y1="1773.34" x2="2290.79" y2="1773.34" style="stroke:#000000;stroke-width:4.00"/>
	<text x="1318.03" y="2003.86" style="font-family:'Helvetica';font-size:60.03px;fill:#000000" text-anchor="middle">Year</text>
	<text x="145.41" y="2248.05" style="font-family:'Helvetica';font-size:60.03px;fill:#000000">Arr. cohort: </text>
	<text x="536.36" y="2248.05" style="font-family:'Helvetica';font-size:60.03px;fill:#000000">1964-73</text>
	<text x="845.12" y="2248.05" style="font-family:'Helvetica';font-size:60.03px;fill:#000000">1974-83</text>
	<text x="1153.89" y="2248.05" style="font-family:'Helvetica';font-size:60.03px;fill:#000000">1984-93</text>
	<text x="1462.65" y="2248.05" style="font-family:'Helvetica';font-size:60.03px;fill:#000000">1994-03</text>
	<text x="1771.41" y="2248.05" style="font-family:'Helvetica';font-size:60.03px;fill:#000000">2004-10</text>
	<text x="2080.17" y="2248.05" style="font-family:'Helvetica';font-size:60.03px;fill:#000000">German</text>
	<text x="536.36" y="2396.65" style="font-family:'Helvetica';font-size:60.03px;fill:#000000">incl. nat.</text>
	<text x="845.12" y="2396.65" style="font-family:'Helvetica';font-size:60.03px;fill:#000000">incl. nat.</text>
	<text x="1153.89" y="2396.65" style="font-family:'Helvetica';font-size:60.03px;fill:#000000">incl. nat.</text>
	<text x="1462.65" y="2396.65" style="font-family:'Helvetica';font-size:60.03px;fill:#000000">incl. nat.</text>
	<text x="1771.41" y="2396.65" style="font-family:'Helvetica';font-size:60.03px;fill:#000000">incl. nat.</text>
	<line x1="536.36" y1="2152.73" x2="737.26" y2="2152.73" style="stroke:#E69F00;stroke-width:10.00"/>
	<line x1="845.12" y1="2152.73" x2="1046.02" y2="2152.73" style="stroke:#56B4E9;stroke-width:10.00"/>
	<line x1="1153.89" y1="2152.73" x2="1354.78" y2="2152.73" style="stroke:#009E73;stroke-width:10.00"/>
	<line x1="1462.65" y1="2152.73" x2="1663.54" y2="2152.73" style="stroke:#D55E00;stroke-width:10.00"/>
	<line x1="1771.41" y1="2152.73" x2="1972.30" y2="2152.73" style="stroke:#CC79A7;stroke-width:10.00"/>
	<line x1="2080.17" y1="2152.73" x2="2131.19" y2="2152.73" style="stroke:#A0A0A0;stroke-width:10.00"/>
	<line x1="2156.70" y1="2152.73" x2="2207.72" y2="2152.73" style="stroke:#A0A0A0;stroke-width:10.00"/>
	<line x1="2233.23" y1="2152.73" x2="2278.03" y2="2152.73" style="stroke:#A0A0A0;stroke-width:10.00"/>
	<line x1="536.36" y1="2301.32" x2="556.77" y2="2301.32" style="stroke:#E69F00;stroke-width:10.00"/>
	<line x1="574.63" y1="2301.32" x2="595.04" y2="2301.32" style="stroke:#E69F00;stroke-width:10.00"/>
	<line x1="612.90" y1="2301.32" x2="633.31" y2="2301.32" style="stroke:#E69F00;stroke-width:10.00"/>
	<line x1="651.16" y1="2301.32" x2="671.57" y2="2301.32" style="stroke:#E69F00;stroke-width:10.00"/>
	<line x1="689.43" y1="2301.32" x2="709.84" y2="2301.32" style="stroke:#E69F00;stroke-width:10.00"/>
	<line x1="727.70" y1="2301.32" x2="737.26" y2="2301.32" style="stroke:#E69F00;stroke-width:10.00"/>
	<line x1="845.12" y1="2301.32" x2="865.53" y2="2301.32" style="stroke:#56B4E9;stroke-width:10.00"/>
	<line x1="883.39" y1="2301.32" x2="903.80" y2="2301.32" style="stroke:#56B4E9;stroke-width:10.00"/>
	<line x1="921.66" y1="2301.32" x2="942.07" y2="2301.32" style="stroke:#56B4E9;stroke-width:10.00"/>
	<line x1="959.92" y1="2301.32" x2="980.33" y2="2301.32" style="stroke:#56B4E9;stroke-width:10.00"/>
	<line x1="998.19" y1="2301.32" x2="1018.60" y2="2301.32" style="stroke:#56B4E9;stroke-width:10.00"/>
	<line x1="1036.46" y1="2301.32" x2="1046.02" y2="2301.32" style="stroke:#56B4E9;stroke-width:10.00"/>
	<line x1="1153.89" y1="2301.32" x2="1174.29" y2="2301.32" style="stroke:#009E73;stroke-width:10.00"/>
	<line x1="1192.15" y1="2301.32" x2="1212.56" y2="2301.32" style="stroke:#009E73;stroke-width:10.00"/>
	<line x1="1230.42" y1="2301.32" x2="1250.83" y2="2301.32" style="stroke:#009E73;stroke-width:10.00"/>
	<line x1="1268.68" y1="2301.32" x2="1289.09" y2="2301.32" style="stroke:#009E73;stroke-width:10.00"/>
	<line x1="1306.95" y1="2301.32" x2="1327.36" y2="2301.32" style="stroke:#009E73;stroke-width:10.00"/>
	<line x1="1345.22" y1="2301.32" x2="1354.78" y2="2301.32" style="stroke:#009E73;stroke-width:10.00"/>
	<line x1="1462.65" y1="2301.32" x2="1483.05" y2="2301.32" style="stroke:#D55E00;stroke-width:10.00"/>
	<line x1="1500.91" y1="2301.32" x2="1521.32" y2="2301.32" style="stroke:#D55E00;stroke-width:10.00"/>
	<line x1="1539.18" y1="2301.32" x2="1559.59" y2="2301.32" style="stroke:#D55E00;stroke-width:10.00"/>
	<line x1="1577.44" y1="2301.32" x2="1597.85" y2="2301.32" style="stroke:#D55E00;stroke-width:10.00"/>
	<line x1="1615.71" y1="2301.32" x2="1636.12" y2="2301.32" style="stroke:#D55E00;stroke-width:10.00"/>
	<line x1="1653.98" y1="2301.32" x2="1663.54" y2="2301.32" style="stroke:#D55E00;stroke-width:10.00"/>
	<line x1="1771.41" y1="2301.32" x2="1791.81" y2="2301.32" style="stroke:#CC79A7;stroke-width:10.00"/>
	<line x1="1809.67" y1="2301.32" x2="1830.08" y2="2301.32" style="stroke:#CC79A7;stroke-width:10.00"/>
	<line x1="1847.94" y1="2301.32" x2="1868.35" y2="2301.32" style="stroke:#CC79A7;stroke-width:10.00"/>
	<line x1="1886.20" y1="2301.32" x2="1906.61" y2="2301.32" style="stroke:#CC79A7;stroke-width:10.00"/>
	<line x1="1924.47" y1="2301.32" x2="1944.88" y2="2301.32" style="stroke:#CC79A7;stroke-width:10.00"/>
	<line x1="1962.74" y1="2301.32" x2="1972.30" y2="2301.32" style="stroke:#CC79A7;stroke-width:10.00"/>
	<text x="1356.30" y="239.12" style="font-family:'Helvetica';font-size:60.03px;fill:#000000" text-anchor="middle">Means</text>
	<text x="1356.30" y="154.88" style="font-family:'Helvetica';font-size:90.01px;fill:#000000" text-anchor="middle">Weekly working hours (actual), Men</text>
</svg>
