<?xml version="1.0" encoding="UTF-8" standalone="no"?>
<!-- This is a Stata 15.1 generated SVG file (http://www.stata.com) -->

<svg version="1.1" width="3.54in" height="3.54in" viewBox="0 0 2551 2551" xmlns="http://www.w3.org/2000/svg" xmlns:xlink="http://www.w3.org/1999/xlink">
	<desc>Stata Graph - Graph</desc>
	<rect x="0" y="0" width="2551" height="2551" style="fill:#FFFFFF;stroke:none"/>
	<rect x="0.00" y="0.08" width="2551.00" height="2550.92" style="fill:#FFFFFF"/>
	<rect x="2.55" y="2.63" width="2545.90" height="2545.82" style="fill:none;stroke:#FFFFFF;stroke-width:5.10"/>
	<line x1="365.68" y1="1717.22" x2="2346.91" y2="1717.22" style="stroke:#E8E8E8;stroke-width:4.00"/>
	<line x1="365.68" y1="1424.49" x2="2346.91" y2="1424.49" style="stroke:#E8E8E8;stroke-width:4.00"/>
	<line x1="365.68" y1="1131.69" x2="2346.91" y2="1131.69" style="stroke:#E8E8E8;stroke-width:4.00"/>
	<line x1="365.68" y1="838.88" x2="2346.91" y2="838.88" style="stroke:#E8E8E8;stroke-width:4.00"/>
	<line x1="365.68" y1="546.07" x2="2346.91" y2="546.07" style="stroke:#E8E8E8;stroke-width:4.00"/>
	<line x1="365.68" y1="253.35" x2="2346.91" y2="253.35" style="stroke:#E8E8E8;stroke-width:4.00"/>
	<line x1="421.81" y1="1773.34" x2="421.81" y2="197.22" style="stroke:#E8E8E8;stroke-width:4.00"/>
	<line x1="889.05" y1="1773.34" x2="889.05" y2="197.22" style="stroke:#E8E8E8;stroke-width:4.00"/>
	<line x1="1356.30" y1="1773.34" x2="1356.30" y2="197.22" style="stroke:#E8E8E8;stroke-width:4.00"/>
	<line x1="1823.54" y1="1773.34" x2="1823.54" y2="197.22" style="stroke:#E8E8E8;stroke-width:4.00"/>
	<line x1="2290.79" y1="1773.34" x2="2290.79" y2="197.22" style="stroke:#E8E8E8;stroke-width:4.00"/>
	<line x1="421.73" y1="549.34" x2="655.39" y2="472.65" stroke-linecap="round" style="stroke:#56B4E9;stroke-width:10.00"/>
	<line x1="655.39" y1="472.65" x2="889.05" y2="563.29" stroke-linecap="round" style="stroke:#56B4E9;stroke-width:10.00"/>
	<line x1="889.05" y1="563.29" x2="1122.63" y2="510.36" stroke-linecap="round" style="stroke:#56B4E9;stroke-width:10.00"/>
	<line x1="1122.63" y1="510.36" x2="1356.30" y2="510.60" stroke-linecap="round" style="stroke:#56B4E9;stroke-width:10.00"/>
	<line x1="1356.30" y1="510.60" x2="1589.88" y2="529.09" stroke-linecap="round" style="stroke:#56B4E9;stroke-width:10.00"/>
	<line x1="421.73" y1="497.60" x2="421.73" y2="497.60" style="stroke:#56B4E9;stroke-width:10.00"/>
	<line x1="421.73" y1="497.60" x2="421.73" y2="497.60" style="stroke:#56B4E9;stroke-width:10.00"/>
	<line x1="421.73" y1="497.60" x2="421.73" y2="497.60" style="stroke:#56B4E9;stroke-width:10.00"/>
	<line x1="421.73" y1="497.60" x2="442.05" y2="495.93" style="stroke:#56B4E9;stroke-width:10.00"/>
	<line x1="459.83" y1="494.50" x2="480.16" y2="492.74" style="stroke:#56B4E9;stroke-width:10.00"/>
	<line x1="497.94" y1="491.31" x2="518.27" y2="489.63" style="stroke:#56B4E9;stroke-width:10.00"/>
	<line x1="536.05" y1="488.12" x2="556.37" y2="486.44" style="stroke:#56B4E9;stroke-width:10.00"/>
	<line x1="574.15" y1="485.01" x2="594.48" y2="483.33" style="stroke:#56B4E9;stroke-width:10.00"/>
	<line x1="612.26" y1="481.90" x2="632.67" y2="480.15" style="stroke:#56B4E9;stroke-width:10.00"/>
	<line x1="650.45" y1="478.71" x2="655.39" y2="478.31" style="stroke:#56B4E9;stroke-width:10.00"/>
	<line x1="655.39" y1="478.31" x2="655.39" y2="478.31" style="stroke:#56B4E9;stroke-width:10.00"/>
	<line x1="655.39" y1="478.31" x2="655.39" y2="478.31" style="stroke:#56B4E9;stroke-width:10.00"/>
	<line x1="655.39" y1="478.31" x2="655.39" y2="478.31" style="stroke:#56B4E9;stroke-width:10.00"/>
	<line x1="655.39" y1="478.31" x2="670.06" y2="483.02" style="stroke:#56B4E9;stroke-width:10.00"/>
	<line x1="687.04" y1="488.52" x2="706.49" y2="494.73" style="stroke:#56B4E9;stroke-width:10.00"/>
	<line x1="723.47" y1="500.24" x2="742.92" y2="506.45" style="stroke:#56B4E9;stroke-width:10.00"/>
	<line x1="759.90" y1="511.95" x2="779.35" y2="518.17" style="stroke:#56B4E9;stroke-width:10.00"/>
	<line x1="796.34" y1="523.67" x2="815.79" y2="529.97" style="stroke:#56B4E9;stroke-width:10.00"/>
	<line x1="832.77" y1="535.47" x2="852.14" y2="541.69" style="stroke:#56B4E9;stroke-width:10.00"/>
	<line x1="869.20" y1="547.19" x2="888.57" y2="553.41" style="stroke:#56B4E9;stroke-width:10.00"/>
	<line x1="905.87" y1="549.42" x2="925.72" y2="544.56" style="stroke:#56B4E9;stroke-width:10.00"/>
	<line x1="943.10" y1="540.33" x2="962.87" y2="535.47" style="stroke:#56B4E9;stroke-width:10.00"/>
	<line x1="980.25" y1="531.25" x2="1000.02" y2="526.38" style="stroke:#56B4E9;stroke-width:10.00"/>
	<line x1="1017.40" y1="522.16" x2="1037.25" y2="517.29" style="stroke:#56B4E9;stroke-width:10.00"/>
	<line x1="1054.55" y1="512.99" x2="1074.40" y2="508.13" style="stroke:#56B4E9;stroke-width:10.00"/>
	<line x1="1091.78" y1="503.90" x2="1111.55" y2="499.04" style="stroke:#56B4E9;stroke-width:10.00"/>
	<line x1="1129.01" y1="497.29" x2="1149.26" y2="500.08" style="stroke:#56B4E9;stroke-width:10.00"/>
	<line x1="1166.96" y1="502.55" x2="1187.13" y2="505.34" style="stroke:#56B4E9;stroke-width:10.00"/>
	<line x1="1204.83" y1="507.81" x2="1225.08" y2="510.60" style="stroke:#56B4E9;stroke-width:10.00"/>
	<line x1="1242.77" y1="513.07" x2="1262.94" y2="515.86" style="stroke:#56B4E9;stroke-width:10.00"/>
	<line x1="1280.64" y1="518.33" x2="1300.89" y2="521.12" style="stroke:#56B4E9;stroke-width:10.00"/>
	<line x1="1318.59" y1="523.59" x2="1338.84" y2="526.38" style="stroke:#56B4E9;stroke-width:10.00"/>
	<line x1="1356.54" y1="528.85" x2="1376.87" y2="527.34" style="stroke:#56B4E9;stroke-width:10.00"/>
	<line x1="1394.72" y1="525.98" x2="1415.05" y2="524.47" style="stroke:#56B4E9;stroke-width:10.00"/>
	<line x1="1432.91" y1="523.11" x2="1453.24" y2="521.60" style="stroke:#56B4E9;stroke-width:10.00"/>
	<line x1="1471.10" y1="520.24" x2="1491.42" y2="518.73" style="stroke:#56B4E9;stroke-width:10.00"/>
	<line x1="1509.28" y1="517.45" x2="1529.61" y2="515.94" style="stroke:#56B4E9;stroke-width:10.00"/>
	<line x1="1547.39" y1="514.58" x2="1567.80" y2="513.07" style="stroke:#56B4E9;stroke-width:10.00"/>
	<line x1="1585.58" y1="511.79" x2="1589.88" y2="511.48" style="stroke:#56B4E9;stroke-width:10.00"/>
	<line x1="1589.88" y1="511.48" x2="1589.88" y2="511.48" style="stroke:#56B4E9;stroke-width:10.00"/>
	<line x1="1589.88" y1="511.48" x2="1589.88" y2="511.48" style="stroke:#56B4E9;stroke-width:10.00"/>
	<line x1="1589.88" y1="511.48" x2="1589.88" y2="511.48" style="stroke:#56B4E9;stroke-width:10.00"/>
	<line x1="1589.88" y1="511.48" x2="1605.67" y2="514.58" style="stroke:#56B4E9;stroke-width:10.00"/>
	<line x1="1623.12" y1="518.01" x2="1643.13" y2="522.00" style="stroke:#56B4E9;stroke-width:10.00"/>
	<line x1="1660.67" y1="525.51" x2="1680.68" y2="529.41" style="stroke:#56B4E9;stroke-width:10.00"/>
	<line x1="1698.22" y1="532.92" x2="1718.23" y2="536.83" style="stroke:#56B4E9;stroke-width:10.00"/>
	<line x1="1735.69" y1="540.33" x2="1755.70" y2="544.24" style="stroke:#56B4E9;stroke-width:10.00"/>
	<line x1="1773.24" y1="547.75" x2="1793.25" y2="551.73" style="stroke:#56B4E9;stroke-width:10.00"/>
	<line x1="1810.79" y1="555.16" x2="1823.54" y2="557.71" style="stroke:#56B4E9;stroke-width:10.00"/>
	<line x1="1823.54" y1="557.71" x2="1823.54" y2="557.71" style="stroke:#56B4E9;stroke-width:10.00"/>
	<line x1="1823.54" y1="557.71" x2="1823.54" y2="557.71" style="stroke:#56B4E9;stroke-width:10.00"/>
	<line x1="1823.54" y1="557.71" x2="1823.54" y2="557.71" style="stroke:#56B4E9;stroke-width:10.00"/>
	<line x1="421.73" y1="542.96" x2="655.39" y2="558.99" stroke-linecap="round" style="stroke:#009E73;stroke-width:10.00"/>
	<line x1="655.39" y1="558.99" x2="889.05" y2="642.05" stroke-linecap="round" style="stroke:#009E73;stroke-width:10.00"/>
	<line x1="889.05" y1="642.05" x2="1122.63" y2="573.02" stroke-linecap="round" style="stroke:#009E73;stroke-width:10.00"/>
	<line x1="1122.63" y1="573.02" x2="1356.30" y2="549.58" stroke-linecap="round" style="stroke:#009E73;stroke-width:10.00"/>
	<line x1="1356.30" y1="549.58" x2="1589.88" y2="580.51" stroke-linecap="round" style="stroke:#009E73;stroke-width:10.00"/>
	<line x1="1589.88" y1="580.51" x2="1823.54" y2="647.87" stroke-linecap="round" style="stroke:#009E73;stroke-width:10.00"/>
	<line x1="1823.54" y1="647.87" x2="2057.13" y2="629.86" stroke-linecap="round" style="stroke:#009E73;stroke-width:10.00"/>
	<line x1="2057.13" y1="629.86" x2="2290.79" y2="601.16" stroke-linecap="round" style="stroke:#009E73;stroke-width:10.00"/>
	<line x1="421.73" y1="544.96" x2="421.73" y2="544.96" style="stroke:#009E73;stroke-width:10.00"/>
	<line x1="421.73" y1="544.96" x2="421.73" y2="544.96" style="stroke:#009E73;stroke-width:10.00"/>
	<line x1="421.73" y1="544.96" x2="421.73" y2="544.96" style="stroke:#009E73;stroke-width:10.00"/>
	<line x1="421.73" y1="544.96" x2="442.13" y2="544.72" style="stroke:#009E73;stroke-width:10.00"/>
	<line x1="459.99" y1="544.56" x2="480.40" y2="544.32" style="stroke:#009E73;stroke-width:10.00"/>
	<line x1="498.26" y1="544.08" x2="518.67" y2="543.84" style="stroke:#009E73;stroke-width:10.00"/>
	<line x1="536.52" y1="543.60" x2="556.93" y2="543.36" style="stroke:#009E73;stroke-width:10.00"/>
	<line x1="574.79" y1="543.20" x2="595.20" y2="542.96" style="stroke:#009E73;stroke-width:10.00"/>
	<line x1="613.06" y1="542.73" x2="633.46" y2="542.49" style="stroke:#009E73;stroke-width:10.00"/>
	<line x1="651.32" y1="542.25" x2="655.39" y2="542.17" style="stroke:#009E73;stroke-width:10.00"/>
	<line x1="655.39" y1="542.17" x2="655.39" y2="542.17" style="stroke:#009E73;stroke-width:10.00"/>
	<line x1="655.39" y1="542.17" x2="655.39" y2="542.17" style="stroke:#009E73;stroke-width:10.00"/>
	<line x1="655.39" y1="542.17" x2="655.39" y2="542.17" style="stroke:#009E73;stroke-width:10.00"/>
	<line x1="655.39" y1="542.17" x2="670.38" y2="548.62" style="stroke:#009E73;stroke-width:10.00"/>
	<line x1="686.80" y1="555.72" x2="705.53" y2="563.77" style="stroke:#009E73;stroke-width:10.00"/>
	<line x1="721.96" y1="570.87" x2="740.69" y2="578.92" style="stroke:#009E73;stroke-width:10.00"/>
	<line x1="757.11" y1="586.01" x2="775.85" y2="594.06" style="stroke:#009E73;stroke-width:10.00"/>
	<line x1="792.27" y1="601.16" x2="811.08" y2="609.21" style="stroke:#009E73;stroke-width:10.00"/>
	<line x1="827.43" y1="616.23" x2="846.24" y2="624.36" style="stroke:#009E73;stroke-width:10.00"/>
	<line x1="862.58" y1="631.37" x2="881.32" y2="639.42" style="stroke:#009E73;stroke-width:10.00"/>
	<line x1="898.06" y1="639.98" x2="917.51" y2="633.76" style="stroke:#009E73;stroke-width:10.00"/>
	<line x1="934.57" y1="628.42" x2="954.02" y2="622.28" style="stroke:#009E73;stroke-width:10.00"/>
	<line x1="971.08" y1="616.86" x2="990.54" y2="610.73" style="stroke:#009E73;stroke-width:10.00"/>
	<line x1="1007.60" y1="605.30" x2="1027.05" y2="599.17" style="stroke:#009E73;stroke-width:10.00"/>
	<line x1="1044.03" y1="593.82" x2="1063.56" y2="587.61" style="stroke:#009E73;stroke-width:10.00"/>
	<line x1="1080.54" y1="582.27" x2="1099.99" y2="576.13" style="stroke:#009E73;stroke-width:10.00"/>
	<line x1="1117.05" y1="570.71" x2="1122.63" y2="568.95" style="stroke:#009E73;stroke-width:10.00"/>
	<line x1="1122.63" y1="568.95" x2="1122.63" y2="568.95" style="stroke:#009E73;stroke-width:10.00"/>
	<line x1="1122.63" y1="568.95" x2="1122.63" y2="568.95" style="stroke:#009E73;stroke-width:10.00"/>
	<line x1="1122.63" y1="568.95" x2="1122.63" y2="568.95" style="stroke:#009E73;stroke-width:10.00"/>
	<line x1="1122.63" y1="568.95" x2="1137.14" y2="567.76" style="stroke:#009E73;stroke-width:10.00"/>
	<line x1="1155.00" y1="566.32" x2="1175.33" y2="564.65" style="stroke:#009E73;stroke-width:10.00"/>
	<line x1="1193.11" y1="563.21" x2="1213.44" y2="561.54" style="stroke:#009E73;stroke-width:10.00"/>
	<line x1="1231.29" y1="560.10" x2="1251.62" y2="558.51" style="stroke:#009E73;stroke-width:10.00"/>
	<line x1="1269.40" y1="557.07" x2="1289.73" y2="555.40" style="stroke:#009E73;stroke-width:10.00"/>
	<line x1="1307.51" y1="553.97" x2="1327.84" y2="552.37" style="stroke:#009E73;stroke-width:10.00"/>
	<line x1="1345.69" y1="550.94" x2="1356.30" y2="550.06" style="stroke:#009E73;stroke-width:10.00"/>
	<line x1="1356.30" y1="550.06" x2="1356.30" y2="550.06" style="stroke:#009E73;stroke-width:10.00"/>
	<line x1="1356.30" y1="550.06" x2="1356.30" y2="550.06" style="stroke:#009E73;stroke-width:10.00"/>
	<line x1="1356.30" y1="550.06" x2="1356.30" y2="550.06" style="stroke:#009E73;stroke-width:10.00"/>
	<line x1="1356.30" y1="550.06" x2="1366.02" y2="550.38" style="stroke:#009E73;stroke-width:10.00"/>
	<line x1="1383.88" y1="551.02" x2="1404.29" y2="551.65" style="stroke:#009E73;stroke-width:10.00"/>
	<line x1="1422.15" y1="552.21" x2="1442.56" y2="552.93" style="stroke:#009E73;stroke-width:10.00"/>
	<line x1="1460.41" y1="553.49" x2="1480.82" y2="554.13" style="stroke:#009E73;stroke-width:10.00"/>
	<line x1="1498.68" y1="554.76" x2="1519.09" y2="555.40" style="stroke:#009E73;stroke-width:10.00"/>
	<line x1="1536.95" y1="556.04" x2="1557.35" y2="556.68" style="stroke:#009E73;stroke-width:10.00"/>
	<line x1="1575.21" y1="557.23" x2="1589.88" y2="557.71" style="stroke:#009E73;stroke-width:10.00"/>
	<line x1="1589.88" y1="557.71" x2="1589.88" y2="557.71" style="stroke:#009E73;stroke-width:10.00"/>
	<line x1="1589.88" y1="557.71" x2="1589.88" y2="557.71" style="stroke:#009E73;stroke-width:10.00"/>
	<line x1="1589.88" y1="557.71" x2="1589.88" y2="557.71" style="stroke:#009E73;stroke-width:10.00"/>
	<line x1="1589.88" y1="557.71" x2="1595.46" y2="559.23" style="stroke:#009E73;stroke-width:10.00"/>
	<line x1="1612.68" y1="563.93" x2="1632.37" y2="569.27" style="stroke:#009E73;stroke-width:10.00"/>
	<line x1="1649.59" y1="573.97" x2="1669.28" y2="579.24" style="stroke:#009E73;stroke-width:10.00"/>
	<line x1="1686.50" y1="583.94" x2="1706.27" y2="589.28" style="stroke:#009E73;stroke-width:10.00"/>
	<line x1="1723.49" y1="593.98" x2="1743.18" y2="599.33" style="stroke:#009E73;stroke-width:10.00"/>
	<line x1="1760.40" y1="603.95" x2="1780.10" y2="609.37" style="stroke:#009E73;stroke-width:10.00"/>
	<line x1="1797.32" y1="613.99" x2="1817.01" y2="619.41" style="stroke:#009E73;stroke-width:10.00"/>
	<line x1="1834.62" y1="620.77" x2="1855.03" y2="619.97" style="stroke:#009E73;stroke-width:10.00"/>
	<line x1="1872.89" y1="619.33" x2="1893.30" y2="618.62" style="stroke:#009E73;stroke-width:10.00"/>
	<line x1="1911.16" y1="617.90" x2="1931.57" y2="617.18" style="stroke:#009E73;stroke-width:10.00"/>
	<line x1="1949.42" y1="616.54" x2="1969.83" y2="615.83" style="stroke:#009E73;stroke-width:10.00"/>
	<line x1="1987.69" y1="615.11" x2="2008.10" y2="614.39" style="stroke:#009E73;stroke-width:10.00"/>
	<line x1="2025.96" y1="613.75" x2="2046.36" y2="613.04" style="stroke:#009E73;stroke-width:10.00"/>
	<line x1="2064.14" y1="611.84" x2="2084.47" y2="609.61" style="stroke:#009E73;stroke-width:10.00"/>
	<line x1="2102.17" y1="607.54" x2="2122.50" y2="605.30" style="stroke:#009E73;stroke-width:10.00"/>
	<line x1="2140.28" y1="603.31" x2="2160.53" y2="601.00" style="stroke:#009E73;stroke-width:10.00"/>
	<line x1="2178.30" y1="599.09" x2="2198.55" y2="596.77" style="stroke:#009E73;stroke-width:10.00"/>
	<line x1="2216.33" y1="594.78" x2="2236.58" y2="592.55" style="stroke:#009E73;stroke-width:10.00"/>
	<line x1="2254.36" y1="590.56" x2="2274.61" y2="588.32" style="stroke:#009E73;stroke-width:10.00"/>
	<line x1="421.73" y1="659.51" x2="655.39" y2="681.75" stroke-linecap="round" style="stroke:#D55E00;stroke-width:10.00"/>
	<line x1="655.39" y1="681.75" x2="889.05" y2="685.50" stroke-linecap="round" style="stroke:#D55E00;stroke-width:10.00"/>
	<line x1="889.05" y1="685.50" x2="1122.63" y2="652.10" stroke-linecap="round" style="stroke:#D55E00;stroke-width:10.00"/>
	<line x1="1122.63" y1="652.10" x2="1356.30" y2="648.51" stroke-linecap="round" style="stroke:#D55E00;stroke-width:10.00"/>
	<line x1="1356.30" y1="648.51" x2="1589.88" y2="653.30" stroke-linecap="round" style="stroke:#D55E00;stroke-width:10.00"/>
	<line x1="1589.88" y1="653.30" x2="1823.54" y2="641.02" stroke-linecap="round" style="stroke:#D55E00;stroke-width:10.00"/>
	<line x1="1823.54" y1="641.02" x2="2057.13" y2="645.56" stroke-linecap="round" style="stroke:#D55E00;stroke-width:10.00"/>
	<line x1="2057.13" y1="645.56" x2="2290.79" y2="644.45" stroke-linecap="round" style="stroke:#D55E00;stroke-width:10.00"/>
	<line x1="421.73" y1="599.56" x2="421.73" y2="599.56" style="stroke:#D55E00;stroke-width:10.00"/>
	<line x1="421.73" y1="599.56" x2="421.73" y2="599.56" style="stroke:#D55E00;stroke-width:10.00"/>
	<line x1="421.73" y1="599.56" x2="421.73" y2="599.56" style="stroke:#D55E00;stroke-width:10.00"/>
	<line x1="421.73" y1="599.56" x2="441.97" y2="601.96" style="stroke:#D55E00;stroke-width:10.00"/>
	<line x1="459.67" y1="604.03" x2="479.92" y2="606.42" style="stroke:#D55E00;stroke-width:10.00"/>
	<line x1="497.70" y1="608.49" x2="517.95" y2="610.88" style="stroke:#D55E00;stroke-width:10.00"/>
	<line x1="535.73" y1="612.96" x2="555.98" y2="615.35" style="stroke:#D55E00;stroke-width:10.00"/>
	<line x1="573.67" y1="617.42" x2="594.00" y2="619.81" style="stroke:#D55E00;stroke-width:10.00"/>
	<line x1="611.70" y1="621.89" x2="631.95" y2="624.28" style="stroke:#D55E00;stroke-width:10.00"/>
	<line x1="649.73" y1="626.35" x2="655.39" y2="626.99" style="stroke:#D55E00;stroke-width:10.00"/>
	<line x1="655.39" y1="626.99" x2="655.39" y2="626.99" style="stroke:#D55E00;stroke-width:10.00"/>
	<line x1="655.39" y1="626.99" x2="655.39" y2="626.99" style="stroke:#D55E00;stroke-width:10.00"/>
	<line x1="655.39" y1="626.99" x2="655.39" y2="626.99" style="stroke:#D55E00;stroke-width:10.00"/>
	<line x1="655.39" y1="626.99" x2="669.98" y2="628.42" style="stroke:#D55E00;stroke-width:10.00"/>
	<line x1="687.76" y1="630.18" x2="708.08" y2="632.25" style="stroke:#D55E00;stroke-width:10.00"/>
	<line x1="725.86" y1="634.00" x2="746.11" y2="636.08" style="stroke:#D55E00;stroke-width:10.00"/>
	<line x1="763.89" y1="637.83" x2="784.22" y2="639.90" style="stroke:#D55E00;stroke-width:10.00"/>
	<line x1="802.00" y1="641.66" x2="822.24" y2="643.73" style="stroke:#D55E00;stroke-width:10.00"/>
	<line x1="840.02" y1="645.48" x2="860.35" y2="647.56" style="stroke:#D55E00;stroke-width:10.00"/>
	<line x1="878.13" y1="649.31" x2="889.05" y2="650.43" style="stroke:#D55E00;stroke-width:10.00"/>
	<line x1="889.05" y1="650.43" x2="889.05" y2="650.43" style="stroke:#D55E00;stroke-width:10.00"/>
	<line x1="889.05" y1="650.43" x2="889.05" y2="650.43" style="stroke:#D55E00;stroke-width:10.00"/>
	<line x1="889.05" y1="650.43" x2="889.05" y2="650.43" style="stroke:#D55E00;stroke-width:10.00"/>
	<line x1="889.05" y1="650.43" x2="898.38" y2="648.91" style="stroke:#D55E00;stroke-width:10.00"/>
	<line x1="916.00" y1="646.04" x2="936.17" y2="642.77" style="stroke:#D55E00;stroke-width:10.00"/>
	<line x1="953.78" y1="639.90" x2="973.95" y2="636.55" style="stroke:#D55E00;stroke-width:10.00"/>
	<line x1="991.57" y1="633.68" x2="1011.66" y2="630.42" style="stroke:#D55E00;stroke-width:10.00"/>
	<line x1="1029.28" y1="627.55" x2="1049.45" y2="624.28" style="stroke:#D55E00;stroke-width:10.00"/>
	<line x1="1067.07" y1="621.41" x2="1087.16" y2="618.06" style="stroke:#D55E00;stroke-width:10.00"/>
	<line x1="1104.78" y1="615.19" x2="1122.63" y2="612.32" style="stroke:#D55E00;stroke-width:10.00"/>
	<line x1="1122.63" y1="612.32" x2="1122.63" y2="612.32" style="stroke:#D55E00;stroke-width:10.00"/>
	<line x1="1122.63" y1="612.32" x2="1122.63" y2="612.32" style="stroke:#D55E00;stroke-width:10.00"/>
	<line x1="1122.63" y1="612.32" x2="1122.63" y2="612.32" style="stroke:#D55E00;stroke-width:10.00"/>
	<line x1="1122.63" y1="612.32" x2="1125.03" y2="612.32" style="stroke:#D55E00;stroke-width:10.00"/>
	<line x1="1142.88" y1="612.24" x2="1163.29" y2="612.24" style="stroke:#D55E00;stroke-width:10.00"/>
	<line x1="1181.15" y1="612.24" x2="1201.56" y2="612.16" style="stroke:#D55E00;stroke-width:10.00"/>
	<line x1="1219.42" y1="612.16" x2="1239.82" y2="612.16" style="stroke:#D55E00;stroke-width:10.00"/>
	<line x1="1257.68" y1="612.16" x2="1278.09" y2="612.08" style="stroke:#D55E00;stroke-width:10.00"/>
	<line x1="1295.95" y1="612.08" x2="1316.36" y2="612.08" style="stroke:#D55E00;stroke-width:10.00"/>
	<line x1="1334.21" y1="612.08" x2="1354.62" y2="612.00" style="stroke:#D55E00;stroke-width:10.00"/>
	<line x1="1372.48" y1="612.00" x2="1392.89" y2="612.00" style="stroke:#D55E00;stroke-width:10.00"/>
	<line x1="1410.75" y1="612.00" x2="1431.16" y2="612.00" style="stroke:#D55E00;stroke-width:10.00"/>
	<line x1="1449.01" y1="612.00" x2="1469.42" y2="612.00" style="stroke:#D55E00;stroke-width:10.00"/>
	<line x1="1487.28" y1="612.00" x2="1507.69" y2="612.00" style="stroke:#D55E00;stroke-width:10.00"/>
	<line x1="1525.55" y1="612.00" x2="1545.95" y2="612.00" style="stroke:#D55E00;stroke-width:10.00"/>
	<line x1="1563.81" y1="612.00" x2="1584.22" y2="611.92" style="stroke:#D55E00;stroke-width:10.00"/>
	<line x1="1602.08" y1="612.48" x2="1622.41" y2="613.36" style="stroke:#D55E00;stroke-width:10.00"/>
	<line x1="1640.26" y1="614.15" x2="1660.67" y2="615.03" style="stroke:#D55E00;stroke-width:10.00"/>
	<line x1="1678.53" y1="615.83" x2="1698.86" y2="616.78" style="stroke:#D55E00;stroke-width:10.00"/>
	<line x1="1716.72" y1="617.50" x2="1737.13" y2="618.46" style="stroke:#D55E00;stroke-width:10.00"/>
	<line x1="1754.98" y1="619.26" x2="1775.31" y2="620.13" style="stroke:#D55E00;stroke-width:10.00"/>
	<line x1="1793.17" y1="621.01" x2="1813.58" y2="621.89" style="stroke:#D55E00;stroke-width:10.00"/>
	<line x1="1831.44" y1="622.13" x2="1851.84" y2="621.41" style="stroke:#D55E00;stroke-width:10.00"/>
	<line x1="1869.70" y1="620.77" x2="1890.11" y2="620.05" style="stroke:#D55E00;stroke-width:10.00"/>
	<line x1="1907.97" y1="619.41" x2="1928.38" y2="618.70" style="stroke:#D55E00;stroke-width:10.00"/>
	<line x1="1946.23" y1="618.06" x2="1966.64" y2="617.34" style="stroke:#D55E00;stroke-width:10.00"/>
	<line x1="1984.50" y1="616.70" x2="2004.91" y2="615.91" style="stroke:#D55E00;stroke-width:10.00"/>
	<line x1="2022.77" y1="615.27" x2="2043.10" y2="614.63" style="stroke:#D55E00;stroke-width:10.00"/>
	<line x1="2060.95" y1="614.07" x2="2081.36" y2="613.75" style="stroke:#D55E00;stroke-width:10.00"/>
	<line x1="2099.22" y1="613.52" x2="2119.63" y2="613.28" style="stroke:#D55E00;stroke-width:10.00"/>
	<line x1="2137.49" y1="613.04" x2="2157.89" y2="612.72" style="stroke:#D55E00;stroke-width:10.00"/>
	<line x1="2175.75" y1="612.48" x2="2196.16" y2="612.24" style="stroke:#D55E00;stroke-width:10.00"/>
	<line x1="2214.02" y1="612.00" x2="2234.43" y2="611.76" style="stroke:#D55E00;stroke-width:10.00"/>
	<line x1="2252.28" y1="611.52" x2="2272.69" y2="611.20" style="stroke:#D55E00;stroke-width:10.00"/>
	<line x1="2290.55" y1="610.96" x2="2290.79" y2="610.96" style="stroke:#D55E00;stroke-width:10.00"/>
	<line x1="2290.79" y1="610.96" x2="2290.79" y2="610.96" style="stroke:#D55E00;stroke-width:10.00"/>
	<line x1="2290.79" y1="610.96" x2="2290.79" y2="610.96" style="stroke:#D55E00;stroke-width:10.00"/>
	<line x1="2290.79" y1="610.96" x2="2290.79" y2="610.96" style="stroke:#D55E00;stroke-width:10.00"/>
	<line x1="1356.30" y1="642.45" x2="1589.88" y2="677.05" stroke-linecap="round" style="stroke:#CC79A7;stroke-width:10.00"/>
	<line x1="1589.88" y1="677.05" x2="1823.54" y2="664.22" stroke-linecap="round" style="stroke:#CC79A7;stroke-width:10.00"/>
	<line x1="1823.54" y1="664.22" x2="2057.13" y2="674.34" stroke-linecap="round" style="stroke:#CC79A7;stroke-width:10.00"/>
	<line x1="2057.13" y1="674.34" x2="2290.79" y2="683.67" stroke-linecap="round" style="stroke:#CC79A7;stroke-width:10.00"/>
	<line x1="1356.30" y1="646.20" x2="1356.30" y2="646.20" style="stroke:#CC79A7;stroke-width:10.00"/>
	<line x1="1356.30" y1="646.20" x2="1356.30" y2="646.20" style="stroke:#CC79A7;stroke-width:10.00"/>
	<line x1="1356.30" y1="646.20" x2="1356.30" y2="646.20" style="stroke:#CC79A7;stroke-width:10.00"/>
	<line x1="1356.30" y1="646.20" x2="1376.71" y2="647.56" style="stroke:#CC79A7;stroke-width:10.00"/>
	<line x1="1394.48" y1="648.67" x2="1414.89" y2="650.03" style="stroke:#CC79A7;stroke-width:10.00"/>
	<line x1="1432.67" y1="651.22" x2="1453.08" y2="652.58" style="stroke:#CC79A7;stroke-width:10.00"/>
	<line x1="1470.86" y1="653.69" x2="1491.27" y2="655.13" style="stroke:#CC79A7;stroke-width:10.00"/>
	<line x1="1509.04" y1="656.24" x2="1529.45" y2="657.68" style="stroke:#CC79A7;stroke-width:10.00"/>
	<line x1="1547.23" y1="658.80" x2="1567.64" y2="660.15" style="stroke:#CC79A7;stroke-width:10.00"/>
	<line x1="1585.42" y1="661.35" x2="1589.88" y2="661.67" style="stroke:#CC79A7;stroke-width:10.00"/>
	<line x1="1589.88" y1="661.67" x2="1589.88" y2="661.67" style="stroke:#CC79A7;stroke-width:10.00"/>
	<line x1="1589.88" y1="661.67" x2="1589.88" y2="661.67" style="stroke:#CC79A7;stroke-width:10.00"/>
	<line x1="1589.88" y1="661.67" x2="1589.88" y2="661.67" style="stroke:#CC79A7;stroke-width:10.00"/>
	<line x1="1589.88" y1="661.67" x2="1605.82" y2="661.43" style="stroke:#CC79A7;stroke-width:10.00"/>
	<line x1="1623.68" y1="661.19" x2="1644.09" y2="660.95" style="stroke:#CC79A7;stroke-width:10.00"/>
	<line x1="1661.95" y1="660.71" x2="1682.36" y2="660.47" style="stroke:#CC79A7;stroke-width:10.00"/>
	<line x1="1700.21" y1="660.23" x2="1720.62" y2="659.99" style="stroke:#CC79A7;stroke-width:10.00"/>
	<line x1="1738.48" y1="659.75" x2="1758.89" y2="659.51" style="stroke:#CC79A7;stroke-width:10.00"/>
	<line x1="1776.75" y1="659.27" x2="1797.16" y2="659.03" style="stroke:#CC79A7;stroke-width:10.00"/>
	<line x1="1815.01" y1="658.80" x2="1823.54" y2="658.72" style="stroke:#CC79A7;stroke-width:10.00"/>
	<line x1="1823.54" y1="658.72" x2="1823.54" y2="658.72" style="stroke:#CC79A7;stroke-width:10.00"/>
	<line x1="1823.54" y1="658.72" x2="1823.54" y2="658.72" style="stroke:#CC79A7;stroke-width:10.00"/>
	<line x1="1823.54" y1="658.72" x2="1823.54" y2="658.72" style="stroke:#CC79A7;stroke-width:10.00"/>
	<line x1="1823.54" y1="658.72" x2="1835.42" y2="658.80" style="stroke:#CC79A7;stroke-width:10.00"/>
	<line x1="1853.28" y1="658.96" x2="1873.69" y2="659.19" style="stroke:#CC79A7;stroke-width:10.00"/>
	<line x1="1891.55" y1="659.35" x2="1911.95" y2="659.51" style="stroke:#CC79A7;stroke-width:10.00"/>
	<line x1="1929.81" y1="659.67" x2="1950.22" y2="659.91" style="stroke:#CC79A7;stroke-width:10.00"/>
	<line x1="1968.08" y1="660.07" x2="1988.49" y2="660.31" style="stroke:#CC79A7;stroke-width:10.00"/>
	<line x1="2006.34" y1="660.47" x2="2026.75" y2="660.63" style="stroke:#CC79A7;stroke-width:10.00"/>
	<line x1="2044.61" y1="660.79" x2="2057.13" y2="660.95" style="stroke:#CC79A7;stroke-width:10.00"/>
	<line x1="2057.13" y1="660.95" x2="2057.13" y2="660.95" style="stroke:#CC79A7;stroke-width:10.00"/>
	<line x1="2057.13" y1="660.95" x2="2057.13" y2="660.95" style="stroke:#CC79A7;stroke-width:10.00"/>
	<line x1="2057.13" y1="660.95" x2="2057.13" y2="660.95" style="stroke:#CC79A7;stroke-width:10.00"/>
	<line x1="2057.13" y1="660.95" x2="2065.02" y2="660.95" style="stroke:#CC79A7;stroke-width:10.00"/>
	<line x1="2082.88" y1="661.03" x2="2103.29" y2="661.11" style="stroke:#CC79A7;stroke-width:10.00"/>
	<line x1="2121.14" y1="661.19" x2="2141.55" y2="661.27" style="stroke:#CC79A7;stroke-width:10.00"/>
	<line x1="2159.41" y1="661.35" x2="2179.82" y2="661.43" style="stroke:#CC79A7;stroke-width:10.00"/>
	<line x1="2197.68" y1="661.51" x2="2218.08" y2="661.59" style="stroke:#CC79A7;stroke-width:10.00"/>
	<line x1="2235.94" y1="661.67" x2="2256.35" y2="661.83" style="stroke:#CC79A7;stroke-width:10.00"/>
	<line x1="2274.21" y1="661.90" x2="2290.79" y2="661.98" style="stroke:#CC79A7;stroke-width:10.00"/>
	<line x1="2290.79" y1="661.98" x2="2290.79" y2="661.98" style="stroke:#CC79A7;stroke-width:10.00"/>
	<line x1="2290.79" y1="661.98" x2="2290.79" y2="661.98" style="stroke:#CC79A7;stroke-width:10.00"/>
	<line x1="2290.79" y1="661.98" x2="2290.79" y2="661.98" style="stroke:#CC79A7;stroke-width:10.00"/>
	<line x1="421.73" y1="418.68" x2="421.73" y2="418.68" style="stroke:#A0A0A0;stroke-width:10.00"/>
	<line x1="421.73" y1="418.68" x2="421.73" y2="418.68" style="stroke:#A0A0A0;stroke-width:10.00"/>
	<line x1="421.73" y1="418.68" x2="472.67" y2="420.68" style="stroke:#A0A0A0;stroke-width:10.00"/>
	<line x1="498.18" y1="421.71" x2="549.12" y2="423.71" style="stroke:#A0A0A0;stroke-width:10.00"/>
	<line x1="574.63" y1="424.66" x2="625.65" y2="426.65" style="stroke:#A0A0A0;stroke-width:10.00"/>
	<line x1="651.08" y1="427.69" x2="655.39" y2="427.85" style="stroke:#A0A0A0;stroke-width:10.00"/>
	<line x1="655.39" y1="427.85" x2="655.39" y2="427.85" style="stroke:#A0A0A0;stroke-width:10.00"/>
	<line x1="655.39" y1="427.85" x2="655.39" y2="427.85" style="stroke:#A0A0A0;stroke-width:10.00"/>
	<line x1="655.39" y1="427.85" x2="700.99" y2="438.37" style="stroke:#A0A0A0;stroke-width:10.00"/>
	<line x1="725.78" y1="444.03" x2="775.53" y2="455.43" style="stroke:#A0A0A0;stroke-width:10.00"/>
	<line x1="800.40" y1="461.17" x2="850.15" y2="472.57" style="stroke:#A0A0A0;stroke-width:10.00"/>
	<line x1="875.02" y1="478.31" x2="889.05" y2="481.50" style="stroke:#A0A0A0;stroke-width:10.00"/>
	<line x1="889.05" y1="481.50" x2="889.05" y2="481.50" style="stroke:#A0A0A0;stroke-width:10.00"/>
	<line x1="889.05" y1="481.50" x2="889.05" y2="481.50" style="stroke:#A0A0A0;stroke-width:10.00"/>
	<line x1="889.05" y1="481.50" x2="925.56" y2="478.71" style="stroke:#A0A0A0;stroke-width:10.00"/>
	<line x1="950.99" y1="476.80" x2="1001.86" y2="472.89" style="stroke:#A0A0A0;stroke-width:10.00"/>
	<line x1="1027.29" y1="470.98" x2="1078.15" y2="467.07" style="stroke:#A0A0A0;stroke-width:10.00"/>
	<line x1="1103.58" y1="465.16" x2="1122.63" y2="463.72" style="stroke:#A0A0A0;stroke-width:10.00"/>
	<line x1="1122.63" y1="463.72" x2="1122.63" y2="463.72" style="stroke:#A0A0A0;stroke-width:10.00"/>
	<line x1="1122.63" y1="463.72" x2="1122.63" y2="463.72" style="stroke:#A0A0A0;stroke-width:10.00"/>
	<line x1="1122.63" y1="463.72" x2="1154.52" y2="462.93" style="stroke:#A0A0A0;stroke-width:10.00"/>
	<line x1="1180.03" y1="462.29" x2="1231.06" y2="461.01" style="stroke:#A0A0A0;stroke-width:10.00"/>
	<line x1="1256.57" y1="460.38" x2="1307.59" y2="459.10" style="stroke:#A0A0A0;stroke-width:10.00"/>
	<line x1="1333.10" y1="458.46" x2="1356.30" y2="457.90" style="stroke:#A0A0A0;stroke-width:10.00"/>
	<line x1="1356.30" y1="457.90" x2="1356.30" y2="457.90" style="stroke:#A0A0A0;stroke-width:10.00"/>
	<line x1="1356.30" y1="457.90" x2="1356.30" y2="457.90" style="stroke:#A0A0A0;stroke-width:10.00"/>
	<line x1="1356.30" y1="457.90" x2="1384.04" y2="459.02" style="stroke:#A0A0A0;stroke-width:10.00"/>
	<line x1="1409.55" y1="460.06" x2="1460.57" y2="462.05" style="stroke:#A0A0A0;stroke-width:10.00"/>
	<line x1="1486.00" y1="463.09" x2="1537.03" y2="465.16" style="stroke:#A0A0A0;stroke-width:10.00"/>
	<line x1="1562.54" y1="466.20" x2="1589.88" y2="467.31" style="stroke:#A0A0A0;stroke-width:10.00"/>
	<line x1="1589.88" y1="467.31" x2="1589.88" y2="467.31" style="stroke:#A0A0A0;stroke-width:10.00"/>
	<line x1="1589.88" y1="467.31" x2="1589.88" y2="467.31" style="stroke:#A0A0A0;stroke-width:10.00"/>
	<line x1="1589.88" y1="467.31" x2="1613.48" y2="468.99" style="stroke:#A0A0A0;stroke-width:10.00"/>
	<line x1="1638.91" y1="470.74" x2="1689.77" y2="474.25" style="stroke:#A0A0A0;stroke-width:10.00"/>
	<line x1="1715.20" y1="476.00" x2="1766.14" y2="479.59" style="stroke:#A0A0A0;stroke-width:10.00"/>
	<line x1="1791.58" y1="481.34" x2="1823.54" y2="483.57" style="stroke:#A0A0A0;stroke-width:10.00"/>
	<line x1="1823.54" y1="483.57" x2="1823.54" y2="483.57" style="stroke:#A0A0A0;stroke-width:10.00"/>
	<line x1="1823.54" y1="483.57" x2="1823.54" y2="483.57" style="stroke:#A0A0A0;stroke-width:10.00"/>
	<line x1="1823.54" y1="483.57" x2="1842.52" y2="484.13" style="stroke:#A0A0A0;stroke-width:10.00"/>
	<line x1="1868.03" y1="484.77" x2="1918.97" y2="486.12" style="stroke:#A0A0A0;stroke-width:10.00"/>
	<line x1="1944.48" y1="486.76" x2="1995.50" y2="488.12" style="stroke:#A0A0A0;stroke-width:10.00"/>
	<line x1="2021.01" y1="488.76" x2="2057.13" y2="489.71" style="stroke:#A0A0A0;stroke-width:10.00"/>
	<line x1="2057.13" y1="489.71" x2="2057.13" y2="489.71" style="stroke:#A0A0A0;stroke-width:10.00"/>
	<line x1="2057.13" y1="489.71" x2="2057.13" y2="489.71" style="stroke:#A0A0A0;stroke-width:10.00"/>
	<line x1="2057.13" y1="489.71" x2="2072.03" y2="490.59" style="stroke:#A0A0A0;stroke-width:10.00"/>
	<line x1="2097.47" y1="492.18" x2="2148.41" y2="495.21" style="stroke:#A0A0A0;stroke-width:10.00"/>
	<line x1="2173.92" y1="496.73" x2="2224.86" y2="499.84" style="stroke:#A0A0A0;stroke-width:10.00"/>
	<line x1="2250.29" y1="501.35" x2="2290.79" y2="503.82" style="stroke:#A0A0A0;stroke-width:10.00"/>
	<line x1="2290.79" y1="503.82" x2="2290.79" y2="503.82" style="stroke:#A0A0A0;stroke-width:10.00"/>
	<line x1="2290.79" y1="503.82" x2="2290.79" y2="503.82" style="stroke:#A0A0A0;stroke-width:10.00"/>
	<line x1="365.68" y1="1717.22" x2="330.29" y2="1717.22" style="stroke:#000000;stroke-width:4.00"/>
	<text x="312.51" y="1734.74" style="font-family:'Helvetica';font-size:49.99px;fill:#000000" text-anchor="end">20</text>
	<line x1="365.68" y1="1424.49" x2="330.29" y2="1424.49" style="stroke:#000000;stroke-width:4.00"/>
	<text x="312.51" y="1442.01" style="font-family:'Helvetica';font-size:49.99px;fill:#000000" text-anchor="end">25</text>
	<line x1="365.68" y1="1131.69" x2="330.29" y2="1131.69" style="stroke:#000000;stroke-width:4.00"/>
	<text x="312.51" y="1149.20" style="font-family:'Helvetica';font-size:49.99px;fill:#000000" text-anchor="end">30</text>
	<line x1="365.68" y1="838.88" x2="330.29" y2="838.88" style="stroke:#000000;stroke-width:4.00"/>
	<text x="312.51" y="856.39" style="font-family:'Helvetica';font-size:49.99px;fill:#000000" text-anchor="end">35</text>
	<line x1="365.68" y1="546.07" x2="330.29" y2="546.07" style="stroke:#000000;stroke-width:4.00"/>
	<text x="312.51" y="563.59" style="font-family:'Helvetica';font-size:49.99px;fill:#000000" text-anchor="end">40</text>
	<line x1="365.68" y1="253.35" x2="330.29" y2="253.35" style="stroke:#000000;stroke-width:4.00"/>
	<text x="312.51" y="270.86" style="font-family:'Helvetica';font-size:49.99px;fill:#000000" text-anchor="end">45</text>
	<line x1="365.68" y1="1717.22" x2="365.68" y2="253.35" style="stroke:#000000;stroke-width:4.00"/>
	<text x="136.21" y="947.06" style="font-family:'Helvetica';font-size:60.03px;fill:#000000" transform="rotate(-90 136.21,947.06)" text-anchor="middle">Weekly working hours (actual)</text>
	<line x1="421.81" y1="1773.34" x2="421.81" y2="1808.82" style="stroke:#000000;stroke-width:4.00"/>
	<text x="421.81" y="1861.46" style="font-family:'Helvetica';font-size:49.99px;fill:#000000" text-anchor="middle">2007</text>
	<line x1="889.05" y1="1773.34" x2="889.05" y2="1808.82" style="stroke:#000000;stroke-width:4.00"/>
	<text x="889.05" y="1861.46" style="font-family:'Helvetica';font-size:49.99px;fill:#000000" text-anchor="middle">2009</text>
	<line x1="1356.30" y1="1773.34" x2="1356.30" y2="1808.82" style="stroke:#000000;stroke-width:4.00"/>
	<text x="1356.30" y="1861.46" style="font-family:'Helvetica';font-size:49.99px;fill:#000000" text-anchor="middle">2011</text>
	<line x1="1823.54" y1="1773.34" x2="1823.54" y2="1808.82" style="stroke:#000000;stroke-width:4.00"/>
	<text x="1823.54" y="1861.46" style="font-family:'Helvetica';font-size:49.99px;fill:#000000" text-anchor="middle">2013</text>
	<line x1="2290.79" y1="1773.34" x2="2290.79" y2="1808.82" style="stroke:#000000;stroke-width:4.00"/>
	<text x="2290.79" y="1861.46" style="font-family:'Helvetica';font-size:49.99px;fill:#000000" text-anchor="middle">2015</text>
	<line x1="421.81" y1="1773.34" x2="2290.79" y2="1773.34" style="stroke:#000000;stroke-width:4.00"/>
	<text x="1318.03" y="2003.86" style="font-family:'Helvetica';font-size:60.03px;fill:#000000" text-anchor="middle">Year</text>
	<text x="145.41" y="2248.05" style="font-family:'Helvetica';font-size:60.03px;fill:#000000">Arr. cohort: </text>
	<text x="536.36" y="2248.05" style="font-family:'Helvetica';font-size:60.03px;fill:#000000">1964-73</text>
	<text x="845.12" y="2248.05" style="font-family:'Helvetica';font-size:60.03px;fill:#000000">1974-83</text>
	<text x="1153.89" y="2248.05" style="font-family:'Helvetica';font-size:60.03px;fill:#000000">1984-93</text>
	<text x="1462.65" y="2248.05" style="font-family:'Helvetica';font-size:60.03px;fill:#000000">1994-03</text>
	<text x="1771.41" y="2248.05" style="font-family:'Helvetica';font-size:60.03px;fill:#000000">2004-10</text>
	<text x="2080.17" y="2248.05" style="font-family:'Helvetica';font-size:60.03px;fill:#000000">German</text>
	<text x="536.36" y="2396.65" style="font-family:'Helvetica';font-size:60.03px;fill:#000000">incl. nat.</text>
	<text x="845.12" y="2396.65" style="font-family:'Helvetica';font-size:60.03px;fill:#000000">incl. nat.</text>
	<text x="1153.89" y="2396.65" style="font-family:'Helvetica';font-size:60.03px;fill:#000000">incl. nat.</text>
	<text x="1462.65" y="2396.65" style="font-family:'Helvetica';font-size:60.03px;fill:#000000">incl. nat.</text>
	<text x="1771.41" y="2396.65" style="font-family:'Helvetica';font-size:60.03px;fill:#000000">incl. nat.</text>
	<line x1="536.36" y1="2152.73" x2="737.26" y2="2152.73" style="stroke:#E69F00;stroke-width:10.00"/>
	<line x1="845.12" y1="2152.73" x2="1046.02" y2="2152.73" style="stroke:#56B4E9;stroke-width:10.00"/>
	<line x1="1153.89" y1="2152.73" x2="1354.78" y2="2152.73" style="stroke:#009E73;stroke-width:10.00"/>
	<line x1="1462.65" y1="2152.73" x2="1663.54" y2="2152.73" style="stroke:#D55E00;stroke-width:10.00"/>
	<line x1="1771.41" y1="2152.73" x2="1972.30" y2="2152.73" style="stroke:#CC79A7;stroke-width:10.00"/>
	<line x1="2080.17" y1="2152.73" x2="2131.19" y2="2152.73" style="stroke:#A0A0A0;stroke-width:10.00"/>
	<line x1="2156.70" y1="2152.73" x2="2207.72" y2="2152.73" style="stroke:#A0A0A0;stroke-width:10.00"/>
	<line x1="2233.23" y1="2152.73" x2="2278.03" y2="2152.73" style="stroke:#A0A0A0;stroke-width:10.00"/>
	<line x1="536.36" y1="2301.32" x2="556.77" y2="2301.32" style="stroke:#E69F00;stroke-width:10.00"/>
	<line x1="574.63" y1="2301.32" x2="595.04" y2="2301.32" style="stroke:#E69F00;stroke-width:10.00"/>
	<line x1="612.90" y1="2301.32" x2="633.31" y2="2301.32" style="stroke:#E69F00;stroke-width:10.00"/>
	<line x1="651.16" y1="2301.32" x2="671.57" y2="2301.32" style="stroke:#E69F00;stroke-width:10.00"/>
	<line x1="689.43" y1="2301.32" x2="709.84" y2="2301.32" style="stroke:#E69F00;stroke-width:10.00"/>
	<line x1="727.70" y1="2301.32" x2="737.26" y2="2301.32" style="stroke:#E69F00;stroke-width:10.00"/>
	<line x1="845.12" y1="2301.32" x2="865.53" y2="2301.32" style="stroke:#56B4E9;stroke-width:10.00"/>
	<line x1="883.39" y1="2301.32" x2="903.80" y2="2301.32" style="stroke:#56B4E9;stroke-width:10.00"/>
	<line x1="921.66" y1="2301.32" x2="942.07" y2="2301.32" style="stroke:#56B4E9;stroke-width:10.00"/>
	<line x1="959.92" y1="2301.32" x2="980.33" y2="2301.32" style="stroke:#56B4E9;stroke-width:10.00"/>
	<line x1="998.19" y1="2301.32" x2="1018.60" y2="2301.32" style="stroke:#56B4E9;stroke-width:10.00"/>
	<line x1="1036.46" y1="2301.32" x2="1046.02" y2="2301.32" style="stroke:#56B4E9;stroke-width:10.00"/>
	<line x1="1153.89" y1="2301.32" x2="1174.29" y2="2301.32" style="stroke:#009E73;stroke-width:10.00"/>
	<line x1="1192.15" y1="2301.32" x2="1212.56" y2="2301.32" style="stroke:#009E73;stroke-width:10.00"/>
	<line x1="1230.42" y1="2301.32" x2="1250.83" y2="2301.32" style="stroke:#009E73;stroke-width:10.00"/>
	<line x1="1268.68" y1="2301.32" x2="1289.09" y2="2301.32" style="stroke:#009E73;stroke-width:10.00"/>
	<line x1="1306.95" y1="2301.32" x2="1327.36" y2="2301.32" style="stroke:#009E73;stroke-width:10.00"/>
	<line x1="1345.22" y1="2301.32" x2="1354.78" y2="2301.32" style="stroke:#009E73;stroke-width:10.00"/>
	<line x1="1462.65" y1="2301.32" x2="1483.05" y2="2301.32" style="stroke:#D55E00;stroke-width:10.00"/>
	<line x1="1500.91" y1="2301.32" x2="1521.32" y2="2301.32" style="stroke:#D55E00;stroke-width:10.00"/>
	<line x1="1539.18" y1="2301.32" x2="1559.59" y2="2301.32" style="stroke:#D55E00;stroke-width:10.00"/>
	<line x1="1577.44" y1="2301.32" x2="1597.85" y2="2301.32" style="stroke:#D55E00;stroke-width:10.00"/>
	<line x1="1615.71" y1="2301.32" x2="1636.12" y2="2301.32" style="stroke:#D55E00;stroke-width:10.00"/>
	<line x1="1653.98" y1="2301.32" x2="1663.54" y2="2301.32" style="stroke:#D55E00;stroke-width:10.00"/>
	<line x1="1771.41" y1="2301.32" x2="1791.81" y2="2301.32" style="stroke:#CC79A7;stroke-width:10.00"/>
	<line x1="1809.67" y1="2301.32" x2="1830.08" y2="2301.32" style="stroke:#CC79A7;stroke-width:10.00"/>
	<line x1="1847.94" y1="2301.32" x2="1868.35" y2="2301.32" style="stroke:#CC79A7;stroke-width:10.00"/>
	<line x1="1886.20" y1="2301.32" x2="1906.61" y2="2301.32" style="stroke:#CC79A7;stroke-width:10.00"/>
	<line x1="1924.47" y1="2301.32" x2="1944.88" y2="2301.32" style="stroke:#CC79A7;stroke-width:10.00"/>
	<line x1="1962.74" y1="2301.32" x2="1972.30" y2="2301.32" style="stroke:#CC79A7;stroke-width:10.00"/>
	<text x="1356.30" y="154.88" style="font-family:'Helvetica';font-size:90.01px;fill:#000000" text-anchor="middle">Men</text>
</svg>
