<?xml version="1.0" encoding="UTF-8" standalone="no"?>
<!-- This is a Stata 15.1 generated SVG file (http://www.stata.com) -->

<svg version="1.1" width="3.54in" height="3.54in" viewBox="0 0 2551 2551" xmlns="http://www.w3.org/2000/svg" xmlns:xlink="http://www.w3.org/1999/xlink">
	<desc>Stata Graph - Graph</desc>
	<rect x="0" y="0" width="2551" height="2551" style="fill:#FFFFFF;stroke:none"/>
	<rect x="0.00" y="0.08" width="2551.00" height="2550.92" style="fill:#FFFFFF"/>
	<rect x="2.55" y="2.63" width="2545.90" height="2545.82" style="fill:none;stroke:#FFFFFF;stroke-width:5.10"/>
	<line x1="394.86" y1="1717.22" x2="2346.91" y2="1717.22" style="stroke:#E8E8E8;stroke-width:4.00"/>
	<line x1="394.86" y1="1581.94" x2="2346.91" y2="1581.94" style="stroke:#E8E8E8;stroke-width:4.00"/>
	<line x1="394.86" y1="1446.66" x2="2346.91" y2="1446.66" style="stroke:#E8E8E8;stroke-width:4.00"/>
	<line x1="394.86" y1="1311.37" x2="2346.91" y2="1311.37" style="stroke:#E8E8E8;stroke-width:4.00"/>
	<line x1="394.86" y1="1176.09" x2="2346.91" y2="1176.09" style="stroke:#E8E8E8;stroke-width:4.00"/>
	<line x1="394.86" y1="1040.81" x2="2346.91" y2="1040.81" style="stroke:#E8E8E8;stroke-width:4.00"/>
	<line x1="394.86" y1="905.53" x2="2346.91" y2="905.53" style="stroke:#E8E8E8;stroke-width:4.00"/>
	<line x1="394.86" y1="770.24" x2="2346.91" y2="770.24" style="stroke:#E8E8E8;stroke-width:4.00"/>
	<line x1="394.86" y1="634.96" x2="2346.91" y2="634.96" style="stroke:#E8E8E8;stroke-width:4.00"/>
	<line x1="394.86" y1="499.60" x2="2346.91" y2="499.60" style="stroke:#E8E8E8;stroke-width:4.00"/>
	<line x1="394.86" y1="364.31" x2="2346.91" y2="364.31" style="stroke:#E8E8E8;stroke-width:4.00"/>
	<line x1="450.98" y1="1773.34" x2="450.98" y2="308.19" style="stroke:#E8E8E8;stroke-width:4.00"/>
	<line x1="910.89" y1="1773.34" x2="910.89" y2="308.19" style="stroke:#E8E8E8;stroke-width:4.00"/>
	<line x1="1370.89" y1="1773.34" x2="1370.89" y2="308.19" style="stroke:#E8E8E8;stroke-width:4.00"/>
	<line x1="1830.88" y1="1773.34" x2="1830.88" y2="308.19" style="stroke:#E8E8E8;stroke-width:4.00"/>
	<line x1="2290.79" y1="1773.34" x2="2290.79" y2="308.19" style="stroke:#E8E8E8;stroke-width:4.00"/>
	<line x1="450.90" y1="654.57" x2="680.90" y2="691.72" stroke-linecap="round" style="stroke:#56B4E9;stroke-width:10.00"/>
	<line x1="680.90" y1="691.72" x2="910.89" y2="676.02" stroke-linecap="round" style="stroke:#56B4E9;stroke-width:10.00"/>
	<line x1="910.89" y1="676.02" x2="1140.89" y2="688.29" stroke-linecap="round" style="stroke:#56B4E9;stroke-width:10.00"/>
	<line x1="1140.89" y1="688.29" x2="1370.81" y2="664.93" stroke-linecap="round" style="stroke:#56B4E9;stroke-width:10.00"/>
	<line x1="1370.81" y1="664.93" x2="1600.80" y2="702.56" stroke-linecap="round" style="stroke:#56B4E9;stroke-width:10.00"/>
	<line x1="1600.80" y1="702.56" x2="1830.80" y2="704.08" stroke-linecap="round" style="stroke:#56B4E9;stroke-width:10.00"/>
	<line x1="450.90" y1="620.05" x2="450.90" y2="620.05" style="stroke:#56B4E9;stroke-width:10.00"/>
	<line x1="450.90" y1="620.05" x2="450.90" y2="620.05" style="stroke:#56B4E9;stroke-width:10.00"/>
	<line x1="450.90" y1="620.05" x2="450.90" y2="620.05" style="stroke:#56B4E9;stroke-width:10.00"/>
	<line x1="450.90" y1="620.05" x2="471.31" y2="620.61" style="stroke:#56B4E9;stroke-width:10.00"/>
	<line x1="489.17" y1="621.17" x2="509.58" y2="621.73" style="stroke:#56B4E9;stroke-width:10.00"/>
	<line x1="527.44" y1="622.28" x2="547.84" y2="622.84" style="stroke:#56B4E9;stroke-width:10.00"/>
	<line x1="565.70" y1="623.40" x2="586.11" y2="624.04" style="stroke:#56B4E9;stroke-width:10.00"/>
	<line x1="603.97" y1="624.60" x2="624.38" y2="625.15" style="stroke:#56B4E9;stroke-width:10.00"/>
	<line x1="642.23" y1="625.71" x2="662.64" y2="626.27" style="stroke:#56B4E9;stroke-width:10.00"/>
	<line x1="680.50" y1="626.83" x2="680.90" y2="626.83" style="stroke:#56B4E9;stroke-width:10.00"/>
	<line x1="680.90" y1="626.83" x2="680.90" y2="626.83" style="stroke:#56B4E9;stroke-width:10.00"/>
	<line x1="680.90" y1="626.83" x2="680.90" y2="626.83" style="stroke:#56B4E9;stroke-width:10.00"/>
	<line x1="680.90" y1="626.83" x2="680.90" y2="626.83" style="stroke:#56B4E9;stroke-width:10.00"/>
	<line x1="680.90" y1="626.83" x2="700.91" y2="626.99" style="stroke:#56B4E9;stroke-width:10.00"/>
	<line x1="718.77" y1="627.07" x2="739.18" y2="627.23" style="stroke:#56B4E9;stroke-width:10.00"/>
	<line x1="757.03" y1="627.39" x2="777.44" y2="627.55" style="stroke:#56B4E9;stroke-width:10.00"/>
	<line x1="795.30" y1="627.63" x2="815.71" y2="627.79" style="stroke:#56B4E9;stroke-width:10.00"/>
	<line x1="833.57" y1="627.86" x2="853.97" y2="628.02" style="stroke:#56B4E9;stroke-width:10.00"/>
	<line x1="871.83" y1="628.10" x2="892.24" y2="628.26" style="stroke:#56B4E9;stroke-width:10.00"/>
	<line x1="910.10" y1="628.42" x2="910.89" y2="628.42" style="stroke:#56B4E9;stroke-width:10.00"/>
	<line x1="910.89" y1="628.42" x2="910.89" y2="628.42" style="stroke:#56B4E9;stroke-width:10.00"/>
	<line x1="910.89" y1="628.42" x2="910.89" y2="628.42" style="stroke:#56B4E9;stroke-width:10.00"/>
	<line x1="910.89" y1="628.42" x2="910.89" y2="628.42" style="stroke:#56B4E9;stroke-width:10.00"/>
	<line x1="910.89" y1="628.42" x2="930.51" y2="629.30" style="stroke:#56B4E9;stroke-width:10.00"/>
	<line x1="948.28" y1="630.10" x2="968.69" y2="631.05" style="stroke:#56B4E9;stroke-width:10.00"/>
	<line x1="986.47" y1="631.93" x2="1006.88" y2="632.81" style="stroke:#56B4E9;stroke-width:10.00"/>
	<line x1="1024.66" y1="633.68" x2="1045.07" y2="634.64" style="stroke:#56B4E9;stroke-width:10.00"/>
	<line x1="1062.84" y1="635.44" x2="1083.25" y2="636.39" style="stroke:#56B4E9;stroke-width:10.00"/>
	<line x1="1101.03" y1="637.27" x2="1121.44" y2="638.23" style="stroke:#56B4E9;stroke-width:10.00"/>
	<line x1="1139.22" y1="639.03" x2="1140.89" y2="639.11" style="stroke:#56B4E9;stroke-width:10.00"/>
	<line x1="1140.89" y1="639.11" x2="1140.89" y2="639.11" style="stroke:#56B4E9;stroke-width:10.00"/>
	<line x1="1140.89" y1="639.11" x2="1140.89" y2="639.11" style="stroke:#56B4E9;stroke-width:10.00"/>
	<line x1="1140.89" y1="639.11" x2="1140.89" y2="639.11" style="stroke:#56B4E9;stroke-width:10.00"/>
	<line x1="1140.89" y1="639.11" x2="1159.63" y2="637.83" style="stroke:#56B4E9;stroke-width:10.00"/>
	<line x1="1177.40" y1="636.63" x2="1197.81" y2="635.28" style="stroke:#56B4E9;stroke-width:10.00"/>
	<line x1="1215.59" y1="634.08" x2="1236.00" y2="632.65" style="stroke:#56B4E9;stroke-width:10.00"/>
	<line x1="1253.78" y1="631.45" x2="1274.18" y2="630.10" style="stroke:#56B4E9;stroke-width:10.00"/>
	<line x1="1291.96" y1="628.90" x2="1312.37" y2="627.55" style="stroke:#56B4E9;stroke-width:10.00"/>
	<line x1="1330.15" y1="626.35" x2="1350.56" y2="624.99" style="stroke:#56B4E9;stroke-width:10.00"/>
	<line x1="1368.34" y1="623.80" x2="1370.81" y2="623.64" style="stroke:#56B4E9;stroke-width:10.00"/>
	<line x1="1370.81" y1="623.64" x2="1370.81" y2="623.64" style="stroke:#56B4E9;stroke-width:10.00"/>
	<line x1="1370.81" y1="623.64" x2="1370.81" y2="623.64" style="stroke:#56B4E9;stroke-width:10.00"/>
	<line x1="1370.81" y1="623.64" x2="1370.81" y2="623.64" style="stroke:#56B4E9;stroke-width:10.00"/>
	<line x1="1370.81" y1="623.64" x2="1388.66" y2="625.07" style="stroke:#56B4E9;stroke-width:10.00"/>
	<line x1="1406.44" y1="626.59" x2="1426.77" y2="628.26" style="stroke:#56B4E9;stroke-width:10.00"/>
	<line x1="1444.55" y1="629.70" x2="1464.88" y2="631.37" style="stroke:#56B4E9;stroke-width:10.00"/>
	<line x1="1482.66" y1="632.81" x2="1502.98" y2="634.56" style="stroke:#56B4E9;stroke-width:10.00"/>
	<line x1="1520.84" y1="636.00" x2="1541.17" y2="637.67" style="stroke:#56B4E9;stroke-width:10.00"/>
	<line x1="1558.95" y1="639.11" x2="1579.28" y2="640.78" style="stroke:#56B4E9;stroke-width:10.00"/>
	<line x1="1597.06" y1="642.21" x2="1600.80" y2="642.53" style="stroke:#56B4E9;stroke-width:10.00"/>
	<line x1="1600.80" y1="642.53" x2="1600.80" y2="642.53" style="stroke:#56B4E9;stroke-width:10.00"/>
	<line x1="1600.80" y1="642.53" x2="1600.80" y2="642.53" style="stroke:#56B4E9;stroke-width:10.00"/>
	<line x1="1600.80" y1="642.53" x2="1600.80" y2="642.53" style="stroke:#56B4E9;stroke-width:10.00"/>
	<line x1="1600.80" y1="642.53" x2="1617.46" y2="643.01" style="stroke:#56B4E9;stroke-width:10.00"/>
	<line x1="1635.32" y1="643.57" x2="1655.73" y2="644.21" style="stroke:#56B4E9;stroke-width:10.00"/>
	<line x1="1673.59" y1="644.77" x2="1694.00" y2="645.40" style="stroke:#56B4E9;stroke-width:10.00"/>
	<line x1="1711.85" y1="645.96" x2="1732.26" y2="646.60" style="stroke:#56B4E9;stroke-width:10.00"/>
	<line x1="1750.12" y1="647.16" x2="1770.53" y2="647.79" style="stroke:#56B4E9;stroke-width:10.00"/>
	<line x1="1788.39" y1="648.27" x2="1808.80" y2="648.91" style="stroke:#56B4E9;stroke-width:10.00"/>
	<line x1="1826.65" y1="649.47" x2="1830.80" y2="649.55" style="stroke:#56B4E9;stroke-width:10.00"/>
	<line x1="1830.80" y1="649.55" x2="1830.80" y2="649.55" style="stroke:#56B4E9;stroke-width:10.00"/>
	<line x1="1830.80" y1="649.55" x2="1830.80" y2="649.55" style="stroke:#56B4E9;stroke-width:10.00"/>
	<line x1="1830.80" y1="649.55" x2="1830.80" y2="649.55" style="stroke:#56B4E9;stroke-width:10.00"/>
	<line x1="450.90" y1="663.58" x2="680.90" y2="642.77" stroke-linecap="round" style="stroke:#009E73;stroke-width:10.00"/>
	<line x1="680.90" y1="642.77" x2="910.89" y2="640.94" stroke-linecap="round" style="stroke:#009E73;stroke-width:10.00"/>
	<line x1="910.89" y1="640.94" x2="1140.89" y2="638.15" stroke-linecap="round" style="stroke:#009E73;stroke-width:10.00"/>
	<line x1="1140.89" y1="638.15" x2="1370.81" y2="618.54" stroke-linecap="round" style="stroke:#009E73;stroke-width:10.00"/>
	<line x1="1370.81" y1="618.54" x2="1600.80" y2="630.26" stroke-linecap="round" style="stroke:#009E73;stroke-width:10.00"/>
	<line x1="1600.80" y1="630.26" x2="1830.80" y2="617.10" stroke-linecap="round" style="stroke:#009E73;stroke-width:10.00"/>
	<line x1="1830.80" y1="617.10" x2="2060.79" y2="627.07" stroke-linecap="round" style="stroke:#009E73;stroke-width:10.00"/>
	<line x1="2060.79" y1="627.07" x2="2290.79" y2="632.33" stroke-linecap="round" style="stroke:#009E73;stroke-width:10.00"/>
	<line x1="450.90" y1="591.99" x2="450.90" y2="591.99" style="stroke:#009E73;stroke-width:10.00"/>
	<line x1="450.90" y1="591.99" x2="450.90" y2="591.99" style="stroke:#009E73;stroke-width:10.00"/>
	<line x1="450.90" y1="591.99" x2="450.90" y2="591.99" style="stroke:#009E73;stroke-width:10.00"/>
	<line x1="450.90" y1="591.99" x2="471.23" y2="590.48" style="stroke:#009E73;stroke-width:10.00"/>
	<line x1="489.09" y1="589.12" x2="509.42" y2="587.61" style="stroke:#009E73;stroke-width:10.00"/>
	<line x1="527.28" y1="586.25" x2="547.61" y2="584.74" style="stroke:#009E73;stroke-width:10.00"/>
	<line x1="565.46" y1="583.38" x2="585.79" y2="581.87" style="stroke:#009E73;stroke-width:10.00"/>
	<line x1="603.65" y1="580.51" x2="623.98" y2="579.00" style="stroke:#009E73;stroke-width:10.00"/>
	<line x1="641.76" y1="577.64" x2="662.08" y2="576.13" style="stroke:#009E73;stroke-width:10.00"/>
	<line x1="679.94" y1="574.77" x2="680.90" y2="574.69" style="stroke:#009E73;stroke-width:10.00"/>
	<line x1="680.90" y1="574.69" x2="680.90" y2="574.69" style="stroke:#009E73;stroke-width:10.00"/>
	<line x1="680.90" y1="574.69" x2="680.90" y2="574.69" style="stroke:#009E73;stroke-width:10.00"/>
	<line x1="680.90" y1="574.69" x2="680.90" y2="574.69" style="stroke:#009E73;stroke-width:10.00"/>
	<line x1="680.90" y1="574.69" x2="700.27" y2="575.65" style="stroke:#009E73;stroke-width:10.00"/>
	<line x1="718.13" y1="576.53" x2="738.46" y2="577.56" style="stroke:#009E73;stroke-width:10.00"/>
	<line x1="756.32" y1="578.52" x2="776.64" y2="579.48" style="stroke:#009E73;stroke-width:10.00"/>
	<line x1="794.50" y1="580.43" x2="814.83" y2="581.47" style="stroke:#009E73;stroke-width:10.00"/>
	<line x1="832.69" y1="582.35" x2="853.02" y2="583.38" style="stroke:#009E73;stroke-width:10.00"/>
	<line x1="870.87" y1="584.26" x2="891.20" y2="585.30" style="stroke:#009E73;stroke-width:10.00"/>
	<line x1="909.06" y1="586.17" x2="910.89" y2="586.25" style="stroke:#009E73;stroke-width:10.00"/>
	<line x1="910.89" y1="586.25" x2="910.89" y2="586.25" style="stroke:#009E73;stroke-width:10.00"/>
	<line x1="910.89" y1="586.25" x2="910.89" y2="586.25" style="stroke:#009E73;stroke-width:10.00"/>
	<line x1="910.89" y1="586.25" x2="910.89" y2="586.25" style="stroke:#009E73;stroke-width:10.00"/>
	<line x1="910.89" y1="586.25" x2="929.47" y2="586.89" style="stroke:#009E73;stroke-width:10.00"/>
	<line x1="947.33" y1="587.61" x2="967.74" y2="588.32" style="stroke:#009E73;stroke-width:10.00"/>
	<line x1="985.59" y1="589.04" x2="1006.00" y2="589.76" style="stroke:#009E73;stroke-width:10.00"/>
	<line x1="1023.86" y1="590.40" x2="1044.27" y2="591.19" style="stroke:#009E73;stroke-width:10.00"/>
	<line x1="1062.13" y1="591.83" x2="1082.53" y2="592.55" style="stroke:#009E73;stroke-width:10.00"/>
	<line x1="1100.39" y1="593.27" x2="1120.72" y2="593.98" style="stroke:#009E73;stroke-width:10.00"/>
	<line x1="1138.58" y1="594.62" x2="1140.89" y2="594.70" style="stroke:#009E73;stroke-width:10.00"/>
	<line x1="1140.89" y1="594.70" x2="1140.89" y2="594.70" style="stroke:#009E73;stroke-width:10.00"/>
	<line x1="1140.89" y1="594.70" x2="1140.89" y2="594.70" style="stroke:#009E73;stroke-width:10.00"/>
	<line x1="1140.89" y1="594.70" x2="1140.89" y2="594.70" style="stroke:#009E73;stroke-width:10.00"/>
	<line x1="1140.89" y1="594.70" x2="1158.91" y2="592.95" style="stroke:#009E73;stroke-width:10.00"/>
	<line x1="1176.69" y1="591.19" x2="1197.01" y2="589.28" style="stroke:#009E73;stroke-width:10.00"/>
	<line x1="1214.79" y1="587.53" x2="1235.12" y2="585.53" style="stroke:#009E73;stroke-width:10.00"/>
	<line x1="1252.90" y1="583.78" x2="1273.23" y2="581.79" style="stroke:#009E73;stroke-width:10.00"/>
	<line x1="1291.01" y1="580.03" x2="1311.33" y2="578.12" style="stroke:#009E73;stroke-width:10.00"/>
	<line x1="1329.11" y1="576.37" x2="1349.44" y2="574.37" style="stroke:#009E73;stroke-width:10.00"/>
	<line x1="1367.22" y1="572.62" x2="1370.81" y2="572.30" style="stroke:#009E73;stroke-width:10.00"/>
	<line x1="1370.81" y1="572.30" x2="1370.81" y2="572.30" style="stroke:#009E73;stroke-width:10.00"/>
	<line x1="1370.81" y1="572.30" x2="1370.81" y2="572.30" style="stroke:#009E73;stroke-width:10.00"/>
	<line x1="1370.81" y1="572.30" x2="1370.81" y2="572.30" style="stroke:#009E73;stroke-width:10.00"/>
	<line x1="1370.81" y1="572.30" x2="1387.63" y2="572.14" style="stroke:#009E73;stroke-width:10.00"/>
	<line x1="1405.49" y1="571.98" x2="1425.89" y2="571.82" style="stroke:#009E73;stroke-width:10.00"/>
	<line x1="1443.75" y1="571.66" x2="1464.16" y2="571.50" style="stroke:#009E73;stroke-width:10.00"/>
	<line x1="1482.02" y1="571.34" x2="1502.43" y2="571.18" style="stroke:#009E73;stroke-width:10.00"/>
	<line x1="1520.28" y1="571.03" x2="1540.69" y2="570.87" style="stroke:#009E73;stroke-width:10.00"/>
	<line x1="1558.55" y1="570.71" x2="1578.96" y2="570.55" style="stroke:#009E73;stroke-width:10.00"/>
	<line x1="1596.82" y1="570.39" x2="1600.80" y2="570.31" style="stroke:#009E73;stroke-width:10.00"/>
	<line x1="1600.80" y1="570.31" x2="1600.80" y2="570.31" style="stroke:#009E73;stroke-width:10.00"/>
	<line x1="1600.80" y1="570.31" x2="1600.80" y2="570.31" style="stroke:#009E73;stroke-width:10.00"/>
	<line x1="1600.80" y1="570.31" x2="1600.80" y2="570.31" style="stroke:#009E73;stroke-width:10.00"/>
	<line x1="1600.80" y1="570.31" x2="1617.23" y2="570.31" style="stroke:#009E73;stroke-width:10.00"/>
	<line x1="1635.08" y1="570.23" x2="1655.49" y2="570.15" style="stroke:#009E73;stroke-width:10.00"/>
	<line x1="1673.35" y1="570.15" x2="1693.76" y2="570.07" style="stroke:#009E73;stroke-width:10.00"/>
	<line x1="1711.62" y1="569.99" x2="1732.02" y2="569.91" style="stroke:#009E73;stroke-width:10.00"/>
	<line x1="1749.88" y1="569.91" x2="1770.29" y2="569.83" style="stroke:#009E73;stroke-width:10.00"/>
	<line x1="1788.15" y1="569.75" x2="1808.56" y2="569.75" style="stroke:#009E73;stroke-width:10.00"/>
	<line x1="1826.41" y1="569.67" x2="1830.80" y2="569.67" style="stroke:#009E73;stroke-width:10.00"/>
	<line x1="1830.80" y1="569.67" x2="1830.80" y2="569.67" style="stroke:#009E73;stroke-width:10.00"/>
	<line x1="1830.80" y1="569.67" x2="1830.80" y2="569.67" style="stroke:#009E73;stroke-width:10.00"/>
	<line x1="1830.80" y1="569.67" x2="1830.80" y2="569.67" style="stroke:#009E73;stroke-width:10.00"/>
	<line x1="1830.80" y1="569.67" x2="1846.82" y2="570.55" style="stroke:#009E73;stroke-width:10.00"/>
	<line x1="1864.60" y1="571.58" x2="1885.01" y2="572.78" style="stroke:#009E73;stroke-width:10.00"/>
	<line x1="1902.79" y1="573.82" x2="1923.20" y2="574.93" style="stroke:#009E73;stroke-width:10.00"/>
	<line x1="1940.97" y1="575.97" x2="1961.38" y2="577.16" style="stroke:#009E73;stroke-width:10.00"/>
	<line x1="1979.16" y1="578.20" x2="1999.57" y2="579.32" style="stroke:#009E73;stroke-width:10.00"/>
	<line x1="2017.35" y1="580.35" x2="2037.75" y2="581.55" style="stroke:#009E73;stroke-width:10.00"/>
	<line x1="2055.53" y1="582.50" x2="2060.79" y2="582.82" style="stroke:#009E73;stroke-width:10.00"/>
	<line x1="2060.79" y1="582.82" x2="2060.79" y2="582.82" style="stroke:#009E73;stroke-width:10.00"/>
	<line x1="2060.79" y1="582.82" x2="2060.79" y2="582.82" style="stroke:#009E73;stroke-width:10.00"/>
	<line x1="2060.79" y1="582.82" x2="2060.79" y2="582.82" style="stroke:#009E73;stroke-width:10.00"/>
	<line x1="2060.79" y1="582.82" x2="2075.94" y2="582.11" style="stroke:#009E73;stroke-width:10.00"/>
	<line x1="2093.80" y1="581.39" x2="2114.21" y2="580.51" style="stroke:#009E73;stroke-width:10.00"/>
	<line x1="2132.06" y1="579.79" x2="2152.39" y2="578.92" style="stroke:#009E73;stroke-width:10.00"/>
	<line x1="2170.25" y1="578.12" x2="2190.66" y2="577.24" style="stroke:#009E73;stroke-width:10.00"/>
	<line x1="2208.52" y1="576.53" x2="2228.93" y2="575.65" style="stroke:#009E73;stroke-width:10.00"/>
	<line x1="2246.78" y1="574.85" x2="2267.19" y2="573.97" style="stroke:#009E73;stroke-width:10.00"/>
	<line x1="2284.97" y1="573.18" x2="2290.79" y2="572.94" style="stroke:#009E73;stroke-width:10.00"/>
	<line x1="2290.79" y1="572.94" x2="2290.79" y2="572.94" style="stroke:#009E73;stroke-width:10.00"/>
	<line x1="2290.79" y1="572.94" x2="2290.79" y2="572.94" style="stroke:#009E73;stroke-width:10.00"/>
	<line x1="2290.79" y1="572.94" x2="2290.79" y2="572.94" style="stroke:#009E73;stroke-width:10.00"/>
	<line x1="450.90" y1="713.08" x2="680.90" y2="678.88" stroke-linecap="round" style="stroke:#D55E00;stroke-width:10.00"/>
	<line x1="680.90" y1="678.88" x2="910.89" y2="670.99" stroke-linecap="round" style="stroke:#D55E00;stroke-width:10.00"/>
	<line x1="910.89" y1="670.99" x2="1140.89" y2="665.33" stroke-linecap="round" style="stroke:#D55E00;stroke-width:10.00"/>
	<line x1="1140.89" y1="665.33" x2="1370.81" y2="600.20" stroke-linecap="round" style="stroke:#D55E00;stroke-width:10.00"/>
	<line x1="1370.81" y1="600.20" x2="1600.80" y2="570.79" stroke-linecap="round" style="stroke:#D55E00;stroke-width:10.00"/>
	<line x1="1600.80" y1="570.79" x2="1830.80" y2="589.12" stroke-linecap="round" style="stroke:#D55E00;stroke-width:10.00"/>
	<line x1="1830.80" y1="589.12" x2="2060.79" y2="599.72" stroke-linecap="round" style="stroke:#D55E00;stroke-width:10.00"/>
	<line x1="2060.79" y1="599.72" x2="2290.79" y2="558.27" stroke-linecap="round" style="stroke:#D55E00;stroke-width:10.00"/>
	<line x1="450.90" y1="664.62" x2="450.90" y2="664.62" style="stroke:#D55E00;stroke-width:10.00"/>
	<line x1="450.90" y1="664.62" x2="450.90" y2="664.62" style="stroke:#D55E00;stroke-width:10.00"/>
	<line x1="450.90" y1="664.62" x2="450.90" y2="664.62" style="stroke:#D55E00;stroke-width:10.00"/>
	<line x1="450.90" y1="664.62" x2="471.15" y2="661.98" style="stroke:#D55E00;stroke-width:10.00"/>
	<line x1="488.85" y1="659.59" x2="509.10" y2="656.96" style="stroke:#D55E00;stroke-width:10.00"/>
	<line x1="526.80" y1="654.57" x2="546.97" y2="651.86" style="stroke:#D55E00;stroke-width:10.00"/>
	<line x1="564.67" y1="649.55" x2="584.91" y2="646.84" style="stroke:#D55E00;stroke-width:10.00"/>
	<line x1="602.61" y1="644.53" x2="622.78" y2="641.82" style="stroke:#D55E00;stroke-width:10.00"/>
	<line x1="640.48" y1="639.50" x2="660.73" y2="636.79" style="stroke:#D55E00;stroke-width:10.00"/>
	<line x1="678.43" y1="634.40" x2="680.90" y2="634.08" style="stroke:#D55E00;stroke-width:10.00"/>
	<line x1="680.90" y1="634.08" x2="680.90" y2="634.08" style="stroke:#D55E00;stroke-width:10.00"/>
	<line x1="680.90" y1="634.08" x2="680.90" y2="634.08" style="stroke:#D55E00;stroke-width:10.00"/>
	<line x1="680.90" y1="634.08" x2="680.90" y2="634.08" style="stroke:#D55E00;stroke-width:10.00"/>
	<line x1="680.90" y1="634.08" x2="698.84" y2="634.16" style="stroke:#D55E00;stroke-width:10.00"/>
	<line x1="716.69" y1="634.16" x2="737.10" y2="634.24" style="stroke:#D55E00;stroke-width:10.00"/>
	<line x1="754.96" y1="634.24" x2="775.37" y2="634.32" style="stroke:#D55E00;stroke-width:10.00"/>
	<line x1="793.23" y1="634.32" x2="813.63" y2="634.40" style="stroke:#D55E00;stroke-width:10.00"/>
	<line x1="831.49" y1="634.40" x2="851.90" y2="634.48" style="stroke:#D55E00;stroke-width:10.00"/>
	<line x1="869.76" y1="634.48" x2="890.17" y2="634.56" style="stroke:#D55E00;stroke-width:10.00"/>
	<line x1="908.02" y1="634.56" x2="910.89" y2="634.56" style="stroke:#D55E00;stroke-width:10.00"/>
	<line x1="910.89" y1="634.56" x2="910.89" y2="634.56" style="stroke:#D55E00;stroke-width:10.00"/>
	<line x1="910.89" y1="634.56" x2="910.89" y2="634.56" style="stroke:#D55E00;stroke-width:10.00"/>
	<line x1="910.89" y1="634.56" x2="910.89" y2="634.56" style="stroke:#D55E00;stroke-width:10.00"/>
	<line x1="910.89" y1="634.56" x2="928.35" y2="633.45" style="stroke:#D55E00;stroke-width:10.00"/>
	<line x1="946.21" y1="632.25" x2="966.54" y2="630.89" style="stroke:#D55E00;stroke-width:10.00"/>
	<line x1="984.40" y1="629.78" x2="1004.73" y2="628.42" style="stroke:#D55E00;stroke-width:10.00"/>
	<line x1="1022.58" y1="627.23" x2="1042.91" y2="625.87" style="stroke:#D55E00;stroke-width:10.00"/>
	<line x1="1060.77" y1="624.76" x2="1081.10" y2="623.40" style="stroke:#D55E00;stroke-width:10.00"/>
	<line x1="1098.96" y1="622.20" x2="1119.29" y2="620.85" style="stroke:#D55E00;stroke-width:10.00"/>
	<line x1="1137.14" y1="619.73" x2="1140.89" y2="619.49" style="stroke:#D55E00;stroke-width:10.00"/>
	<line x1="1140.89" y1="619.49" x2="1140.89" y2="619.49" style="stroke:#D55E00;stroke-width:10.00"/>
	<line x1="1140.89" y1="619.49" x2="1140.89" y2="619.49" style="stroke:#D55E00;stroke-width:10.00"/>
	<line x1="1140.89" y1="619.49" x2="1140.89" y2="619.49" style="stroke:#D55E00;stroke-width:10.00"/>
	<line x1="1140.89" y1="619.49" x2="1157.07" y2="615.51" style="stroke:#D55E00;stroke-width:10.00"/>
	<line x1="1174.37" y1="611.28" x2="1194.22" y2="606.50" style="stroke:#D55E00;stroke-width:10.00"/>
	<line x1="1211.60" y1="602.20" x2="1231.37" y2="597.41" style="stroke:#D55E00;stroke-width:10.00"/>
	<line x1="1248.75" y1="593.19" x2="1268.52" y2="588.32" style="stroke:#D55E00;stroke-width:10.00"/>
	<line x1="1285.90" y1="584.10" x2="1305.75" y2="579.24" style="stroke:#D55E00;stroke-width:10.00"/>
	<line x1="1323.05" y1="575.01" x2="1342.90" y2="570.23" style="stroke:#D55E00;stroke-width:10.00"/>
	<line x1="1360.20" y1="566.00" x2="1370.81" y2="563.37" style="stroke:#D55E00;stroke-width:10.00"/>
	<line x1="1370.81" y1="563.37" x2="1370.81" y2="563.37" style="stroke:#D55E00;stroke-width:10.00"/>
	<line x1="1370.81" y1="563.37" x2="1370.81" y2="563.37" style="stroke:#D55E00;stroke-width:10.00"/>
	<line x1="1370.81" y1="563.37" x2="1370.81" y2="563.37" style="stroke:#D55E00;stroke-width:10.00"/>
	<line x1="1370.81" y1="563.37" x2="1380.29" y2="562.58" style="stroke:#D55E00;stroke-width:10.00"/>
	<line x1="1398.07" y1="561.14" x2="1418.40" y2="559.39" style="stroke:#D55E00;stroke-width:10.00"/>
	<line x1="1436.18" y1="557.87" x2="1456.51" y2="556.12" style="stroke:#D55E00;stroke-width:10.00"/>
	<line x1="1474.28" y1="554.68" x2="1494.61" y2="552.93" style="stroke:#D55E00;stroke-width:10.00"/>
	<line x1="1512.39" y1="551.41" x2="1532.72" y2="549.66" style="stroke:#D55E00;stroke-width:10.00"/>
	<line x1="1550.50" y1="548.23" x2="1570.83" y2="546.47" style="stroke:#D55E00;stroke-width:10.00"/>
	<line x1="1588.61" y1="544.96" x2="1600.80" y2="543.92" style="stroke:#D55E00;stroke-width:10.00"/>
	<line x1="1600.80" y1="543.92" x2="1600.80" y2="543.92" style="stroke:#D55E00;stroke-width:10.00"/>
	<line x1="1600.80" y1="543.92" x2="1600.80" y2="543.92" style="stroke:#D55E00;stroke-width:10.00"/>
	<line x1="1600.80" y1="543.92" x2="1600.80" y2="543.92" style="stroke:#D55E00;stroke-width:10.00"/>
	<line x1="1600.80" y1="543.92" x2="1608.93" y2="544.64" style="stroke:#D55E00;stroke-width:10.00"/>
	<line x1="1626.71" y1="546.15" x2="1647.04" y2="547.91" style="stroke:#D55E00;stroke-width:10.00"/>
	<line x1="1664.82" y1="549.42" x2="1685.15" y2="551.18" style="stroke:#D55E00;stroke-width:10.00"/>
	<line x1="1702.93" y1="552.77" x2="1723.25" y2="554.52" style="stroke:#D55E00;stroke-width:10.00"/>
	<line x1="1741.03" y1="556.12" x2="1761.36" y2="557.87" style="stroke:#D55E00;stroke-width:10.00"/>
	<line x1="1779.14" y1="559.39" x2="1799.47" y2="561.22" style="stroke:#D55E00;stroke-width:10.00"/>
	<line x1="1817.25" y1="562.73" x2="1830.80" y2="563.93" style="stroke:#D55E00;stroke-width:10.00"/>
	<line x1="1830.80" y1="563.93" x2="1830.80" y2="563.93" style="stroke:#D55E00;stroke-width:10.00"/>
	<line x1="1830.80" y1="563.93" x2="1830.80" y2="563.93" style="stroke:#D55E00;stroke-width:10.00"/>
	<line x1="1830.80" y1="563.93" x2="1830.80" y2="563.93" style="stroke:#D55E00;stroke-width:10.00"/>
	<line x1="1830.80" y1="563.93" x2="1837.65" y2="564.33" style="stroke:#D55E00;stroke-width:10.00"/>
	<line x1="1855.43" y1="565.37" x2="1875.84" y2="566.56" style="stroke:#D55E00;stroke-width:10.00"/>
	<line x1="1893.62" y1="567.68" x2="1914.03" y2="568.87" style="stroke:#D55E00;stroke-width:10.00"/>
	<line x1="1931.81" y1="569.99" x2="1952.21" y2="571.18" style="stroke:#D55E00;stroke-width:10.00"/>
	<line x1="1969.99" y1="572.30" x2="1990.40" y2="573.50" style="stroke:#D55E00;stroke-width:10.00"/>
	<line x1="2008.18" y1="574.61" x2="2028.59" y2="575.81" style="stroke:#D55E00;stroke-width:10.00"/>
	<line x1="2046.36" y1="576.92" x2="2060.79" y2="577.80" style="stroke:#D55E00;stroke-width:10.00"/>
	<line x1="2060.79" y1="577.80" x2="2060.79" y2="577.80" style="stroke:#D55E00;stroke-width:10.00"/>
	<line x1="2060.79" y1="577.80" x2="2060.79" y2="577.80" style="stroke:#D55E00;stroke-width:10.00"/>
	<line x1="2060.79" y1="577.80" x2="2060.79" y2="577.80" style="stroke:#D55E00;stroke-width:10.00"/>
	<line x1="2060.79" y1="577.80" x2="2066.69" y2="577.00" style="stroke:#D55E00;stroke-width:10.00"/>
	<line x1="2084.39" y1="574.69" x2="2104.64" y2="571.98" style="stroke:#D55E00;stroke-width:10.00"/>
	<line x1="2122.42" y1="569.67" x2="2142.67" y2="567.04" style="stroke:#D55E00;stroke-width:10.00"/>
	<line x1="2160.37" y1="564.73" x2="2180.62" y2="562.02" style="stroke:#D55E00;stroke-width:10.00"/>
	<line x1="2198.31" y1="559.71" x2="2218.56" y2="557.07" style="stroke:#D55E00;stroke-width:10.00"/>
	<line x1="2236.26" y1="554.76" x2="2256.51" y2="552.05" style="stroke:#D55E00;stroke-width:10.00"/>
	<line x1="2274.21" y1="549.74" x2="2290.79" y2="547.59" style="stroke:#D55E00;stroke-width:10.00"/>
	<line x1="2290.79" y1="547.59" x2="2290.79" y2="547.59" style="stroke:#D55E00;stroke-width:10.00"/>
	<line x1="2290.79" y1="547.59" x2="2290.79" y2="547.59" style="stroke:#D55E00;stroke-width:10.00"/>
	<line x1="2290.79" y1="547.59" x2="2290.79" y2="547.59" style="stroke:#D55E00;stroke-width:10.00"/>
	<line x1="1370.81" y1="617.02" x2="1600.80" y2="594.22" stroke-linecap="round" style="stroke:#CC79A7;stroke-width:10.00"/>
	<line x1="1600.80" y1="594.22" x2="1830.80" y2="620.85" stroke-linecap="round" style="stroke:#CC79A7;stroke-width:10.00"/>
	<line x1="1830.80" y1="620.85" x2="2060.79" y2="604.51" stroke-linecap="round" style="stroke:#CC79A7;stroke-width:10.00"/>
	<line x1="2060.79" y1="604.51" x2="2290.79" y2="585.06" stroke-linecap="round" style="stroke:#CC79A7;stroke-width:10.00"/>
	<line x1="1370.81" y1="614.31" x2="1370.81" y2="614.31" style="stroke:#CC79A7;stroke-width:10.00"/>
	<line x1="1370.81" y1="614.31" x2="1370.81" y2="614.31" style="stroke:#CC79A7;stroke-width:10.00"/>
	<line x1="1370.81" y1="614.31" x2="1370.81" y2="614.31" style="stroke:#CC79A7;stroke-width:10.00"/>
	<line x1="1370.81" y1="614.31" x2="1391.14" y2="612.96" style="stroke:#CC79A7;stroke-width:10.00"/>
	<line x1="1408.99" y1="611.84" x2="1429.32" y2="610.49" style="stroke:#CC79A7;stroke-width:10.00"/>
	<line x1="1447.18" y1="609.29" x2="1467.51" y2="607.94" style="stroke:#CC79A7;stroke-width:10.00"/>
	<line x1="1485.37" y1="606.82" x2="1505.70" y2="605.46" style="stroke:#CC79A7;stroke-width:10.00"/>
	<line x1="1523.55" y1="604.27" x2="1543.88" y2="602.91" style="stroke:#CC79A7;stroke-width:10.00"/>
	<line x1="1561.74" y1="601.80" x2="1582.07" y2="600.44" style="stroke:#CC79A7;stroke-width:10.00"/>
	<line x1="1599.93" y1="599.33" x2="1600.80" y2="599.25" style="stroke:#CC79A7;stroke-width:10.00"/>
	<line x1="1600.80" y1="599.25" x2="1600.80" y2="599.25" style="stroke:#CC79A7;stroke-width:10.00"/>
	<line x1="1600.80" y1="599.25" x2="1600.80" y2="599.25" style="stroke:#CC79A7;stroke-width:10.00"/>
	<line x1="1600.80" y1="599.25" x2="1600.80" y2="599.25" style="stroke:#CC79A7;stroke-width:10.00"/>
	<line x1="1600.80" y1="599.25" x2="1620.17" y2="601.32" style="stroke:#CC79A7;stroke-width:10.00"/>
	<line x1="1637.95" y1="603.23" x2="1658.20" y2="605.46" style="stroke:#CC79A7;stroke-width:10.00"/>
	<line x1="1675.98" y1="607.38" x2="1696.31" y2="609.53" style="stroke:#CC79A7;stroke-width:10.00"/>
	<line x1="1714.01" y1="611.44" x2="1734.34" y2="613.60" style="stroke:#CC79A7;stroke-width:10.00"/>
	<line x1="1752.03" y1="615.51" x2="1772.36" y2="617.66" style="stroke:#CC79A7;stroke-width:10.00"/>
	<line x1="1790.06" y1="619.65" x2="1810.39" y2="621.81" style="stroke:#CC79A7;stroke-width:10.00"/>
	<line x1="1828.09" y1="623.72" x2="1830.80" y2="623.96" style="stroke:#CC79A7;stroke-width:10.00"/>
	<line x1="1830.80" y1="623.96" x2="1830.80" y2="623.96" style="stroke:#CC79A7;stroke-width:10.00"/>
	<line x1="1830.80" y1="623.96" x2="1830.80" y2="623.96" style="stroke:#CC79A7;stroke-width:10.00"/>
	<line x1="1830.80" y1="623.96" x2="1830.80" y2="623.96" style="stroke:#CC79A7;stroke-width:10.00"/>
	<line x1="1830.80" y1="623.96" x2="1848.42" y2="622.28" style="stroke:#CC79A7;stroke-width:10.00"/>
	<line x1="1866.19" y1="620.53" x2="1886.52" y2="618.54" style="stroke:#CC79A7;stroke-width:10.00"/>
	<line x1="1904.30" y1="616.86" x2="1924.63" y2="614.87" style="stroke:#CC79A7;stroke-width:10.00"/>
	<line x1="1942.41" y1="613.12" x2="1962.74" y2="611.20" style="stroke:#CC79A7;stroke-width:10.00"/>
	<line x1="1980.51" y1="609.45" x2="2000.84" y2="607.46" style="stroke:#CC79A7;stroke-width:10.00"/>
	<line x1="2018.62" y1="605.78" x2="2038.95" y2="603.79" style="stroke:#CC79A7;stroke-width:10.00"/>
	<line x1="2056.73" y1="602.04" x2="2060.79" y2="601.64" style="stroke:#CC79A7;stroke-width:10.00"/>
	<line x1="2060.79" y1="601.64" x2="2060.79" y2="601.64" style="stroke:#CC79A7;stroke-width:10.00"/>
	<line x1="2060.79" y1="601.64" x2="2060.79" y2="601.64" style="stroke:#CC79A7;stroke-width:10.00"/>
	<line x1="2060.79" y1="601.64" x2="2060.79" y2="601.64" style="stroke:#CC79A7;stroke-width:10.00"/>
	<line x1="2060.79" y1="601.64" x2="2077.06" y2="600.28" style="stroke:#CC79A7;stroke-width:10.00"/>
	<line x1="2094.84" y1="598.77" x2="2115.16" y2="597.01" style="stroke:#CC79A7;stroke-width:10.00"/>
	<line x1="2132.94" y1="595.58" x2="2153.27" y2="593.82" style="stroke:#CC79A7;stroke-width:10.00"/>
	<line x1="2171.05" y1="592.31" x2="2191.38" y2="590.64" style="stroke:#CC79A7;stroke-width:10.00"/>
	<line x1="2209.24" y1="589.12" x2="2229.56" y2="587.37" style="stroke:#CC79A7;stroke-width:10.00"/>
	<line x1="2247.34" y1="585.85" x2="2267.67" y2="584.18" style="stroke:#CC79A7;stroke-width:10.00"/>
	<line x1="2285.45" y1="582.66" x2="2290.79" y2="582.19" style="stroke:#CC79A7;stroke-width:10.00"/>
	<line x1="2290.79" y1="582.19" x2="2290.79" y2="582.19" style="stroke:#CC79A7;stroke-width:10.00"/>
	<line x1="2290.79" y1="582.19" x2="2290.79" y2="582.19" style="stroke:#CC79A7;stroke-width:10.00"/>
	<line x1="2290.79" y1="582.19" x2="2290.79" y2="582.19" style="stroke:#CC79A7;stroke-width:10.00"/>
	<line x1="450.90" y1="505.50" x2="450.90" y2="505.50" style="stroke:#A0A0A0;stroke-width:10.00"/>
	<line x1="450.90" y1="505.50" x2="450.90" y2="505.50" style="stroke:#A0A0A0;stroke-width:10.00"/>
	<line x1="450.90" y1="505.50" x2="501.92" y2="504.46" style="stroke:#A0A0A0;stroke-width:10.00"/>
	<line x1="527.44" y1="503.90" x2="578.46" y2="502.79" style="stroke:#A0A0A0;stroke-width:10.00"/>
	<line x1="603.97" y1="502.31" x2="654.99" y2="501.27" style="stroke:#A0A0A0;stroke-width:10.00"/>
	<line x1="680.50" y1="500.71" x2="680.90" y2="500.71" style="stroke:#A0A0A0;stroke-width:10.00"/>
	<line x1="680.90" y1="500.71" x2="680.90" y2="500.71" style="stroke:#A0A0A0;stroke-width:10.00"/>
	<line x1="680.90" y1="500.71" x2="680.90" y2="500.71" style="stroke:#A0A0A0;stroke-width:10.00"/>
	<line x1="680.90" y1="500.71" x2="731.44" y2="503.26" style="stroke:#A0A0A0;stroke-width:10.00"/>
	<line x1="756.95" y1="504.62" x2="807.90" y2="507.17" style="stroke:#A0A0A0;stroke-width:10.00"/>
	<line x1="833.33" y1="508.45" x2="884.27" y2="511.08" style="stroke:#A0A0A0;stroke-width:10.00"/>
	<line x1="909.78" y1="512.43" x2="910.89" y2="512.43" style="stroke:#A0A0A0;stroke-width:10.00"/>
	<line x1="910.89" y1="512.43" x2="910.89" y2="512.43" style="stroke:#A0A0A0;stroke-width:10.00"/>
	<line x1="910.89" y1="512.43" x2="910.89" y2="512.43" style="stroke:#A0A0A0;stroke-width:10.00"/>
	<line x1="910.89" y1="512.43" x2="960.80" y2="512.35" style="stroke:#A0A0A0;stroke-width:10.00"/>
	<line x1="986.31" y1="512.27" x2="1037.33" y2="512.11" style="stroke:#A0A0A0;stroke-width:10.00"/>
	<line x1="1062.84" y1="512.11" x2="1113.87" y2="511.95" style="stroke:#A0A0A0;stroke-width:10.00"/>
	<line x1="1139.38" y1="511.87" x2="1140.89" y2="511.87" style="stroke:#A0A0A0;stroke-width:10.00"/>
	<line x1="1140.89" y1="511.87" x2="1140.89" y2="511.87" style="stroke:#A0A0A0;stroke-width:10.00"/>
	<line x1="1140.89" y1="511.87" x2="1140.89" y2="511.87" style="stroke:#A0A0A0;stroke-width:10.00"/>
	<line x1="1140.89" y1="511.87" x2="1190.32" y2="509.80" style="stroke:#A0A0A0;stroke-width:10.00"/>
	<line x1="1215.83" y1="508.69" x2="1266.77" y2="506.53" style="stroke:#A0A0A0;stroke-width:10.00"/>
	<line x1="1292.28" y1="505.50" x2="1343.30" y2="503.34" style="stroke:#A0A0A0;stroke-width:10.00"/>
	<line x1="1368.73" y1="502.23" x2="1370.81" y2="502.15" style="stroke:#A0A0A0;stroke-width:10.00"/>
	<line x1="1370.81" y1="502.15" x2="1370.81" y2="502.15" style="stroke:#A0A0A0;stroke-width:10.00"/>
	<line x1="1370.81" y1="502.15" x2="1370.81" y2="502.15" style="stroke:#A0A0A0;stroke-width:10.00"/>
	<line x1="1370.81" y1="502.15" x2="1419.76" y2="500.79" style="stroke:#A0A0A0;stroke-width:10.00"/>
	<line x1="1445.27" y1="500.08" x2="1496.29" y2="498.72" style="stroke:#A0A0A0;stroke-width:10.00"/>
	<line x1="1521.80" y1="498.00" x2="1572.82" y2="496.65" style="stroke:#A0A0A0;stroke-width:10.00"/>
	<line x1="1598.33" y1="496.01" x2="1600.80" y2="495.93" style="stroke:#A0A0A0;stroke-width:10.00"/>
	<line x1="1600.80" y1="495.93" x2="1600.80" y2="495.93" style="stroke:#A0A0A0;stroke-width:10.00"/>
	<line x1="1600.80" y1="495.93" x2="1600.80" y2="495.93" style="stroke:#A0A0A0;stroke-width:10.00"/>
	<line x1="1600.80" y1="495.93" x2="1649.35" y2="496.89" style="stroke:#A0A0A0;stroke-width:10.00"/>
	<line x1="1674.86" y1="497.45" x2="1725.89" y2="498.48" style="stroke:#A0A0A0;stroke-width:10.00"/>
	<line x1="1751.40" y1="498.96" x2="1802.42" y2="500.00" style="stroke:#A0A0A0;stroke-width:10.00"/>
	<line x1="1827.93" y1="500.55" x2="1830.80" y2="500.63" style="stroke:#A0A0A0;stroke-width:10.00"/>
	<line x1="1830.80" y1="500.63" x2="1830.80" y2="500.63" style="stroke:#A0A0A0;stroke-width:10.00"/>
	<line x1="1830.80" y1="500.63" x2="1830.80" y2="500.63" style="stroke:#A0A0A0;stroke-width:10.00"/>
	<line x1="1830.80" y1="500.63" x2="1878.95" y2="500.79" style="stroke:#A0A0A0;stroke-width:10.00"/>
	<line x1="1904.46" y1="500.95" x2="1955.48" y2="501.19" style="stroke:#A0A0A0;stroke-width:10.00"/>
	<line x1="1980.99" y1="501.27" x2="2032.01" y2="501.51" style="stroke:#A0A0A0;stroke-width:10.00"/>
	<line x1="2057.53" y1="501.59" x2="2060.79" y2="501.59" style="stroke:#A0A0A0;stroke-width:10.00"/>
	<line x1="2060.79" y1="501.59" x2="2060.79" y2="501.59" style="stroke:#A0A0A0;stroke-width:10.00"/>
	<line x1="2060.79" y1="501.59" x2="2060.79" y2="501.59" style="stroke:#A0A0A0;stroke-width:10.00"/>
	<line x1="2060.79" y1="501.59" x2="2108.55" y2="500.87" style="stroke:#A0A0A0;stroke-width:10.00"/>
	<line x1="2134.06" y1="500.47" x2="2185.08" y2="499.76" style="stroke:#A0A0A0;stroke-width:10.00"/>
	<line x1="2210.59" y1="499.44" x2="2261.61" y2="498.64" style="stroke:#A0A0A0;stroke-width:10.00"/>
	<line x1="2287.12" y1="498.24" x2="2290.79" y2="498.24" style="stroke:#A0A0A0;stroke-width:10.00"/>
	<line x1="2290.79" y1="498.24" x2="2290.79" y2="498.24" style="stroke:#A0A0A0;stroke-width:10.00"/>
	<line x1="2290.79" y1="498.24" x2="2290.79" y2="498.24" style="stroke:#A0A0A0;stroke-width:10.00"/>
	<line x1="394.86" y1="1717.22" x2="359.38" y2="1717.22" style="stroke:#000000;stroke-width:4.00"/>
	<text x="341.69" y="1734.74" style="font-family:'Helvetica';font-size:49.99px;fill:#000000" text-anchor="end">0</text>
	<line x1="394.86" y1="1581.94" x2="359.38" y2="1581.94" style="stroke:#000000;stroke-width:4.00"/>
	<text x="341.69" y="1599.45" style="font-family:'Helvetica';font-size:49.99px;fill:#000000" text-anchor="end">10</text>
	<line x1="394.86" y1="1446.66" x2="359.38" y2="1446.66" style="stroke:#000000;stroke-width:4.00"/>
	<text x="341.69" y="1464.17" style="font-family:'Helvetica';font-size:49.99px;fill:#000000" text-anchor="end">20</text>
	<line x1="394.86" y1="1311.37" x2="359.38" y2="1311.37" style="stroke:#000000;stroke-width:4.00"/>
	<text x="341.69" y="1328.89" style="font-family:'Helvetica';font-size:49.99px;fill:#000000" text-anchor="end">30</text>
	<line x1="394.86" y1="1176.09" x2="359.38" y2="1176.09" style="stroke:#000000;stroke-width:4.00"/>
	<text x="341.69" y="1193.60" style="font-family:'Helvetica';font-size:49.99px;fill:#000000" text-anchor="end">40</text>
	<line x1="394.86" y1="1040.81" x2="359.38" y2="1040.81" style="stroke:#000000;stroke-width:4.00"/>
	<text x="341.69" y="1058.32" style="font-family:'Helvetica';font-size:49.99px;fill:#000000" text-anchor="end">50</text>
	<line x1="394.86" y1="905.53" x2="359.38" y2="905.53" style="stroke:#000000;stroke-width:4.00"/>
	<text x="341.69" y="923.04" style="font-family:'Helvetica';font-size:49.99px;fill:#000000" text-anchor="end">60</text>
	<line x1="394.86" y1="770.24" x2="359.38" y2="770.24" style="stroke:#000000;stroke-width:4.00"/>
	<text x="341.69" y="787.76" style="font-family:'Helvetica';font-size:49.99px;fill:#000000" text-anchor="end">70</text>
	<line x1="394.86" y1="634.96" x2="359.38" y2="634.96" style="stroke:#000000;stroke-width:4.00"/>
	<text x="341.69" y="652.47" style="font-family:'Helvetica';font-size:49.99px;fill:#000000" text-anchor="end">80</text>
	<line x1="394.86" y1="499.60" x2="359.38" y2="499.60" style="stroke:#000000;stroke-width:4.00"/>
	<text x="341.69" y="517.11" style="font-family:'Helvetica';font-size:49.99px;fill:#000000" text-anchor="end">90</text>
	<line x1="394.86" y1="364.31" x2="359.38" y2="364.31" style="stroke:#000000;stroke-width:4.00"/>
	<text x="341.69" y="381.83" style="font-family:'Helvetica';font-size:49.99px;fill:#000000" text-anchor="end">100</text>
	<line x1="394.86" y1="1717.22" x2="394.86" y2="364.31" style="stroke:#000000;stroke-width:4.00"/>
	<text x="136.21" y="1002.54" style="font-family:'Helvetica';font-size:60.03px;fill:#000000" transform="rotate(-90 136.21,1002.54)" text-anchor="middle">Employment</text>
	<line x1="450.98" y1="1773.34" x2="450.98" y2="1808.82" style="stroke:#000000;stroke-width:4.00"/>
	<text x="450.98" y="1861.46" style="font-family:'Helvetica';font-size:49.99px;fill:#000000" text-anchor="middle">2007</text>
	<line x1="910.89" y1="1773.34" x2="910.89" y2="1808.82" style="stroke:#000000;stroke-width:4.00"/>
	<text x="910.89" y="1861.46" style="font-family:'Helvetica';font-size:49.99px;fill:#000000" text-anchor="middle">2009</text>
	<line x1="1370.89" y1="1773.34" x2="1370.89" y2="1808.82" style="stroke:#000000;stroke-width:4.00"/>
	<text x="1370.89" y="1861.46" style="font-family:'Helvetica';font-size:49.99px;fill:#000000" text-anchor="middle">2011</text>
	<line x1="1830.88" y1="1773.34" x2="1830.88" y2="1808.82" style="stroke:#000000;stroke-width:4.00"/>
	<text x="1830.88" y="1861.46" style="font-family:'Helvetica';font-size:49.99px;fill:#000000" text-anchor="middle">2013</text>
	<line x1="2290.79" y1="1773.34" x2="2290.79" y2="1808.82" style="stroke:#000000;stroke-width:4.00"/>
	<text x="2290.79" y="1861.46" style="font-family:'Helvetica';font-size:49.99px;fill:#000000" text-anchor="middle">2015</text>
	<line x1="450.98" y1="1773.34" x2="2290.79" y2="1773.34" style="stroke:#000000;stroke-width:4.00"/>
	<text x="1332.62" y="2003.86" style="font-family:'Helvetica';font-size:60.03px;fill:#000000" text-anchor="middle">Year</text>
	<text x="145.41" y="2248.05" style="font-family:'Helvetica';font-size:60.03px;fill:#000000">Arr. cohort: </text>
	<text x="536.36" y="2248.05" style="font-family:'Helvetica';font-size:60.03px;fill:#000000">1964-73</text>
	<text x="845.12" y="2248.05" style="font-family:'Helvetica';font-size:60.03px;fill:#000000">1974-83</text>
	<text x="1153.89" y="2248.05" style="font-family:'Helvetica';font-size:60.03px;fill:#000000">1984-93</text>
	<text x="1462.65" y="2248.05" style="font-family:'Helvetica';font-size:60.03px;fill:#000000">1994-03</text>
	<text x="1771.41" y="2248.05" style="font-family:'Helvetica';font-size:60.03px;fill:#000000">2004-10</text>
	<text x="2080.17" y="2248.05" style="font-family:'Helvetica';font-size:60.03px;fill:#000000">German</text>
	<text x="536.36" y="2396.65" style="font-family:'Helvetica';font-size:60.03px;fill:#000000">incl. nat.</text>
	<text x="845.12" y="2396.65" style="font-family:'Helvetica';font-size:60.03px;fill:#000000">incl. nat.</text>
	<text x="1153.89" y="2396.65" style="font-family:'Helvetica';font-size:60.03px;fill:#000000">incl. nat.</text>
	<text x="1462.65" y="2396.65" style="font-family:'Helvetica';font-size:60.03px;fill:#000000">incl. nat.</text>
	<text x="1771.41" y="2396.65" style="font-family:'Helvetica';font-size:60.03px;fill:#000000">incl. nat.</text>
	<line x1="536.36" y1="2152.73" x2="737.26" y2="2152.73" style="stroke:#E69F00;stroke-width:10.00"/>
	<line x1="845.12" y1="2152.73" x2="1046.02" y2="2152.73" style="stroke:#56B4E9;stroke-width:10.00"/>
	<line x1="1153.89" y1="2152.73" x2="1354.78" y2="2152.73" style="stroke:#009E73;stroke-width:10.00"/>
	<line x1="1462.65" y1="2152.73" x2="1663.54" y2="2152.73" style="stroke:#D55E00;stroke-width:10.00"/>
	<line x1="1771.41" y1="2152.73" x2="1972.30" y2="2152.73" style="stroke:#CC79A7;stroke-width:10.00"/>
	<line x1="2080.17" y1="2152.73" x2="2131.19" y2="2152.73" style="stroke:#A0A0A0;stroke-width:10.00"/>
	<line x1="2156.70" y1="2152.73" x2="2207.72" y2="2152.73" style="stroke:#A0A0A0;stroke-width:10.00"/>
	<line x1="2233.23" y1="2152.73" x2="2278.03" y2="2152.73" style="stroke:#A0A0A0;stroke-width:10.00"/>
	<line x1="536.36" y1="2301.32" x2="556.77" y2="2301.32" style="stroke:#E69F00;stroke-width:10.00"/>
	<line x1="574.63" y1="2301.32" x2="595.04" y2="2301.32" style="stroke:#E69F00;stroke-width:10.00"/>
	<line x1="612.90" y1="2301.32" x2="633.31" y2="2301.32" style="stroke:#E69F00;stroke-width:10.00"/>
	<line x1="651.16" y1="2301.32" x2="671.57" y2="2301.32" style="stroke:#E69F00;stroke-width:10.00"/>
	<line x1="689.43" y1="2301.32" x2="709.84" y2="2301.32" style="stroke:#E69F00;stroke-width:10.00"/>
	<line x1="727.70" y1="2301.32" x2="737.26" y2="2301.32" style="stroke:#E69F00;stroke-width:10.00"/>
	<line x1="845.12" y1="2301.32" x2="865.53" y2="2301.32" style="stroke:#56B4E9;stroke-width:10.00"/>
	<line x1="883.39" y1="2301.32" x2="903.80" y2="2301.32" style="stroke:#56B4E9;stroke-width:10.00"/>
	<line x1="921.66" y1="2301.32" x2="942.07" y2="2301.32" style="stroke:#56B4E9;stroke-width:10.00"/>
	<line x1="959.92" y1="2301.32" x2="980.33" y2="2301.32" style="stroke:#56B4E9;stroke-width:10.00"/>
	<line x1="998.19" y1="2301.32" x2="1018.60" y2="2301.32" style="stroke:#56B4E9;stroke-width:10.00"/>
	<line x1="1036.46" y1="2301.32" x2="1046.02" y2="2301.32" style="stroke:#56B4E9;stroke-width:10.00"/>
	<line x1="1153.89" y1="2301.32" x2="1174.29" y2="2301.32" style="stroke:#009E73;stroke-width:10.00"/>
	<line x1="1192.15" y1="2301.32" x2="1212.56" y2="2301.32" style="stroke:#009E73;stroke-width:10.00"/>
	<line x1="1230.42" y1="2301.32" x2="1250.83" y2="2301.32" style="stroke:#009E73;stroke-width:10.00"/>
	<line x1="1268.68" y1="2301.32" x2="1289.09" y2="2301.32" style="stroke:#009E73;stroke-width:10.00"/>
	<line x1="1306.95" y1="2301.32" x2="1327.36" y2="2301.32" style="stroke:#009E73;stroke-width:10.00"/>
	<line x1="1345.22" y1="2301.32" x2="1354.78" y2="2301.32" style="stroke:#009E73;stroke-width:10.00"/>
	<line x1="1462.65" y1="2301.32" x2="1483.05" y2="2301.32" style="stroke:#D55E00;stroke-width:10.00"/>
	<line x1="1500.91" y1="2301.32" x2="1521.32" y2="2301.32" style="stroke:#D55E00;stroke-width:10.00"/>
	<line x1="1539.18" y1="2301.32" x2="1559.59" y2="2301.32" style="stroke:#D55E00;stroke-width:10.00"/>
	<line x1="1577.44" y1="2301.32" x2="1597.85" y2="2301.32" style="stroke:#D55E00;stroke-width:10.00"/>
	<line x1="1615.71" y1="2301.32" x2="1636.12" y2="2301.32" style="stroke:#D55E00;stroke-width:10.00"/>
	<line x1="1653.98" y1="2301.32" x2="1663.54" y2="2301.32" style="stroke:#D55E00;stroke-width:10.00"/>
	<line x1="1771.41" y1="2301.32" x2="1791.81" y2="2301.32" style="stroke:#CC79A7;stroke-width:10.00"/>
	<line x1="1809.67" y1="2301.32" x2="1830.08" y2="2301.32" style="stroke:#CC79A7;stroke-width:10.00"/>
	<line x1="1847.94" y1="2301.32" x2="1868.35" y2="2301.32" style="stroke:#CC79A7;stroke-width:10.00"/>
	<line x1="1886.20" y1="2301.32" x2="1906.61" y2="2301.32" style="stroke:#CC79A7;stroke-width:10.00"/>
	<line x1="1924.47" y1="2301.32" x2="1944.88" y2="2301.32" style="stroke:#CC79A7;stroke-width:10.00"/>
	<line x1="1962.74" y1="2301.32" x2="1972.30" y2="2301.32" style="stroke:#CC79A7;stroke-width:10.00"/>
	<text x="1370.89" y="239.12" style="font-family:'Helvetica';font-size:60.03px;fill:#000000" text-anchor="middle">Percent</text>
	<text x="1370.89" y="154.88" style="font-family:'Helvetica';font-size:90.01px;fill:#000000" text-anchor="middle">Employment, Men</text>
</svg>
