<?xml version="1.0" encoding="UTF-8" standalone="no"?>
<!-- This is a Stata 15.1 generated SVG file (http://www.stata.com) -->

<svg version="1.1" width="3.54in" height="3.54in" viewBox="0 0 2551 2551" xmlns="http://www.w3.org/2000/svg" xmlns:xlink="http://www.w3.org/1999/xlink">
	<desc>Stata Graph - Graph</desc>
	<rect x="0" y="0" width="2551" height="2551" style="fill:#FFFFFF;stroke:none"/>
	<rect x="0.00" y="0.08" width="2551.00" height="2550.92" style="fill:#FFFFFF"/>
	<rect x="2.55" y="2.63" width="2545.90" height="2545.82" style="fill:none;stroke:#FFFFFF;stroke-width:5.10"/>
	<line x1="365.68" y1="1717.22" x2="2346.91" y2="1717.22" style="stroke:#E8E8E8;stroke-width:4.00"/>
	<line x1="365.68" y1="1446.18" x2="2346.91" y2="1446.18" style="stroke:#E8E8E8;stroke-width:4.00"/>
	<line x1="365.68" y1="1175.05" x2="2346.91" y2="1175.05" style="stroke:#E8E8E8;stroke-width:4.00"/>
	<line x1="365.68" y1="903.93" x2="2346.91" y2="903.93" style="stroke:#E8E8E8;stroke-width:4.00"/>
	<line x1="365.68" y1="632.89" x2="2346.91" y2="632.89" style="stroke:#E8E8E8;stroke-width:4.00"/>
	<line x1="365.68" y1="361.76" x2="2346.91" y2="361.76" style="stroke:#E8E8E8;stroke-width:4.00"/>
	<line x1="421.81" y1="1773.34" x2="421.81" y2="197.22" style="stroke:#E8E8E8;stroke-width:4.00"/>
	<line x1="889.05" y1="1773.34" x2="889.05" y2="197.22" style="stroke:#E8E8E8;stroke-width:4.00"/>
	<line x1="1356.30" y1="1773.34" x2="1356.30" y2="197.22" style="stroke:#E8E8E8;stroke-width:4.00"/>
	<line x1="1823.54" y1="1773.34" x2="1823.54" y2="197.22" style="stroke:#E8E8E8;stroke-width:4.00"/>
	<line x1="2290.79" y1="1773.34" x2="2290.79" y2="197.22" style="stroke:#E8E8E8;stroke-width:4.00"/>
	<line x1="421.73" y1="956.23" x2="655.39" y2="966.75" stroke-linecap="round" style="stroke:#56B4E9;stroke-width:10.00"/>
	<line x1="655.39" y1="966.75" x2="889.05" y2="1014.90" stroke-linecap="round" style="stroke:#56B4E9;stroke-width:10.00"/>
	<line x1="889.05" y1="1014.90" x2="1122.63" y2="1016.49" stroke-linecap="round" style="stroke:#56B4E9;stroke-width:10.00"/>
	<line x1="1122.63" y1="1016.49" x2="1356.30" y2="968.34" stroke-linecap="round" style="stroke:#56B4E9;stroke-width:10.00"/>
	<line x1="1356.30" y1="968.34" x2="1589.88" y2="927.21" stroke-linecap="round" style="stroke:#56B4E9;stroke-width:10.00"/>
	<line x1="1589.88" y1="927.21" x2="1823.54" y2="866.38" stroke-linecap="round" style="stroke:#56B4E9;stroke-width:10.00"/>
	<line x1="421.73" y1="795.75" x2="421.73" y2="795.75" style="stroke:#56B4E9;stroke-width:10.00"/>
	<line x1="421.73" y1="795.75" x2="421.73" y2="795.75" style="stroke:#56B4E9;stroke-width:10.00"/>
	<line x1="421.73" y1="795.75" x2="421.73" y2="795.75" style="stroke:#56B4E9;stroke-width:10.00"/>
	<line x1="421.73" y1="795.75" x2="441.89" y2="798.86" style="stroke:#56B4E9;stroke-width:10.00"/>
	<line x1="459.51" y1="801.65" x2="479.68" y2="804.76" style="stroke:#56B4E9;stroke-width:10.00"/>
	<line x1="497.38" y1="807.55" x2="517.55" y2="810.66" style="stroke:#56B4E9;stroke-width:10.00"/>
	<line x1="535.25" y1="813.37" x2="555.42" y2="816.48" style="stroke:#56B4E9;stroke-width:10.00"/>
	<line x1="573.04" y1="819.19" x2="593.21" y2="822.30" style="stroke:#56B4E9;stroke-width:10.00"/>
	<line x1="610.90" y1="825.09" x2="631.07" y2="828.20" style="stroke:#56B4E9;stroke-width:10.00"/>
	<line x1="648.69" y1="830.91" x2="655.39" y2="831.94" style="stroke:#56B4E9;stroke-width:10.00"/>
	<line x1="655.39" y1="831.94" x2="655.39" y2="831.94" style="stroke:#56B4E9;stroke-width:10.00"/>
	<line x1="655.39" y1="831.94" x2="655.39" y2="831.94" style="stroke:#56B4E9;stroke-width:10.00"/>
	<line x1="655.39" y1="831.94" x2="655.39" y2="831.94" style="stroke:#56B4E9;stroke-width:10.00"/>
	<line x1="655.39" y1="831.94" x2="668.94" y2="830.51" style="stroke:#56B4E9;stroke-width:10.00"/>
	<line x1="686.72" y1="828.68" x2="706.97" y2="826.52" style="stroke:#56B4E9;stroke-width:10.00"/>
	<line x1="724.75" y1="824.61" x2="744.99" y2="822.54" style="stroke:#56B4E9;stroke-width:10.00"/>
	<line x1="762.77" y1="820.62" x2="783.10" y2="818.55" style="stroke:#56B4E9;stroke-width:10.00"/>
	<line x1="800.88" y1="816.64" x2="821.13" y2="814.49" style="stroke:#56B4E9;stroke-width:10.00"/>
	<line x1="838.91" y1="812.65" x2="859.16" y2="810.50" style="stroke:#56B4E9;stroke-width:10.00"/>
	<line x1="876.93" y1="808.67" x2="889.05" y2="807.39" style="stroke:#56B4E9;stroke-width:10.00"/>
	<line x1="889.05" y1="807.39" x2="889.05" y2="807.39" style="stroke:#56B4E9;stroke-width:10.00"/>
	<line x1="889.05" y1="807.39" x2="889.05" y2="807.39" style="stroke:#56B4E9;stroke-width:10.00"/>
	<line x1="889.05" y1="807.39" x2="889.05" y2="807.39" style="stroke:#56B4E9;stroke-width:10.00"/>
	<line x1="889.05" y1="807.39" x2="897.26" y2="806.51" style="stroke:#56B4E9;stroke-width:10.00"/>
	<line x1="915.04" y1="804.68" x2="935.29" y2="802.61" style="stroke:#56B4E9;stroke-width:10.00"/>
	<line x1="953.07" y1="800.77" x2="973.40" y2="798.62" style="stroke:#56B4E9;stroke-width:10.00"/>
	<line x1="991.17" y1="796.79" x2="1011.42" y2="794.72" style="stroke:#56B4E9;stroke-width:10.00"/>
	<line x1="1029.20" y1="792.88" x2="1049.53" y2="790.81" style="stroke:#56B4E9;stroke-width:10.00"/>
	<line x1="1067.31" y1="788.98" x2="1087.56" y2="786.82" style="stroke:#56B4E9;stroke-width:10.00"/>
	<line x1="1105.34" y1="784.99" x2="1122.63" y2="783.24" style="stroke:#56B4E9;stroke-width:10.00"/>
	<line x1="1122.63" y1="783.24" x2="1122.63" y2="783.24" style="stroke:#56B4E9;stroke-width:10.00"/>
	<line x1="1122.63" y1="783.24" x2="1122.63" y2="783.24" style="stroke:#56B4E9;stroke-width:10.00"/>
	<line x1="1122.63" y1="783.24" x2="1122.63" y2="783.24" style="stroke:#56B4E9;stroke-width:10.00"/>
	<line x1="1122.63" y1="783.24" x2="1125.50" y2="784.19" style="stroke:#56B4E9;stroke-width:10.00"/>
	<line x1="1142.49" y1="789.69" x2="1161.86" y2="795.99" style="stroke:#56B4E9;stroke-width:10.00"/>
	<line x1="1178.84" y1="801.57" x2="1198.29" y2="807.87" style="stroke:#56B4E9;stroke-width:10.00"/>
	<line x1="1215.27" y1="813.45" x2="1234.72" y2="819.75" style="stroke:#56B4E9;stroke-width:10.00"/>
	<line x1="1251.70" y1="825.25" x2="1271.16" y2="831.63" style="stroke:#56B4E9;stroke-width:10.00"/>
	<line x1="1288.14" y1="837.13" x2="1307.51" y2="843.42" style="stroke:#56B4E9;stroke-width:10.00"/>
	<line x1="1324.49" y1="849.00" x2="1343.94" y2="855.30" style="stroke:#56B4E9;stroke-width:10.00"/>
	<line x1="1361.08" y1="858.57" x2="1381.33" y2="855.70" style="stroke:#56B4E9;stroke-width:10.00"/>
	<line x1="1398.95" y1="853.15" x2="1419.20" y2="850.20" style="stroke:#56B4E9;stroke-width:10.00"/>
	<line x1="1436.82" y1="847.65" x2="1457.07" y2="844.78" style="stroke:#56B4E9;stroke-width:10.00"/>
	<line x1="1474.68" y1="842.23" x2="1494.93" y2="839.28" style="stroke:#56B4E9;stroke-width:10.00"/>
	<line x1="1512.63" y1="836.73" x2="1532.80" y2="833.86" style="stroke:#56B4E9;stroke-width:10.00"/>
	<line x1="1550.50" y1="831.31" x2="1570.67" y2="828.36" style="stroke:#56B4E9;stroke-width:10.00"/>
	<line x1="1588.29" y1="825.81" x2="1589.88" y2="825.57" style="stroke:#56B4E9;stroke-width:10.00"/>
	<line x1="1589.88" y1="825.57" x2="1589.88" y2="825.57" style="stroke:#56B4E9;stroke-width:10.00"/>
	<line x1="1589.88" y1="825.57" x2="1589.88" y2="825.57" style="stroke:#56B4E9;stroke-width:10.00"/>
	<line x1="1589.88" y1="825.57" x2="1589.88" y2="825.57" style="stroke:#56B4E9;stroke-width:10.00"/>
	<line x1="1589.88" y1="825.57" x2="1608.46" y2="822.38" style="stroke:#56B4E9;stroke-width:10.00"/>
	<line x1="1625.99" y1="819.35" x2="1646.16" y2="815.92" style="stroke:#56B4E9;stroke-width:10.00"/>
	<line x1="1663.78" y1="812.89" x2="1683.87" y2="809.46" style="stroke:#56B4E9;stroke-width:10.00"/>
	<line x1="1701.57" y1="806.43" x2="1721.66" y2="803.01" style="stroke:#56B4E9;stroke-width:10.00"/>
	<line x1="1739.28" y1="799.98" x2="1759.37" y2="796.55" style="stroke:#56B4E9;stroke-width:10.00"/>
	<line x1="1776.99" y1="793.52" x2="1797.08" y2="790.17" style="stroke:#56B4E9;stroke-width:10.00"/>
	<line x1="1814.69" y1="787.14" x2="1823.54" y2="785.63" style="stroke:#56B4E9;stroke-width:10.00"/>
	<line x1="1823.54" y1="785.63" x2="1823.54" y2="785.63" style="stroke:#56B4E9;stroke-width:10.00"/>
	<line x1="1823.54" y1="785.63" x2="1823.54" y2="785.63" style="stroke:#56B4E9;stroke-width:10.00"/>
	<line x1="1823.54" y1="785.63" x2="1823.54" y2="785.63" style="stroke:#56B4E9;stroke-width:10.00"/>
	<line x1="421.73" y1="1061.30" x2="655.39" y2="1091.35" stroke-linecap="round" style="stroke:#009E73;stroke-width:10.00"/>
	<line x1="655.39" y1="1091.35" x2="889.05" y2="1069.99" stroke-linecap="round" style="stroke:#009E73;stroke-width:10.00"/>
	<line x1="889.05" y1="1069.99" x2="1122.63" y2="1121.48" stroke-linecap="round" style="stroke:#009E73;stroke-width:10.00"/>
	<line x1="1122.63" y1="1121.48" x2="1356.30" y2="1100.28" stroke-linecap="round" style="stroke:#009E73;stroke-width:10.00"/>
	<line x1="1356.30" y1="1100.28" x2="1589.88" y2="1080.91" stroke-linecap="round" style="stroke:#009E73;stroke-width:10.00"/>
	<line x1="1589.88" y1="1080.91" x2="1823.54" y2="1090.31" stroke-linecap="round" style="stroke:#009E73;stroke-width:10.00"/>
	<line x1="1823.54" y1="1090.31" x2="2057.13" y2="1083.70" stroke-linecap="round" style="stroke:#009E73;stroke-width:10.00"/>
	<line x1="2057.13" y1="1083.70" x2="2290.79" y2="1085.37" stroke-linecap="round" style="stroke:#009E73;stroke-width:10.00"/>
	<line x1="421.73" y1="1052.21" x2="421.73" y2="1052.21" style="stroke:#009E73;stroke-width:10.00"/>
	<line x1="421.73" y1="1052.21" x2="421.73" y2="1052.21" style="stroke:#009E73;stroke-width:10.00"/>
	<line x1="421.73" y1="1052.21" x2="421.73" y2="1052.21" style="stroke:#009E73;stroke-width:10.00"/>
	<line x1="421.73" y1="1052.21" x2="442.13" y2="1052.13" style="stroke:#009E73;stroke-width:10.00"/>
	<line x1="459.99" y1="1052.13" x2="480.40" y2="1052.13" style="stroke:#009E73;stroke-width:10.00"/>
	<line x1="498.26" y1="1052.13" x2="518.67" y2="1052.05" style="stroke:#009E73;stroke-width:10.00"/>
	<line x1="536.52" y1="1052.05" x2="556.93" y2="1052.05" style="stroke:#009E73;stroke-width:10.00"/>
	<line x1="574.79" y1="1052.05" x2="595.20" y2="1051.97" style="stroke:#009E73;stroke-width:10.00"/>
	<line x1="613.06" y1="1051.97" x2="633.46" y2="1051.97" style="stroke:#009E73;stroke-width:10.00"/>
	<line x1="651.32" y1="1051.97" x2="655.39" y2="1051.97" style="stroke:#009E73;stroke-width:10.00"/>
	<line x1="655.39" y1="1051.97" x2="655.39" y2="1051.97" style="stroke:#009E73;stroke-width:10.00"/>
	<line x1="655.39" y1="1051.97" x2="655.39" y2="1051.97" style="stroke:#009E73;stroke-width:10.00"/>
	<line x1="655.39" y1="1051.97" x2="655.39" y2="1051.97" style="stroke:#009E73;stroke-width:10.00"/>
	<line x1="655.39" y1="1051.97" x2="671.65" y2="1050.69" style="stroke:#009E73;stroke-width:10.00"/>
	<line x1="689.51" y1="1049.26" x2="709.84" y2="1047.66" style="stroke:#009E73;stroke-width:10.00"/>
	<line x1="727.62" y1="1046.23" x2="747.94" y2="1044.63" style="stroke:#009E73;stroke-width:10.00"/>
	<line x1="765.80" y1="1043.20" x2="786.13" y2="1041.61" style="stroke:#009E73;stroke-width:10.00"/>
	<line x1="803.91" y1="1040.17" x2="824.24" y2="1038.58" style="stroke:#009E73;stroke-width:10.00"/>
	<line x1="842.10" y1="1037.14" x2="862.42" y2="1035.55" style="stroke:#009E73;stroke-width:10.00"/>
	<line x1="880.20" y1="1034.11" x2="889.05" y2="1033.39" style="stroke:#009E73;stroke-width:10.00"/>
	<line x1="889.05" y1="1033.39" x2="889.05" y2="1033.39" style="stroke:#009E73;stroke-width:10.00"/>
	<line x1="889.05" y1="1033.39" x2="889.05" y2="1033.39" style="stroke:#009E73;stroke-width:10.00"/>
	<line x1="889.05" y1="1033.39" x2="889.05" y2="1033.39" style="stroke:#009E73;stroke-width:10.00"/>
	<line x1="889.05" y1="1033.39" x2="900.61" y2="1034.03" style="stroke:#009E73;stroke-width:10.00"/>
	<line x1="918.39" y1="1034.99" x2="938.80" y2="1036.10" style="stroke:#009E73;stroke-width:10.00"/>
	<line x1="956.65" y1="1037.14" x2="976.98" y2="1038.26" style="stroke:#009E73;stroke-width:10.00"/>
	<line x1="994.84" y1="1039.29" x2="1015.17" y2="1040.41" style="stroke:#009E73;stroke-width:10.00"/>
	<line x1="1033.03" y1="1041.45" x2="1053.36" y2="1042.56" style="stroke:#009E73;stroke-width:10.00"/>
	<line x1="1071.21" y1="1043.52" x2="1091.54" y2="1044.71" style="stroke:#009E73;stroke-width:10.00"/>
	<line x1="1109.40" y1="1045.75" x2="1122.63" y2="1046.47" style="stroke:#009E73;stroke-width:10.00"/>
	<line x1="1122.63" y1="1046.47" x2="1122.63" y2="1046.47" style="stroke:#009E73;stroke-width:10.00"/>
	<line x1="1122.63" y1="1046.47" x2="1122.63" y2="1046.47" style="stroke:#009E73;stroke-width:10.00"/>
	<line x1="1122.63" y1="1046.47" x2="1122.63" y2="1046.47" style="stroke:#009E73;stroke-width:10.00"/>
	<line x1="1122.63" y1="1046.47" x2="1129.73" y2="1046.55" style="stroke:#009E73;stroke-width:10.00"/>
	<line x1="1147.59" y1="1046.95" x2="1168.00" y2="1047.34" style="stroke:#009E73;stroke-width:10.00"/>
	<line x1="1185.85" y1="1047.66" x2="1206.26" y2="1048.06" style="stroke:#009E73;stroke-width:10.00"/>
	<line x1="1224.12" y1="1048.46" x2="1244.53" y2="1048.78" style="stroke:#009E73;stroke-width:10.00"/>
	<line x1="1262.39" y1="1049.18" x2="1282.79" y2="1049.58" style="stroke:#009E73;stroke-width:10.00"/>
	<line x1="1300.65" y1="1049.90" x2="1321.06" y2="1050.29" style="stroke:#009E73;stroke-width:10.00"/>
	<line x1="1338.92" y1="1050.61" x2="1356.30" y2="1050.93" style="stroke:#009E73;stroke-width:10.00"/>
	<line x1="1356.30" y1="1050.93" x2="1356.30" y2="1050.93" style="stroke:#009E73;stroke-width:10.00"/>
	<line x1="1356.30" y1="1050.93" x2="1356.30" y2="1050.93" style="stroke:#009E73;stroke-width:10.00"/>
	<line x1="1356.30" y1="1050.93" x2="1356.30" y2="1050.93" style="stroke:#009E73;stroke-width:10.00"/>
	<line x1="1356.30" y1="1050.93" x2="1359.33" y2="1050.69" style="stroke:#009E73;stroke-width:10.00"/>
	<line x1="1377.18" y1="1049.34" x2="1397.51" y2="1047.82" style="stroke:#009E73;stroke-width:10.00"/>
	<line x1="1415.37" y1="1046.47" x2="1435.70" y2="1044.95" style="stroke:#009E73;stroke-width:10.00"/>
	<line x1="1453.48" y1="1043.60" x2="1473.89" y2="1042.08" style="stroke:#009E73;stroke-width:10.00"/>
	<line x1="1491.66" y1="1040.81" x2="1512.07" y2="1039.21" style="stroke:#009E73;stroke-width:10.00"/>
	<line x1="1529.85" y1="1037.94" x2="1550.26" y2="1036.34" style="stroke:#009E73;stroke-width:10.00"/>
	<line x1="1568.04" y1="1035.07" x2="1588.37" y2="1033.47" style="stroke:#009E73;stroke-width:10.00"/>
	<line x1="1606.22" y1="1033.15" x2="1626.63" y2="1033.00" style="stroke:#009E73;stroke-width:10.00"/>
	<line x1="1644.49" y1="1032.76" x2="1664.90" y2="1032.52" style="stroke:#009E73;stroke-width:10.00"/>
	<line x1="1682.76" y1="1032.36" x2="1703.16" y2="1032.12" style="stroke:#009E73;stroke-width:10.00"/>
	<line x1="1721.02" y1="1031.88" x2="1741.43" y2="1031.64" style="stroke:#009E73;stroke-width:10.00"/>
	<line x1="1759.29" y1="1031.48" x2="1779.70" y2="1031.24" style="stroke:#009E73;stroke-width:10.00"/>
	<line x1="1797.55" y1="1031.00" x2="1817.96" y2="1030.76" style="stroke:#009E73;stroke-width:10.00"/>
	<line x1="1835.74" y1="1029.49" x2="1856.07" y2="1027.42" style="stroke:#009E73;stroke-width:10.00"/>
	<line x1="1873.85" y1="1025.66" x2="1894.10" y2="1023.59" style="stroke:#009E73;stroke-width:10.00"/>
	<line x1="1911.87" y1="1021.83" x2="1932.20" y2="1019.84" style="stroke:#009E73;stroke-width:10.00"/>
	<line x1="1949.98" y1="1018.01" x2="1970.23" y2="1016.02" style="stroke:#009E73;stroke-width:10.00"/>
	<line x1="1988.01" y1="1014.26" x2="2008.34" y2="1012.19" style="stroke:#009E73;stroke-width:10.00"/>
	<line x1="2026.12" y1="1010.44" x2="2046.36" y2="1008.36" style="stroke:#009E73;stroke-width:10.00"/>
	<line x1="2064.22" y1="1007.09" x2="2084.63" y2="1006.37" style="stroke:#009E73;stroke-width:10.00"/>
	<line x1="2102.49" y1="1005.73" x2="2122.90" y2="1005.01" style="stroke:#009E73;stroke-width:10.00"/>
	<line x1="2140.75" y1="1004.38" x2="2161.16" y2="1003.58" style="stroke:#009E73;stroke-width:10.00"/>
	<line x1="2179.02" y1="1002.94" x2="2199.43" y2="1002.22" style="stroke:#009E73;stroke-width:10.00"/>
	<line x1="2217.29" y1="1001.59" x2="2237.70" y2="1000.87" style="stroke:#009E73;stroke-width:10.00"/>
	<line x1="2255.55" y1="1000.23" x2="2275.88" y2="999.51" style="stroke:#009E73;stroke-width:10.00"/>
	<line x1="421.73" y1="962.68" x2="655.39" y2="946.34" stroke-linecap="round" style="stroke:#D55E00;stroke-width:10.00"/>
	<line x1="655.39" y1="946.34" x2="889.05" y2="941.16" stroke-linecap="round" style="stroke:#D55E00;stroke-width:10.00"/>
	<line x1="889.05" y1="941.16" x2="1122.63" y2="926.73" stroke-linecap="round" style="stroke:#D55E00;stroke-width:10.00"/>
	<line x1="1122.63" y1="926.73" x2="1356.30" y2="947.54" stroke-linecap="round" style="stroke:#D55E00;stroke-width:10.00"/>
	<line x1="1356.30" y1="947.54" x2="1589.88" y2="928.25" stroke-linecap="round" style="stroke:#D55E00;stroke-width:10.00"/>
	<line x1="1589.88" y1="928.25" x2="1823.54" y2="944.91" stroke-linecap="round" style="stroke:#D55E00;stroke-width:10.00"/>
	<line x1="1823.54" y1="944.91" x2="2057.13" y2="930.00" stroke-linecap="round" style="stroke:#D55E00;stroke-width:10.00"/>
	<line x1="2057.13" y1="930.00" x2="2290.79" y2="959.65" stroke-linecap="round" style="stroke:#D55E00;stroke-width:10.00"/>
	<line x1="421.73" y1="1043.60" x2="421.73" y2="1043.60" style="stroke:#D55E00;stroke-width:10.00"/>
	<line x1="421.73" y1="1043.60" x2="421.73" y2="1043.60" style="stroke:#D55E00;stroke-width:10.00"/>
	<line x1="421.73" y1="1043.60" x2="421.73" y2="1043.60" style="stroke:#D55E00;stroke-width:10.00"/>
	<line x1="421.73" y1="1043.60" x2="442.05" y2="1042.64" style="stroke:#D55E00;stroke-width:10.00"/>
	<line x1="459.91" y1="1041.76" x2="480.24" y2="1040.81" style="stroke:#D55E00;stroke-width:10.00"/>
	<line x1="498.10" y1="1039.93" x2="518.43" y2="1038.89" style="stroke:#D55E00;stroke-width:10.00"/>
	<line x1="536.28" y1="1038.10" x2="556.61" y2="1037.06" style="stroke:#D55E00;stroke-width:10.00"/>
	<line x1="574.47" y1="1036.18" x2="594.80" y2="1035.23" style="stroke:#D55E00;stroke-width:10.00"/>
	<line x1="612.66" y1="1034.43" x2="633.07" y2="1033.39" style="stroke:#D55E00;stroke-width:10.00"/>
	<line x1="650.84" y1="1032.60" x2="655.39" y2="1032.36" style="stroke:#D55E00;stroke-width:10.00"/>
	<line x1="655.39" y1="1032.36" x2="655.39" y2="1032.36" style="stroke:#D55E00;stroke-width:10.00"/>
	<line x1="655.39" y1="1032.36" x2="655.39" y2="1032.36" style="stroke:#D55E00;stroke-width:10.00"/>
	<line x1="655.39" y1="1032.36" x2="655.39" y2="1032.36" style="stroke:#D55E00;stroke-width:10.00"/>
	<line x1="655.39" y1="1032.36" x2="671.17" y2="1030.60" style="stroke:#D55E00;stroke-width:10.00"/>
	<line x1="688.95" y1="1028.69" x2="709.20" y2="1026.54" style="stroke:#D55E00;stroke-width:10.00"/>
	<line x1="726.98" y1="1024.63" x2="747.31" y2="1022.39" style="stroke:#D55E00;stroke-width:10.00"/>
	<line x1="765.01" y1="1020.48" x2="785.33" y2="1018.25" style="stroke:#D55E00;stroke-width:10.00"/>
	<line x1="803.03" y1="1016.33" x2="823.36" y2="1014.18" style="stroke:#D55E00;stroke-width:10.00"/>
	<line x1="841.06" y1="1012.27" x2="861.39" y2="1010.04" style="stroke:#D55E00;stroke-width:10.00"/>
	<line x1="879.09" y1="1008.12" x2="889.05" y2="1007.01" style="stroke:#D55E00;stroke-width:10.00"/>
	<line x1="889.05" y1="1007.01" x2="889.05" y2="1007.01" style="stroke:#D55E00;stroke-width:10.00"/>
	<line x1="889.05" y1="1007.01" x2="889.05" y2="1007.01" style="stroke:#D55E00;stroke-width:10.00"/>
	<line x1="889.05" y1="1007.01" x2="889.05" y2="1007.01" style="stroke:#D55E00;stroke-width:10.00"/>
	<line x1="889.05" y1="1007.01" x2="899.34" y2="1005.49" style="stroke:#D55E00;stroke-width:10.00"/>
	<line x1="916.95" y1="1002.94" x2="937.20" y2="1000.07" style="stroke:#D55E00;stroke-width:10.00"/>
	<line x1="954.82" y1="997.52" x2="975.07" y2="994.65" style="stroke:#D55E00;stroke-width:10.00"/>
	<line x1="992.69" y1="992.10" x2="1012.94" y2="989.15" style="stroke:#D55E00;stroke-width:10.00"/>
	<line x1="1030.64" y1="986.60" x2="1050.81" y2="983.73" style="stroke:#D55E00;stroke-width:10.00"/>
	<line x1="1068.50" y1="981.18" x2="1088.67" y2="978.23" style="stroke:#D55E00;stroke-width:10.00"/>
	<line x1="1106.37" y1="975.68" x2="1122.63" y2="973.37" style="stroke:#D55E00;stroke-width:10.00"/>
	<line x1="1122.63" y1="973.37" x2="1122.63" y2="973.37" style="stroke:#D55E00;stroke-width:10.00"/>
	<line x1="1122.63" y1="973.37" x2="1122.63" y2="973.37" style="stroke:#D55E00;stroke-width:10.00"/>
	<line x1="1122.63" y1="973.37" x2="1122.63" y2="973.37" style="stroke:#D55E00;stroke-width:10.00"/>
	<line x1="1122.63" y1="973.37" x2="1126.46" y2="974.48" style="stroke:#D55E00;stroke-width:10.00"/>
	<line x1="1143.60" y1="979.50" x2="1163.21" y2="985.16" style="stroke:#D55E00;stroke-width:10.00"/>
	<line x1="1180.35" y1="990.11" x2="1199.88" y2="995.85" style="stroke:#D55E00;stroke-width:10.00"/>
	<line x1="1217.02" y1="1000.79" x2="1236.64" y2="1006.53" style="stroke:#D55E00;stroke-width:10.00"/>
	<line x1="1253.78" y1="1011.47" x2="1273.39" y2="1017.21" style="stroke:#D55E00;stroke-width:10.00"/>
	<line x1="1290.53" y1="1022.15" x2="1310.14" y2="1027.89" style="stroke:#D55E00;stroke-width:10.00"/>
	<line x1="1327.28" y1="1032.92" x2="1346.89" y2="1038.58" style="stroke:#D55E00;stroke-width:10.00"/>
	<line x1="1364.03" y1="1039.21" x2="1383.72" y2="1033.79" style="stroke:#D55E00;stroke-width:10.00"/>
	<line x1="1400.86" y1="1029.01" x2="1420.55" y2="1023.59" style="stroke:#D55E00;stroke-width:10.00"/>
	<line x1="1437.77" y1="1018.81" x2="1457.46" y2="1013.38" style="stroke:#D55E00;stroke-width:10.00"/>
	<line x1="1474.60" y1="1008.60" x2="1494.29" y2="1003.18" style="stroke:#D55E00;stroke-width:10.00"/>
	<line x1="1511.51" y1="998.40" x2="1531.13" y2="992.98" style="stroke:#D55E00;stroke-width:10.00"/>
	<line x1="1548.43" y1="988.19" x2="1568.04" y2="982.77" style="stroke:#D55E00;stroke-width:10.00"/>
	<line x1="1585.26" y1="977.99" x2="1589.88" y2="976.71" style="stroke:#D55E00;stroke-width:10.00"/>
	<line x1="1589.88" y1="976.71" x2="1589.88" y2="976.71" style="stroke:#D55E00;stroke-width:10.00"/>
	<line x1="1589.88" y1="976.71" x2="1589.88" y2="976.71" style="stroke:#D55E00;stroke-width:10.00"/>
	<line x1="1589.88" y1="976.71" x2="1589.88" y2="976.71" style="stroke:#D55E00;stroke-width:10.00"/>
	<line x1="1589.88" y1="976.71" x2="1605.43" y2="976.08" style="stroke:#D55E00;stroke-width:10.00"/>
	<line x1="1623.28" y1="975.36" x2="1643.69" y2="974.56" style="stroke:#D55E00;stroke-width:10.00"/>
	<line x1="1661.55" y1="973.84" x2="1681.96" y2="972.97" style="stroke:#D55E00;stroke-width:10.00"/>
	<line x1="1699.82" y1="972.25" x2="1720.22" y2="971.45" style="stroke:#D55E00;stroke-width:10.00"/>
	<line x1="1738.08" y1="970.74" x2="1758.49" y2="969.86" style="stroke:#D55E00;stroke-width:10.00"/>
	<line x1="1776.35" y1="969.14" x2="1796.76" y2="968.34" style="stroke:#D55E00;stroke-width:10.00"/>
	<line x1="1814.61" y1="967.55" x2="1823.54" y2="967.23" style="stroke:#D55E00;stroke-width:10.00"/>
	<line x1="1823.54" y1="967.23" x2="1823.54" y2="967.23" style="stroke:#D55E00;stroke-width:10.00"/>
	<line x1="1823.54" y1="967.23" x2="1823.54" y2="967.23" style="stroke:#D55E00;stroke-width:10.00"/>
	<line x1="1823.54" y1="967.23" x2="1823.54" y2="967.23" style="stroke:#D55E00;stroke-width:10.00"/>
	<line x1="1823.54" y1="967.23" x2="1835.02" y2="966.83" style="stroke:#D55E00;stroke-width:10.00"/>
	<line x1="1852.88" y1="966.27" x2="1873.29" y2="965.55" style="stroke:#D55E00;stroke-width:10.00"/>
	<line x1="1891.15" y1="965.00" x2="1911.56" y2="964.28" style="stroke:#D55E00;stroke-width:10.00"/>
	<line x1="1929.41" y1="963.72" x2="1949.82" y2="963.00" style="stroke:#D55E00;stroke-width:10.00"/>
	<line x1="1967.68" y1="962.44" x2="1988.09" y2="961.73" style="stroke:#D55E00;stroke-width:10.00"/>
	<line x1="2005.95" y1="961.17" x2="2026.35" y2="960.45" style="stroke:#D55E00;stroke-width:10.00"/>
	<line x1="2044.21" y1="959.81" x2="2057.13" y2="959.42" style="stroke:#D55E00;stroke-width:10.00"/>
	<line x1="2057.13" y1="959.42" x2="2057.13" y2="959.42" style="stroke:#D55E00;stroke-width:10.00"/>
	<line x1="2057.13" y1="959.42" x2="2057.13" y2="959.42" style="stroke:#D55E00;stroke-width:10.00"/>
	<line x1="2057.13" y1="959.42" x2="2057.13" y2="959.42" style="stroke:#D55E00;stroke-width:10.00"/>
	<line x1="2057.13" y1="959.42" x2="2064.62" y2="958.94" style="stroke:#D55E00;stroke-width:10.00"/>
	<line x1="2082.40" y1="957.82" x2="2102.81" y2="956.55" style="stroke:#D55E00;stroke-width:10.00"/>
	<line x1="2120.59" y1="955.43" x2="2140.99" y2="954.07" style="stroke:#D55E00;stroke-width:10.00"/>
	<line x1="2158.77" y1="953.04" x2="2179.18" y2="951.68" style="stroke:#D55E00;stroke-width:10.00"/>
	<line x1="2196.96" y1="950.65" x2="2217.37" y2="949.29" style="stroke:#D55E00;stroke-width:10.00"/>
	<line x1="2235.14" y1="948.25" x2="2255.55" y2="946.90" style="stroke:#D55E00;stroke-width:10.00"/>
	<line x1="2273.33" y1="945.86" x2="2290.79" y2="944.75" style="stroke:#D55E00;stroke-width:10.00"/>
	<line x1="2290.79" y1="944.75" x2="2290.79" y2="944.75" style="stroke:#D55E00;stroke-width:10.00"/>
	<line x1="2290.79" y1="944.75" x2="2290.79" y2="944.75" style="stroke:#D55E00;stroke-width:10.00"/>
	<line x1="2290.79" y1="944.75" x2="2290.79" y2="944.75" style="stroke:#D55E00;stroke-width:10.00"/>
	<line x1="1356.30" y1="721.77" x2="1589.88" y2="717.87" stroke-linecap="round" style="stroke:#CC79A7;stroke-width:10.00"/>
	<line x1="1589.88" y1="717.87" x2="1823.54" y2="771.92" stroke-linecap="round" style="stroke:#CC79A7;stroke-width:10.00"/>
	<line x1="1823.54" y1="771.92" x2="2057.13" y2="799.82" stroke-linecap="round" style="stroke:#CC79A7;stroke-width:10.00"/>
	<line x1="2057.13" y1="799.82" x2="2290.79" y2="792.64" stroke-linecap="round" style="stroke:#CC79A7;stroke-width:10.00"/>
	<line x1="1356.30" y1="747.44" x2="1356.30" y2="747.44" style="stroke:#CC79A7;stroke-width:10.00"/>
	<line x1="1356.30" y1="747.44" x2="1356.30" y2="747.44" style="stroke:#CC79A7;stroke-width:10.00"/>
	<line x1="1356.30" y1="747.44" x2="1356.30" y2="747.44" style="stroke:#CC79A7;stroke-width:10.00"/>
	<line x1="1356.30" y1="747.44" x2="1376.63" y2="745.13" style="stroke:#CC79A7;stroke-width:10.00"/>
	<line x1="1394.32" y1="743.06" x2="1414.65" y2="740.75" style="stroke:#CC79A7;stroke-width:10.00"/>
	<line x1="1432.35" y1="738.75" x2="1452.68" y2="736.44" style="stroke:#CC79A7;stroke-width:10.00"/>
	<line x1="1470.38" y1="734.37" x2="1490.71" y2="732.06" style="stroke:#CC79A7;stroke-width:10.00"/>
	<line x1="1508.41" y1="729.98" x2="1528.73" y2="727.67" style="stroke:#CC79A7;stroke-width:10.00"/>
	<line x1="1546.43" y1="725.68" x2="1566.76" y2="723.37" style="stroke:#CC79A7;stroke-width:10.00"/>
	<line x1="1584.46" y1="721.37" x2="1589.88" y2="720.74" style="stroke:#CC79A7;stroke-width:10.00"/>
	<line x1="1589.88" y1="720.74" x2="1589.88" y2="720.74" style="stroke:#CC79A7;stroke-width:10.00"/>
	<line x1="1589.88" y1="720.74" x2="1589.88" y2="720.74" style="stroke:#CC79A7;stroke-width:10.00"/>
	<line x1="1589.88" y1="720.74" x2="1589.88" y2="720.74" style="stroke:#CC79A7;stroke-width:10.00"/>
	<line x1="1589.88" y1="720.74" x2="1604.63" y2="723.61" style="stroke:#CC79A7;stroke-width:10.00"/>
	<line x1="1622.17" y1="726.96" x2="1642.18" y2="730.70" style="stroke:#CC79A7;stroke-width:10.00"/>
	<line x1="1659.72" y1="734.05" x2="1679.81" y2="737.88" style="stroke:#CC79A7;stroke-width:10.00"/>
	<line x1="1697.34" y1="741.22" x2="1717.35" y2="745.05" style="stroke:#CC79A7;stroke-width:10.00"/>
	<line x1="1734.89" y1="748.40" x2="1754.98" y2="752.23" style="stroke:#CC79A7;stroke-width:10.00"/>
	<line x1="1772.52" y1="755.49" x2="1792.61" y2="759.40" style="stroke:#CC79A7;stroke-width:10.00"/>
	<line x1="1810.15" y1="762.75" x2="1823.54" y2="765.30" style="stroke:#CC79A7;stroke-width:10.00"/>
	<line x1="1823.54" y1="765.30" x2="1823.54" y2="765.30" style="stroke:#CC79A7;stroke-width:10.00"/>
	<line x1="1823.54" y1="765.30" x2="1823.54" y2="765.30" style="stroke:#CC79A7;stroke-width:10.00"/>
	<line x1="1823.54" y1="765.30" x2="1823.54" y2="765.30" style="stroke:#CC79A7;stroke-width:10.00"/>
	<line x1="1823.54" y1="765.30" x2="1830.24" y2="766.02" style="stroke:#CC79A7;stroke-width:10.00"/>
	<line x1="1848.02" y1="768.01" x2="1868.27" y2="770.24" style="stroke:#CC79A7;stroke-width:10.00"/>
	<line x1="1886.05" y1="772.24" x2="1906.29" y2="774.47" style="stroke:#CC79A7;stroke-width:10.00"/>
	<line x1="1924.07" y1="776.38" x2="1944.32" y2="778.61" style="stroke:#CC79A7;stroke-width:10.00"/>
	<line x1="1962.10" y1="780.61" x2="1982.35" y2="782.84" style="stroke:#CC79A7;stroke-width:10.00"/>
	<line x1="2000.13" y1="784.83" x2="2020.46" y2="787.06" style="stroke:#CC79A7;stroke-width:10.00"/>
	<line x1="2038.15" y1="788.98" x2="2057.13" y2="791.13" style="stroke:#CC79A7;stroke-width:10.00"/>
	<line x1="2057.13" y1="791.13" x2="2057.13" y2="791.13" style="stroke:#CC79A7;stroke-width:10.00"/>
	<line x1="2057.13" y1="791.13" x2="2057.13" y2="791.13" style="stroke:#CC79A7;stroke-width:10.00"/>
	<line x1="2057.13" y1="791.13" x2="2057.13" y2="791.13" style="stroke:#CC79A7;stroke-width:10.00"/>
	<line x1="2057.13" y1="791.13" x2="2058.48" y2="791.05" style="stroke:#CC79A7;stroke-width:10.00"/>
	<line x1="2076.26" y1="790.17" x2="2096.67" y2="789.22" style="stroke:#CC79A7;stroke-width:10.00"/>
	<line x1="2114.45" y1="788.34" x2="2134.86" y2="787.38" style="stroke:#CC79A7;stroke-width:10.00"/>
	<line x1="2152.63" y1="786.51" x2="2173.04" y2="785.55" style="stroke:#CC79A7;stroke-width:10.00"/>
	<line x1="2190.82" y1="784.67" x2="2211.23" y2="783.64" style="stroke:#CC79A7;stroke-width:10.00"/>
	<line x1="2229.09" y1="782.84" x2="2249.41" y2="781.80" style="stroke:#CC79A7;stroke-width:10.00"/>
	<line x1="2267.27" y1="780.92" x2="2287.68" y2="779.89" style="stroke:#CC79A7;stroke-width:10.00"/>
	<line x1="421.73" y1="543.28" x2="421.73" y2="543.28" style="stroke:#A0A0A0;stroke-width:10.00"/>
	<line x1="421.73" y1="543.28" x2="421.73" y2="543.28" style="stroke:#A0A0A0;stroke-width:10.00"/>
	<line x1="421.73" y1="543.28" x2="472.75" y2="542.49" style="stroke:#A0A0A0;stroke-width:10.00"/>
	<line x1="498.26" y1="542.09" x2="549.28" y2="541.21" style="stroke:#A0A0A0;stroke-width:10.00"/>
	<line x1="574.79" y1="540.81" x2="625.81" y2="540.01" style="stroke:#A0A0A0;stroke-width:10.00"/>
	<line x1="651.32" y1="539.62" x2="655.39" y2="539.54" style="stroke:#A0A0A0;stroke-width:10.00"/>
	<line x1="655.39" y1="539.54" x2="655.39" y2="539.54" style="stroke:#A0A0A0;stroke-width:10.00"/>
	<line x1="655.39" y1="539.54" x2="655.39" y2="539.54" style="stroke:#A0A0A0;stroke-width:10.00"/>
	<line x1="655.39" y1="539.54" x2="702.18" y2="536.27" style="stroke:#A0A0A0;stroke-width:10.00"/>
	<line x1="727.70" y1="534.59" x2="778.56" y2="531.09" style="stroke:#A0A0A0;stroke-width:10.00"/>
	<line x1="803.99" y1="529.33" x2="854.93" y2="525.82" style="stroke:#A0A0A0;stroke-width:10.00"/>
	<line x1="880.36" y1="524.07" x2="889.05" y2="523.51" style="stroke:#A0A0A0;stroke-width:10.00"/>
	<line x1="889.05" y1="523.51" x2="889.05" y2="523.51" style="stroke:#A0A0A0;stroke-width:10.00"/>
	<line x1="889.05" y1="523.51" x2="889.05" y2="523.51" style="stroke:#A0A0A0;stroke-width:10.00"/>
	<line x1="889.05" y1="523.51" x2="931.38" y2="522.80" style="stroke:#A0A0A0;stroke-width:10.00"/>
	<line x1="956.89" y1="522.40" x2="1007.92" y2="521.52" style="stroke:#A0A0A0;stroke-width:10.00"/>
	<line x1="1033.43" y1="521.04" x2="1084.45" y2="520.24" style="stroke:#A0A0A0;stroke-width:10.00"/>
	<line x1="1109.96" y1="519.77" x2="1122.63" y2="519.53" style="stroke:#A0A0A0;stroke-width:10.00"/>
	<line x1="1122.63" y1="519.53" x2="1122.63" y2="519.53" style="stroke:#A0A0A0;stroke-width:10.00"/>
	<line x1="1122.63" y1="519.53" x2="1122.63" y2="519.53" style="stroke:#A0A0A0;stroke-width:10.00"/>
	<line x1="1122.63" y1="519.53" x2="1160.74" y2="515.70" style="stroke:#A0A0A0;stroke-width:10.00"/>
	<line x1="1186.17" y1="513.23" x2="1236.95" y2="508.21" style="stroke:#A0A0A0;stroke-width:10.00"/>
	<line x1="1262.39" y1="505.66" x2="1313.17" y2="500.63" style="stroke:#A0A0A0;stroke-width:10.00"/>
	<line x1="1338.52" y1="498.08" x2="1356.30" y2="496.33" style="stroke:#A0A0A0;stroke-width:10.00"/>
	<line x1="1356.30" y1="496.33" x2="1356.30" y2="496.33" style="stroke:#A0A0A0;stroke-width:10.00"/>
	<line x1="1356.30" y1="496.33" x2="1356.30" y2="496.33" style="stroke:#A0A0A0;stroke-width:10.00"/>
	<line x1="1356.30" y1="496.33" x2="1389.46" y2="495.05" style="stroke:#A0A0A0;stroke-width:10.00"/>
	<line x1="1414.89" y1="494.10" x2="1465.91" y2="492.10" style="stroke:#A0A0A0;stroke-width:10.00"/>
	<line x1="1491.42" y1="491.15" x2="1542.37" y2="489.15" style="stroke:#A0A0A0;stroke-width:10.00"/>
	<line x1="1567.88" y1="488.20" x2="1589.88" y2="487.32" style="stroke:#A0A0A0;stroke-width:10.00"/>
	<line x1="1589.88" y1="487.32" x2="1589.88" y2="487.32" style="stroke:#A0A0A0;stroke-width:10.00"/>
	<line x1="1589.88" y1="487.32" x2="1589.88" y2="487.32" style="stroke:#A0A0A0;stroke-width:10.00"/>
	<line x1="1589.88" y1="487.32" x2="1618.90" y2="486.68" style="stroke:#A0A0A0;stroke-width:10.00"/>
	<line x1="1644.41" y1="486.12" x2="1695.43" y2="485.01" style="stroke:#A0A0A0;stroke-width:10.00"/>
	<line x1="1720.94" y1="484.53" x2="1771.96" y2="483.41" style="stroke:#A0A0A0;stroke-width:10.00"/>
	<line x1="1797.47" y1="482.86" x2="1823.54" y2="482.30" style="stroke:#A0A0A0;stroke-width:10.00"/>
	<line x1="1823.54" y1="482.30" x2="1823.54" y2="482.30" style="stroke:#A0A0A0;stroke-width:10.00"/>
	<line x1="1823.54" y1="482.30" x2="1823.54" y2="482.30" style="stroke:#A0A0A0;stroke-width:10.00"/>
	<line x1="1823.54" y1="482.30" x2="1848.50" y2="482.14" style="stroke:#A0A0A0;stroke-width:10.00"/>
	<line x1="1874.01" y1="482.06" x2="1925.03" y2="481.74" style="stroke:#A0A0A0;stroke-width:10.00"/>
	<line x1="1950.54" y1="481.66" x2="2001.56" y2="481.34" style="stroke:#A0A0A0;stroke-width:10.00"/>
	<line x1="2027.07" y1="481.18" x2="2057.13" y2="481.02" style="stroke:#A0A0A0;stroke-width:10.00"/>
	<line x1="2057.13" y1="481.02" x2="2057.13" y2="481.02" style="stroke:#A0A0A0;stroke-width:10.00"/>
	<line x1="2057.13" y1="481.02" x2="2057.13" y2="481.02" style="stroke:#A0A0A0;stroke-width:10.00"/>
	<line x1="2057.13" y1="481.02" x2="2078.01" y2="479.59" style="stroke:#A0A0A0;stroke-width:10.00"/>
	<line x1="2103.44" y1="477.91" x2="2154.39" y2="474.49" style="stroke:#A0A0A0;stroke-width:10.00"/>
	<line x1="2179.82" y1="472.73" x2="2230.76" y2="469.22" style="stroke:#A0A0A0;stroke-width:10.00"/>
	<line x1="2256.19" y1="467.47" x2="2290.79" y2="465.16" style="stroke:#A0A0A0;stroke-width:10.00"/>
	<line x1="2290.79" y1="465.16" x2="2290.79" y2="465.16" style="stroke:#A0A0A0;stroke-width:10.00"/>
	<line x1="2290.79" y1="465.16" x2="2290.79" y2="465.16" style="stroke:#A0A0A0;stroke-width:10.00"/>
	<line x1="365.68" y1="1717.22" x2="330.29" y2="1717.22" style="stroke:#000000;stroke-width:4.00"/>
	<text x="312.51" y="1734.74" style="font-family:'Helvetica';font-size:49.99px;fill:#000000" text-anchor="end">25</text>
	<line x1="365.68" y1="1446.18" x2="330.29" y2="1446.18" style="stroke:#000000;stroke-width:4.00"/>
	<text x="312.51" y="1463.69" style="font-family:'Helvetica';font-size:49.99px;fill:#000000" text-anchor="end">30</text>
	<line x1="365.68" y1="1175.05" x2="330.29" y2="1175.05" style="stroke:#000000;stroke-width:4.00"/>
	<text x="312.51" y="1192.57" style="font-family:'Helvetica';font-size:49.99px;fill:#000000" text-anchor="end">35</text>
	<line x1="365.68" y1="903.93" x2="330.29" y2="903.93" style="stroke:#000000;stroke-width:4.00"/>
	<text x="312.51" y="921.45" style="font-family:'Helvetica';font-size:49.99px;fill:#000000" text-anchor="end">40</text>
	<line x1="365.68" y1="632.89" x2="330.29" y2="632.89" style="stroke:#000000;stroke-width:4.00"/>
	<text x="312.51" y="650.40" style="font-family:'Helvetica';font-size:49.99px;fill:#000000" text-anchor="end">45</text>
	<line x1="365.68" y1="361.76" x2="330.29" y2="361.76" style="stroke:#000000;stroke-width:4.00"/>
	<text x="312.51" y="379.28" style="font-family:'Helvetica';font-size:49.99px;fill:#000000" text-anchor="end">50</text>
	<line x1="365.68" y1="1717.22" x2="365.68" y2="253.35" style="stroke:#000000;stroke-width:4.00"/>
	<text x="136.21" y="947.06" style="font-family:'Helvetica';font-size:60.03px;fill:#000000" transform="rotate(-90 136.21,947.06)" text-anchor="middle">ISEI-88 (employed only)</text>
	<line x1="421.81" y1="1773.34" x2="421.81" y2="1808.82" style="stroke:#000000;stroke-width:4.00"/>
	<text x="421.81" y="1861.46" style="font-family:'Helvetica';font-size:49.99px;fill:#000000" text-anchor="middle">2007</text>
	<line x1="889.05" y1="1773.34" x2="889.05" y2="1808.82" style="stroke:#000000;stroke-width:4.00"/>
	<text x="889.05" y="1861.46" style="font-family:'Helvetica';font-size:49.99px;fill:#000000" text-anchor="middle">2009</text>
	<line x1="1356.30" y1="1773.34" x2="1356.30" y2="1808.82" style="stroke:#000000;stroke-width:4.00"/>
	<text x="1356.30" y="1861.46" style="font-family:'Helvetica';font-size:49.99px;fill:#000000" text-anchor="middle">2011</text>
	<line x1="1823.54" y1="1773.34" x2="1823.54" y2="1808.82" style="stroke:#000000;stroke-width:4.00"/>
	<text x="1823.54" y="1861.46" style="font-family:'Helvetica';font-size:49.99px;fill:#000000" text-anchor="middle">2013</text>
	<line x1="2290.79" y1="1773.34" x2="2290.79" y2="1808.82" style="stroke:#000000;stroke-width:4.00"/>
	<text x="2290.79" y="1861.46" style="font-family:'Helvetica';font-size:49.99px;fill:#000000" text-anchor="middle">2015</text>
	<line x1="421.81" y1="1773.34" x2="2290.79" y2="1773.34" style="stroke:#000000;stroke-width:4.00"/>
	<text x="1318.03" y="2003.86" style="font-family:'Helvetica';font-size:60.03px;fill:#000000" text-anchor="middle">Year</text>
	<text x="145.41" y="2248.05" style="font-family:'Helvetica';font-size:60.03px;fill:#000000">Arr. cohort: </text>
	<text x="536.36" y="2248.05" style="font-family:'Helvetica';font-size:60.03px;fill:#000000">1964-73</text>
	<text x="845.12" y="2248.05" style="font-family:'Helvetica';font-size:60.03px;fill:#000000">1974-83</text>
	<text x="1153.89" y="2248.05" style="font-family:'Helvetica';font-size:60.03px;fill:#000000">1984-93</text>
	<text x="1462.65" y="2248.05" style="font-family:'Helvetica';font-size:60.03px;fill:#000000">1994-03</text>
	<text x="1771.41" y="2248.05" style="font-family:'Helvetica';font-size:60.03px;fill:#000000">2004-10</text>
	<text x="2080.17" y="2248.05" style="font-family:'Helvetica';font-size:60.03px;fill:#000000">German</text>
	<text x="536.36" y="2396.65" style="font-family:'Helvetica';font-size:60.03px;fill:#000000">incl. nat.</text>
	<text x="845.12" y="2396.65" style="font-family:'Helvetica';font-size:60.03px;fill:#000000">incl. nat.</text>
	<text x="1153.89" y="2396.65" style="font-family:'Helvetica';font-size:60.03px;fill:#000000">incl. nat.</text>
	<text x="1462.65" y="2396.65" style="font-family:'Helvetica';font-size:60.03px;fill:#000000">incl. nat.</text>
	<text x="1771.41" y="2396.65" style="font-family:'Helvetica';font-size:60.03px;fill:#000000">incl. nat.</text>
	<line x1="536.36" y1="2152.73" x2="737.26" y2="2152.73" style="stroke:#E69F00;stroke-width:10.00"/>
	<line x1="845.12" y1="2152.73" x2="1046.02" y2="2152.73" style="stroke:#56B4E9;stroke-width:10.00"/>
	<line x1="1153.89" y1="2152.73" x2="1354.78" y2="2152.73" style="stroke:#009E73;stroke-width:10.00"/>
	<line x1="1462.65" y1="2152.73" x2="1663.54" y2="2152.73" style="stroke:#D55E00;stroke-width:10.00"/>
	<line x1="1771.41" y1="2152.73" x2="1972.30" y2="2152.73" style="stroke:#CC79A7;stroke-width:10.00"/>
	<line x1="2080.17" y1="2152.73" x2="2131.19" y2="2152.73" style="stroke:#A0A0A0;stroke-width:10.00"/>
	<line x1="2156.70" y1="2152.73" x2="2207.72" y2="2152.73" style="stroke:#A0A0A0;stroke-width:10.00"/>
	<line x1="2233.23" y1="2152.73" x2="2278.03" y2="2152.73" style="stroke:#A0A0A0;stroke-width:10.00"/>
	<line x1="536.36" y1="2301.32" x2="556.77" y2="2301.32" style="stroke:#E69F00;stroke-width:10.00"/>
	<line x1="574.63" y1="2301.32" x2="595.04" y2="2301.32" style="stroke:#E69F00;stroke-width:10.00"/>
	<line x1="612.90" y1="2301.32" x2="633.31" y2="2301.32" style="stroke:#E69F00;stroke-width:10.00"/>
	<line x1="651.16" y1="2301.32" x2="671.57" y2="2301.32" style="stroke:#E69F00;stroke-width:10.00"/>
	<line x1="689.43" y1="2301.32" x2="709.84" y2="2301.32" style="stroke:#E69F00;stroke-width:10.00"/>
	<line x1="727.70" y1="2301.32" x2="737.26" y2="2301.32" style="stroke:#E69F00;stroke-width:10.00"/>
	<line x1="845.12" y1="2301.32" x2="865.53" y2="2301.32" style="stroke:#56B4E9;stroke-width:10.00"/>
	<line x1="883.39" y1="2301.32" x2="903.80" y2="2301.32" style="stroke:#56B4E9;stroke-width:10.00"/>
	<line x1="921.66" y1="2301.32" x2="942.07" y2="2301.32" style="stroke:#56B4E9;stroke-width:10.00"/>
	<line x1="959.92" y1="2301.32" x2="980.33" y2="2301.32" style="stroke:#56B4E9;stroke-width:10.00"/>
	<line x1="998.19" y1="2301.32" x2="1018.60" y2="2301.32" style="stroke:#56B4E9;stroke-width:10.00"/>
	<line x1="1036.46" y1="2301.32" x2="1046.02" y2="2301.32" style="stroke:#56B4E9;stroke-width:10.00"/>
	<line x1="1153.89" y1="2301.32" x2="1174.29" y2="2301.32" style="stroke:#009E73;stroke-width:10.00"/>
	<line x1="1192.15" y1="2301.32" x2="1212.56" y2="2301.32" style="stroke:#009E73;stroke-width:10.00"/>
	<line x1="1230.42" y1="2301.32" x2="1250.83" y2="2301.32" style="stroke:#009E73;stroke-width:10.00"/>
	<line x1="1268.68" y1="2301.32" x2="1289.09" y2="2301.32" style="stroke:#009E73;stroke-width:10.00"/>
	<line x1="1306.95" y1="2301.32" x2="1327.36" y2="2301.32" style="stroke:#009E73;stroke-width:10.00"/>
	<line x1="1345.22" y1="2301.32" x2="1354.78" y2="2301.32" style="stroke:#009E73;stroke-width:10.00"/>
	<line x1="1462.65" y1="2301.32" x2="1483.05" y2="2301.32" style="stroke:#D55E00;stroke-width:10.00"/>
	<line x1="1500.91" y1="2301.32" x2="1521.32" y2="2301.32" style="stroke:#D55E00;stroke-width:10.00"/>
	<line x1="1539.18" y1="2301.32" x2="1559.59" y2="2301.32" style="stroke:#D55E00;stroke-width:10.00"/>
	<line x1="1577.44" y1="2301.32" x2="1597.85" y2="2301.32" style="stroke:#D55E00;stroke-width:10.00"/>
	<line x1="1615.71" y1="2301.32" x2="1636.12" y2="2301.32" style="stroke:#D55E00;stroke-width:10.00"/>
	<line x1="1653.98" y1="2301.32" x2="1663.54" y2="2301.32" style="stroke:#D55E00;stroke-width:10.00"/>
	<line x1="1771.41" y1="2301.32" x2="1791.81" y2="2301.32" style="stroke:#CC79A7;stroke-width:10.00"/>
	<line x1="1809.67" y1="2301.32" x2="1830.08" y2="2301.32" style="stroke:#CC79A7;stroke-width:10.00"/>
	<line x1="1847.94" y1="2301.32" x2="1868.35" y2="2301.32" style="stroke:#CC79A7;stroke-width:10.00"/>
	<line x1="1886.20" y1="2301.32" x2="1906.61" y2="2301.32" style="stroke:#CC79A7;stroke-width:10.00"/>
	<line x1="1924.47" y1="2301.32" x2="1944.88" y2="2301.32" style="stroke:#CC79A7;stroke-width:10.00"/>
	<line x1="1962.74" y1="2301.32" x2="1972.30" y2="2301.32" style="stroke:#CC79A7;stroke-width:10.00"/>
	<text x="1356.30" y="154.88" style="font-family:'Helvetica';font-size:90.01px;fill:#000000" text-anchor="middle">Men</text>
</svg>
