<?xml version="1.0" encoding="UTF-8" standalone="no"?>
<!-- This is a Stata 15.1 generated SVG file (http://www.stata.com) -->

<svg version="1.1" width="7.09in" height="3.54in" viewBox="0 0 5102 2551" xmlns="http://www.w3.org/2000/svg" xmlns:xlink="http://www.w3.org/1999/xlink">
	<desc>Stata Graph - Graph</desc>
	<rect x="0" y="0" width="5102" height="2551" style="fill:#FFFFFF;stroke:none"/>
	<rect x="0.00" y="0.00" width="5101.68" height="2551.00" style="fill:#FFFFFF"/>
	<rect x="2.55" y="2.55" width="5096.58" height="2545.90" style="fill:none;stroke:#FFFFFF;stroke-width:5.10"/>
	<line x1="351.08" y1="1954.35" x2="4897.60" y2="1954.35" style="stroke:#E8E8E8;stroke-width:4.00"/>
	<line x1="351.08" y1="1424.34" x2="4897.60" y2="1424.34" style="stroke:#E8E8E8;stroke-width:4.00"/>
	<line x1="351.08" y1="894.34" x2="4897.60" y2="894.34" style="stroke:#E8E8E8;stroke-width:4.00"/>
	<line x1="351.08" y1="364.34" x2="4897.60" y2="364.34" style="stroke:#E8E8E8;stroke-width:4.00"/>
	<line x1="451.05" y1="2010.47" x2="451.05" y2="308.21" style="stroke:#E8E8E8;stroke-width:4.00"/>
	<line x1="999.83" y1="2010.47" x2="999.83" y2="308.21" style="stroke:#E8E8E8;stroke-width:4.00"/>
	<line x1="1548.62" y1="2010.47" x2="1548.62" y2="308.21" style="stroke:#E8E8E8;stroke-width:4.00"/>
	<line x1="2097.56" y1="2010.47" x2="2097.56" y2="308.21" style="stroke:#E8E8E8;stroke-width:4.00"/>
	<line x1="2646.34" y1="2010.47" x2="2646.34" y2="308.21" style="stroke:#E8E8E8;stroke-width:4.00"/>
	<line x1="3195.13" y1="2010.47" x2="3195.13" y2="308.21" style="stroke:#E8E8E8;stroke-width:4.00"/>
	<line x1="3743.91" y1="2010.47" x2="3743.91" y2="308.21" style="stroke:#E8E8E8;stroke-width:4.00"/>
	<line x1="4292.70" y1="2010.47" x2="4292.70" y2="308.21" style="stroke:#E8E8E8;stroke-width:4.00"/>
	<line x1="4841.48" y1="2010.47" x2="4841.48" y2="308.21" style="stroke:#E8E8E8;stroke-width:4.00"/>
	<rect x="407.20" y="1195.38" width="43.85" height="758.97" style="fill:#EBB233"/>
	<rect x="409.75" y="1197.93" width="38.74" height="753.87" style="fill:none;stroke:#E69F00;stroke-width:5.10"/>
	<rect x="626.75" y="1375.71" width="43.85" height="578.63" style="fill:#EBB233"/>
	<rect x="629.30" y="1378.26" width="38.74" height="573.53" style="fill:none;stroke:#E69F00;stroke-width:5.10"/>
	<rect x="846.29" y="1516.35" width="43.85" height="438.00" style="fill:#EBB233"/>
	<rect x="848.85" y="1518.90" width="38.74" height="432.90" style="fill:none;stroke:#E69F00;stroke-width:5.10"/>
	<rect x="1065.68" y="1554.61" width="44.00" height="399.73" style="fill:#EBB233"/>
	<rect x="1068.23" y="1557.16" width="38.90" height="394.63" style="fill:none;stroke:#E69F00;stroke-width:5.10"/>
	<rect x="1395.08" y="1682.97" width="43.85" height="271.38" style="fill:#EBB233"/>
	<rect x="1397.63" y="1685.52" width="38.74" height="266.28" style="fill:none;stroke:#E69F00;stroke-width:5.10"/>
	<rect x="1614.62" y="1364.07" width="43.85" height="590.27" style="fill:#EBB233"/>
	<rect x="1617.17" y="1366.62" width="38.74" height="585.17" style="fill:none;stroke:#E69F00;stroke-width:5.10"/>
	<rect x="1834.01" y="1680.74" width="44.00" height="273.61" style="fill:#EBB233"/>
	<rect x="1836.56" y="1683.29" width="38.90" height="268.51" style="fill:none;stroke:#E69F00;stroke-width:5.10"/>
	<rect x="2053.55" y="1387.99" width="44.00" height="566.36" style="fill:#EBB233"/>
	<rect x="2056.11" y="1390.54" width="38.90" height="561.26" style="fill:none;stroke:#E69F00;stroke-width:5.10"/>
	<rect x="2273.10" y="1426.42" width="43.85" height="527.93" style="fill:#EBB233"/>
	<rect x="2275.65" y="1428.97" width="38.74" height="522.83" style="fill:none;stroke:#E69F00;stroke-width:5.10"/>
	<rect x="2492.65" y="1627.64" width="43.85" height="326.71" style="fill:#EBB233"/>
	<rect x="2495.20" y="1630.19" width="38.74" height="321.61" style="fill:none;stroke:#E69F00;stroke-width:5.10"/>
	<rect x="2602.34" y="1241.94" width="44.00" height="712.41" style="fill:#EBB233"/>
	<rect x="2604.89" y="1244.49" width="38.90" height="707.31" style="fill:none;stroke:#E69F00;stroke-width:5.10"/>
	<rect x="2712.19" y="1035.29" width="43.85" height="919.06" style="fill:#EBB233"/>
	<rect x="2714.74" y="1037.84" width="38.74" height="913.95" style="fill:none;stroke:#E69F00;stroke-width:5.10"/>
	<rect x="2821.88" y="963.38" width="44.00" height="990.97" style="fill:#EBB233"/>
	<rect x="2824.44" y="965.93" width="38.90" height="985.86" style="fill:none;stroke:#E69F00;stroke-width:5.10"/>
	<rect x="2931.74" y="787.99" width="43.85" height="1166.36" style="fill:#EBB233"/>
	<rect x="2934.29" y="790.54" width="38.74" height="1161.26" style="fill:none;stroke:#E69F00;stroke-width:5.10"/>
	<rect x="3041.43" y="837.58" width="43.85" height="1116.77" style="fill:#EBB233"/>
	<rect x="3043.98" y="840.13" width="38.74" height="1111.67" style="fill:none;stroke:#E69F00;stroke-width:5.10"/>
	<rect x="3151.12" y="699.34" width="44.00" height="1255.01" style="fill:#EBB233"/>
	<rect x="3153.67" y="701.89" width="38.90" height="1249.91" style="fill:none;stroke:#E69F00;stroke-width:5.10"/>
	<rect x="3260.98" y="739.68" width="43.85" height="1214.67" style="fill:#EBB233"/>
	<rect x="3263.53" y="742.23" width="38.74" height="1209.57" style="fill:none;stroke:#E69F00;stroke-width:5.10"/>
	<rect x="3370.67" y="869.47" width="44.00" height="1084.88" style="fill:#EBB233"/>
	<rect x="3373.22" y="872.02" width="38.90" height="1079.78" style="fill:none;stroke:#E69F00;stroke-width:5.10"/>
	<rect x="3480.52" y="611.16" width="43.85" height="1343.19" style="fill:#EBB233"/>
	<rect x="3483.07" y="613.71" width="38.74" height="1338.08" style="fill:none;stroke:#E69F00;stroke-width:5.10"/>
	<rect x="3590.21" y="1308.59" width="44.00" height="645.76" style="fill:#EBB233"/>
	<rect x="3592.76" y="1311.14" width="38.90" height="640.66" style="fill:none;stroke:#E69F00;stroke-width:5.10"/>
	<rect x="3700.07" y="1785.01" width="43.85" height="169.33" style="fill:#EBB233"/>
	<rect x="3702.62" y="1787.57" width="38.74" height="164.23" style="fill:none;stroke:#E69F00;stroke-width:5.10"/>
	<rect x="3809.76" y="1825.83" width="43.85" height="128.51" style="fill:#EBB233"/>
	<rect x="3812.31" y="1828.38" width="38.74" height="123.41" style="fill:none;stroke:#E69F00;stroke-width:5.10"/>
	<rect x="3919.45" y="1810.05" width="44.00" height="144.30" style="fill:#EBB233"/>
	<rect x="3922.00" y="1812.60" width="38.90" height="139.20" style="fill:none;stroke:#E69F00;stroke-width:5.10"/>
	<rect x="4029.30" y="1812.60" width="43.85" height="141.75" style="fill:#EBB233"/>
	<rect x="4031.86" y="1815.15" width="38.74" height="136.65" style="fill:none;stroke:#E69F00;stroke-width:5.10"/>
	<rect x="4139.00" y="1811.80" width="44.00" height="142.55" style="fill:#EBB233"/>
	<rect x="4141.55" y="1814.35" width="38.90" height="137.44" style="fill:none;stroke:#E69F00;stroke-width:5.10"/>
	<rect x="4248.85" y="1857.56" width="43.85" height="96.78" style="fill:#EBB233"/>
	<rect x="4251.40" y="1860.11" width="38.74" height="91.68" style="fill:none;stroke:#E69F00;stroke-width:5.10"/>
	<rect x="4358.54" y="1888.50" width="43.85" height="65.85" style="fill:#EBB233"/>
	<rect x="4361.09" y="1891.05" width="38.74" height="60.75" style="fill:none;stroke:#E69F00;stroke-width:5.10"/>
	<rect x="4468.40" y="1889.77" width="43.85" height="64.58" style="fill:#EBB233"/>
	<rect x="4470.95" y="1892.32" width="38.74" height="59.47" style="fill:none;stroke:#E69F00;stroke-width:5.10"/>
	<rect x="4578.09" y="1896.47" width="43.85" height="57.88" style="fill:#EBB233"/>
	<rect x="4580.64" y="1899.02" width="38.74" height="52.78" style="fill:none;stroke:#E69F00;stroke-width:5.10"/>
	<rect x="4687.78" y="1895.03" width="44.00" height="59.31" style="fill:#EBB233"/>
	<rect x="4690.33" y="1897.58" width="38.90" height="54.21" style="fill:none;stroke:#E69F00;stroke-width:5.10"/>
	<rect x="451.05" y="1275.58" width="44.00" height="678.77" style="fill:#F8E2B3"/>
	<rect x="453.60" y="1278.13" width="38.90" height="673.67" style="fill:none;stroke:#E69F00;stroke-width:5.10"/>
	<rect x="670.59" y="1449.38" width="43.85" height="504.97" style="fill:#F8E2B3"/>
	<rect x="673.14" y="1451.93" width="38.74" height="499.87" style="fill:none;stroke:#E69F00;stroke-width:5.10"/>
	<rect x="890.14" y="1557.32" width="43.85" height="397.02" style="fill:#F8E2B3"/>
	<rect x="892.69" y="1559.87" width="38.74" height="391.92" style="fill:none;stroke:#E69F00;stroke-width:5.10"/>
	<rect x="1109.68" y="1626.20" width="43.85" height="328.14" style="fill:#F8E2B3"/>
	<rect x="1112.24" y="1628.76" width="38.74" height="323.04" style="fill:none;stroke:#E69F00;stroke-width:5.10"/>
	<rect x="1438.92" y="1679.78" width="43.85" height="274.57" style="fill:#F8E2B3"/>
	<rect x="1441.47" y="1682.33" width="38.74" height="269.47" style="fill:none;stroke:#E69F00;stroke-width:5.10"/>
	<rect x="1658.47" y="1369.81" width="43.85" height="584.53" style="fill:#F8E2B3"/>
	<rect x="1661.02" y="1372.36" width="38.74" height="579.43" style="fill:none;stroke:#E69F00;stroke-width:5.10"/>
	<rect x="1878.01" y="1685.52" width="43.85" height="268.83" style="fill:#F8E2B3"/>
	<rect x="1880.57" y="1688.07" width="38.74" height="263.73" style="fill:none;stroke:#E69F00;stroke-width:5.10"/>
	<rect x="2097.56" y="1434.39" width="43.85" height="519.96" style="fill:#F8E2B3"/>
	<rect x="2100.11" y="1436.94" width="38.74" height="514.86" style="fill:none;stroke:#E69F00;stroke-width:5.10"/>
	<rect x="2316.95" y="1510.92" width="44.00" height="443.42" style="fill:#F8E2B3"/>
	<rect x="2319.50" y="1513.48" width="38.90" height="438.32" style="fill:none;stroke:#E69F00;stroke-width:5.10"/>
	<rect x="2536.49" y="1651.24" width="44.00" height="303.11" style="fill:#F8E2B3"/>
	<rect x="2539.04" y="1653.79" width="38.90" height="298.01" style="fill:none;stroke:#E69F00;stroke-width:5.10"/>
	<rect x="2646.34" y="1220.25" width="43.85" height="734.10" style="fill:#F8E2B3"/>
	<rect x="2648.89" y="1222.80" width="38.74" height="728.99" style="fill:none;stroke:#E69F00;stroke-width:5.10"/>
	<rect x="2756.04" y="959.87" width="43.85" height="994.47" style="fill:#F8E2B3"/>
	<rect x="2758.59" y="962.42" width="38.74" height="989.37" style="fill:none;stroke:#E69F00;stroke-width:5.10"/>
	<rect x="2865.73" y="866.76" width="44.00" height="1087.59" style="fill:#F8E2B3"/>
	<rect x="2868.28" y="869.31" width="38.90" height="1082.49" style="fill:none;stroke:#E69F00;stroke-width:5.10"/>
	<rect x="2975.58" y="718.79" width="43.85" height="1235.56" style="fill:#F8E2B3"/>
	<rect x="2978.13" y="721.34" width="38.74" height="1230.46" style="fill:none;stroke:#E69F00;stroke-width:5.10"/>
	<rect x="3085.28" y="737.92" width="44.00" height="1216.42" style="fill:#F8E2B3"/>
	<rect x="3087.83" y="740.47" width="38.90" height="1211.32" style="fill:none;stroke:#E69F00;stroke-width:5.10"/>
	<rect x="3195.13" y="640.98" width="43.85" height="1313.37" style="fill:#F8E2B3"/>
	<rect x="3197.68" y="643.53" width="38.74" height="1308.27" style="fill:none;stroke:#E69F00;stroke-width:5.10"/>
	<rect x="3304.82" y="581.66" width="44.00" height="1372.68" style="fill:#F8E2B3"/>
	<rect x="3307.37" y="584.22" width="38.90" height="1367.58" style="fill:none;stroke:#E69F00;stroke-width:5.10"/>
	<rect x="3414.67" y="720.22" width="43.85" height="1234.12" style="fill:#F8E2B3"/>
	<rect x="3417.22" y="722.78" width="38.74" height="1229.02" style="fill:none;stroke:#E69F00;stroke-width:5.10"/>
	<rect x="3524.37" y="501.78" width="43.85" height="1452.57" style="fill:#F8E2B3"/>
	<rect x="3526.92" y="504.33" width="38.74" height="1447.46" style="fill:none;stroke:#E69F00;stroke-width:5.10"/>
	<rect x="3634.06" y="1262.19" width="44.00" height="692.16" style="fill:#F8E2B3"/>
	<rect x="3636.61" y="1264.74" width="38.90" height="687.06" style="fill:none;stroke:#E69F00;stroke-width:5.10"/>
	<rect x="3743.91" y="1786.45" width="43.85" height="167.90" style="fill:#F8E2B3"/>
	<rect x="3746.46" y="1789.00" width="38.74" height="162.80" style="fill:none;stroke:#E69F00;stroke-width:5.10"/>
	<rect x="3853.60" y="1820.89" width="44.00" height="133.46" style="fill:#F8E2B3"/>
	<rect x="3856.16" y="1823.44" width="38.90" height="128.36" style="fill:none;stroke:#E69F00;stroke-width:5.10"/>
	<rect x="3963.46" y="1801.92" width="43.85" height="152.43" style="fill:#F8E2B3"/>
	<rect x="3966.01" y="1804.47" width="38.74" height="147.33" style="fill:none;stroke:#E69F00;stroke-width:5.10"/>
	<rect x="4073.15" y="1791.23" width="43.85" height="163.11" style="fill:#F8E2B3"/>
	<rect x="4075.70" y="1793.78" width="38.74" height="158.01" style="fill:none;stroke:#E69F00;stroke-width:5.10"/>
	<rect x="4183.00" y="1802.87" width="43.85" height="151.48" style="fill:#F8E2B3"/>
	<rect x="4185.55" y="1805.42" width="38.74" height="146.37" style="fill:none;stroke:#E69F00;stroke-width:5.10"/>
	<rect x="4292.70" y="1835.72" width="43.85" height="118.63" style="fill:#F8E2B3"/>
	<rect x="4295.25" y="1838.27" width="38.74" height="113.53" style="fill:none;stroke:#E69F00;stroke-width:5.10"/>
	<rect x="4402.39" y="1888.34" width="44.00" height="66.01" style="fill:#F8E2B3"/>
	<rect x="4404.94" y="1890.89" width="38.90" height="60.91" style="fill:none;stroke:#E69F00;stroke-width:5.10"/>
	<rect x="4512.24" y="1876.86" width="43.85" height="77.49" style="fill:#F8E2B3"/>
	<rect x="4514.79" y="1879.41" width="38.74" height="72.39" style="fill:none;stroke:#E69F00;stroke-width:5.10"/>
	<rect x="4621.93" y="1882.92" width="44.00" height="71.43" style="fill:#F8E2B3"/>
	<rect x="4624.48" y="1885.47" width="38.90" height="66.33" style="fill:none;stroke:#E69F00;stroke-width:5.10"/>
	<rect x="4731.79" y="1881.64" width="43.85" height="72.71" style="fill:#F8E2B3"/>
	<rect x="4734.34" y="1884.19" width="38.74" height="67.61" style="fill:none;stroke:#E69F00;stroke-width:5.10"/>
	<line x1="351.08" y1="1954.35" x2="315.69" y2="1954.35" style="stroke:#000000;stroke-width:4.00"/>
	<text x="297.99" y="1971.91" style="font-family:'Helvetica';font-size:50.06px;fill:#000000" text-anchor="end">0</text>
	<line x1="351.08" y1="1424.34" x2="315.69" y2="1424.34" style="stroke:#000000;stroke-width:4.00"/>
	<text x="297.99" y="1441.91" style="font-family:'Helvetica';font-size:50.06px;fill:#000000" text-anchor="end">.1</text>
	<line x1="351.08" y1="894.34" x2="315.69" y2="894.34" style="stroke:#000000;stroke-width:4.00"/>
	<text x="297.99" y="911.90" style="font-family:'Helvetica';font-size:50.06px;fill:#000000" text-anchor="end">.2</text>
	<line x1="351.08" y1="364.34" x2="315.69" y2="364.34" style="stroke:#000000;stroke-width:4.00"/>
	<text x="297.99" y="381.90" style="font-family:'Helvetica';font-size:50.06px;fill:#000000" text-anchor="end">.3</text>
	<line x1="351.08" y1="1954.35" x2="351.08" y2="364.34" style="stroke:#000000;stroke-width:4.00"/>
	<text x="136.11" y="1121.08" style="font-family:'Helvetica';font-size:59.95px;fill:#000000" transform="rotate(-90 136.11,1121.08)" text-anchor="middle">Share with missing information (percent)</text>
	<line x1="451.05" y1="2010.47" x2="451.05" y2="2045.87" style="stroke:#000000;stroke-width:4.00"/>
	<text x="451.05" y="2098.54" style="font-family:'Helvetica';font-size:50.06px;fill:#000000" text-anchor="middle">1976</text>
	<line x1="999.83" y1="2010.47" x2="999.83" y2="2045.87" style="stroke:#000000;stroke-width:4.00"/>
	<text x="999.83" y="2098.54" style="font-family:'Helvetica';font-size:50.06px;fill:#000000" text-anchor="middle">1981</text>
	<line x1="1548.62" y1="2010.47" x2="1548.62" y2="2045.87" style="stroke:#000000;stroke-width:4.00"/>
	<text x="1548.62" y="2098.54" style="font-family:'Helvetica';font-size:50.06px;fill:#000000" text-anchor="middle">1986</text>
	<line x1="2097.56" y1="2010.47" x2="2097.56" y2="2045.87" style="stroke:#000000;stroke-width:4.00"/>
	<text x="2097.56" y="2098.54" style="font-family:'Helvetica';font-size:50.06px;fill:#000000" text-anchor="middle">1991</text>
	<line x1="2646.34" y1="2010.47" x2="2646.34" y2="2045.87" style="stroke:#000000;stroke-width:4.00"/>
	<text x="2646.34" y="2098.54" style="font-family:'Helvetica';font-size:50.06px;fill:#000000" text-anchor="middle">1996</text>
	<line x1="3195.13" y1="2010.47" x2="3195.13" y2="2045.87" style="stroke:#000000;stroke-width:4.00"/>
	<text x="3195.13" y="2098.54" style="font-family:'Helvetica';font-size:50.06px;fill:#000000" text-anchor="middle">2001</text>
	<line x1="3743.91" y1="2010.47" x2="3743.91" y2="2045.87" style="stroke:#000000;stroke-width:4.00"/>
	<text x="3743.91" y="2098.54" style="font-family:'Helvetica';font-size:50.06px;fill:#000000" text-anchor="middle">2006</text>
	<line x1="4292.70" y1="2010.47" x2="4292.70" y2="2045.87" style="stroke:#000000;stroke-width:4.00"/>
	<text x="4292.70" y="2098.54" style="font-family:'Helvetica';font-size:50.06px;fill:#000000" text-anchor="middle">2011</text>
	<line x1="4841.48" y1="2010.47" x2="4841.48" y2="2045.87" style="stroke:#000000;stroke-width:4.00"/>
	<text x="4841.48" y="2098.54" style="font-family:'Helvetica';font-size:50.06px;fill:#000000" text-anchor="middle">2016</text>
	<line x1="451.05" y1="2010.47" x2="4841.48" y2="2010.47" style="stroke:#000000;stroke-width:4.00"/>
	<text x="2586.08" y="2240.99" style="font-family:'Helvetica';font-size:59.95px;fill:#000000" text-anchor="middle">Year</text>
	<rect x="2322.69" y="2350.57" width="49.90" height="50.07" style="fill:#EBB233"/>
	<rect x="2325.24" y="2353.13" width="44.80" height="44.96" style="fill:none;stroke:#E69F00;stroke-width:5.10"/>
	<rect x="2737.06" y="2350.57" width="50.06" height="50.07" style="fill:#F8E2B3"/>
	<rect x="2739.61" y="2353.13" width="44.96" height="44.96" style="fill:none;stroke:#E69F00;stroke-width:5.10"/>
	<text x="2392.68" y="2396.63" style="font-family:'Helvetica';font-size:59.95px;fill:#000000">Women</text>
	<text x="2807.06" y="2396.63" style="font-family:'Helvetica';font-size:59.95px;fill:#000000">Men</text>
	<text x="2624.34" y="239.12" style="font-family:'Helvetica';font-size:59.95px;fill:#000000" text-anchor="middle">By Year</text>
	<text x="2624.34" y="154.71" style="font-family:'Helvetica';font-size:89.92px;fill:#000000" text-anchor="middle">Non-reponse on arrival year variable</text>
</svg>
