<?xml version="1.0" encoding="UTF-8" standalone="no"?>
<!-- This is a Stata 15.1 generated SVG file (http://www.stata.com) -->

<svg version="1.1" width="3.54in" height="3.54in" viewBox="0 0 2551 2551" xmlns="http://www.w3.org/2000/svg" xmlns:xlink="http://www.w3.org/1999/xlink">
	<desc>Stata Graph - Graph</desc>
	<rect x="0" y="0" width="2551" height="2551" style="fill:#FFFFFF;stroke:none"/>
	<rect x="0.00" y="0.08" width="2551.00" height="2550.92" style="fill:#FFFFFF"/>
	<rect x="2.55" y="2.63" width="2545.90" height="2545.82" style="fill:none;stroke:#FFFFFF;stroke-width:5.10"/>
	<line x1="394.86" y1="1904.40" x2="2346.91" y2="1904.40" style="stroke:#E8E8E8;stroke-width:4.00"/>
	<line x1="394.86" y1="1491.62" x2="2346.91" y2="1491.62" style="stroke:#E8E8E8;stroke-width:4.00"/>
	<line x1="394.86" y1="1078.83" x2="2346.91" y2="1078.83" style="stroke:#E8E8E8;stroke-width:4.00"/>
	<line x1="394.86" y1="666.13" x2="2346.91" y2="666.13" style="stroke:#E8E8E8;stroke-width:4.00"/>
	<line x1="394.86" y1="253.35" x2="2346.91" y2="253.35" style="stroke:#E8E8E8;stroke-width:4.00"/>
	<line x1="450.98" y1="1960.52" x2="450.98" y2="197.22" style="stroke:#E8E8E8;stroke-width:4.00"/>
	<line x1="747.71" y1="1960.52" x2="747.71" y2="197.22" style="stroke:#E8E8E8;stroke-width:4.00"/>
	<line x1="1044.43" y1="1960.52" x2="1044.43" y2="197.22" style="stroke:#E8E8E8;stroke-width:4.00"/>
	<line x1="1341.23" y1="1960.52" x2="1341.23" y2="197.22" style="stroke:#E8E8E8;stroke-width:4.00"/>
	<line x1="1637.95" y1="1960.52" x2="1637.95" y2="197.22" style="stroke:#E8E8E8;stroke-width:4.00"/>
	<line x1="1934.68" y1="1960.52" x2="1934.68" y2="197.22" style="stroke:#E8E8E8;stroke-width:4.00"/>
	<line x1="2231.48" y1="1960.52" x2="2231.48" y2="197.22" style="stroke:#E8E8E8;stroke-width:4.00"/>
	<line x1="1163.13" y1="1357.21" x2="1222.45" y2="1534.27" stroke-linecap="round" style="stroke:#E69F00;stroke-width:10.00"/>
	<line x1="1222.45" y1="1534.27" x2="1281.84" y2="1412.54" stroke-linecap="round" style="stroke:#E69F00;stroke-width:10.00"/>
	<line x1="1281.84" y1="1412.54" x2="1341.15" y2="1417.48" stroke-linecap="round" style="stroke:#E69F00;stroke-width:10.00"/>
	<line x1="1341.15" y1="1417.48" x2="1400.54" y2="1328.43" stroke-linecap="round" style="stroke:#E69F00;stroke-width:10.00"/>
	<line x1="1400.54" y1="1328.43" x2="1459.86" y2="1426.81" stroke-linecap="round" style="stroke:#E69F00;stroke-width:10.00"/>
	<line x1="1459.86" y1="1426.81" x2="1519.25" y2="1413.41" stroke-linecap="round" style="stroke:#E69F00;stroke-width:10.00"/>
	<line x1="1519.25" y1="1413.41" x2="1578.56" y2="1496.88" stroke-linecap="round" style="stroke:#E69F00;stroke-width:10.00"/>
	<line x1="1578.56" y1="1496.88" x2="1637.95" y2="1394.84" stroke-linecap="round" style="stroke:#E69F00;stroke-width:10.00"/>
	<line x1="1637.95" y1="1394.84" x2="1697.27" y2="1444.50" stroke-linecap="round" style="stroke:#E69F00;stroke-width:10.00"/>
	<line x1="1697.27" y1="1444.50" x2="1756.58" y2="1469.93" stroke-linecap="round" style="stroke:#E69F00;stroke-width:10.00"/>
	<line x1="1756.58" y1="1469.93" x2="1815.97" y2="1386.39" stroke-linecap="round" style="stroke:#E69F00;stroke-width:10.00"/>
	<line x1="1815.97" y1="1386.39" x2="1875.28" y2="1437.49" stroke-linecap="round" style="stroke:#E69F00;stroke-width:10.00"/>
	<line x1="1875.28" y1="1437.49" x2="1934.68" y2="1369.57" stroke-linecap="round" style="stroke:#E69F00;stroke-width:10.00"/>
	<line x1="1934.68" y1="1369.57" x2="1993.99" y2="1409.99" stroke-linecap="round" style="stroke:#E69F00;stroke-width:10.00"/>
	<line x1="1993.99" y1="1409.99" x2="2053.38" y2="1406.08" stroke-linecap="round" style="stroke:#E69F00;stroke-width:10.00"/>
	<line x1="2053.38" y1="1406.08" x2="2112.69" y2="1473.68" stroke-linecap="round" style="stroke:#E69F00;stroke-width:10.00"/>
	<line x1="2112.69" y1="1473.68" x2="2172.08" y2="1557.31" stroke-linecap="round" style="stroke:#E69F00;stroke-width:10.00"/>
	<line x1="2172.08" y1="1557.31" x2="2231.40" y2="1565.44" stroke-linecap="round" style="stroke:#E69F00;stroke-width:10.00"/>
	<line x1="569.61" y1="1607.77" x2="629.00" y2="1696.49" stroke-linecap="round" style="stroke:#56B4E9;stroke-width:10.00"/>
	<line x1="629.00" y1="1696.49" x2="688.31" y2="1624.67" stroke-linecap="round" style="stroke:#56B4E9;stroke-width:10.00"/>
	<line x1="688.31" y1="1624.67" x2="747.71" y2="1654.80" stroke-linecap="round" style="stroke:#56B4E9;stroke-width:10.00"/>
	<line x1="747.71" y1="1654.80" x2="807.02" y2="1589.59" stroke-linecap="round" style="stroke:#56B4E9;stroke-width:10.00"/>
	<line x1="807.02" y1="1589.59" x2="866.41" y2="1657.43" stroke-linecap="round" style="stroke:#56B4E9;stroke-width:10.00"/>
	<line x1="866.41" y1="1657.43" x2="925.72" y2="1621.72" stroke-linecap="round" style="stroke:#56B4E9;stroke-width:10.00"/>
	<line x1="925.72" y1="1621.72" x2="985.04" y2="1679.83" stroke-linecap="round" style="stroke:#56B4E9;stroke-width:10.00"/>
	<line x1="985.04" y1="1679.83" x2="1044.43" y2="1650.82" stroke-linecap="round" style="stroke:#56B4E9;stroke-width:10.00"/>
	<line x1="1044.43" y1="1650.82" x2="1103.74" y2="1661.98" stroke-linecap="round" style="stroke:#56B4E9;stroke-width:10.00"/>
	<line x1="1103.74" y1="1661.98" x2="1163.13" y2="1706.22" stroke-linecap="round" style="stroke:#56B4E9;stroke-width:10.00"/>
	<line x1="1163.13" y1="1706.22" x2="1222.45" y2="1638.78" stroke-linecap="round" style="stroke:#56B4E9;stroke-width:10.00"/>
	<line x1="1222.45" y1="1638.78" x2="1281.84" y2="1691.23" stroke-linecap="round" style="stroke:#56B4E9;stroke-width:10.00"/>
	<line x1="1281.84" y1="1691.23" x2="1341.15" y2="1635.51" stroke-linecap="round" style="stroke:#56B4E9;stroke-width:10.00"/>
	<line x1="1341.15" y1="1635.51" x2="1400.54" y2="1657.03" stroke-linecap="round" style="stroke:#56B4E9;stroke-width:10.00"/>
	<line x1="1400.54" y1="1657.03" x2="1459.86" y2="1628.89" stroke-linecap="round" style="stroke:#56B4E9;stroke-width:10.00"/>
	<line x1="1459.86" y1="1628.89" x2="1519.25" y2="1652.49" stroke-linecap="round" style="stroke:#56B4E9;stroke-width:10.00"/>
	<line x1="1519.25" y1="1652.49" x2="1578.56" y2="1660.86" stroke-linecap="round" style="stroke:#56B4E9;stroke-width:10.00"/>
	<line x1="1578.56" y1="1660.86" x2="1637.95" y2="1611.75" stroke-linecap="round" style="stroke:#56B4E9;stroke-width:10.00"/>
	<line x1="1637.95" y1="1611.75" x2="1697.27" y2="1650.82" stroke-linecap="round" style="stroke:#56B4E9;stroke-width:10.00"/>
	<line x1="1697.27" y1="1650.82" x2="1756.58" y2="1646.43" stroke-linecap="round" style="stroke:#56B4E9;stroke-width:10.00"/>
	<line x1="1756.58" y1="1646.43" x2="1815.97" y2="1666.36" stroke-linecap="round" style="stroke:#56B4E9;stroke-width:10.00"/>
	<line x1="1815.97" y1="1666.36" x2="1875.28" y2="1677.84" stroke-linecap="round" style="stroke:#56B4E9;stroke-width:10.00"/>
	<line x1="1875.28" y1="1677.84" x2="1934.68" y2="1675.13" stroke-linecap="round" style="stroke:#56B4E9;stroke-width:10.00"/>
	<line x1="1934.68" y1="1675.13" x2="1993.99" y2="1693.07" stroke-linecap="round" style="stroke:#56B4E9;stroke-width:10.00"/>
	<line x1="1993.99" y1="1693.07" x2="2053.38" y2="1701.28" stroke-linecap="round" style="stroke:#56B4E9;stroke-width:10.00"/>
	<line x1="2053.38" y1="1701.28" x2="2112.69" y2="1722.32" stroke-linecap="round" style="stroke:#56B4E9;stroke-width:10.00"/>
	<line x1="2112.69" y1="1722.32" x2="2172.08" y2="1737.79" stroke-linecap="round" style="stroke:#56B4E9;stroke-width:10.00"/>
	<line x1="2172.08" y1="1737.79" x2="2231.40" y2="1744.09" stroke-linecap="round" style="stroke:#56B4E9;stroke-width:10.00"/>
	<line x1="510.30" y1="1289.69" x2="569.61" y2="1308.74" stroke-linecap="round" style="stroke:#009E73;stroke-width:10.00"/>
	<line x1="569.61" y1="1308.74" x2="629.00" y2="1159.59" stroke-linecap="round" style="stroke:#009E73;stroke-width:10.00"/>
	<line x1="629.00" y1="1159.59" x2="688.31" y2="1140.78" stroke-linecap="round" style="stroke:#009E73;stroke-width:10.00"/>
	<line x1="688.31" y1="1140.78" x2="747.71" y2="1068.47" stroke-linecap="round" style="stroke:#009E73;stroke-width:10.00"/>
	<line x1="747.71" y1="1068.47" x2="807.02" y2="1130.97" stroke-linecap="round" style="stroke:#009E73;stroke-width:10.00"/>
	<line x1="807.02" y1="1130.97" x2="866.41" y2="1110.64" stroke-linecap="round" style="stroke:#009E73;stroke-width:10.00"/>
	<line x1="866.41" y1="1110.64" x2="925.72" y2="1128.02" stroke-linecap="round" style="stroke:#009E73;stroke-width:10.00"/>
	<line x1="925.72" y1="1128.02" x2="985.04" y2="1201.68" stroke-linecap="round" style="stroke:#009E73;stroke-width:10.00"/>
	<line x1="985.04" y1="1201.68" x2="1044.43" y2="1131.37" stroke-linecap="round" style="stroke:#009E73;stroke-width:10.00"/>
	<line x1="1044.43" y1="1131.37" x2="1103.74" y2="1194.43" stroke-linecap="round" style="stroke:#009E73;stroke-width:10.00"/>
	<line x1="1103.74" y1="1194.43" x2="1163.13" y2="1185.58" stroke-linecap="round" style="stroke:#009E73;stroke-width:10.00"/>
	<line x1="1163.13" y1="1185.58" x2="1222.45" y2="1222.97" stroke-linecap="round" style="stroke:#009E73;stroke-width:10.00"/>
	<line x1="1222.45" y1="1222.97" x2="1281.84" y2="1258.92" stroke-linecap="round" style="stroke:#009E73;stroke-width:10.00"/>
	<line x1="1281.84" y1="1258.92" x2="1341.15" y2="1224.24" stroke-linecap="round" style="stroke:#009E73;stroke-width:10.00"/>
	<line x1="1341.15" y1="1224.24" x2="1400.54" y2="1262.59" stroke-linecap="round" style="stroke:#009E73;stroke-width:10.00"/>
	<line x1="1400.54" y1="1262.59" x2="1459.86" y2="1293.44" stroke-linecap="round" style="stroke:#009E73;stroke-width:10.00"/>
	<line x1="1459.86" y1="1293.44" x2="1519.25" y2="1308.66" stroke-linecap="round" style="stroke:#009E73;stroke-width:10.00"/>
	<line x1="1519.25" y1="1308.66" x2="1578.56" y2="1359.36" stroke-linecap="round" style="stroke:#009E73;stroke-width:10.00"/>
	<line x1="1578.56" y1="1359.36" x2="1637.95" y2="1310.50" stroke-linecap="round" style="stroke:#009E73;stroke-width:10.00"/>
	<line x1="1637.95" y1="1310.50" x2="1697.27" y2="1384.40" stroke-linecap="round" style="stroke:#009E73;stroke-width:10.00"/>
	<line x1="1697.27" y1="1384.40" x2="1756.58" y2="1392.21" stroke-linecap="round" style="stroke:#009E73;stroke-width:10.00"/>
	<line x1="510.30" y1="549.98" x2="569.61" y2="765.46" stroke-linecap="round" style="stroke:#D55E00;stroke-width:10.00"/>
	<line x1="569.61" y1="765.46" x2="629.00" y2="754.54" stroke-linecap="round" style="stroke:#D55E00;stroke-width:10.00"/>
	<line x1="629.00" y1="754.54" x2="688.31" y2="768.41" stroke-linecap="round" style="stroke:#D55E00;stroke-width:10.00"/>
	<line x1="688.31" y1="768.41" x2="747.71" y2="790.57" stroke-linecap="round" style="stroke:#D55E00;stroke-width:10.00"/>
	<line x1="747.71" y1="790.57" x2="807.02" y2="837.84" stroke-linecap="round" style="stroke:#D55E00;stroke-width:10.00"/>
	<line x1="807.02" y1="837.84" x2="866.41" y2="828.92" stroke-linecap="round" style="stroke:#D55E00;stroke-width:10.00"/>
	<line x1="866.41" y1="828.92" x2="925.72" y2="819.83" stroke-linecap="round" style="stroke:#D55E00;stroke-width:10.00"/>
	<line x1="925.72" y1="819.83" x2="985.04" y2="937.09" stroke-linecap="round" style="stroke:#D55E00;stroke-width:10.00"/>
	<line x1="985.04" y1="937.09" x2="1044.43" y2="918.84" stroke-linecap="round" style="stroke:#D55E00;stroke-width:10.00"/>
	<line x1="1044.43" y1="918.84" x2="1103.74" y2="1029.89" stroke-linecap="round" style="stroke:#D55E00;stroke-width:10.00"/>
	<line x1="1103.74" y1="1029.89" x2="1163.13" y2="1044.00" stroke-linecap="round" style="stroke:#D55E00;stroke-width:10.00"/>
	<line x1="510.30" y1="867.74" x2="569.61" y2="927.37" stroke-linecap="round" style="stroke:#CC79A7;stroke-width:10.00"/>
	<line x1="569.61" y1="927.37" x2="629.00" y2="978.87" stroke-linecap="round" style="stroke:#CC79A7;stroke-width:10.00"/>
	<line x1="629.00" y1="978.87" x2="688.31" y2="1062.97" stroke-linecap="round" style="stroke:#CC79A7;stroke-width:10.00"/>
	<line x1="688.31" y1="1062.97" x2="747.71" y2="1057.95" stroke-linecap="round" style="stroke:#CC79A7;stroke-width:10.00"/>
	<line x1="394.86" y1="1904.40" x2="359.38" y2="1904.40" style="stroke:#000000;stroke-width:4.00"/>
	<text x="341.69" y="1921.92" style="font-family:'Helvetica';font-size:49.99px;fill:#000000" text-anchor="end">0</text>
	<line x1="394.86" y1="1491.62" x2="359.38" y2="1491.62" style="stroke:#000000;stroke-width:4.00"/>
	<text x="341.69" y="1509.13" style="font-family:'Helvetica';font-size:49.99px;fill:#000000" text-anchor="end">200</text>
	<line x1="394.86" y1="1078.83" x2="359.38" y2="1078.83" style="stroke:#000000;stroke-width:4.00"/>
	<text x="341.69" y="1096.35" style="font-family:'Helvetica';font-size:49.99px;fill:#000000" text-anchor="end">400</text>
	<line x1="394.86" y1="666.13" x2="359.38" y2="666.13" style="stroke:#000000;stroke-width:4.00"/>
	<text x="341.69" y="683.64" style="font-family:'Helvetica';font-size:49.99px;fill:#000000" text-anchor="end">600</text>
	<line x1="394.86" y1="253.35" x2="359.38" y2="253.35" style="stroke:#000000;stroke-width:4.00"/>
	<text x="341.69" y="270.86" style="font-family:'Helvetica';font-size:49.99px;fill:#000000" text-anchor="end">800</text>
	<line x1="394.86" y1="1904.40" x2="394.86" y2="253.35" style="stroke:#000000;stroke-width:4.00"/>
	<text x="136.21" y="1040.57" style="font-family:'Helvetica';font-size:60.03px;fill:#000000" transform="rotate(-90 136.21,1040.57)" text-anchor="middle">Population counts (in 1,000)</text>
	<line x1="450.98" y1="1960.52" x2="450.98" y2="1995.92" style="stroke:#000000;stroke-width:4.00"/>
	<text x="450.98" y="2048.56" style="font-family:'Helvetica';font-size:49.99px;fill:#000000" text-anchor="middle">0</text>
	<line x1="747.71" y1="1960.52" x2="747.71" y2="1995.92" style="stroke:#000000;stroke-width:4.00"/>
	<text x="747.71" y="2048.56" style="font-family:'Helvetica';font-size:49.99px;fill:#000000" text-anchor="middle">5</text>
	<line x1="1044.43" y1="1960.52" x2="1044.43" y2="1995.92" style="stroke:#000000;stroke-width:4.00"/>
	<text x="1044.43" y="2048.56" style="font-family:'Helvetica';font-size:49.99px;fill:#000000" text-anchor="middle">10</text>
	<line x1="1341.23" y1="1960.52" x2="1341.23" y2="1995.92" style="stroke:#000000;stroke-width:4.00"/>
	<text x="1341.23" y="2048.56" style="font-family:'Helvetica';font-size:49.99px;fill:#000000" text-anchor="middle">15</text>
	<line x1="1637.95" y1="1960.52" x2="1637.95" y2="1995.92" style="stroke:#000000;stroke-width:4.00"/>
	<text x="1637.95" y="2048.56" style="font-family:'Helvetica';font-size:49.99px;fill:#000000" text-anchor="middle">20</text>
	<line x1="1934.68" y1="1960.52" x2="1934.68" y2="1995.92" style="stroke:#000000;stroke-width:4.00"/>
	<text x="1934.68" y="2048.56" style="font-family:'Helvetica';font-size:49.99px;fill:#000000" text-anchor="middle">25</text>
	<line x1="2231.48" y1="1960.52" x2="2231.48" y2="1995.92" style="stroke:#000000;stroke-width:4.00"/>
	<text x="2231.48" y="2048.56" style="font-family:'Helvetica';font-size:49.99px;fill:#000000" text-anchor="middle">30</text>
	<line x1="450.98" y1="1960.52" x2="2290.79" y2="1960.52" style="stroke:#000000;stroke-width:4.00"/>
	<text x="1332.62" y="2190.96" style="font-family:'Helvetica';font-size:60.03px;fill:#000000" text-anchor="middle">Duration of stay</text>
	<text x="161.52" y="2396.65" style="font-family:'Helvetica';font-size:60.03px;fill:#000000">Arr. cohort: </text>
	<text x="610.98" y="2396.65" style="font-family:'Helvetica';font-size:60.03px;fill:#000000">1964-73</text>
	<text x="965.98" y="2396.65" style="font-family:'Helvetica';font-size:60.03px;fill:#000000">1974-83</text>
	<text x="1320.98" y="2396.65" style="font-family:'Helvetica';font-size:60.03px;fill:#000000">1984-93</text>
	<text x="1675.98" y="2396.65" style="font-family:'Helvetica';font-size:60.03px;fill:#000000">1994-03</text>
	<text x="2030.98" y="2396.65" style="font-family:'Helvetica';font-size:60.03px;fill:#000000">2004-10</text>
	<line x1="610.98" y1="2320.61" x2="831.01" y2="2320.61" style="stroke:#E69F00;stroke-width:10.00"/>
	<line x1="965.98" y1="2320.61" x2="1185.93" y2="2320.61" style="stroke:#56B4E9;stroke-width:10.00"/>
	<line x1="1320.98" y1="2320.61" x2="1540.93" y2="2320.61" style="stroke:#009E73;stroke-width:10.00"/>
	<line x1="1675.98" y1="2320.61" x2="1895.93" y2="2320.61" style="stroke:#D55E00;stroke-width:10.00"/>
	<line x1="2030.98" y1="2320.61" x2="2250.93" y2="2320.61" style="stroke:#CC79A7;stroke-width:10.00"/>
	<text x="1370.89" y="154.88" style="font-family:'Helvetica';font-size:90.01px;fill:#000000" text-anchor="middle">Men</text>
</svg>
