<?xml version="1.0" encoding="UTF-8" standalone="no"?>
<!-- This is a Stata 15.1 generated SVG file (http://www.stata.com) -->

<svg version="1.1" width="7.09in" height="3.54in" viewBox="0 0 5102 2551" xmlns="http://www.w3.org/2000/svg" xmlns:xlink="http://www.w3.org/1999/xlink">
	<desc>Stata Graph - Graph</desc>
	<rect x="0" y="0" width="5102" height="2551" style="fill:#FFFFFF;stroke:none"/>
	<rect x="0.00" y="0.00" width="5101.68" height="2551.00" style="fill:#FFFFFF"/>
	<rect x="2.55" y="2.55" width="5096.58" height="2545.90" style="fill:none;stroke:#FFFFFF;stroke-width:5.10"/>
	<line x1="351.08" y1="1954.35" x2="4897.60" y2="1954.35" style="stroke:#E8E8E8;stroke-width:4.00"/>
	<line x1="351.08" y1="1347.17" x2="4897.60" y2="1347.17" style="stroke:#E8E8E8;stroke-width:4.00"/>
	<line x1="351.08" y1="739.84" x2="4897.60" y2="739.84" style="stroke:#E8E8E8;stroke-width:4.00"/>
	<line x1="351.08" y1="132.66" x2="4897.60" y2="132.66" style="stroke:#E8E8E8;stroke-width:4.00"/>
	<line x1="451.69" y1="2010.47" x2="451.69" y2="76.53" style="stroke:#E8E8E8;stroke-width:4.00"/>
	<line x1="897.47" y1="2010.47" x2="897.47" y2="76.53" style="stroke:#E8E8E8;stroke-width:4.00"/>
	<line x1="1454.55" y1="2010.47" x2="1454.55" y2="76.53" style="stroke:#E8E8E8;stroke-width:4.00"/>
	<line x1="2011.62" y1="2010.47" x2="2011.62" y2="76.53" style="stroke:#E8E8E8;stroke-width:4.00"/>
	<line x1="2568.70" y1="2010.47" x2="2568.70" y2="76.53" style="stroke:#E8E8E8;stroke-width:4.00"/>
	<line x1="3125.77" y1="2010.47" x2="3125.77" y2="76.53" style="stroke:#E8E8E8;stroke-width:4.00"/>
	<line x1="3682.85" y1="2010.47" x2="3682.85" y2="76.53" style="stroke:#E8E8E8;stroke-width:4.00"/>
	<line x1="4239.92" y1="2010.47" x2="4239.92" y2="76.53" style="stroke:#E8E8E8;stroke-width:4.00"/>
	<line x1="4797.00" y1="2010.47" x2="4797.00" y2="76.53" style="stroke:#E8E8E8;stroke-width:4.00"/>
	<rect x="407.20" y="1084.72" width="44.48" height="869.63" style="fill:#EBB233"/>
	<rect x="409.75" y="1087.27" width="39.38" height="864.52" style="fill:none;stroke:#E69F00;stroke-width:5.10"/>
	<rect x="630.10" y="1291.37" width="44.48" height="662.98" style="fill:#EBB233"/>
	<rect x="632.65" y="1293.92" width="39.38" height="657.88" style="fill:none;stroke:#E69F00;stroke-width:5.10"/>
	<rect x="852.83" y="1452.57" width="44.64" height="501.78" style="fill:#EBB233"/>
	<rect x="855.38" y="1455.12" width="39.54" height="496.68" style="fill:none;stroke:#E69F00;stroke-width:5.10"/>
	<rect x="1075.72" y="1496.26" width="44.48" height="458.09" style="fill:#EBB233"/>
	<rect x="1078.28" y="1498.81" width="39.38" height="452.99" style="fill:none;stroke:#E69F00;stroke-width:5.10"/>
	<rect x="1409.91" y="1643.43" width="44.64" height="310.92" style="fill:#EBB233"/>
	<rect x="1412.46" y="1645.98" width="39.54" height="305.82" style="fill:none;stroke:#E69F00;stroke-width:5.10"/>
	<rect x="1632.80" y="1277.97" width="44.48" height="676.38" style="fill:#EBB233"/>
	<rect x="1635.35" y="1280.52" width="39.38" height="671.27" style="fill:none;stroke:#E69F00;stroke-width:5.10"/>
	<rect x="1855.53" y="1640.87" width="44.64" height="313.47" style="fill:#EBB233"/>
	<rect x="1858.08" y="1643.42" width="39.54" height="308.37" style="fill:none;stroke:#E69F00;stroke-width:5.10"/>
	<rect x="2078.43" y="1305.56" width="44.48" height="648.79" style="fill:#EBB233"/>
	<rect x="2080.98" y="1308.11" width="39.38" height="643.69" style="fill:none;stroke:#E69F00;stroke-width:5.10"/>
	<rect x="2301.32" y="1349.56" width="44.48" height="604.78" style="fill:#EBB233"/>
	<rect x="2303.87" y="1352.11" width="39.38" height="599.68" style="fill:none;stroke:#E69F00;stroke-width:5.10"/>
	<rect x="2524.06" y="1579.96" width="44.64" height="374.38" style="fill:#EBB233"/>
	<rect x="2526.61" y="1582.52" width="39.54" height="369.28" style="fill:none;stroke:#E69F00;stroke-width:5.10"/>
	<rect x="2635.50" y="1138.14" width="44.48" height="816.21" style="fill:#EBB233"/>
	<rect x="2638.05" y="1140.69" width="39.38" height="811.11" style="fill:none;stroke:#E69F00;stroke-width:5.10"/>
	<rect x="2746.95" y="901.52" width="44.48" height="1052.83" style="fill:#EBB233"/>
	<rect x="2749.50" y="904.07" width="39.38" height="1047.73" style="fill:none;stroke:#E69F00;stroke-width:5.10"/>
	<rect x="2858.40" y="818.92" width="44.48" height="1135.43" style="fill:#EBB233"/>
	<rect x="2860.95" y="821.47" width="39.38" height="1130.32" style="fill:none;stroke:#E69F00;stroke-width:5.10"/>
	<rect x="2969.68" y="618.02" width="44.64" height="1336.33" style="fill:#EBB233"/>
	<rect x="2972.23" y="620.57" width="39.54" height="1331.23" style="fill:none;stroke:#E69F00;stroke-width:5.10"/>
	<rect x="3081.13" y="674.78" width="44.64" height="1279.57" style="fill:#EBB233"/>
	<rect x="3083.68" y="677.33" width="39.54" height="1274.46" style="fill:none;stroke:#E69F00;stroke-width:5.10"/>
	<rect x="3192.58" y="516.45" width="44.48" height="1437.90" style="fill:#EBB233"/>
	<rect x="3195.13" y="519.00" width="39.38" height="1432.80" style="fill:none;stroke:#E69F00;stroke-width:5.10"/>
	<rect x="3304.02" y="562.69" width="44.48" height="1391.66" style="fill:#EBB233"/>
	<rect x="3306.57" y="565.24" width="39.38" height="1386.56" style="fill:none;stroke:#E69F00;stroke-width:5.10"/>
	<rect x="3415.47" y="711.45" width="44.48" height="1242.89" style="fill:#EBB233"/>
	<rect x="3418.02" y="714.01" width="39.38" height="1237.79" style="fill:none;stroke:#E69F00;stroke-width:5.10"/>
	<rect x="3526.76" y="415.52" width="44.64" height="1538.83" style="fill:#EBB233"/>
	<rect x="3529.31" y="418.07" width="39.54" height="1533.73" style="fill:none;stroke:#E69F00;stroke-width:5.10"/>
	<rect x="3638.20" y="1214.51" width="44.64" height="739.84" style="fill:#EBB233"/>
	<rect x="3640.76" y="1217.06" width="39.54" height="734.73" style="fill:none;stroke:#E69F00;stroke-width:5.10"/>
	<rect x="3749.65" y="1760.30" width="44.48" height="194.05" style="fill:#EBB233"/>
	<rect x="3752.20" y="1762.85" width="39.38" height="188.95" style="fill:none;stroke:#E69F00;stroke-width:5.10"/>
	<rect x="3861.10" y="1807.18" width="44.48" height="147.17" style="fill:#EBB233"/>
	<rect x="3863.65" y="1809.73" width="39.38" height="142.07" style="fill:none;stroke:#E69F00;stroke-width:5.10"/>
	<rect x="3972.54" y="1789.00" width="44.48" height="165.35" style="fill:#EBB233"/>
	<rect x="3975.10" y="1791.55" width="39.38" height="160.25" style="fill:none;stroke:#E69F00;stroke-width:5.10"/>
	<rect x="4083.83" y="1791.87" width="44.64" height="162.48" style="fill:#EBB233"/>
	<rect x="4086.38" y="1794.42" width="39.54" height="157.38" style="fill:none;stroke:#E69F00;stroke-width:5.10"/>
	<rect x="4195.28" y="1791.07" width="44.64" height="163.27" style="fill:#EBB233"/>
	<rect x="4197.83" y="1793.62" width="39.54" height="158.17" style="fill:none;stroke:#E69F00;stroke-width:5.10"/>
	<rect x="4306.73" y="1843.53" width="44.48" height="110.82" style="fill:#EBB233"/>
	<rect x="4309.28" y="1846.08" width="39.38" height="105.71" style="fill:none;stroke:#E69F00;stroke-width:5.10"/>
	<rect x="4418.17" y="1878.77" width="44.48" height="75.58" style="fill:#EBB233"/>
	<rect x="4420.72" y="1881.32" width="39.38" height="70.48" style="fill:none;stroke:#E69F00;stroke-width:5.10"/>
	<rect x="4529.62" y="1880.36" width="44.48" height="73.98" style="fill:#EBB233"/>
	<rect x="4532.17" y="1882.91" width="39.38" height="68.88" style="fill:none;stroke:#E69F00;stroke-width:5.10"/>
	<rect x="4640.91" y="1888.02" width="44.64" height="66.33" style="fill:#EBB233"/>
	<rect x="4643.46" y="1890.57" width="39.54" height="61.23" style="fill:none;stroke:#E69F00;stroke-width:5.10"/>
	<rect x="4752.35" y="1886.26" width="44.64" height="68.08" style="fill:#EBB233"/>
	<rect x="4754.90" y="1888.81" width="39.54" height="62.98" style="fill:none;stroke:#E69F00;stroke-width:5.10"/>
	<rect x="451.69" y="1176.72" width="44.64" height="777.63" style="fill:#F8E2B3"/>
	<rect x="454.24" y="1179.27" width="39.54" height="772.52" style="fill:none;stroke:#E69F00;stroke-width:5.10"/>
	<rect x="674.58" y="1375.87" width="44.64" height="578.48" style="fill:#F8E2B3"/>
	<rect x="677.13" y="1378.42" width="39.54" height="573.37" style="fill:none;stroke:#E69F00;stroke-width:5.10"/>
	<rect x="897.47" y="1499.44" width="44.48" height="454.90" style="fill:#F8E2B3"/>
	<rect x="900.02" y="1501.99" width="39.38" height="449.80" style="fill:none;stroke:#E69F00;stroke-width:5.10"/>
	<rect x="1120.21" y="1578.37" width="44.64" height="375.98" style="fill:#F8E2B3"/>
	<rect x="1122.76" y="1580.92" width="39.54" height="370.88" style="fill:none;stroke:#E69F00;stroke-width:5.10"/>
	<rect x="1454.55" y="1639.76" width="44.48" height="314.59" style="fill:#F8E2B3"/>
	<rect x="1457.10" y="1642.31" width="39.38" height="309.49" style="fill:none;stroke:#E69F00;stroke-width:5.10"/>
	<rect x="1677.28" y="1284.67" width="44.64" height="669.68" style="fill:#F8E2B3"/>
	<rect x="1679.83" y="1287.22" width="39.54" height="664.58" style="fill:none;stroke:#E69F00;stroke-width:5.10"/>
	<rect x="1900.18" y="1646.45" width="44.48" height="307.89" style="fill:#F8E2B3"/>
	<rect x="1902.73" y="1649.01" width="39.38" height="302.79" style="fill:none;stroke:#E69F00;stroke-width:5.10"/>
	<rect x="2122.91" y="1358.49" width="44.64" height="595.86" style="fill:#F8E2B3"/>
	<rect x="2125.46" y="1361.04" width="39.54" height="590.75" style="fill:none;stroke:#E69F00;stroke-width:5.10"/>
	<rect x="2345.80" y="1446.35" width="44.64" height="508.00" style="fill:#F8E2B3"/>
	<rect x="2348.35" y="1448.90" width="39.54" height="502.90" style="fill:none;stroke:#E69F00;stroke-width:5.10"/>
	<rect x="2568.70" y="1607.23" width="44.48" height="347.12" style="fill:#F8E2B3"/>
	<rect x="2571.25" y="1609.78" width="39.38" height="342.02" style="fill:none;stroke:#E69F00;stroke-width:5.10"/>
	<rect x="2679.98" y="1113.26" width="44.64" height="841.09" style="fill:#F8E2B3"/>
	<rect x="2682.54" y="1115.81" width="39.54" height="835.98" style="fill:none;stroke:#E69F00;stroke-width:5.10"/>
	<rect x="2791.43" y="815.10" width="44.64" height="1139.25" style="fill:#F8E2B3"/>
	<rect x="2793.98" y="817.65" width="39.54" height="1134.15" style="fill:none;stroke:#E69F00;stroke-width:5.10"/>
	<rect x="2902.88" y="708.27" width="44.64" height="1246.08" style="fill:#F8E2B3"/>
	<rect x="2905.43" y="710.82" width="39.54" height="1240.98" style="fill:none;stroke:#E69F00;stroke-width:5.10"/>
	<rect x="3014.33" y="538.77" width="44.48" height="1415.57" style="fill:#F8E2B3"/>
	<rect x="3016.88" y="541.32" width="39.38" height="1410.47" style="fill:none;stroke:#E69F00;stroke-width:5.10"/>
	<rect x="3125.77" y="560.78" width="44.48" height="1393.57" style="fill:#F8E2B3"/>
	<rect x="3128.32" y="563.33" width="39.38" height="1388.47" style="fill:none;stroke:#E69F00;stroke-width:5.10"/>
	<rect x="3237.06" y="449.64" width="44.64" height="1504.71" style="fill:#F8E2B3"/>
	<rect x="3239.61" y="452.19" width="39.54" height="1499.60" style="fill:none;stroke:#E69F00;stroke-width:5.10"/>
	<rect x="3348.51" y="381.72" width="44.64" height="1572.63" style="fill:#F8E2B3"/>
	<rect x="3351.06" y="384.27" width="39.54" height="1567.53" style="fill:none;stroke:#E69F00;stroke-width:5.10"/>
	<rect x="3459.95" y="540.53" width="44.64" height="1413.82" style="fill:#F8E2B3"/>
	<rect x="3462.50" y="543.08" width="39.54" height="1408.72" style="fill:none;stroke:#E69F00;stroke-width:5.10"/>
	<rect x="3571.40" y="290.19" width="44.48" height="1664.15" style="fill:#F8E2B3"/>
	<rect x="3573.95" y="292.75" width="39.38" height="1659.05" style="fill:none;stroke:#E69F00;stroke-width:5.10"/>
	<rect x="3682.85" y="1161.26" width="44.48" height="793.09" style="fill:#F8E2B3"/>
	<rect x="3685.40" y="1163.81" width="39.38" height="787.99" style="fill:none;stroke:#E69F00;stroke-width:5.10"/>
	<rect x="3794.13" y="1762.05" width="44.64" height="192.29" style="fill:#F8E2B3"/>
	<rect x="3796.69" y="1764.60" width="39.54" height="187.19" style="fill:none;stroke:#E69F00;stroke-width:5.10"/>
	<rect x="3905.58" y="1801.44" width="44.64" height="152.91" style="fill:#F8E2B3"/>
	<rect x="3908.13" y="1803.99" width="39.54" height="147.81" style="fill:none;stroke:#E69F00;stroke-width:5.10"/>
	<rect x="4017.03" y="1779.75" width="44.64" height="174.59" style="fill:#F8E2B3"/>
	<rect x="4019.58" y="1782.30" width="39.54" height="169.49" style="fill:none;stroke:#E69F00;stroke-width:5.10"/>
	<rect x="4128.47" y="1767.48" width="44.48" height="186.87" style="fill:#F8E2B3"/>
	<rect x="4131.03" y="1770.03" width="39.38" height="181.77" style="fill:none;stroke:#E69F00;stroke-width:5.10"/>
	<rect x="4239.92" y="1780.71" width="44.48" height="173.64" style="fill:#F8E2B3"/>
	<rect x="4242.47" y="1783.26" width="39.38" height="168.54" style="fill:none;stroke:#E69F00;stroke-width:5.10"/>
	<rect x="4351.21" y="1818.34" width="44.64" height="136.01" style="fill:#F8E2B3"/>
	<rect x="4353.76" y="1820.89" width="39.54" height="130.91" style="fill:none;stroke:#E69F00;stroke-width:5.10"/>
	<rect x="4462.66" y="1878.77" width="44.64" height="75.58" style="fill:#F8E2B3"/>
	<rect x="4465.21" y="1881.32" width="39.54" height="70.48" style="fill:none;stroke:#E69F00;stroke-width:5.10"/>
	<rect x="4574.10" y="1865.69" width="44.48" height="88.65" style="fill:#F8E2B3"/>
	<rect x="4576.65" y="1868.25" width="39.38" height="83.55" style="fill:none;stroke:#E69F00;stroke-width:5.10"/>
	<rect x="4685.55" y="1872.55" width="44.48" height="81.80" style="fill:#F8E2B3"/>
	<rect x="4688.10" y="1875.10" width="39.38" height="76.69" style="fill:none;stroke:#E69F00;stroke-width:5.10"/>
	<rect x="4797.00" y="1871.12" width="44.48" height="83.23" style="fill:#F8E2B3"/>
	<rect x="4799.55" y="1873.67" width="39.38" height="78.13" style="fill:none;stroke:#E69F00;stroke-width:5.10"/>
	<line x1="351.08" y1="1954.35" x2="315.69" y2="1954.35" style="stroke:#000000;stroke-width:4.00"/>
	<text x="297.99" y="1971.91" style="font-family:'Helvetica';font-size:50.06px;fill:#000000" text-anchor="end">0</text>
	<line x1="351.08" y1="1347.17" x2="315.69" y2="1347.17" style="stroke:#000000;stroke-width:4.00"/>
	<text x="297.99" y="1364.73" style="font-family:'Helvetica';font-size:50.06px;fill:#000000" text-anchor="end">.1</text>
	<line x1="351.08" y1="739.84" x2="315.69" y2="739.84" style="stroke:#000000;stroke-width:4.00"/>
	<text x="297.99" y="757.40" style="font-family:'Helvetica';font-size:50.06px;fill:#000000" text-anchor="end">.2</text>
	<line x1="351.08" y1="132.66" x2="315.69" y2="132.66" style="stroke:#000000;stroke-width:4.00"/>
	<text x="297.99" y="150.22" style="font-family:'Helvetica';font-size:50.06px;fill:#000000" text-anchor="end">.3</text>
	<line x1="351.08" y1="1954.35" x2="351.08" y2="132.66" style="stroke:#000000;stroke-width:4.00"/>
	<text x="136.11" y="1005.32" style="font-family:'Helvetica';font-size:59.95px;fill:#000000" transform="rotate(-90 136.11,1005.32)" text-anchor="middle">Share with missing information (in %)</text>
	<line x1="451.69" y1="2010.47" x2="451.69" y2="2045.87" style="stroke:#000000;stroke-width:4.00"/>
	<text x="451.69" y="2098.54" style="font-family:'Helvetica';font-size:50.06px;fill:#000000" text-anchor="middle">1976</text>
	<line x1="897.47" y1="2010.47" x2="897.47" y2="2045.87" style="stroke:#000000;stroke-width:4.00"/>
	<text x="897.47" y="2098.54" style="font-family:'Helvetica';font-size:50.06px;fill:#000000" text-anchor="middle">1980</text>
	<line x1="1454.55" y1="2010.47" x2="1454.55" y2="2045.87" style="stroke:#000000;stroke-width:4.00"/>
	<text x="1454.55" y="2098.54" style="font-family:'Helvetica';font-size:50.06px;fill:#000000" text-anchor="middle">1985</text>
	<line x1="2011.62" y1="2010.47" x2="2011.62" y2="2045.87" style="stroke:#000000;stroke-width:4.00"/>
	<text x="2011.62" y="2098.54" style="font-family:'Helvetica';font-size:50.06px;fill:#000000" text-anchor="middle">1990</text>
	<line x1="2568.70" y1="2010.47" x2="2568.70" y2="2045.87" style="stroke:#000000;stroke-width:4.00"/>
	<text x="2568.70" y="2098.54" style="font-family:'Helvetica';font-size:50.06px;fill:#000000" text-anchor="middle">1995</text>
	<line x1="3125.77" y1="2010.47" x2="3125.77" y2="2045.87" style="stroke:#000000;stroke-width:4.00"/>
	<text x="3125.77" y="2098.54" style="font-family:'Helvetica';font-size:50.06px;fill:#000000" text-anchor="middle">2000</text>
	<line x1="3682.85" y1="2010.47" x2="3682.85" y2="2045.87" style="stroke:#000000;stroke-width:4.00"/>
	<text x="3682.85" y="2098.54" style="font-family:'Helvetica';font-size:50.06px;fill:#000000" text-anchor="middle">2005</text>
	<line x1="4239.92" y1="2010.47" x2="4239.92" y2="2045.87" style="stroke:#000000;stroke-width:4.00"/>
	<text x="4239.92" y="2098.54" style="font-family:'Helvetica';font-size:50.06px;fill:#000000" text-anchor="middle">2010</text>
	<line x1="4797.00" y1="2010.47" x2="4797.00" y2="2045.87" style="stroke:#000000;stroke-width:4.00"/>
	<text x="4797.00" y="2098.54" style="font-family:'Helvetica';font-size:50.06px;fill:#000000" text-anchor="middle">2015</text>
	<line x1="451.69" y1="2010.47" x2="4797.00" y2="2010.47" style="stroke:#000000;stroke-width:4.00"/>
	<text x="2586.08" y="2240.99" style="font-family:'Helvetica';font-size:59.95px;fill:#000000" text-anchor="middle">Year</text>
	<rect x="2322.69" y="2350.57" width="49.90" height="50.07" style="fill:#EBB233"/>
	<rect x="2325.24" y="2353.13" width="44.80" height="44.96" style="fill:none;stroke:#E69F00;stroke-width:5.10"/>
	<rect x="2737.06" y="2350.57" width="50.06" height="50.07" style="fill:#F8E2B3"/>
	<rect x="2739.61" y="2353.13" width="44.96" height="44.96" style="fill:none;stroke:#E69F00;stroke-width:5.10"/>
	<text x="2392.68" y="2396.63" style="font-family:'Helvetica';font-size:59.95px;fill:#000000">Women</text>
	<text x="2807.06" y="2396.63" style="font-family:'Helvetica';font-size:59.95px;fill:#000000">Men</text>
</svg>
