<?xml version="1.0" encoding="UTF-8" standalone="no"?>
<!-- This is a Stata 15.1 generated SVG file (http://www.stata.com) -->

<svg version="1.1" width="3.54in" height="3.54in" viewBox="0 0 2551 2551" xmlns="http://www.w3.org/2000/svg" xmlns:xlink="http://www.w3.org/1999/xlink">
	<desc>Stata Graph - Graph</desc>
	<rect x="0" y="0" width="2551" height="2551" style="fill:#FFFFFF;stroke:none"/>
	<rect x="0.00" y="0.08" width="2551.00" height="2550.92" style="fill:#FFFFFF"/>
	<rect x="2.55" y="2.63" width="2545.90" height="2545.82" style="fill:none;stroke:#FFFFFF;stroke-width:5.10"/>
	<line x1="394.86" y1="1904.40" x2="2346.91" y2="1904.40" style="stroke:#E8E8E8;stroke-width:4.00"/>
	<line x1="394.86" y1="1519.36" x2="2346.91" y2="1519.36" style="stroke:#E8E8E8;stroke-width:4.00"/>
	<line x1="394.86" y1="1134.40" x2="2346.91" y2="1134.40" style="stroke:#E8E8E8;stroke-width:4.00"/>
	<line x1="394.86" y1="749.36" x2="2346.91" y2="749.36" style="stroke:#E8E8E8;stroke-width:4.00"/>
	<line x1="394.86" y1="364.31" x2="2346.91" y2="364.31" style="stroke:#E8E8E8;stroke-width:4.00"/>
	<line x1="450.98" y1="1960.52" x2="450.98" y2="308.19" style="stroke:#E8E8E8;stroke-width:4.00"/>
	<line x1="680.98" y1="1960.52" x2="680.98" y2="308.19" style="stroke:#E8E8E8;stroke-width:4.00"/>
	<line x1="910.89" y1="1960.52" x2="910.89" y2="308.19" style="stroke:#E8E8E8;stroke-width:4.00"/>
	<line x1="1140.89" y1="1960.52" x2="1140.89" y2="308.19" style="stroke:#E8E8E8;stroke-width:4.00"/>
	<line x1="1370.89" y1="1960.52" x2="1370.89" y2="308.19" style="stroke:#E8E8E8;stroke-width:4.00"/>
	<line x1="1600.88" y1="1960.52" x2="1600.88" y2="308.19" style="stroke:#E8E8E8;stroke-width:4.00"/>
	<line x1="1830.88" y1="1960.52" x2="1830.88" y2="308.19" style="stroke:#E8E8E8;stroke-width:4.00"/>
	<line x1="2060.79" y1="1960.52" x2="2060.79" y2="308.19" style="stroke:#E8E8E8;stroke-width:4.00"/>
	<line x1="2290.79" y1="1960.52" x2="2290.79" y2="308.19" style="stroke:#E8E8E8;stroke-width:4.00"/>
	<line x1="450.90" y1="1250.71" x2="542.90" y2="1219.22" stroke-linecap="round" style="stroke:#E69F00;stroke-width:10.00"/>
	<line x1="542.90" y1="1219.22" x2="634.90" y2="1202.24" stroke-linecap="round" style="stroke:#E69F00;stroke-width:10.00"/>
	<line x1="634.90" y1="1202.24" x2="726.90" y2="1266.65" stroke-linecap="round" style="stroke:#E69F00;stroke-width:10.00"/>
	<line x1="726.90" y1="1266.65" x2="864.90" y2="1176.81" stroke-linecap="round" style="stroke:#E69F00;stroke-width:10.00"/>
	<line x1="864.90" y1="1176.81" x2="956.89" y2="1247.60" stroke-linecap="round" style="stroke:#E69F00;stroke-width:10.00"/>
	<line x1="956.89" y1="1247.60" x2="1048.89" y2="1281.40" stroke-linecap="round" style="stroke:#E69F00;stroke-width:10.00"/>
	<line x1="1048.89" y1="1281.40" x2="1140.89" y2="1366.14" stroke-linecap="round" style="stroke:#E69F00;stroke-width:10.00"/>
	<line x1="1140.89" y1="1366.14" x2="1232.89" y2="1383.44" stroke-linecap="round" style="stroke:#E69F00;stroke-width:10.00"/>
	<line x1="1232.89" y1="1383.44" x2="1324.81" y2="1406.88" stroke-linecap="round" style="stroke:#E69F00;stroke-width:10.00"/>
	<line x1="1324.81" y1="1406.88" x2="1370.81" y2="1448.33" stroke-linecap="round" style="stroke:#E69F00;stroke-width:10.00"/>
	<line x1="1370.81" y1="1448.33" x2="1416.81" y2="1521.19" stroke-linecap="round" style="stroke:#E69F00;stroke-width:10.00"/>
	<line x1="1416.81" y1="1521.19" x2="1462.81" y2="1544.15" stroke-linecap="round" style="stroke:#E69F00;stroke-width:10.00"/>
	<line x1="1462.81" y1="1544.15" x2="1508.80" y2="1609.04" stroke-linecap="round" style="stroke:#E69F00;stroke-width:10.00"/>
	<line x1="1508.80" y1="1609.04" x2="1554.80" y2="1614.86" stroke-linecap="round" style="stroke:#E69F00;stroke-width:10.00"/>
	<line x1="1554.80" y1="1614.86" x2="1600.80" y2="1683.10" stroke-linecap="round" style="stroke:#E69F00;stroke-width:10.00"/>
	<line x1="1600.80" y1="1683.10" x2="1646.80" y2="1705.98" stroke-linecap="round" style="stroke:#E69F00;stroke-width:10.00"/>
	<line x1="1646.80" y1="1705.98" x2="1692.80" y2="1743.61" stroke-linecap="round" style="stroke:#E69F00;stroke-width:10.00"/>
	<line x1="864.90" y1="1342.14" x2="956.89" y2="1345.17" stroke-linecap="round" style="stroke:#56B4E9;stroke-width:10.00"/>
	<line x1="956.89" y1="1345.17" x2="1048.89" y2="1405.20" stroke-linecap="round" style="stroke:#56B4E9;stroke-width:10.00"/>
	<line x1="1048.89" y1="1405.20" x2="1140.89" y2="1474.16" stroke-linecap="round" style="stroke:#56B4E9;stroke-width:10.00"/>
	<line x1="1140.89" y1="1474.16" x2="1232.89" y2="1454.23" stroke-linecap="round" style="stroke:#56B4E9;stroke-width:10.00"/>
	<line x1="1232.89" y1="1454.23" x2="1324.81" y2="1500.47" stroke-linecap="round" style="stroke:#56B4E9;stroke-width:10.00"/>
	<line x1="1324.81" y1="1500.47" x2="1370.81" y2="1527.01" stroke-linecap="round" style="stroke:#56B4E9;stroke-width:10.00"/>
	<line x1="1370.81" y1="1527.01" x2="1416.81" y2="1574.05" stroke-linecap="round" style="stroke:#56B4E9;stroke-width:10.00"/>
	<line x1="1416.81" y1="1574.05" x2="1462.81" y2="1585.29" stroke-linecap="round" style="stroke:#56B4E9;stroke-width:10.00"/>
	<line x1="1462.81" y1="1585.29" x2="1508.80" y2="1597.48" stroke-linecap="round" style="stroke:#56B4E9;stroke-width:10.00"/>
	<line x1="1508.80" y1="1597.48" x2="1554.80" y2="1629.61" stroke-linecap="round" style="stroke:#56B4E9;stroke-width:10.00"/>
	<line x1="1554.80" y1="1629.61" x2="1600.80" y2="1653.69" stroke-linecap="round" style="stroke:#56B4E9;stroke-width:10.00"/>
	<line x1="1600.80" y1="1653.69" x2="1646.80" y2="1671.70" stroke-linecap="round" style="stroke:#56B4E9;stroke-width:10.00"/>
	<line x1="1646.80" y1="1671.70" x2="1692.80" y2="1672.10" stroke-linecap="round" style="stroke:#56B4E9;stroke-width:10.00"/>
	<line x1="1692.80" y1="1672.10" x2="1738.80" y2="1704.94" stroke-linecap="round" style="stroke:#56B4E9;stroke-width:10.00"/>
	<line x1="1738.80" y1="1704.94" x2="1784.80" y2="1677.92" stroke-linecap="round" style="stroke:#56B4E9;stroke-width:10.00"/>
	<line x1="1784.80" y1="1677.92" x2="1830.80" y2="1668.83" stroke-linecap="round" style="stroke:#56B4E9;stroke-width:10.00"/>
	<line x1="1830.80" y1="1668.83" x2="1876.80" y2="1717.46" stroke-linecap="round" style="stroke:#56B4E9;stroke-width:10.00"/>
	<line x1="1876.80" y1="1717.46" x2="1922.80" y2="1732.93" stroke-linecap="round" style="stroke:#56B4E9;stroke-width:10.00"/>
	<line x1="1922.80" y1="1732.93" x2="1968.80" y2="1756.04" stroke-linecap="round" style="stroke:#56B4E9;stroke-width:10.00"/>
	<line x1="1968.80" y1="1756.04" x2="2014.79" y2="1778.29" stroke-linecap="round" style="stroke:#56B4E9;stroke-width:10.00"/>
	<line x1="2014.79" y1="1778.29" x2="2060.79" y2="1813.12" stroke-linecap="round" style="stroke:#56B4E9;stroke-width:10.00"/>
	<line x1="2060.79" y1="1813.12" x2="2106.79" y2="1839.35" stroke-linecap="round" style="stroke:#56B4E9;stroke-width:10.00"/>
	<line x1="2106.79" y1="1839.35" x2="2152.79" y2="1850.43" stroke-linecap="round" style="stroke:#56B4E9;stroke-width:10.00"/>
	<line x1="1324.81" y1="1044.32" x2="1370.81" y2="1035.47" stroke-linecap="round" style="stroke:#009E73;stroke-width:10.00"/>
	<line x1="1370.81" y1="1035.47" x2="1416.81" y2="1053.88" stroke-linecap="round" style="stroke:#009E73;stroke-width:10.00"/>
	<line x1="1416.81" y1="1053.88" x2="1462.81" y2="1140.86" stroke-linecap="round" style="stroke:#009E73;stroke-width:10.00"/>
	<line x1="1462.81" y1="1140.86" x2="1508.80" y2="1202.64" stroke-linecap="round" style="stroke:#009E73;stroke-width:10.00"/>
	<line x1="1508.80" y1="1202.64" x2="1554.80" y2="1221.85" stroke-linecap="round" style="stroke:#009E73;stroke-width:10.00"/>
	<line x1="1554.80" y1="1221.85" x2="1600.80" y2="1265.61" stroke-linecap="round" style="stroke:#009E73;stroke-width:10.00"/>
	<line x1="1600.80" y1="1265.61" x2="1646.80" y2="1300.29" stroke-linecap="round" style="stroke:#009E73;stroke-width:10.00"/>
	<line x1="1646.80" y1="1300.29" x2="1692.80" y2="1291.52" stroke-linecap="round" style="stroke:#009E73;stroke-width:10.00"/>
	<line x1="1692.80" y1="1291.52" x2="1738.80" y2="1367.58" stroke-linecap="round" style="stroke:#009E73;stroke-width:10.00"/>
	<line x1="1738.80" y1="1367.58" x2="1784.80" y2="1290.57" stroke-linecap="round" style="stroke:#009E73;stroke-width:10.00"/>
	<line x1="1784.80" y1="1290.57" x2="1830.80" y2="1267.61" stroke-linecap="round" style="stroke:#009E73;stroke-width:10.00"/>
	<line x1="1830.80" y1="1267.61" x2="1876.80" y2="1284.35" stroke-linecap="round" style="stroke:#009E73;stroke-width:10.00"/>
	<line x1="1876.80" y1="1284.35" x2="1922.80" y2="1332.42" stroke-linecap="round" style="stroke:#009E73;stroke-width:10.00"/>
	<line x1="1922.80" y1="1332.42" x2="1968.80" y2="1354.10" stroke-linecap="round" style="stroke:#009E73;stroke-width:10.00"/>
	<line x1="1968.80" y1="1354.10" x2="2014.79" y2="1357.93" stroke-linecap="round" style="stroke:#009E73;stroke-width:10.00"/>
	<line x1="2014.79" y1="1357.93" x2="2060.79" y2="1367.89" stroke-linecap="round" style="stroke:#009E73;stroke-width:10.00"/>
	<line x1="2060.79" y1="1367.89" x2="2106.79" y2="1458.85" stroke-linecap="round" style="stroke:#009E73;stroke-width:10.00"/>
	<line x1="2106.79" y1="1458.85" x2="2152.79" y2="1483.41" stroke-linecap="round" style="stroke:#009E73;stroke-width:10.00"/>
	<line x1="2152.79" y1="1483.41" x2="2198.79" y2="1497.20" stroke-linecap="round" style="stroke:#009E73;stroke-width:10.00"/>
	<line x1="2198.79" y1="1497.20" x2="2244.79" y2="1503.81" stroke-linecap="round" style="stroke:#009E73;stroke-width:10.00"/>
	<line x1="1738.80" y1="1006.77" x2="1784.80" y2="797.83" stroke-linecap="round" style="stroke:#D55E00;stroke-width:10.00"/>
	<line x1="1784.80" y1="797.83" x2="1830.80" y2="654.73" stroke-linecap="round" style="stroke:#D55E00;stroke-width:10.00"/>
	<line x1="1830.80" y1="654.73" x2="1876.80" y2="680.24" stroke-linecap="round" style="stroke:#D55E00;stroke-width:10.00"/>
	<line x1="1876.80" y1="680.24" x2="1922.80" y2="684.78" stroke-linecap="round" style="stroke:#D55E00;stroke-width:10.00"/>
	<line x1="1922.80" y1="684.78" x2="1968.80" y2="706.87" stroke-linecap="round" style="stroke:#D55E00;stroke-width:10.00"/>
	<line x1="1968.80" y1="706.87" x2="2014.79" y2="797.67" stroke-linecap="round" style="stroke:#D55E00;stroke-width:10.00"/>
	<line x1="2014.79" y1="797.67" x2="2060.79" y2="830.11" stroke-linecap="round" style="stroke:#D55E00;stroke-width:10.00"/>
	<line x1="2060.79" y1="830.11" x2="2106.79" y2="982.37" stroke-linecap="round" style="stroke:#D55E00;stroke-width:10.00"/>
	<line x1="2106.79" y1="982.37" x2="2152.79" y2="1004.46" stroke-linecap="round" style="stroke:#D55E00;stroke-width:10.00"/>
	<line x1="2152.79" y1="1004.46" x2="2198.79" y2="1043.20" stroke-linecap="round" style="stroke:#D55E00;stroke-width:10.00"/>
	<line x1="2198.79" y1="1043.20" x2="2244.79" y2="1093.26" stroke-linecap="round" style="stroke:#D55E00;stroke-width:10.00"/>
	<line x1="2060.79" y1="1064.40" x2="2106.79" y2="1150.02" stroke-linecap="round" style="stroke:#CC79A7;stroke-width:10.00"/>
	<line x1="2106.79" y1="1150.02" x2="2152.79" y2="1103.79" stroke-linecap="round" style="stroke:#CC79A7;stroke-width:10.00"/>
	<line x1="2152.79" y1="1103.79" x2="2198.79" y2="1108.65" stroke-linecap="round" style="stroke:#CC79A7;stroke-width:10.00"/>
	<line x1="2198.79" y1="1108.65" x2="2244.79" y2="1136.23" stroke-linecap="round" style="stroke:#CC79A7;stroke-width:10.00"/>
	<line x1="394.86" y1="1904.40" x2="359.38" y2="1904.40" style="stroke:#000000;stroke-width:4.00"/>
	<text x="341.69" y="1921.92" style="font-family:'Helvetica';font-size:49.99px;fill:#000000" text-anchor="end">0</text>
	<line x1="394.86" y1="1519.36" x2="359.38" y2="1519.36" style="stroke:#000000;stroke-width:4.00"/>
	<text x="341.69" y="1536.87" style="font-family:'Helvetica';font-size:49.99px;fill:#000000" text-anchor="end">200</text>
	<line x1="394.86" y1="1134.40" x2="359.38" y2="1134.40" style="stroke:#000000;stroke-width:4.00"/>
	<text x="341.69" y="1151.91" style="font-family:'Helvetica';font-size:49.99px;fill:#000000" text-anchor="end">400</text>
	<line x1="394.86" y1="749.36" x2="359.38" y2="749.36" style="stroke:#000000;stroke-width:4.00"/>
	<text x="341.69" y="766.87" style="font-family:'Helvetica';font-size:49.99px;fill:#000000" text-anchor="end">600</text>
	<line x1="394.86" y1="364.31" x2="359.38" y2="364.31" style="stroke:#000000;stroke-width:4.00"/>
	<text x="341.69" y="381.83" style="font-family:'Helvetica';font-size:49.99px;fill:#000000" text-anchor="end">800</text>
	<line x1="394.86" y1="1904.40" x2="394.86" y2="364.31" style="stroke:#000000;stroke-width:4.00"/>
	<text x="136.21" y="1096.13" style="font-family:'Helvetica';font-size:60.03px;fill:#000000" transform="rotate(-90 136.21,1096.13)" text-anchor="middle">Population counts in 1,000</text>
	<line x1="450.98" y1="1960.52" x2="450.98" y2="1995.92" style="stroke:#000000;stroke-width:4.00"/>
	<text x="450.98" y="2048.56" style="font-family:'Helvetica';font-size:49.99px;fill:#000000" text-anchor="middle">1976</text>
	<line x1="680.98" y1="1960.52" x2="680.98" y2="1995.92" style="stroke:#000000;stroke-width:4.00"/>
	<text x="680.98" y="2048.56" style="font-family:'Helvetica';font-size:49.99px;fill:#000000" text-anchor="middle">1981</text>
	<line x1="910.89" y1="1960.52" x2="910.89" y2="1995.92" style="stroke:#000000;stroke-width:4.00"/>
	<text x="910.89" y="2048.56" style="font-family:'Helvetica';font-size:49.99px;fill:#000000" text-anchor="middle">1986</text>
	<line x1="1140.89" y1="1960.52" x2="1140.89" y2="1995.92" style="stroke:#000000;stroke-width:4.00"/>
	<text x="1140.89" y="2048.56" style="font-family:'Helvetica';font-size:49.99px;fill:#000000" text-anchor="middle">1991</text>
	<line x1="1370.89" y1="1960.52" x2="1370.89" y2="1995.92" style="stroke:#000000;stroke-width:4.00"/>
	<text x="1370.89" y="2048.56" style="font-family:'Helvetica';font-size:49.99px;fill:#000000" text-anchor="middle">1996</text>
	<line x1="1600.88" y1="1960.52" x2="1600.88" y2="1995.92" style="stroke:#000000;stroke-width:4.00"/>
	<text x="1600.88" y="2048.56" style="font-family:'Helvetica';font-size:49.99px;fill:#000000" text-anchor="middle">2001</text>
	<line x1="1830.88" y1="1960.52" x2="1830.88" y2="1995.92" style="stroke:#000000;stroke-width:4.00"/>
	<text x="1830.88" y="2048.56" style="font-family:'Helvetica';font-size:49.99px;fill:#000000" text-anchor="middle">2006</text>
	<line x1="2060.79" y1="1960.52" x2="2060.79" y2="1995.92" style="stroke:#000000;stroke-width:4.00"/>
	<text x="2060.79" y="2048.56" style="font-family:'Helvetica';font-size:49.99px;fill:#000000" text-anchor="middle">2011</text>
	<line x1="2290.79" y1="1960.52" x2="2290.79" y2="1995.92" style="stroke:#000000;stroke-width:4.00"/>
	<text x="2290.79" y="2048.56" style="font-family:'Helvetica';font-size:49.99px;fill:#000000" text-anchor="middle">2016</text>
	<line x1="450.98" y1="1960.52" x2="2290.79" y2="1960.52" style="stroke:#000000;stroke-width:4.00"/>
	<text x="1332.62" y="2190.96" style="font-family:'Helvetica';font-size:60.03px;fill:#000000" text-anchor="middle">Year</text>
	<text x="161.52" y="2396.65" style="font-family:'Helvetica';font-size:60.03px;fill:#000000">Arr. cohort: </text>
	<text x="610.98" y="2396.65" style="font-family:'Helvetica';font-size:60.03px;fill:#000000">1964-73</text>
	<text x="965.98" y="2396.65" style="font-family:'Helvetica';font-size:60.03px;fill:#000000">1974-83</text>
	<text x="1320.98" y="2396.65" style="font-family:'Helvetica';font-size:60.03px;fill:#000000">1984-93</text>
	<text x="1675.98" y="2396.65" style="font-family:'Helvetica';font-size:60.03px;fill:#000000">1994-03</text>
	<text x="2030.98" y="2396.65" style="font-family:'Helvetica';font-size:60.03px;fill:#000000">2004-10</text>
	<line x1="610.98" y1="2320.61" x2="831.01" y2="2320.61" style="stroke:#E69F00;stroke-width:10.00"/>
	<line x1="965.98" y1="2320.61" x2="1185.93" y2="2320.61" style="stroke:#56B4E9;stroke-width:10.00"/>
	<line x1="1320.98" y1="2320.61" x2="1540.93" y2="2320.61" style="stroke:#009E73;stroke-width:10.00"/>
	<line x1="1675.98" y1="2320.61" x2="1895.93" y2="2320.61" style="stroke:#D55E00;stroke-width:10.00"/>
	<line x1="2030.98" y1="2320.61" x2="2250.93" y2="2320.61" style="stroke:#CC79A7;stroke-width:10.00"/>
	<text x="1370.89" y="239.12" style="font-family:'Helvetica';font-size:60.03px;fill:#000000" text-anchor="middle">N total</text>
	<text x="1370.89" y="154.88" style="font-family:'Helvetica';font-size:90.01px;fill:#000000" text-anchor="middle">Cohort size development by period, Women</text>
</svg>
