<?xml version="1.0" encoding="UTF-8" standalone="no"?>
<!-- This is a Stata 15.1 generated SVG file (http://www.stata.com) -->

<svg version="1.1" width="3.54in" height="3.54in" viewBox="0 0 2551 2551" xmlns="http://www.w3.org/2000/svg" xmlns:xlink="http://www.w3.org/1999/xlink">
	<desc>Stata Graph - Graph</desc>
	<rect x="0" y="0" width="2551" height="2551" style="fill:#FFFFFF;stroke:none"/>
	<rect x="0.00" y="0.08" width="2551.00" height="2550.92" style="fill:#FFFFFF"/>
	<rect x="2.55" y="2.63" width="2545.90" height="2545.82" style="fill:none;stroke:#FFFFFF;stroke-width:5.10"/>
	<line x1="360.10" y1="1865.82" x2="2346.91" y2="1865.82" style="stroke:#E8E8E8;stroke-width:4.00"/>
	<line x1="360.10" y1="1490.42" x2="2346.91" y2="1490.42" style="stroke:#E8E8E8;stroke-width:4.00"/>
	<line x1="360.10" y1="1115.11" x2="2346.91" y2="1115.11" style="stroke:#E8E8E8;stroke-width:4.00"/>
	<line x1="360.10" y1="739.71" x2="2346.91" y2="739.71" style="stroke:#E8E8E8;stroke-width:4.00"/>
	<line x1="360.10" y1="364.31" x2="2346.91" y2="364.31" style="stroke:#E8E8E8;stroke-width:4.00"/>
	<line x1="416.22" y1="1921.94" x2="416.22" y2="308.19" style="stroke:#E8E8E8;stroke-width:4.00"/>
	<line x1="718.61" y1="1921.94" x2="718.61" y2="308.19" style="stroke:#E8E8E8;stroke-width:4.00"/>
	<line x1="1020.91" y1="1921.94" x2="1020.91" y2="308.19" style="stroke:#E8E8E8;stroke-width:4.00"/>
	<line x1="1323.29" y1="1921.94" x2="1323.29" y2="308.19" style="stroke:#E8E8E8;stroke-width:4.00"/>
	<line x1="1625.60" y1="1921.94" x2="1625.60" y2="308.19" style="stroke:#E8E8E8;stroke-width:4.00"/>
	<line x1="1927.98" y1="1921.94" x2="1927.98" y2="308.19" style="stroke:#E8E8E8;stroke-width:4.00"/>
	<line x1="2230.36" y1="1921.94" x2="2230.36" y2="308.19" style="stroke:#E8E8E8;stroke-width:4.00"/>
	<line x1="1141.85" y1="1515.85" x2="1202.28" y2="1610.56" stroke-linecap="round" style="stroke:#E69F00;stroke-width:10.00"/>
	<line x1="1202.28" y1="1610.56" x2="1262.78" y2="1569.34" stroke-linecap="round" style="stroke:#E69F00;stroke-width:10.00"/>
	<line x1="1262.78" y1="1569.34" x2="1323.21" y2="1576.60" stroke-linecap="round" style="stroke:#E69F00;stroke-width:10.00"/>
	<line x1="1323.21" y1="1576.60" x2="1383.72" y2="1510.35" stroke-linecap="round" style="stroke:#E69F00;stroke-width:10.00"/>
	<line x1="1383.72" y1="1510.35" x2="1444.15" y2="1586.00" stroke-linecap="round" style="stroke:#E69F00;stroke-width:10.00"/>
	<line x1="1444.15" y1="1586.00" x2="1504.66" y2="1552.84" stroke-linecap="round" style="stroke:#E69F00;stroke-width:10.00"/>
	<line x1="1504.66" y1="1552.84" x2="1565.09" y2="1610.96" stroke-linecap="round" style="stroke:#E69F00;stroke-width:10.00"/>
	<line x1="1565.09" y1="1610.96" x2="1625.60" y2="1537.85" stroke-linecap="round" style="stroke:#E69F00;stroke-width:10.00"/>
	<line x1="1625.60" y1="1537.85" x2="1686.02" y2="1605.06" stroke-linecap="round" style="stroke:#E69F00;stroke-width:10.00"/>
	<line x1="1686.02" y1="1605.06" x2="1746.53" y2="1566.47" stroke-linecap="round" style="stroke:#E69F00;stroke-width:10.00"/>
	<line x1="1746.53" y1="1566.47" x2="1806.96" y2="1533.07" stroke-linecap="round" style="stroke:#E69F00;stroke-width:10.00"/>
	<line x1="1806.96" y1="1533.07" x2="1867.47" y2="1554.04" stroke-linecap="round" style="stroke:#E69F00;stroke-width:10.00"/>
	<line x1="1867.47" y1="1554.04" x2="1927.90" y2="1497.28" stroke-linecap="round" style="stroke:#E69F00;stroke-width:10.00"/>
	<line x1="1927.90" y1="1497.28" x2="1988.41" y2="1505.25" stroke-linecap="round" style="stroke:#E69F00;stroke-width:10.00"/>
	<line x1="1988.41" y1="1505.25" x2="2048.92" y2="1497.12" stroke-linecap="round" style="stroke:#E69F00;stroke-width:10.00"/>
	<line x1="2048.92" y1="1497.12" x2="2109.34" y2="1556.59" stroke-linecap="round" style="stroke:#E69F00;stroke-width:10.00"/>
	<line x1="2109.34" y1="1556.59" x2="2169.85" y2="1574.05" stroke-linecap="round" style="stroke:#E69F00;stroke-width:10.00"/>
	<line x1="2169.85" y1="1574.05" x2="2230.28" y2="1574.92" stroke-linecap="round" style="stroke:#E69F00;stroke-width:10.00"/>
	<line x1="537.16" y1="1668.04" x2="597.59" y2="1721.45" stroke-linecap="round" style="stroke:#56B4E9;stroke-width:10.00"/>
	<line x1="597.59" y1="1721.45" x2="658.10" y2="1650.34" stroke-linecap="round" style="stroke:#56B4E9;stroke-width:10.00"/>
	<line x1="658.10" y1="1650.34" x2="718.53" y2="1673.22" stroke-linecap="round" style="stroke:#56B4E9;stroke-width:10.00"/>
	<line x1="718.53" y1="1673.22" x2="779.04" y2="1594.85" stroke-linecap="round" style="stroke:#56B4E9;stroke-width:10.00"/>
	<line x1="779.04" y1="1594.85" x2="839.46" y2="1636.15" stroke-linecap="round" style="stroke:#56B4E9;stroke-width:10.00"/>
	<line x1="839.46" y1="1636.15" x2="899.97" y2="1596.29" stroke-linecap="round" style="stroke:#56B4E9;stroke-width:10.00"/>
	<line x1="899.97" y1="1596.29" x2="960.40" y2="1674.73" stroke-linecap="round" style="stroke:#56B4E9;stroke-width:10.00"/>
	<line x1="960.40" y1="1674.73" x2="1020.91" y2="1604.26" stroke-linecap="round" style="stroke:#56B4E9;stroke-width:10.00"/>
	<line x1="1020.91" y1="1604.26" x2="1081.34" y2="1614.07" stroke-linecap="round" style="stroke:#56B4E9;stroke-width:10.00"/>
	<line x1="1081.34" y1="1614.07" x2="1141.85" y2="1653.13" stroke-linecap="round" style="stroke:#56B4E9;stroke-width:10.00"/>
	<line x1="1141.85" y1="1653.13" x2="1202.28" y2="1602.19" stroke-linecap="round" style="stroke:#56B4E9;stroke-width:10.00"/>
	<line x1="1202.28" y1="1602.19" x2="1262.78" y2="1643.08" stroke-linecap="round" style="stroke:#56B4E9;stroke-width:10.00"/>
	<line x1="1262.78" y1="1643.08" x2="1323.21" y2="1594.06" stroke-linecap="round" style="stroke:#56B4E9;stroke-width:10.00"/>
	<line x1="1323.21" y1="1594.06" x2="1383.72" y2="1616.94" stroke-linecap="round" style="stroke:#56B4E9;stroke-width:10.00"/>
	<line x1="1383.72" y1="1616.94" x2="1444.15" y2="1572.93" stroke-linecap="round" style="stroke:#56B4E9;stroke-width:10.00"/>
	<line x1="1444.15" y1="1572.93" x2="1504.66" y2="1628.02" stroke-linecap="round" style="stroke:#56B4E9;stroke-width:10.00"/>
	<line x1="1504.66" y1="1628.02" x2="1565.09" y2="1590.55" stroke-linecap="round" style="stroke:#56B4E9;stroke-width:10.00"/>
	<line x1="1565.09" y1="1590.55" x2="1625.60" y2="1575.64" stroke-linecap="round" style="stroke:#56B4E9;stroke-width:10.00"/>
	<line x1="1625.60" y1="1575.64" x2="1686.02" y2="1558.42" stroke-linecap="round" style="stroke:#56B4E9;stroke-width:10.00"/>
	<line x1="1686.02" y1="1558.42" x2="1746.53" y2="1590.15" stroke-linecap="round" style="stroke:#56B4E9;stroke-width:10.00"/>
	<line x1="1746.53" y1="1590.15" x2="1806.96" y2="1609.28" stroke-linecap="round" style="stroke:#56B4E9;stroke-width:10.00"/>
	<line x1="1806.96" y1="1609.28" x2="1867.47" y2="1622.83" stroke-linecap="round" style="stroke:#56B4E9;stroke-width:10.00"/>
	<line x1="1867.47" y1="1622.83" x2="1927.90" y2="1622.52" stroke-linecap="round" style="stroke:#56B4E9;stroke-width:10.00"/>
	<line x1="1927.90" y1="1622.52" x2="1988.41" y2="1635.19" stroke-linecap="round" style="stroke:#56B4E9;stroke-width:10.00"/>
	<line x1="1988.41" y1="1635.19" x2="2048.92" y2="1660.38" stroke-linecap="round" style="stroke:#56B4E9;stroke-width:10.00"/>
	<line x1="2048.92" y1="1660.38" x2="2109.34" y2="1657.35" stroke-linecap="round" style="stroke:#56B4E9;stroke-width:10.00"/>
	<line x1="2109.34" y1="1657.35" x2="2169.85" y2="1673.38" stroke-linecap="round" style="stroke:#56B4E9;stroke-width:10.00"/>
	<line x1="2169.85" y1="1673.38" x2="2230.28" y2="1690.36" stroke-linecap="round" style="stroke:#56B4E9;stroke-width:10.00"/>
	<line x1="476.65" y1="1523.51" x2="537.16" y2="1499.51" stroke-linecap="round" style="stroke:#009E73;stroke-width:10.00"/>
	<line x1="537.16" y1="1499.51" x2="597.59" y2="1362.87" stroke-linecap="round" style="stroke:#009E73;stroke-width:10.00"/>
	<line x1="597.59" y1="1362.87" x2="658.10" y2="1314.32" stroke-linecap="round" style="stroke:#009E73;stroke-width:10.00"/>
	<line x1="658.10" y1="1314.32" x2="718.53" y2="1251.66" stroke-linecap="round" style="stroke:#009E73;stroke-width:10.00"/>
	<line x1="718.53" y1="1251.66" x2="779.04" y2="1215.87" stroke-linecap="round" style="stroke:#009E73;stroke-width:10.00"/>
	<line x1="779.04" y1="1215.87" x2="839.46" y2="1190.04" stroke-linecap="round" style="stroke:#009E73;stroke-width:10.00"/>
	<line x1="839.46" y1="1190.04" x2="899.97" y2="1184.30" stroke-linecap="round" style="stroke:#009E73;stroke-width:10.00"/>
	<line x1="899.97" y1="1184.30" x2="960.40" y2="1204.31" stroke-linecap="round" style="stroke:#009E73;stroke-width:10.00"/>
	<line x1="960.40" y1="1204.31" x2="1020.91" y2="1175.77" stroke-linecap="round" style="stroke:#009E73;stroke-width:10.00"/>
	<line x1="1020.91" y1="1175.77" x2="1081.34" y2="1202.16" stroke-linecap="round" style="stroke:#009E73;stroke-width:10.00"/>
	<line x1="1081.34" y1="1202.16" x2="1141.85" y2="1225.04" stroke-linecap="round" style="stroke:#009E73;stroke-width:10.00"/>
	<line x1="1141.85" y1="1225.04" x2="1202.28" y2="1242.02" stroke-linecap="round" style="stroke:#009E73;stroke-width:10.00"/>
	<line x1="1202.28" y1="1242.02" x2="1262.78" y2="1265.85" stroke-linecap="round" style="stroke:#009E73;stroke-width:10.00"/>
	<line x1="1262.78" y1="1265.85" x2="1323.21" y2="1269.04" stroke-linecap="round" style="stroke:#009E73;stroke-width:10.00"/>
	<line x1="1323.21" y1="1269.04" x2="1383.72" y2="1266.49" stroke-linecap="round" style="stroke:#009E73;stroke-width:10.00"/>
	<line x1="1383.72" y1="1266.49" x2="1444.15" y2="1300.29" stroke-linecap="round" style="stroke:#009E73;stroke-width:10.00"/>
	<line x1="1444.15" y1="1300.29" x2="1504.66" y2="1317.91" stroke-linecap="round" style="stroke:#009E73;stroke-width:10.00"/>
	<line x1="1504.66" y1="1317.91" x2="1565.09" y2="1319.90" stroke-linecap="round" style="stroke:#009E73;stroke-width:10.00"/>
	<line x1="1565.09" y1="1319.90" x2="1625.60" y2="1302.44" stroke-linecap="round" style="stroke:#009E73;stroke-width:10.00"/>
	<line x1="1625.60" y1="1302.44" x2="1686.02" y2="1363.83" stroke-linecap="round" style="stroke:#009E73;stroke-width:10.00"/>
	<line x1="1686.02" y1="1363.83" x2="1746.53" y2="1416.92" stroke-linecap="round" style="stroke:#009E73;stroke-width:10.00"/>
	<line x1="476.65" y1="1003.74" x2="537.16" y2="952.40" stroke-linecap="round" style="stroke:#D55E00;stroke-width:10.00"/>
	<line x1="537.16" y1="952.40" x2="597.59" y2="880.57" stroke-linecap="round" style="stroke:#D55E00;stroke-width:10.00"/>
	<line x1="597.59" y1="880.57" x2="658.10" y2="812.41" stroke-linecap="round" style="stroke:#D55E00;stroke-width:10.00"/>
	<line x1="658.10" y1="812.41" x2="718.53" y2="726.00" stroke-linecap="round" style="stroke:#D55E00;stroke-width:10.00"/>
	<line x1="718.53" y1="726.00" x2="779.04" y2="682.63" stroke-linecap="round" style="stroke:#D55E00;stroke-width:10.00"/>
	<line x1="779.04" y1="682.63" x2="839.46" y2="655.93" stroke-linecap="round" style="stroke:#D55E00;stroke-width:10.00"/>
	<line x1="839.46" y1="655.93" x2="899.97" y2="671.79" stroke-linecap="round" style="stroke:#D55E00;stroke-width:10.00"/>
	<line x1="899.97" y1="671.79" x2="960.40" y2="788.74" stroke-linecap="round" style="stroke:#D55E00;stroke-width:10.00"/>
	<line x1="960.40" y1="788.74" x2="1020.91" y2="744.33" stroke-linecap="round" style="stroke:#D55E00;stroke-width:10.00"/>
	<line x1="1020.91" y1="744.33" x2="1081.34" y2="832.42" stroke-linecap="round" style="stroke:#D55E00;stroke-width:10.00"/>
	<line x1="1081.34" y1="832.42" x2="1141.85" y2="878.82" stroke-linecap="round" style="stroke:#D55E00;stroke-width:10.00"/>
	<line x1="476.65" y1="1111.28" x2="537.16" y2="1087.52" stroke-linecap="round" style="stroke:#CC79A7;stroke-width:10.00"/>
	<line x1="537.16" y1="1087.52" x2="597.59" y2="1052.53" stroke-linecap="round" style="stroke:#CC79A7;stroke-width:10.00"/>
	<line x1="597.59" y1="1052.53" x2="658.10" y2="1075.41" stroke-linecap="round" style="stroke:#CC79A7;stroke-width:10.00"/>
	<line x1="658.10" y1="1075.41" x2="718.53" y2="1040.01" stroke-linecap="round" style="stroke:#CC79A7;stroke-width:10.00"/>
	<line x1="360.10" y1="1865.82" x2="324.70" y2="1865.82" style="stroke:#000000;stroke-width:4.00"/>
	<text x="306.93" y="1883.33" style="font-family:'Helvetica';font-size:49.99px;fill:#000000" text-anchor="end">0</text>
	<line x1="360.10" y1="1490.42" x2="324.70" y2="1490.42" style="stroke:#000000;stroke-width:4.00"/>
	<text x="306.93" y="1507.94" style="font-family:'Helvetica';font-size:49.99px;fill:#000000" text-anchor="end">200</text>
	<line x1="360.10" y1="1115.11" x2="324.70" y2="1115.11" style="stroke:#000000;stroke-width:4.00"/>
	<text x="306.93" y="1132.62" style="font-family:'Helvetica';font-size:49.99px;fill:#000000" text-anchor="end">400</text>
	<line x1="360.10" y1="739.71" x2="324.70" y2="739.71" style="stroke:#000000;stroke-width:4.00"/>
	<text x="306.93" y="757.22" style="font-family:'Helvetica';font-size:49.99px;fill:#000000" text-anchor="end">600</text>
	<line x1="360.10" y1="364.31" x2="324.70" y2="364.31" style="stroke:#000000;stroke-width:4.00"/>
	<text x="306.93" y="381.83" style="font-family:'Helvetica';font-size:49.99px;fill:#000000" text-anchor="end">800</text>
	<line x1="360.10" y1="1865.82" x2="360.10" y2="364.31" style="stroke:#000000;stroke-width:4.00"/>
	<text x="136.21" y="1076.84" style="font-family:'Helvetica';font-size:60.03px;fill:#000000" transform="rotate(-90 136.21,1076.84)" text-anchor="middle">Population counts in 1,000</text>
	<line x1="416.22" y1="1921.94" x2="416.22" y2="1957.33" style="stroke:#000000;stroke-width:4.00"/>
	<text x="416.22" y="2009.98" style="font-family:'Helvetica';font-size:49.99px;fill:#000000" text-anchor="middle">0</text>
	<line x1="718.61" y1="1921.94" x2="718.61" y2="1957.33" style="stroke:#000000;stroke-width:4.00"/>
	<text x="718.61" y="2009.98" style="font-family:'Helvetica';font-size:49.99px;fill:#000000" text-anchor="middle">5</text>
	<line x1="1020.91" y1="1921.94" x2="1020.91" y2="1957.33" style="stroke:#000000;stroke-width:4.00"/>
	<text x="1020.91" y="2009.98" style="font-family:'Helvetica';font-size:49.99px;fill:#000000" text-anchor="middle">10</text>
	<line x1="1323.29" y1="1921.94" x2="1323.29" y2="1957.33" style="stroke:#000000;stroke-width:4.00"/>
	<text x="1323.29" y="2009.98" style="font-family:'Helvetica';font-size:49.99px;fill:#000000" text-anchor="middle">15</text>
	<line x1="1625.60" y1="1921.94" x2="1625.60" y2="1957.33" style="stroke:#000000;stroke-width:4.00"/>
	<text x="1625.60" y="2009.98" style="font-family:'Helvetica';font-size:49.99px;fill:#000000" text-anchor="middle">20</text>
	<line x1="1927.98" y1="1921.94" x2="1927.98" y2="1957.33" style="stroke:#000000;stroke-width:4.00"/>
	<text x="1927.98" y="2009.98" style="font-family:'Helvetica';font-size:49.99px;fill:#000000" text-anchor="middle">25</text>
	<line x1="2230.36" y1="1921.94" x2="2230.36" y2="1957.33" style="stroke:#000000;stroke-width:4.00"/>
	<text x="2230.36" y="2009.98" style="font-family:'Helvetica';font-size:49.99px;fill:#000000" text-anchor="middle">30</text>
	<line x1="416.22" y1="1921.94" x2="2290.79" y2="1921.94" style="stroke:#000000;stroke-width:4.00"/>
	<text x="1315.24" y="2152.37" style="font-family:'Helvetica';font-size:60.03px;fill:#000000" text-anchor="middle">Duration of stay</text>
	<text x="161.52" y="2396.65" style="font-family:'Helvetica';font-size:60.03px;fill:#000000">Arr. cohort: </text>
	<text x="610.98" y="2396.65" style="font-family:'Helvetica';font-size:60.03px;fill:#000000">1964-73</text>
	<text x="965.98" y="2396.65" style="font-family:'Helvetica';font-size:60.03px;fill:#000000">1974-83</text>
	<text x="1320.98" y="2396.65" style="font-family:'Helvetica';font-size:60.03px;fill:#000000">1984-93</text>
	<text x="1675.98" y="2396.65" style="font-family:'Helvetica';font-size:60.03px;fill:#000000">1994-03</text>
	<text x="2030.98" y="2396.65" style="font-family:'Helvetica';font-size:60.03px;fill:#000000">2004-10</text>
	<line x1="610.98" y1="2301.32" x2="831.01" y2="2301.32" style="stroke:#E69F00;stroke-width:10.00"/>
	<line x1="965.98" y1="2301.32" x2="1185.93" y2="2301.32" style="stroke:#56B4E9;stroke-width:10.00"/>
	<line x1="1320.98" y1="2301.32" x2="1540.93" y2="2301.32" style="stroke:#009E73;stroke-width:10.00"/>
	<line x1="1675.98" y1="2301.32" x2="1895.93" y2="2301.32" style="stroke:#D55E00;stroke-width:10.00"/>
	<line x1="2030.98" y1="2301.32" x2="2250.93" y2="2301.32" style="stroke:#CC79A7;stroke-width:10.00"/>
	<text x="1353.51" y="239.12" style="font-family:'Helvetica';font-size:60.03px;fill:#000000" text-anchor="middle">N total</text>
	<text x="1353.51" y="154.88" style="font-family:'Helvetica';font-size:90.01px;fill:#000000" text-anchor="middle">Cohort size development by duration of stay, Women</text>
</svg>
