<?xml version="1.0" encoding="UTF-8" standalone="no"?>
<!-- This is a Stata 15.1 generated SVG file (http://www.stata.com) -->

<svg version="1.1" width="3.54in" height="3.54in" viewBox="0 0 2551 2551" xmlns="http://www.w3.org/2000/svg" xmlns:xlink="http://www.w3.org/1999/xlink">
	<desc>Stata Graph - Graph</desc>
	<rect x="0" y="0" width="2551" height="2551" style="fill:#FFFFFF;stroke:none"/>
	<rect x="0.00" y="0.08" width="2551.00" height="2550.92" style="fill:#FFFFFF"/>
	<rect x="2.55" y="2.63" width="2545.90" height="2545.82" style="fill:none;stroke:#FFFFFF;stroke-width:5.10"/>
	<line x1="360.10" y1="1904.40" x2="2346.91" y2="1904.40" style="stroke:#E8E8E8;stroke-width:4.00"/>
	<line x1="360.10" y1="1519.36" x2="2346.91" y2="1519.36" style="stroke:#E8E8E8;stroke-width:4.00"/>
	<line x1="360.10" y1="1134.40" x2="2346.91" y2="1134.40" style="stroke:#E8E8E8;stroke-width:4.00"/>
	<line x1="360.10" y1="749.36" x2="2346.91" y2="749.36" style="stroke:#E8E8E8;stroke-width:4.00"/>
	<line x1="360.10" y1="364.31" x2="2346.91" y2="364.31" style="stroke:#E8E8E8;stroke-width:4.00"/>
	<line x1="416.22" y1="1960.52" x2="416.22" y2="308.19" style="stroke:#E8E8E8;stroke-width:4.00"/>
	<line x1="718.61" y1="1960.52" x2="718.61" y2="308.19" style="stroke:#E8E8E8;stroke-width:4.00"/>
	<line x1="1020.91" y1="1960.52" x2="1020.91" y2="308.19" style="stroke:#E8E8E8;stroke-width:4.00"/>
	<line x1="1323.29" y1="1960.52" x2="1323.29" y2="308.19" style="stroke:#E8E8E8;stroke-width:4.00"/>
	<line x1="1625.60" y1="1960.52" x2="1625.60" y2="308.19" style="stroke:#E8E8E8;stroke-width:4.00"/>
	<line x1="1927.98" y1="1960.52" x2="1927.98" y2="308.19" style="stroke:#E8E8E8;stroke-width:4.00"/>
	<line x1="2230.36" y1="1960.52" x2="2230.36" y2="308.19" style="stroke:#E8E8E8;stroke-width:4.00"/>
	<line x1="1141.85" y1="1545.43" x2="1202.28" y2="1642.60" stroke-linecap="round" style="stroke:#E69F00;stroke-width:10.00"/>
	<line x1="1202.28" y1="1642.60" x2="1262.78" y2="1600.35" stroke-linecap="round" style="stroke:#E69F00;stroke-width:10.00"/>
	<line x1="1262.78" y1="1600.35" x2="1323.21" y2="1607.77" stroke-linecap="round" style="stroke:#E69F00;stroke-width:10.00"/>
	<line x1="1323.21" y1="1607.77" x2="1383.72" y2="1539.85" stroke-linecap="round" style="stroke:#E69F00;stroke-width:10.00"/>
	<line x1="1383.72" y1="1539.85" x2="1444.15" y2="1617.41" stroke-linecap="round" style="stroke:#E69F00;stroke-width:10.00"/>
	<line x1="1444.15" y1="1617.41" x2="1504.66" y2="1583.37" stroke-linecap="round" style="stroke:#E69F00;stroke-width:10.00"/>
	<line x1="1504.66" y1="1583.37" x2="1565.09" y2="1643.00" stroke-linecap="round" style="stroke:#E69F00;stroke-width:10.00"/>
	<line x1="1565.09" y1="1643.00" x2="1625.60" y2="1568.07" stroke-linecap="round" style="stroke:#E69F00;stroke-width:10.00"/>
	<line x1="1625.60" y1="1568.07" x2="1686.02" y2="1636.94" stroke-linecap="round" style="stroke:#E69F00;stroke-width:10.00"/>
	<line x1="1686.02" y1="1636.94" x2="1746.53" y2="1597.40" stroke-linecap="round" style="stroke:#E69F00;stroke-width:10.00"/>
	<line x1="1746.53" y1="1597.40" x2="1806.96" y2="1563.13" stroke-linecap="round" style="stroke:#E69F00;stroke-width:10.00"/>
	<line x1="1806.96" y1="1563.13" x2="1867.47" y2="1584.57" stroke-linecap="round" style="stroke:#E69F00;stroke-width:10.00"/>
	<line x1="1867.47" y1="1584.57" x2="1927.90" y2="1526.37" stroke-linecap="round" style="stroke:#E69F00;stroke-width:10.00"/>
	<line x1="1927.90" y1="1526.37" x2="1988.41" y2="1534.51" stroke-linecap="round" style="stroke:#E69F00;stroke-width:10.00"/>
	<line x1="1988.41" y1="1534.51" x2="2048.92" y2="1526.22" stroke-linecap="round" style="stroke:#E69F00;stroke-width:10.00"/>
	<line x1="2048.92" y1="1526.22" x2="2109.34" y2="1587.20" stroke-linecap="round" style="stroke:#E69F00;stroke-width:10.00"/>
	<line x1="2109.34" y1="1587.20" x2="2169.85" y2="1605.14" stroke-linecap="round" style="stroke:#E69F00;stroke-width:10.00"/>
	<line x1="2169.85" y1="1605.14" x2="2230.28" y2="1606.01" stroke-linecap="round" style="stroke:#E69F00;stroke-width:10.00"/>
	<line x1="537.16" y1="1701.60" x2="597.59" y2="1756.36" stroke-linecap="round" style="stroke:#56B4E9;stroke-width:10.00"/>
	<line x1="597.59" y1="1756.36" x2="658.10" y2="1683.42" stroke-linecap="round" style="stroke:#56B4E9;stroke-width:10.00"/>
	<line x1="658.10" y1="1683.42" x2="718.53" y2="1706.86" stroke-linecap="round" style="stroke:#56B4E9;stroke-width:10.00"/>
	<line x1="718.53" y1="1706.86" x2="779.04" y2="1626.50" stroke-linecap="round" style="stroke:#56B4E9;stroke-width:10.00"/>
	<line x1="779.04" y1="1626.50" x2="839.46" y2="1668.83" stroke-linecap="round" style="stroke:#56B4E9;stroke-width:10.00"/>
	<line x1="839.46" y1="1668.83" x2="899.97" y2="1627.94" stroke-linecap="round" style="stroke:#56B4E9;stroke-width:10.00"/>
	<line x1="899.97" y1="1627.94" x2="960.40" y2="1708.37" stroke-linecap="round" style="stroke:#56B4E9;stroke-width:10.00"/>
	<line x1="960.40" y1="1708.37" x2="1020.91" y2="1636.15" stroke-linecap="round" style="stroke:#56B4E9;stroke-width:10.00"/>
	<line x1="1020.91" y1="1636.15" x2="1081.34" y2="1646.11" stroke-linecap="round" style="stroke:#56B4E9;stroke-width:10.00"/>
	<line x1="1081.34" y1="1646.11" x2="1141.85" y2="1686.21" stroke-linecap="round" style="stroke:#56B4E9;stroke-width:10.00"/>
	<line x1="1141.85" y1="1686.21" x2="1202.28" y2="1634.00" stroke-linecap="round" style="stroke:#56B4E9;stroke-width:10.00"/>
	<line x1="1202.28" y1="1634.00" x2="1262.78" y2="1675.93" stroke-linecap="round" style="stroke:#56B4E9;stroke-width:10.00"/>
	<line x1="1262.78" y1="1675.93" x2="1323.21" y2="1625.70" stroke-linecap="round" style="stroke:#56B4E9;stroke-width:10.00"/>
	<line x1="1323.21" y1="1625.70" x2="1383.72" y2="1649.06" stroke-linecap="round" style="stroke:#56B4E9;stroke-width:10.00"/>
	<line x1="1383.72" y1="1649.06" x2="1444.15" y2="1603.94" stroke-linecap="round" style="stroke:#56B4E9;stroke-width:10.00"/>
	<line x1="1444.15" y1="1603.94" x2="1504.66" y2="1660.46" stroke-linecap="round" style="stroke:#56B4E9;stroke-width:10.00"/>
	<line x1="1504.66" y1="1660.46" x2="1565.09" y2="1622.04" stroke-linecap="round" style="stroke:#56B4E9;stroke-width:10.00"/>
	<line x1="1565.09" y1="1622.04" x2="1625.60" y2="1606.81" stroke-linecap="round" style="stroke:#56B4E9;stroke-width:10.00"/>
	<line x1="1625.60" y1="1606.81" x2="1686.02" y2="1589.11" stroke-linecap="round" style="stroke:#56B4E9;stroke-width:10.00"/>
	<line x1="1686.02" y1="1589.11" x2="1746.53" y2="1621.64" stroke-linecap="round" style="stroke:#56B4E9;stroke-width:10.00"/>
	<line x1="1746.53" y1="1621.64" x2="1806.96" y2="1641.25" stroke-linecap="round" style="stroke:#56B4E9;stroke-width:10.00"/>
	<line x1="1806.96" y1="1641.25" x2="1867.47" y2="1655.12" stroke-linecap="round" style="stroke:#56B4E9;stroke-width:10.00"/>
	<line x1="1867.47" y1="1655.12" x2="1927.90" y2="1654.88" stroke-linecap="round" style="stroke:#56B4E9;stroke-width:10.00"/>
	<line x1="1927.90" y1="1654.88" x2="1988.41" y2="1667.88" stroke-linecap="round" style="stroke:#56B4E9;stroke-width:10.00"/>
	<line x1="1988.41" y1="1667.88" x2="2048.92" y2="1693.70" stroke-linecap="round" style="stroke:#56B4E9;stroke-width:10.00"/>
	<line x1="2048.92" y1="1693.70" x2="2109.34" y2="1690.52" stroke-linecap="round" style="stroke:#56B4E9;stroke-width:10.00"/>
	<line x1="2109.34" y1="1690.52" x2="2169.85" y2="1706.94" stroke-linecap="round" style="stroke:#56B4E9;stroke-width:10.00"/>
	<line x1="2169.85" y1="1706.94" x2="2230.28" y2="1724.48" stroke-linecap="round" style="stroke:#56B4E9;stroke-width:10.00"/>
	<line x1="476.65" y1="1553.24" x2="537.16" y2="1528.69" stroke-linecap="round" style="stroke:#009E73;stroke-width:10.00"/>
	<line x1="537.16" y1="1528.69" x2="597.59" y2="1388.54" stroke-linecap="round" style="stroke:#009E73;stroke-width:10.00"/>
	<line x1="597.59" y1="1388.54" x2="658.10" y2="1338.80" stroke-linecap="round" style="stroke:#009E73;stroke-width:10.00"/>
	<line x1="658.10" y1="1338.80" x2="718.53" y2="1274.46" stroke-linecap="round" style="stroke:#009E73;stroke-width:10.00"/>
	<line x1="718.53" y1="1274.46" x2="779.04" y2="1237.79" stroke-linecap="round" style="stroke:#009E73;stroke-width:10.00"/>
	<line x1="779.04" y1="1237.79" x2="839.46" y2="1211.25" stroke-linecap="round" style="stroke:#009E73;stroke-width:10.00"/>
	<line x1="839.46" y1="1211.25" x2="899.97" y2="1205.35" stroke-linecap="round" style="stroke:#009E73;stroke-width:10.00"/>
	<line x1="899.97" y1="1205.35" x2="960.40" y2="1225.91" stroke-linecap="round" style="stroke:#009E73;stroke-width:10.00"/>
	<line x1="960.40" y1="1225.91" x2="1020.91" y2="1196.58" stroke-linecap="round" style="stroke:#009E73;stroke-width:10.00"/>
	<line x1="1020.91" y1="1196.58" x2="1081.34" y2="1223.68" stroke-linecap="round" style="stroke:#009E73;stroke-width:10.00"/>
	<line x1="1081.34" y1="1223.68" x2="1141.85" y2="1247.12" stroke-linecap="round" style="stroke:#009E73;stroke-width:10.00"/>
	<line x1="1141.85" y1="1247.12" x2="1202.28" y2="1264.58" stroke-linecap="round" style="stroke:#009E73;stroke-width:10.00"/>
	<line x1="1202.28" y1="1264.58" x2="1262.78" y2="1289.05" stroke-linecap="round" style="stroke:#009E73;stroke-width:10.00"/>
	<line x1="1262.78" y1="1289.05" x2="1323.21" y2="1292.24" stroke-linecap="round" style="stroke:#009E73;stroke-width:10.00"/>
	<line x1="1323.21" y1="1292.24" x2="1383.72" y2="1289.69" stroke-linecap="round" style="stroke:#009E73;stroke-width:10.00"/>
	<line x1="1383.72" y1="1289.69" x2="1444.15" y2="1324.29" stroke-linecap="round" style="stroke:#009E73;stroke-width:10.00"/>
	<line x1="1444.15" y1="1324.29" x2="1504.66" y2="1342.46" stroke-linecap="round" style="stroke:#009E73;stroke-width:10.00"/>
	<line x1="1504.66" y1="1342.46" x2="1565.09" y2="1344.46" stroke-linecap="round" style="stroke:#009E73;stroke-width:10.00"/>
	<line x1="1565.09" y1="1344.46" x2="1625.60" y2="1326.52" stroke-linecap="round" style="stroke:#009E73;stroke-width:10.00"/>
	<line x1="1625.60" y1="1326.52" x2="1686.02" y2="1389.50" stroke-linecap="round" style="stroke:#009E73;stroke-width:10.00"/>
	<line x1="1686.02" y1="1389.50" x2="1746.53" y2="1443.95" stroke-linecap="round" style="stroke:#009E73;stroke-width:10.00"/>
	<line x1="476.65" y1="1020.24" x2="537.16" y2="967.55" stroke-linecap="round" style="stroke:#D55E00;stroke-width:10.00"/>
	<line x1="537.16" y1="967.55" x2="597.59" y2="893.81" stroke-linecap="round" style="stroke:#D55E00;stroke-width:10.00"/>
	<line x1="597.59" y1="893.81" x2="658.10" y2="823.89" stroke-linecap="round" style="stroke:#D55E00;stroke-width:10.00"/>
	<line x1="658.10" y1="823.89" x2="718.53" y2="735.33" stroke-linecap="round" style="stroke:#D55E00;stroke-width:10.00"/>
	<line x1="718.53" y1="735.33" x2="779.04" y2="690.76" stroke-linecap="round" style="stroke:#D55E00;stroke-width:10.00"/>
	<line x1="779.04" y1="690.76" x2="839.46" y2="663.42" stroke-linecap="round" style="stroke:#D55E00;stroke-width:10.00"/>
	<line x1="839.46" y1="663.42" x2="899.97" y2="679.68" stroke-linecap="round" style="stroke:#D55E00;stroke-width:10.00"/>
	<line x1="899.97" y1="679.68" x2="960.40" y2="799.58" stroke-linecap="round" style="stroke:#D55E00;stroke-width:10.00"/>
	<line x1="960.40" y1="799.58" x2="1020.91" y2="754.14" stroke-linecap="round" style="stroke:#D55E00;stroke-width:10.00"/>
	<line x1="1020.91" y1="754.14" x2="1081.34" y2="844.46" stroke-linecap="round" style="stroke:#D55E00;stroke-width:10.00"/>
	<line x1="1081.34" y1="844.46" x2="1141.85" y2="892.05" stroke-linecap="round" style="stroke:#D55E00;stroke-width:10.00"/>
	<line x1="476.65" y1="1130.49" x2="537.16" y2="1106.10" stroke-linecap="round" style="stroke:#CC79A7;stroke-width:10.00"/>
	<line x1="537.16" y1="1106.10" x2="597.59" y2="1070.22" stroke-linecap="round" style="stroke:#CC79A7;stroke-width:10.00"/>
	<line x1="597.59" y1="1070.22" x2="658.10" y2="1093.66" stroke-linecap="round" style="stroke:#CC79A7;stroke-width:10.00"/>
	<line x1="658.10" y1="1093.66" x2="718.53" y2="1057.39" stroke-linecap="round" style="stroke:#CC79A7;stroke-width:10.00"/>
	<line x1="360.10" y1="1904.40" x2="324.70" y2="1904.40" style="stroke:#000000;stroke-width:4.00"/>
	<text x="306.93" y="1921.92" style="font-family:'Helvetica';font-size:49.99px;fill:#000000" text-anchor="end">0</text>
	<line x1="360.10" y1="1519.36" x2="324.70" y2="1519.36" style="stroke:#000000;stroke-width:4.00"/>
	<text x="306.93" y="1536.87" style="font-family:'Helvetica';font-size:49.99px;fill:#000000" text-anchor="end">200</text>
	<line x1="360.10" y1="1134.40" x2="324.70" y2="1134.40" style="stroke:#000000;stroke-width:4.00"/>
	<text x="306.93" y="1151.91" style="font-family:'Helvetica';font-size:49.99px;fill:#000000" text-anchor="end">400</text>
	<line x1="360.10" y1="749.36" x2="324.70" y2="749.36" style="stroke:#000000;stroke-width:4.00"/>
	<text x="306.93" y="766.87" style="font-family:'Helvetica';font-size:49.99px;fill:#000000" text-anchor="end">600</text>
	<line x1="360.10" y1="364.31" x2="324.70" y2="364.31" style="stroke:#000000;stroke-width:4.00"/>
	<text x="306.93" y="381.83" style="font-family:'Helvetica';font-size:49.99px;fill:#000000" text-anchor="end">800</text>
	<line x1="360.10" y1="1904.40" x2="360.10" y2="364.31" style="stroke:#000000;stroke-width:4.00"/>
	<text x="136.21" y="1096.13" style="font-family:'Helvetica';font-size:60.03px;fill:#000000" transform="rotate(-90 136.21,1096.13)" text-anchor="middle">Population counts in 1,000</text>
	<line x1="416.22" y1="1960.52" x2="416.22" y2="1995.92" style="stroke:#000000;stroke-width:4.00"/>
	<text x="416.22" y="2048.56" style="font-family:'Helvetica';font-size:49.99px;fill:#000000" text-anchor="middle">0</text>
	<line x1="718.61" y1="1960.52" x2="718.61" y2="1995.92" style="stroke:#000000;stroke-width:4.00"/>
	<text x="718.61" y="2048.56" style="font-family:'Helvetica';font-size:49.99px;fill:#000000" text-anchor="middle">5</text>
	<line x1="1020.91" y1="1960.52" x2="1020.91" y2="1995.92" style="stroke:#000000;stroke-width:4.00"/>
	<text x="1020.91" y="2048.56" style="font-family:'Helvetica';font-size:49.99px;fill:#000000" text-anchor="middle">10</text>
	<line x1="1323.29" y1="1960.52" x2="1323.29" y2="1995.92" style="stroke:#000000;stroke-width:4.00"/>
	<text x="1323.29" y="2048.56" style="font-family:'Helvetica';font-size:49.99px;fill:#000000" text-anchor="middle">15</text>
	<line x1="1625.60" y1="1960.52" x2="1625.60" y2="1995.92" style="stroke:#000000;stroke-width:4.00"/>
	<text x="1625.60" y="2048.56" style="font-family:'Helvetica';font-size:49.99px;fill:#000000" text-anchor="middle">20</text>
	<line x1="1927.98" y1="1960.52" x2="1927.98" y2="1995.92" style="stroke:#000000;stroke-width:4.00"/>
	<text x="1927.98" y="2048.56" style="font-family:'Helvetica';font-size:49.99px;fill:#000000" text-anchor="middle">25</text>
	<line x1="2230.36" y1="1960.52" x2="2230.36" y2="1995.92" style="stroke:#000000;stroke-width:4.00"/>
	<text x="2230.36" y="2048.56" style="font-family:'Helvetica';font-size:49.99px;fill:#000000" text-anchor="middle">30</text>
	<line x1="416.22" y1="1960.52" x2="2290.79" y2="1960.52" style="stroke:#000000;stroke-width:4.00"/>
	<text x="1315.24" y="2190.96" style="font-family:'Helvetica';font-size:60.03px;fill:#000000" text-anchor="middle">Duration of stay</text>
	<text x="161.52" y="2396.65" style="font-family:'Helvetica';font-size:60.03px;fill:#000000">Arr. cohort: </text>
	<text x="610.98" y="2396.65" style="font-family:'Helvetica';font-size:60.03px;fill:#000000">1964-73</text>
	<text x="965.98" y="2396.65" style="font-family:'Helvetica';font-size:60.03px;fill:#000000">1974-83</text>
	<text x="1320.98" y="2396.65" style="font-family:'Helvetica';font-size:60.03px;fill:#000000">1984-93</text>
	<text x="1675.98" y="2396.65" style="font-family:'Helvetica';font-size:60.03px;fill:#000000">1994-03</text>
	<text x="2030.98" y="2396.65" style="font-family:'Helvetica';font-size:60.03px;fill:#000000">2004-10</text>
	<line x1="610.98" y1="2320.61" x2="831.01" y2="2320.61" style="stroke:#E69F00;stroke-width:10.00"/>
	<line x1="965.98" y1="2320.61" x2="1185.93" y2="2320.61" style="stroke:#56B4E9;stroke-width:10.00"/>
	<line x1="1320.98" y1="2320.61" x2="1540.93" y2="2320.61" style="stroke:#009E73;stroke-width:10.00"/>
	<line x1="1675.98" y1="2320.61" x2="1895.93" y2="2320.61" style="stroke:#D55E00;stroke-width:10.00"/>
	<line x1="2030.98" y1="2320.61" x2="2250.93" y2="2320.61" style="stroke:#CC79A7;stroke-width:10.00"/>
	<text x="1353.51" y="239.12" style="font-family:'Helvetica';font-size:60.03px;fill:#000000" text-anchor="middle">N total</text>
	<text x="1353.51" y="154.88" style="font-family:'Helvetica';font-size:90.01px;fill:#000000" text-anchor="middle">Cohort size development by duration of stay, Women</text>
</svg>
