<?xml version="1.0" encoding="UTF-8" standalone="no"?>
<!-- This is a Stata 15.1 generated SVG file (http://www.stata.com) -->

<svg version="1.1" width="3.54in" height="3.54in" viewBox="0 0 2551 2551" xmlns="http://www.w3.org/2000/svg" xmlns:xlink="http://www.w3.org/1999/xlink">
	<desc>Stata Graph - Graph</desc>
	<rect x="0" y="0" width="2551" height="2551" style="fill:#FFFFFF;stroke:none"/>
	<rect x="0.00" y="0.08" width="2551.00" height="2550.92" style="fill:#FFFFFF"/>
	<rect x="2.55" y="2.63" width="2545.90" height="2545.82" style="fill:none;stroke:#FFFFFF;stroke-width:5.10"/>
	<line x1="378.12" y1="1904.40" x2="2346.91" y2="1904.40" style="stroke:#E8E8E8;stroke-width:4.00"/>
	<line x1="378.12" y1="1519.36" x2="2346.91" y2="1519.36" style="stroke:#E8E8E8;stroke-width:4.00"/>
	<line x1="378.12" y1="1134.40" x2="2346.91" y2="1134.40" style="stroke:#E8E8E8;stroke-width:4.00"/>
	<line x1="378.12" y1="749.36" x2="2346.91" y2="749.36" style="stroke:#E8E8E8;stroke-width:4.00"/>
	<line x1="378.12" y1="364.31" x2="2346.91" y2="364.31" style="stroke:#E8E8E8;stroke-width:4.00"/>
	<line x1="434.24" y1="1960.52" x2="434.24" y2="308.19" style="stroke:#E8E8E8;stroke-width:4.00"/>
	<line x1="733.67" y1="1960.52" x2="733.67" y2="308.19" style="stroke:#E8E8E8;stroke-width:4.00"/>
	<line x1="1033.11" y1="1960.52" x2="1033.11" y2="308.19" style="stroke:#E8E8E8;stroke-width:4.00"/>
	<line x1="1332.54" y1="1960.52" x2="1332.54" y2="308.19" style="stroke:#E8E8E8;stroke-width:4.00"/>
	<line x1="1632.05" y1="1960.52" x2="1632.05" y2="308.19" style="stroke:#E8E8E8;stroke-width:4.00"/>
	<line x1="1931.49" y1="1960.52" x2="1931.49" y2="308.19" style="stroke:#E8E8E8;stroke-width:4.00"/>
	<line x1="2230.92" y1="1960.52" x2="2230.92" y2="308.19" style="stroke:#E8E8E8;stroke-width:4.00"/>
	<line x1="1152.85" y1="1375.07" x2="1212.72" y2="1544.31" stroke-linecap="round" style="stroke:#E69F00;stroke-width:10.00"/>
	<line x1="1212.72" y1="1544.31" x2="1272.67" y2="1427.44" stroke-linecap="round" style="stroke:#E69F00;stroke-width:10.00"/>
	<line x1="1272.67" y1="1427.44" x2="1332.54" y2="1424.49" stroke-linecap="round" style="stroke:#E69F00;stroke-width:10.00"/>
	<line x1="1332.54" y1="1424.49" x2="1392.41" y2="1327.95" stroke-linecap="round" style="stroke:#E69F00;stroke-width:10.00"/>
	<line x1="1392.41" y1="1327.95" x2="1452.28" y2="1425.93" stroke-linecap="round" style="stroke:#E69F00;stroke-width:10.00"/>
	<line x1="1452.28" y1="1425.93" x2="1512.23" y2="1404.72" stroke-linecap="round" style="stroke:#E69F00;stroke-width:10.00"/>
	<line x1="1512.23" y1="1404.72" x2="1572.10" y2="1477.35" stroke-linecap="round" style="stroke:#E69F00;stroke-width:10.00"/>
	<line x1="1572.10" y1="1477.35" x2="1631.97" y2="1349.40" stroke-linecap="round" style="stroke:#E69F00;stroke-width:10.00"/>
	<line x1="1631.97" y1="1349.40" x2="1691.84" y2="1397.63" stroke-linecap="round" style="stroke:#E69F00;stroke-width:10.00"/>
	<line x1="1691.84" y1="1397.63" x2="1751.79" y2="1408.39" stroke-linecap="round" style="stroke:#E69F00;stroke-width:10.00"/>
	<line x1="1751.79" y1="1408.39" x2="1811.67" y2="1294.87" stroke-linecap="round" style="stroke:#E69F00;stroke-width:10.00"/>
	<line x1="1811.67" y1="1294.87" x2="1871.54" y2="1332.66" stroke-linecap="round" style="stroke:#E69F00;stroke-width:10.00"/>
	<line x1="1871.54" y1="1332.66" x2="1931.41" y2="1199.93" stroke-linecap="round" style="stroke:#E69F00;stroke-width:10.00"/>
	<line x1="1931.41" y1="1199.93" x2="1991.28" y2="1211.09" stroke-linecap="round" style="stroke:#E69F00;stroke-width:10.00"/>
	<line x1="1991.28" y1="1211.09" x2="2051.23" y2="1166.21" stroke-linecap="round" style="stroke:#E69F00;stroke-width:10.00"/>
	<line x1="2051.23" y1="1166.21" x2="2111.10" y2="1209.33" stroke-linecap="round" style="stroke:#E69F00;stroke-width:10.00"/>
	<line x1="2111.10" y1="1209.33" x2="2170.97" y2="1253.98" stroke-linecap="round" style="stroke:#E69F00;stroke-width:10.00"/>
	<line x1="2170.97" y1="1253.98" x2="2230.84" y2="1146.28" stroke-linecap="round" style="stroke:#E69F00;stroke-width:10.00"/>
	<line x1="553.98" y1="1694.10" x2="613.85" y2="1741.06" stroke-linecap="round" style="stroke:#56B4E9;stroke-width:10.00"/>
	<line x1="613.85" y1="1741.06" x2="673.72" y2="1675.69" stroke-linecap="round" style="stroke:#56B4E9;stroke-width:10.00"/>
	<line x1="673.72" y1="1675.69" x2="733.67" y2="1686.13" stroke-linecap="round" style="stroke:#56B4E9;stroke-width:10.00"/>
	<line x1="733.67" y1="1686.13" x2="793.55" y2="1613.27" stroke-linecap="round" style="stroke:#56B4E9;stroke-width:10.00"/>
	<line x1="793.55" y1="1613.27" x2="853.42" y2="1665.48" stroke-linecap="round" style="stroke:#56B4E9;stroke-width:10.00"/>
	<line x1="853.42" y1="1665.48" x2="913.29" y2="1628.10" stroke-linecap="round" style="stroke:#56B4E9;stroke-width:10.00"/>
	<line x1="913.29" y1="1628.10" x2="973.24" y2="1682.15" stroke-linecap="round" style="stroke:#56B4E9;stroke-width:10.00"/>
	<line x1="973.24" y1="1682.15" x2="1033.11" y2="1652.65" stroke-linecap="round" style="stroke:#56B4E9;stroke-width:10.00"/>
	<line x1="1033.11" y1="1652.65" x2="1092.98" y2="1665.88" stroke-linecap="round" style="stroke:#56B4E9;stroke-width:10.00"/>
	<line x1="1092.98" y1="1665.88" x2="1152.85" y2="1703.83" stroke-linecap="round" style="stroke:#56B4E9;stroke-width:10.00"/>
	<line x1="1152.85" y1="1703.83" x2="1212.72" y2="1642.05" stroke-linecap="round" style="stroke:#56B4E9;stroke-width:10.00"/>
	<line x1="1212.72" y1="1642.05" x2="1272.67" y2="1686.45" stroke-linecap="round" style="stroke:#56B4E9;stroke-width:10.00"/>
	<line x1="1272.67" y1="1686.45" x2="1332.54" y2="1628.49" stroke-linecap="round" style="stroke:#56B4E9;stroke-width:10.00"/>
	<line x1="1332.54" y1="1628.49" x2="1392.41" y2="1648.42" stroke-linecap="round" style="stroke:#56B4E9;stroke-width:10.00"/>
	<line x1="1392.41" y1="1648.42" x2="1452.28" y2="1619.49" stroke-linecap="round" style="stroke:#56B4E9;stroke-width:10.00"/>
	<line x1="1452.28" y1="1619.49" x2="1512.23" y2="1634.95" stroke-linecap="round" style="stroke:#56B4E9;stroke-width:10.00"/>
	<line x1="1512.23" y1="1634.95" x2="1572.10" y2="1644.12" stroke-linecap="round" style="stroke:#56B4E9;stroke-width:10.00"/>
	<line x1="1572.10" y1="1644.12" x2="1631.97" y2="1577.71" stroke-linecap="round" style="stroke:#56B4E9;stroke-width:10.00"/>
	<line x1="1631.97" y1="1577.71" x2="1691.84" y2="1619.88" stroke-linecap="round" style="stroke:#56B4E9;stroke-width:10.00"/>
	<line x1="1691.84" y1="1619.88" x2="1751.79" y2="1610.40" stroke-linecap="round" style="stroke:#56B4E9;stroke-width:10.00"/>
	<line x1="1751.79" y1="1610.40" x2="1811.67" y2="1626.90" stroke-linecap="round" style="stroke:#56B4E9;stroke-width:10.00"/>
	<line x1="1811.67" y1="1626.90" x2="1871.54" y2="1638.46" stroke-linecap="round" style="stroke:#56B4E9;stroke-width:10.00"/>
	<line x1="1871.54" y1="1638.46" x2="1931.41" y2="1615.02" stroke-linecap="round" style="stroke:#56B4E9;stroke-width:10.00"/>
	<line x1="1931.41" y1="1615.02" x2="1991.28" y2="1616.78" stroke-linecap="round" style="stroke:#56B4E9;stroke-width:10.00"/>
	<line x1="1991.28" y1="1616.78" x2="2051.23" y2="1621.48" stroke-linecap="round" style="stroke:#56B4E9;stroke-width:10.00"/>
	<line x1="2051.23" y1="1621.48" x2="2111.10" y2="1621.48" stroke-linecap="round" style="stroke:#56B4E9;stroke-width:10.00"/>
	<line x1="2111.10" y1="1621.48" x2="2170.97" y2="1641.17" stroke-linecap="round" style="stroke:#56B4E9;stroke-width:10.00"/>
	<line x1="2170.97" y1="1641.17" x2="2230.84" y2="1569.82" stroke-linecap="round" style="stroke:#56B4E9;stroke-width:10.00"/>
	<line x1="494.11" y1="1461.48" x2="553.98" y2="1452.32" stroke-linecap="round" style="stroke:#009E73;stroke-width:10.00"/>
	<line x1="553.98" y1="1452.32" x2="613.85" y2="1304.36" stroke-linecap="round" style="stroke:#009E73;stroke-width:10.00"/>
	<line x1="613.85" y1="1304.36" x2="673.72" y2="1246.16" stroke-linecap="round" style="stroke:#009E73;stroke-width:10.00"/>
	<line x1="673.72" y1="1246.16" x2="733.67" y2="1158.39" stroke-linecap="round" style="stroke:#009E73;stroke-width:10.00"/>
	<line x1="733.67" y1="1158.39" x2="793.55" y2="1176.01" stroke-linecap="round" style="stroke:#009E73;stroke-width:10.00"/>
	<line x1="793.55" y1="1176.01" x2="853.42" y2="1121.72" stroke-linecap="round" style="stroke:#009E73;stroke-width:10.00"/>
	<line x1="853.42" y1="1121.72" x2="913.29" y2="1134.16" stroke-linecap="round" style="stroke:#009E73;stroke-width:10.00"/>
	<line x1="913.29" y1="1134.16" x2="973.24" y2="1204.55" stroke-linecap="round" style="stroke:#009E73;stroke-width:10.00"/>
	<line x1="973.24" y1="1204.55" x2="1033.11" y2="1125.63" stroke-linecap="round" style="stroke:#009E73;stroke-width:10.00"/>
	<line x1="1033.11" y1="1125.63" x2="1092.98" y2="1192.99" stroke-linecap="round" style="stroke:#009E73;stroke-width:10.00"/>
	<line x1="1092.98" y1="1192.99" x2="1152.85" y2="1182.07" stroke-linecap="round" style="stroke:#009E73;stroke-width:10.00"/>
	<line x1="1152.85" y1="1182.07" x2="1212.72" y2="1209.81" stroke-linecap="round" style="stroke:#009E73;stroke-width:10.00"/>
	<line x1="1212.72" y1="1209.81" x2="1272.67" y2="1239.87" stroke-linecap="round" style="stroke:#009E73;stroke-width:10.00"/>
	<line x1="1272.67" y1="1239.87" x2="1332.54" y2="1200.40" stroke-linecap="round" style="stroke:#009E73;stroke-width:10.00"/>
	<line x1="1332.54" y1="1200.40" x2="1392.41" y2="1221.69" stroke-linecap="round" style="stroke:#009E73;stroke-width:10.00"/>
	<line x1="1392.41" y1="1221.69" x2="1452.28" y2="1232.29" stroke-linecap="round" style="stroke:#009E73;stroke-width:10.00"/>
	<line x1="1452.28" y1="1232.29" x2="1512.23" y2="1245.21" stroke-linecap="round" style="stroke:#009E73;stroke-width:10.00"/>
	<line x1="1512.23" y1="1245.21" x2="1572.10" y2="1282.67" stroke-linecap="round" style="stroke:#009E73;stroke-width:10.00"/>
	<line x1="1572.10" y1="1282.67" x2="1631.97" y2="1216.51" stroke-linecap="round" style="stroke:#009E73;stroke-width:10.00"/>
	<line x1="1631.97" y1="1216.51" x2="1691.84" y2="1287.22" stroke-linecap="round" style="stroke:#009E73;stroke-width:10.00"/>
	<line x1="1691.84" y1="1287.22" x2="1751.79" y2="1284.35" stroke-linecap="round" style="stroke:#009E73;stroke-width:10.00"/>
	<line x1="494.11" y1="906.72" x2="553.98" y2="1003.02" stroke-linecap="round" style="stroke:#D55E00;stroke-width:10.00"/>
	<line x1="553.98" y1="1003.02" x2="613.85" y2="926.49" stroke-linecap="round" style="stroke:#D55E00;stroke-width:10.00"/>
	<line x1="613.85" y1="926.49" x2="673.72" y2="885.68" stroke-linecap="round" style="stroke:#D55E00;stroke-width:10.00"/>
	<line x1="673.72" y1="885.68" x2="733.67" y2="865.11" stroke-linecap="round" style="stroke:#D55E00;stroke-width:10.00"/>
	<line x1="733.67" y1="865.11" x2="793.55" y2="841.03" stroke-linecap="round" style="stroke:#D55E00;stroke-width:10.00"/>
	<line x1="793.55" y1="841.03" x2="853.42" y2="794.08" stroke-linecap="round" style="stroke:#D55E00;stroke-width:10.00"/>
	<line x1="853.42" y1="794.08" x2="913.29" y2="782.04" stroke-linecap="round" style="stroke:#D55E00;stroke-width:10.00"/>
	<line x1="913.29" y1="782.04" x2="973.24" y2="884.00" stroke-linecap="round" style="stroke:#D55E00;stroke-width:10.00"/>
	<line x1="973.24" y1="884.00" x2="1033.11" y2="849.80" stroke-linecap="round" style="stroke:#D55E00;stroke-width:10.00"/>
	<line x1="1033.11" y1="849.80" x2="1092.98" y2="970.26" stroke-linecap="round" style="stroke:#D55E00;stroke-width:10.00"/>
	<line x1="1092.98" y1="970.26" x2="1152.85" y2="963.72" stroke-linecap="round" style="stroke:#D55E00;stroke-width:10.00"/>
	<line x1="494.11" y1="1096.21" x2="553.98" y2="1105.06" stroke-linecap="round" style="stroke:#CC79A7;stroke-width:10.00"/>
	<line x1="553.98" y1="1105.06" x2="613.85" y2="1071.42" stroke-linecap="round" style="stroke:#CC79A7;stroke-width:10.00"/>
	<line x1="613.85" y1="1071.42" x2="673.72" y2="1134.08" stroke-linecap="round" style="stroke:#CC79A7;stroke-width:10.00"/>
	<line x1="673.72" y1="1134.08" x2="733.67" y2="1093.98" stroke-linecap="round" style="stroke:#CC79A7;stroke-width:10.00"/>
	<line x1="378.12" y1="1904.40" x2="342.72" y2="1904.40" style="stroke:#000000;stroke-width:4.00"/>
	<text x="324.94" y="1921.92" style="font-family:'Helvetica';font-size:49.99px;fill:#000000" text-anchor="end">0</text>
	<line x1="378.12" y1="1519.36" x2="342.72" y2="1519.36" style="stroke:#000000;stroke-width:4.00"/>
	<text x="324.94" y="1536.87" style="font-family:'Helvetica';font-size:49.99px;fill:#000000" text-anchor="end">200</text>
	<line x1="378.12" y1="1134.40" x2="342.72" y2="1134.40" style="stroke:#000000;stroke-width:4.00"/>
	<text x="324.94" y="1151.91" style="font-family:'Helvetica';font-size:49.99px;fill:#000000" text-anchor="end">400</text>
	<line x1="378.12" y1="749.36" x2="342.72" y2="749.36" style="stroke:#000000;stroke-width:4.00"/>
	<text x="324.94" y="766.87" style="font-family:'Helvetica';font-size:49.99px;fill:#000000" text-anchor="end">600</text>
	<line x1="378.12" y1="364.31" x2="342.72" y2="364.31" style="stroke:#000000;stroke-width:4.00"/>
	<text x="324.94" y="381.83" style="font-family:'Helvetica';font-size:49.99px;fill:#000000" text-anchor="end">800</text>
	<line x1="378.12" y1="1904.40" x2="378.12" y2="364.31" style="stroke:#000000;stroke-width:4.00"/>
	<text x="136.21" y="1096.13" style="font-family:'Helvetica';font-size:60.03px;fill:#000000" transform="rotate(-90 136.21,1096.13)" text-anchor="middle">Population counts in 1,000</text>
	<line x1="434.24" y1="1960.52" x2="434.24" y2="1995.92" style="stroke:#000000;stroke-width:4.00"/>
	<text x="434.24" y="2048.56" style="font-family:'Helvetica';font-size:49.99px;fill:#000000" text-anchor="middle">0</text>
	<line x1="733.67" y1="1960.52" x2="733.67" y2="1995.92" style="stroke:#000000;stroke-width:4.00"/>
	<text x="733.67" y="2048.56" style="font-family:'Helvetica';font-size:49.99px;fill:#000000" text-anchor="middle">5</text>
	<line x1="1033.11" y1="1960.52" x2="1033.11" y2="1995.92" style="stroke:#000000;stroke-width:4.00"/>
	<text x="1033.11" y="2048.56" style="font-family:'Helvetica';font-size:49.99px;fill:#000000" text-anchor="middle">10</text>
	<line x1="1332.54" y1="1960.52" x2="1332.54" y2="1995.92" style="stroke:#000000;stroke-width:4.00"/>
	<text x="1332.54" y="2048.56" style="font-family:'Helvetica';font-size:49.99px;fill:#000000" text-anchor="middle">15</text>
	<line x1="1632.05" y1="1960.52" x2="1632.05" y2="1995.92" style="stroke:#000000;stroke-width:4.00"/>
	<text x="1632.05" y="2048.56" style="font-family:'Helvetica';font-size:49.99px;fill:#000000" text-anchor="middle">20</text>
	<line x1="1931.49" y1="1960.52" x2="1931.49" y2="1995.92" style="stroke:#000000;stroke-width:4.00"/>
	<text x="1931.49" y="2048.56" style="font-family:'Helvetica';font-size:49.99px;fill:#000000" text-anchor="middle">25</text>
	<line x1="2230.92" y1="1960.52" x2="2230.92" y2="1995.92" style="stroke:#000000;stroke-width:4.00"/>
	<text x="2230.92" y="2048.56" style="font-family:'Helvetica';font-size:49.99px;fill:#000000" text-anchor="middle">30</text>
	<line x1="434.24" y1="1960.52" x2="2290.79" y2="1960.52" style="stroke:#000000;stroke-width:4.00"/>
	<text x="1324.25" y="2190.96" style="font-family:'Helvetica';font-size:60.03px;fill:#000000" text-anchor="middle">Duration of stay</text>
	<text x="161.52" y="2396.65" style="font-family:'Helvetica';font-size:60.03px;fill:#000000">Arr. cohort: </text>
	<text x="610.98" y="2396.65" style="font-family:'Helvetica';font-size:60.03px;fill:#000000">1964-73</text>
	<text x="965.98" y="2396.65" style="font-family:'Helvetica';font-size:60.03px;fill:#000000">1974-83</text>
	<text x="1320.98" y="2396.65" style="font-family:'Helvetica';font-size:60.03px;fill:#000000">1984-93</text>
	<text x="1675.98" y="2396.65" style="font-family:'Helvetica';font-size:60.03px;fill:#000000">1994-03</text>
	<text x="2030.98" y="2396.65" style="font-family:'Helvetica';font-size:60.03px;fill:#000000">2004-10</text>
	<line x1="610.98" y1="2320.61" x2="831.01" y2="2320.61" style="stroke:#E69F00;stroke-width:10.00"/>
	<line x1="965.98" y1="2320.61" x2="1185.93" y2="2320.61" style="stroke:#56B4E9;stroke-width:10.00"/>
	<line x1="1320.98" y1="2320.61" x2="1540.93" y2="2320.61" style="stroke:#009E73;stroke-width:10.00"/>
	<line x1="1675.98" y1="2320.61" x2="1895.93" y2="2320.61" style="stroke:#D55E00;stroke-width:10.00"/>
	<line x1="2030.98" y1="2320.61" x2="2250.93" y2="2320.61" style="stroke:#CC79A7;stroke-width:10.00"/>
	<text x="1362.52" y="239.12" style="font-family:'Helvetica';font-size:60.03px;fill:#000000" text-anchor="middle">N total, no upper age limit</text>
	<text x="1362.52" y="154.88" style="font-family:'Helvetica';font-size:90.01px;fill:#000000" text-anchor="middle">Cohort size development by duration of stay, Men</text>
</svg>
