<?xml version="1.0" encoding="UTF-8" standalone="no"?>
<!-- This is a Stata 15.1 generated SVG file (http://www.stata.com) -->

<svg version="1.1" width="3.54in" height="3.54in" viewBox="0 0 2551 2551" xmlns="http://www.w3.org/2000/svg" xmlns:xlink="http://www.w3.org/1999/xlink">
	<desc>Stata Graph - Graph</desc>
	<rect x="0" y="0" width="2551" height="2551" style="fill:#FFFFFF;stroke:none"/>
	<rect x="0.00" y="0.08" width="2551.00" height="2550.92" style="fill:#FFFFFF"/>
	<rect x="2.55" y="2.63" width="2545.90" height="2545.82" style="fill:none;stroke:#FFFFFF;stroke-width:5.10"/>
	<line x1="394.86" y1="1904.40" x2="2346.91" y2="1904.40" style="stroke:#E8E8E8;stroke-width:4.00"/>
	<line x1="394.86" y1="1491.62" x2="2346.91" y2="1491.62" style="stroke:#E8E8E8;stroke-width:4.00"/>
	<line x1="394.86" y1="1078.83" x2="2346.91" y2="1078.83" style="stroke:#E8E8E8;stroke-width:4.00"/>
	<line x1="394.86" y1="666.13" x2="2346.91" y2="666.13" style="stroke:#E8E8E8;stroke-width:4.00"/>
	<line x1="394.86" y1="253.35" x2="2346.91" y2="253.35" style="stroke:#E8E8E8;stroke-width:4.00"/>
	<line x1="450.98" y1="1960.52" x2="450.98" y2="197.22" style="stroke:#E8E8E8;stroke-width:4.00"/>
	<line x1="639.68" y1="1960.52" x2="639.68" y2="197.22" style="stroke:#E8E8E8;stroke-width:4.00"/>
	<line x1="875.58" y1="1960.52" x2="875.58" y2="197.22" style="stroke:#E8E8E8;stroke-width:4.00"/>
	<line x1="1111.39" y1="1960.52" x2="1111.39" y2="197.22" style="stroke:#E8E8E8;stroke-width:4.00"/>
	<line x1="1347.29" y1="1960.52" x2="1347.29" y2="197.22" style="stroke:#E8E8E8;stroke-width:4.00"/>
	<line x1="1583.18" y1="1960.52" x2="1583.18" y2="197.22" style="stroke:#E8E8E8;stroke-width:4.00"/>
	<line x1="1819.08" y1="1960.52" x2="1819.08" y2="197.22" style="stroke:#E8E8E8;stroke-width:4.00"/>
	<line x1="2054.89" y1="1960.52" x2="2054.89" y2="197.22" style="stroke:#E8E8E8;stroke-width:4.00"/>
	<line x1="2290.79" y1="1960.52" x2="2290.79" y2="197.22" style="stroke:#E8E8E8;stroke-width:4.00"/>
	<line x1="450.90" y1="951.28" x2="545.29" y2="880.17" stroke-linecap="round" style="stroke:#E69F00;stroke-width:10.00"/>
	<line x1="545.29" y1="880.17" x2="639.60" y2="803.49" stroke-linecap="round" style="stroke:#E69F00;stroke-width:10.00"/>
	<line x1="639.60" y1="803.49" x2="733.99" y2="913.18" stroke-linecap="round" style="stroke:#E69F00;stroke-width:10.00"/>
	<line x1="733.99" y1="913.18" x2="875.50" y2="661.19" stroke-linecap="round" style="stroke:#E69F00;stroke-width:10.00"/>
	<line x1="875.50" y1="661.19" x2="969.89" y2="734.77" stroke-linecap="round" style="stroke:#E69F00;stroke-width:10.00"/>
	<line x1="969.89" y1="734.77" x2="1064.20" y2="762.35" stroke-linecap="round" style="stroke:#E69F00;stroke-width:10.00"/>
	<line x1="1064.20" y1="762.35" x2="1158.59" y2="888.31" stroke-linecap="round" style="stroke:#E69F00;stroke-width:10.00"/>
	<line x1="1158.59" y1="888.31" x2="1252.90" y2="866.46" stroke-linecap="round" style="stroke:#E69F00;stroke-width:10.00"/>
	<line x1="1252.90" y1="866.46" x2="1347.29" y2="897.95" stroke-linecap="round" style="stroke:#E69F00;stroke-width:10.00"/>
	<line x1="1347.29" y1="897.95" x2="1394.40" y2="929.60" stroke-linecap="round" style="stroke:#E69F00;stroke-width:10.00"/>
	<line x1="1394.40" y1="929.60" x2="1441.60" y2="1051.81" stroke-linecap="round" style="stroke:#E69F00;stroke-width:10.00"/>
	<line x1="1441.60" y1="1051.81" x2="1488.79" y2="1076.76" stroke-linecap="round" style="stroke:#E69F00;stroke-width:10.00"/>
	<line x1="1488.79" y1="1076.76" x2="1535.99" y2="1151.46" stroke-linecap="round" style="stroke:#E69F00;stroke-width:10.00"/>
	<line x1="1535.99" y1="1151.46" x2="1583.10" y2="1165.41" stroke-linecap="round" style="stroke:#E69F00;stroke-width:10.00"/>
	<line x1="1583.10" y1="1165.41" x2="1630.30" y2="1192.27" stroke-linecap="round" style="stroke:#E69F00;stroke-width:10.00"/>
	<line x1="1630.30" y1="1192.27" x2="1677.49" y2="1253.42" stroke-linecap="round" style="stroke:#E69F00;stroke-width:10.00"/>
	<line x1="1677.49" y1="1253.42" x2="1724.69" y2="1247.28" stroke-linecap="round" style="stroke:#E69F00;stroke-width:10.00"/>
	<line x1="875.50" y1="1330.03" x2="969.89" y2="1342.54" stroke-linecap="round" style="stroke:#56B4E9;stroke-width:10.00"/>
	<line x1="969.89" y1="1342.54" x2="1064.20" y2="1369.01" stroke-linecap="round" style="stroke:#56B4E9;stroke-width:10.00"/>
	<line x1="1064.20" y1="1369.01" x2="1158.59" y2="1455.82" stroke-linecap="round" style="stroke:#56B4E9;stroke-width:10.00"/>
	<line x1="1158.59" y1="1455.82" x2="1252.90" y2="1455.98" stroke-linecap="round" style="stroke:#56B4E9;stroke-width:10.00"/>
	<line x1="1252.90" y1="1455.98" x2="1347.29" y2="1472.49" stroke-linecap="round" style="stroke:#56B4E9;stroke-width:10.00"/>
	<line x1="1347.29" y1="1472.49" x2="1394.40" y2="1509.87" stroke-linecap="round" style="stroke:#56B4E9;stroke-width:10.00"/>
	<line x1="1394.40" y1="1509.87" x2="1441.60" y2="1540.80" stroke-linecap="round" style="stroke:#56B4E9;stroke-width:10.00"/>
	<line x1="1441.60" y1="1540.80" x2="1488.79" y2="1558.74" stroke-linecap="round" style="stroke:#56B4E9;stroke-width:10.00"/>
	<line x1="1488.79" y1="1558.74" x2="1535.99" y2="1576.68" stroke-linecap="round" style="stroke:#56B4E9;stroke-width:10.00"/>
	<line x1="1535.99" y1="1576.68" x2="1583.10" y2="1620.04" stroke-linecap="round" style="stroke:#56B4E9;stroke-width:10.00"/>
	<line x1="1583.10" y1="1620.04" x2="1630.30" y2="1622.04" stroke-linecap="round" style="stroke:#56B4E9;stroke-width:10.00"/>
	<line x1="1630.30" y1="1622.04" x2="1677.49" y2="1604.42" stroke-linecap="round" style="stroke:#56B4E9;stroke-width:10.00"/>
	<line x1="1677.49" y1="1604.42" x2="1724.69" y2="1620.04" stroke-linecap="round" style="stroke:#56B4E9;stroke-width:10.00"/>
	<line x1="1724.69" y1="1620.04" x2="1771.80" y2="1637.18" stroke-linecap="round" style="stroke:#56B4E9;stroke-width:10.00"/>
	<line x1="1771.80" y1="1637.18" x2="1819.00" y2="1601.63" stroke-linecap="round" style="stroke:#56B4E9;stroke-width:10.00"/>
	<line x1="1819.00" y1="1601.63" x2="1866.19" y2="1567.83" stroke-linecap="round" style="stroke:#56B4E9;stroke-width:10.00"/>
	<line x1="1866.19" y1="1567.83" x2="1913.39" y2="1563.44" stroke-linecap="round" style="stroke:#56B4E9;stroke-width:10.00"/>
	<line x1="1913.39" y1="1563.44" x2="1960.50" y2="1592.14" stroke-linecap="round" style="stroke:#56B4E9;stroke-width:10.00"/>
	<line x1="1960.50" y1="1592.14" x2="2007.70" y2="1585.92" stroke-linecap="round" style="stroke:#56B4E9;stroke-width:10.00"/>
	<line x1="2007.70" y1="1585.92" x2="2054.89" y2="1600.43" stroke-linecap="round" style="stroke:#56B4E9;stroke-width:10.00"/>
	<line x1="2054.89" y1="1600.43" x2="2102.09" y2="1613.27" stroke-linecap="round" style="stroke:#56B4E9;stroke-width:10.00"/>
	<line x1="2102.09" y1="1613.27" x2="2149.20" y2="1617.57" stroke-linecap="round" style="stroke:#56B4E9;stroke-width:10.00"/>
	<line x1="2149.20" y1="1617.57" x2="2196.40" y2="1631.92" stroke-linecap="round" style="stroke:#56B4E9;stroke-width:10.00"/>
	<line x1="1347.29" y1="885.28" x2="1394.40" y2="830.11" stroke-linecap="round" style="stroke:#009E73;stroke-width:10.00"/>
	<line x1="1394.40" y1="830.11" x2="1441.60" y2="897.23" stroke-linecap="round" style="stroke:#009E73;stroke-width:10.00"/>
	<line x1="1441.60" y1="897.23" x2="1488.79" y2="1001.67" stroke-linecap="round" style="stroke:#009E73;stroke-width:10.00"/>
	<line x1="1488.79" y1="1001.67" x2="1535.99" y2="1050.37" stroke-linecap="round" style="stroke:#009E73;stroke-width:10.00"/>
	<line x1="1535.99" y1="1050.37" x2="1583.10" y2="1133.84" stroke-linecap="round" style="stroke:#009E73;stroke-width:10.00"/>
	<line x1="1583.10" y1="1133.84" x2="1630.30" y2="1155.68" stroke-linecap="round" style="stroke:#009E73;stroke-width:10.00"/>
	<line x1="1630.30" y1="1155.68" x2="1677.49" y2="1208.30" stroke-linecap="round" style="stroke:#009E73;stroke-width:10.00"/>
	<line x1="1677.49" y1="1208.30" x2="1724.69" y2="1205.91" stroke-linecap="round" style="stroke:#009E73;stroke-width:10.00"/>
	<line x1="1724.69" y1="1205.91" x2="1771.80" y2="1285.07" stroke-linecap="round" style="stroke:#009E73;stroke-width:10.00"/>
	<line x1="1771.80" y1="1285.07" x2="1819.00" y2="1194.82" stroke-linecap="round" style="stroke:#009E73;stroke-width:10.00"/>
	<line x1="1819.00" y1="1194.82" x2="1866.19" y2="1110.80" stroke-linecap="round" style="stroke:#009E73;stroke-width:10.00"/>
	<line x1="1866.19" y1="1110.80" x2="1913.39" y2="1139.18" stroke-linecap="round" style="stroke:#009E73;stroke-width:10.00"/>
	<line x1="1913.39" y1="1139.18" x2="1960.50" y2="1145.88" stroke-linecap="round" style="stroke:#009E73;stroke-width:10.00"/>
	<line x1="1960.50" y1="1145.88" x2="2007.70" y2="1217.46" stroke-linecap="round" style="stroke:#009E73;stroke-width:10.00"/>
	<line x1="2007.70" y1="1217.46" x2="2054.89" y2="1228.39" stroke-linecap="round" style="stroke:#009E73;stroke-width:10.00"/>
	<line x1="2054.89" y1="1228.39" x2="2102.09" y2="1196.50" stroke-linecap="round" style="stroke:#009E73;stroke-width:10.00"/>
	<line x1="2102.09" y1="1196.50" x2="2149.20" y2="1259.72" stroke-linecap="round" style="stroke:#009E73;stroke-width:10.00"/>
	<line x1="2149.20" y1="1259.72" x2="2196.40" y2="1284.59" stroke-linecap="round" style="stroke:#009E73;stroke-width:10.00"/>
	<line x1="2196.40" y1="1284.59" x2="2243.59" y2="1287.78" stroke-linecap="round" style="stroke:#009E73;stroke-width:10.00"/>
	<line x1="2243.59" y1="1287.78" x2="2290.79" y2="1313.61" stroke-linecap="round" style="stroke:#009E73;stroke-width:10.00"/>
	<line x1="1771.80" y1="991.46" x2="1819.00" y2="778.77" stroke-linecap="round" style="stroke:#D55E00;stroke-width:10.00"/>
	<line x1="1819.00" y1="778.77" x2="1866.19" y2="627.07" stroke-linecap="round" style="stroke:#D55E00;stroke-width:10.00"/>
	<line x1="1866.19" y1="627.07" x2="1913.39" y2="688.45" stroke-linecap="round" style="stroke:#D55E00;stroke-width:10.00"/>
	<line x1="1913.39" y1="688.45" x2="1960.50" y2="743.22" stroke-linecap="round" style="stroke:#D55E00;stroke-width:10.00"/>
	<line x1="1960.50" y1="743.22" x2="2007.70" y2="779.33" stroke-linecap="round" style="stroke:#D55E00;stroke-width:10.00"/>
	<line x1="2007.70" y1="779.33" x2="2054.89" y2="853.79" stroke-linecap="round" style="stroke:#D55E00;stroke-width:10.00"/>
	<line x1="2054.89" y1="853.79" x2="2102.09" y2="864.55" stroke-linecap="round" style="stroke:#D55E00;stroke-width:10.00"/>
	<line x1="2102.09" y1="864.55" x2="2149.20" y2="1046.31" stroke-linecap="round" style="stroke:#D55E00;stroke-width:10.00"/>
	<line x1="2149.20" y1="1046.31" x2="2196.40" y2="1010.44" stroke-linecap="round" style="stroke:#D55E00;stroke-width:10.00"/>
	<line x1="2196.40" y1="1010.44" x2="2243.59" y2="998.56" stroke-linecap="round" style="stroke:#D55E00;stroke-width:10.00"/>
	<line x1="2243.59" y1="998.56" x2="2290.79" y2="1034.19" stroke-linecap="round" style="stroke:#D55E00;stroke-width:10.00"/>
	<line x1="2102.09" y1="1015.78" x2="2149.20" y2="1146.59" stroke-linecap="round" style="stroke:#CC79A7;stroke-width:10.00"/>
	<line x1="2149.20" y1="1146.59" x2="2196.40" y2="1134.48" stroke-linecap="round" style="stroke:#CC79A7;stroke-width:10.00"/>
	<line x1="2196.40" y1="1134.48" x2="2243.59" y2="1163.10" stroke-linecap="round" style="stroke:#CC79A7;stroke-width:10.00"/>
	<line x1="2243.59" y1="1163.10" x2="2290.79" y2="1118.37" stroke-linecap="round" style="stroke:#CC79A7;stroke-width:10.00"/>
	<line x1="394.86" y1="1904.40" x2="359.38" y2="1904.40" style="stroke:#000000;stroke-width:4.00"/>
	<text x="341.69" y="1921.92" style="font-family:'Helvetica';font-size:49.99px;fill:#000000" text-anchor="end">0</text>
	<line x1="394.86" y1="1491.62" x2="359.38" y2="1491.62" style="stroke:#000000;stroke-width:4.00"/>
	<text x="341.69" y="1509.13" style="font-family:'Helvetica';font-size:49.99px;fill:#000000" text-anchor="end">200</text>
	<line x1="394.86" y1="1078.83" x2="359.38" y2="1078.83" style="stroke:#000000;stroke-width:4.00"/>
	<text x="341.69" y="1096.35" style="font-family:'Helvetica';font-size:49.99px;fill:#000000" text-anchor="end">400</text>
	<line x1="394.86" y1="666.13" x2="359.38" y2="666.13" style="stroke:#000000;stroke-width:4.00"/>
	<text x="341.69" y="683.64" style="font-family:'Helvetica';font-size:49.99px;fill:#000000" text-anchor="end">600</text>
	<line x1="394.86" y1="253.35" x2="359.38" y2="253.35" style="stroke:#000000;stroke-width:4.00"/>
	<text x="341.69" y="270.86" style="font-family:'Helvetica';font-size:49.99px;fill:#000000" text-anchor="end">800</text>
	<line x1="394.86" y1="1904.40" x2="394.86" y2="253.35" style="stroke:#000000;stroke-width:4.00"/>
	<text x="136.21" y="1040.57" style="font-family:'Helvetica';font-size:60.03px;fill:#000000" transform="rotate(-90 136.21,1040.57)" text-anchor="middle">Population counts (in 1,000)</text>
	<line x1="450.98" y1="1960.52" x2="450.98" y2="1995.92" style="stroke:#000000;stroke-width:4.00"/>
	<text x="450.98" y="2048.56" style="font-family:'Helvetica';font-size:49.99px;fill:#000000" text-anchor="middle">1976</text>
	<line x1="639.68" y1="1960.52" x2="639.68" y2="1995.92" style="stroke:#000000;stroke-width:4.00"/>
	<text x="639.68" y="2048.56" style="font-family:'Helvetica';font-size:49.99px;fill:#000000" text-anchor="middle">1980</text>
	<line x1="875.58" y1="1960.52" x2="875.58" y2="1995.92" style="stroke:#000000;stroke-width:4.00"/>
	<text x="875.58" y="2048.56" style="font-family:'Helvetica';font-size:49.99px;fill:#000000" text-anchor="middle">1985</text>
	<line x1="1111.39" y1="1960.52" x2="1111.39" y2="1995.92" style="stroke:#000000;stroke-width:4.00"/>
	<text x="1111.39" y="2048.56" style="font-family:'Helvetica';font-size:49.99px;fill:#000000" text-anchor="middle">1990</text>
	<line x1="1347.29" y1="1960.52" x2="1347.29" y2="1995.92" style="stroke:#000000;stroke-width:4.00"/>
	<text x="1347.29" y="2048.56" style="font-family:'Helvetica';font-size:49.99px;fill:#000000" text-anchor="middle">1995</text>
	<line x1="1583.18" y1="1960.52" x2="1583.18" y2="1995.92" style="stroke:#000000;stroke-width:4.00"/>
	<text x="1583.18" y="2048.56" style="font-family:'Helvetica';font-size:49.99px;fill:#000000" text-anchor="middle">2000</text>
	<line x1="1819.08" y1="1960.52" x2="1819.08" y2="1995.92" style="stroke:#000000;stroke-width:4.00"/>
	<text x="1819.08" y="2048.56" style="font-family:'Helvetica';font-size:49.99px;fill:#000000" text-anchor="middle">2005</text>
	<line x1="2054.89" y1="1960.52" x2="2054.89" y2="1995.92" style="stroke:#000000;stroke-width:4.00"/>
	<text x="2054.89" y="2048.56" style="font-family:'Helvetica';font-size:49.99px;fill:#000000" text-anchor="middle">2010</text>
	<line x1="2290.79" y1="1960.52" x2="2290.79" y2="1995.92" style="stroke:#000000;stroke-width:4.00"/>
	<text x="2290.79" y="2048.56" style="font-family:'Helvetica';font-size:49.99px;fill:#000000" text-anchor="middle">2015</text>
	<line x1="450.98" y1="1960.52" x2="2290.79" y2="1960.52" style="stroke:#000000;stroke-width:4.00"/>
	<text x="1332.62" y="2190.96" style="font-family:'Helvetica';font-size:60.03px;fill:#000000" text-anchor="middle">Year</text>
	<text x="161.52" y="2396.65" style="font-family:'Helvetica';font-size:60.03px;fill:#000000">Arr. cohort: </text>
	<text x="610.98" y="2396.65" style="font-family:'Helvetica';font-size:60.03px;fill:#000000">1964-73</text>
	<text x="965.98" y="2396.65" style="font-family:'Helvetica';font-size:60.03px;fill:#000000">1974-83</text>
	<text x="1320.98" y="2396.65" style="font-family:'Helvetica';font-size:60.03px;fill:#000000">1984-93</text>
	<text x="1675.98" y="2396.65" style="font-family:'Helvetica';font-size:60.03px;fill:#000000">1994-03</text>
	<text x="2030.98" y="2396.65" style="font-family:'Helvetica';font-size:60.03px;fill:#000000">2004-10</text>
	<line x1="610.98" y1="2320.61" x2="831.01" y2="2320.61" style="stroke:#E69F00;stroke-width:10.00"/>
	<line x1="965.98" y1="2320.61" x2="1185.93" y2="2320.61" style="stroke:#56B4E9;stroke-width:10.00"/>
	<line x1="1320.98" y1="2320.61" x2="1540.93" y2="2320.61" style="stroke:#009E73;stroke-width:10.00"/>
	<line x1="1675.98" y1="2320.61" x2="1895.93" y2="2320.61" style="stroke:#D55E00;stroke-width:10.00"/>
	<line x1="2030.98" y1="2320.61" x2="2250.93" y2="2320.61" style="stroke:#CC79A7;stroke-width:10.00"/>
	<text x="1370.89" y="154.88" style="font-family:'Helvetica';font-size:90.01px;fill:#000000" text-anchor="middle">Men</text>
</svg>
