<?xml version="1.0" encoding="UTF-8" standalone="no"?>
<!-- This is a Stata 15.1 generated SVG file (http://www.stata.com) -->

<svg version="1.1" width="3.54in" height="3.54in" viewBox="0 0 2551 2551" xmlns="http://www.w3.org/2000/svg" xmlns:xlink="http://www.w3.org/1999/xlink">
	<desc>Stata Graph - Graph</desc>
	<rect x="0" y="0" width="2551" height="2551" style="fill:#FFFFFF;stroke:none"/>
	<rect x="0.00" y="0.08" width="2551.00" height="2550.92" style="fill:#FFFFFF"/>
	<rect x="2.55" y="2.63" width="2545.90" height="2545.82" style="fill:none;stroke:#FFFFFF;stroke-width:5.10"/>
	<line x1="394.86" y1="1865.82" x2="2346.91" y2="1865.82" style="stroke:#E8E8E8;stroke-width:4.00"/>
	<line x1="394.86" y1="1490.42" x2="2346.91" y2="1490.42" style="stroke:#E8E8E8;stroke-width:4.00"/>
	<line x1="394.86" y1="1115.11" x2="2346.91" y2="1115.11" style="stroke:#E8E8E8;stroke-width:4.00"/>
	<line x1="394.86" y1="739.71" x2="2346.91" y2="739.71" style="stroke:#E8E8E8;stroke-width:4.00"/>
	<line x1="394.86" y1="364.31" x2="2346.91" y2="364.31" style="stroke:#E8E8E8;stroke-width:4.00"/>
	<line x1="450.98" y1="1921.94" x2="450.98" y2="308.19" style="stroke:#E8E8E8;stroke-width:4.00"/>
	<line x1="680.98" y1="1921.94" x2="680.98" y2="308.19" style="stroke:#E8E8E8;stroke-width:4.00"/>
	<line x1="910.89" y1="1921.94" x2="910.89" y2="308.19" style="stroke:#E8E8E8;stroke-width:4.00"/>
	<line x1="1140.89" y1="1921.94" x2="1140.89" y2="308.19" style="stroke:#E8E8E8;stroke-width:4.00"/>
	<line x1="1370.89" y1="1921.94" x2="1370.89" y2="308.19" style="stroke:#E8E8E8;stroke-width:4.00"/>
	<line x1="1600.88" y1="1921.94" x2="1600.88" y2="308.19" style="stroke:#E8E8E8;stroke-width:4.00"/>
	<line x1="1830.88" y1="1921.94" x2="1830.88" y2="308.19" style="stroke:#E8E8E8;stroke-width:4.00"/>
	<line x1="2060.79" y1="1921.94" x2="2060.79" y2="308.19" style="stroke:#E8E8E8;stroke-width:4.00"/>
	<line x1="2290.79" y1="1921.94" x2="2290.79" y2="308.19" style="stroke:#E8E8E8;stroke-width:4.00"/>
	<line x1="450.90" y1="1021.83" x2="542.90" y2="958.30" stroke-linecap="round" style="stroke:#E69F00;stroke-width:10.00"/>
	<line x1="542.90" y1="958.30" x2="634.90" y2="898.43" stroke-linecap="round" style="stroke:#E69F00;stroke-width:10.00"/>
	<line x1="634.90" y1="898.43" x2="726.90" y2="1006.21" stroke-linecap="round" style="stroke:#E69F00;stroke-width:10.00"/>
	<line x1="726.90" y1="1006.21" x2="864.90" y2="815.68" stroke-linecap="round" style="stroke:#E69F00;stroke-width:10.00"/>
	<line x1="864.90" y1="815.68" x2="956.89" y2="899.55" stroke-linecap="round" style="stroke:#E69F00;stroke-width:10.00"/>
	<line x1="956.89" y1="899.55" x2="1048.89" y2="959.49" stroke-linecap="round" style="stroke:#E69F00;stroke-width:10.00"/>
	<line x1="1048.89" y1="959.49" x2="1140.89" y2="1109.29" stroke-linecap="round" style="stroke:#E69F00;stroke-width:10.00"/>
	<line x1="1140.89" y1="1109.29" x2="1232.89" y2="1137.91" stroke-linecap="round" style="stroke:#E69F00;stroke-width:10.00"/>
	<line x1="1232.89" y1="1137.91" x2="1324.81" y2="1250.47" stroke-linecap="round" style="stroke:#E69F00;stroke-width:10.00"/>
	<line x1="1324.81" y1="1250.47" x2="1370.81" y2="1318.55" stroke-linecap="round" style="stroke:#E69F00;stroke-width:10.00"/>
	<line x1="1370.81" y1="1318.55" x2="1416.81" y2="1417.32" stroke-linecap="round" style="stroke:#E69F00;stroke-width:10.00"/>
	<line x1="1416.81" y1="1417.32" x2="1462.81" y2="1467.78" stroke-linecap="round" style="stroke:#E69F00;stroke-width:10.00"/>
	<line x1="1462.81" y1="1467.78" x2="1508.80" y2="1538.33" stroke-linecap="round" style="stroke:#E69F00;stroke-width:10.00"/>
	<line x1="1508.80" y1="1538.33" x2="1554.80" y2="1597.96" stroke-linecap="round" style="stroke:#E69F00;stroke-width:10.00"/>
	<line x1="1554.80" y1="1597.96" x2="1600.80" y2="1634.95" stroke-linecap="round" style="stroke:#E69F00;stroke-width:10.00"/>
	<line x1="1600.80" y1="1634.95" x2="1646.80" y2="1690.83" stroke-linecap="round" style="stroke:#E69F00;stroke-width:10.00"/>
	<line x1="1646.80" y1="1690.83" x2="1692.80" y2="1726.31" stroke-linecap="round" style="stroke:#E69F00;stroke-width:10.00"/>
	<line x1="864.90" y1="1363.99" x2="956.89" y2="1379.21" stroke-linecap="round" style="stroke:#56B4E9;stroke-width:10.00"/>
	<line x1="956.89" y1="1379.21" x2="1048.89" y2="1408.47" stroke-linecap="round" style="stroke:#56B4E9;stroke-width:10.00"/>
	<line x1="1048.89" y1="1408.47" x2="1140.89" y2="1485.88" stroke-linecap="round" style="stroke:#56B4E9;stroke-width:10.00"/>
	<line x1="1140.89" y1="1485.88" x2="1232.89" y2="1491.86" stroke-linecap="round" style="stroke:#56B4E9;stroke-width:10.00"/>
	<line x1="1232.89" y1="1491.86" x2="1324.81" y2="1511.63" stroke-linecap="round" style="stroke:#56B4E9;stroke-width:10.00"/>
	<line x1="1324.81" y1="1511.63" x2="1370.81" y2="1550.77" stroke-linecap="round" style="stroke:#56B4E9;stroke-width:10.00"/>
	<line x1="1370.81" y1="1550.77" x2="1416.81" y2="1578.35" stroke-linecap="round" style="stroke:#56B4E9;stroke-width:10.00"/>
	<line x1="1416.81" y1="1578.35" x2="1462.81" y2="1601.23" stroke-linecap="round" style="stroke:#56B4E9;stroke-width:10.00"/>
	<line x1="1462.81" y1="1601.23" x2="1508.80" y2="1619.17" stroke-linecap="round" style="stroke:#56B4E9;stroke-width:10.00"/>
	<line x1="1508.80" y1="1619.17" x2="1554.80" y2="1655.52" stroke-linecap="round" style="stroke:#56B4E9;stroke-width:10.00"/>
	<line x1="1554.80" y1="1655.52" x2="1600.80" y2="1652.73" stroke-linecap="round" style="stroke:#56B4E9;stroke-width:10.00"/>
	<line x1="1600.80" y1="1652.73" x2="1646.80" y2="1652.97" stroke-linecap="round" style="stroke:#56B4E9;stroke-width:10.00"/>
	<line x1="1646.80" y1="1652.97" x2="1692.80" y2="1675.61" stroke-linecap="round" style="stroke:#56B4E9;stroke-width:10.00"/>
	<line x1="1692.80" y1="1675.61" x2="1738.80" y2="1702.71" stroke-linecap="round" style="stroke:#56B4E9;stroke-width:10.00"/>
	<line x1="1738.80" y1="1702.71" x2="1784.80" y2="1685.97" stroke-linecap="round" style="stroke:#56B4E9;stroke-width:10.00"/>
	<line x1="1784.80" y1="1685.97" x2="1830.80" y2="1685.81" stroke-linecap="round" style="stroke:#56B4E9;stroke-width:10.00"/>
	<line x1="1830.80" y1="1685.81" x2="1876.80" y2="1688.44" stroke-linecap="round" style="stroke:#56B4E9;stroke-width:10.00"/>
	<line x1="1876.80" y1="1688.44" x2="1922.80" y2="1721.29" stroke-linecap="round" style="stroke:#56B4E9;stroke-width:10.00"/>
	<line x1="1922.80" y1="1721.29" x2="1968.80" y2="1727.43" stroke-linecap="round" style="stroke:#56B4E9;stroke-width:10.00"/>
	<line x1="1968.80" y1="1727.43" x2="2014.79" y2="1760.19" stroke-linecap="round" style="stroke:#56B4E9;stroke-width:10.00"/>
	<line x1="2014.79" y1="1760.19" x2="2060.79" y2="1780.92" stroke-linecap="round" style="stroke:#56B4E9;stroke-width:10.00"/>
	<line x1="2060.79" y1="1780.92" x2="2106.79" y2="1796.14" stroke-linecap="round" style="stroke:#56B4E9;stroke-width:10.00"/>
	<line x1="2106.79" y1="1796.14" x2="2152.79" y2="1812.01" stroke-linecap="round" style="stroke:#56B4E9;stroke-width:10.00"/>
	<line x1="1324.81" y1="986.92" x2="1370.81" y2="942.44" stroke-linecap="round" style="stroke:#009E73;stroke-width:10.00"/>
	<line x1="1370.81" y1="942.44" x2="1416.81" y2="1004.06" stroke-linecap="round" style="stroke:#009E73;stroke-width:10.00"/>
	<line x1="1416.81" y1="1004.06" x2="1462.81" y2="1089.99" stroke-linecap="round" style="stroke:#009E73;stroke-width:10.00"/>
	<line x1="1462.81" y1="1089.99" x2="1508.80" y2="1143.09" stroke-linecap="round" style="stroke:#009E73;stroke-width:10.00"/>
	<line x1="1508.80" y1="1143.09" x2="1554.80" y2="1218.10" stroke-linecap="round" style="stroke:#009E73;stroke-width:10.00"/>
	<line x1="1554.80" y1="1218.10" x2="1600.80" y2="1242.74" stroke-linecap="round" style="stroke:#009E73;stroke-width:10.00"/>
	<line x1="1600.80" y1="1242.74" x2="1646.80" y2="1288.33" stroke-linecap="round" style="stroke:#009E73;stroke-width:10.00"/>
	<line x1="1646.80" y1="1288.33" x2="1692.80" y2="1282.59" stroke-linecap="round" style="stroke:#009E73;stroke-width:10.00"/>
	<line x1="1692.80" y1="1282.59" x2="1738.80" y2="1361.99" stroke-linecap="round" style="stroke:#009E73;stroke-width:10.00"/>
	<line x1="1738.80" y1="1361.99" x2="1784.80" y2="1294.47" stroke-linecap="round" style="stroke:#009E73;stroke-width:10.00"/>
	<line x1="1784.80" y1="1294.47" x2="1830.80" y2="1246.40" stroke-linecap="round" style="stroke:#009E73;stroke-width:10.00"/>
	<line x1="1830.80" y1="1246.40" x2="1876.80" y2="1268.01" stroke-linecap="round" style="stroke:#009E73;stroke-width:10.00"/>
	<line x1="1876.80" y1="1268.01" x2="1922.80" y2="1293.44" stroke-linecap="round" style="stroke:#009E73;stroke-width:10.00"/>
	<line x1="1922.80" y1="1293.44" x2="1968.80" y2="1359.68" stroke-linecap="round" style="stroke:#009E73;stroke-width:10.00"/>
	<line x1="1968.80" y1="1359.68" x2="2014.79" y2="1386.87" stroke-linecap="round" style="stroke:#009E73;stroke-width:10.00"/>
	<line x1="2014.79" y1="1386.87" x2="2060.79" y2="1373.08" stroke-linecap="round" style="stroke:#009E73;stroke-width:10.00"/>
	<line x1="2060.79" y1="1373.08" x2="2106.79" y2="1424.41" stroke-linecap="round" style="stroke:#009E73;stroke-width:10.00"/>
	<line x1="2106.79" y1="1424.41" x2="2152.79" y2="1448.65" stroke-linecap="round" style="stroke:#009E73;stroke-width:10.00"/>
	<line x1="2152.79" y1="1448.65" x2="2198.79" y2="1473.68" stroke-linecap="round" style="stroke:#009E73;stroke-width:10.00"/>
	<line x1="2198.79" y1="1473.68" x2="2244.79" y2="1511.95" stroke-linecap="round" style="stroke:#009E73;stroke-width:10.00"/>
	<line x1="1738.80" y1="1103.63" x2="1784.80" y2="938.53" stroke-linecap="round" style="stroke:#D55E00;stroke-width:10.00"/>
	<line x1="1784.80" y1="938.53" x2="1830.80" y2="821.10" stroke-linecap="round" style="stroke:#D55E00;stroke-width:10.00"/>
	<line x1="1830.80" y1="821.10" x2="1876.80" y2="874.83" stroke-linecap="round" style="stroke:#D55E00;stroke-width:10.00"/>
	<line x1="1876.80" y1="874.83" x2="1922.80" y2="931.12" stroke-linecap="round" style="stroke:#D55E00;stroke-width:10.00"/>
	<line x1="1922.80" y1="931.12" x2="1968.80" y2="980.06" stroke-linecap="round" style="stroke:#D55E00;stroke-width:10.00"/>
	<line x1="1968.80" y1="980.06" x2="2014.79" y2="1038.10" stroke-linecap="round" style="stroke:#D55E00;stroke-width:10.00"/>
	<line x1="2014.79" y1="1038.10" x2="2060.79" y2="1068.07" stroke-linecap="round" style="stroke:#D55E00;stroke-width:10.00"/>
	<line x1="2060.79" y1="1068.07" x2="2106.79" y2="1202.32" stroke-linecap="round" style="stroke:#D55E00;stroke-width:10.00"/>
	<line x1="2106.79" y1="1202.32" x2="2152.79" y2="1186.45" stroke-linecap="round" style="stroke:#D55E00;stroke-width:10.00"/>
	<line x1="2152.79" y1="1186.45" x2="2198.79" y2="1181.83" stroke-linecap="round" style="stroke:#D55E00;stroke-width:10.00"/>
	<line x1="2198.79" y1="1181.83" x2="2244.79" y2="1241.78" stroke-linecap="round" style="stroke:#D55E00;stroke-width:10.00"/>
	<line x1="2060.79" y1="1124.91" x2="2106.79" y2="1236.92" stroke-linecap="round" style="stroke:#CC79A7;stroke-width:10.00"/>
	<line x1="2106.79" y1="1236.92" x2="2152.79" y2="1231.26" stroke-linecap="round" style="stroke:#CC79A7;stroke-width:10.00"/>
	<line x1="2152.79" y1="1231.26" x2="2198.79" y2="1248.63" stroke-linecap="round" style="stroke:#CC79A7;stroke-width:10.00"/>
	<line x1="2198.79" y1="1248.63" x2="2244.79" y2="1229.34" stroke-linecap="round" style="stroke:#CC79A7;stroke-width:10.00"/>
	<line x1="394.86" y1="1865.82" x2="359.38" y2="1865.82" style="stroke:#000000;stroke-width:4.00"/>
	<text x="341.69" y="1883.33" style="font-family:'Helvetica';font-size:49.99px;fill:#000000" text-anchor="end">0</text>
	<line x1="394.86" y1="1490.42" x2="359.38" y2="1490.42" style="stroke:#000000;stroke-width:4.00"/>
	<text x="341.69" y="1507.94" style="font-family:'Helvetica';font-size:49.99px;fill:#000000" text-anchor="end">200</text>
	<line x1="394.86" y1="1115.11" x2="359.38" y2="1115.11" style="stroke:#000000;stroke-width:4.00"/>
	<text x="341.69" y="1132.62" style="font-family:'Helvetica';font-size:49.99px;fill:#000000" text-anchor="end">400</text>
	<line x1="394.86" y1="739.71" x2="359.38" y2="739.71" style="stroke:#000000;stroke-width:4.00"/>
	<text x="341.69" y="757.22" style="font-family:'Helvetica';font-size:49.99px;fill:#000000" text-anchor="end">600</text>
	<line x1="394.86" y1="364.31" x2="359.38" y2="364.31" style="stroke:#000000;stroke-width:4.00"/>
	<text x="341.69" y="381.83" style="font-family:'Helvetica';font-size:49.99px;fill:#000000" text-anchor="end">800</text>
	<line x1="394.86" y1="1865.82" x2="394.86" y2="364.31" style="stroke:#000000;stroke-width:4.00"/>
	<text x="136.21" y="1076.84" style="font-family:'Helvetica';font-size:60.03px;fill:#000000" transform="rotate(-90 136.21,1076.84)" text-anchor="middle">Population counts in 1,000</text>
	<line x1="450.98" y1="1921.94" x2="450.98" y2="1957.33" style="stroke:#000000;stroke-width:4.00"/>
	<text x="450.98" y="2009.98" style="font-family:'Helvetica';font-size:49.99px;fill:#000000" text-anchor="middle">1976</text>
	<line x1="680.98" y1="1921.94" x2="680.98" y2="1957.33" style="stroke:#000000;stroke-width:4.00"/>
	<text x="680.98" y="2009.98" style="font-family:'Helvetica';font-size:49.99px;fill:#000000" text-anchor="middle">1981</text>
	<line x1="910.89" y1="1921.94" x2="910.89" y2="1957.33" style="stroke:#000000;stroke-width:4.00"/>
	<text x="910.89" y="2009.98" style="font-family:'Helvetica';font-size:49.99px;fill:#000000" text-anchor="middle">1986</text>
	<line x1="1140.89" y1="1921.94" x2="1140.89" y2="1957.33" style="stroke:#000000;stroke-width:4.00"/>
	<text x="1140.89" y="2009.98" style="font-family:'Helvetica';font-size:49.99px;fill:#000000" text-anchor="middle">1991</text>
	<line x1="1370.89" y1="1921.94" x2="1370.89" y2="1957.33" style="stroke:#000000;stroke-width:4.00"/>
	<text x="1370.89" y="2009.98" style="font-family:'Helvetica';font-size:49.99px;fill:#000000" text-anchor="middle">1996</text>
	<line x1="1600.88" y1="1921.94" x2="1600.88" y2="1957.33" style="stroke:#000000;stroke-width:4.00"/>
	<text x="1600.88" y="2009.98" style="font-family:'Helvetica';font-size:49.99px;fill:#000000" text-anchor="middle">2001</text>
	<line x1="1830.88" y1="1921.94" x2="1830.88" y2="1957.33" style="stroke:#000000;stroke-width:4.00"/>
	<text x="1830.88" y="2009.98" style="font-family:'Helvetica';font-size:49.99px;fill:#000000" text-anchor="middle">2006</text>
	<line x1="2060.79" y1="1921.94" x2="2060.79" y2="1957.33" style="stroke:#000000;stroke-width:4.00"/>
	<text x="2060.79" y="2009.98" style="font-family:'Helvetica';font-size:49.99px;fill:#000000" text-anchor="middle">2011</text>
	<line x1="2290.79" y1="1921.94" x2="2290.79" y2="1957.33" style="stroke:#000000;stroke-width:4.00"/>
	<text x="2290.79" y="2009.98" style="font-family:'Helvetica';font-size:49.99px;fill:#000000" text-anchor="middle">2016</text>
	<line x1="450.98" y1="1921.94" x2="2290.79" y2="1921.94" style="stroke:#000000;stroke-width:4.00"/>
	<text x="1332.62" y="2152.37" style="font-family:'Helvetica';font-size:60.03px;fill:#000000" text-anchor="middle">Year</text>
	<text x="161.52" y="2396.65" style="font-family:'Helvetica';font-size:60.03px;fill:#000000">Arr. cohort: </text>
	<text x="610.98" y="2396.65" style="font-family:'Helvetica';font-size:60.03px;fill:#000000">1964-73</text>
	<text x="965.98" y="2396.65" style="font-family:'Helvetica';font-size:60.03px;fill:#000000">1974-83</text>
	<text x="1320.98" y="2396.65" style="font-family:'Helvetica';font-size:60.03px;fill:#000000">1984-93</text>
	<text x="1675.98" y="2396.65" style="font-family:'Helvetica';font-size:60.03px;fill:#000000">1994-03</text>
	<text x="2030.98" y="2396.65" style="font-family:'Helvetica';font-size:60.03px;fill:#000000">2004-10</text>
	<line x1="610.98" y1="2301.32" x2="831.01" y2="2301.32" style="stroke:#E69F00;stroke-width:10.00"/>
	<line x1="965.98" y1="2301.32" x2="1185.93" y2="2301.32" style="stroke:#56B4E9;stroke-width:10.00"/>
	<line x1="1320.98" y1="2301.32" x2="1540.93" y2="2301.32" style="stroke:#009E73;stroke-width:10.00"/>
	<line x1="1675.98" y1="2301.32" x2="1895.93" y2="2301.32" style="stroke:#D55E00;stroke-width:10.00"/>
	<line x1="2030.98" y1="2301.32" x2="2250.93" y2="2301.32" style="stroke:#CC79A7;stroke-width:10.00"/>
	<text x="1370.89" y="239.12" style="font-family:'Helvetica';font-size:60.03px;fill:#000000" text-anchor="middle">N total</text>
	<text x="1370.89" y="154.88" style="font-family:'Helvetica';font-size:90.01px;fill:#000000" text-anchor="middle">Cohort size development by period, Men</text>
</svg>
