<?xml version="1.0" encoding="UTF-8" standalone="no"?>
<!-- This is a Stata 15.1 generated SVG file (http://www.stata.com) -->

<svg version="1.1" width="3.54in" height="3.54in" viewBox="0 0 2551 2551" xmlns="http://www.w3.org/2000/svg" xmlns:xlink="http://www.w3.org/1999/xlink">
	<desc>Stata Graph - Graph</desc>
	<rect x="0" y="0" width="2551" height="2551" style="fill:#FFFFFF;stroke:none"/>
	<rect x="0.00" y="0.08" width="2551.00" height="2550.92" style="fill:#FFFFFF"/>
	<rect x="2.55" y="2.63" width="2545.90" height="2545.82" style="fill:none;stroke:#FFFFFF;stroke-width:5.10"/>
	<line x1="394.86" y1="1904.40" x2="2346.91" y2="1904.40" style="stroke:#E8E8E8;stroke-width:4.00"/>
	<line x1="394.86" y1="1519.36" x2="2346.91" y2="1519.36" style="stroke:#E8E8E8;stroke-width:4.00"/>
	<line x1="394.86" y1="1134.40" x2="2346.91" y2="1134.40" style="stroke:#E8E8E8;stroke-width:4.00"/>
	<line x1="394.86" y1="749.36" x2="2346.91" y2="749.36" style="stroke:#E8E8E8;stroke-width:4.00"/>
	<line x1="394.86" y1="364.31" x2="2346.91" y2="364.31" style="stroke:#E8E8E8;stroke-width:4.00"/>
	<line x1="450.98" y1="1960.52" x2="450.98" y2="308.19" style="stroke:#E8E8E8;stroke-width:4.00"/>
	<line x1="680.98" y1="1960.52" x2="680.98" y2="308.19" style="stroke:#E8E8E8;stroke-width:4.00"/>
	<line x1="910.89" y1="1960.52" x2="910.89" y2="308.19" style="stroke:#E8E8E8;stroke-width:4.00"/>
	<line x1="1140.89" y1="1960.52" x2="1140.89" y2="308.19" style="stroke:#E8E8E8;stroke-width:4.00"/>
	<line x1="1370.89" y1="1960.52" x2="1370.89" y2="308.19" style="stroke:#E8E8E8;stroke-width:4.00"/>
	<line x1="1600.88" y1="1960.52" x2="1600.88" y2="308.19" style="stroke:#E8E8E8;stroke-width:4.00"/>
	<line x1="1830.88" y1="1960.52" x2="1830.88" y2="308.19" style="stroke:#E8E8E8;stroke-width:4.00"/>
	<line x1="2060.79" y1="1960.52" x2="2060.79" y2="308.19" style="stroke:#E8E8E8;stroke-width:4.00"/>
	<line x1="2290.79" y1="1960.52" x2="2290.79" y2="308.19" style="stroke:#E8E8E8;stroke-width:4.00"/>
	<line x1="450.90" y1="1038.74" x2="542.90" y2="973.61" stroke-linecap="round" style="stroke:#E69F00;stroke-width:10.00"/>
	<line x1="542.90" y1="973.61" x2="634.90" y2="912.14" stroke-linecap="round" style="stroke:#E69F00;stroke-width:10.00"/>
	<line x1="634.90" y1="912.14" x2="726.90" y2="1022.71" stroke-linecap="round" style="stroke:#E69F00;stroke-width:10.00"/>
	<line x1="726.90" y1="1022.71" x2="864.90" y2="827.24" stroke-linecap="round" style="stroke:#E69F00;stroke-width:10.00"/>
	<line x1="864.90" y1="827.24" x2="956.89" y2="913.26" stroke-linecap="round" style="stroke:#E69F00;stroke-width:10.00"/>
	<line x1="956.89" y1="913.26" x2="1048.89" y2="974.80" stroke-linecap="round" style="stroke:#E69F00;stroke-width:10.00"/>
	<line x1="1048.89" y1="974.80" x2="1140.89" y2="1128.42" stroke-linecap="round" style="stroke:#E69F00;stroke-width:10.00"/>
	<line x1="1140.89" y1="1128.42" x2="1232.89" y2="1157.76" stroke-linecap="round" style="stroke:#E69F00;stroke-width:10.00"/>
	<line x1="1232.89" y1="1157.76" x2="1324.81" y2="1273.19" stroke-linecap="round" style="stroke:#E69F00;stroke-width:10.00"/>
	<line x1="1324.81" y1="1273.19" x2="1370.81" y2="1343.02" stroke-linecap="round" style="stroke:#E69F00;stroke-width:10.00"/>
	<line x1="1370.81" y1="1343.02" x2="1416.81" y2="1444.34" stroke-linecap="round" style="stroke:#E69F00;stroke-width:10.00"/>
	<line x1="1416.81" y1="1444.34" x2="1462.81" y2="1496.16" stroke-linecap="round" style="stroke:#E69F00;stroke-width:10.00"/>
	<line x1="1462.81" y1="1496.16" x2="1508.80" y2="1568.55" stroke-linecap="round" style="stroke:#E69F00;stroke-width:10.00"/>
	<line x1="1508.80" y1="1568.55" x2="1554.80" y2="1629.69" stroke-linecap="round" style="stroke:#E69F00;stroke-width:10.00"/>
	<line x1="1554.80" y1="1629.69" x2="1600.80" y2="1667.56" stroke-linecap="round" style="stroke:#E69F00;stroke-width:10.00"/>
	<line x1="1600.80" y1="1667.56" x2="1646.80" y2="1724.95" stroke-linecap="round" style="stroke:#E69F00;stroke-width:10.00"/>
	<line x1="1646.80" y1="1724.95" x2="1692.80" y2="1761.31" stroke-linecap="round" style="stroke:#E69F00;stroke-width:10.00"/>
	<line x1="864.90" y1="1389.66" x2="956.89" y2="1405.28" stroke-linecap="round" style="stroke:#56B4E9;stroke-width:10.00"/>
	<line x1="956.89" y1="1405.28" x2="1048.89" y2="1435.26" stroke-linecap="round" style="stroke:#56B4E9;stroke-width:10.00"/>
	<line x1="1048.89" y1="1435.26" x2="1140.89" y2="1514.66" stroke-linecap="round" style="stroke:#56B4E9;stroke-width:10.00"/>
	<line x1="1140.89" y1="1514.66" x2="1232.89" y2="1520.79" stroke-linecap="round" style="stroke:#56B4E9;stroke-width:10.00"/>
	<line x1="1232.89" y1="1520.79" x2="1324.81" y2="1541.12" stroke-linecap="round" style="stroke:#56B4E9;stroke-width:10.00"/>
	<line x1="1324.81" y1="1541.12" x2="1370.81" y2="1581.22" stroke-linecap="round" style="stroke:#56B4E9;stroke-width:10.00"/>
	<line x1="1370.81" y1="1581.22" x2="1416.81" y2="1609.60" stroke-linecap="round" style="stroke:#56B4E9;stroke-width:10.00"/>
	<line x1="1416.81" y1="1609.60" x2="1462.81" y2="1633.04" stroke-linecap="round" style="stroke:#56B4E9;stroke-width:10.00"/>
	<line x1="1462.81" y1="1633.04" x2="1508.80" y2="1651.45" stroke-linecap="round" style="stroke:#56B4E9;stroke-width:10.00"/>
	<line x1="1508.80" y1="1651.45" x2="1554.80" y2="1688.68" stroke-linecap="round" style="stroke:#56B4E9;stroke-width:10.00"/>
	<line x1="1554.80" y1="1688.68" x2="1600.80" y2="1685.89" stroke-linecap="round" style="stroke:#56B4E9;stroke-width:10.00"/>
	<line x1="1600.80" y1="1685.89" x2="1646.80" y2="1686.05" stroke-linecap="round" style="stroke:#56B4E9;stroke-width:10.00"/>
	<line x1="1646.80" y1="1686.05" x2="1692.80" y2="1709.33" stroke-linecap="round" style="stroke:#56B4E9;stroke-width:10.00"/>
	<line x1="1692.80" y1="1709.33" x2="1738.80" y2="1737.07" stroke-linecap="round" style="stroke:#56B4E9;stroke-width:10.00"/>
	<line x1="1738.80" y1="1737.07" x2="1784.80" y2="1719.93" stroke-linecap="round" style="stroke:#56B4E9;stroke-width:10.00"/>
	<line x1="1784.80" y1="1719.93" x2="1830.80" y2="1719.77" stroke-linecap="round" style="stroke:#56B4E9;stroke-width:10.00"/>
	<line x1="1830.80" y1="1719.77" x2="1876.80" y2="1722.48" stroke-linecap="round" style="stroke:#56B4E9;stroke-width:10.00"/>
	<line x1="1876.80" y1="1722.48" x2="1922.80" y2="1756.12" stroke-linecap="round" style="stroke:#56B4E9;stroke-width:10.00"/>
	<line x1="1922.80" y1="1756.12" x2="1968.80" y2="1762.42" stroke-linecap="round" style="stroke:#56B4E9;stroke-width:10.00"/>
	<line x1="1968.80" y1="1762.42" x2="2014.79" y2="1796.06" stroke-linecap="round" style="stroke:#56B4E9;stroke-width:10.00"/>
	<line x1="2014.79" y1="1796.06" x2="2060.79" y2="1817.27" stroke-linecap="round" style="stroke:#56B4E9;stroke-width:10.00"/>
	<line x1="2060.79" y1="1817.27" x2="2106.79" y2="1832.89" stroke-linecap="round" style="stroke:#56B4E9;stroke-width:10.00"/>
	<line x1="2106.79" y1="1832.89" x2="2152.79" y2="1849.24" stroke-linecap="round" style="stroke:#56B4E9;stroke-width:10.00"/>
	<line x1="1324.81" y1="1002.94" x2="1370.81" y2="957.26" stroke-linecap="round" style="stroke:#009E73;stroke-width:10.00"/>
	<line x1="1370.81" y1="957.26" x2="1416.81" y2="1020.56" stroke-linecap="round" style="stroke:#009E73;stroke-width:10.00"/>
	<line x1="1416.81" y1="1020.56" x2="1462.81" y2="1108.65" stroke-linecap="round" style="stroke:#009E73;stroke-width:10.00"/>
	<line x1="1462.81" y1="1108.65" x2="1508.80" y2="1163.10" stroke-linecap="round" style="stroke:#009E73;stroke-width:10.00"/>
	<line x1="1508.80" y1="1163.10" x2="1554.80" y2="1240.10" stroke-linecap="round" style="stroke:#009E73;stroke-width:10.00"/>
	<line x1="1554.80" y1="1240.10" x2="1600.80" y2="1265.38" stroke-linecap="round" style="stroke:#009E73;stroke-width:10.00"/>
	<line x1="1600.80" y1="1265.38" x2="1646.80" y2="1312.01" stroke-linecap="round" style="stroke:#009E73;stroke-width:10.00"/>
	<line x1="1646.80" y1="1312.01" x2="1692.80" y2="1306.19" stroke-linecap="round" style="stroke:#009E73;stroke-width:10.00"/>
	<line x1="1692.80" y1="1306.19" x2="1738.80" y2="1387.66" stroke-linecap="round" style="stroke:#009E73;stroke-width:10.00"/>
	<line x1="1738.80" y1="1387.66" x2="1784.80" y2="1318.39" stroke-linecap="round" style="stroke:#009E73;stroke-width:10.00"/>
	<line x1="1784.80" y1="1318.39" x2="1830.80" y2="1269.04" stroke-linecap="round" style="stroke:#009E73;stroke-width:10.00"/>
	<line x1="1830.80" y1="1269.04" x2="1876.80" y2="1291.28" stroke-linecap="round" style="stroke:#009E73;stroke-width:10.00"/>
	<line x1="1876.80" y1="1291.28" x2="1922.80" y2="1317.27" stroke-linecap="round" style="stroke:#009E73;stroke-width:10.00"/>
	<line x1="1922.80" y1="1317.27" x2="1968.80" y2="1385.27" stroke-linecap="round" style="stroke:#009E73;stroke-width:10.00"/>
	<line x1="1968.80" y1="1385.27" x2="2014.79" y2="1413.17" stroke-linecap="round" style="stroke:#009E73;stroke-width:10.00"/>
	<line x1="2014.79" y1="1413.17" x2="2060.79" y2="1398.98" stroke-linecap="round" style="stroke:#009E73;stroke-width:10.00"/>
	<line x1="2060.79" y1="1398.98" x2="2106.79" y2="1451.60" stroke-linecap="round" style="stroke:#009E73;stroke-width:10.00"/>
	<line x1="2106.79" y1="1451.60" x2="2152.79" y2="1476.47" stroke-linecap="round" style="stroke:#009E73;stroke-width:10.00"/>
	<line x1="2152.79" y1="1476.47" x2="2198.79" y2="1502.22" stroke-linecap="round" style="stroke:#009E73;stroke-width:10.00"/>
	<line x1="2198.79" y1="1502.22" x2="2244.79" y2="1541.44" stroke-linecap="round" style="stroke:#009E73;stroke-width:10.00"/>
	<line x1="1738.80" y1="1122.60" x2="1784.80" y2="953.28" stroke-linecap="round" style="stroke:#D55E00;stroke-width:10.00"/>
	<line x1="1784.80" y1="953.28" x2="1830.80" y2="832.82" stroke-linecap="round" style="stroke:#D55E00;stroke-width:10.00"/>
	<line x1="1830.80" y1="832.82" x2="1876.80" y2="887.91" stroke-linecap="round" style="stroke:#D55E00;stroke-width:10.00"/>
	<line x1="1876.80" y1="887.91" x2="1922.80" y2="945.70" stroke-linecap="round" style="stroke:#D55E00;stroke-width:10.00"/>
	<line x1="1922.80" y1="945.70" x2="1968.80" y2="995.85" stroke-linecap="round" style="stroke:#D55E00;stroke-width:10.00"/>
	<line x1="1968.80" y1="995.85" x2="2014.79" y2="1055.40" stroke-linecap="round" style="stroke:#D55E00;stroke-width:10.00"/>
	<line x1="2014.79" y1="1055.40" x2="2060.79" y2="1086.17" stroke-linecap="round" style="stroke:#D55E00;stroke-width:10.00"/>
	<line x1="2060.79" y1="1086.17" x2="2106.79" y2="1223.84" stroke-linecap="round" style="stroke:#D55E00;stroke-width:10.00"/>
	<line x1="2106.79" y1="1223.84" x2="2152.79" y2="1207.58" stroke-linecap="round" style="stroke:#D55E00;stroke-width:10.00"/>
	<line x1="2152.79" y1="1207.58" x2="2198.79" y2="1202.88" stroke-linecap="round" style="stroke:#D55E00;stroke-width:10.00"/>
	<line x1="2198.79" y1="1202.88" x2="2244.79" y2="1264.26" stroke-linecap="round" style="stroke:#D55E00;stroke-width:10.00"/>
	<line x1="2060.79" y1="1144.44" x2="2106.79" y2="1259.32" stroke-linecap="round" style="stroke:#CC79A7;stroke-width:10.00"/>
	<line x1="2106.79" y1="1259.32" x2="2152.79" y2="1253.50" stroke-linecap="round" style="stroke:#CC79A7;stroke-width:10.00"/>
	<line x1="2152.79" y1="1253.50" x2="2198.79" y2="1271.35" stroke-linecap="round" style="stroke:#CC79A7;stroke-width:10.00"/>
	<line x1="2198.79" y1="1271.35" x2="2244.79" y2="1251.58" stroke-linecap="round" style="stroke:#CC79A7;stroke-width:10.00"/>
	<line x1="394.86" y1="1904.40" x2="359.38" y2="1904.40" style="stroke:#000000;stroke-width:4.00"/>
	<text x="341.69" y="1921.92" style="font-family:'Helvetica';font-size:49.99px;fill:#000000" text-anchor="end">0</text>
	<line x1="394.86" y1="1519.36" x2="359.38" y2="1519.36" style="stroke:#000000;stroke-width:4.00"/>
	<text x="341.69" y="1536.87" style="font-family:'Helvetica';font-size:49.99px;fill:#000000" text-anchor="end">200</text>
	<line x1="394.86" y1="1134.40" x2="359.38" y2="1134.40" style="stroke:#000000;stroke-width:4.00"/>
	<text x="341.69" y="1151.91" style="font-family:'Helvetica';font-size:49.99px;fill:#000000" text-anchor="end">400</text>
	<line x1="394.86" y1="749.36" x2="359.38" y2="749.36" style="stroke:#000000;stroke-width:4.00"/>
	<text x="341.69" y="766.87" style="font-family:'Helvetica';font-size:49.99px;fill:#000000" text-anchor="end">600</text>
	<line x1="394.86" y1="364.31" x2="359.38" y2="364.31" style="stroke:#000000;stroke-width:4.00"/>
	<text x="341.69" y="381.83" style="font-family:'Helvetica';font-size:49.99px;fill:#000000" text-anchor="end">800</text>
	<line x1="394.86" y1="1904.40" x2="394.86" y2="364.31" style="stroke:#000000;stroke-width:4.00"/>
	<text x="136.21" y="1096.13" style="font-family:'Helvetica';font-size:60.03px;fill:#000000" transform="rotate(-90 136.21,1096.13)" text-anchor="middle">Population counts in 1,000</text>
	<line x1="450.98" y1="1960.52" x2="450.98" y2="1995.92" style="stroke:#000000;stroke-width:4.00"/>
	<text x="450.98" y="2048.56" style="font-family:'Helvetica';font-size:49.99px;fill:#000000" text-anchor="middle">1976</text>
	<line x1="680.98" y1="1960.52" x2="680.98" y2="1995.92" style="stroke:#000000;stroke-width:4.00"/>
	<text x="680.98" y="2048.56" style="font-family:'Helvetica';font-size:49.99px;fill:#000000" text-anchor="middle">1981</text>
	<line x1="910.89" y1="1960.52" x2="910.89" y2="1995.92" style="stroke:#000000;stroke-width:4.00"/>
	<text x="910.89" y="2048.56" style="font-family:'Helvetica';font-size:49.99px;fill:#000000" text-anchor="middle">1986</text>
	<line x1="1140.89" y1="1960.52" x2="1140.89" y2="1995.92" style="stroke:#000000;stroke-width:4.00"/>
	<text x="1140.89" y="2048.56" style="font-family:'Helvetica';font-size:49.99px;fill:#000000" text-anchor="middle">1991</text>
	<line x1="1370.89" y1="1960.52" x2="1370.89" y2="1995.92" style="stroke:#000000;stroke-width:4.00"/>
	<text x="1370.89" y="2048.56" style="font-family:'Helvetica';font-size:49.99px;fill:#000000" text-anchor="middle">1996</text>
	<line x1="1600.88" y1="1960.52" x2="1600.88" y2="1995.92" style="stroke:#000000;stroke-width:4.00"/>
	<text x="1600.88" y="2048.56" style="font-family:'Helvetica';font-size:49.99px;fill:#000000" text-anchor="middle">2001</text>
	<line x1="1830.88" y1="1960.52" x2="1830.88" y2="1995.92" style="stroke:#000000;stroke-width:4.00"/>
	<text x="1830.88" y="2048.56" style="font-family:'Helvetica';font-size:49.99px;fill:#000000" text-anchor="middle">2006</text>
	<line x1="2060.79" y1="1960.52" x2="2060.79" y2="1995.92" style="stroke:#000000;stroke-width:4.00"/>
	<text x="2060.79" y="2048.56" style="font-family:'Helvetica';font-size:49.99px;fill:#000000" text-anchor="middle">2011</text>
	<line x1="2290.79" y1="1960.52" x2="2290.79" y2="1995.92" style="stroke:#000000;stroke-width:4.00"/>
	<text x="2290.79" y="2048.56" style="font-family:'Helvetica';font-size:49.99px;fill:#000000" text-anchor="middle">2016</text>
	<line x1="450.98" y1="1960.52" x2="2290.79" y2="1960.52" style="stroke:#000000;stroke-width:4.00"/>
	<text x="1332.62" y="2190.96" style="font-family:'Helvetica';font-size:60.03px;fill:#000000" text-anchor="middle">Year</text>
	<text x="161.52" y="2396.65" style="font-family:'Helvetica';font-size:60.03px;fill:#000000">Arr. cohort: </text>
	<text x="610.98" y="2396.65" style="font-family:'Helvetica';font-size:60.03px;fill:#000000">1964-73</text>
	<text x="965.98" y="2396.65" style="font-family:'Helvetica';font-size:60.03px;fill:#000000">1974-83</text>
	<text x="1320.98" y="2396.65" style="font-family:'Helvetica';font-size:60.03px;fill:#000000">1984-93</text>
	<text x="1675.98" y="2396.65" style="font-family:'Helvetica';font-size:60.03px;fill:#000000">1994-03</text>
	<text x="2030.98" y="2396.65" style="font-family:'Helvetica';font-size:60.03px;fill:#000000">2004-10</text>
	<line x1="610.98" y1="2320.61" x2="831.01" y2="2320.61" style="stroke:#E69F00;stroke-width:10.00"/>
	<line x1="965.98" y1="2320.61" x2="1185.93" y2="2320.61" style="stroke:#56B4E9;stroke-width:10.00"/>
	<line x1="1320.98" y1="2320.61" x2="1540.93" y2="2320.61" style="stroke:#009E73;stroke-width:10.00"/>
	<line x1="1675.98" y1="2320.61" x2="1895.93" y2="2320.61" style="stroke:#D55E00;stroke-width:10.00"/>
	<line x1="2030.98" y1="2320.61" x2="2250.93" y2="2320.61" style="stroke:#CC79A7;stroke-width:10.00"/>
	<text x="1370.89" y="239.12" style="font-family:'Helvetica';font-size:60.03px;fill:#000000" text-anchor="middle">N total</text>
	<text x="1370.89" y="154.88" style="font-family:'Helvetica';font-size:90.01px;fill:#000000" text-anchor="middle">Cohort size development by period, Men</text>
</svg>
