<?xml version="1.0" encoding="UTF-8" standalone="no"?>
<!-- This is a Stata 15.1 generated SVG file (http://www.stata.com) -->

<svg version="1.1" width="3.54in" height="3.54in" viewBox="0 0 2551 2551" xmlns="http://www.w3.org/2000/svg" xmlns:xlink="http://www.w3.org/1999/xlink">
	<desc>Stata Graph - Graph</desc>
	<rect x="0" y="0" width="2551" height="2551" style="fill:#FFFFFF;stroke:none"/>
	<rect x="0.00" y="0.08" width="2551.00" height="2550.92" style="fill:#FFFFFF"/>
	<rect x="2.55" y="2.63" width="2545.90" height="2545.82" style="fill:none;stroke:#FFFFFF;stroke-width:5.10"/>
	<line x1="360.10" y1="1904.40" x2="2346.91" y2="1904.40" style="stroke:#E8E8E8;stroke-width:4.00"/>
	<line x1="360.10" y1="1519.36" x2="2346.91" y2="1519.36" style="stroke:#E8E8E8;stroke-width:4.00"/>
	<line x1="360.10" y1="1134.40" x2="2346.91" y2="1134.40" style="stroke:#E8E8E8;stroke-width:4.00"/>
	<line x1="360.10" y1="749.36" x2="2346.91" y2="749.36" style="stroke:#E8E8E8;stroke-width:4.00"/>
	<line x1="360.10" y1="364.31" x2="2346.91" y2="364.31" style="stroke:#E8E8E8;stroke-width:4.00"/>
	<line x1="416.22" y1="1960.52" x2="416.22" y2="308.19" style="stroke:#E8E8E8;stroke-width:4.00"/>
	<line x1="718.61" y1="1960.52" x2="718.61" y2="308.19" style="stroke:#E8E8E8;stroke-width:4.00"/>
	<line x1="1020.91" y1="1960.52" x2="1020.91" y2="308.19" style="stroke:#E8E8E8;stroke-width:4.00"/>
	<line x1="1323.29" y1="1960.52" x2="1323.29" y2="308.19" style="stroke:#E8E8E8;stroke-width:4.00"/>
	<line x1="1625.60" y1="1960.52" x2="1625.60" y2="308.19" style="stroke:#E8E8E8;stroke-width:4.00"/>
	<line x1="1927.98" y1="1960.52" x2="1927.98" y2="308.19" style="stroke:#E8E8E8;stroke-width:4.00"/>
	<line x1="2230.36" y1="1960.52" x2="2230.36" y2="308.19" style="stroke:#E8E8E8;stroke-width:4.00"/>
	<line x1="1141.85" y1="1531.72" x2="1202.28" y2="1630.25" stroke-linecap="round" style="stroke:#E69F00;stroke-width:10.00"/>
	<line x1="1202.28" y1="1630.25" x2="1262.78" y2="1583.37" stroke-linecap="round" style="stroke:#E69F00;stroke-width:10.00"/>
	<line x1="1262.78" y1="1583.37" x2="1323.21" y2="1584.25" stroke-linecap="round" style="stroke:#E69F00;stroke-width:10.00"/>
	<line x1="1323.21" y1="1584.25" x2="1383.72" y2="1509.16" stroke-linecap="round" style="stroke:#E69F00;stroke-width:10.00"/>
	<line x1="1383.72" y1="1509.16" x2="1444.15" y2="1592.22" stroke-linecap="round" style="stroke:#E69F00;stroke-width:10.00"/>
	<line x1="1444.15" y1="1592.22" x2="1504.66" y2="1548.46" stroke-linecap="round" style="stroke:#E69F00;stroke-width:10.00"/>
	<line x1="1504.66" y1="1548.46" x2="1565.09" y2="1613.75" stroke-linecap="round" style="stroke:#E69F00;stroke-width:10.00"/>
	<line x1="1565.09" y1="1613.75" x2="1625.60" y2="1516.81" stroke-linecap="round" style="stroke:#E69F00;stroke-width:10.00"/>
	<line x1="1625.60" y1="1516.81" x2="1686.02" y2="1592.86" stroke-linecap="round" style="stroke:#E69F00;stroke-width:10.00"/>
	<line x1="1686.02" y1="1592.86" x2="1746.53" y2="1549.73" stroke-linecap="round" style="stroke:#E69F00;stroke-width:10.00"/>
	<line x1="1746.53" y1="1549.73" x2="1806.96" y2="1493.29" stroke-linecap="round" style="stroke:#E69F00;stroke-width:10.00"/>
	<line x1="1806.96" y1="1493.29" x2="1867.47" y2="1505.17" stroke-linecap="round" style="stroke:#E69F00;stroke-width:10.00"/>
	<line x1="1867.47" y1="1505.17" x2="1927.90" y2="1425.53" stroke-linecap="round" style="stroke:#E69F00;stroke-width:10.00"/>
	<line x1="1927.90" y1="1425.53" x2="1988.41" y2="1413.49" stroke-linecap="round" style="stroke:#E69F00;stroke-width:10.00"/>
	<line x1="1988.41" y1="1413.49" x2="2048.92" y2="1382.48" stroke-linecap="round" style="stroke:#E69F00;stroke-width:10.00"/>
	<line x1="2048.92" y1="1382.48" x2="2109.34" y2="1435.42" stroke-linecap="round" style="stroke:#E69F00;stroke-width:10.00"/>
	<line x1="2109.34" y1="1435.42" x2="2169.85" y2="1437.09" stroke-linecap="round" style="stroke:#E69F00;stroke-width:10.00"/>
	<line x1="2169.85" y1="1437.09" x2="2230.28" y2="1387.74" stroke-linecap="round" style="stroke:#E69F00;stroke-width:10.00"/>
	<line x1="537.16" y1="1688.76" x2="597.59" y2="1746.16" stroke-linecap="round" style="stroke:#56B4E9;stroke-width:10.00"/>
	<line x1="597.59" y1="1746.16" x2="658.10" y2="1667.72" stroke-linecap="round" style="stroke:#56B4E9;stroke-width:10.00"/>
	<line x1="658.10" y1="1667.72" x2="718.53" y2="1694.82" stroke-linecap="round" style="stroke:#56B4E9;stroke-width:10.00"/>
	<line x1="718.53" y1="1694.82" x2="779.04" y2="1612.55" stroke-linecap="round" style="stroke:#56B4E9;stroke-width:10.00"/>
	<line x1="779.04" y1="1612.55" x2="839.46" y2="1658.55" stroke-linecap="round" style="stroke:#56B4E9;stroke-width:10.00"/>
	<line x1="839.46" y1="1658.55" x2="899.97" y2="1612.39" stroke-linecap="round" style="stroke:#56B4E9;stroke-width:10.00"/>
	<line x1="899.97" y1="1612.39" x2="960.40" y2="1697.37" stroke-linecap="round" style="stroke:#56B4E9;stroke-width:10.00"/>
	<line x1="960.40" y1="1697.37" x2="1020.91" y2="1620.92" stroke-linecap="round" style="stroke:#56B4E9;stroke-width:10.00"/>
	<line x1="1020.91" y1="1620.92" x2="1081.34" y2="1632.40" stroke-linecap="round" style="stroke:#56B4E9;stroke-width:10.00"/>
	<line x1="1081.34" y1="1632.40" x2="1141.85" y2="1666.52" stroke-linecap="round" style="stroke:#56B4E9;stroke-width:10.00"/>
	<line x1="1141.85" y1="1666.52" x2="1202.28" y2="1613.51" stroke-linecap="round" style="stroke:#56B4E9;stroke-width:10.00"/>
	<line x1="1202.28" y1="1613.51" x2="1262.78" y2="1651.69" stroke-linecap="round" style="stroke:#56B4E9;stroke-width:10.00"/>
	<line x1="1262.78" y1="1651.69" x2="1323.21" y2="1593.26" stroke-linecap="round" style="stroke:#56B4E9;stroke-width:10.00"/>
	<line x1="1323.21" y1="1593.26" x2="1383.72" y2="1614.22" stroke-linecap="round" style="stroke:#56B4E9;stroke-width:10.00"/>
	<line x1="1383.72" y1="1614.22" x2="1444.15" y2="1561.69" stroke-linecap="round" style="stroke:#56B4E9;stroke-width:10.00"/>
	<line x1="1444.15" y1="1561.69" x2="1504.66" y2="1615.90" stroke-linecap="round" style="stroke:#56B4E9;stroke-width:10.00"/>
	<line x1="1504.66" y1="1615.90" x2="1565.09" y2="1578.27" stroke-linecap="round" style="stroke:#56B4E9;stroke-width:10.00"/>
	<line x1="1565.09" y1="1578.27" x2="1625.60" y2="1539.61" stroke-linecap="round" style="stroke:#56B4E9;stroke-width:10.00"/>
	<line x1="1625.60" y1="1539.61" x2="1686.02" y2="1520.16" stroke-linecap="round" style="stroke:#56B4E9;stroke-width:10.00"/>
	<line x1="1686.02" y1="1520.16" x2="1746.53" y2="1549.41" stroke-linecap="round" style="stroke:#56B4E9;stroke-width:10.00"/>
	<line x1="1746.53" y1="1549.41" x2="1806.96" y2="1570.06" stroke-linecap="round" style="stroke:#56B4E9;stroke-width:10.00"/>
	<line x1="1806.96" y1="1570.06" x2="1867.47" y2="1572.53" stroke-linecap="round" style="stroke:#56B4E9;stroke-width:10.00"/>
	<line x1="1867.47" y1="1572.53" x2="1927.90" y2="1545.11" stroke-linecap="round" style="stroke:#56B4E9;stroke-width:10.00"/>
	<line x1="1927.90" y1="1545.11" x2="1988.41" y2="1546.30" stroke-linecap="round" style="stroke:#56B4E9;stroke-width:10.00"/>
	<line x1="1988.41" y1="1546.30" x2="2048.92" y2="1576.92" stroke-linecap="round" style="stroke:#56B4E9;stroke-width:10.00"/>
	<line x1="2048.92" y1="1576.92" x2="2109.34" y2="1558.50" stroke-linecap="round" style="stroke:#56B4E9;stroke-width:10.00"/>
	<line x1="2109.34" y1="1558.50" x2="2169.85" y2="1559.70" stroke-linecap="round" style="stroke:#56B4E9;stroke-width:10.00"/>
	<line x1="2169.85" y1="1559.70" x2="2230.28" y2="1515.69" stroke-linecap="round" style="stroke:#56B4E9;stroke-width:10.00"/>
	<line x1="476.65" y1="1522.15" x2="537.16" y2="1501.82" stroke-linecap="round" style="stroke:#009E73;stroke-width:10.00"/>
	<line x1="537.16" y1="1501.82" x2="597.59" y2="1350.67" stroke-linecap="round" style="stroke:#009E73;stroke-width:10.00"/>
	<line x1="597.59" y1="1350.67" x2="658.10" y2="1292.72" stroke-linecap="round" style="stroke:#009E73;stroke-width:10.00"/>
	<line x1="658.10" y1="1292.72" x2="718.53" y2="1227.67" stroke-linecap="round" style="stroke:#009E73;stroke-width:10.00"/>
	<line x1="718.53" y1="1227.67" x2="779.04" y2="1190.52" stroke-linecap="round" style="stroke:#009E73;stroke-width:10.00"/>
	<line x1="779.04" y1="1190.52" x2="839.46" y2="1158.39" stroke-linecap="round" style="stroke:#009E73;stroke-width:10.00"/>
	<line x1="839.46" y1="1158.39" x2="899.97" y2="1139.18" stroke-linecap="round" style="stroke:#009E73;stroke-width:10.00"/>
	<line x1="899.97" y1="1139.18" x2="960.40" y2="1170.35" stroke-linecap="round" style="stroke:#009E73;stroke-width:10.00"/>
	<line x1="960.40" y1="1170.35" x2="1020.91" y2="1126.90" stroke-linecap="round" style="stroke:#009E73;stroke-width:10.00"/>
	<line x1="1020.91" y1="1126.90" x2="1081.34" y2="1157.28" stroke-linecap="round" style="stroke:#009E73;stroke-width:10.00"/>
	<line x1="1081.34" y1="1157.28" x2="1141.85" y2="1167.72" stroke-linecap="round" style="stroke:#009E73;stroke-width:10.00"/>
	<line x1="1141.85" y1="1167.72" x2="1202.28" y2="1185.34" stroke-linecap="round" style="stroke:#009E73;stroke-width:10.00"/>
	<line x1="1202.28" y1="1185.34" x2="1262.78" y2="1197.77" stroke-linecap="round" style="stroke:#009E73;stroke-width:10.00"/>
	<line x1="1262.78" y1="1197.77" x2="1323.21" y2="1184.06" stroke-linecap="round" style="stroke:#009E73;stroke-width:10.00"/>
	<line x1="1323.21" y1="1184.06" x2="1383.72" y2="1181.43" stroke-linecap="round" style="stroke:#009E73;stroke-width:10.00"/>
	<line x1="1383.72" y1="1181.43" x2="1444.15" y2="1206.30" stroke-linecap="round" style="stroke:#009E73;stroke-width:10.00"/>
	<line x1="1444.15" y1="1206.30" x2="1504.66" y2="1219.30" stroke-linecap="round" style="stroke:#009E73;stroke-width:10.00"/>
	<line x1="1504.66" y1="1219.30" x2="1565.09" y2="1207.26" stroke-linecap="round" style="stroke:#009E73;stroke-width:10.00"/>
	<line x1="1565.09" y1="1207.26" x2="1625.60" y2="1150.58" stroke-linecap="round" style="stroke:#009E73;stroke-width:10.00"/>
	<line x1="1625.60" y1="1150.58" x2="1686.02" y2="1229.66" stroke-linecap="round" style="stroke:#009E73;stroke-width:10.00"/>
	<line x1="1686.02" y1="1229.66" x2="1746.53" y2="1281.32" stroke-linecap="round" style="stroke:#009E73;stroke-width:10.00"/>
	<line x1="476.65" y1="937.01" x2="537.16" y2="887.91" stroke-linecap="round" style="stroke:#D55E00;stroke-width:10.00"/>
	<line x1="537.16" y1="887.91" x2="597.59" y2="793.76" stroke-linecap="round" style="stroke:#D55E00;stroke-width:10.00"/>
	<line x1="597.59" y1="793.76" x2="658.10" y2="720.42" stroke-linecap="round" style="stroke:#D55E00;stroke-width:10.00"/>
	<line x1="658.10" y1="720.42" x2="718.53" y2="631.21" stroke-linecap="round" style="stroke:#D55E00;stroke-width:10.00"/>
	<line x1="718.53" y1="631.21" x2="779.04" y2="572.38" stroke-linecap="round" style="stroke:#D55E00;stroke-width:10.00"/>
	<line x1="779.04" y1="572.38" x2="839.46" y2="534.99" stroke-linecap="round" style="stroke:#D55E00;stroke-width:10.00"/>
	<line x1="839.46" y1="534.99" x2="899.97" y2="538.66" stroke-linecap="round" style="stroke:#D55E00;stroke-width:10.00"/>
	<line x1="899.97" y1="538.66" x2="960.40" y2="660.79" stroke-linecap="round" style="stroke:#D55E00;stroke-width:10.00"/>
	<line x1="960.40" y1="660.79" x2="1020.91" y2="594.78" stroke-linecap="round" style="stroke:#D55E00;stroke-width:10.00"/>
	<line x1="1020.91" y1="594.78" x2="1081.34" y2="683.51" stroke-linecap="round" style="stroke:#D55E00;stroke-width:10.00"/>
	<line x1="1081.34" y1="683.51" x2="1141.85" y2="740.83" stroke-linecap="round" style="stroke:#D55E00;stroke-width:10.00"/>
	<line x1="476.65" y1="1080.43" x2="537.16" y2="1048.86" stroke-linecap="round" style="stroke:#CC79A7;stroke-width:10.00"/>
	<line x1="537.16" y1="1048.86" x2="597.59" y2="1003.02" stroke-linecap="round" style="stroke:#CC79A7;stroke-width:10.00"/>
	<line x1="597.59" y1="1003.02" x2="658.10" y2="1028.37" stroke-linecap="round" style="stroke:#CC79A7;stroke-width:10.00"/>
	<line x1="658.10" y1="1028.37" x2="718.53" y2="981.02" stroke-linecap="round" style="stroke:#CC79A7;stroke-width:10.00"/>
	<line x1="360.10" y1="1904.40" x2="324.70" y2="1904.40" style="stroke:#000000;stroke-width:4.00"/>
	<text x="306.93" y="1921.92" style="font-family:'Helvetica';font-size:49.99px;fill:#000000" text-anchor="end">0</text>
	<line x1="360.10" y1="1519.36" x2="324.70" y2="1519.36" style="stroke:#000000;stroke-width:4.00"/>
	<text x="306.93" y="1536.87" style="font-family:'Helvetica';font-size:49.99px;fill:#000000" text-anchor="end">200</text>
	<line x1="360.10" y1="1134.40" x2="324.70" y2="1134.40" style="stroke:#000000;stroke-width:4.00"/>
	<text x="306.93" y="1151.91" style="font-family:'Helvetica';font-size:49.99px;fill:#000000" text-anchor="end">400</text>
	<line x1="360.10" y1="749.36" x2="324.70" y2="749.36" style="stroke:#000000;stroke-width:4.00"/>
	<text x="306.93" y="766.87" style="font-family:'Helvetica';font-size:49.99px;fill:#000000" text-anchor="end">600</text>
	<line x1="360.10" y1="364.31" x2="324.70" y2="364.31" style="stroke:#000000;stroke-width:4.00"/>
	<text x="306.93" y="381.83" style="font-family:'Helvetica';font-size:49.99px;fill:#000000" text-anchor="end">800</text>
	<line x1="360.10" y1="1904.40" x2="360.10" y2="364.31" style="stroke:#000000;stroke-width:4.00"/>
	<text x="136.21" y="1096.13" style="font-family:'Helvetica';font-size:60.03px;fill:#000000" transform="rotate(-90 136.21,1096.13)" text-anchor="middle">Population counts in 1,000</text>
	<line x1="416.22" y1="1960.52" x2="416.22" y2="1995.92" style="stroke:#000000;stroke-width:4.00"/>
	<text x="416.22" y="2048.56" style="font-family:'Helvetica';font-size:49.99px;fill:#000000" text-anchor="middle">0</text>
	<line x1="718.61" y1="1960.52" x2="718.61" y2="1995.92" style="stroke:#000000;stroke-width:4.00"/>
	<text x="718.61" y="2048.56" style="font-family:'Helvetica';font-size:49.99px;fill:#000000" text-anchor="middle">5</text>
	<line x1="1020.91" y1="1960.52" x2="1020.91" y2="1995.92" style="stroke:#000000;stroke-width:4.00"/>
	<text x="1020.91" y="2048.56" style="font-family:'Helvetica';font-size:49.99px;fill:#000000" text-anchor="middle">10</text>
	<line x1="1323.29" y1="1960.52" x2="1323.29" y2="1995.92" style="stroke:#000000;stroke-width:4.00"/>
	<text x="1323.29" y="2048.56" style="font-family:'Helvetica';font-size:49.99px;fill:#000000" text-anchor="middle">15</text>
	<line x1="1625.60" y1="1960.52" x2="1625.60" y2="1995.92" style="stroke:#000000;stroke-width:4.00"/>
	<text x="1625.60" y="2048.56" style="font-family:'Helvetica';font-size:49.99px;fill:#000000" text-anchor="middle">20</text>
	<line x1="1927.98" y1="1960.52" x2="1927.98" y2="1995.92" style="stroke:#000000;stroke-width:4.00"/>
	<text x="1927.98" y="2048.56" style="font-family:'Helvetica';font-size:49.99px;fill:#000000" text-anchor="middle">25</text>
	<line x1="2230.36" y1="1960.52" x2="2230.36" y2="1995.92" style="stroke:#000000;stroke-width:4.00"/>
	<text x="2230.36" y="2048.56" style="font-family:'Helvetica';font-size:49.99px;fill:#000000" text-anchor="middle">30</text>
	<line x1="416.22" y1="1960.52" x2="2290.79" y2="1960.52" style="stroke:#000000;stroke-width:4.00"/>
	<text x="1315.24" y="2190.96" style="font-family:'Helvetica';font-size:60.03px;fill:#000000" text-anchor="middle">Duration of stay</text>
	<text x="161.52" y="2396.65" style="font-family:'Helvetica';font-size:60.03px;fill:#000000">Arr. cohort: </text>
	<text x="610.98" y="2396.65" style="font-family:'Helvetica';font-size:60.03px;fill:#000000">1964-73</text>
	<text x="965.98" y="2396.65" style="font-family:'Helvetica';font-size:60.03px;fill:#000000">1974-83</text>
	<text x="1320.98" y="2396.65" style="font-family:'Helvetica';font-size:60.03px;fill:#000000">1984-93</text>
	<text x="1675.98" y="2396.65" style="font-family:'Helvetica';font-size:60.03px;fill:#000000">1994-03</text>
	<text x="2030.98" y="2396.65" style="font-family:'Helvetica';font-size:60.03px;fill:#000000">2004-10</text>
	<line x1="610.98" y1="2320.61" x2="831.01" y2="2320.61" style="stroke:#E69F00;stroke-width:10.00"/>
	<line x1="965.98" y1="2320.61" x2="1185.93" y2="2320.61" style="stroke:#56B4E9;stroke-width:10.00"/>
	<line x1="1320.98" y1="2320.61" x2="1540.93" y2="2320.61" style="stroke:#009E73;stroke-width:10.00"/>
	<line x1="1675.98" y1="2320.61" x2="1895.93" y2="2320.61" style="stroke:#D55E00;stroke-width:10.00"/>
	<line x1="2030.98" y1="2320.61" x2="2250.93" y2="2320.61" style="stroke:#CC79A7;stroke-width:10.00"/>
	<text x="1353.51" y="239.12" style="font-family:'Helvetica';font-size:60.03px;fill:#000000" text-anchor="middle">N total, no upper age limit</text>
	<text x="1353.51" y="154.88" style="font-family:'Helvetica';font-size:90.01px;fill:#000000" text-anchor="middle">Cohort size development by duration of stay, Women</text>
</svg>
