<?xml version="1.0" encoding="UTF-8" standalone="no"?>
<!-- This is a Stata 15.1 generated SVG file (http://www.stata.com) -->

<svg version="1.1" width="3.54in" height="3.54in" viewBox="0 0 2551 2551" xmlns="http://www.w3.org/2000/svg" xmlns:xlink="http://www.w3.org/1999/xlink">
	<desc>Stata Graph - Graph</desc>
	<rect x="0" y="0" width="2551" height="2551" style="fill:#FFFFFF;stroke:none"/>
	<rect x="0.00" y="0.08" width="2551.00" height="2550.92" style="fill:#FFFFFF"/>
	<rect x="2.55" y="2.63" width="2545.90" height="2545.82" style="fill:none;stroke:#FFFFFF;stroke-width:5.10"/>
	<line x1="378.12" y1="1865.82" x2="2346.91" y2="1865.82" style="stroke:#E8E8E8;stroke-width:4.00"/>
	<line x1="378.12" y1="1490.42" x2="2346.91" y2="1490.42" style="stroke:#E8E8E8;stroke-width:4.00"/>
	<line x1="378.12" y1="1115.11" x2="2346.91" y2="1115.11" style="stroke:#E8E8E8;stroke-width:4.00"/>
	<line x1="378.12" y1="739.71" x2="2346.91" y2="739.71" style="stroke:#E8E8E8;stroke-width:4.00"/>
	<line x1="378.12" y1="364.31" x2="2346.91" y2="364.31" style="stroke:#E8E8E8;stroke-width:4.00"/>
	<line x1="434.24" y1="1921.94" x2="434.24" y2="308.19" style="stroke:#E8E8E8;stroke-width:4.00"/>
	<line x1="733.67" y1="1921.94" x2="733.67" y2="308.19" style="stroke:#E8E8E8;stroke-width:4.00"/>
	<line x1="1033.11" y1="1921.94" x2="1033.11" y2="308.19" style="stroke:#E8E8E8;stroke-width:4.00"/>
	<line x1="1332.54" y1="1921.94" x2="1332.54" y2="308.19" style="stroke:#E8E8E8;stroke-width:4.00"/>
	<line x1="1632.05" y1="1921.94" x2="1632.05" y2="308.19" style="stroke:#E8E8E8;stroke-width:4.00"/>
	<line x1="1931.49" y1="1921.94" x2="1931.49" y2="308.19" style="stroke:#E8E8E8;stroke-width:4.00"/>
	<line x1="2230.92" y1="1921.94" x2="2230.92" y2="308.19" style="stroke:#E8E8E8;stroke-width:4.00"/>
	<line x1="1152.85" y1="1368.21" x2="1212.72" y2="1529.17" stroke-linecap="round" style="stroke:#E69F00;stroke-width:10.00"/>
	<line x1="1212.72" y1="1529.17" x2="1272.67" y2="1418.52" stroke-linecap="round" style="stroke:#E69F00;stroke-width:10.00"/>
	<line x1="1272.67" y1="1418.52" x2="1332.54" y2="1423.06" stroke-linecap="round" style="stroke:#E69F00;stroke-width:10.00"/>
	<line x1="1332.54" y1="1423.06" x2="1392.41" y2="1342.07" stroke-linecap="round" style="stroke:#E69F00;stroke-width:10.00"/>
	<line x1="1392.41" y1="1342.07" x2="1452.28" y2="1431.51" stroke-linecap="round" style="stroke:#E69F00;stroke-width:10.00"/>
	<line x1="1452.28" y1="1431.51" x2="1512.23" y2="1419.31" stroke-linecap="round" style="stroke:#E69F00;stroke-width:10.00"/>
	<line x1="1512.23" y1="1419.31" x2="1572.10" y2="1495.20" stroke-linecap="round" style="stroke:#E69F00;stroke-width:10.00"/>
	<line x1="1572.10" y1="1495.20" x2="1631.97" y2="1402.41" stroke-linecap="round" style="stroke:#E69F00;stroke-width:10.00"/>
	<line x1="1631.97" y1="1402.41" x2="1691.84" y2="1447.53" stroke-linecap="round" style="stroke:#E69F00;stroke-width:10.00"/>
	<line x1="1691.84" y1="1447.53" x2="1751.79" y2="1470.65" stroke-linecap="round" style="stroke:#E69F00;stroke-width:10.00"/>
	<line x1="1751.79" y1="1470.65" x2="1811.67" y2="1394.76" stroke-linecap="round" style="stroke:#E69F00;stroke-width:10.00"/>
	<line x1="1811.67" y1="1394.76" x2="1871.54" y2="1441.24" stroke-linecap="round" style="stroke:#E69F00;stroke-width:10.00"/>
	<line x1="1871.54" y1="1441.24" x2="1931.41" y2="1379.45" stroke-linecap="round" style="stroke:#E69F00;stroke-width:10.00"/>
	<line x1="1931.41" y1="1379.45" x2="1991.28" y2="1416.20" stroke-linecap="round" style="stroke:#E69F00;stroke-width:10.00"/>
	<line x1="1991.28" y1="1416.20" x2="2051.23" y2="1412.70" stroke-linecap="round" style="stroke:#E69F00;stroke-width:10.00"/>
	<line x1="2051.23" y1="1412.70" x2="2111.10" y2="1474.16" stroke-linecap="round" style="stroke:#E69F00;stroke-width:10.00"/>
	<line x1="2111.10" y1="1474.16" x2="2170.97" y2="1550.13" stroke-linecap="round" style="stroke:#E69F00;stroke-width:10.00"/>
	<line x1="2170.97" y1="1550.13" x2="2230.84" y2="1557.54" stroke-linecap="round" style="stroke:#E69F00;stroke-width:10.00"/>
	<line x1="553.98" y1="1668.19" x2="613.85" y2="1713.24" stroke-linecap="round" style="stroke:#56B4E9;stroke-width:10.00"/>
	<line x1="613.85" y1="1713.24" x2="673.72" y2="1650.82" stroke-linecap="round" style="stroke:#56B4E9;stroke-width:10.00"/>
	<line x1="673.72" y1="1650.82" x2="733.67" y2="1660.86" stroke-linecap="round" style="stroke:#56B4E9;stroke-width:10.00"/>
	<line x1="733.67" y1="1660.86" x2="793.55" y2="1592.30" stroke-linecap="round" style="stroke:#56B4E9;stroke-width:10.00"/>
	<line x1="793.55" y1="1592.30" x2="853.42" y2="1641.17" stroke-linecap="round" style="stroke:#56B4E9;stroke-width:10.00"/>
	<line x1="853.42" y1="1641.17" x2="913.29" y2="1608.72" stroke-linecap="round" style="stroke:#56B4E9;stroke-width:10.00"/>
	<line x1="913.29" y1="1608.72" x2="973.24" y2="1661.58" stroke-linecap="round" style="stroke:#56B4E9;stroke-width:10.00"/>
	<line x1="973.24" y1="1661.58" x2="1033.11" y2="1635.19" stroke-linecap="round" style="stroke:#56B4E9;stroke-width:10.00"/>
	<line x1="1033.11" y1="1635.19" x2="1092.98" y2="1645.39" stroke-linecap="round" style="stroke:#56B4E9;stroke-width:10.00"/>
	<line x1="1092.98" y1="1645.39" x2="1152.85" y2="1685.57" stroke-linecap="round" style="stroke:#56B4E9;stroke-width:10.00"/>
	<line x1="1152.85" y1="1685.57" x2="1212.72" y2="1624.27" stroke-linecap="round" style="stroke:#56B4E9;stroke-width:10.00"/>
	<line x1="1212.72" y1="1624.27" x2="1272.67" y2="1671.94" stroke-linecap="round" style="stroke:#56B4E9;stroke-width:10.00"/>
	<line x1="1272.67" y1="1671.94" x2="1332.54" y2="1621.32" stroke-linecap="round" style="stroke:#56B4E9;stroke-width:10.00"/>
	<line x1="1332.54" y1="1621.32" x2="1392.41" y2="1640.85" stroke-linecap="round" style="stroke:#56B4E9;stroke-width:10.00"/>
	<line x1="1392.41" y1="1640.85" x2="1452.28" y2="1615.34" stroke-linecap="round" style="stroke:#56B4E9;stroke-width:10.00"/>
	<line x1="1452.28" y1="1615.34" x2="1512.23" y2="1636.71" stroke-linecap="round" style="stroke:#56B4E9;stroke-width:10.00"/>
	<line x1="1512.23" y1="1636.71" x2="1572.10" y2="1644.36" stroke-linecap="round" style="stroke:#56B4E9;stroke-width:10.00"/>
	<line x1="1572.10" y1="1644.36" x2="1631.97" y2="1599.64" stroke-linecap="round" style="stroke:#56B4E9;stroke-width:10.00"/>
	<line x1="1631.97" y1="1599.64" x2="1691.84" y2="1635.19" stroke-linecap="round" style="stroke:#56B4E9;stroke-width:10.00"/>
	<line x1="1691.84" y1="1635.19" x2="1751.79" y2="1631.28" stroke-linecap="round" style="stroke:#56B4E9;stroke-width:10.00"/>
	<line x1="1751.79" y1="1631.28" x2="1811.67" y2="1649.38" stroke-linecap="round" style="stroke:#56B4E9;stroke-width:10.00"/>
	<line x1="1811.67" y1="1649.38" x2="1871.54" y2="1659.74" stroke-linecap="round" style="stroke:#56B4E9;stroke-width:10.00"/>
	<line x1="1871.54" y1="1659.74" x2="1931.41" y2="1657.35" stroke-linecap="round" style="stroke:#56B4E9;stroke-width:10.00"/>
	<line x1="1931.41" y1="1657.35" x2="1991.28" y2="1673.62" stroke-linecap="round" style="stroke:#56B4E9;stroke-width:10.00"/>
	<line x1="1991.28" y1="1673.62" x2="2051.23" y2="1681.11" stroke-linecap="round" style="stroke:#56B4E9;stroke-width:10.00"/>
	<line x1="2051.23" y1="1681.11" x2="2111.10" y2="1700.24" stroke-linecap="round" style="stroke:#56B4E9;stroke-width:10.00"/>
	<line x1="2111.10" y1="1700.24" x2="2170.97" y2="1714.35" stroke-linecap="round" style="stroke:#56B4E9;stroke-width:10.00"/>
	<line x1="2170.97" y1="1714.35" x2="2230.84" y2="1720.01" stroke-linecap="round" style="stroke:#56B4E9;stroke-width:10.00"/>
	<line x1="494.11" y1="1454.15" x2="553.98" y2="1448.65" stroke-linecap="round" style="stroke:#009E73;stroke-width:10.00"/>
	<line x1="553.98" y1="1448.65" x2="613.85" y2="1304.68" stroke-linecap="round" style="stroke:#009E73;stroke-width:10.00"/>
	<line x1="613.85" y1="1304.68" x2="673.72" y2="1256.29" stroke-linecap="round" style="stroke:#009E73;stroke-width:10.00"/>
	<line x1="673.72" y1="1256.29" x2="733.67" y2="1169.55" stroke-linecap="round" style="stroke:#009E73;stroke-width:10.00"/>
	<line x1="733.67" y1="1169.55" x2="793.55" y2="1187.49" stroke-linecap="round" style="stroke:#009E73;stroke-width:10.00"/>
	<line x1="793.55" y1="1187.49" x2="853.42" y2="1143.96" stroke-linecap="round" style="stroke:#009E73;stroke-width:10.00"/>
	<line x1="853.42" y1="1143.96" x2="913.29" y2="1159.75" stroke-linecap="round" style="stroke:#009E73;stroke-width:10.00"/>
	<line x1="913.29" y1="1159.75" x2="973.24" y2="1226.79" stroke-linecap="round" style="stroke:#009E73;stroke-width:10.00"/>
	<line x1="973.24" y1="1226.79" x2="1033.11" y2="1162.86" stroke-linecap="round" style="stroke:#009E73;stroke-width:10.00"/>
	<line x1="1033.11" y1="1162.86" x2="1092.98" y2="1220.18" stroke-linecap="round" style="stroke:#009E73;stroke-width:10.00"/>
	<line x1="1092.98" y1="1220.18" x2="1152.85" y2="1212.12" stroke-linecap="round" style="stroke:#009E73;stroke-width:10.00"/>
	<line x1="1152.85" y1="1212.12" x2="1212.72" y2="1246.08" stroke-linecap="round" style="stroke:#009E73;stroke-width:10.00"/>
	<line x1="1212.72" y1="1246.08" x2="1272.67" y2="1278.85" stroke-linecap="round" style="stroke:#009E73;stroke-width:10.00"/>
	<line x1="1272.67" y1="1278.85" x2="1332.54" y2="1247.28" stroke-linecap="round" style="stroke:#009E73;stroke-width:10.00"/>
	<line x1="1332.54" y1="1247.28" x2="1392.41" y2="1282.12" stroke-linecap="round" style="stroke:#009E73;stroke-width:10.00"/>
	<line x1="1392.41" y1="1282.12" x2="1452.28" y2="1310.26" stroke-linecap="round" style="stroke:#009E73;stroke-width:10.00"/>
	<line x1="1452.28" y1="1310.26" x2="1512.23" y2="1324.05" stroke-linecap="round" style="stroke:#009E73;stroke-width:10.00"/>
	<line x1="1512.23" y1="1324.05" x2="1572.10" y2="1370.21" stroke-linecap="round" style="stroke:#009E73;stroke-width:10.00"/>
	<line x1="1572.10" y1="1370.21" x2="1631.97" y2="1325.72" stroke-linecap="round" style="stroke:#009E73;stroke-width:10.00"/>
	<line x1="1631.97" y1="1325.72" x2="1691.84" y2="1392.93" stroke-linecap="round" style="stroke:#009E73;stroke-width:10.00"/>
	<line x1="1691.84" y1="1392.93" x2="1751.79" y2="1400.02" stroke-linecap="round" style="stroke:#009E73;stroke-width:10.00"/>
	<line x1="494.11" y1="965.95" x2="553.98" y2="1060.98" stroke-linecap="round" style="stroke:#D55E00;stroke-width:10.00"/>
	<line x1="553.98" y1="1060.98" x2="613.85" y2="983.09" stroke-linecap="round" style="stroke:#D55E00;stroke-width:10.00"/>
	<line x1="613.85" y1="983.09" x2="673.72" y2="942.51" stroke-linecap="round" style="stroke:#D55E00;stroke-width:10.00"/>
	<line x1="673.72" y1="942.51" x2="733.67" y2="922.27" stroke-linecap="round" style="stroke:#D55E00;stroke-width:10.00"/>
	<line x1="733.67" y1="922.27" x2="793.55" y2="920.43" stroke-linecap="round" style="stroke:#D55E00;stroke-width:10.00"/>
	<line x1="793.55" y1="920.43" x2="853.42" y2="887.83" stroke-linecap="round" style="stroke:#D55E00;stroke-width:10.00"/>
	<line x1="853.42" y1="887.83" x2="913.29" y2="879.54" stroke-linecap="round" style="stroke:#D55E00;stroke-width:10.00"/>
	<line x1="913.29" y1="879.54" x2="973.24" y2="986.20" stroke-linecap="round" style="stroke:#D55E00;stroke-width:10.00"/>
	<line x1="973.24" y1="986.20" x2="1033.11" y2="969.54" stroke-linecap="round" style="stroke:#D55E00;stroke-width:10.00"/>
	<line x1="1033.11" y1="969.54" x2="1092.98" y2="1070.54" stroke-linecap="round" style="stroke:#D55E00;stroke-width:10.00"/>
	<line x1="1092.98" y1="1070.54" x2="1152.85" y2="1083.38" stroke-linecap="round" style="stroke:#D55E00;stroke-width:10.00"/>
	<line x1="494.11" y1="1122.92" x2="553.98" y2="1144.52" stroke-linecap="round" style="stroke:#CC79A7;stroke-width:10.00"/>
	<line x1="553.98" y1="1144.52" x2="613.85" y2="1117.10" stroke-linecap="round" style="stroke:#CC79A7;stroke-width:10.00"/>
	<line x1="613.85" y1="1117.10" x2="673.72" y2="1173.86" stroke-linecap="round" style="stroke:#CC79A7;stroke-width:10.00"/>
	<line x1="673.72" y1="1173.86" x2="733.67" y2="1137.51" stroke-linecap="round" style="stroke:#CC79A7;stroke-width:10.00"/>
	<line x1="378.12" y1="1865.82" x2="342.72" y2="1865.82" style="stroke:#000000;stroke-width:4.00"/>
	<text x="324.94" y="1883.33" style="font-family:'Helvetica';font-size:49.99px;fill:#000000" text-anchor="end">0</text>
	<line x1="378.12" y1="1490.42" x2="342.72" y2="1490.42" style="stroke:#000000;stroke-width:4.00"/>
	<text x="324.94" y="1507.94" style="font-family:'Helvetica';font-size:49.99px;fill:#000000" text-anchor="end">200</text>
	<line x1="378.12" y1="1115.11" x2="342.72" y2="1115.11" style="stroke:#000000;stroke-width:4.00"/>
	<text x="324.94" y="1132.62" style="font-family:'Helvetica';font-size:49.99px;fill:#000000" text-anchor="end">400</text>
	<line x1="378.12" y1="739.71" x2="342.72" y2="739.71" style="stroke:#000000;stroke-width:4.00"/>
	<text x="324.94" y="757.22" style="font-family:'Helvetica';font-size:49.99px;fill:#000000" text-anchor="end">600</text>
	<line x1="378.12" y1="364.31" x2="342.72" y2="364.31" style="stroke:#000000;stroke-width:4.00"/>
	<text x="324.94" y="381.83" style="font-family:'Helvetica';font-size:49.99px;fill:#000000" text-anchor="end">800</text>
	<line x1="378.12" y1="1865.82" x2="378.12" y2="364.31" style="stroke:#000000;stroke-width:4.00"/>
	<text x="136.21" y="1076.84" style="font-family:'Helvetica';font-size:60.03px;fill:#000000" transform="rotate(-90 136.21,1076.84)" text-anchor="middle">Population counts in 1,000</text>
	<line x1="434.24" y1="1921.94" x2="434.24" y2="1957.33" style="stroke:#000000;stroke-width:4.00"/>
	<text x="434.24" y="2009.98" style="font-family:'Helvetica';font-size:49.99px;fill:#000000" text-anchor="middle">0</text>
	<line x1="733.67" y1="1921.94" x2="733.67" y2="1957.33" style="stroke:#000000;stroke-width:4.00"/>
	<text x="733.67" y="2009.98" style="font-family:'Helvetica';font-size:49.99px;fill:#000000" text-anchor="middle">5</text>
	<line x1="1033.11" y1="1921.94" x2="1033.11" y2="1957.33" style="stroke:#000000;stroke-width:4.00"/>
	<text x="1033.11" y="2009.98" style="font-family:'Helvetica';font-size:49.99px;fill:#000000" text-anchor="middle">10</text>
	<line x1="1332.54" y1="1921.94" x2="1332.54" y2="1957.33" style="stroke:#000000;stroke-width:4.00"/>
	<text x="1332.54" y="2009.98" style="font-family:'Helvetica';font-size:49.99px;fill:#000000" text-anchor="middle">15</text>
	<line x1="1632.05" y1="1921.94" x2="1632.05" y2="1957.33" style="stroke:#000000;stroke-width:4.00"/>
	<text x="1632.05" y="2009.98" style="font-family:'Helvetica';font-size:49.99px;fill:#000000" text-anchor="middle">20</text>
	<line x1="1931.49" y1="1921.94" x2="1931.49" y2="1957.33" style="stroke:#000000;stroke-width:4.00"/>
	<text x="1931.49" y="2009.98" style="font-family:'Helvetica';font-size:49.99px;fill:#000000" text-anchor="middle">25</text>
	<line x1="2230.92" y1="1921.94" x2="2230.92" y2="1957.33" style="stroke:#000000;stroke-width:4.00"/>
	<text x="2230.92" y="2009.98" style="font-family:'Helvetica';font-size:49.99px;fill:#000000" text-anchor="middle">30</text>
	<line x1="434.24" y1="1921.94" x2="2290.79" y2="1921.94" style="stroke:#000000;stroke-width:4.00"/>
	<text x="1324.25" y="2152.37" style="font-family:'Helvetica';font-size:60.03px;fill:#000000" text-anchor="middle">Duration of stay</text>
	<text x="161.52" y="2396.65" style="font-family:'Helvetica';font-size:60.03px;fill:#000000">Arr. cohort: </text>
	<text x="610.98" y="2396.65" style="font-family:'Helvetica';font-size:60.03px;fill:#000000">1964-73</text>
	<text x="965.98" y="2396.65" style="font-family:'Helvetica';font-size:60.03px;fill:#000000">1974-83</text>
	<text x="1320.98" y="2396.65" style="font-family:'Helvetica';font-size:60.03px;fill:#000000">1984-93</text>
	<text x="1675.98" y="2396.65" style="font-family:'Helvetica';font-size:60.03px;fill:#000000">1994-03</text>
	<text x="2030.98" y="2396.65" style="font-family:'Helvetica';font-size:60.03px;fill:#000000">2004-10</text>
	<line x1="610.98" y1="2301.32" x2="831.01" y2="2301.32" style="stroke:#E69F00;stroke-width:10.00"/>
	<line x1="965.98" y1="2301.32" x2="1185.93" y2="2301.32" style="stroke:#56B4E9;stroke-width:10.00"/>
	<line x1="1320.98" y1="2301.32" x2="1540.93" y2="2301.32" style="stroke:#009E73;stroke-width:10.00"/>
	<line x1="1675.98" y1="2301.32" x2="1895.93" y2="2301.32" style="stroke:#D55E00;stroke-width:10.00"/>
	<line x1="2030.98" y1="2301.32" x2="2250.93" y2="2301.32" style="stroke:#CC79A7;stroke-width:10.00"/>
	<text x="1362.52" y="239.12" style="font-family:'Helvetica';font-size:60.03px;fill:#000000" text-anchor="middle">N total</text>
	<text x="1362.52" y="154.88" style="font-family:'Helvetica';font-size:90.01px;fill:#000000" text-anchor="middle">Cohort size development by duration of stay, Men</text>
</svg>
