<?xml version="1.0" encoding="UTF-8" standalone="no"?>
<!-- This is a Stata 15.1 generated SVG file (http://www.stata.com) -->

<svg version="1.1" width="3.54in" height="3.54in" viewBox="0 0 2551 2551" xmlns="http://www.w3.org/2000/svg" xmlns:xlink="http://www.w3.org/1999/xlink">
	<desc>Stata Graph - Graph</desc>
	<rect x="0" y="0" width="2551" height="2551" style="fill:#FFFFFF;stroke:none"/>
	<rect x="0.00" y="0.08" width="2551.00" height="2550.92" style="fill:#FFFFFF"/>
	<rect x="2.55" y="2.63" width="2545.90" height="2545.82" style="fill:none;stroke:#FFFFFF;stroke-width:5.10"/>
	<line x1="378.12" y1="1904.40" x2="2346.91" y2="1904.40" style="stroke:#E8E8E8;stroke-width:4.00"/>
	<line x1="378.12" y1="1519.36" x2="2346.91" y2="1519.36" style="stroke:#E8E8E8;stroke-width:4.00"/>
	<line x1="378.12" y1="1134.40" x2="2346.91" y2="1134.40" style="stroke:#E8E8E8;stroke-width:4.00"/>
	<line x1="378.12" y1="749.36" x2="2346.91" y2="749.36" style="stroke:#E8E8E8;stroke-width:4.00"/>
	<line x1="378.12" y1="364.31" x2="2346.91" y2="364.31" style="stroke:#E8E8E8;stroke-width:4.00"/>
	<line x1="434.24" y1="1960.52" x2="434.24" y2="308.19" style="stroke:#E8E8E8;stroke-width:4.00"/>
	<line x1="733.67" y1="1960.52" x2="733.67" y2="308.19" style="stroke:#E8E8E8;stroke-width:4.00"/>
	<line x1="1033.11" y1="1960.52" x2="1033.11" y2="308.19" style="stroke:#E8E8E8;stroke-width:4.00"/>
	<line x1="1332.54" y1="1960.52" x2="1332.54" y2="308.19" style="stroke:#E8E8E8;stroke-width:4.00"/>
	<line x1="1632.05" y1="1960.52" x2="1632.05" y2="308.19" style="stroke:#E8E8E8;stroke-width:4.00"/>
	<line x1="1931.49" y1="1960.52" x2="1931.49" y2="308.19" style="stroke:#E8E8E8;stroke-width:4.00"/>
	<line x1="2230.92" y1="1960.52" x2="2230.92" y2="308.19" style="stroke:#E8E8E8;stroke-width:4.00"/>
	<line x1="1152.85" y1="1394.04" x2="1212.72" y2="1559.14" stroke-linecap="round" style="stroke:#E69F00;stroke-width:10.00"/>
	<line x1="1212.72" y1="1559.14" x2="1272.67" y2="1445.54" stroke-linecap="round" style="stroke:#E69F00;stroke-width:10.00"/>
	<line x1="1272.67" y1="1445.54" x2="1332.54" y2="1450.24" stroke-linecap="round" style="stroke:#E69F00;stroke-width:10.00"/>
	<line x1="1332.54" y1="1450.24" x2="1392.41" y2="1367.18" stroke-linecap="round" style="stroke:#E69F00;stroke-width:10.00"/>
	<line x1="1392.41" y1="1367.18" x2="1452.28" y2="1458.93" stroke-linecap="round" style="stroke:#E69F00;stroke-width:10.00"/>
	<line x1="1452.28" y1="1458.93" x2="1512.23" y2="1446.42" stroke-linecap="round" style="stroke:#E69F00;stroke-width:10.00"/>
	<line x1="1512.23" y1="1446.42" x2="1572.10" y2="1524.30" stroke-linecap="round" style="stroke:#E69F00;stroke-width:10.00"/>
	<line x1="1572.10" y1="1524.30" x2="1631.97" y2="1429.12" stroke-linecap="round" style="stroke:#E69F00;stroke-width:10.00"/>
	<line x1="1631.97" y1="1429.12" x2="1691.84" y2="1475.35" stroke-linecap="round" style="stroke:#E69F00;stroke-width:10.00"/>
	<line x1="1691.84" y1="1475.35" x2="1751.79" y2="1499.11" stroke-linecap="round" style="stroke:#E69F00;stroke-width:10.00"/>
	<line x1="1751.79" y1="1499.11" x2="1811.67" y2="1421.23" stroke-linecap="round" style="stroke:#E69F00;stroke-width:10.00"/>
	<line x1="1811.67" y1="1421.23" x2="1871.54" y2="1468.90" stroke-linecap="round" style="stroke:#E69F00;stroke-width:10.00"/>
	<line x1="1871.54" y1="1468.90" x2="1931.41" y2="1405.52" stroke-linecap="round" style="stroke:#E69F00;stroke-width:10.00"/>
	<line x1="1931.41" y1="1405.52" x2="1991.28" y2="1443.23" stroke-linecap="round" style="stroke:#E69F00;stroke-width:10.00"/>
	<line x1="1991.28" y1="1443.23" x2="2051.23" y2="1439.64" stroke-linecap="round" style="stroke:#E69F00;stroke-width:10.00"/>
	<line x1="2051.23" y1="1439.64" x2="2111.10" y2="1502.70" stroke-linecap="round" style="stroke:#E69F00;stroke-width:10.00"/>
	<line x1="2111.10" y1="1502.70" x2="2170.97" y2="1580.66" stroke-linecap="round" style="stroke:#E69F00;stroke-width:10.00"/>
	<line x1="2170.97" y1="1580.66" x2="2230.84" y2="1588.24" stroke-linecap="round" style="stroke:#E69F00;stroke-width:10.00"/>
	<line x1="553.98" y1="1627.70" x2="613.85" y2="1710.53" stroke-linecap="round" style="stroke:#56B4E9;stroke-width:10.00"/>
	<line x1="613.85" y1="1710.53" x2="673.72" y2="1643.48" stroke-linecap="round" style="stroke:#56B4E9;stroke-width:10.00"/>
	<line x1="673.72" y1="1643.48" x2="733.67" y2="1671.62" stroke-linecap="round" style="stroke:#56B4E9;stroke-width:10.00"/>
	<line x1="733.67" y1="1671.62" x2="793.55" y2="1610.80" stroke-linecap="round" style="stroke:#56B4E9;stroke-width:10.00"/>
	<line x1="793.55" y1="1610.80" x2="853.42" y2="1674.01" stroke-linecap="round" style="stroke:#56B4E9;stroke-width:10.00"/>
	<line x1="853.42" y1="1674.01" x2="913.29" y2="1640.69" stroke-linecap="round" style="stroke:#56B4E9;stroke-width:10.00"/>
	<line x1="913.29" y1="1640.69" x2="973.24" y2="1694.98" stroke-linecap="round" style="stroke:#56B4E9;stroke-width:10.00"/>
	<line x1="973.24" y1="1694.98" x2="1033.11" y2="1667.88" stroke-linecap="round" style="stroke:#56B4E9;stroke-width:10.00"/>
	<line x1="1033.11" y1="1667.88" x2="1092.98" y2="1678.32" stroke-linecap="round" style="stroke:#56B4E9;stroke-width:10.00"/>
	<line x1="1092.98" y1="1678.32" x2="1152.85" y2="1719.53" stroke-linecap="round" style="stroke:#56B4E9;stroke-width:10.00"/>
	<line x1="1152.85" y1="1719.53" x2="1212.72" y2="1656.64" stroke-linecap="round" style="stroke:#56B4E9;stroke-width:10.00"/>
	<line x1="1212.72" y1="1656.64" x2="1272.67" y2="1705.58" stroke-linecap="round" style="stroke:#56B4E9;stroke-width:10.00"/>
	<line x1="1272.67" y1="1705.58" x2="1332.54" y2="1653.61" stroke-linecap="round" style="stroke:#56B4E9;stroke-width:10.00"/>
	<line x1="1332.54" y1="1653.61" x2="1392.41" y2="1673.70" stroke-linecap="round" style="stroke:#56B4E9;stroke-width:10.00"/>
	<line x1="1392.41" y1="1673.70" x2="1452.28" y2="1647.47" stroke-linecap="round" style="stroke:#56B4E9;stroke-width:10.00"/>
	<line x1="1452.28" y1="1647.47" x2="1512.23" y2="1669.39" stroke-linecap="round" style="stroke:#56B4E9;stroke-width:10.00"/>
	<line x1="1512.23" y1="1669.39" x2="1572.10" y2="1677.20" stroke-linecap="round" style="stroke:#56B4E9;stroke-width:10.00"/>
	<line x1="1572.10" y1="1677.20" x2="1631.97" y2="1631.36" stroke-linecap="round" style="stroke:#56B4E9;stroke-width:10.00"/>
	<line x1="1631.97" y1="1631.36" x2="1691.84" y2="1667.88" stroke-linecap="round" style="stroke:#56B4E9;stroke-width:10.00"/>
	<line x1="1691.84" y1="1667.88" x2="1751.79" y2="1663.81" stroke-linecap="round" style="stroke:#56B4E9;stroke-width:10.00"/>
	<line x1="1751.79" y1="1663.81" x2="1811.67" y2="1682.38" stroke-linecap="round" style="stroke:#56B4E9;stroke-width:10.00"/>
	<line x1="1811.67" y1="1682.38" x2="1871.54" y2="1693.07" stroke-linecap="round" style="stroke:#56B4E9;stroke-width:10.00"/>
	<line x1="1871.54" y1="1693.07" x2="1931.41" y2="1690.60" stroke-linecap="round" style="stroke:#56B4E9;stroke-width:10.00"/>
	<line x1="1931.41" y1="1690.60" x2="1991.28" y2="1707.26" stroke-linecap="round" style="stroke:#56B4E9;stroke-width:10.00"/>
	<line x1="1991.28" y1="1707.26" x2="2051.23" y2="1714.91" stroke-linecap="round" style="stroke:#56B4E9;stroke-width:10.00"/>
	<line x1="2051.23" y1="1714.91" x2="2111.10" y2="1734.60" stroke-linecap="round" style="stroke:#56B4E9;stroke-width:10.00"/>
	<line x1="2111.10" y1="1734.60" x2="2170.97" y2="1749.03" stroke-linecap="round" style="stroke:#56B4E9;stroke-width:10.00"/>
	<line x1="2170.97" y1="1749.03" x2="2230.84" y2="1754.85" stroke-linecap="round" style="stroke:#56B4E9;stroke-width:10.00"/>
	<line x1="494.11" y1="1331.06" x2="553.98" y2="1348.84" stroke-linecap="round" style="stroke:#009E73;stroke-width:10.00"/>
	<line x1="553.98" y1="1348.84" x2="613.85" y2="1209.65" stroke-linecap="round" style="stroke:#009E73;stroke-width:10.00"/>
	<line x1="613.85" y1="1209.65" x2="673.72" y2="1192.11" stroke-linecap="round" style="stroke:#009E73;stroke-width:10.00"/>
	<line x1="673.72" y1="1192.11" x2="733.67" y2="1124.67" stroke-linecap="round" style="stroke:#009E73;stroke-width:10.00"/>
	<line x1="733.67" y1="1124.67" x2="793.55" y2="1183.03" stroke-linecap="round" style="stroke:#009E73;stroke-width:10.00"/>
	<line x1="793.55" y1="1183.03" x2="853.42" y2="1163.97" stroke-linecap="round" style="stroke:#009E73;stroke-width:10.00"/>
	<line x1="853.42" y1="1163.97" x2="913.29" y2="1180.24" stroke-linecap="round" style="stroke:#009E73;stroke-width:10.00"/>
	<line x1="913.29" y1="1180.24" x2="973.24" y2="1248.95" stroke-linecap="round" style="stroke:#009E73;stroke-width:10.00"/>
	<line x1="973.24" y1="1248.95" x2="1033.11" y2="1183.35" stroke-linecap="round" style="stroke:#009E73;stroke-width:10.00"/>
	<line x1="1033.11" y1="1183.35" x2="1092.98" y2="1242.18" stroke-linecap="round" style="stroke:#009E73;stroke-width:10.00"/>
	<line x1="1092.98" y1="1242.18" x2="1152.85" y2="1233.89" stroke-linecap="round" style="stroke:#009E73;stroke-width:10.00"/>
	<line x1="1152.85" y1="1233.89" x2="1212.72" y2="1268.72" stroke-linecap="round" style="stroke:#009E73;stroke-width:10.00"/>
	<line x1="1212.72" y1="1268.72" x2="1272.67" y2="1302.37" stroke-linecap="round" style="stroke:#009E73;stroke-width:10.00"/>
	<line x1="1272.67" y1="1302.37" x2="1332.54" y2="1270.00" stroke-linecap="round" style="stroke:#009E73;stroke-width:10.00"/>
	<line x1="1332.54" y1="1270.00" x2="1392.41" y2="1305.71" stroke-linecap="round" style="stroke:#009E73;stroke-width:10.00"/>
	<line x1="1392.41" y1="1305.71" x2="1452.28" y2="1334.57" stroke-linecap="round" style="stroke:#009E73;stroke-width:10.00"/>
	<line x1="1452.28" y1="1334.57" x2="1512.23" y2="1348.76" stroke-linecap="round" style="stroke:#009E73;stroke-width:10.00"/>
	<line x1="1512.23" y1="1348.76" x2="1572.10" y2="1396.03" stroke-linecap="round" style="stroke:#009E73;stroke-width:10.00"/>
	<line x1="1572.10" y1="1396.03" x2="1631.97" y2="1350.44" stroke-linecap="round" style="stroke:#009E73;stroke-width:10.00"/>
	<line x1="1631.97" y1="1350.44" x2="1691.84" y2="1419.31" stroke-linecap="round" style="stroke:#009E73;stroke-width:10.00"/>
	<line x1="1691.84" y1="1419.31" x2="1751.79" y2="1426.65" stroke-linecap="round" style="stroke:#009E73;stroke-width:10.00"/>
	<line x1="494.11" y1="641.02" x2="553.98" y2="842.07" stroke-linecap="round" style="stroke:#D55E00;stroke-width:10.00"/>
	<line x1="553.98" y1="842.07" x2="613.85" y2="831.87" stroke-linecap="round" style="stroke:#D55E00;stroke-width:10.00"/>
	<line x1="613.85" y1="831.87" x2="673.72" y2="844.78" stroke-linecap="round" style="stroke:#D55E00;stroke-width:10.00"/>
	<line x1="673.72" y1="844.78" x2="733.67" y2="865.51" stroke-linecap="round" style="stroke:#D55E00;stroke-width:10.00"/>
	<line x1="733.67" y1="865.51" x2="793.55" y2="909.59" stroke-linecap="round" style="stroke:#D55E00;stroke-width:10.00"/>
	<line x1="793.55" y1="909.59" x2="853.42" y2="901.22" stroke-linecap="round" style="stroke:#D55E00;stroke-width:10.00"/>
	<line x1="853.42" y1="901.22" x2="913.29" y2="892.77" stroke-linecap="round" style="stroke:#D55E00;stroke-width:10.00"/>
	<line x1="913.29" y1="892.77" x2="973.24" y2="1002.14" stroke-linecap="round" style="stroke:#D55E00;stroke-width:10.00"/>
	<line x1="973.24" y1="1002.14" x2="1033.11" y2="985.08" stroke-linecap="round" style="stroke:#D55E00;stroke-width:10.00"/>
	<line x1="1033.11" y1="985.08" x2="1092.98" y2="1088.64" stroke-linecap="round" style="stroke:#D55E00;stroke-width:10.00"/>
	<line x1="1092.98" y1="1088.64" x2="1152.85" y2="1101.87" stroke-linecap="round" style="stroke:#D55E00;stroke-width:10.00"/>
	<line x1="494.11" y1="937.49" x2="553.98" y2="993.06" stroke-linecap="round" style="stroke:#CC79A7;stroke-width:10.00"/>
	<line x1="553.98" y1="993.06" x2="613.85" y2="1041.13" stroke-linecap="round" style="stroke:#CC79A7;stroke-width:10.00"/>
	<line x1="613.85" y1="1041.13" x2="673.72" y2="1119.57" stroke-linecap="round" style="stroke:#CC79A7;stroke-width:10.00"/>
	<line x1="673.72" y1="1119.57" x2="733.67" y2="1114.87" stroke-linecap="round" style="stroke:#CC79A7;stroke-width:10.00"/>
	<line x1="378.12" y1="1904.40" x2="342.72" y2="1904.40" style="stroke:#000000;stroke-width:4.00"/>
	<text x="324.94" y="1921.92" style="font-family:'Helvetica';font-size:49.99px;fill:#000000" text-anchor="end">0</text>
	<line x1="378.12" y1="1519.36" x2="342.72" y2="1519.36" style="stroke:#000000;stroke-width:4.00"/>
	<text x="324.94" y="1536.87" style="font-family:'Helvetica';font-size:49.99px;fill:#000000" text-anchor="end">200</text>
	<line x1="378.12" y1="1134.40" x2="342.72" y2="1134.40" style="stroke:#000000;stroke-width:4.00"/>
	<text x="324.94" y="1151.91" style="font-family:'Helvetica';font-size:49.99px;fill:#000000" text-anchor="end">400</text>
	<line x1="378.12" y1="749.36" x2="342.72" y2="749.36" style="stroke:#000000;stroke-width:4.00"/>
	<text x="324.94" y="766.87" style="font-family:'Helvetica';font-size:49.99px;fill:#000000" text-anchor="end">600</text>
	<line x1="378.12" y1="364.31" x2="342.72" y2="364.31" style="stroke:#000000;stroke-width:4.00"/>
	<text x="324.94" y="381.83" style="font-family:'Helvetica';font-size:49.99px;fill:#000000" text-anchor="end">800</text>
	<line x1="378.12" y1="1904.40" x2="378.12" y2="364.31" style="stroke:#000000;stroke-width:4.00"/>
	<text x="136.21" y="1096.13" style="font-family:'Helvetica';font-size:60.03px;fill:#000000" transform="rotate(-90 136.21,1096.13)" text-anchor="middle">Population counts in 1,000</text>
	<line x1="434.24" y1="1960.52" x2="434.24" y2="1995.92" style="stroke:#000000;stroke-width:4.00"/>
	<text x="434.24" y="2048.56" style="font-family:'Helvetica';font-size:49.99px;fill:#000000" text-anchor="middle">0</text>
	<line x1="733.67" y1="1960.52" x2="733.67" y2="1995.92" style="stroke:#000000;stroke-width:4.00"/>
	<text x="733.67" y="2048.56" style="font-family:'Helvetica';font-size:49.99px;fill:#000000" text-anchor="middle">5</text>
	<line x1="1033.11" y1="1960.52" x2="1033.11" y2="1995.92" style="stroke:#000000;stroke-width:4.00"/>
	<text x="1033.11" y="2048.56" style="font-family:'Helvetica';font-size:49.99px;fill:#000000" text-anchor="middle">10</text>
	<line x1="1332.54" y1="1960.52" x2="1332.54" y2="1995.92" style="stroke:#000000;stroke-width:4.00"/>
	<text x="1332.54" y="2048.56" style="font-family:'Helvetica';font-size:49.99px;fill:#000000" text-anchor="middle">15</text>
	<line x1="1632.05" y1="1960.52" x2="1632.05" y2="1995.92" style="stroke:#000000;stroke-width:4.00"/>
	<text x="1632.05" y="2048.56" style="font-family:'Helvetica';font-size:49.99px;fill:#000000" text-anchor="middle">20</text>
	<line x1="1931.49" y1="1960.52" x2="1931.49" y2="1995.92" style="stroke:#000000;stroke-width:4.00"/>
	<text x="1931.49" y="2048.56" style="font-family:'Helvetica';font-size:49.99px;fill:#000000" text-anchor="middle">25</text>
	<line x1="2230.92" y1="1960.52" x2="2230.92" y2="1995.92" style="stroke:#000000;stroke-width:4.00"/>
	<text x="2230.92" y="2048.56" style="font-family:'Helvetica';font-size:49.99px;fill:#000000" text-anchor="middle">30</text>
	<line x1="434.24" y1="1960.52" x2="2290.79" y2="1960.52" style="stroke:#000000;stroke-width:4.00"/>
	<text x="1324.25" y="2190.96" style="font-family:'Helvetica';font-size:60.03px;fill:#000000" text-anchor="middle">Duration of stay</text>
	<text x="161.52" y="2396.65" style="font-family:'Helvetica';font-size:60.03px;fill:#000000">Arr. cohort: </text>
	<text x="610.98" y="2396.65" style="font-family:'Helvetica';font-size:60.03px;fill:#000000">1964-73</text>
	<text x="965.98" y="2396.65" style="font-family:'Helvetica';font-size:60.03px;fill:#000000">1974-83</text>
	<text x="1320.98" y="2396.65" style="font-family:'Helvetica';font-size:60.03px;fill:#000000">1984-93</text>
	<text x="1675.98" y="2396.65" style="font-family:'Helvetica';font-size:60.03px;fill:#000000">1994-03</text>
	<text x="2030.98" y="2396.65" style="font-family:'Helvetica';font-size:60.03px;fill:#000000">2004-10</text>
	<line x1="610.98" y1="2320.61" x2="831.01" y2="2320.61" style="stroke:#E69F00;stroke-width:10.00"/>
	<line x1="965.98" y1="2320.61" x2="1185.93" y2="2320.61" style="stroke:#56B4E9;stroke-width:10.00"/>
	<line x1="1320.98" y1="2320.61" x2="1540.93" y2="2320.61" style="stroke:#009E73;stroke-width:10.00"/>
	<line x1="1675.98" y1="2320.61" x2="1895.93" y2="2320.61" style="stroke:#D55E00;stroke-width:10.00"/>
	<line x1="2030.98" y1="2320.61" x2="2250.93" y2="2320.61" style="stroke:#CC79A7;stroke-width:10.00"/>
	<text x="1362.52" y="239.12" style="font-family:'Helvetica';font-size:60.03px;fill:#000000" text-anchor="middle">N total, age 18-54</text>
	<text x="1362.52" y="154.88" style="font-family:'Helvetica';font-size:90.01px;fill:#000000" text-anchor="middle">Cohort size development by duration of stay, Men</text>
</svg>
