<?xml version="1.0" encoding="UTF-8" standalone="no"?>
<!-- This is a Stata 15.1 generated SVG file (http://www.stata.com) -->

<svg version="1.1" width="4.72in" height="3.54in" viewBox="0 0 3402 2551" xmlns="http://www.w3.org/2000/svg" xmlns:xlink="http://www.w3.org/1999/xlink">
	<desc>Stata Graph - Graph</desc>
	<rect x="0" y="0" width="3402" height="2551" style="fill:#FFFFFF;stroke:none"/>
	<rect x="0.00" y="0.00" width="3402.00" height="2551.00" style="fill:#FFFFFF"/>
	<rect x="2.55" y="2.55" width="3396.90" height="2545.90" style="fill:none;stroke:#FFFFFF;stroke-width:5.10"/>
	<line x1="280.03" y1="2057.38" x2="3402.00" y2="2057.38" style="stroke:#E8E8E8;stroke-width:4.00"/>
	<line x1="280.03" y1="1657.19" x2="3402.00" y2="1657.19" style="stroke:#E8E8E8;stroke-width:4.00"/>
	<line x1="280.03" y1="1256.90" x2="3402.00" y2="1256.90" style="stroke:#E8E8E8;stroke-width:4.00"/>
	<line x1="280.03" y1="856.60" x2="3402.00" y2="856.60" style="stroke:#E8E8E8;stroke-width:4.00"/>
	<line x1="280.03" y1="456.42" x2="3402.00" y2="456.42" style="stroke:#E8E8E8;stroke-width:4.00"/>
	<line x1="280.03" y1="56.12" x2="3402.00" y2="56.12" style="stroke:#E8E8E8;stroke-width:4.00"/>
	<rect x="336.16" y="56.12" width="78.78" height="2001.26" style="fill:#999999"/>
	<rect x="338.71" y="58.67" width="73.67" height="1996.16" style="fill:none;stroke:#808080;stroke-width:5.10"/>
	<rect x="966.49" y="56.12" width="78.78" height="2001.26" style="fill:#999999"/>
	<rect x="969.04" y="58.67" width="73.67" height="1996.16" style="fill:none;stroke:#808080;stroke-width:5.10"/>
	<rect x="1596.71" y="56.12" width="78.88" height="2001.26" style="fill:#999999"/>
	<rect x="1599.26" y="58.67" width="73.78" height="1996.16" style="fill:none;stroke:#808080;stroke-width:5.10"/>
	<rect x="2227.03" y="56.12" width="78.78" height="2001.26" style="fill:#999999"/>
	<rect x="2229.59" y="58.67" width="73.67" height="1996.16" style="fill:none;stroke:#808080;stroke-width:5.10"/>
	<rect x="2857.36" y="56.12" width="78.78" height="2001.26" style="fill:#999999"/>
	<rect x="2859.91" y="58.67" width="73.67" height="1996.16" style="fill:none;stroke:#808080;stroke-width:5.10"/>
	<rect x="336.16" y="450.04" width="78.78" height="1607.34" style="fill:#B9B9B9"/>
	<rect x="338.71" y="452.59" width="73.67" height="1602.24" style="fill:none;stroke:#808080;stroke-width:5.10"/>
	<rect x="966.49" y="588.01" width="78.78" height="1469.38" style="fill:#B9B9B9"/>
	<rect x="969.04" y="590.56" width="73.67" height="1464.27" style="fill:none;stroke:#808080;stroke-width:5.10"/>
	<rect x="1596.71" y="688.24" width="78.88" height="1369.14" style="fill:#B9B9B9"/>
	<rect x="1599.26" y="690.79" width="73.78" height="1364.04" style="fill:none;stroke:#808080;stroke-width:5.10"/>
	<rect x="2227.03" y="703.54" width="78.78" height="1353.84" style="fill:#B9B9B9"/>
	<rect x="2229.59" y="706.10" width="73.67" height="1348.73" style="fill:none;stroke:#808080;stroke-width:5.10"/>
	<rect x="2857.36" y="750.10" width="78.78" height="1307.28" style="fill:#B9B9B9"/>
	<rect x="2859.91" y="752.65" width="73.67" height="1302.18" style="fill:none;stroke:#808080;stroke-width:5.10"/>
	<rect x="336.16" y="1651.67" width="78.78" height="405.72" style="fill:#D9D9D9"/>
	<rect x="338.71" y="1654.22" width="73.67" height="400.61" style="fill:none;stroke:#808080;stroke-width:5.10"/>
	<rect x="966.49" y="1765.93" width="78.78" height="291.45" style="fill:#D9D9D9"/>
	<rect x="969.04" y="1768.48" width="73.67" height="286.35" style="fill:none;stroke:#808080;stroke-width:5.10"/>
	<rect x="1596.71" y="1872.54" width="78.88" height="184.84" style="fill:#D9D9D9"/>
	<rect x="1599.26" y="1875.09" width="73.78" height="179.74" style="fill:none;stroke:#808080;stroke-width:5.10"/>
	<rect x="2227.03" y="1869.03" width="78.78" height="188.35" style="fill:#D9D9D9"/>
	<rect x="2229.59" y="1871.58" width="73.67" height="183.25" style="fill:none;stroke:#808080;stroke-width:5.10"/>
	<rect x="2857.36" y="1896.14" width="78.78" height="161.24" style="fill:#D9D9D9"/>
	<rect x="2859.91" y="1898.69" width="73.67" height="156.14" style="fill:none;stroke:#808080;stroke-width:5.10"/>
	<rect x="430.67" y="56.12" width="78.78" height="2001.26" style="fill:#999999"/>
	<rect x="433.22" y="58.67" width="73.67" height="1996.16" style="fill:none;stroke:#808080;stroke-width:5.10"/>
	<rect x="1061.00" y="56.12" width="78.78" height="2001.26" style="fill:#999999"/>
	<rect x="1063.55" y="58.67" width="73.67" height="1996.16" style="fill:none;stroke:#808080;stroke-width:5.10"/>
	<rect x="1691.33" y="56.12" width="78.78" height="2001.26" style="fill:#999999"/>
	<rect x="1693.88" y="58.67" width="73.67" height="1996.16" style="fill:none;stroke:#808080;stroke-width:5.10"/>
	<rect x="2321.65" y="56.12" width="78.78" height="2001.26" style="fill:#999999"/>
	<rect x="2324.20" y="58.67" width="73.67" height="1996.16" style="fill:none;stroke:#808080;stroke-width:5.10"/>
	<rect x="2951.87" y="56.12" width="78.88" height="2001.26" style="fill:#999999"/>
	<rect x="2954.42" y="58.67" width="73.78" height="1996.16" style="fill:none;stroke:#808080;stroke-width:5.10"/>
	<rect x="430.67" y="171.66" width="78.78" height="1885.72" style="fill:#B9B9B9"/>
	<rect x="433.22" y="174.21" width="73.67" height="1880.62" style="fill:none;stroke:#808080;stroke-width:5.10"/>
	<rect x="1061.00" y="265.73" width="78.78" height="1791.65" style="fill:#B9B9B9"/>
	<rect x="1063.55" y="268.28" width="73.67" height="1786.55" style="fill:none;stroke:#808080;stroke-width:5.10"/>
	<rect x="1691.33" y="391.47" width="78.78" height="1665.91" style="fill:#B9B9B9"/>
	<rect x="1693.88" y="394.02" width="73.67" height="1660.81" style="fill:none;stroke:#808080;stroke-width:5.10"/>
	<rect x="2321.65" y="500.31" width="78.78" height="1557.07" style="fill:#B9B9B9"/>
	<rect x="2324.20" y="502.87" width="73.67" height="1551.96" style="fill:none;stroke:#808080;stroke-width:5.10"/>
	<rect x="2951.87" y="608.41" width="78.88" height="1448.97" style="fill:#B9B9B9"/>
	<rect x="2954.42" y="610.97" width="73.78" height="1443.86" style="fill:none;stroke:#808080;stroke-width:5.10"/>
	<rect x="430.67" y="1086.09" width="78.78" height="971.29" style="fill:#D9D9D9"/>
	<rect x="433.22" y="1088.64" width="73.67" height="966.19" style="fill:none;stroke:#808080;stroke-width:5.10"/>
	<rect x="1061.00" y="1361.70" width="78.78" height="695.68" style="fill:#D9D9D9"/>
	<rect x="1063.55" y="1364.25" width="73.67" height="690.58" style="fill:none;stroke:#808080;stroke-width:5.10"/>
	<rect x="1691.33" y="1678.45" width="78.78" height="378.93" style="fill:#D9D9D9"/>
	<rect x="1693.88" y="1681.00" width="73.67" height="373.83" style="fill:none;stroke:#808080;stroke-width:5.10"/>
	<rect x="2321.65" y="1768.80" width="78.78" height="288.58" style="fill:#D9D9D9"/>
	<rect x="2324.20" y="1771.35" width="73.67" height="283.48" style="fill:none;stroke:#808080;stroke-width:5.10"/>
	<rect x="2951.87" y="1841.08" width="78.88" height="216.30" style="fill:#D9D9D9"/>
	<rect x="2954.42" y="1843.63" width="73.78" height="211.20" style="fill:none;stroke:#808080;stroke-width:5.10"/>
	<rect x="651.27" y="56.12" width="78.78" height="2001.26" style="fill:#EBB233"/>
	<rect x="653.82" y="58.67" width="73.67" height="1996.16" style="fill:none;stroke:#E69F00;stroke-width:5.10"/>
	<rect x="651.27" y="237.99" width="78.78" height="1819.39" style="fill:#F1CA73"/>
	<rect x="653.82" y="240.54" width="73.67" height="1814.29" style="fill:none;stroke:#E69F00;stroke-width:5.10"/>
	<rect x="651.27" y="938.77" width="78.78" height="1118.61" style="fill:#F8E2B3"/>
	<rect x="653.82" y="941.32" width="73.67" height="1113.51" style="fill:none;stroke:#E69F00;stroke-width:5.10"/>
	<rect x="745.78" y="56.12" width="78.88" height="2001.26" style="fill:#EBB233"/>
	<rect x="748.33" y="58.67" width="73.78" height="1996.16" style="fill:none;stroke:#E69F00;stroke-width:5.10"/>
	<rect x="745.78" y="170.60" width="78.88" height="1886.78" style="fill:#F1CA73"/>
	<rect x="748.33" y="173.15" width="73.78" height="1881.68" style="fill:none;stroke:#E69F00;stroke-width:5.10"/>
	<rect x="745.78" y="637.54" width="78.88" height="1419.84" style="fill:#F8E2B3"/>
	<rect x="748.33" y="640.09" width="73.78" height="1414.74" style="fill:none;stroke:#E69F00;stroke-width:5.10"/>
	<rect x="1281.60" y="56.12" width="78.78" height="2001.26" style="fill:#78C3ED"/>
	<rect x="1284.15" y="58.67" width="73.67" height="1996.16" style="fill:none;stroke:#56B4E9;stroke-width:5.10"/>
	<rect x="1281.60" y="595.66" width="78.78" height="1461.72" style="fill:#A2D6F3"/>
	<rect x="1284.15" y="598.21" width="73.67" height="1456.62" style="fill:none;stroke:#56B4E9;stroke-width:5.10"/>
	<rect x="1281.60" y="1340.34" width="78.78" height="717.04" style="fill:#CCE9F8"/>
	<rect x="1284.15" y="1342.89" width="73.67" height="711.94" style="fill:none;stroke:#56B4E9;stroke-width:5.10"/>
	<rect x="1376.11" y="56.12" width="78.78" height="2001.26" style="fill:#78C3ED"/>
	<rect x="1378.66" y="58.67" width="73.67" height="1996.16" style="fill:none;stroke:#56B4E9;stroke-width:5.10"/>
	<rect x="1376.11" y="386.37" width="78.78" height="1671.01" style="fill:#A2D6F3"/>
	<rect x="1378.66" y="388.92" width="73.67" height="1665.91" style="fill:none;stroke:#56B4E9;stroke-width:5.10"/>
	<rect x="1376.11" y="897.21" width="78.78" height="1160.17" style="fill:#CCE9F8"/>
	<rect x="1378.66" y="899.76" width="73.67" height="1155.07" style="fill:none;stroke:#56B4E9;stroke-width:5.10"/>
	<rect x="1911.92" y="56.12" width="78.78" height="2001.26" style="fill:#33B18F"/>
	<rect x="1914.48" y="58.67" width="73.67" height="1996.16" style="fill:none;stroke:#009E73;stroke-width:5.10"/>
	<rect x="1911.92" y="532.31" width="78.78" height="1525.07" style="fill:#73CAB2"/>
	<rect x="1914.48" y="534.86" width="73.67" height="1519.97" style="fill:none;stroke:#009E73;stroke-width:5.10"/>
	<rect x="1911.92" y="1337.79" width="78.78" height="719.59" style="fill:#B3E2D5"/>
	<rect x="1914.48" y="1340.34" width="73.67" height="714.49" style="fill:none;stroke:#009E73;stroke-width:5.10"/>
	<rect x="2006.44" y="56.12" width="78.78" height="2001.26" style="fill:#33B18F"/>
	<rect x="2008.99" y="58.67" width="73.67" height="1996.16" style="fill:none;stroke:#009E73;stroke-width:5.10"/>
	<rect x="2006.44" y="469.38" width="78.78" height="1588.00" style="fill:#73CAB2"/>
	<rect x="2008.99" y="471.94" width="73.67" height="1582.89" style="fill:none;stroke:#009E73;stroke-width:5.10"/>
	<rect x="2006.44" y="1081.31" width="78.78" height="976.08" style="fill:#B3E2D5"/>
	<rect x="2008.99" y="1083.86" width="73.67" height="970.97" style="fill:none;stroke:#009E73;stroke-width:5.10"/>
	<rect x="2542.25" y="56.12" width="78.78" height="2001.26" style="fill:#DD7E33"/>
	<rect x="2544.80" y="58.67" width="73.67" height="1996.16" style="fill:none;stroke:#D55E00;stroke-width:5.10"/>
	<rect x="2542.25" y="671.76" width="78.78" height="1385.62" style="fill:#E8A673"/>
	<rect x="2544.80" y="674.31" width="73.67" height="1380.52" style="fill:none;stroke:#D55E00;stroke-width:5.10"/>
	<rect x="2542.25" y="1429.52" width="78.78" height="627.86" style="fill:#F2CFB3"/>
	<rect x="2544.80" y="1432.07" width="73.67" height="622.76" style="fill:none;stroke:#D55E00;stroke-width:5.10"/>
	<rect x="2636.76" y="56.12" width="78.78" height="2001.26" style="fill:#DD7E33"/>
	<rect x="2639.31" y="58.67" width="73.67" height="1996.16" style="fill:none;stroke:#D55E00;stroke-width:5.10"/>
	<rect x="2636.76" y="609.69" width="78.78" height="1447.69" style="fill:#E8A673"/>
	<rect x="2639.31" y="612.24" width="73.67" height="1442.59" style="fill:none;stroke:#D55E00;stroke-width:5.10"/>
	<rect x="2636.76" y="1266.25" width="78.78" height="791.13" style="fill:#F2CFB3"/>
	<rect x="2639.31" y="1268.80" width="73.67" height="786.03" style="fill:none;stroke:#D55E00;stroke-width:5.10"/>
	<rect x="3172.58" y="56.12" width="78.78" height="2001.26" style="fill:#D694B9"/>
	<rect x="3175.13" y="58.67" width="73.67" height="1996.16" style="fill:none;stroke:#CC79A7;stroke-width:5.10"/>
	<rect x="3172.58" y="869.57" width="78.78" height="1187.81" style="fill:#E3B5CF"/>
	<rect x="3175.13" y="872.12" width="73.67" height="1182.71" style="fill:none;stroke:#CC79A7;stroke-width:5.10"/>
	<rect x="3172.58" y="1568.44" width="78.78" height="488.94" style="fill:#F0D7E5"/>
	<rect x="3175.13" y="1570.99" width="73.67" height="483.84" style="fill:none;stroke:#CC79A7;stroke-width:5.10"/>
	<rect x="3267.09" y="56.12" width="78.78" height="2001.26" style="fill:#D694B9"/>
	<rect x="3269.64" y="58.67" width="73.67" height="1996.16" style="fill:none;stroke:#CC79A7;stroke-width:5.10"/>
	<rect x="3267.09" y="864.68" width="78.78" height="1192.70" style="fill:#E3B5CF"/>
	<rect x="3269.64" y="867.23" width="73.67" height="1187.60" style="fill:none;stroke:#CC79A7;stroke-width:5.10"/>
	<rect x="3267.09" y="1486.60" width="78.78" height="570.79" style="fill:#F0D7E5"/>
	<rect x="3269.64" y="1489.15" width="73.67" height="565.68" style="fill:none;stroke:#CC79A7;stroke-width:5.10"/>
	<line x1="280.03" y1="2057.38" x2="244.52" y2="2057.38" style="stroke:#000000;stroke-width:4.00"/>
	<text x="226.87" y="2074.89" style="font-family:'Helvetica';font-size:49.97px;fill:#000000" text-anchor="end">0</text>
	<line x1="280.03" y1="1657.19" x2="244.52" y2="1657.19" style="stroke:#000000;stroke-width:4.00"/>
	<text x="226.87" y="1674.70" style="font-family:'Helvetica';font-size:49.97px;fill:#000000" text-anchor="end">.2</text>
	<line x1="280.03" y1="1256.90" x2="244.52" y2="1256.90" style="stroke:#000000;stroke-width:4.00"/>
	<text x="226.87" y="1274.41" style="font-family:'Helvetica';font-size:49.97px;fill:#000000" text-anchor="end">.4</text>
	<line x1="280.03" y1="856.60" x2="244.52" y2="856.60" style="stroke:#000000;stroke-width:4.00"/>
	<text x="226.87" y="874.12" style="font-family:'Helvetica';font-size:49.97px;fill:#000000" text-anchor="end">.6</text>
	<line x1="280.03" y1="456.42" x2="244.52" y2="456.42" style="stroke:#000000;stroke-width:4.00"/>
	<text x="226.87" y="473.93" style="font-family:'Helvetica';font-size:49.97px;fill:#000000" text-anchor="end">.8</text>
	<line x1="280.03" y1="56.12" x2="244.52" y2="56.12" style="stroke:#000000;stroke-width:4.00"/>
	<text x="226.87" y="73.63" style="font-family:'Helvetica';font-size:49.97px;fill:#000000" text-anchor="end">1</text>
	<line x1="280.03" y1="2057.38" x2="280.03" y2="56.12" style="stroke:#000000;stroke-width:4.00"/>
	<text x="110.70" y="1095.02" style="font-family:'Helvetica';font-size:59.96px;fill:#000000" transform="rotate(-90 110.70,1095.02)" text-anchor="middle">ISCED Shares</text>
	<line x1="375.50" y1="2113.50" x2="375.50" y2="2149.00" style="stroke:#000000;stroke-width:4.00"/>
	<text x="375.50" y="2201.57" style="font-family:'Helvetica';font-size:49.97px;fill:#000000" text-anchor="middle">M</text>
	<line x1="470.11" y1="2113.50" x2="470.11" y2="2149.00" style="stroke:#000000;stroke-width:4.00"/>
	<text x="470.11" y="2201.57" style="font-family:'Helvetica';font-size:49.97px;fill:#000000" text-anchor="middle">W</text>
	<line x1="690.71" y1="2113.50" x2="690.71" y2="2149.00" style="stroke:#000000;stroke-width:4.00"/>
	<text x="690.71" y="2201.57" style="font-family:'Helvetica';font-size:49.97px;fill:#000000" text-anchor="middle">M</text>
	<line x1="785.22" y1="2113.50" x2="785.22" y2="2149.00" style="stroke:#000000;stroke-width:4.00"/>
	<text x="785.22" y="2201.57" style="font-family:'Helvetica';font-size:49.97px;fill:#000000" text-anchor="middle">W</text>
	<line x1="1005.82" y1="2113.50" x2="1005.82" y2="2149.00" style="stroke:#000000;stroke-width:4.00"/>
	<text x="1005.82" y="2201.57" style="font-family:'Helvetica';font-size:49.97px;fill:#000000" text-anchor="middle">M</text>
	<line x1="1100.33" y1="2113.50" x2="1100.33" y2="2149.00" style="stroke:#000000;stroke-width:4.00"/>
	<text x="1100.33" y="2201.57" style="font-family:'Helvetica';font-size:49.97px;fill:#000000" text-anchor="middle">W</text>
	<line x1="1321.04" y1="2113.50" x2="1321.04" y2="2149.00" style="stroke:#000000;stroke-width:4.00"/>
	<text x="1321.04" y="2201.57" style="font-family:'Helvetica';font-size:49.97px;fill:#000000" text-anchor="middle">M</text>
	<line x1="1415.55" y1="2113.50" x2="1415.55" y2="2149.00" style="stroke:#000000;stroke-width:4.00"/>
	<text x="1415.55" y="2201.57" style="font-family:'Helvetica';font-size:49.97px;fill:#000000" text-anchor="middle">W</text>
	<line x1="1636.15" y1="2113.50" x2="1636.15" y2="2149.00" style="stroke:#000000;stroke-width:4.00"/>
	<text x="1636.15" y="2201.57" style="font-family:'Helvetica';font-size:49.97px;fill:#000000" text-anchor="middle">M</text>
	<line x1="1730.66" y1="2113.50" x2="1730.66" y2="2149.00" style="stroke:#000000;stroke-width:4.00"/>
	<text x="1730.66" y="2201.57" style="font-family:'Helvetica';font-size:49.97px;fill:#000000" text-anchor="middle">W</text>
	<line x1="1951.26" y1="2113.50" x2="1951.26" y2="2149.00" style="stroke:#000000;stroke-width:4.00"/>
	<text x="1951.26" y="2201.57" style="font-family:'Helvetica';font-size:49.97px;fill:#000000" text-anchor="middle">M</text>
	<line x1="2045.88" y1="2113.50" x2="2045.88" y2="2149.00" style="stroke:#000000;stroke-width:4.00"/>
	<text x="2045.88" y="2201.57" style="font-family:'Helvetica';font-size:49.97px;fill:#000000" text-anchor="middle">W</text>
	<line x1="2266.48" y1="2113.50" x2="2266.48" y2="2149.00" style="stroke:#000000;stroke-width:4.00"/>
	<text x="2266.48" y="2201.57" style="font-family:'Helvetica';font-size:49.97px;fill:#000000" text-anchor="middle">M</text>
	<line x1="2360.99" y1="2113.50" x2="2360.99" y2="2149.00" style="stroke:#000000;stroke-width:4.00"/>
	<text x="2360.99" y="2201.57" style="font-family:'Helvetica';font-size:49.97px;fill:#000000" text-anchor="middle">W</text>
	<line x1="2581.59" y1="2113.50" x2="2581.59" y2="2149.00" style="stroke:#000000;stroke-width:4.00"/>
	<text x="2581.59" y="2201.57" style="font-family:'Helvetica';font-size:49.97px;fill:#000000" text-anchor="middle">M</text>
	<line x1="2676.20" y1="2113.50" x2="2676.20" y2="2149.00" style="stroke:#000000;stroke-width:4.00"/>
	<text x="2676.20" y="2201.57" style="font-family:'Helvetica';font-size:49.97px;fill:#000000" text-anchor="middle">W</text>
	<line x1="2896.80" y1="2113.50" x2="2896.80" y2="2149.00" style="stroke:#000000;stroke-width:4.00"/>
	<text x="2896.80" y="2201.57" style="font-family:'Helvetica';font-size:49.97px;fill:#000000" text-anchor="middle">M</text>
	<line x1="2991.31" y1="2113.50" x2="2991.31" y2="2149.00" style="stroke:#000000;stroke-width:4.00"/>
	<text x="2991.31" y="2201.57" style="font-family:'Helvetica';font-size:49.97px;fill:#000000" text-anchor="middle">W</text>
	<line x1="3211.91" y1="2113.50" x2="3211.91" y2="2149.00" style="stroke:#000000;stroke-width:4.00"/>
	<text x="3211.91" y="2201.57" style="font-family:'Helvetica';font-size:49.97px;fill:#000000" text-anchor="middle">M</text>
	<line x1="3306.43" y1="2113.50" x2="3306.43" y2="2149.00" style="stroke:#000000;stroke-width:4.00"/>
	<text x="3306.43" y="2201.57" style="font-family:'Helvetica';font-size:49.97px;fill:#000000" text-anchor="middle">W</text>
	<line x1="375.50" y1="2113.50" x2="3306.43" y2="2113.50" style="stroke:#000000;stroke-width:4.00"/>
	<text x="374.54" y="2359.65" style="font-family:'Helvetica';font-size:49.97px;fill:#000000">Educational levels:</text>
	<text x="922.47" y="2359.65" style="font-family:'Helvetica';font-size:49.97px;fill:#000000">ISCED 0-2</text>
	<text x="1318.38" y="2359.65" style="font-family:'Helvetica';font-size:49.97px;fill:#000000">ISCED 3-4</text>
	<text x="1757.88" y="2359.65" style="font-family:'Helvetica';font-size:49.97px;fill:#000000">ISCED 5-6</text>
	<text x="374.54" y="2469.66" style="font-family:'Helvetica';font-size:49.97px;fill:#000000">Cohorts:</text>
	<text x="922.47" y="2469.66" style="font-family:'Helvetica';font-size:49.97px;fill:#000000">German</text>
	<text x="1318.38" y="2469.66" style="font-family:'Helvetica';font-size:49.97px;fill:#000000">1964-73 (76)</text>
	<text x="1757.88" y="2469.66" style="font-family:'Helvetica';font-size:49.97px;fill:#000000">1974-83 (85)</text>
	<text x="2197.37" y="2469.66" style="font-family:'Helvetica';font-size:49.97px;fill:#000000">1984-93 (95)</text>
	<text x="2636.87" y="2469.66" style="font-family:'Helvetica';font-size:49.97px;fill:#000000">1994-03 (04)</text>
	<text x="3076.47" y="2469.66" style="font-family:'Helvetica';font-size:49.97px;fill:#000000">2004-10 (11)</text>
	<rect x="845.50" y="2312.16" width="51.35" height="59.95" style="fill:#D9D9D9"/>
	<rect x="848.05" y="2314.71" width="46.25" height="54.85" style="fill:none;stroke:#808080;stroke-width:5.10"/>
	<rect x="1241.41" y="2312.16" width="51.35" height="59.95" style="fill:#B9B9B9"/>
	<rect x="1243.96" y="2314.71" width="46.25" height="54.85" style="fill:none;stroke:#808080;stroke-width:5.10"/>
	<rect x="1681.01" y="2312.16" width="51.24" height="59.95" style="fill:#999999"/>
	<rect x="1683.56" y="2314.71" width="46.14" height="54.85" style="fill:none;stroke:#808080;stroke-width:5.10"/>
	<rect x="845.50" y="2422.17" width="51.35" height="59.95" style="fill:#999999"/>
	<rect x="848.05" y="2424.73" width="46.25" height="54.85" style="fill:none;stroke:#808080;stroke-width:5.10"/>
	<rect x="1241.41" y="2422.17" width="51.35" height="59.95" style="fill:#EBB233"/>
	<rect x="1243.96" y="2424.73" width="46.25" height="54.85" style="fill:none;stroke:#E69F00;stroke-width:5.10"/>
	<rect x="1681.01" y="2422.17" width="51.24" height="59.95" style="fill:#78C3ED"/>
	<rect x="1683.56" y="2424.73" width="46.14" height="54.85" style="fill:none;stroke:#56B4E9;stroke-width:5.10"/>
	<rect x="2120.51" y="2422.17" width="51.24" height="59.95" style="fill:#33B18F"/>
	<rect x="2123.06" y="2424.73" width="46.14" height="54.85" style="fill:none;stroke:#009E73;stroke-width:5.10"/>
	<rect x="2560.01" y="2422.17" width="51.24" height="59.95" style="fill:#DD7E33"/>
	<rect x="2562.56" y="2424.73" width="46.14" height="54.85" style="fill:none;stroke:#D55E00;stroke-width:5.10"/>
	<rect x="2999.50" y="2422.17" width="51.35" height="59.95" style="fill:#D694B9"/>
	<rect x="3002.05" y="2424.73" width="46.25" height="54.85" style="fill:none;stroke:#CC79A7;stroke-width:5.10"/>
</svg>
